<svg width="160" height="160" viewBox="0 0 160 160" fill="none" xmlns="http://www.w3.org/2000/svg">
<path d="M135.132 60.3777C132.769 57.0152 129.344 45.0696 125.383 42.3137C122.068 40.0065 113.359 42.2271 111.067 37.8724C107.335 30.8168 108.792 24.4777 101.886 19.509C96.3422 15.5246 82.2309 5.09866 73.2462 10.6659C66.679 14.7368 64.844 23.5093 60.3322 23.4934C56.9225 23.4934 50.2134 23.5249 47.6069 25.9974C38.5197 34.6359 40.5512 46.1405 36.6772 49.4477C33.8815 51.8259 25.7237 44.9749 14.1559 56.6293C1.12374 69.764 -2.17564 88.9465 1.28124 100.553C7.28967 120.696 31.039 121.657 46.355 117.901C51.93 116.539 55.8203 100.191 60.2062 96.4112C68.695 89.0958 77.0184 83.4421 88.3653 82.0799C94.2869 81.3709 99.9016 80.3315 105.744 79.2527C108.17 78.804 110.548 78.0165 112.95 77.5755L135.132 60.3777Z" fill="#567A3A"/>
<path d="M154.983 76.0954C152.905 74.5364 145.605 74.4495 147.676 67.2129C149.156 62.0395 147.959 57.7004 143.345 55.3223C132.714 49.8339 119.973 55.2592 119.352 56.157C119.352 56.157 71.0887 56.2989 70.8212 50.2982C70.1756 35.9035 53.6153 34.7461 53.4656 39.5179C53.245 47.2586 42.8034 61.1179 39.9925 63.2598C37.6222 65.0945 28.6215 67.6539 24.519 78.1111C15.55 101.01 27.7084 122.634 35.1812 132.595C42.9219 142.91 56.3559 151.659 83.7194 150.887C91.4994 150.663 105.922 146.574 107.574 144.024C114.976 146.774 122.342 147.901 130.604 147.832C136.612 147.785 145.456 145.013 149.495 139.918C154.165 134.02 155.007 124.807 154.07 117.413C152.873 107.979 148.314 101.467 149.196 100.002C151.322 96.4745 156.574 95.7026 158.74 91.8048C161.653 86.5529 159.142 79.1742 154.983 76.0954Z" fill="#89C147"/>
<path d="M134.518 75.7014C131.699 65.3858 110.76 38.502 74.4985 44.7545C72.9185 45.0267 71.4347 45.422 70.0372 45.9155C70.4703 47.2148 70.7481 48.6708 70.821 50.298C71.0885 56.2986 66.5688 61.2358 67.7497 66.6376C68.6631 70.8348 74.5769 67.6533 80.1991 75.3861C85.5694 82.7723 82.3803 90.4108 83.7188 95.3164C85.1206 100.475 91.9163 99.0726 96.145 107.743C99.6413 114.932 93.4519 121.657 94.0269 123.925C95.7763 130.672 107.236 129.94 107.796 140.916C114.64 138.349 124.394 133.324 131.383 124.24C135.399 119.011 141.069 99.7186 134.518 75.7014Z" fill="#ADD485"/>
<path d="M131.261 124.396C129.323 126.89 127.177 129.077 124.942 130.988C133.109 129.988 145.337 133.233 148.983 140.367C148.894 132.866 140.02 126.752 131.261 124.396ZM136.208 111.321C140.631 110.93 146.557 109.201 151.361 107.058C146.987 105.881 141.394 104.502 137.257 103.776C137.031 106.502 136.665 109.027 136.208 111.321ZM142.739 79.4811C146.117 77.158 148.558 75.473 150.456 74.1264C149.154 73.4733 141.286 75.6548 135.037 77.7014C135.56 79.8155 135.99 81.8895 136.335 83.9183C138.311 82.5333 140.718 80.8758 142.739 79.4811ZM85.5278 43.8277C89.1506 34.5677 89.5672 21.0267 84.554 9.91797C85.3456 20.437 81.8462 37.9002 76.5972 44.4311C79.6903 43.9989 82.6678 43.808 85.5278 43.8277ZM39.9925 63.2598C40.0847 63.1895 40.1859 63.1055 40.2937 63.0108C38.6391 57.6964 35.3097 52.2398 31.7084 49.7314C33.1506 56.2214 33.9697 62.9255 33.9212 66.7627C36.5791 65.0339 38.9397 64.0745 39.9925 63.2598ZM24.5187 78.1111C24.8972 77.1464 25.3178 76.2498 25.7706 75.4142C17.8094 78.5855 5.18374 78.0889 3.16312 77.4105C2.84812 77.253 2.51749 77.2136 2.18655 77.143C8.86405 83.8348 16.3744 85.1748 22.555 84.4148C23.0434 82.3295 23.6906 80.2258 24.5187 78.1111ZM51.56 46.4002C49.6069 58.1883 29.1019 90.198 21.6209 99.797C21.9675 103.309 22.6603 106.695 23.6053 109.892C34.0472 98.372 54.4734 66.7561 51.56 46.4002ZM55.0091 100.742C68.2066 102.49 83.3334 92.7023 83.3572 91.1827C77.3175 93.167 64.5216 94.8914 59.1431 93.7498C60.0016 92.238 66.0253 74.4492 66.5294 66.8898C62.5606 71.0317 54.9381 87.0486 49.6306 94.3089C44.9925 100.656 34.0156 109.231 24.7394 113.381C25.6844 116.011 26.7631 118.476 27.9128 120.783C37.1969 116.649 49.1897 109.058 55.0091 100.742ZM29.85 124.413C31.6691 127.626 33.5353 130.406 35.1809 132.595C35.5194 133.052 35.9369 133.476 36.3072 133.926C42.6225 134.941 49.1425 135.469 55.5681 135.469C72.0969 135.469 91.2316 125.854 95.7597 118.72C87.7115 125.83 55.5759 130.957 29.85 124.413Z" fill="#6D9D48"/>
<path d="M87.0266 43.873C93.6569 51.1965 97.3184 65.3546 96.1216 80.198C95.4012 89.1224 92.8728 96.5496 89.3916 100.516C91.3291 101.665 93.4425 103.185 95.2403 106.099C100.099 100.774 103.263 91.9646 104.162 80.8518C105.107 69.1818 99.8775 49.2434 87.0266 43.873ZM111.627 50.653C119.287 74.0959 116.386 107.45 98.1987 128.855C100.334 130.262 102.846 131.521 104.768 133.532C122.623 111.76 126.702 77.678 111.627 50.653Z" fill="#E1DDD1"/>
</svg>
