<svg width="160" height="160" viewBox="0 0 160 160" fill="none" xmlns="http://www.w3.org/2000/svg">
<g clip-path="url(#clip0_152_1039)">
<path d="M106.556 16.9687C101.438 28.207 95.435 49.3022 96.7401 59.7527C96.8675 60.7736 97.8174 61.2034 98.6723 60.6274C107.423 54.7284 119.432 36.3519 124.55 25.1136C129.668 13.8754 127.072 11.5836 125.767 1.13278C125.64 0.111918 124.69 -0.317886 123.835 0.258114C115.084 6.15741 111.674 5.73043 106.556 16.9687Z" fill="url(#paint0_linear_152_1039)"/>
<path d="M98.6723 60.6275C107.423 54.7285 119.432 36.3521 124.55 25.1138C129.668 13.8755 127.072 11.5837 125.767 1.13292C125.703 0.622484 125.434 0.259817 125.074 0.0966797L97.4331 60.7888C97.7936 60.9522 98.2447 60.9158 98.6723 60.6275Z" fill="url(#paint1_linear_152_1039)"/>
<path d="M134.844 35.495C123.608 40.6184 105.237 52.6009 99.366 61.3438C98.7925 62.1977 99.2273 63.1455 100.25 63.2716C110.725 64.561 131.844 58.5707 143.08 53.4473C154.316 48.3238 153.86 44.8911 159.732 36.1478C160.305 35.2939 159.87 34.3461 158.847 34.22C148.373 32.9309 146.079 30.3715 134.844 35.495Z" fill="url(#paint2_linear_152_1039)"/>
<path d="M100.25 63.2716C110.724 64.561 131.844 58.5707 143.08 53.4473C154.315 48.3238 153.86 44.8911 159.731 36.1478C160.018 35.7209 160.053 35.2703 159.888 34.9111L99.2091 62.5808C99.3741 62.9403 99.7387 63.2085 100.25 63.2716Z" fill="url(#paint3_linear_152_1039)"/>
<path d="M122.095 23.9523C113.377 32.6977 100.389 50.3718 97.9648 60.6206C97.728 61.6217 98.4681 62.3561 99.4704 62.1145C109.73 59.6408 127.397 46.6105 136.115 37.8651C144.834 29.1197 143.201 26.0659 145.625 15.8171C145.862 14.816 145.122 14.0816 144.12 14.3231C133.86 16.7972 130.813 15.2069 122.095 23.9523Z" fill="url(#paint4_linear_152_1039)"/>
<path d="M99.4701 62.1143C109.729 59.6406 127.396 46.6103 136.115 37.8649C144.833 29.1195 143.201 26.0657 145.625 15.8169C145.743 15.3165 145.617 14.8826 145.337 14.604L98.2525 61.8335C98.5333 62.1121 98.9691 62.2351 99.4701 62.1143Z" fill="url(#paint5_linear_152_1039)"/>
<path d="M101.077 31.9541C98.0687 41.9961 95.904 53.0578 96.7401 59.7527C96.8307 60.4796 97.339 60.9044 97.9325 60.8821C97.8808 61.6263 98.384 62.1687 99.1121 62.1599C99.1306 62.7187 99.5535 63.1858 100.25 63.2714C106.954 64.0968 118.016 61.9387 128.059 58.9357L101.077 31.9541Z" fill="url(#paint6_linear_152_1039)"/>
<path d="M102.663 107.919C73.6687 136.913 17.2269 170.715 3.26303 156.751C-10.7012 142.786 23.1002 86.3451 52.0944 57.3509C81.0886 28.3567 94.2961 37.7895 108.26 51.7537C122.224 65.7176 131.657 78.9248 102.663 107.919Z" fill="url(#paint7_linear_152_1039)"/>
<path d="M76.1926 74.5511C77.4867 75.0208 79.2825 75.7793 81.2909 76.8843C82.3027 77.4342 83.3606 78.0783 84.4511 78.7958C85.5303 79.5284 86.6553 80.3227 87.7449 81.2212C88.853 82.1056 89.9366 83.0832 90.9929 84.1188C92.0433 85.1626 93.0566 86.2722 94.0106 87.4321C94.4856 88.0134 94.9436 88.6085 95.3822 89.2153C95.8415 89.806 96.2387 90.4397 96.645 91.0584C97.0647 91.667 97.4218 92.3139 97.7832 92.9445C98.1549 93.5676 98.4674 94.2211 98.7846 94.8545C99.4039 96.1304 99.924 97.4088 100.349 98.6543C100.574 99.2683 100.74 99.8957 100.912 100.492C101.085 101.088 101.223 101.677 101.337 102.252C101.596 103.38 101.719 104.466 101.836 105.414C101.918 106.378 101.952 107.228 101.969 107.928C101.96 108.638 101.291 108.918 101.053 108.327C100.784 107.751 100.459 107.052 100.084 106.249C99.6774 105.466 99.2696 104.562 98.7397 103.623C98.4887 103.146 98.2359 102.646 97.9319 102.152C97.6345 101.654 97.3722 101.116 97.0321 100.602C96.4047 99.5441 95.706 98.4539 94.9662 97.3392C94.5716 96.7971 94.2262 96.211 93.8108 95.6601C93.3992 95.107 93.0127 94.5279 92.5844 93.9695C92.1672 93.4038 91.7349 92.8429 91.2972 92.2816C90.8696 91.7132 90.4185 91.1585 89.9592 90.6101C89.0738 89.4879 88.1201 88.4187 87.2037 87.347C86.7319 86.8219 86.2644 86.3011 85.8023 85.7869C85.332 85.2786 84.8677 84.7764 84.4109 84.2826C82.5731 82.3177 80.8062 80.5213 79.2705 78.9935C77.7618 77.5042 76.4991 76.2584 75.6006 75.3715C74.6531 74.4357 74.9016 74.0846 76.1926 74.5511Z" fill="url(#paint8_linear_152_1039)"/>
<path d="M38.7686 73.9581C40.0442 74.1077 41.8412 74.4108 43.9168 74.9777C44.9606 75.2575 46.0693 75.6108 47.2263 76.023C48.3767 76.4509 49.584 76.924 50.7865 77.4972C52.0015 78.0541 53.2188 78.6984 54.4273 79.4006C55.632 80.1108 56.821 80.8873 57.9702 81.7209C58.5433 82.1394 59.1049 82.5736 59.6524 83.0222C60.2139 83.4523 60.7316 83.9333 61.2533 84.3992C61.7844 84.8531 62.2698 85.3548 62.7548 85.8407C63.247 86.3179 63.6947 86.8343 64.1411 87.3319C65.023 88.3386 65.8177 89.3683 66.5198 90.3885C66.8793 90.8883 67.1899 91.4122 67.498 91.9079C67.8064 92.4026 68.0834 92.8983 68.3341 93.3858C68.858 94.3377 69.2495 95.2792 69.6012 96.1002C69.9253 96.9419 70.1769 97.693 70.3745 98.3129C70.5512 98.9479 70.0304 99.3384 69.664 98.8613C69.2756 98.4045 68.804 97.8492 68.2622 97.2117C67.6966 96.5987 67.0986 95.8784 66.383 95.1521C66.0357 94.7794 65.6809 94.3866 65.2818 94.0098C64.8878 93.6283 64.5145 93.2032 64.0787 92.8164C63.2458 92.0051 62.341 91.18 61.3932 90.3414C60.9013 89.9411 60.4417 89.4909 59.9294 89.0868C59.4196 88.6803 58.9251 88.2448 58.3993 87.837C57.8811 87.4203 57.3512 87.0106 56.8156 86.6021C56.2876 86.1849 55.7424 85.7852 55.1912 85.3924C54.112 84.5773 52.9857 83.8241 51.892 83.0608C51.3358 82.6915 50.7846 82.3251 50.2396 81.9634C49.6891 81.6086 49.1454 81.2581 48.6108 80.9137C46.4649 79.5464 44.4257 78.3144 42.6616 77.2732C40.9314 76.2608 39.4836 75.4137 38.4533 74.8108C37.3653 74.1742 37.4967 73.8103 38.7686 73.9581Z" fill="url(#paint9_linear_152_1039)"/>
<path d="M67.722 45.2621C68.9976 45.4118 70.7946 45.7148 72.8702 46.2817C73.914 46.5616 75.0227 46.9148 76.1797 47.3271C77.3301 47.755 78.5374 48.2281 79.7399 48.8013C80.9549 49.3581 82.1722 50.0025 83.3807 50.7046C84.5857 51.4149 85.7744 52.1914 86.9236 53.025C87.4967 53.4435 88.0583 53.8777 88.6058 54.3263C89.1673 54.7564 89.685 55.2374 90.2067 55.7032C90.7378 56.1572 91.2232 56.6588 91.7082 57.1445C92.2004 57.6217 92.6481 58.1381 93.0945 58.6356C93.9764 59.6424 94.7711 60.672 95.4732 61.6923C95.8327 62.192 96.1433 62.7159 96.4514 63.2116C96.7598 63.7064 97.0368 64.2021 97.2872 64.6896C97.8111 65.6414 98.2026 66.5829 98.5543 67.4039C98.8784 68.2457 99.13 68.9967 99.3276 69.6167C99.5043 70.2516 98.9835 70.6422 98.6171 70.165C98.2287 69.7083 97.7571 69.153 97.2153 68.5155C96.6497 67.9025 96.0514 67.1821 95.3361 66.4559C94.9888 66.0832 94.634 65.6904 94.2349 65.3136C93.8409 64.9321 93.4676 64.507 93.0318 64.1202C92.1989 63.3089 91.2941 62.4838 90.3463 61.6452C89.8544 61.2449 89.3951 60.7947 88.8825 60.3906C88.3727 59.984 87.8782 59.5486 87.3524 59.1407C86.8342 58.7241 86.304 58.3144 85.7687 57.9059C85.2407 57.4886 84.6952 57.089 84.1443 56.6962C83.0651 55.8811 81.9388 55.1279 80.8451 54.3643C80.2892 53.995 79.7377 53.6286 79.1927 53.2668C78.6421 52.912 78.0985 52.5616 77.5639 52.2171C75.418 50.8499 73.3788 49.6179 71.6147 48.5766C69.8845 47.5643 68.4367 46.7172 67.4064 46.1142C66.3187 45.4786 66.4498 45.1147 67.722 45.2621Z" fill="url(#paint10_linear_152_1039)"/>
<path d="M48.2092 103.354C49.3273 103.8 50.8847 104.51 52.6403 105.524C53.524 106.03 54.4517 106.617 55.4111 107.269C56.3617 107.932 57.354 108.651 58.3228 109.458C59.306 110.253 60.2738 111.127 61.2225 112.051C62.1665 112.981 63.0832 113.966 63.9532 114.993C64.3868 115.508 64.8065 116.034 65.2109 116.57C65.6316 117.092 66.0031 117.649 66.3811 118.194C66.7698 118.731 67.1083 119.298 67.4497 119.852C67.7992 120.4 68.101 120.972 68.4053 121.527C69.002 122.645 69.5162 123.762 69.9491 124.849C70.175 125.385 70.3526 125.931 70.5333 126.451C70.7143 126.97 70.8674 127.483 70.9979 127.982C71.284 128.965 71.4537 129.906 71.6109 130.729C71.7392 131.565 71.8199 132.301 71.8776 132.907C71.9137 133.521 71.3706 133.747 71.1338 133.229C70.8734 132.724 70.5571 132.11 70.1938 131.406C69.8045 130.717 69.4067 129.925 68.9047 129.099C68.665 128.679 68.4222 128.24 68.137 127.805C67.8572 127.366 67.604 126.894 67.2875 126.44C66.6967 125.509 66.0439 124.548 65.3549 123.565C64.991 123.086 64.6654 122.57 64.2832 122.083C63.9043 121.594 63.5444 121.083 63.1513 120.588C62.7667 120.088 62.3698 119.592 61.9683 119.095C61.5748 118.592 61.1626 118.1 60.7438 117.614C59.9325 116.62 59.0669 115.67 58.2324 114.718C57.8045 114.251 57.38 113.788 56.9609 113.331C56.5352 112.879 56.1148 112.432 55.7013 111.993C54.0385 110.243 52.4451 108.641 51.0619 107.277C49.7035 105.947 48.5665 104.834 47.7571 104.042C46.9038 103.205 47.0933 102.911 48.2092 103.354Z" fill="url(#paint11_linear_152_1039)"/>
<path d="M18.1277 103.031C19.2445 103.223 20.8201 103.571 22.6462 104.156C23.5642 104.445 24.5412 104.8 25.5617 105.207C26.5769 105.628 27.643 106.088 28.7081 106.634C29.7835 107.166 30.8637 107.772 31.9382 108.427C33.0099 109.088 34.0696 109.804 35.0974 110.566C35.61 110.949 36.1132 111.345 36.6045 111.751C37.1074 112.143 37.5743 112.576 38.0442 112.997C38.5217 113.407 38.9612 113.856 39.4001 114.291C39.845 114.72 40.2522 115.18 40.6582 115.623C41.4607 116.519 42.1885 117.431 42.8361 118.33C43.1667 118.772 43.456 119.231 43.7421 119.667C44.0285 120.102 44.2877 120.536 44.5236 120.962C45.0143 121.796 45.3904 122.614 45.7273 123.329C46.0411 124.06 46.2883 124.711 46.4841 125.247C46.6623 125.796 46.2255 126.104 45.8892 125.68C45.5347 125.273 45.104 124.778 44.6092 124.21C44.0947 123.662 43.5482 123.021 42.8997 122.369C42.5841 122.036 42.261 121.685 41.9005 121.346C41.5441 121.003 41.2041 120.624 40.811 120.274C40.0574 119.545 39.2411 118.8 38.3868 118.042C37.9448 117.678 37.5291 117.274 37.0688 116.906C36.6111 116.536 36.1656 116.143 35.6941 115.771C35.2285 115.392 34.7532 115.019 34.2732 114.646C33.7992 114.266 33.3107 113.9 32.8179 113.54C31.8506 112.795 30.8445 112.101 29.8663 111.4C29.3697 111.059 28.8772 110.721 28.3906 110.387C27.8993 110.059 27.4139 109.735 26.9368 109.417C25.0218 108.151 23.2037 107.005 21.6317 106.034C20.09 105.09 18.7997 104.299 17.8814 103.737C16.911 103.143 17.0136 102.841 18.1277 103.031Z" fill="url(#paint12_linear_152_1039)"/>
<path d="M19.1169 125.451C20.1371 125.775 21.5696 126.303 23.2135 127.082C24.0402 127.47 24.9154 127.926 25.8268 128.435C26.7322 128.956 27.6806 129.521 28.6212 130.163C29.5724 130.794 30.5211 131.495 31.4604 132.239C32.3965 132.988 33.317 133.788 34.2033 134.625C34.6453 135.045 35.0773 135.475 35.4977 135.914C35.93 136.341 36.325 136.801 36.7244 137.25C37.1316 137.692 37.4999 138.163 37.8692 138.621C38.2444 139.074 38.5823 139.552 38.9202 140.014C39.5868 140.945 40.1829 141.881 40.7056 142.796C40.9741 143.246 41.2028 143.708 41.4306 144.147C41.6587 144.586 41.8616 145.02 42.0436 145.444C42.427 146.278 42.7053 147.083 42.9562 147.786C43.1843 148.502 43.3578 149.135 43.4933 149.657C43.6113 150.187 43.1805 150.415 42.9051 149.98C42.6114 149.557 42.2544 149.044 41.8447 148.455C41.4149 147.882 40.9634 147.219 40.4179 146.533C40.154 146.184 39.8849 145.818 39.5796 145.457C39.2787 145.094 38.9961 144.7 38.662 144.326C38.026 143.555 37.3333 142.761 36.6067 141.95C36.2284 141.557 35.8776 141.129 35.483 140.73C35.0905 140.328 34.7115 139.907 34.3062 139.502C33.9074 139.092 33.4987 138.685 33.0858 138.279C32.6789 137.866 32.2579 137.465 31.8318 137.068C30.9992 136.255 30.1261 135.483 29.2797 134.708C28.8486 134.328 28.421 133.952 27.9984 133.581C27.5711 133.214 27.1489 132.851 26.7338 132.495C25.067 131.077 23.4798 129.782 22.1054 128.68C20.7567 127.607 19.6282 126.708 18.8248 126.069C17.9768 125.393 18.0988 125.129 19.1169 125.451Z" fill="url(#paint13_linear_152_1039)"/>
</g>
<defs>
<linearGradient id="paint0_linear_152_1039" x1="100.89" y1="18.4009" x2="115.582" y2="42.9512" gradientUnits="userSpaceOnUse">
<stop stop-color="#C4D143"/>
<stop offset="1" stop-color="#7C8A1A"/>
</linearGradient>
<linearGradient id="paint1_linear_152_1039" x1="114.428" y1="32.8827" x2="84.181" y2="3.56829" gradientUnits="userSpaceOnUse">
<stop stop-color="#7C8A1A" stop-opacity="0"/>
<stop offset="0.3152" stop-color="#768319" stop-opacity="0.315"/>
<stop offset="0.7806" stop-color="#646F15" stop-opacity="0.781"/>
<stop offset="1" stop-color="#5A6313"/>
</linearGradient>
<linearGradient id="paint2_linear_152_1039" x1="129.65" y1="32.9626" x2="124.613" y2="61.1244" gradientUnits="userSpaceOnUse">
<stop stop-color="#C4D143"/>
<stop offset="1" stop-color="#7C8A1A"/>
</linearGradient>
<linearGradient id="paint3_linear_152_1039" x1="130.38" y1="52.7779" x2="126.817" y2="10.793" gradientUnits="userSpaceOnUse">
<stop stop-color="#7C8A1A" stop-opacity="0"/>
<stop offset="0.3152" stop-color="#768319" stop-opacity="0.315"/>
<stop offset="0.7806" stop-color="#646F15" stop-opacity="0.781"/>
<stop offset="1" stop-color="#5A6313"/>
</linearGradient>
<linearGradient id="paint4_linear_152_1039" x1="116.345" y1="23.342" x2="121.543" y2="51.4623" gradientUnits="userSpaceOnUse">
<stop stop-color="#C4D143"/>
<stop offset="1" stop-color="#7C8A1A"/>
</linearGradient>
<linearGradient id="paint5_linear_152_1039" x1="123.988" y1="41.626" x2="105.889" y2="3.6035" gradientUnits="userSpaceOnUse">
<stop stop-color="#7C8A1A" stop-opacity="0"/>
<stop offset="0.3152" stop-color="#768319" stop-opacity="0.315"/>
<stop offset="0.7806" stop-color="#646F15" stop-opacity="0.781"/>
<stop offset="1" stop-color="#5A6313"/>
</linearGradient>
<linearGradient id="paint6_linear_152_1039" x1="111.923" y1="48.0707" x2="107.677" y2="52.3165" gradientUnits="userSpaceOnUse">
<stop stop-color="#5A6313" stop-opacity="0"/>
<stop offset="1" stop-color="#544F43"/>
</linearGradient>
<linearGradient id="paint7_linear_152_1039" x1="42.1247" y1="90.5935" x2="69.2424" y2="117.711" gradientUnits="userSpaceOnUse">
<stop stop-color="#FFA325"/>
<stop offset="0.3186" stop-color="#FF972C"/>
<stop offset="0.8959" stop-color="#FF7740"/>
<stop offset="1" stop-color="#FF7044"/>
</linearGradient>
<linearGradient id="paint8_linear_152_1039" x1="93.6752" y1="86.2888" x2="87.4454" y2="92.4529" gradientUnits="userSpaceOnUse">
<stop stop-color="#FF7044" stop-opacity="0"/>
<stop offset="0.5132" stop-color="#F85E33" stop-opacity="0.513"/>
<stop offset="1" stop-color="#F35227"/>
</linearGradient>
<linearGradient id="paint9_linear_152_1039" x1="57.3957" y1="80.8467" x2="53.3279" y2="87.7246" gradientUnits="userSpaceOnUse">
<stop stop-color="#FF7044" stop-opacity="0"/>
<stop offset="0.5132" stop-color="#F85E33" stop-opacity="0.513"/>
<stop offset="1" stop-color="#F35227"/>
</linearGradient>
<linearGradient id="paint10_linear_152_1039" x1="86.3674" y1="52.1371" x2="82.2995" y2="59.015" gradientUnits="userSpaceOnUse">
<stop stop-color="#FF7044" stop-opacity="0"/>
<stop offset="0.5132" stop-color="#F85E33" stop-opacity="0.513"/>
<stop offset="1" stop-color="#F35227"/>
</linearGradient>
<linearGradient id="paint11_linear_152_1039" x1="63.6499" y1="114.019" x2="58.5395" y2="119.259" gradientUnits="userSpaceOnUse">
<stop stop-color="#FF7044" stop-opacity="0"/>
<stop offset="0.5132" stop-color="#F85E33" stop-opacity="0.513"/>
<stop offset="1" stop-color="#F35227"/>
</linearGradient>
<linearGradient id="paint12_linear_152_1039" x1="34.6112" y1="109.783" x2="31.133" y2="115.56" gradientUnits="userSpaceOnUse">
<stop stop-color="#FF7044" stop-opacity="0"/>
<stop offset="0.5132" stop-color="#F85E33" stop-opacity="0.513"/>
<stop offset="1" stop-color="#F35227"/>
</linearGradient>
<linearGradient id="paint13_linear_152_1039" x1="33.908" y1="133.777" x2="30.0892" y2="138.709" gradientUnits="userSpaceOnUse">
<stop stop-color="#FF7044" stop-opacity="0"/>
<stop offset="0.5132" stop-color="#F85E33" stop-opacity="0.513"/>
<stop offset="1" stop-color="#F35227"/>
</linearGradient>
<clipPath id="clip0_152_1039">
<rect width="160" height="160" fill="white"/>
</clipPath>
</defs>
</svg>
