<svg width="160" height="160" viewBox="0 0 160 160" fill="none" xmlns="http://www.w3.org/2000/svg">
<path d="M72.6125 16.4147C77.3438 29.8834 77.4402 44.5965 72.6539 58.0457C70.9438 62.8508 68.9609 66.4269 66.8467 66.4269C64.7325 66.4269 62.7496 62.8508 61.0396 58.0457C56.2533 44.5968 56.3497 29.8834 61.0809 16.4147L66.8467 0L72.6125 16.4147Z" fill="#A8DB58"/>
<path d="M61.0806 27.4987L66.8464 11.0841L72.6122 27.4987C74.3718 32.5083 75.4891 37.6902 75.9537 42.9151C76.7472 34.0078 75.6139 24.9606 72.6122 16.4147L66.8467 0L61.0809 16.4147C58.0789 24.961 56.9459 34.0078 57.7394 42.9151C58.2037 37.6902 59.3209 32.5083 61.0806 27.4987Z" fill="#8ECC3E"/>
<path d="M50.8406 45.2137H63.7493L65.1096 35.9364C67.4269 20.1344 51.0023 8.29339 36.814 15.5371C47.004 20.1669 52.909 31.0045 51.2926 42.1097L50.8406 45.2137Z" fill="#8ECC3E"/>
<path d="M36.814 15.5365C37.7155 15.946 38.5818 16.4069 39.414 16.9095C51.404 15.7696 62.5428 26.2018 60.6078 39.3997L59.7555 45.2133H63.7493L65.1096 35.9361C67.4265 20.1341 51.0023 8.29307 36.814 15.5365Z" fill="#75AF23"/>
<path d="M83.1516 45.2137H70.2429L68.8826 35.9364C66.5653 20.1344 82.9899 8.29339 97.1783 15.5371C86.9882 20.1669 81.0833 31.0045 82.6997 42.1097L83.1516 45.2137Z" fill="#8ECC3E"/>
<path d="M73.3848 40.0927C71.5024 27.2558 81.9886 17.0329 93.5964 17.5317C94.7208 16.7792 95.9167 16.1102 97.1786 15.5365C82.9903 8.29308 66.5657 20.1341 68.883 35.9358L70.2433 45.213H74.1356L73.3848 40.0927Z" fill="#75AF23"/>
<path d="M75.6859 158.27C74.5533 158.27 73.6346 157.351 73.6346 156.218V152.088C73.6346 150.955 74.5533 150.037 75.6859 150.037C76.8186 150.037 77.7372 150.955 77.7372 152.088V156.218C77.7372 157.351 76.8189 158.27 75.6859 158.27Z" fill="#913A8D"/>
<path d="M58.3058 158.702C57.1732 158.702 56.2546 157.784 56.2546 156.652L56.2535 152.013C56.2535 150.88 57.1715 149.961 58.3045 149.961H58.3048C59.4375 149.961 60.3561 150.879 60.3561 152.012L60.3571 156.651C60.3571 157.784 59.4392 158.702 58.3062 158.702H58.3058Z" fill="#913A8D"/>
<path d="M84.3762 156.107C83.2435 156.107 82.3252 155.189 82.3249 154.056L82.3239 150.255C82.3235 149.123 83.2418 148.204 84.3748 148.204H84.3751C85.5078 148.204 86.4261 149.122 86.4264 150.255L86.4274 154.056C86.4278 155.188 85.5095 156.107 84.3765 156.107H84.3762Z" fill="#913A8D"/>
<path d="M83.5045 31.3352L75.5004 41.8736L66.9961 24.4292L58.9083 41.5748L50.4875 31.3352L50.5329 31.4582C53.9319 40.6493 49.7493 50.9211 40.9066 55.092C23.1897 63.4489 9.91455 79.8944 9.91455 99.9176C9.91455 129.045 38.4054 152.603 66.9955 152.657C101.768 152.722 124.231 125.589 124.076 99.9176C123.956 79.8852 110.823 63.3375 93.127 54.9902C84.2761 50.8155 80.0922 40.5317 83.5045 31.3352Z" fill="#BA4AA5"/>
<path d="M101.625 111.091C73.0355 111.038 44.5446 87.4792 44.5446 58.3524C44.5446 56.3719 44.6793 54.4283 44.9306 52.522C43.7271 53.5254 42.3839 54.3955 40.907 55.0922C23.1901 63.4491 9.91492 79.8946 9.91492 99.9178C9.91492 129.045 38.4058 152.603 66.9958 152.657C98.5017 152.716 119.902 130.448 123.53 107.169C116.962 109.68 109.62 111.106 101.625 111.091Z" fill="#AF46A0"/>
<path d="M124.077 99.9177C123.992 85.9112 117.542 73.6132 107.623 64.6258C107.349 64.6214 107.074 64.6152 106.798 64.6152C79.1154 64.6152 56.6744 87.1017 56.6744 114.84C56.6744 129.754 63.1643 143.148 73.4659 152.346C104.529 149.282 124.222 123.96 124.077 99.9177Z" fill="#9E3F95"/>
<path d="M21.3426 103.035C21.3426 83.0118 34.6177 66.5663 52.3346 58.2094C61.0796 54.0847 65.2618 43.9934 62.0656 34.8809L58.9083 41.5746L50.4875 31.335L50.5329 31.458C53.9319 40.6491 49.7493 50.9209 40.9066 55.0918C23.1897 63.4487 9.91455 79.8942 9.91455 99.9174C9.91455 126.06 32.866 147.712 58.2403 151.915C37.7952 144.083 21.3426 125.168 21.3426 103.035Z" fill="#9E3F95"/>
<path d="M51.5665 148.365C35.066 136.754 25.2147 118.581 25.2147 99.7543C25.2147 90.7259 27.3778 82.1054 31.6434 74.1321C32.1778 73.1331 31.801 71.8901 30.8024 71.3557C29.8031 70.8213 28.5604 71.1981 28.026 72.1967C23.4383 80.7721 21.1122 90.0439 21.1122 99.7543C21.1122 119.547 31.2407 138.629 48.2571 151.033V154.056C48.2571 155.188 49.1757 156.107 50.3084 156.107C51.441 156.107 52.3596 155.188 52.3596 154.056V150.594C52.5866 149.781 52.296 148.879 51.5665 148.365Z" fill="#913A8D"/>
<path d="M85.0953 152.095C84.4772 152.095 83.8666 151.817 83.4628 151.287C82.776 150.386 82.9493 149.099 83.8498 148.412C99.0912 136.788 108.875 117.694 108.776 99.7659C108.726 90.7221 106.554 82.0958 102.319 74.1259C101.787 73.1256 102.167 71.8835 103.168 71.3519C104.168 70.8206 105.41 71.2005 105.942 72.2008C110.491 80.7625 112.825 90.0291 112.879 99.743C112.985 118.913 102.567 139.297 86.338 151.674C85.9664 151.958 85.5291 152.095 85.0953 152.095Z" fill="#913A8D"/>
<path d="M95.4057 79.2427C95.0118 78.1805 93.8313 77.6386 92.7694 78.0321C91.7072 78.426 91.1653 79.6061 91.5588 80.6684C93.8122 86.7473 94.9735 93.1726 95.0098 99.7654C95.1034 116.784 86.9418 133.774 73.6567 145.236C77.9842 136.879 80.9835 127.8 82.5958 118.133C84.644 105.851 84.379 93.215 81.8084 80.5754C81.5828 79.4653 80.5001 78.7487 79.3896 78.974C78.2795 79.1996 77.5626 80.2827 77.7883 81.3928C82.7199 105.641 78.8631 129.432 66.9466 148.762C54.6283 128.731 50.6399 104.017 56.0317 80.4126C56.284 79.3084 55.5931 78.2085 54.4888 77.9562C53.3846 77.7032 52.2844 78.3949 52.0324 79.4991C46.9159 101.899 49.8926 125.269 60.1421 145.064C46.9046 133.588 38.9822 116.957 38.9822 99.7538C38.9822 93.0947 40.0304 86.6574 42.0981 80.6215C42.4653 79.5497 41.894 78.3832 40.8222 78.0161C39.7497 77.6489 38.5839 78.2202 38.2167 79.292C36.0024 85.7569 34.8796 92.6413 34.8796 99.7538C34.8796 121.198 46.3743 141.787 64.9452 153.776V157.948C64.9452 159.08 65.8638 159.999 66.9965 159.999C68.1291 159.999 69.0478 159.08 69.0478 157.948V153.779C77.9691 148.052 85.4918 140.034 90.8433 130.513C96.3103 120.785 99.1698 110.145 99.1127 99.7425C99.073 92.6697 97.8258 85.7723 95.4057 79.2427Z" fill="#913A8D"/>
<path d="M106.798 158.138C130.705 158.138 150.085 138.753 150.085 114.84C150.085 90.9278 130.705 71.543 106.798 71.543C82.8911 71.543 63.5106 90.9278 63.5106 114.84C63.5106 138.753 82.8911 158.138 106.798 158.138Z" fill="#E086DC"/>
<path d="M106.798 153.457C128.159 153.457 145.475 136.168 145.475 114.84C145.475 93.5129 128.159 76.2236 106.798 76.2236C85.4374 76.2236 68.1212 93.5129 68.1212 114.84C68.1212 136.168 85.4374 153.457 106.798 153.457Z" fill="#FFDDF4"/>
<path d="M106.798 146.799C89.1803 146.799 74.8477 132.462 74.8477 114.841C74.8477 97.2192 89.1806 82.8828 106.798 82.8828C124.415 82.8828 138.749 97.2192 138.749 114.841C138.749 132.462 124.416 146.799 106.798 146.799Z" fill="#E086DC"/>
<path d="M106.798 142.672C91.4551 142.672 78.9728 130.187 78.9728 114.841C78.9728 99.4939 91.4551 87.0088 106.798 87.0088C122.141 87.0088 134.624 99.4939 134.624 114.841C134.624 130.187 122.141 142.672 106.798 142.672Z" fill="#FFDDF4"/>
<path d="M106.798 135.459C95.4316 135.459 86.1841 126.21 86.1841 114.84C86.1841 103.471 95.4312 94.2217 106.798 94.2217C118.165 94.2217 127.412 103.471 127.412 114.84C127.412 126.21 118.165 135.459 106.798 135.459Z" fill="#E086DC"/>
<path d="M106.798 131.714C97.4962 131.714 89.9291 124.144 89.9291 114.84C89.9291 105.537 97.4966 97.9673 106.798 97.9673C116.1 97.9673 123.667 105.537 123.667 114.84C123.667 124.144 116.1 131.714 106.798 131.714Z" fill="#FFDDF4"/>
<path d="M106.798 124.12C101.683 124.12 97.5208 119.957 97.5208 114.84C97.5208 109.724 101.682 105.561 106.798 105.561C111.914 105.561 116.075 109.724 116.075 114.84C116.075 119.957 111.914 124.12 106.798 124.12Z" fill="#E2A1DC"/>
<path d="M106.798 120.059C103.921 120.059 101.581 117.718 101.581 114.841C101.581 111.963 103.921 109.622 106.798 109.622C109.675 109.622 112.015 111.963 112.015 114.841C112.015 117.718 109.675 120.059 106.798 120.059Z" fill="#FFDDF4"/>
<path d="M121.746 15.3293H118.256V11.8384C118.256 10.7054 117.338 9.78711 116.205 9.78711C115.072 9.78711 114.154 10.7057 114.154 11.8384V15.3293H110.664C109.531 15.3293 108.613 16.248 108.613 17.3806C108.613 18.5132 109.531 19.4319 110.664 19.4319H114.154V22.9225C114.154 24.0555 115.072 24.9737 116.205 24.9737C117.338 24.9737 118.256 24.0551 118.256 22.9225V19.4319H121.746C122.878 19.4319 123.797 18.5132 123.797 17.3806C123.797 16.248 122.878 15.3293 121.746 15.3293Z" fill="#AF46A0"/>
<path d="M22.7279 47.4829C17.9689 47.4829 14.0968 43.5537 14.0968 38.7236C14.0968 33.8936 17.9686 29.9644 22.7279 29.9644C27.4872 29.9644 31.359 33.8939 31.359 38.7236C31.359 43.5534 27.4869 47.4829 22.7279 47.4829ZM22.7279 34.0673C20.2308 34.0673 18.1994 36.1561 18.1994 38.724C18.1994 41.2915 20.2308 43.3807 22.7279 43.3807C25.225 43.3807 27.2564 41.2918 27.2564 38.724C27.2561 36.1561 25.2246 34.0673 22.7279 34.0673Z" fill="white"/>
<path d="M137.006 71.6028C132.247 71.6028 128.375 67.7303 128.375 62.9704C128.375 58.2104 132.247 54.3379 137.006 54.3379C141.766 54.3379 145.637 58.2104 145.637 62.9704C145.637 67.7303 141.765 71.6028 137.006 71.6028ZM137.006 58.4404C134.509 58.4404 132.478 60.4726 132.478 62.9704C132.478 65.4681 134.509 67.5003 137.006 67.5003C139.503 67.5003 141.535 65.4681 141.535 62.9704C141.535 60.4726 139.503 58.4404 137.006 58.4404Z" fill="white"/>
<path d="M79.9452 66.3443C82.0224 66.3443 83.7062 63.7042 83.7062 60.4475C83.7062 57.1908 82.0224 54.5508 79.9452 54.5508C77.8681 54.5508 76.1842 57.1908 76.1842 60.4475C76.1842 63.7042 77.8681 66.3443 79.9452 66.3443Z" fill="white" fill-opacity="0.72"/>
<path d="M68.6928 68.5655C68.7961 70.6975 67.7158 72.3723 66.2802 72.3063C64.8447 72.2404 63.5971 70.4588 63.4939 68.3272C63.3906 66.1952 64.471 64.5204 65.9065 64.5864C67.3421 64.6523 68.5896 66.4339 68.6928 68.5655Z" fill="white" fill-opacity="0.72"/>
<path d="M85.4104 108.561C85.4792 109.977 84.7612 111.089 83.8077 111.046C82.8542 111.002 82.0252 109.818 81.9568 108.402C81.8884 106.985 82.606 105.873 83.5595 105.917C84.5134 105.961 85.3421 107.144 85.4104 108.561Z" fill="white" fill-opacity="0.72"/>
</svg>
