<svg width="160" height="160" viewBox="0 0 160 160" fill="none" xmlns="http://www.w3.org/2000/svg">
<g clip-path="url(#clip0_152_1140)">
<path d="M76.9739 10.3137C59.9683 10.188 45.2039 19.8437 37.9736 33.9893C31.7444 46.1804 24.2871 57.7173 15.1709 67.9309C7.53784 76.4819 0.318604 89.1455 0.0158691 106.598C0.00488281 106.976 0 107.355 0 107.734C0 131.194 19.0186 150.212 42.478 150.212C42.5232 150.212 42.5671 150.211 42.6123 150.211C42.9334 150.21 43.2544 150.206 43.5742 150.199C85.9082 149.612 120.046 115.117 120.046 72.6441V54.259C120.046 30.3271 100.905 10.4907 76.9739 10.3137Z" fill="#F0A65F"/>
<path d="M120.046 72.6438V54.2588C120.046 39.614 112.877 26.5037 101.83 18.4934V18.4922C107.137 25.8005 110.267 34.8044 110.267 44.4785V48.9426C110.267 56.8137 104.597 63.5288 96.8445 64.8838C92.7966 65.5918 88.8281 66.0532 84.8963 66.2766C72.1399 67.0005 60.5505 72.0603 51.3782 80.9104C51.1328 81.1436 50.8899 81.3804 50.6494 81.6209C43.2251 89.044 39.137 98.9146 39.137 109.414C39.137 115.563 40.8862 121.135 43.0737 125.699C46.3245 132.484 41.5027 140.397 33.9795 140.418C33.9185 140.418 33.8562 140.418 33.7952 140.418C22.2766 140.418 14.9207 137.485 7.95166 132.481C15.6604 143.218 28.252 150.212 42.478 150.212C84.7449 150.006 120.046 115.064 120.046 72.6438Z" fill="#E28540"/>
<path d="M97.5611 73.5657C96.5589 73.5657 95.6214 72.9431 95.2649 71.9482C95.1782 71.7139 93.3582 66.9641 87.6514 64.9731C86.3794 64.5288 85.7092 63.1384 86.1524 61.8665C86.5955 60.5957 87.9871 59.9219 89.2591 60.3674C97.2669 63.1604 99.7595 70.0256 99.8621 70.3174C100.309 71.5881 99.6399 72.9797 98.3692 73.4265C98.1018 73.5205 97.8296 73.5657 97.5611 73.5657Z" fill="#E28540"/>
<path d="M150.472 75.0563C141.255 65.7008 127.921 62.9127 116.249 66.6884C106.191 69.9428 95.8203 72.1718 85.2661 72.7699C76.4282 73.2728 65.5713 76.244 55.8777 85.6081C55.6653 85.8095 55.4565 86.0133 55.249 86.2208C42.439 99.0309 42.439 119.799 55.249 132.609C55.2734 132.633 55.2979 132.656 55.3223 132.681C55.4993 132.857 55.675 133.03 55.8545 133.2C79.2908 155.994 116.765 155.8 139.956 132.609L149.995 122.57C163.063 109.502 163.441 88.2204 150.472 75.0563Z" fill="#F0A65F"/>
<path d="M150.472 75.0559C149.066 73.6289 147.563 72.3569 145.988 71.2363C155.326 84.4028 153.862 102.867 142.078 114.652L132.039 124.691C110.179 146.55 75.6335 147.975 52.1118 128.979C53.0542 130.451 55.675 133.03 55.8545 133.199C79.2908 155.993 116.765 155.799 139.956 132.608L149.995 122.569C163.063 109.502 163.441 88.22 150.472 75.0559Z" fill="#E28540"/>
<path d="M47.9785 23.8022C48.031 23.7986 53.2727 23.4495 58.3655 25.2744C58.6377 25.3721 58.9148 25.4172 59.1882 25.4172C60.1892 25.4172 61.1279 24.7971 61.4844 23.801C61.9385 22.5327 61.2793 21.1362 60.011 20.6821C56.5454 19.4395 53.0737 19.0415 50.6909 18.9316C49.0271 20.1755 47.4561 21.533 45.9888 22.9966C46.4758 23.5398 47.196 23.8621 47.9785 23.8022Z" fill="#E28540"/>
<path d="M62.4414 64.459C61.6699 64.459 60.9118 64.094 60.437 63.4141C57.0227 58.5093 49.4763 58.2798 49.4006 58.2798C48.0542 58.2627 46.9751 57.158 46.9921 55.8103C47.008 54.4736 48.0969 53.4019 49.4299 53.4019H49.4604C49.8706 53.4067 59.552 53.6057 64.4409 60.626C65.2099 61.7319 64.9377 63.2517 63.833 64.0208C63.4082 64.3174 62.9223 64.459 62.4414 64.459Z" fill="#E28540"/>
<path d="M95.9325 41.6954C94.8339 41.6954 93.8354 40.9458 93.5644 39.8301C92.2265 34.3089 85.9508 32.9197 85.6847 32.8623C84.37 32.5852 83.5241 31.2962 83.7963 29.9803C84.0685 28.6656 85.3478 27.8184 86.6637 28.0845C87.0531 28.1626 96.2292 30.117 98.3056 38.6802C98.623 39.99 97.8185 41.3084 96.5099 41.6258C96.3171 41.6722 96.123 41.6954 95.9325 41.6954Z" fill="#E28540"/>
<path d="M32.8442 93.0773C31.7675 93.0773 30.7836 92.3607 30.4907 91.2719C28.6767 84.5336 19.9401 83.3129 19.8522 83.3007C18.5205 83.1261 17.5756 81.9054 17.7465 80.5724C17.9187 79.2394 19.1333 78.2958 20.465 78.4618C20.957 78.5228 32.5293 80.0805 35.2014 90.0036C35.5505 91.3048 34.7802 92.6427 33.4802 92.9931C33.2666 93.0504 33.0542 93.0773 32.8442 93.0773Z" fill="#E28540"/>
<path d="M124.53 65.127C122.318 65.2637 120.117 65.6177 117.961 66.1902C118.145 66.9189 118.658 67.5537 119.408 67.8577C119.485 67.8894 127.118 71.0596 127.986 77.9358C128.142 79.1687 129.192 80.0696 130.403 80.0696C130.505 80.0696 130.608 80.0635 130.712 80.0501C132.048 79.8804 132.994 78.6609 132.826 77.3242C132.042 71.1157 127.676 67.1912 124.53 65.127Z" fill="#E28540"/>
<path d="M106.989 97.629C105.734 97.629 104.667 96.6658 104.562 95.3927C104.042 89.1524 96.6382 85.743 96.565 85.7088C95.3394 85.1558 94.7888 83.7142 95.3382 82.4874C95.8875 81.2606 97.323 80.7076 98.5523 81.2545C98.9649 81.4376 108.661 85.848 109.423 94.9874C109.535 96.3302 108.538 97.5094 107.195 97.6204C107.125 97.6265 107.057 97.629 106.989 97.629Z" fill="#E28540"/>
<path d="M132.355 104.785C131.133 104.785 130.078 103.868 129.934 102.624C129.443 98.3629 125.371 96.0509 125.331 96.0277C124.158 95.3758 123.727 93.8951 124.373 92.7196C125.018 91.544 126.486 91.1058 127.665 91.7455C127.924 91.8846 133.994 95.2464 134.78 102.065C134.934 103.403 133.975 104.613 132.637 104.768C132.543 104.779 132.448 104.785 132.355 104.785Z" fill="#E28540"/>
<path d="M63.0871 96.6539C61.7956 96.6539 60.7189 95.6407 60.653 94.337C60.426 89.785 54.8303 88.6241 54.7729 88.6119C53.4521 88.3507 52.5939 87.0665 52.8552 85.7457C53.1176 84.4237 54.4018 83.5655 55.7226 83.828C58.9672 84.4713 65.1928 87.4449 65.5249 94.0929C65.592 95.4381 64.5556 96.5843 63.2104 96.6502C63.1701 96.6527 63.1286 96.6539 63.0871 96.6539Z" fill="#E28540"/>
<path d="M105.101 134.17C104.718 132.878 103.361 132.143 102.069 132.528C100.778 132.911 100.043 134.27 100.426 135.56C102.554 142.713 98.4497 148.058 98.2556 148.303C97.8247 148.844 97.6623 149.512 97.7466 150.148C99.5154 150.143 101.284 150.06 103.047 149.9C104.611 147.291 107.261 141.427 105.101 134.17Z" fill="#E28540"/>
</g>
<defs>
<clipPath id="clip0_152_1140">
<rect width="160" height="160" fill="white"/>
</clipPath>
</defs>
</svg>
