<svg width="160" height="160" viewBox="0 0 160 160" fill="none" xmlns="http://www.w3.org/2000/svg">
<g clip-path="url(#clip0_152_769)">
<path d="M151.542 62.6001C152.623 63.567 152.391 65.3301 151.095 65.982C146.339 68.3735 140.438 69.4164 134.252 68.5989C133.522 68.5023 132.802 68.3814 132.095 68.2376C127.338 67.272 123.837 63.0601 123.936 58.2073C124.009 54.6467 122.771 51.7595 120.409 50.7789C118.045 49.7973 115.126 50.9585 112.654 53.5229C109.286 57.0185 103.831 57.5117 99.7894 54.8235C99.1884 54.4239 98.5956 53.9998 98.0122 53.5514C93.0662 49.7467 89.6397 44.831 87.9762 39.7739C87.5228 38.3954 88.6078 36.9867 90.0562 37.0701C92.2694 37.1979 94.5359 37.6285 96.7862 38.3623C94.7659 31.3907 95.2181 24.1679 97.7172 17.7501C98.1506 16.637 99.4184 16.122 100.511 16.6057C104.795 18.5026 108.673 21.332 111.814 24.9529C112.387 21.6704 113.427 18.6032 114.859 15.8795C115.531 14.6017 117.255 14.3795 118.232 15.4426C119.368 16.6804 120.419 18.0476 121.367 19.5264C125.426 14.0879 130.807 9.93386 136.856 7.35511C137.918 6.9023 139.142 7.43605 139.571 8.50886C142.004 14.6054 142.852 21.3361 141.866 28.0379C143.584 27.6657 145.294 27.4448 146.975 27.3767C148.417 27.3186 149.477 28.697 149.045 30.0748C148.125 33.0104 146.686 35.912 144.766 38.6348C149.548 38.3039 154.29 39.0539 158.66 40.7504C159.774 41.1829 160.304 42.4451 159.821 43.5379C157.037 49.8367 152.24 55.2551 145.876 58.7451C147.984 59.8214 149.889 61.1229 151.542 62.6001Z" fill="#0CC166"/>
<path d="M159.82 43.5393C157.036 49.8349 152.241 55.2552 145.877 58.7446C147.985 59.8221 149.891 61.1239 151.543 62.5993C152.624 63.5683 152.393 65.3293 151.095 65.9802C146.34 68.3739 140.438 69.4155 134.251 68.5983C133.521 68.5008 132.801 68.3814 132.096 68.2368C127.337 67.2711 123.837 63.0586 123.938 58.2058C124.01 54.6477 122.77 51.7583 120.409 50.7786C118.044 49.7986 115.126 50.9596 112.656 53.5233C109.286 57.0199 103.833 57.5118 99.79 54.8252C99.1897 54.4239 98.5966 54.0008 98.0109 53.5524C93.0678 49.7483 89.6397 44.8305 87.9766 39.7752C87.9766 39.7752 95.935 43.8843 106.205 43.1564C125.383 41.7974 136.337 28.1786 136.337 11.8668C136.337 10.4564 136.24 9.06801 136.045 7.71207C136.312 7.58926 136.583 7.46988 136.855 7.35395C137.918 6.90207 139.144 7.43707 139.57 8.50738C142.004 14.6039 142.854 21.3371 141.867 28.0377C143.584 27.6652 145.295 27.4446 146.976 27.3758C148.419 27.318 149.478 28.6958 149.044 30.0733C148.126 33.0096 146.687 35.9133 144.767 38.6361C149.547 38.3033 154.291 39.0555 158.659 40.7514C159.773 41.1818 160.305 42.4436 159.82 43.5393Z" fill="#04A550"/>
<path d="M159.82 43.5394C157.036 49.8351 152.241 55.2554 145.877 58.7447C147.985 59.8222 149.891 61.1241 151.543 62.5994C152.624 63.5685 152.393 65.3294 151.095 65.9804C146.34 68.3741 140.438 69.4157 134.251 68.5985C133.521 68.501 132.801 68.3816 132.096 68.2369C127.337 67.2713 123.837 63.0588 123.938 58.206C123.953 57.4429 123.909 56.7091 123.804 56.0182C134.183 54.5357 142.861 47.7844 147.038 38.5601C151.044 38.5672 154.986 39.3266 158.659 40.7513C159.773 41.1819 160.305 42.4438 159.82 43.5394Z" fill="#00893E"/>
<path d="M39.2275 61.9166C36.8656 59.6072 34.4416 57.0725 32.0222 54.3831C29.8197 51.9344 27.8694 49.5831 26.1475 47.3303C17.2397 50.4203 10.2156 51.1087 5.95656 51.1544C5.01281 51.1644 4.79094 49.8431 5.68531 49.5412C9.27437 48.3294 14.705 46.3384 20.4113 43.6722C21.2025 43.3025 21.9772 42.9303 22.7341 42.5559C11.9181 26.2797 13.5312 15.7434 15.9025 10.4422C18.785 3.9975 25.0725 0 32.3194 0C32.3384 0 32.3569 0.0003125 32.3759 0.0003125C39.9825 0.0221875 46.6706 4.49344 49.8309 11.6697C52.1319 16.895 52.0747 22.1453 49.6606 27.2744C46.7972 33.3584 40.6431 39.1466 31.3162 44.5428C32.7994 46.4444 34.4638 48.4312 36.3309 50.5072C38.6678 53.105 41.0056 55.5497 43.2794 57.7728L39.2275 61.9166ZM32.3206 5.79562C27.3903 5.79562 23.1291 8.48 21.1931 12.8084C19.6562 16.2447 17.8488 24.9741 27.8809 39.8275C36.3813 34.9819 42.0406 29.8584 44.4184 24.8031C46.1088 21.2097 46.1444 17.6778 44.5269 14.0053C42.27 8.88 37.7213 5.81094 32.3594 5.79562C32.3466 5.79562 32.3334 5.79562 32.3206 5.79562Z" fill="#0CC166"/>
<path d="M34.2572 40.0623C35.2694 40.997 36.8009 41.0873 37.9144 40.2764C43.6056 36.1311 47.5381 31.7839 49.6606 27.2742C51.2078 23.987 51.7838 20.6505 51.3931 17.3026C51.1619 15.3226 49.0022 14.1823 47.2334 15.1017C47.216 15.1108 47.1984 15.1198 47.1813 15.1289C46.1216 15.6786 45.5063 16.8167 45.6397 18.003C45.8953 20.2792 45.4888 22.5289 44.4191 24.803C42.725 28.4042 39.3597 32.0398 34.4919 35.5851C33.0263 36.6523 32.8822 38.7914 34.2138 40.0217C34.2281 40.0351 34.2428 40.0489 34.2572 40.0623Z" fill="#29E088"/>
<path d="M39.0197 35.6195L39.0575 35.6636C40.1409 36.9208 42.0531 36.9936 43.2491 35.843C44.7563 34.3933 46.0597 32.9217 47.1575 31.4305C48.2106 29.9998 47.7547 27.9673 46.1738 27.1577C46.1566 27.1489 46.1394 27.1402 46.1222 27.1311C44.86 26.4842 43.3275 26.8558 42.485 27.9967C41.5772 29.2261 40.4816 30.4548 39.2047 31.6786C38.105 32.7327 38.0253 34.4655 39.0197 35.6195Z" fill="#79FF79"/>
<path d="M43.2781 57.7712L39.2253 61.9149C36.8656 59.609 34.44 57.0715 32.0222 54.3849C29.82 51.9343 27.87 49.583 26.1481 47.3309C26.1481 47.3309 28.8325 46.2287 31.3144 44.5449C32.8006 46.4449 34.4647 48.4321 36.3316 50.5062C38.6666 53.1055 41.0056 55.548 43.2781 57.7712Z" fill="#04A550"/>
<path d="M83.9241 22.8558C82.4637 19.387 80.5487 16.3792 79.22 14.4914C78.4 13.3264 76.7747 13.0833 75.6537 13.962L70.4134 18.0692C69.595 18.7108 69.2644 19.7905 69.5806 20.7814C70.2025 22.7305 71.1012 26.3161 71.1012 30.7639C71.1012 47.167 56.8975 53.068 56.8975 53.068H100.546C88.9437 44.8667 91.0016 39.667 83.9241 22.8558Z" fill="#00893E"/>
<path d="M100.547 53.0689H56.8969C56.8969 53.0689 60.8875 51.4095 64.6406 47.4095C75.6563 46.5595 84.4813 37.8782 85.5563 26.9282C90.7469 40.5782 89.9375 45.5689 100.547 53.0689Z" fill="#007733"/>
<path d="M65.8722 106.789C65.8722 133.105 51.4497 154.438 33.6584 154.438C8.16344 154.438 0 133.104 0 106.789C0 80.4726 15.8672 59.1392 33.6584 59.1392C51.4494 59.1388 65.8722 80.4723 65.8722 106.789Z" fill="#E86300"/>
<path d="M53.4281 144.412C47.9687 150.697 41.1125 154.437 33.6594 154.437C10.9906 154.437 2.02499 137.578 0.315613 115.34C13.5375 130.843 32.2406 141.534 53.4281 144.412Z" fill="#D84D00"/>
<path d="M156.401 106.789C156.401 133.105 152.09 154.438 122.743 154.438C104.952 154.438 90.5291 133.104 90.5291 106.789C90.5291 80.4726 104.952 59.1392 122.743 59.1392C140.534 59.1388 156.401 80.4723 156.401 106.789Z" fill="#E86300"/>
<path d="M156.4 106.788C156.4 133.106 152.091 154.438 122.744 154.438C113.116 154.438 104.475 148.191 98.5719 138.284C124.016 127.319 143.028 104.275 148.391 76.375C153.337 84.625 156.4 95.2281 156.4 106.788Z" fill="#D84D00"/>
<path d="M91.4291 105.133C91.4291 135.054 75.0306 159.31 54.8025 159.31C26.8706 159.31 16.7313 135.054 16.7316 105.133C16.7319 75.2117 34.5744 50.9561 54.8028 50.9561C75.0306 50.9561 91.4291 75.212 91.4291 105.133Z" fill="#F97C15"/>
<path d="M80.4688 143.778C73.8625 153.385 64.8031 159.31 54.8031 159.31C36.225 159.31 25.5188 148.581 20.4344 132.591C33.3844 140.581 48.6375 145.191 64.9719 145.191C70.2656 145.191 75.4438 144.706 80.4688 143.778Z" fill="#E86300"/>
<path d="M139.67 105.133C139.67 135.054 133.383 159.31 101.599 159.31C81.3703 159.31 64.9722 135.054 64.9722 105.133C64.9722 75.2117 81.3706 50.9561 101.599 50.9561C121.827 50.9561 139.67 75.212 139.67 105.133Z" fill="#F97C15"/>
<path d="M139.666 104.547C132.575 106.075 124.972 105.469 118.787 104.975C116.191 104.766 113.741 104.572 111.766 104.572C106.525 104.572 96.3687 105.497 87.1937 111.669C81.35 115.603 75.0312 125.834 71.4969 132.163C71.0219 133.016 69.725 132.481 69.9781 131.541C76.3656 107.519 93.9 98.7782 111.766 98.7782C113.972 98.7782 116.534 98.9845 119.25 99.2001C125.591 99.7032 132.978 100.294 139.391 98.6782C139.556 100.606 139.65 102.563 139.666 104.547Z" fill="#E86300"/>
<path d="M139.669 105.132C139.669 135.053 133.381 159.31 101.6 159.31C91.8312 159.31 82.9531 153.65 76.3844 144.428C103.681 140.766 126.872 124.135 139.553 100.941C139.628 102.325 139.669 103.722 139.669 105.132Z" fill="#E86300"/>
<path d="M78.2006 160C97.9432 160 113.948 135.064 113.948 104.305C113.948 73.545 97.9432 48.6094 78.2006 48.6094C58.458 48.6094 42.4534 73.545 42.4534 104.305C42.4534 135.064 58.458 160 78.2006 160Z" fill="#FF993A"/>
<path d="M113.947 104.306V104.631C113.172 104.594 112.441 104.572 111.766 104.572C106.525 104.572 96.3687 105.497 87.1937 111.669C81.35 115.603 75.0312 125.835 71.4969 132.163C71.0219 133.016 69.725 132.481 69.9781 131.541C76.3656 107.519 93.9 98.7783 111.766 98.7783C112.416 98.7783 113.1 98.7971 113.806 98.8283C113.897 100.613 113.947 102.441 113.947 104.306Z" fill="#F97C15"/>
<path d="M112.128 130.909C108.769 149.45 99.8437 160 78.2 160C62.0844 160 53.0187 154.15 48.05 143.506C53.5187 144.609 59.1781 145.19 64.9719 145.19C82.4219 145.19 98.6375 139.931 112.128 130.909Z" fill="#F97C15"/>
<path d="M144.489 95.8848C135.237 103.816 121.634 102.732 111.703 101.937C109.107 101.73 106.657 101.535 104.682 101.535C99.4409 101.535 89.2866 102.459 80.1087 108.631C74.2666 112.565 67.9491 122.798 64.4141 129.126C63.9381 129.978 62.6428 129.445 62.8934 128.502C69.2822 104.483 86.8159 95.7398 104.682 95.7398C106.888 95.7398 109.45 95.9466 112.166 96.1619C121.58 96.9113 133.295 97.847 140.717 91.4841C144.832 87.9548 147.283 82.5357 148.177 74.9613C148.357 73.4313 148.347 71.8807 148.127 70.3557C146.373 58.2038 137.477 52.117 129.987 50.5841C124.009 49.3588 118.226 50.6048 113.582 53.8463C111.507 52.8238 109.363 52.0579 107.173 51.5735C113.47 45.6123 122.126 43.0582 131.146 44.9045C137.174 46.1382 142.725 49.3423 146.778 53.9248C151.232 58.9585 154.173 64.9748 154.173 72.9254C154.174 82.012 150.156 91.0248 144.489 95.8848Z" fill="#007733"/>
<path d="M150.128 79.0191C148.697 78.8407 147.368 79.7379 146.968 81.1241C145.684 85.5754 143.614 88.9994 140.718 91.4841C134.336 96.9551 124.78 97.0301 116.242 96.4673C114.57 96.3569 113.154 97.681 113.154 99.3566C113.154 100.883 114.336 102.148 115.859 102.248C125.19 102.86 136.472 102.757 144.489 95.8844C148.054 92.8269 150.965 88.1254 152.635 82.7963C153.177 81.0654 152.044 79.2557 150.243 79.0332C150.205 79.0288 150.167 79.0238 150.128 79.0191Z" fill="#00893E"/>
<path d="M120.668 99.5752V99.5783C120.668 101.193 121.99 102.501 123.604 102.47C128.805 102.369 134.158 101.64 138.931 99.4311C140.566 98.6739 141.116 96.6239 140.07 95.1558C140.059 95.1402 140.047 95.1242 140.036 95.1086C139.232 93.9786 137.738 93.6008 136.48 94.1846C132.592 95.9886 128.08 96.6008 123.527 96.6852C121.943 96.7146 120.668 97.9911 120.668 99.5752Z" fill="#04A550"/>
<path d="M27.8828 39.8292C27.8828 39.8292 25.3534 41.6342 22.7331 42.5573C21.9009 41.307 21.1434 40.0861 20.4522 38.902C21.6484 37.0848 22.7828 33.897 21.9466 28.7061C23.1634 31.9392 25.0512 35.6398 27.8828 39.8292Z" fill="#04A550"/>
<path d="M64.1953 59.464C62.0062 57.1321 58.2712 57.1859 56.1772 59.6034C47.9409 69.1118 42.4531 84.4537 42.4531 104.306C42.4531 109.499 42.5709 114.382 42.8725 118.934C43.0622 121.8 45.4553 124.02 48.3275 124.02C51.4825 124.02 53.9944 121.357 53.7837 118.209C53.4681 113.494 53.3906 108.71 53.3906 104.306C53.3906 90.2593 56.5344 77.9406 62.2437 69.6125C62.9491 68.5837 63.685 67.6281 64.4475 66.7487C66.2506 64.669 66.1541 61.5506 64.27 59.5437C64.2453 59.5175 64.2203 59.4906 64.1953 59.464Z" fill="#FFAF40"/>
<path d="M48.2109 101.596H48.3222C51.1206 101.596 53.4728 99.4645 53.7128 96.6763C54.3347 89.4532 55.8491 82.8613 58.1628 77.2607C59.2734 74.5723 58.0606 71.4907 55.4166 70.2776C55.3834 70.2623 55.3503 70.247 55.3169 70.232C52.5425 68.9579 49.2453 70.221 48.0744 73.0404C45.3975 79.4867 43.5503 87.096 42.8138 95.7354C42.545 98.8895 45.0453 101.596 48.2109 101.596Z" fill="#FFC751"/>
<path d="M27.0697 126.602C28.5778 125.367 29.3147 123.416 28.9763 121.497C28.1122 116.596 27.6691 111.11 27.6691 105.131C27.6691 96.3676 29.5288 87.747 32.8944 80.4583C34.0159 78.0292 33.1903 75.1592 30.9566 73.6867C30.9191 73.662 30.8819 73.6373 30.8444 73.6126C28.0788 71.7851 24.3588 72.8511 22.9644 75.8586C19.0509 84.3001 16.7313 94.347 16.7313 105.131C16.7313 111.55 17.1981 117.707 18.2069 123.42C18.9275 127.502 23.7694 129.304 26.9766 126.678C27.0075 126.652 27.0388 126.627 27.0697 126.602Z" fill="#FF993A"/>
<path d="M18.9715 87.1412C18.0972 90.5568 17.4615 94.1293 17.0969 97.8196C16.7775 101.051 19.2931 103.861 22.5403 103.861C25.3525 103.861 27.7025 101.728 27.9831 98.9302C28.2928 95.8405 28.8303 92.8059 29.579 89.8799C30.2912 87.0968 28.7472 84.2359 26.0162 83.3443C25.9815 83.333 25.9469 83.3215 25.9122 83.3102C22.9265 82.3365 19.75 84.0993 18.9715 87.1412Z" fill="#FFAF40"/>
<path d="M12.1644 80.1789L12.0659 80.1311C9.28469 78.7757 5.92594 80.0201 4.71938 82.8689C1.74281 89.8982 0 98.0686 0 106.788C0 107.062 0.0009375 107.336 0.0028125 107.609C0.02375 110.618 2.46406 113.048 5.47281 113.048C8.50344 113.048 10.9612 110.584 10.94 107.554C10.9381 107.3 10.9375 107.044 10.9375 106.788C10.9375 99.4307 12.4091 92.7251 14.7819 87.1167C15.8975 84.4801 14.7378 81.4326 12.1644 80.1789Z" fill="#F97C15"/>
<path d="M12.5088 93.9326C12.5934 93.5973 12.6813 93.2645 12.7719 92.9345C13.5572 90.0776 11.8906 87.1242 9.04032 86.3154L8.9347 86.2854C6.0472 85.466 3.03407 87.1489 2.23876 90.0429C2.12501 90.4567 2.01532 90.8729 1.9097 91.292C1.22001 94.0289 2.79751 96.8245 5.47751 97.7098C5.51251 97.7214 5.54751 97.7329 5.58282 97.7445C8.55751 98.726 11.7419 96.9701 12.5088 93.9326Z" fill="#FF993A"/>
<path d="M81.8531 68.6895C84.8734 68.6895 87.3219 66.241 87.3219 63.2207C87.3219 60.2004 84.8734 57.752 81.8531 57.752C78.8328 57.752 76.3844 60.2004 76.3844 63.2207C76.3844 66.241 78.8328 68.6895 81.8531 68.6895Z" fill="#FFAF40"/>
<path d="M100.546 127.909C103.566 127.909 106.015 125.46 106.015 122.44C106.015 119.42 103.566 116.971 100.546 116.971C97.5256 116.971 95.0772 119.42 95.0772 122.44C95.0772 125.46 97.5256 127.909 100.546 127.909Z" fill="#FFAF40"/>
<path d="M71.6516 82.7544C74.6719 82.7544 77.1203 80.306 77.1203 77.2856C77.1203 74.2653 74.6719 71.8169 71.6516 71.8169C68.6312 71.8169 66.1828 74.2653 66.1828 77.2856C66.1828 80.306 68.6312 82.7544 71.6516 82.7544Z" fill="#FFAF40"/>
</g>
<defs>
<clipPath id="clip0_152_769">
<rect width="160" height="160" fill="white"/>
</clipPath>
</defs>
</svg>
