<svg width="160" height="160" viewBox="0 0 160 160" fill="none" xmlns="http://www.w3.org/2000/svg">
<g clip-path="url(#clip0_152_952)">
<path d="M4.89688 134.405C4.13013 135.172 3.38943 135.965 2.67979 136.779C-1.10718 141.125 -0.842395 147.676 3.23382 151.752L8.24745 156.766C12.324 160.843 18.8758 161.107 23.2218 157.319C24.0359 156.61 24.8284 155.869 25.5948 155.103C29.7074 150.99 33.0646 146.126 34.9454 141.233L18.7669 125.055C13.8754 126.937 9.00949 130.293 4.89688 134.405Z" fill="url(#paint0_linear_152_952)"/>
<path d="M4.89688 134.405C4.13013 135.172 3.38943 135.965 2.67979 136.779C-1.10718 141.125 -0.842395 147.676 3.23382 151.752L8.24745 156.766C12.324 160.843 18.8758 161.107 23.2218 157.319C24.0359 156.61 24.8284 155.869 25.5948 155.103C29.7074 150.99 33.0646 146.126 34.9454 141.233L18.7669 125.055C13.8754 126.937 9.00949 130.293 4.89688 134.405Z" fill="url(#paint1_linear_152_952)"/>
<path d="M114.736 110.189C111.894 114.127 106.204 114.589 102.77 111.154C99.4631 107.846 96.0185 104.415 95.3885 103.813C95.3355 103.759 95.2799 103.709 95.2269 103.656C94.4702 102.9 93.8694 102.04 93.4277 101.121C91.7687 97.6789 92.34 93.4082 95.1821 90.5291C98.0134 87.6661 102.247 87.0364 105.69 88.6847C106.542 89.0923 107.349 89.64 108.068 90.328C108.664 90.8984 111.071 93.2899 113.763 95.9782C117.521 99.73 118.003 105.655 114.899 109.963C114.845 110.038 114.791 110.113 114.736 110.189Z" fill="url(#paint2_linear_152_952)"/>
<path d="M125.42 95.0045C122.43 99.3458 116.236 99.9149 112.504 96.192C110.142 93.8353 108.123 91.83 107.653 91.3842C107.603 91.334 107.547 91.2838 107.497 91.2333C106.735 90.4712 106.132 89.6085 105.69 88.6852C104.036 85.2427 104.61 80.9798 107.449 78.1036C110.281 75.2352 114.522 74.6081 117.962 76.2645C118.817 76.6692 119.616 77.2145 120.336 77.9025C120.791 78.3367 122.302 79.8328 124.19 81.713C127.757 85.2647 128.275 90.8587 125.42 95.0045Z" fill="url(#paint3_linear_152_952)"/>
<path d="M136.378 79.0902C132.93 84.0963 125.791 84.7636 121.475 80.4829C120.701 79.7149 120.142 79.1643 119.923 78.9553C119.87 78.9023 119.814 78.8521 119.761 78.7991C119.005 78.0424 118.404 77.1825 117.962 76.2642C116.303 72.8217 116.874 68.551 119.716 65.6719C122.55 62.8064 126.792 62.1792 130.234 63.8329C131.084 64.2376 131.886 64.7853 132.603 65.4708C132.966 65.8166 134.001 66.838 135.362 68.1908C138.291 71.1006 138.719 75.6901 136.378 79.0902Z" fill="url(#paint4_linear_152_952)"/>
<path d="M144.936 66.6662C142.274 70.5312 136.764 71.0461 133.43 67.7438C132.818 67.1371 132.378 66.7041 132.19 66.524C132.137 66.471 132.082 66.4208 132.029 66.3678C131.272 65.6111 130.671 64.7512 130.235 63.8329C128.573 60.3929 129.145 56.1222 131.987 53.2432C134.815 50.3776 139.054 49.7476 142.497 51.4016C143.349 51.8091 144.153 52.3541 144.873 53.0421C145.071 53.2309 145.468 53.6199 146.008 54.1539C148.604 56.7195 148.99 60.7785 146.92 63.7846L144.936 66.6662Z" fill="url(#paint5_linear_152_952)"/>
<path d="M145.454 39.7713C147.716 36.4872 152.377 36.0006 155.268 38.7473L155.283 38.7624C155.334 38.8125 155.389 38.8627 155.44 38.9133C156.202 39.6753 156.805 40.538 157.244 41.4588C158.903 44.9013 158.329 49.1642 155.487 52.0432C151.957 55.6206 146.234 55.7135 142.601 52.2443C141.103 50.8197 140.581 48.6233 141.349 46.7043C141.958 45.1808 142.73 43.7277 143.667 42.3664L145.454 39.7713Z" fill="url(#paint6_linear_152_952)"/>
<path d="M114.736 110.188C114.791 110.113 114.845 110.038 114.899 109.963C117.471 106.395 117.578 101.717 115.405 98.0837C118.919 99.4493 123.118 98.3456 125.42 95.0038C128.009 91.2439 127.815 86.2974 125.097 82.7589C129.096 84.1669 133.782 82.858 136.377 79.0899C138.373 76.192 138.35 72.4336 136.489 69.584C139.517 70.5252 142.988 69.4933 144.935 66.6658L146.919 63.7842C148.933 60.8597 148.616 56.9428 146.207 54.37C149.386 55.3601 152.987 54.5767 155.487 52.0428C158.328 49.164 158.903 44.9011 157.244 41.4583C156.804 40.5375 156.201 39.6748 155.439 38.9128C155.389 38.8626 155.333 38.8124 155.283 38.7619L155.267 38.7468C152.376 36.0001 147.715 36.4867 145.453 39.7708L143.667 42.3656C142.729 43.7269 141.958 45.18 141.348 46.7035C140.77 48.1476 140.924 49.7485 141.673 51.0595C138.397 49.8646 134.593 50.6015 131.986 53.2427C129.144 56.1218 128.573 60.3925 130.234 63.8325C126.792 62.1786 122.55 62.8057 119.716 65.6716C116.874 68.5506 116.303 72.8213 117.962 76.2638C114.522 74.6074 110.28 75.2345 107.449 78.1029C104.61 80.9791 104.036 85.242 105.689 88.6845C102.247 87.0359 98.0131 87.6658 95.1817 90.5289C92.3397 93.4079 91.7684 97.6786 93.4273 101.121C93.8694 102.039 94.4699 102.899 95.2266 103.656C95.2796 103.709 95.3351 103.759 95.3881 103.812C96.0181 104.415 99.4628 107.846 102.769 111.154C106.204 114.589 111.893 114.126 114.736 110.188Z" fill="url(#paint7_linear_152_952)"/>
<path d="M41.7269 135.666C42.9329 136.816 44.1103 137.994 45.2607 139.2C48.8488 142.96 54.8249 143.037 58.5002 139.361C62.0525 135.809 62.1256 130.068 58.6589 126.432C57.3036 125.011 55.916 123.623 54.4948 122.268C50.8594 118.801 45.1176 118.874 41.5653 122.427C37.8904 126.102 37.9666 132.078 41.7269 135.666Z" fill="url(#paint8_linear_152_952)"/>
<path d="M54.0754 123.318C55.2814 124.468 56.4588 125.646 57.6092 126.851C61.1973 130.612 67.1734 130.689 70.8487 127.013C74.401 123.461 74.4741 117.719 71.0074 114.084C69.6521 112.663 68.2645 111.275 66.8434 109.92C63.2079 106.453 57.4661 106.526 53.9138 110.078C50.2386 113.753 50.3151 119.73 54.0754 123.318Z" fill="url(#paint9_linear_152_952)"/>
<path d="M66.4239 110.969C67.6299 112.12 68.8073 113.297 69.9577 114.503C73.5458 118.263 79.5219 118.34 83.1972 114.665C86.7495 111.112 86.8226 105.371 83.3559 101.735C82.0006 100.314 80.613 98.9263 79.1919 97.571C75.5564 94.1044 69.8146 94.1775 66.2623 97.7298C62.5871 101.405 62.6633 107.381 66.4239 110.969Z" fill="url(#paint10_linear_152_952)"/>
<path d="M78.7721 98.6203C79.978 99.771 81.1554 100.948 82.3059 102.154C85.8939 105.915 91.87 105.991 95.5453 102.316C99.0976 98.7637 99.1707 93.0222 95.7041 89.3865C94.3488 87.9653 92.9612 86.5777 91.54 85.2224C87.9046 81.7557 82.1628 81.8288 78.6105 85.3811C74.9352 89.0564 75.0118 95.0322 78.7721 98.6203Z" fill="url(#paint11_linear_152_952)"/>
<path d="M91.1206 86.2722C92.3265 87.4229 93.5039 88.6003 94.6544 89.806C98.2424 93.5666 104.219 93.6431 107.894 89.9678C111.446 86.4155 111.519 80.6741 108.053 77.0383C106.697 75.6171 105.31 74.2295 103.889 72.8743C100.253 69.4076 94.5113 69.4807 90.959 73.033C87.2837 76.708 87.36 82.6841 91.1206 86.2722Z" fill="url(#paint12_linear_152_952)"/>
<path d="M103.469 73.924C104.675 75.0748 105.852 76.2522 107.003 77.4578C110.591 81.2184 116.567 81.295 120.242 77.6197C123.795 74.0674 123.868 68.3259 120.401 64.6902C119.046 63.269 117.658 61.8814 116.237 60.5261C112.602 57.0595 106.86 57.1326 103.308 60.6849C99.6322 64.3598 99.7085 70.336 103.469 73.924Z" fill="url(#paint13_linear_152_952)"/>
<path d="M115.817 61.5754C117.023 62.7261 118.201 63.9035 119.351 65.1092C122.939 68.8698 128.915 68.9463 132.59 65.2711C136.143 61.7188 136.216 55.9773 132.749 52.3415C131.394 50.9204 130.006 49.5328 128.585 48.1775C124.95 44.7108 119.208 44.7839 115.656 48.3362C111.98 52.0115 112.057 57.9876 115.817 61.5754Z" fill="url(#paint14_linear_152_952)"/>
<path d="M128.166 49.2272C129.372 50.378 130.549 51.5554 131.7 52.761C135.288 56.5216 141.264 56.5982 144.939 52.9229C148.491 49.3706 148.564 43.6291 145.098 39.9934C143.742 38.5722 142.355 37.1846 140.934 35.8293C137.298 32.3627 131.556 32.4358 128.004 35.9881C124.329 39.663 124.405 45.6392 128.166 49.2272Z" fill="url(#paint15_linear_152_952)"/>
<path d="M140.514 36.8786C141.72 38.0293 142.897 39.2068 144.048 40.4124C147.636 44.173 153.612 44.2496 157.287 40.5743C160.84 37.022 160.913 31.2805 157.446 27.6448C156.091 26.2236 154.703 24.836 153.282 23.4807C149.647 20.014 143.905 20.0871 140.352 23.6394C136.677 27.3147 136.754 33.2905 140.514 36.8786Z" fill="url(#paint16_linear_152_952)"/>
<path d="M157.287 40.5743C160.84 37.022 160.913 31.2805 157.446 27.6448C156.091 26.2236 154.703 24.836 153.282 23.4807C149.646 20.014 143.905 20.0871 140.353 23.6394C137.493 26.4987 136.906 30.75 138.556 34.1865C135.107 32.5304 130.852 33.1396 128.004 35.9876C125.145 38.8469 124.557 43.0982 126.207 46.5347C122.758 44.8786 118.504 45.4878 115.656 48.3361C112.796 51.1954 112.209 55.4467 113.859 58.8832C110.41 57.2271 106.155 57.8363 103.307 60.6843C100.448 63.5436 99.8602 67.7949 101.51 71.2314C98.0613 69.5753 93.8066 70.1845 90.9586 73.0325C88.0993 75.8918 87.5117 80.1431 89.1619 83.5796C85.7128 81.9234 81.4581 82.5327 78.6101 85.381C75.7508 88.2403 75.1632 92.4916 76.8134 95.9281C73.3643 94.2719 69.1096 94.8812 66.2616 97.7292C63.4023 100.588 62.8147 104.84 64.4649 108.276C61.0158 106.62 56.7611 107.229 53.9131 110.077C51.0538 112.937 50.4662 117.188 52.1164 120.624C48.6673 118.968 44.4126 119.578 41.5646 122.426C37.8893 126.101 37.9655 132.077 41.7262 135.665C42.9321 136.816 44.1095 137.993 45.2599 139.199C48.848 142.96 54.8241 143.036 58.4994 139.361C61.3474 136.513 61.957 132.258 60.3005 128.809C63.7371 130.459 67.9883 129.872 70.8476 127.013C73.6956 124.165 74.3052 119.91 72.6487 116.461C76.0852 118.111 80.3365 117.523 83.1958 114.664C86.0438 111.816 86.6533 107.561 84.9969 104.112C88.4334 105.762 92.6847 105.175 95.544 102.316C98.392 99.4675 99.0015 95.2128 97.3451 91.7637C100.782 93.4139 105.033 92.8263 107.892 89.967C110.74 87.119 111.35 82.8643 109.693 79.4152C113.13 81.0654 117.381 80.4778 120.24 77.6188C123.088 74.7708 123.698 70.5161 122.041 67.067C125.478 68.7172 129.729 68.1296 132.589 65.2703C135.437 62.4223 136.046 58.1676 134.39 54.7185C137.826 56.3687 142.077 55.7811 144.937 52.9218C147.785 50.0738 148.394 45.8191 146.738 42.37C150.177 44.0212 154.428 43.4336 157.287 40.5743Z" fill="url(#paint17_linear_152_952)"/>
<path d="M49.8115 45.2631C45.8736 48.106 45.4109 53.796 48.8459 57.2298C52.1538 60.5364 55.5853 63.9811 56.1876 64.6111C56.2406 64.6641 56.2908 64.7196 56.3439 64.7726C57.1006 65.5293 57.9605 66.1301 58.8788 66.5718C62.3212 68.2308 66.592 67.6595 69.471 64.8175C72.3341 61.9861 72.9637 57.7524 71.3154 54.3099C70.9079 53.4579 70.3601 52.651 69.6721 51.9313C69.1018 51.3352 66.7102 48.9286 64.0219 46.2362C60.2701 42.4788 54.3448 41.9963 50.0371 45.1009C49.9618 45.1548 49.8865 45.2091 49.8115 45.2631Z" fill="url(#paint18_linear_152_952)"/>
<path d="M64.9958 34.58C60.6545 37.5698 60.0854 43.764 63.8083 47.4957C66.165 49.8581 68.1704 51.8775 68.6162 52.3468C68.6663 52.397 68.7169 52.4525 68.7671 52.5031C69.5291 53.2651 70.3918 53.8684 71.3151 54.3104C74.7576 55.9644 79.0205 55.39 81.8967 52.5507C84.7651 49.7194 85.3922 45.4778 83.7358 42.0378C83.3311 41.1833 82.7858 40.3839 82.0978 39.6642C81.6636 39.209 80.1675 37.6981 78.2873 35.8101C74.7357 32.2431 69.1416 31.7248 64.9958 34.58Z" fill="url(#paint19_linear_152_952)"/>
<path d="M80.9097 23.6225C75.9036 27.0704 75.2363 34.2092 79.5171 38.5248C80.2851 39.299 80.8357 39.8578 81.0446 40.0771C81.0976 40.1301 81.1478 40.1856 81.2009 40.2386C81.9576 40.9953 82.8175 41.5961 83.7358 42.0378C87.1782 43.6968 91.449 43.1255 94.328 40.2835C97.1936 37.4496 97.8207 33.2078 96.1671 29.7653C95.7624 28.916 95.2146 28.1141 94.5291 27.397C94.1834 27.0334 93.1619 25.9987 91.8088 24.6374C88.8993 21.7088 84.3096 21.2809 80.9097 23.6225Z" fill="url(#paint20_linear_152_952)"/>
<path d="M93.3341 15.0645C89.469 17.7258 88.9542 23.2358 92.2565 26.5697C92.8632 27.1824 93.2962 27.622 93.4762 27.8099C93.5293 27.8629 93.5795 27.9184 93.6325 27.9711C94.3892 28.7278 95.2491 29.3286 96.1674 29.7653C99.6074 31.4271 103.878 30.8555 106.757 28.0135C109.622 25.185 110.252 20.9459 108.598 17.5031C108.191 16.651 107.646 15.8466 106.958 15.127C106.769 14.9293 106.38 14.5325 105.846 13.9922C103.28 11.3965 99.2215 11.0106 96.2154 13.0802L93.3341 15.0645Z" fill="url(#paint21_linear_152_952)"/>
<path d="M120.244 14.5307C123.526 12.2709 123.998 7.61494 121.251 4.72961C121.245 4.72428 121.241 4.71895 121.235 4.71393C121.185 4.66373 121.135 4.6082 121.085 4.55769C120.323 3.79566 119.46 3.19236 118.539 2.75315C115.097 1.09418 110.834 1.66829 107.955 4.51001C104.377 8.04003 104.284 13.7633 107.754 17.3965C107.757 17.3997 107.76 17.4031 107.763 17.4063C109.186 18.9012 111.385 19.4132 113.301 18.6458C114.822 18.0365 116.272 17.2657 117.631 16.3302L120.244 14.5307Z" fill="url(#paint22_linear_152_952)"/>
<path d="M20.7999 114.739C22.0058 115.89 23.1833 117.067 24.3337 118.273C27.9217 122.033 33.8979 122.11 37.5732 118.435C41.1255 114.882 41.1986 109.141 37.7319 105.505C36.3766 104.084 34.989 102.696 33.5678 101.341C29.9324 97.8744 24.1906 97.9475 20.6383 101.5C16.963 105.175 17.0393 111.151 20.7999 114.739Z" fill="url(#paint23_linear_152_952)"/>
<path d="M33.1484 102.39C34.3544 103.541 35.5318 104.718 36.6822 105.924C40.2703 109.685 46.2464 109.761 49.9217 106.086C53.474 102.534 53.5471 96.7922 50.0804 93.1565C48.7251 91.7353 47.3375 90.3477 45.9163 88.9924C42.2809 85.5258 36.5391 85.5989 32.9868 89.1512C29.3116 92.8261 29.3878 98.8023 33.1484 102.39Z" fill="url(#paint24_linear_152_952)"/>
<path d="M45.4965 90.0417C46.7025 91.1924 47.8799 92.3698 49.0303 93.5755C52.6184 97.3361 58.5945 97.4126 62.2698 93.7374C65.8221 90.1851 65.8952 84.4436 62.4286 80.8078C61.0733 79.3867 59.6857 77.9991 58.2645 76.6438C54.6291 73.1771 48.8873 73.2502 45.335 76.8025C41.6597 80.4778 41.7363 86.4539 45.4965 90.0417Z" fill="url(#paint25_linear_152_952)"/>
<path d="M57.8451 77.6936C59.051 78.8443 60.2284 80.0217 61.3788 81.2273C64.9669 84.988 70.943 85.0645 74.6183 81.3892C78.1706 77.8369 78.2437 72.0955 74.7771 68.4597C73.4218 67.0385 72.0342 65.6509 70.613 64.2956C66.9776 60.829 61.2358 60.9021 57.6835 64.4544C54.0082 68.1294 54.0844 74.1055 57.8451 77.6936Z" fill="url(#paint26_linear_152_952)"/>
<path d="M70.1932 65.3454C71.3992 66.4961 72.5766 67.6736 73.727 68.8792C77.3151 72.6398 83.2912 72.7164 86.9665 69.0411C90.5188 65.4888 90.5919 59.7473 87.1252 56.1116C85.7699 54.6904 84.3823 53.3028 82.9612 51.9475C79.3257 48.4808 73.5839 48.5539 70.0316 52.1062C66.3567 55.7815 66.4329 61.7573 70.1932 65.3454Z" fill="url(#paint27_linear_152_952)"/>
<path d="M82.5417 52.9973C83.7477 54.148 84.9251 55.3254 86.0755 56.531C89.6636 60.2917 95.6397 60.3682 99.315 56.6929C102.867 53.1406 102.94 47.3992 99.4737 43.7634C98.1184 42.3422 96.7308 40.9546 95.3097 39.5994C91.6742 36.1327 85.9324 36.2058 82.3802 39.7581C78.7049 43.4331 78.7814 49.4092 82.5417 52.9973Z" fill="url(#paint28_linear_152_952)"/>
<path d="M94.8902 40.6486C96.0962 41.7994 97.2736 42.9768 98.424 44.1824C102.012 47.943 107.988 48.0196 111.663 44.3443C115.216 40.792 115.289 35.0505 111.822 31.4148C110.467 29.9936 109.079 28.606 107.658 27.2507C104.023 23.7841 98.281 23.8572 94.7287 27.4095C91.0534 31.0844 91.1296 37.0606 94.8902 40.6486Z" fill="url(#paint29_linear_152_952)"/>
<path d="M107.238 28.3C108.444 29.4507 109.622 30.6281 110.772 31.8338C114.36 35.5944 120.336 35.6709 124.012 31.9957C127.564 28.4434 127.637 22.7019 124.171 19.0661C122.815 17.645 121.428 16.2574 120.006 14.9021C116.371 11.4354 110.629 11.5085 107.077 15.0608C103.402 18.7361 103.478 24.7119 107.238 28.3Z" fill="url(#paint30_linear_152_952)"/>
<path d="M119.587 15.9518C120.793 17.1026 121.97 18.28 123.121 19.4856C126.709 23.2463 132.685 23.3228 136.36 19.6475C139.913 16.0952 139.986 10.3538 136.519 6.718C135.164 5.29683 133.776 3.90923 132.355 2.55394C128.72 -0.912712 122.978 -0.839614 119.425 2.71269C115.75 6.38765 115.826 12.3638 119.587 15.9518Z" fill="url(#paint31_linear_152_952)"/>
<path d="M20.1633 134.471C22.0096 136.202 23.7972 137.99 25.5286 139.836C30.9285 145.593 41.6381 144.073 49.2572 136.454C56.6212 129.09 58.3458 118.759 53.1292 113.193C51.0899 111.017 48.983 108.91 46.807 106.871C41.2406 101.654 30.9099 103.379 23.5462 110.743C15.9271 118.362 14.4062 129.071 20.1633 134.471Z" fill="url(#paint32_linear_152_952)"/>
<path d="M47.4931 108.972C48.6991 110.123 49.8765 111.301 51.0269 112.506C54.615 116.267 60.5911 116.343 64.2664 112.668C67.8187 109.116 67.8918 103.374 64.4251 99.7385C63.0699 98.3173 61.6822 96.9297 60.2611 95.5744C56.6256 92.1078 50.8839 92.1809 47.3316 95.7332C43.6563 99.4085 43.7325 105.384 47.4931 108.972Z" fill="url(#paint33_linear_152_952)"/>
<path d="M59.8413 96.6242C61.0472 97.775 62.2246 98.9524 63.3751 100.158C66.9631 103.919 72.9393 103.995 76.6146 100.32C80.1669 96.7676 80.2399 91.0261 76.7733 87.3904C75.418 85.9692 74.0304 84.5816 72.6092 83.2263C68.9738 79.7597 63.232 79.8327 59.6797 83.385C56.0047 87.06 56.081 93.0361 59.8413 96.6242Z" fill="url(#paint34_linear_152_952)"/>
<path d="M72.1898 84.2756C73.3957 85.4263 74.5731 86.6037 75.7236 87.8094C79.3116 91.57 85.2878 91.6465 88.9631 87.9713C92.5154 84.419 92.5884 78.6775 89.1218 75.0417C87.7665 73.6206 86.3789 72.233 84.9577 70.8777C81.3223 67.411 75.5805 67.4841 72.0282 71.0364C68.3529 74.7114 68.4295 80.6875 72.1898 84.2756Z" fill="url(#paint35_linear_152_952)"/>
<path d="M84.5383 71.9274C85.7442 73.0782 86.9216 74.2556 88.0721 75.4612C91.6601 79.2218 97.6363 79.2984 101.312 75.6231C104.864 72.0708 104.937 66.3293 101.47 62.6936C100.115 61.2724 98.7274 59.8848 97.3062 58.5295C93.6708 55.0629 87.929 55.136 84.3767 58.6883C80.7014 62.3636 80.7777 68.3397 84.5383 71.9274Z" fill="url(#paint36_linear_152_952)"/>
<path d="M96.8864 59.5793C98.0924 60.73 99.2698 61.9074 100.42 63.1131C104.008 66.8737 109.984 66.9502 113.66 63.275C117.212 59.7227 117.285 53.9812 113.818 50.3454C112.463 48.9243 111.076 47.5367 109.654 46.1814C106.019 42.7147 100.277 42.7878 96.7249 46.3401C93.0496 50.0151 93.1261 55.9912 96.8864 59.5793Z" fill="url(#paint37_linear_152_952)"/>
<path d="M109.235 47.2307C110.441 48.3814 111.618 49.5588 112.769 50.7644C116.357 54.5251 122.333 54.6016 126.008 50.9263C129.561 47.374 129.634 41.6326 126.167 37.9968C124.812 36.5756 123.424 35.188 122.003 33.8328C118.367 30.3661 112.626 30.4392 109.073 33.9915C105.398 37.6668 105.474 43.6426 109.235 47.2307Z" fill="url(#paint38_linear_152_952)"/>
<path d="M121.583 34.8825C122.789 36.0333 123.966 37.2107 125.117 38.4163C128.705 42.1769 134.681 42.2535 138.356 38.5782C141.909 35.0259 141.982 29.2844 138.515 25.6487C137.16 24.2275 135.772 22.8399 134.351 21.4846C130.716 18.018 124.974 18.091 121.422 21.6433C117.747 25.3183 117.823 31.2944 121.583 34.8825Z" fill="url(#paint39_linear_152_952)"/>
<path d="M133.932 22.5339C135.138 23.6846 136.315 24.862 137.465 26.0677C141.053 29.8283 147.03 29.9048 150.705 26.2296C154.257 22.6773 154.33 16.9358 150.864 13.3C149.508 11.8789 148.121 10.4913 146.7 9.13597C143.064 5.66932 137.322 5.74242 133.77 9.29472C130.095 12.9697 130.171 18.9458 133.932 22.5339Z" fill="url(#paint40_linear_152_952)"/>
<path d="M57.4566 43.9902L47.0334 54.4134C47.4143 55.4358 48.0151 56.399 48.8458 57.2297C52.1537 60.5364 55.5853 63.9811 56.1876 64.611C56.2406 64.664 56.2908 64.7196 56.3438 64.7726C56.5327 64.9614 56.7285 65.1409 56.9296 65.3103C54.7351 68.1188 54.3944 71.8929 55.8871 75.0012C52.438 73.3451 48.1832 73.9543 45.3353 76.8023C42.476 79.6616 41.8884 83.9129 43.5386 87.3494C40.0895 85.6933 35.8347 86.3025 32.9868 89.1505C30.1275 92.0098 29.5399 96.2611 31.1901 99.6976C27.741 98.0415 23.4862 98.6507 20.6383 101.499C17.0684 105.068 17.0389 110.808 20.4858 114.423C15.6337 121.511 15.2861 129.896 20.1633 134.47C22.0095 136.202 23.7971 137.99 25.5286 139.835C30.103 144.713 38.4876 144.365 45.5765 139.513C49.1909 142.96 54.9308 142.93 58.5004 139.361C61.3484 136.513 61.9579 132.258 60.3015 128.809C63.738 130.459 67.9893 129.871 70.8486 127.012C73.6965 124.164 74.3061 119.909 72.6497 116.46C76.0862 118.11 80.3375 117.523 83.1967 114.664C86.0447 111.816 86.6543 107.561 84.9978 104.112C88.1062 105.604 91.8775 105.26 94.686 103.066C94.8563 103.268 95.0364 103.465 95.2265 103.655C95.2795 103.708 95.3351 103.758 95.3881 103.811C96.018 104.414 99.4627 107.845 102.769 111.153C106.203 114.588 111.893 114.125 114.736 110.187C114.79 110.112 114.845 110.037 114.899 109.962C116.305 108.01 116.969 105.727 116.932 103.465L57.4566 43.9902Z" fill="url(#paint41_linear_152_952)"/>
<path d="M59.6612 48.2682C59.6612 44.0377 54.9148 41.5432 51.4306 43.9429L19.1578 66.1696C3.08538 77.2394 -3.54675 97.7723 1.84209 119.781C4.07173 128.887 9.11297 137.367 15.8731 144.127L22.8422 137.158C46.417 113.583 59.6612 81.6083 59.6612 48.2682Z" fill="url(#paint42_linear_152_952)"/>
<path d="M59.6612 48.2682C59.6612 46.4257 58.7605 44.9132 57.4567 43.9902C-19.2276 86.1824 15.8732 144.127 15.8732 144.127L22.8422 137.158C46.417 113.583 59.6612 81.6083 59.6612 48.2682Z" fill="url(#paint43_linear_152_952)"/>
<path d="M59.6612 48.2682C59.6612 46.4257 58.7605 44.9132 57.4566 43.9902C-1.94015 96.9466 15.8731 144.127 15.8731 144.127L22.8422 137.158C46.417 113.583 59.6612 81.6083 59.6612 48.2682Z" fill="url(#paint44_linear_152_952)"/>
<path d="M59.6611 48.2682C59.6611 46.4257 58.7604 44.9132 57.4566 43.9902C47.7443 99.4052 15.873 144.127 15.873 144.127L22.8421 137.158C46.4169 113.583 59.6611 81.6083 59.6611 48.2682Z" fill="url(#paint45_linear_152_952)"/>
<path d="M1.84204 119.781C4.07168 128.887 9.11292 137.366 15.873 144.127L22.8421 137.158C32.0113 127.988 39.6094 117.545 45.4814 106.248L11.8166 72.583C1.18887 84.2501 -2.63292 101.504 1.84204 119.781Z" fill="url(#paint46_linear_152_952)"/>
<path d="M40.2194 158.159C35.6653 157.045 31.2704 155.227 27.1662 152.843C23.0649 150.456 19.2544 147.508 15.8728 144.127L22.8425 137.157C39.8991 120.1 61.3509 108.45 84.5411 103.316C90.889 101.927 97.581 102.522 103.63 105.105C105.906 106.073 108.086 107.322 110.129 108.852C110.634 109.23 111.129 109.63 111.616 110.043C112.267 110.593 112.902 111.181 113.516 111.794L113.706 111.985L107.464 121.048L93.8286 140.843C82.7604 156.913 62.2296 163.546 40.2194 158.159Z" fill="url(#paint47_linear_152_952)"/>
<path d="M15.8728 144.127L22.8425 137.157C39.8991 120.101 61.3509 108.45 84.5411 103.317C90.889 101.927 97.581 102.523 103.63 105.105C105.906 106.074 108.086 107.323 110.129 108.852C110.634 109.231 111.129 109.63 111.616 110.043C109.467 113.488 107.284 116.666 105.077 119.598C64.4866 173.573 15.8728 144.127 15.8728 144.127Z" fill="url(#paint48_linear_152_952)"/>
<path d="M15.8728 144.127L22.8425 137.157C39.8991 120.101 61.3509 108.45 84.5411 103.317C90.889 101.927 97.581 102.523 103.63 105.105C105.906 106.074 108.086 107.323 110.129 108.852C110.634 109.231 111.129 109.63 111.616 110.043C109.467 113.488 107.284 116.666 105.077 119.598C64.4866 173.573 15.8728 144.127 15.8728 144.127Z" fill="url(#paint49_linear_152_952)"/>
<path d="M100.865 117.676C54.3816 158.667 15.8732 144.127 15.8732 144.127L22.8429 137.157C39.8994 120.1 61.3513 108.45 84.5414 103.316C90.8893 101.927 97.5814 102.522 103.63 105.105C105.906 106.073 108.086 107.322 110.129 108.852C107.012 112.048 103.921 114.98 100.865 117.676Z" fill="url(#paint50_linear_152_952)"/>
<path d="M113.517 111.795C105.655 103.932 94.664 101.115 84.5514 103.324C84.5477 103.322 84.5411 103.316 84.5411 103.316C61.3509 108.45 39.8991 120.1 22.8425 137.157L15.8728 144.127C15.8728 144.127 35.1734 130.372 64.1267 118.179C65.6135 117.554 67.1262 116.932 68.6629 116.317C77.7637 112.673 87.9017 112.25 97.1638 115.463C102.237 117.222 107.418 120.159 112.202 124.943C112.255 124.996 112.307 125.048 112.359 125.101C115.89 128.681 121.7 124.577 119.468 120.07C117.988 117.083 116.005 114.282 113.517 111.795Z" fill="url(#paint51_linear_152_952)"/>
<path d="M40.2191 158.157C31.1126 155.928 22.6333 150.887 15.8732 144.126L22.8422 137.157C32.0115 127.988 42.455 120.39 53.7516 114.518L87.4167 148.183C75.7496 158.81 58.4961 162.632 40.2191 158.157Z" fill="url(#paint52_linear_152_952)"/>
</g>
<defs>
<linearGradient id="paint0_linear_152_952" x1="18.9302" y1="133.367" x2="15.1596" y2="156.213" gradientUnits="userSpaceOnUse">
<stop stop-color="#BBEC6C"/>
<stop offset="0.1997" stop-color="#B4E564"/>
<stop offset="0.5083" stop-color="#A1D24E"/>
<stop offset="0.8852" stop-color="#83B32B"/>
<stop offset="1" stop-color="#78A91F"/>
</linearGradient>
<linearGradient id="paint1_linear_152_952" x1="0.56309" y1="142.17" x2="25.4129" y2="142.699" gradientUnits="userSpaceOnUse">
<stop stop-color="#6DAB65" stop-opacity="0"/>
<stop offset="0.6481" stop-color="#248A55" stop-opacity="0.648"/>
<stop offset="1" stop-color="#017B4E"/>
</linearGradient>
<linearGradient id="paint2_linear_152_952" x1="105.696" y1="92.7035" x2="103.595" y2="109.209" gradientUnits="userSpaceOnUse">
<stop stop-color="#FEF0AE"/>
<stop offset="1" stop-color="#FAC600"/>
</linearGradient>
<linearGradient id="paint3_linear_152_952" x1="116.915" y1="79.7672" x2="114.991" y2="94.884" gradientUnits="userSpaceOnUse">
<stop stop-color="#FEF0AE"/>
<stop offset="1" stop-color="#FAC600"/>
</linearGradient>
<linearGradient id="paint4_linear_152_952" x1="128.273" y1="66.7539" x2="126.568" y2="80.1517" gradientUnits="userSpaceOnUse">
<stop stop-color="#FEF0AE"/>
<stop offset="1" stop-color="#FAC600"/>
</linearGradient>
<linearGradient id="paint5_linear_152_952" x1="139.472" y1="54.0574" x2="137.829" y2="66.9694" gradientUnits="userSpaceOnUse">
<stop stop-color="#FEF0AE"/>
<stop offset="1" stop-color="#FAC600"/>
</linearGradient>
<linearGradient id="paint6_linear_152_952" x1="149.572" y1="38.4875" x2="149.572" y2="55.9487" gradientUnits="userSpaceOnUse">
<stop stop-color="#FEF0AE"/>
<stop offset="1" stop-color="#FAC600"/>
</linearGradient>
<linearGradient id="paint7_linear_152_952" x1="138.696" y1="81.8107" x2="112.504" y2="63.2908" gradientUnits="userSpaceOnUse">
<stop stop-color="#FEA613" stop-opacity="0"/>
<stop offset="0.1982" stop-color="#FDA215" stop-opacity="0.198"/>
<stop offset="0.4018" stop-color="#FA961B" stop-opacity="0.402"/>
<stop offset="0.608" stop-color="#F68126" stop-opacity="0.608"/>
<stop offset="0.8146" stop-color="#F06434" stop-opacity="0.815"/>
<stop offset="1" stop-color="#E94444"/>
</linearGradient>
<linearGradient id="paint8_linear_152_952" x1="50.9204" y1="123.942" x2="49.0683" y2="138.494" gradientUnits="userSpaceOnUse">
<stop stop-color="#FEF0AE"/>
<stop offset="1" stop-color="#FAC600"/>
</linearGradient>
<linearGradient id="paint9_linear_152_952" x1="63.2671" y1="111.596" x2="61.415" y2="126.147" gradientUnits="userSpaceOnUse">
<stop stop-color="#FEF0AE"/>
<stop offset="1" stop-color="#FAC600"/>
</linearGradient>
<linearGradient id="paint10_linear_152_952" x1="75.6135" y1="99.2492" x2="73.7614" y2="113.8" gradientUnits="userSpaceOnUse">
<stop stop-color="#FEF0AE"/>
<stop offset="1" stop-color="#FAC600"/>
</linearGradient>
<linearGradient id="paint11_linear_152_952" x1="87.9599" y1="86.9027" x2="86.1079" y2="101.454" gradientUnits="userSpaceOnUse">
<stop stop-color="#FEF0AE"/>
<stop offset="1" stop-color="#FAC600"/>
</linearGradient>
<linearGradient id="paint12_linear_152_952" x1="100.306" y1="74.5563" x2="98.4543" y2="89.1074" gradientUnits="userSpaceOnUse">
<stop stop-color="#FEF0AE"/>
<stop offset="1" stop-color="#FAC600"/>
</linearGradient>
<linearGradient id="paint13_linear_152_952" x1="112.653" y1="62.2099" x2="110.801" y2="76.7611" gradientUnits="userSpaceOnUse">
<stop stop-color="#FEF0AE"/>
<stop offset="1" stop-color="#FAC600"/>
</linearGradient>
<linearGradient id="paint14_linear_152_952" x1="124.999" y1="49.8634" x2="123.147" y2="64.4145" gradientUnits="userSpaceOnUse">
<stop stop-color="#FEF0AE"/>
<stop offset="1" stop-color="#FAC600"/>
</linearGradient>
<linearGradient id="paint15_linear_152_952" x1="137.346" y1="37.517" x2="135.494" y2="52.0681" gradientUnits="userSpaceOnUse">
<stop stop-color="#FEF0AE"/>
<stop offset="1" stop-color="#FAC600"/>
</linearGradient>
<linearGradient id="paint16_linear_152_952" x1="149.693" y1="25.1702" x2="147.841" y2="39.7213" gradientUnits="userSpaceOnUse">
<stop stop-color="#FEF0AE"/>
<stop offset="1" stop-color="#FAC600"/>
</linearGradient>
<linearGradient id="paint17_linear_152_952" x1="106.533" y1="87.7758" x2="88.7222" y2="71.9979" gradientUnits="userSpaceOnUse">
<stop stop-color="#FEA613" stop-opacity="0"/>
<stop offset="0.1982" stop-color="#FDA215" stop-opacity="0.198"/>
<stop offset="0.4018" stop-color="#FA961B" stop-opacity="0.402"/>
<stop offset="0.608" stop-color="#F68126" stop-opacity="0.608"/>
<stop offset="0.8146" stop-color="#F06434" stop-opacity="0.815"/>
<stop offset="1" stop-color="#E94444"/>
</linearGradient>
<linearGradient id="paint18_linear_152_952" x1="61.1674" y1="46.8951" x2="58.0805" y2="60.9172" gradientUnits="userSpaceOnUse">
<stop stop-color="#FEF0AE"/>
<stop offset="1" stop-color="#FAC600"/>
</linearGradient>
<linearGradient id="paint19_linear_152_952" x1="74.6136" y1="35.4613" x2="72.0562" y2="48.6014" gradientUnits="userSpaceOnUse">
<stop stop-color="#FEF0AE"/>
<stop offset="1" stop-color="#FAC600"/>
</linearGradient>
<linearGradient id="paint20_linear_152_952" x1="87.898" y1="24.5541" x2="86.0459" y2="39.2818" gradientUnits="userSpaceOnUse">
<stop stop-color="#FEF0AE"/>
<stop offset="1" stop-color="#FAC600"/>
</linearGradient>
<linearGradient id="paint21_linear_152_952" x1="100.373" y1="14.5992" x2="99.4024" y2="25.7994" gradientUnits="userSpaceOnUse">
<stop stop-color="#FEF0AE"/>
<stop offset="1" stop-color="#FAC600"/>
</linearGradient>
<linearGradient id="paint22_linear_152_952" x1="114.121" y1="2.68199" x2="114.121" y2="17.3228" gradientUnits="userSpaceOnUse">
<stop stop-color="#FEF0AE"/>
<stop offset="1" stop-color="#FAC600"/>
</linearGradient>
<linearGradient id="paint23_linear_152_952" x1="29.9893" y1="103.012" x2="28.1372" y2="117.563" gradientUnits="userSpaceOnUse">
<stop stop-color="#FEF0AE"/>
<stop offset="1" stop-color="#FAC600"/>
</linearGradient>
<linearGradient id="paint24_linear_152_952" x1="42.3359" y1="90.6648" x2="40.4839" y2="105.216" gradientUnits="userSpaceOnUse">
<stop stop-color="#FEF0AE"/>
<stop offset="1" stop-color="#FAC600"/>
</linearGradient>
<linearGradient id="paint25_linear_152_952" x1="54.6824" y1="78.3182" x2="52.8303" y2="92.8694" gradientUnits="userSpaceOnUse">
<stop stop-color="#FEF0AE"/>
<stop offset="1" stop-color="#FAC600"/>
</linearGradient>
<linearGradient id="paint26_linear_152_952" x1="67.0288" y1="65.9718" x2="65.1768" y2="80.523" gradientUnits="userSpaceOnUse">
<stop stop-color="#FEF0AE"/>
<stop offset="1" stop-color="#FAC600"/>
</linearGradient>
<linearGradient id="paint27_linear_152_952" x1="79.3752" y1="53.6257" x2="77.5232" y2="68.1769" gradientUnits="userSpaceOnUse">
<stop stop-color="#FEF0AE"/>
<stop offset="1" stop-color="#FAC600"/>
</linearGradient>
<linearGradient id="paint28_linear_152_952" x1="91.7219" y1="41.2791" x2="89.8698" y2="55.8303" gradientUnits="userSpaceOnUse">
<stop stop-color="#FEF0AE"/>
<stop offset="1" stop-color="#FAC600"/>
</linearGradient>
<linearGradient id="paint29_linear_152_952" x1="104.068" y1="28.9325" x2="102.216" y2="43.4837" gradientUnits="userSpaceOnUse">
<stop stop-color="#FEF0AE"/>
<stop offset="1" stop-color="#FAC600"/>
</linearGradient>
<linearGradient id="paint30_linear_152_952" x1="116.415" y1="16.5859" x2="114.563" y2="31.1371" gradientUnits="userSpaceOnUse">
<stop stop-color="#FEF0AE"/>
<stop offset="1" stop-color="#FAC600"/>
</linearGradient>
<linearGradient id="paint31_linear_152_952" x1="128.762" y1="4.23931" x2="126.909" y2="18.7905" gradientUnits="userSpaceOnUse">
<stop stop-color="#FEF0AE"/>
<stop offset="1" stop-color="#FAC600"/>
</linearGradient>
<linearGradient id="paint32_linear_152_952" x1="33.9178" y1="112.751" x2="36.2988" y2="123.069" gradientUnits="userSpaceOnUse">
<stop stop-color="#FEF0AE"/>
<stop offset="1" stop-color="#FAC600"/>
</linearGradient>
<linearGradient id="paint33_linear_152_952" x1="56.6855" y1="97.2532" x2="54.8336" y2="111.805" gradientUnits="userSpaceOnUse">
<stop stop-color="#FEF0AE"/>
<stop offset="1" stop-color="#FAC600"/>
</linearGradient>
<linearGradient id="paint34_linear_152_952" x1="69.0321" y1="84.9066" x2="67.1803" y2="99.458" gradientUnits="userSpaceOnUse">
<stop stop-color="#FEF0AE"/>
<stop offset="1" stop-color="#FAC600"/>
</linearGradient>
<linearGradient id="paint35_linear_152_952" x1="81.3785" y1="72.56" x2="79.5267" y2="87.1114" gradientUnits="userSpaceOnUse">
<stop stop-color="#FEF0AE"/>
<stop offset="1" stop-color="#FAC600"/>
</linearGradient>
<linearGradient id="paint36_linear_152_952" x1="93.725" y1="60.2139" x2="91.8732" y2="74.7653" gradientUnits="userSpaceOnUse">
<stop stop-color="#FEF0AE"/>
<stop offset="1" stop-color="#FAC600"/>
</linearGradient>
<linearGradient id="paint37_linear_152_952" x1="106.072" y1="47.8673" x2="104.22" y2="62.4187" gradientUnits="userSpaceOnUse">
<stop stop-color="#FEF0AE"/>
<stop offset="1" stop-color="#FAC600"/>
</linearGradient>
<linearGradient id="paint38_linear_152_952" x1="118.418" y1="35.5207" x2="116.566" y2="50.0721" gradientUnits="userSpaceOnUse">
<stop stop-color="#FEF0AE"/>
<stop offset="1" stop-color="#FAC600"/>
</linearGradient>
<linearGradient id="paint39_linear_152_952" x1="130.764" y1="23.1743" x2="128.913" y2="37.7257" gradientUnits="userSpaceOnUse">
<stop stop-color="#FEF0AE"/>
<stop offset="1" stop-color="#FAC600"/>
</linearGradient>
<linearGradient id="paint40_linear_152_952" x1="143.111" y1="10.8275" x2="141.259" y2="25.3789" gradientUnits="userSpaceOnUse">
<stop stop-color="#FEF0AE"/>
<stop offset="1" stop-color="#FAC600"/>
</linearGradient>
<linearGradient id="paint41_linear_152_952" x1="74.3278" y1="101.749" x2="38.5632" y2="91.9191" gradientUnits="userSpaceOnUse">
<stop stop-color="#FEA613" stop-opacity="0"/>
<stop offset="0.1982" stop-color="#FDA215" stop-opacity="0.198"/>
<stop offset="0.4018" stop-color="#FA961B" stop-opacity="0.402"/>
<stop offset="0.608" stop-color="#F68126" stop-opacity="0.608"/>
<stop offset="0.8146" stop-color="#F06434" stop-opacity="0.815"/>
<stop offset="1" stop-color="#E94444"/>
</linearGradient>
<linearGradient id="paint42_linear_152_952" x1="13.5017" y1="70.8145" x2="51.3348" y2="108.648" gradientUnits="userSpaceOnUse">
<stop stop-color="#BBEC6C"/>
<stop offset="0.1997" stop-color="#B4E564"/>
<stop offset="0.5083" stop-color="#A1D24E"/>
<stop offset="0.8852" stop-color="#83B32B"/>
<stop offset="1" stop-color="#78A91F"/>
</linearGradient>
<linearGradient id="paint43_linear_152_952" x1="26.6677" y1="93.986" x2="-6.66772" y2="93.8097" gradientUnits="userSpaceOnUse">
<stop stop-color="#6DAB65" stop-opacity="0"/>
<stop offset="0.1569" stop-color="#65A763" stop-opacity="0.157"/>
<stop offset="0.3993" stop-color="#4F9E5F" stop-opacity="0.399"/>
<stop offset="0.6968" stop-color="#2C8E57" stop-opacity="0.697"/>
<stop offset="1" stop-color="#017B4E"/>
</linearGradient>
<linearGradient id="paint44_linear_152_952" x1="39.243" y1="93.7722" x2="-9.17325" y2="98.7989" gradientUnits="userSpaceOnUse">
<stop stop-color="#6DAB65" stop-opacity="0"/>
<stop offset="0.1569" stop-color="#65A763" stop-opacity="0.157"/>
<stop offset="0.3993" stop-color="#4F9E5F" stop-opacity="0.399"/>
<stop offset="0.6968" stop-color="#2C8E57" stop-opacity="0.697"/>
<stop offset="1" stop-color="#017B4E"/>
</linearGradient>
<linearGradient id="paint45_linear_152_952" x1="52.3209" y1="95.8957" x2="31.5085" y2="93.4264" gradientUnits="userSpaceOnUse">
<stop stop-color="#6DAB65" stop-opacity="0"/>
<stop offset="0.1569" stop-color="#65A763" stop-opacity="0.157"/>
<stop offset="0.3993" stop-color="#4F9E5F" stop-opacity="0.399"/>
<stop offset="0.6968" stop-color="#2C8E57" stop-opacity="0.697"/>
<stop offset="1" stop-color="#017B4E"/>
</linearGradient>
<linearGradient id="paint46_linear_152_952" x1="20.8471" y1="101.341" x2="-1.42152" y2="123.61" gradientUnits="userSpaceOnUse">
<stop stop-color="#6DAB65" stop-opacity="0"/>
<stop offset="0.1569" stop-color="#65A763" stop-opacity="0.157"/>
<stop offset="0.3993" stop-color="#4F9E5F" stop-opacity="0.399"/>
<stop offset="0.6968" stop-color="#2C8E57" stop-opacity="0.697"/>
<stop offset="1" stop-color="#017B4E"/>
</linearGradient>
<linearGradient id="paint47_linear_152_952" x1="48.3716" y1="111.611" x2="86.2049" y2="149.444" gradientUnits="userSpaceOnUse">
<stop stop-color="#BBEC6C"/>
<stop offset="0.1997" stop-color="#B4E564"/>
<stop offset="0.5083" stop-color="#A1D24E"/>
<stop offset="0.8852" stop-color="#83B32B"/>
<stop offset="1" stop-color="#78A91F"/>
</linearGradient>
<linearGradient id="paint48_linear_152_952" x1="69.0354" y1="132.629" x2="89.0103" y2="153.662" gradientUnits="userSpaceOnUse">
<stop stop-color="#6DAB65" stop-opacity="0"/>
<stop offset="0.1569" stop-color="#65A763" stop-opacity="0.157"/>
<stop offset="0.3993" stop-color="#4F9E5F" stop-opacity="0.399"/>
<stop offset="0.6968" stop-color="#2C8E57" stop-opacity="0.697"/>
<stop offset="1" stop-color="#017B4E"/>
</linearGradient>
<linearGradient id="paint49_linear_152_952" x1="66.8531" y1="136.767" x2="60.5035" y2="116.924" gradientUnits="userSpaceOnUse">
<stop stop-color="#6DAB65" stop-opacity="0"/>
<stop offset="0.1569" stop-color="#65A763" stop-opacity="0.157"/>
<stop offset="0.3993" stop-color="#4F9E5F" stop-opacity="0.399"/>
<stop offset="0.6968" stop-color="#2C8E57" stop-opacity="0.697"/>
<stop offset="1" stop-color="#017B4E"/>
</linearGradient>
<linearGradient id="paint50_linear_152_952" x1="57.9287" y1="120.063" x2="81.2104" y2="149.431" gradientUnits="userSpaceOnUse">
<stop stop-color="#6DAB65" stop-opacity="0"/>
<stop offset="0.1569" stop-color="#65A763" stop-opacity="0.157"/>
<stop offset="0.3993" stop-color="#4F9E5F" stop-opacity="0.399"/>
<stop offset="0.6968" stop-color="#2C8E57" stop-opacity="0.697"/>
<stop offset="1" stop-color="#017B4E"/>
</linearGradient>
<linearGradient id="paint51_linear_152_952" x1="68.7708" y1="99.1045" x2="67.9772" y2="130.852" gradientUnits="userSpaceOnUse">
<stop stop-color="#BBEC6C"/>
<stop offset="0.1997" stop-color="#B4E564"/>
<stop offset="0.5083" stop-color="#A1D24E"/>
<stop offset="0.8852" stop-color="#83B32B"/>
<stop offset="1" stop-color="#78A91F"/>
</linearGradient>
<linearGradient id="paint52_linear_152_952" x1="58.6682" y1="139.162" x2="36.3996" y2="161.431" gradientUnits="userSpaceOnUse">
<stop stop-color="#6DAB65" stop-opacity="0"/>
<stop offset="0.1569" stop-color="#65A763" stop-opacity="0.157"/>
<stop offset="0.3993" stop-color="#4F9E5F" stop-opacity="0.399"/>
<stop offset="0.6968" stop-color="#2C8E57" stop-opacity="0.697"/>
<stop offset="1" stop-color="#017B4E"/>
</linearGradient>
<clipPath id="clip0_152_952">
<rect width="160" height="160" fill="white"/>
</clipPath>
</defs>
</svg>
