<svg width="174" height="160" viewBox="0 0 174 160" fill="none" xmlns="http://www.w3.org/2000/svg">
<g clip-path="url(#clip0_152_845)">
<path d="M65.772 18.5222C69.87 18.3304 76.044 23.7175 79.572 25.8747C82.878 23.2501 89.832 23.7235 94.032 23.4778C97.224 23.28 101.904 23.328 104.784 24.5504C106.392 21.758 104.682 10.2049 106.62 8.64089C105.762 7.44244 100.476 2.64861 91.62 0.808977C79.122 -1.79767 65.076 2.17522 58.974 9.71351C62.178 11.7868 65.166 17.8211 65.772 18.5222Z" fill="#236309"/>
<path d="M31.632 53.4212C31.74 53.4511 37.86 52.007 37.926 52.0849C40.458 46.8417 44.4 45.5353 50.4 43.9833C50.352 43.6118 56.718 38.4285 56.694 38.045C56.364 32.598 53.202 30.9981 56.826 26.9113C60.216 23.0882 62.76 15.7057 67.8 15.1425C64.536 11.4932 54 2.6965 42.678 8.44909C36.648 11.5231 36.678 14.3215 36.678 14.3515C36.6876 14.463 36.6619 14.5747 36.6044 14.6708C36.547 14.7669 36.4607 14.8425 36.3578 14.8869C36.2549 14.9313 36.1407 14.9423 36.0312 14.9183C35.9218 14.8942 35.8227 14.8364 35.748 14.753C35.634 14.6271 32.748 11.6729 25.686 15.6219C18.918 19.385 20.046 25.4672 20.058 25.5211C20.0786 25.6237 20.0686 25.7302 20.0291 25.8271C19.9896 25.9241 19.9225 26.0073 19.836 26.0664C19.764 26.1143 12.582 31.1299 11.748 38.0869C11.34 41.5085 13.752 47.1413 16.5 50.3531C20.838 47.5128 23.364 50.9344 31.632 53.4212Z" fill="#2A7210"/>
<path d="M100.944 104.805C100.632 103.643 98.298 98.4834 101.304 90.4837C102.738 86.6666 107.412 77.9358 112.224 71.8716C110.766 72.0634 109.266 70.799 108.072 70.799C100.752 70.799 98.322 69.6485 97.494 67.9886C94.368 72.0574 90.102 78.4572 89.094 81.4893C88.284 84 87.486 85.1206 86.502 85.1206C84.828 85.1206 83.754 81.7409 81.996 75.8146C81.636 74.6161 79.926 69.4807 79.542 68.2523C75.252 69.4927 71.142 66.7842 68.7 66.7842C66.606 66.7842 65.898 70.3796 64.95 70.1279C66.666 73.7312 68.1823 77.426 69.492 81.1956C72.804 92.4372 73.44 104.194 73.632 105.692L62.916 119.6C63.294 120.727 64.716 124.993 64.896 126.192C65.982 134.329 65.748 144.954 65.364 152.438C65.2766 154.186 65.8794 155.898 67.0429 157.207C68.2064 158.516 69.8377 159.317 71.586 159.437C78.636 159.886 88.758 160.3 96.948 159.707C98.5822 159.587 100.114 158.868 101.249 157.687C102.383 156.507 103.04 154.948 103.092 153.313C103.374 145.421 105.33 132.1 110.178 122.387L100.944 104.805Z" fill="#9FD92B"/>
<path d="M139.404 85.6479L133.8 86.5887C123.678 93.9413 107.076 104.709 100.962 104.811C100.122 105.458 94.854 109.725 96.012 114.615C96.3479 115.993 96.9562 117.29 97.8011 118.43C98.646 119.57 99.7104 120.53 100.932 121.254C102.816 122.375 105.948 123.459 110.196 122.399C112.476 118.204 115.47 114.513 119.4 111.924C127.074 106.867 135.768 101.066 140.898 97.6924C137.508 94.942 139.236 87.4037 139.404 85.6479Z" fill="#7FCC02"/>
<path d="M72.918 130.284C73.992 130.746 76.086 130.788 78.144 129.793C79.74 129.02 81.84 127.366 82.782 123.867C84.456 117.665 74.382 106.519 73.632 105.686C73.032 105.296 66.57 101.288 55.11 93.5516C54.612 93.216 52.314 91.0887 51.84 90.7352C50.844 91.1367 50.088 89.3989 47.286 89.3989L43.686 90.7352C43.962 92.425 44.196 98.9327 41.946 101.563C42.348 101.887 45.69 103.541 46.104 103.858C46.518 104.176 57.3 109.791 62.4 118.947C64.722 121.883 70.986 129.457 72.918 130.284Z" fill="#7ACD01"/>
<path d="M58.086 75.269L36.45 49.0108C36.39 49.0108 34.002 48.5854 33.942 48.5674C25.14 45.9128 18.642 46.3622 14.628 49.9037C8.39999 55.3686 10.2 66.5143 10.242 66.6281C10.2512 66.6978 10.2466 66.7686 10.2284 66.8365C10.2102 66.9044 10.1787 66.968 10.1357 67.0237C10.0928 67.0794 10.0393 67.126 9.97822 67.161C9.91716 67.1959 9.8498 67.2185 9.77999 67.2274C9.73199 67.2274 5.17199 67.8266 2.32199 71.5538C0.269987 74.2563 -0.426013 77.8996 0.245987 82.3938C0.803987 86.133 2.42399 88.9853 5.04599 90.8609C10.362 94.66 18.102 93.2998 18.18 93.2578C18.2497 93.2486 18.3207 93.2532 18.3886 93.2714C18.4566 93.2896 18.5203 93.3211 18.576 93.364C18.6318 93.4068 18.6785 93.4603 18.7135 93.5213C18.7485 93.5822 18.7711 93.6495 18.78 93.7192C18.84 94.1986 20.328 105.44 33.042 106.842C37.632 107.346 41.19 105.926 43.62 102.606L43.656 102.576C43.6653 102.561 43.6753 102.547 43.686 102.534C46.56 99.8434 45.228 93.7792 45.21 93.7192C45.1908 93.6365 45.1917 93.5504 45.2126 93.468C45.2334 93.3857 45.2737 93.3095 45.33 93.2459C45.3849 93.1818 45.4545 93.132 45.5328 93.1007C45.6112 93.0693 45.696 93.0575 45.78 93.0661C48.636 93.3297 52.872 91.6279 53.43 91.4002C58.8 87.6491 58.674 78.9123 58.086 75.269Z" fill="#337A15"/>
<path d="M99 16.5208C100.482 17.2458 101.454 20.7873 102.75 21.8719C103.632 21.7101 107.1 22.4711 107.838 22.4052C119.088 21.7101 118.8 22.525 119.484 33.7905C119.568 35.1388 124.242 42.5932 124.038 43.9774C128.52 44.6425 136.548 46.0927 139.566 49.1368C141.288 48.2319 148.332 44.0673 154.692 45.3916C154.74 45.2777 158.49 35.8399 155.976 29.7038C154.674 26.5219 152.04 24.1609 148.176 22.6808C148.058 22.6365 147.96 22.552 147.899 22.4424C147.837 22.3328 147.816 22.205 147.84 22.0816C147.924 21.5603 149.772 9.342 139.374 6.36983C136.902 5.66274 133.494 5.17137 129.078 7.56828C129 7.61077 128.912 7.63302 128.823 7.63302C128.734 7.63302 128.646 7.61077 128.568 7.56828C127.758 7.19077 109.8 -2.73844 99 16.5208Z" fill="#2A7210"/>
<path d="M167.154 82.9933C167.508 82.8615 175.8 79.6916 173.646 68.7137C171.492 57.7358 163.65 57.7239 163.602 57.7358C163.521 57.7366 163.44 57.7193 163.367 57.6851C163.293 57.6509 163.228 57.6006 163.176 57.5381C163.124 57.4754 163.088 57.4018 163.069 57.3229C163.051 57.2439 163.05 57.1618 163.068 57.0827C163.357 55.4756 163.357 53.83 163.068 52.2229C161.868 48.4778 159.744 45.949 156.744 44.7685C150.744 42.4196 141.588 46.1288 139.344 47.2493L124.59 79.9972C125.25 82.9933 127.548 86.3011 130.38 87.6373L136.5 88.2366C136.571 88.2432 136.641 88.2642 136.704 88.2982C136.767 88.3322 136.823 88.3785 136.867 88.4344C136.912 88.4903 136.945 88.5547 136.965 88.6237C136.984 88.6926 136.989 88.7648 136.98 88.8358C136.98 88.9077 135.93 96.0925 140.076 98.6811C144.468 102.139 151.362 105.369 159.276 101.078C171.546 94.4386 167.01 84.1139 166.806 83.7004C166.775 83.6332 166.758 83.5602 166.757 83.4862C166.756 83.4122 166.77 83.3388 166.799 83.2706C166.828 83.2024 166.871 83.1409 166.924 83.0901C166.978 83.0393 167.042 83.0002 167.112 82.9753L167.154 82.9933Z" fill="#337A15"/>
<path d="M100.626 140.723C100.626 140.723 95.082 138.775 95.646 136.636C96.21 134.497 100.488 136.995 104.046 135.21C107.604 133.424 109.95 127.198 113.604 124.963C113.604 124.963 115.116 123.986 117.612 124.963C117.612 124.963 114.612 128.978 113.604 132.627C112.596 136.276 107.904 143.743 100.626 140.723Z" fill="#3B8E19"/>
<path d="M73.632 105.68C73.632 105.68 78.714 110.384 81.21 105.68C83.706 100.976 70.44 86.361 66.21 89.3931C66.21 89.3931 71.238 91.071 72.45 98.3816L73.632 105.68Z" fill="#3B8E19"/>
<path d="M69.282 138.392C69.3214 137.243 69.709 136.132 70.3935 135.208C71.0781 134.284 72.0274 133.588 73.116 133.214C73.6588 133.042 74.2266 132.961 74.796 132.975C77.994 133.065 84.684 132.711 82.77 135.917C80.856 139.123 75.6 146.343 76.272 153.037L76.932 159.73L71.586 159.437C71.586 159.437 68.28 157.477 69.282 138.392Z" fill="#DCFC90"/>
<path d="M43.368 79.6436C43.368 79.6436 37.296 84.3475 30.516 83.2389C30.516 83.2389 34.638 89.2312 29.184 92.4431C29.184 92.4431 38.724 90.3038 43.368 92.4431C43.368 92.4191 40.452 84.5033 43.368 79.6436Z" fill="#236309"/>
<path d="M142.524 88.9853C142.524 88.9853 147.6 85.6476 152.4 87.4273C157.2 89.207 160.092 93.4915 160.092 93.4915C160.092 93.4915 152.922 90.6391 152.4 92.4188C151.878 94.1986 141.36 93.3836 142.524 88.9853Z" fill="#236309"/>
<path d="M31.158 31.1299C31.158 31.1299 39.438 31.3576 43.368 25.8746C47.298 20.3917 53.568 21.68 53.568 21.68L56.172 35.0548C52.0409 34.25 47.793 34.25 43.662 35.0548C37.116 36.439 31.158 31.1299 31.158 31.1299Z" fill="#236309"/>
<path d="M139.656 73.4775C142.867 69.8565 144.605 65.1662 144.527 60.3299C144.449 55.4935 142.562 50.8613 139.236 47.3451C139.197 47.3141 139.163 47.2778 139.134 47.2373C136.045 44.0206 131.936 41.971 127.506 41.4367C127.436 41.4279 127.369 41.4053 127.308 41.3704C127.247 41.3354 127.193 41.2887 127.15 41.2331C127.107 41.1774 127.076 41.1138 127.058 41.0459C127.039 40.978 127.035 40.9072 127.044 40.8375C127.606 37.7463 127.402 34.5646 126.45 31.5702C125.498 28.5759 123.826 25.8599 121.58 23.6593C119.335 21.4588 116.584 19.8407 113.569 18.9463C110.553 18.0519 107.364 17.9084 104.28 18.5282C104.201 18.5431 104.119 18.54 104.041 18.5193C103.964 18.4985 103.891 18.4606 103.83 18.4084C102.417 17.1908 100.837 16.1818 99.138 15.4123C95.8454 13.9343 92.204 13.4074 88.6269 13.8915C85.0498 14.3755 81.68 15.851 78.9 18.1507C78.8151 18.2162 78.7125 18.2546 78.6055 18.261C78.4985 18.2674 78.392 18.2415 78.3 18.1867C75.2881 16.2546 71.7991 15.1936 68.2202 15.1215C64.6412 15.0494 61.1123 15.969 58.0248 17.7782C54.9374 19.5875 52.4122 22.2156 50.7295 25.3711C49.0467 28.5265 48.2723 32.0859 48.492 35.6542C48.522 36.1695 48.594 36.6729 48.66 37.1762C48.68 37.3091 48.6492 37.4446 48.5735 37.5557C48.4979 37.6668 48.383 37.7453 48.252 37.7755C43.8938 38.8014 40.0262 41.3036 37.3072 44.8565C34.5882 48.4094 33.1858 52.7934 33.3386 57.2626C33.4913 61.7318 35.1899 66.0101 38.1452 69.3695C41.1004 72.729 45.1299 74.962 49.548 75.6886C49.59 75.6886 54.672 76.4557 57.804 75.2812H57.84C60.3383 74.5962 62.6715 73.4118 64.698 71.7997C64.7566 71.7543 64.824 71.7217 64.896 71.7038C64.9672 71.6891 65.0407 71.6891 65.112 71.7038H65.172C65.2071 71.7122 65.2413 71.7242 65.274 71.7397C65.334 71.7757 69.714 74.2685 80.814 70.9487H80.898C80.898 70.9487 80.946 70.9487 80.976 70.9487H82.494C85.9827 70.7328 89.3478 69.5773 92.232 67.6051C92.3205 67.545 92.425 67.5129 92.532 67.5129C92.639 67.5129 92.7435 67.545 92.832 67.6051C93.6494 68.223 94.514 68.776 95.418 69.2589C95.4628 69.2868 95.5032 69.3211 95.538 69.3608L95.58 69.4027C95.6234 69.4617 95.654 69.529 95.67 69.6005C95.76 69.966 97.506 76.2939 110.82 74.1007H110.88H110.94C110.984 74.0949 111.028 74.0949 111.072 74.1007L111.138 74.1307C111.179 74.1514 111.218 74.1776 111.252 74.2085C114.68 77.703 119.307 79.7712 124.2 79.9971C124.264 79.9868 124.328 79.9868 124.392 79.9971C125.042 80.0308 125.692 80.0308 126.342 79.9971C128.882 79.8429 131.367 79.1873 133.652 78.0682C135.938 76.9492 137.978 75.3889 139.656 73.4775Z" fill="#3B8E19"/>
<path d="M53.436 69.8999C53.436 69.8999 59.658 70.6789 58.722 60.3123C58.722 60.3123 73.122 65.3039 77.418 57.46C77.418 57.46 80.454 64.5908 88.932 62.098C88.932 62.098 85.056 68.8573 75.882 66.5503C75.882 66.5503 73.146 70.3134 65.964 66.778C65.964 66.8139 56.94 76.2518 53.436 69.8999Z" fill="#33820F"/>
<path d="M121.836 39.9386C121.054 39.2034 120.05 38.7485 118.981 38.6454C117.913 38.5424 116.84 38.797 115.932 39.3693C114.722 40.0718 113.388 40.5337 112.002 40.7296C107.928 41.3872 103.776 41.3872 99.702 40.7296C99.702 40.7296 103.566 46.2425 106.374 46.8717C108.223 46.0518 110.224 45.6282 112.248 45.6282C114.271 45.6282 116.272 46.0518 118.122 46.8717C124.536 49.6521 124.356 57.496 124.356 57.496C124.356 57.496 124.356 42.8569 127.494 41.4427C127.506 41.4307 123.918 42.0599 121.836 39.9386Z" fill="#33820F"/>
</g>
<defs>
<clipPath id="clip0_152_845">
<rect width="174" height="160" fill="white"/>
</clipPath>
</defs>
</svg>
