<svg width="160" height="160" viewBox="0 0 160 160" fill="none" xmlns="http://www.w3.org/2000/svg">
<path d="M150 88.5103C150 122.567 118.667 156.667 80 156.667C41.3333 156.667 10 122.567 10 88.5103C10 54.4537 41.3333 36.667 80 36.667C118.667 36.667 150 54.4503 150 88.5103Z" fill="#FF1F1F"/>
<path d="M87.8001 30.0002C88.463 31.1562 89.1978 32.2695 90.0001 33.3335C90.0032 34.2098 89.8328 35.0781 89.4989 35.8884C89.165 36.6986 88.674 37.4347 88.0543 38.0544C87.4347 38.6741 86.6985 39.165 85.8883 39.499C85.0781 39.8329 84.2098 40.0032 83.3334 40.0002H79.6001C78.3698 40.0122 77.161 39.6779 76.1118 39.0354C75.0625 38.3929 74.2152 37.4681 73.6668 36.3668C72.6612 34.2376 71.9008 32.001 71.4001 29.7002C69.0334 19.5335 69.3001 5.40016 74.4668 3.3335H86.1334C84.2058 7.5749 83.3496 12.2249 83.6402 16.8747C83.9309 21.5246 85.3593 26.0318 87.8001 30.0002Z" fill="#00AC0D"/>
<path d="M93.3333 30.0002C99.3667 29.8335 109.833 31.7669 113.333 36.6669C119.767 45.6669 132.4 40.4002 133.3 40.0335C126.633 52.4335 100 46.6669 100 46.6669C103.333 62.2335 96.6667 70.0002 96.6667 70.0002C86.6667 70.0002 76.6667 50.0002 76.6667 50.0002C70 53.1002 60 70.0002 60 70.0002C46.6667 60.6669 53.3333 50.0002 53.3333 50.0002C48.6081 50.0623 43.9523 48.8586 39.8493 46.514C35.7462 44.1694 32.3455 40.7694 30 36.6669C46.6667 36.6669 43.3333 36.9002 53.3333 33.3335C58.5901 31.0544 64.271 29.9182 70 30.0002L71.4 29.7002C71.9007 32.0011 72.6611 34.2376 73.6667 36.3669C74.2152 37.4682 75.0624 38.3929 76.1117 39.0354C77.1609 39.6779 78.3697 40.0123 79.6 40.0002H83.3333C84.2097 40.0033 85.078 39.8329 85.8882 39.499C86.6984 39.1651 87.4346 38.6741 88.0543 38.0544C88.6739 37.4348 89.1649 36.6986 89.4988 35.8884C89.8328 35.0782 90.0031 34.2099 90 33.3335C89.1977 32.2695 88.4629 31.1562 87.8 30.0002H93.3333Z" fill="#007700"/>
<path d="M150 88.5103C150 122.567 118.667 156.667 80 156.667C41.3333 156.667 10 122.567 10 88.5103C10 54.4537 41.3333 36.667 80 36.667C118.667 36.667 150 54.4503 150 88.5103Z" fill="#FF1F1F"/>
<path d="M23.3334 71.8433C23.2808 65.0161 24.7306 58.261 27.58 52.0566C21.9941 56.3264 17.4918 61.8514 14.4377 68.1843C11.3835 74.5173 9.86331 81.4804 10 88.51C10 122.567 41.3334 156.667 80 156.667C92.3893 156.418 104.503 152.967 115.164 146.65C125.825 140.333 134.669 131.364 140.837 120.617C128.045 132.885 111.057 139.817 93.3334 140C54.6667 140 23.3334 105.9 23.3334 71.8433Z" fill="#CB0303"/>
<path d="M87.8001 30.0002C88.463 31.1562 89.1978 32.2695 90.0001 33.3335C90.0032 34.2098 89.8328 35.0781 89.4989 35.8884C89.165 36.6986 88.674 37.4347 88.0543 38.0544C87.4347 38.6741 86.6985 39.165 85.8883 39.499C85.0781 39.8329 84.2098 40.0032 83.3334 40.0002H79.6001C78.3698 40.0122 77.161 39.6779 76.1118 39.0354C75.0625 38.3929 74.2152 37.4681 73.6668 36.3668C72.6612 34.2376 71.9008 32.001 71.4001 29.7002C69.0334 19.5335 69.3001 5.40016 74.4668 3.3335H86.1334C84.2058 7.5749 83.3496 12.2249 83.6402 16.8747C83.9309 21.5246 85.3593 26.0318 87.8001 30.0002Z" fill="#008906"/>
<path d="M93.3333 30.0002C99.3667 29.8335 109.833 31.7669 113.333 36.6669C119.767 45.6669 132.4 40.4002 133.3 40.0335C126.633 52.4335 100 46.6669 100 46.6669C103.333 62.2335 96.6667 70.0002 96.6667 70.0002C86.6667 70.0002 76.6667 50.0002 76.6667 50.0002C70 53.1002 60 70.0002 60 70.0002C46.6667 60.6669 53.3333 50.0002 53.3333 50.0002C48.6081 50.0623 43.9523 48.8586 39.8493 46.514C35.7462 44.1694 32.3455 40.7694 30 36.6669C46.6667 36.6669 43.3333 36.9002 53.3333 33.3335C58.5901 31.0544 64.271 29.9182 70 30.0002L71.4 29.7002C71.9007 32.0011 72.6611 34.2376 73.6667 36.3669C74.2152 37.4682 75.0624 38.3929 76.1117 39.0354C77.1609 39.6779 78.3697 40.0123 79.6 40.0002H83.3333C84.2097 40.0033 85.078 39.8329 85.8882 39.499C86.6984 39.1651 87.4346 38.6741 88.0543 38.0544C88.6739 37.4348 89.1649 36.6986 89.4988 35.8884C89.8328 35.0782 90.0031 34.2099 90 33.3335C89.1977 32.2695 88.4629 31.1562 87.8 30.0002H93.3333Z" fill="#007700"/>
<path d="M60.0001 76.667C60.0001 76.667 68.5101 59.767 76.0401 56.667C76.0401 56.667 87.3334 76.667 98.6268 76.667C101.225 72.795 102.986 68.4228 103.796 63.8308C104.607 59.2387 104.449 54.5279 103.333 50.0003C103.333 50.0003 121.03 55.4937 132.403 52.0437C130.741 50.7338 129.006 49.5185 127.207 48.4037C125.541 48.2206 123.914 47.7845 122.38 47.1103C114.955 48.3277 107.371 48.1774 100 46.667C103.333 62.2337 96.6668 70.0003 96.6668 70.0003C86.6668 70.0003 76.6668 50.0003 76.6668 50.0003C70.0001 53.1003 60.0001 70.0003 60.0001 70.0003C46.6668 60.667 53.3334 50.0003 53.3334 50.0003C47.9198 50.0737 42.6145 48.4806 38.1368 45.437C35.4703 46.7244 32.9003 48.2027 30.4468 49.8603C35.4847 52.3367 41.0565 53.5299 46.6668 53.3337C46.6668 53.3337 44.9401 67.3337 60.0001 76.667Z" fill="#AA1313"/>
<path d="M103.333 50.0002C104.137 53.3141 104.434 56.7307 104.213 60.1336C123.703 68.1836 136.667 83.3036 136.667 105.177C136.605 112.826 135.106 120.395 132.247 127.49C135.274 125.412 138.145 123.115 140.837 120.617C140.097 121.877 139.319 123.117 138.503 124.337L138.643 124.137L139.113 123.42C139.577 122.707 140.023 121.99 140.447 121.264C140.61 120.99 140.78 120.717 140.933 120.44C141.343 119.74 141.737 119.037 142.12 118.324C142.283 118.02 142.453 117.717 142.607 117.41C142.962 116.719 143.309 116.022 143.647 115.32C143.803 114.987 143.98 114.654 144.117 114.32C144.43 113.654 144.723 112.954 145.013 112.267C145.167 111.907 145.32 111.547 145.463 111.184C145.73 110.517 145.98 109.85 146.227 109.167C146.367 108.784 146.51 108.4 146.64 108.014C146.87 107.347 147.077 106.68 147.283 106.014C147.403 105.614 147.533 105.217 147.647 104.814C147.837 104.147 148.003 103.48 148.17 102.814C148.273 102.4 148.387 101.987 148.48 101.57C148.633 100.904 148.76 100.237 148.89 99.5702C148.97 99.1536 149.063 98.7369 149.133 98.3169C149.253 97.6502 149.343 96.9469 149.437 96.2636C149.493 95.8569 149.56 95.4536 149.607 95.0502C149.693 94.3102 149.75 93.5702 149.807 92.8269C149.833 92.4769 149.873 92.1236 149.897 91.7736C149.961 90.6802 149.993 89.588 149.993 88.4969C150.118 80.3869 148.071 72.3913 144.063 65.3395C140.056 58.2878 134.235 52.4367 127.203 48.3936C129.001 49.5073 130.735 50.7214 132.397 52.0302C121.03 55.4936 103.333 50.0002 103.333 50.0002Z" fill="#FF5D03"/>
<path d="M132.403 52.0436C130.742 50.7348 129.008 49.5207 127.21 48.4069C126.21 47.7969 125.263 47.1703 124.23 46.6069C123.623 46.7903 123.017 46.9736 122.383 47.1136C121.683 47.2669 120.973 47.3936 120.257 47.5036C119.87 47.5636 119.487 47.6136 119.097 47.6603C118.707 47.7069 118.223 47.7603 117.787 47.7969C117.4 47.8336 117.017 47.8703 116.63 47.8969C115.937 47.9403 115.25 47.9669 114.563 47.9836C114.14 47.9836 113.727 47.9836 113.31 47.9836C112.893 47.9836 112.55 47.9836 112.173 47.9836C111.797 47.9836 111.367 47.9836 110.967 47.9536C110.337 47.9303 109.717 47.8969 109.113 47.8569L107.97 47.7703L107 47.6669L105.973 47.5636C105.517 47.5136 105.08 47.4603 104.663 47.4069C104.307 47.3636 103.997 47.3203 103.663 47.2736L102.87 47.1569L102.223 47.0569L101.36 46.9103L100.88 46.8236L100.393 46.7303L100.207 46.6969L100 46.6669C100.898 50.6341 101.142 54.7211 100.723 58.7669C101.913 59.1936 103.057 59.6603 104.213 60.1336C104.434 56.7308 104.137 53.3141 103.333 50.0003C103.333 50.0003 121.03 55.4936 132.403 52.0436Z" fill="#CB0303"/>
<path d="M120.87 41.5503C121.237 41.627 121.6 41.687 121.967 41.737C121.6 41.687 121.233 41.627 120.87 41.5503Z" fill="#00AC0D"/>
<path d="M129.8 41.1666C130.07 41.0966 130.333 41.03 130.58 40.96C130.333 41.03 130.07 41.1 129.8 41.1666Z" fill="#00AC0D"/>
<path d="M128.377 41.4837C128.763 41.407 129.137 41.327 129.493 41.2437C129.137 41.3337 128.763 41.407 128.377 41.4837Z" fill="#00AC0D"/>
<path d="M117.85 40.5137C118.183 40.667 118.483 40.8137 118.807 40.937C118.487 40.8137 118.167 40.667 117.85 40.5137Z" fill="#00AC0D"/>
<path d="M89.89 34.4302C89.9606 34.0688 89.9974 33.7017 90 33.3335C89.9939 33.7015 89.9571 34.0683 89.89 34.4302Z" fill="#00AC0D"/>
<path d="M100.087 47.147C100.053 46.9837 100.037 46.8137 100 46.667C100.037 46.8337 100.043 46.977 100.077 47.1437L100.087 47.147Z" fill="#00AC0D"/>
<path d="M116.397 39.667C116.697 39.8737 117 40.0737 117.31 40.247C117 40.067 116.697 39.867 116.397 39.667Z" fill="#00AC0D"/>
<path d="M119.35 41.1333C119.683 41.2466 120.017 41.3466 120.35 41.43C120.023 41.3333 119.687 41.2466 119.35 41.1333Z" fill="#00AC0D"/>
<path d="M125.363 41.8633C124.89 41.8899 124.403 41.8999 123.913 41.8899C124.407 41.8999 124.89 41.8899 125.363 41.8633Z" fill="#00AC0D"/>
<path d="M118.807 40.937C118.987 41.007 119.17 41.0703 119.35 41.1337C119.17 41.0703 119 41.0003 118.807 40.937Z" fill="#00CE23"/>
<path d="M89.6667 35.3602C89.7667 35.0562 89.8447 34.7454 89.9001 34.4302C89.8412 34.7446 89.7633 35.0552 89.6667 35.3602Z" fill="#00CE23"/>
<path d="M120.363 41.4302C120.533 41.4735 120.697 41.5135 120.87 41.5502C120.7 41.5135 120.533 41.4735 120.363 41.4302Z" fill="#00CE23"/>
<path d="M115.883 39.3066C116.05 39.4366 116.217 39.5433 116.397 39.66C116.223 39.5433 116.05 39.4366 115.883 39.3066Z" fill="#00CE23"/>
<path d="M132.667 40.2803L132.203 40.4469C132.377 40.3869 132.537 40.3336 132.667 40.2803Z" fill="#00CE23"/>
<path d="M123.913 41.8902C123.813 41.8902 123.71 41.8902 123.61 41.8902C123.71 41.8802 123.813 41.8902 123.913 41.8902Z" fill="#00CE23"/>
<path d="M132.667 40.2801C132.53 40.3334 132.377 40.3868 132.203 40.4468L131.92 40.5468L131.493 40.6868L130.957 40.8501L130.58 40.9601C130.333 41.0301 130.07 41.0968 129.8 41.1668L129.493 41.2434C129.137 41.3268 128.763 41.4068 128.377 41.4834L128.267 41.5034C127.319 41.6851 126.36 41.8054 125.397 41.8634H125.363C124.89 41.8901 124.407 41.9001 123.913 41.8901C123.813 41.8901 123.71 41.8901 123.61 41.8901C123.207 41.8901 122.803 41.8501 122.397 41.8068C122.253 41.8068 122.11 41.7701 121.967 41.7501C121.6 41.7001 121.237 41.6401 120.87 41.5634C120.7 41.5268 120.537 41.4868 120.363 41.4434C120.03 41.3601 119.697 41.2601 119.363 41.1468C119.183 41.0834 119 41.0201 118.82 40.9501C118.487 40.8268 118.18 40.6801 117.863 40.5268C117.683 40.4368 117.503 40.3501 117.323 40.2534C117.013 40.0801 116.71 39.8801 116.41 39.6734C116.237 39.5568 116.077 39.4501 115.897 39.3201C115.583 39.0801 115.283 38.8034 114.983 38.5234C114.847 38.3901 114.7 38.2768 114.567 38.1401C114.12 37.6802 113.708 37.1877 113.333 36.6668C109.833 31.7668 99.3667 29.8334 93.3334 30.0001H87.8C88.463 31.1561 89.1977 32.2694 90 33.3334C89.9974 33.7016 89.9606 34.0687 89.89 34.4301C89.8347 34.7453 89.7567 35.0561 89.6567 35.3601C96.5434 39.6668 114.357 48.5801 132.667 40.2801Z" fill="#00CE23"/>
<path d="M89.2867 36.2901L89.2467 36.2534C88.8522 37.0776 88.2895 37.81 87.5948 38.4036C86.9002 38.9972 86.089 39.4389 85.2134 39.7001C86.092 39.4458 86.9079 39.0113 87.6093 38.4242C88.3106 37.8371 88.8819 37.1103 89.2867 36.2901Z" fill="#00AC0D"/>
<path d="M97.1 69.4133C98.49 67.4133 102.677 59.9833 100.077 47.1433C95.5685 46.2511 91.1235 45.0652 86.77 43.5933L97.1 69.4133Z" fill="#00CE23"/>
<path d="M132.667 40.2804C114.357 48.5804 96.5434 39.6504 89.6668 35.3604C89.5663 35.679 89.4426 35.9898 89.2968 36.2904C88.7313 37.3903 87.8781 38.3163 86.8279 38.9696C85.7778 39.623 84.57 39.9792 83.3334 40.0004H79.6001C78.5065 39.988 77.4324 39.71 76.4701 39.1904C79.7781 40.9354 83.2229 42.4081 86.7701 43.5937C91.1236 45.0656 95.5686 46.2515 100.077 47.1437C100.043 46.977 100.037 46.8337 100 46.667C100 46.667 126.633 52.4337 133.3 40.0337L132.667 40.2804Z" fill="#00AC0D"/>
<path d="M70.7167 35.44C72.373 36.7398 74.1308 37.9046 75.9733 38.9234C74.9831 38.3005 74.1847 37.4156 73.6667 36.3667C73.3333 35.73 73.07 34.9634 72.7867 34.2134C72.17 34.6234 71.4633 35.0334 70.7167 35.44Z" fill="#00AC0D"/>
<path d="M71.4 29.7002C71.6267 30.6669 71.89 31.5602 72.1667 32.4202C71.8967 31.5435 71.6267 30.6669 71.4 29.7002Z" fill="#00AC0D"/>
<path d="M72.1667 32.4199C72.3634 33.0533 72.5701 33.6366 72.7868 34.2133C72.5701 33.6399 72.3667 33.0366 72.1667 32.4199Z" fill="#008906"/>
<path d="M70.7167 35.4402C71.4634 35.0335 72.1701 34.6235 72.7867 34.2135C72.5701 33.6369 72.3634 33.0535 72.1667 32.4202C71.8901 31.5602 71.6267 30.6669 71.4001 29.7002L70.0001 30.0002C68.4601 30.0002 67.0334 30.0969 65.6667 30.2302C67.0656 32.2216 68.7699 33.9799 70.7167 35.4402Z" fill="#00AC0D"/>
<path d="M79.6001 40C78.6923 40.0025 77.7937 39.8196 76.9591 39.4625C76.1246 39.1054 75.3717 38.5817 74.7467 37.9233C69.4819 41.2302 65.2969 46.0019 62.7052 51.6532C60.1134 57.3044 59.2277 63.5893 60.1568 69.7367C61.4101 67.6667 70.4734 52.88 76.6667 50L80.0001 40H79.6001Z" fill="#008906"/>
<path d="M75.9734 38.9236C74.8934 38.3236 73.8867 37.7036 72.9334 37.0669L63.02 46.9802C62.6615 47.3383 62.3893 47.7734 62.2241 48.2524C62.059 48.7314 62.0052 49.2418 62.0669 49.7448C62.1286 50.2477 62.3042 50.7299 62.5802 51.1548C62.8563 51.5797 63.2256 51.9361 63.66 52.1969L66.2867 53.7736C66.8837 54.1321 67.5779 54.2947 68.272 54.2385C68.9661 54.1823 69.6252 53.9102 70.1567 53.4602L83.35 42.2936C80.9979 41.3946 78.7006 40.3584 76.47 39.1902C76.3034 39.1002 76.1334 39.0269 75.9734 38.9236Z" fill="#025602"/>
<path d="M83.3334 40H79.6001C79.0459 39.9988 78.4944 39.9236 77.9601 39.7767C77.4418 39.6415 76.9415 39.4445 76.4701 39.19C78.7007 40.3582 80.998 41.3945 83.3501 42.2934L90.0001 36.6667L89.1934 36.4634C88.6316 37.5308 87.7887 38.4245 86.756 39.0478C85.7232 39.6711 84.5397 40.0004 83.3334 40Z" fill="#016601"/>
<path d="M75.9734 38.9233C75.4881 38.6161 75.0463 38.245 74.6601 37.8199C74.257 37.3874 73.92 36.8977 73.6601 36.3666V36.3433L72.9368 37.0666C73.8901 37.7033 74.8934 38.3233 75.9734 38.9233Z" fill="#016601"/>
<path d="M90 33.3335C89.1977 32.2695 88.4629 31.1562 87.8 30.0002C85.3593 26.0318 83.9308 21.5246 83.6402 16.8747C83.3495 12.2249 84.2057 7.5749 86.1333 3.3335H74.4667C74.1038 3.48682 73.7666 3.69479 73.4667 3.95016C74.4367 20.5068 81.4567 33.3335 90 33.3335Z" fill="#00CE23"/>
<path d="M128.742 72.1344C130.89 69.9865 130.207 65.8213 127.217 62.8312C124.227 59.8411 120.062 59.1583 117.914 61.3062C115.766 63.4541 116.449 67.6193 119.439 70.6094C122.429 73.5995 126.594 74.2823 128.742 72.1344Z" fill="#F6FAFD"/>
<path d="M139.367 72.7626C140.441 71.6887 140.1 69.6066 138.605 68.1122C137.111 66.6178 135.029 66.2769 133.955 67.3509C132.881 68.4248 133.222 70.5069 134.716 72.0013C136.211 73.4957 138.293 73.8365 139.367 72.7626Z" fill="#F6FAFD"/>
<path d="M106.04 42.746C107.114 41.672 106.773 39.59 105.279 38.0956C103.784 36.6012 101.702 36.2603 100.628 37.3343C99.5543 38.4082 99.8952 40.4903 101.39 41.9847C102.884 43.4791 104.966 43.8199 106.04 42.746Z" fill="#B3FFD2"/>
<path d="M127.163 79.7402C127.701 79.2026 127.531 78.161 126.784 77.4138C126.036 76.6666 124.995 76.4967 124.457 77.0344C123.92 77.572 124.089 78.6135 124.837 79.3607C125.584 80.1079 126.625 80.2778 127.163 79.7402Z" fill="#F6FAFD"/>
<path d="M97.1731 36.3901C97.7107 35.8525 97.5408 34.8109 96.7936 34.0637C96.0464 33.3165 95.0048 33.1466 94.4672 33.6843C93.9296 34.2219 94.0995 35.2634 94.8467 36.0106C95.5939 36.7578 96.6355 36.9277 97.1731 36.3901Z" fill="#B3FFD2"/>
<path d="M58.7055 145.451C60.8534 143.303 60.1707 139.138 57.1805 136.148C54.1904 133.158 50.0253 132.475 47.8774 134.623C45.7295 136.771 46.4122 140.936 49.4024 143.926C52.3925 146.916 56.5576 147.599 58.7055 145.451Z" fill="#AA1313"/>
<path d="M42.6666 132.74C43.7405 131.666 43.3997 129.584 41.9052 128.089C40.4108 126.595 38.3288 126.254 37.2548 127.328C36.1809 128.402 36.5218 130.484 38.0162 131.978C39.5106 133.473 41.5926 133.814 42.6666 132.74Z" fill="#AA1313"/>
<path d="M47.1331 129.72C47.6707 129.183 47.5008 128.141 46.7536 127.394C46.0064 126.647 44.9648 126.477 44.4272 127.014C43.8896 127.552 44.0595 128.594 44.8067 129.341C45.5539 130.088 46.5954 130.258 47.1331 129.72Z" fill="#AA1313"/>
</svg>
