<svg width="80" height="80" viewBox="0 0 80 80" fill="none" xmlns="http://www.w3.org/2000/svg">
<path d="M15.25 19.75H23.125C23.7217 19.75 24.294 19.9871 24.716 20.409C25.1379 20.831 25.375 21.4033 25.375 22V38.875H13V22C13 21.4033 13.2371 20.831 13.659 20.409C14.081 19.9871 14.6533 19.75 15.25 19.75Z" fill="#93C581"/>
<path d="M17.5 69.25V73.75H24.25C24.8467 73.75 25.419 73.5129 25.841 73.091C26.2629 72.669 26.5 72.0967 26.5 71.5C26.5 70.9033 26.2629 70.331 25.841 69.909C25.419 69.4871 24.8467 69.25 24.25 69.25H17.5Z" fill="#B3B3B3"/>
<path d="M35.5 69.25V73.75H42.25C42.8467 73.75 43.419 73.5129 43.841 73.091C44.2629 72.669 44.5 72.0967 44.5 71.5C44.5 70.9033 44.2629 70.331 43.841 69.909C43.419 69.4871 42.8467 69.25 42.25 69.25H35.5Z" fill="#A0A0A0"/>
<path d="M36.625 50.125L25.375 44.5V38.875H13V40.9371C13.0003 43.5614 13.8777 46.1103 15.4926 48.1788C17.1076 50.2473 19.3676 51.7167 21.9134 52.3536L31 54.625L35.5 69.25H41.125L36.625 50.125Z" fill="#B3B3B3"/>
<path d="M13 22C12.9997 21.7045 13.0578 21.4118 13.1709 21.1388C13.2841 20.8659 13.45 20.6179 13.6593 20.4093L11.875 18.625H6.25V41.125H13.0068C13.0068 41.062 13 41.0001 13 40.9371V22ZM21.9134 52.3536C20.3051 51.9476 18.801 51.2057 17.5 50.1768V69.25H23.125L25.4133 53.2289L21.9134 52.3536Z" fill="#A0A0A0"/>
<path d="M22.3106 25.4063L28.8986 28.7498H36.624C37.2207 28.7498 37.793 28.9869 38.215 29.4089C38.637 29.8308 38.874 30.4031 38.874 30.9998C38.874 31.5966 38.637 32.1689 38.215 32.5908C37.793 33.0128 37.2207 33.2498 36.624 33.2498H25.5743L19.9076 29.9637C19.3407 29.6294 18.9212 29.093 18.7334 28.4622C18.5456 27.8313 18.6034 27.1528 18.8951 26.5628C19.0414 26.2608 19.2464 25.9909 19.498 25.7689C19.7496 25.5468 20.0428 25.377 20.3607 25.2694C20.6786 25.1618 21.0147 25.1184 21.3494 25.142C21.6842 25.1655 22.0109 25.2553 22.3106 25.4063Z" fill="#78B761"/>
<path d="M18.625 17.5C21.7316 17.5 24.25 14.9816 24.25 11.875C24.25 8.7684 21.7316 6.25 18.625 6.25C15.5184 6.25 13 8.7684 13 11.875C13 14.9816 15.5184 17.5 18.625 17.5Z" fill="#FADAA5"/>
<path d="M53.5 62.5C54.7426 62.5 55.75 61.4926 55.75 60.25C55.75 59.0074 54.7426 58 53.5 58C52.2574 58 51.25 59.0074 51.25 60.25C51.25 61.4926 52.2574 62.5 53.5 62.5Z" fill="#C18E5C"/>
<path d="M53.5 71.5C55.364 71.5 56.875 69.4853 56.875 67C56.875 64.5147 55.364 62.5 53.5 62.5C51.636 62.5 50.125 64.5147 50.125 67C50.125 69.4853 51.636 71.5 53.5 71.5Z" fill="#C18E5C"/>
<path d="M68.125 62.5C69.3676 62.5 70.375 61.4926 70.375 60.25C70.375 59.0074 69.3676 58 68.125 58C66.8824 58 65.875 59.0074 65.875 60.25C65.875 61.4926 66.8824 62.5 68.125 62.5Z" fill="#C18E5C"/>
<path d="M68.125 71.5C69.989 71.5 71.5 69.4853 71.5 67C71.5 64.5147 69.989 62.5 68.125 62.5C66.261 62.5 64.75 64.5147 64.75 67C64.75 69.4853 66.261 71.5 68.125 71.5Z" fill="#C18E5C"/>
<path d="M42.25 68.125H42.016L37.7208 49.8674C37.683 49.7066 37.6103 49.5562 37.5078 49.4267C37.4053 49.2972 37.2756 49.1919 37.1279 49.1181L26.5 43.8048V34.375H36.625C37.2776 34.3739 37.9159 34.1837 38.4626 33.8272C39.0093 33.4708 39.4409 32.9636 39.7052 32.3669L60.25 37.5036V39.0786C59.5937 39.3107 59.0252 39.74 58.6224 40.3077C58.2196 40.8755 58.0022 41.5539 58 42.25V44.5C58 44.7984 58.1185 45.0845 58.3295 45.2955C58.5405 45.5065 58.8266 45.625 59.125 45.625H63.625C63.9234 45.625 64.2095 45.5065 64.4205 45.2955C64.6315 45.0845 64.75 44.7984 64.75 44.5V42.25C64.7471 41.5545 64.5294 40.8768 64.1267 40.3097C63.7239 39.7426 63.1558 39.3138 62.5 39.082V36.625C62.4999 36.3741 62.416 36.1303 62.2614 35.9326C62.1069 35.7349 61.8907 35.5945 61.6473 35.5338L39.8582 30.0865C39.6608 29.3801 39.2382 28.7575 38.6546 28.3133C38.0711 27.869 37.3584 27.6273 36.625 27.625H29.1696L26.5 26.275V23.125C26.5 21.9315 26.0259 20.7869 25.182 19.943C24.3381 19.0991 23.1935 18.625 22 18.625H16.375C15.5742 18.6289 14.7894 18.8493 14.1036 19.2629L12.6704 17.8296C12.4594 17.6186 12.1733 17.5001 11.875 17.5H6.25C5.95163 17.5 5.66548 17.6185 5.4545 17.8295C5.24353 18.0405 5.125 18.3266 5.125 18.625V41.125C5.125 41.4234 5.24353 41.7095 5.4545 41.9205C5.66548 42.1315 5.95163 42.25 6.25 42.25H11.9493C12.2815 45.5384 13.8662 48.5729 16.375 50.7246V73.75C16.375 74.0484 16.4935 74.3345 16.7045 74.5455C16.9155 74.7565 17.2016 74.875 17.5 74.875H24.25C25.1321 74.8804 25.9812 74.5395 26.6147 73.9255C27.2481 73.3116 27.6155 72.4736 27.6377 71.5918C27.66 70.7099 27.3354 69.8545 26.7336 69.2094C26.1319 68.5643 25.3012 68.181 24.4199 68.1419L26.3515 54.625L30.1112 55.5655L34.375 69.4199V73.75C34.375 74.0484 34.4935 74.3345 34.7045 74.5455C34.9155 74.7565 35.2016 74.875 35.5 74.875H42.25C43.1451 74.875 44.0035 74.5194 44.6365 73.8865C45.2694 73.2536 45.625 72.3951 45.625 71.5C45.625 70.6049 45.2694 69.7465 44.6365 69.1135C44.0035 68.4806 43.1451 68.125 42.25 68.125ZM62.5 43.375H60.25V42.25C60.25 41.9516 60.3685 41.6655 60.5795 41.4545C60.7905 41.2435 61.0766 41.125 61.375 41.125C61.6734 41.125 61.9595 41.2435 62.1705 41.4545C62.3815 41.6655 62.5 41.9516 62.5 42.25V43.375ZM28.9008 29.875H36.625C36.9234 29.875 37.2095 29.9935 37.4205 30.2045C37.6315 30.4155 37.75 30.7016 37.75 31C37.75 31.2984 37.6315 31.5845 37.4205 31.7955C37.2095 32.0065 36.9234 32.125 36.625 32.125H25.8779L20.4779 28.9896C20.1568 28.7994 19.9197 28.4947 19.8141 28.1368C19.7085 27.7789 19.7423 27.3943 19.9086 27.0603C19.9911 26.8894 20.107 26.7368 20.2494 26.6114C20.3918 26.486 20.5578 26.3904 20.7378 26.3301C20.9123 26.2711 21.0969 26.2477 21.2807 26.2612C21.4644 26.2747 21.6436 26.325 21.8076 26.4089L28.3968 29.7535C28.553 29.8327 28.7256 29.8743 28.9008 29.875ZM22 20.875C22.5967 20.875 23.169 21.1121 23.591 21.534C24.0129 21.956 24.25 22.5283 24.25 23.125V25.1286L22.8201 24.403C22.3911 24.1832 21.9224 24.0515 21.4417 24.0158C20.961 23.98 20.4779 24.0409 20.0211 24.1949C19.558 24.3483 19.1304 24.5929 18.7633 24.9142C18.3962 25.2356 18.0971 25.6271 17.8836 26.0658C17.4669 26.9121 17.386 27.8848 17.6573 28.7884C17.9287 29.6919 18.5321 30.4592 19.3461 30.9359L24.25 33.7821V37.75H14.125V23.125C14.125 22.5283 14.3621 21.956 14.784 21.534C15.206 21.1121 15.7783 20.875 16.375 20.875H22ZM7.375 19.75H11.4092L12.5129 20.8536C12.0993 21.5394 11.8789 22.3242 11.875 23.125V40H7.375V19.75ZM25.375 71.5C25.375 71.7984 25.2565 72.0845 25.0455 72.2955C24.8345 72.5065 24.5484 72.625 24.25 72.625H18.625V70.375H24.25C24.5484 70.375 24.8345 70.4935 25.0455 70.7045C25.2565 70.9155 25.375 71.2016 25.375 71.5ZM22.1496 68.125H18.625V52.2625C19.5766 52.7819 20.59 53.1792 21.6411 53.4449L24.1566 54.0738L22.1496 68.125ZM31.2723 53.5338L22.1856 51.2624C19.8834 50.6861 17.8397 49.357 16.3793 47.4862C14.9189 45.6155 14.1254 43.3104 14.125 40.9371V40H24.25V42.6798L23.6279 42.3681L22.6221 44.3819L35.6508 50.8956L39.7041 68.125H36.3291L32.0755 54.2943C32.0185 54.109 31.9145 53.9417 31.7738 53.8085C31.6331 53.6752 31.4603 53.5806 31.2723 53.5338ZM42.25 72.625H36.625V70.375H42.25C42.5484 70.375 42.8345 70.4935 43.0455 70.7045C43.2565 70.9155 43.375 71.2016 43.375 71.5C43.375 71.7984 43.2565 72.0845 43.0455 72.2955C42.8345 72.5065 42.5484 72.625 42.25 72.625Z" fill="black"/>
<path d="M25.375 11.875C25.375 10.54 24.9791 9.23493 24.2374 8.1249C23.4957 7.01487 22.4415 6.14971 21.2081 5.63882C19.9747 5.12792 18.6175 4.99425 17.3081 5.2547C15.9988 5.51515 14.796 6.15803 13.852 7.10203C12.908 8.04603 12.2652 9.24877 12.0047 10.5581C11.7443 11.8675 11.8779 13.2247 12.3888 14.4581C12.8997 15.6915 13.7649 16.7457 14.8749 17.4874C15.9849 18.2291 17.29 18.625 18.625 18.625C20.4147 18.6232 22.1305 17.9115 23.396 16.646C24.6615 15.3805 25.3732 13.6647 25.375 11.875ZM18.625 16.375C17.735 16.375 16.865 16.1111 16.1249 15.6166C15.3849 15.1221 14.8081 14.4193 14.4675 13.5971C14.127 12.7748 14.0378 11.87 14.2115 10.9971C14.3851 10.1242 14.8137 9.32235 15.443 8.69302C16.0724 8.06368 16.8742 7.6351 17.7471 7.46147C18.62 7.28783 19.5248 7.37695 20.3471 7.71754C21.1693 8.05814 21.8722 8.63491 22.3666 9.37493C22.8611 10.115 23.125 10.985 23.125 11.875C23.125 13.0685 22.6509 14.2131 21.807 15.057C20.9631 15.9009 19.8185 16.375 18.625 16.375ZM60.25 47.875H62.5V50.125H60.25V47.875ZM60.25 52.375H62.5V54.625H60.25V52.375ZM60.25 56.875H62.5V59.1249H60.25V56.875ZM53.8195 49.3307L56.0695 47.0807L57.6603 48.6715L55.4103 50.9215L53.8195 49.3307ZM50.4445 52.7046L52.6945 50.4546L54.2853 52.0453L52.0353 54.2953L50.4445 52.7046ZM47.0695 56.0784L49.3195 53.8285L50.9103 55.4192L48.6603 57.6692L47.0695 56.0784ZM63.9434 48.6737L65.5341 47.0818L67.7841 49.3318L66.1934 50.9226L63.9434 48.6737ZM67.3173 52.0487L68.908 50.4568L71.158 52.7068L69.5673 54.2976L67.3173 52.0487ZM70.6923 55.4237L72.283 53.8318L74.533 56.0818L72.9423 57.6726L70.6923 55.4237ZM57.7008 65.0323L58.5029 64.6318C58.7211 64.5229 58.898 64.346 59.0069 64.1278L60.1319 61.8778L58.1181 60.8721L57.1619 62.7846L56.6815 63.0242C56.4991 62.7986 56.2969 62.5896 56.0774 62.3998C56.5886 61.7998 56.8712 61.0382 56.875 60.2499C56.875 59.3548 56.5194 58.4964 55.8865 57.8635C55.2536 57.2305 54.3951 56.875 53.5 56.875C52.6049 56.875 51.7465 57.2305 51.1135 57.8635C50.4806 58.4964 50.125 59.3548 50.125 60.2499C50.1283 61.039 50.4109 61.8014 50.9226 62.4021C50.7031 62.5919 50.501 62.8008 50.3185 63.0264L49.8381 62.7868L48.8819 60.8743L46.8681 61.8801L47.9931 64.1301C48.1021 64.3483 48.279 64.5251 48.4971 64.6341L49.2993 65.0346C49.1042 65.6716 49.0034 66.3337 49 66.9999H46.75V69.2499H49.3814C49.4638 69.4747 49.5592 69.6944 49.6671 69.9081L48.4971 70.4931C48.279 70.602 48.1021 70.7789 47.9931 70.9971L46.8681 73.2471L48.8819 74.2528L49.8381 72.3403L51.0756 71.7238C51.7501 72.3068 52.6119 72.6276 53.5034 72.6276C54.3949 72.6276 55.2567 72.3068 55.9311 71.7238L57.1686 72.3403L58.1249 74.2528L60.1386 73.2471L59.0136 70.9971C58.9047 70.7789 58.7278 70.602 58.5096 70.4931L57.3396 69.9081C57.4453 69.6943 57.5384 69.4745 57.6186 69.2499H60.25V66.9999H58C57.9969 66.333 57.896 65.6701 57.7008 65.0323ZM53.5 59.1249C53.7225 59.1249 53.94 59.1909 54.125 59.3145C54.31 59.4382 54.4542 59.6139 54.5394 59.8194C54.6245 60.025 54.6468 60.2512 54.6034 60.4694C54.56 60.6877 54.4528 60.8881 54.2955 61.0454C54.1382 61.2028 53.9377 61.3099 53.7195 61.3533C53.5013 61.3967 53.2751 61.3745 53.0695 61.2893C52.8639 61.2042 52.6882 61.06 52.5646 60.875C52.441 60.69 52.375 60.4725 52.375 60.2499C52.375 59.9516 52.4935 59.6654 52.7045 59.4545C52.9155 59.2435 53.2016 59.1249 53.5 59.1249ZM53.5 70.3749C52.2805 70.3749 51.25 68.8292 51.25 66.9999C51.25 65.1707 52.2805 63.6249 53.5 63.6249C54.7195 63.6249 55.75 65.1707 55.75 66.9999C55.75 68.8292 54.7195 70.3749 53.5 70.3749ZM74.875 69.2499V66.9999H72.625C72.6219 66.333 72.521 65.6701 72.3258 65.0323L73.1279 64.6318C73.3461 64.5229 73.523 64.346 73.6319 64.1278L74.7569 61.8778L72.7431 60.8721L71.7869 62.7846L71.3065 63.0242C71.1241 62.7986 70.9219 62.5896 70.7024 62.3998C71.2136 61.7998 71.4962 61.0382 71.5 60.2499C71.5 59.3548 71.1444 58.4964 70.5115 57.8635C69.8786 57.2305 69.0201 56.875 68.125 56.875C67.2299 56.875 66.3715 57.2305 65.7385 57.8635C65.1056 58.4964 64.75 59.3548 64.75 60.2499C64.7533 61.039 65.0359 61.8014 65.5476 62.4021C65.3281 62.5919 65.126 62.8008 64.9435 63.0264L64.4631 62.7868L63.5069 60.8743L61.4931 61.8801L62.6181 64.1301C62.7271 64.3483 62.904 64.5251 63.1221 64.6341L63.9243 65.0346C63.7292 65.6716 63.6284 66.3337 63.625 66.9999H61.375V69.2499H64.0064C64.0888 69.4747 64.1842 69.6944 64.2921 69.9081L63.1221 70.4931C62.904 70.602 62.7271 70.7789 62.6181 70.9971L61.4931 73.2471L63.5069 74.2528L64.4631 72.3403L65.7006 71.7238C66.3751 72.3068 67.2369 72.6276 68.1284 72.6276C69.0199 72.6276 69.8817 72.3068 70.5561 71.7238L71.7937 72.3403L72.7499 74.2528L74.7636 73.2471L73.6386 70.9971C73.5297 70.7789 73.3528 70.602 73.1346 70.4931L71.9646 69.9081C72.0703 69.6943 72.1634 69.4745 72.2436 69.2499H74.875ZM68.125 59.1249C68.3475 59.1249 68.565 59.1909 68.75 59.3145C68.935 59.4382 69.0792 59.6139 69.1644 59.8194C69.2495 60.025 69.2718 60.2512 69.2284 60.4694C69.185 60.6877 69.0779 60.8881 68.9205 61.0454C68.7632 61.2028 68.5627 61.3099 68.3445 61.3533C68.1263 61.3967 67.9001 61.3745 67.6945 61.2893C67.4889 61.2042 67.3132 61.06 67.1896 60.875C67.066 60.69 67 60.4725 67 60.2499C67 59.9516 67.1185 59.6654 67.3295 59.4545C67.5405 59.2435 67.8267 59.1249 68.125 59.1249ZM68.125 70.3749C66.9055 70.3749 65.875 68.8292 65.875 66.9999C65.875 65.1707 66.9055 63.6249 68.125 63.6249C69.3445 63.6249 70.375 65.1707 70.375 66.9999C70.375 68.8292 69.3445 70.3749 68.125 70.3749Z" fill="black"/>
</svg>
