<svg width="72" height="72" viewBox="0 0 72 72" fill="none" xmlns="http://www.w3.org/2000/svg">
<g clip-path="url(#clip0_445_2753)">
<path d="M38.25 62.9989V71.9989H33.75V62.9989H36H38.25ZM65.25 43.8739C65.25 43.8739 47.25 44.9989 36 62.9989V57.3739C36 49.9152 42.0413 43.8739 49.5 43.8739H65.25Z" fill="#7FC94F"/>
<path d="M36 62.9989H25.875C20.5875 62.9989 15.8175 60.8614 12.3525 57.3964C8.8875 53.9314 6.75 49.1614 6.75 43.8739C6.75 43.8739 24.75 44.9989 36 62.9989Z" fill="#5EB132"/>
<path d="M36 57.3739V62.9989C24.75 44.9989 6.75 43.8739 6.75 43.8739H22.5C26.235 43.8739 29.61 45.3814 32.0513 47.8226C34.4925 50.2639 36 53.6389 36 57.3739Z" fill="#7FC94F"/>
<path d="M65.25 43.8739C65.25 54.4377 56.6888 62.9989 46.125 62.9989H36C47.25 44.9989 65.25 43.8739 65.25 43.8739Z" fill="#5EB132"/>
<path d="M3.375 1.1239H68.625C68.625 2.6764 67.995 4.08265 66.9825 5.1064C65.9588 6.1189 64.5525 6.7489 63 6.7489H9C5.895 6.7489 3.375 4.2289 3.375 1.1239Z" fill="#B3B3B3"/>
<path d="M25.875 6.7489H46.125V11.2489H25.875V6.7489Z" fill="#999999"/>
<path d="M18 19.1239H54C54 19.1239 49.5 24.7489 36 24.7489C22.5 24.7489 18 19.1239 18 19.1239Z" fill="#FFCC3E"/>
<path d="M54 19.1239H18L25.875 11.2489H46.125L54 19.1239Z" fill="#B3B3B3"/>
<path d="M68.625 0H3.375C3.07683 -1.49087e-07 2.79085 0.118372 2.5799 0.329107C2.36896 0.539842 2.2503 0.825701 2.25 1.12388C2.25 4.8465 5.27737 7.87388 9 7.87388H24.75V10.7831L17.2046 18.3285C17.0088 18.5242 16.892 18.7854 16.8766 19.0618C16.8612 19.3383 16.9484 19.6108 17.1214 19.827C17.3182 20.0745 22.1186 25.8739 36 25.8739C49.8814 25.8739 54.6806 20.0734 54.8786 19.827C55.0516 19.6108 55.1388 19.3383 55.1234 19.0618C55.108 18.7854 54.9912 18.5242 54.7954 18.3285L47.25 10.7831V7.87388H63C63.8879 7.87486 64.7673 7.70079 65.588 7.36162C66.4086 7.02245 67.1542 6.52484 67.7824 5.89725C69.0449 4.62974 69.7526 2.91288 69.75 1.12388C69.7497 0.825701 69.631 0.539842 69.4201 0.329107C69.2092 0.118372 68.9232 -1.49087e-07 68.625 0ZM21.2355 20.2489H31.5C31.7984 20.2489 32.0845 20.1303 32.2955 19.9194C32.5065 19.7084 32.625 19.4222 32.625 19.1239C32.625 18.8255 32.5065 18.5394 32.2955 18.3284C32.0845 18.1174 31.7984 17.9989 31.5 17.9989H20.7157L26.3407 12.3739H45.6592L51.2842 17.9989H40.5C40.2016 17.9989 39.9155 18.1174 39.7045 18.3284C39.4935 18.5394 39.375 18.8255 39.375 19.1239C39.375 19.4222 39.4935 19.7084 39.7045 19.9194C39.9155 20.1303 40.2016 20.2489 40.5 20.2489H50.7623C48.2783 21.7496 43.6522 23.6239 36 23.6239C28.3477 23.6239 23.7184 21.7485 21.2355 20.2489ZM45 10.1239H27V7.87388H45V10.1239ZM66.1916 4.30762C65.3443 5.1522 64.1964 5.626 63 5.625H9C8.00266 5.62333 7.03399 5.29121 6.24545 4.68056C5.45691 4.06992 4.89295 3.21519 4.64175 2.25H67.3583C67.1591 3.02761 66.756 3.73795 66.1905 4.30762H66.1916ZM65.25 42.7489H49.5C43.4329 42.7489 38.2185 46.4614 36.0068 51.7331C35.2716 49.9724 34.1979 48.3732 32.8466 47.0261C31.4905 45.6644 29.8777 44.5852 28.1018 43.8508C26.3258 43.1164 24.4218 42.7415 22.5 42.7477H6.75C6.45163 42.7477 6.16548 42.8663 5.9545 43.0773C5.74353 43.2882 5.625 43.5744 5.625 43.8727C5.625 49.2806 7.73212 54.3656 11.5571 58.1906C15.3821 62.0156 20.4671 64.1227 25.875 64.1227H32.625V70.8727C32.625 71.1711 32.7435 71.4573 32.9545 71.6682C33.1655 71.8792 33.4516 71.9977 33.75 71.9977C34.0484 71.9977 34.3345 71.8792 34.5455 71.6682C34.7565 71.4573 34.875 71.1711 34.875 70.8727V64.1227H37.125V70.8727C37.125 71.1711 37.2435 71.4573 37.4545 71.6682C37.6655 71.8792 37.9516 71.9977 38.25 71.9977C38.5484 71.9977 38.8345 71.8792 39.0455 71.6682C39.2565 71.4573 39.375 71.1711 39.375 70.8727V64.1227H46.125C57.2906 64.1227 66.375 55.0384 66.375 43.8727C66.375 43.5744 66.2565 43.2882 66.0455 43.0773C65.8345 42.8663 65.5484 42.7489 65.25 42.7489ZM25.875 61.8739C23.5103 61.8801 21.1679 61.4172 18.9833 60.5122C16.7987 59.6071 14.8153 58.2777 13.1479 56.601C10.0372 53.5075 8.17289 49.378 7.90987 44.9989H22.5C25.812 44.9989 28.9215 46.2847 31.2559 48.618C32.4079 49.7658 33.321 51.1306 33.9422 52.6336C34.5634 54.1365 34.8804 55.7476 34.875 57.3739V59.3831C31.1535 54.3645 26.5646 50.3291 21.1691 47.3873C21.0394 47.3165 20.897 47.272 20.7501 47.2562C20.6032 47.2405 20.4546 47.2538 20.3128 47.2955C20.1711 47.3372 20.0389 47.4064 19.9239 47.4991C19.8089 47.5919 19.7133 47.7064 19.6425 47.8361C19.5717 47.9658 19.5272 48.1082 19.5115 48.2551C19.4957 48.4021 19.5091 48.5506 19.5508 48.6924C19.5924 48.8342 19.6616 48.9663 19.7544 49.0813C19.8472 49.1964 19.9617 49.292 20.0914 49.3627C25.6016 52.3687 30.231 56.5796 33.8962 61.875L25.875 61.8739ZM46.125 61.8739H38.1037C41.769 56.5785 46.3972 52.3665 51.9086 49.3616C52.0383 49.2909 52.1528 49.1952 52.2456 49.0802C52.3384 48.9652 52.4076 48.833 52.4492 48.6913C52.4909 48.5495 52.5043 48.4009 52.4885 48.254C52.4728 48.1071 52.4283 47.9647 52.3575 47.835C52.2867 47.7053 52.1911 47.5908 52.0761 47.498C51.9611 47.4053 51.8289 47.3361 51.6871 47.2944C51.5454 47.2527 51.3968 47.2394 51.2499 47.2551C51.103 47.2708 50.9606 47.3154 50.8309 47.3861C45.4365 50.328 40.8465 54.3645 37.125 59.382V57.3727C37.125 50.5496 42.6769 44.9977 49.5 44.9977H64.0901C63.5063 54.4005 55.6717 61.8739 46.125 61.8739ZM37.125 39.3739V31.4989C37.125 31.2005 37.0065 30.9144 36.7955 30.7034C36.5845 30.4924 36.2984 30.3739 36 30.3739C35.7016 30.3739 35.4155 30.4924 35.2045 30.7034C34.9935 30.9144 34.875 31.2005 34.875 31.4989V39.3739C34.875 39.6722 34.9935 39.9584 35.2045 40.1694C35.4155 40.3803 35.7016 40.4989 36 40.4989C36.2984 40.4989 36.5845 40.3803 36.7955 40.1694C37.0065 39.9584 37.125 39.6722 37.125 39.3739ZM25.8176 37.4805L28.0676 30.7305C28.1167 30.5898 28.1372 30.4408 28.1282 30.2921C28.1192 30.1433 28.0807 29.9979 28.015 29.8642C27.9493 29.7305 27.8577 29.6111 27.7455 29.5131C27.6333 29.4151 27.5027 29.3403 27.3614 29.2931C27.22 29.246 27.0708 29.2274 26.9222 29.2384C26.7736 29.2494 26.6287 29.2898 26.4958 29.3573C26.363 29.4247 26.2449 29.5179 26.1483 29.6314C26.0518 29.7449 25.9788 29.8764 25.9335 30.0184L23.6835 36.7684C23.4866 37.3579 23.7983 38.0194 24.3945 38.1915C25.038 38.3771 25.6601 37.9519 25.8176 37.4805ZM15.5036 33.327L20.0036 27.702C20.1009 27.5873 20.1743 27.4542 20.2192 27.3106C20.2642 27.167 20.2799 27.0159 20.2655 26.8662C20.251 26.7164 20.2067 26.5711 20.135 26.4388C20.0634 26.3065 19.966 26.1899 19.8485 26.0959C19.7311 26.0019 19.5959 25.9324 19.4511 25.8916C19.3063 25.8507 19.1548 25.8393 19.0055 25.8581C18.8563 25.8768 18.7123 25.9253 18.5821 26.0007C18.4519 26.076 18.3381 26.1768 18.2475 26.2969L13.7475 31.9219C13.3594 32.4067 13.428 33.1279 13.923 33.5025C14.6194 34.0301 15.282 33.6049 15.5036 33.327ZM47.6055 38.1915C48.2141 38.0666 48.5134 37.3579 48.3165 36.7684L46.0665 30.0184C46.0212 29.8764 45.9482 29.7449 45.8517 29.6314C45.7551 29.5179 45.637 29.4247 45.5042 29.3573C45.3713 29.2898 45.2264 29.2494 45.0778 29.2384C44.9292 29.2274 44.78 29.246 44.6386 29.2931C44.4973 29.3403 44.3667 29.4151 44.2545 29.5131C44.1423 29.6111 44.0507 29.7305 43.985 29.8642C43.9193 29.9979 43.8808 30.1433 43.8718 30.2921C43.8628 30.4408 43.8833 30.5898 43.9324 30.7305L46.1824 37.4805C46.3399 37.9519 46.7865 38.3591 47.6055 38.1915ZM58.077 33.5025C58.1924 33.4103 58.2885 33.2962 58.3597 33.1669C58.431 33.0375 58.4761 32.8954 58.4924 32.7486C58.5087 32.6018 58.4959 32.4532 58.4547 32.3113C58.4136 32.1695 58.3448 32.0371 58.2525 31.9219L53.7525 26.2969C53.5631 26.0736 53.2941 25.9329 53.0027 25.9048C52.7113 25.8766 52.4203 25.9632 52.1917 26.1462C51.9631 26.3291 51.8148 26.5939 51.7783 26.8844C51.7418 27.175 51.8201 27.4682 51.9964 27.702L56.4964 33.327C56.718 33.6049 57.6315 33.8468 58.077 33.5025Z" fill="#252525"/>
<path d="M36 20.2489C36.6213 20.2489 37.125 19.7452 37.125 19.1239C37.125 18.5026 36.6213 17.9989 36 17.9989C35.3787 17.9989 34.875 18.5026 34.875 19.1239C34.875 19.7452 35.3787 20.2489 36 20.2489Z" fill="#252525"/>
</g>
<defs>
<clipPath id="clip0_445_2753">
<rect width="72" height="72" fill="white"/>
</clipPath>
</defs>
</svg>
