<svg width="80" height="80" viewBox="0 0 80 80" fill="none" xmlns="http://www.w3.org/2000/svg">
<path d="M66.8951 40.0002C68.575 40.0002 69.8645 41.4616 69.6901 43.1325C68.1247 58.1468 55.4299 69.8516 40.0014 69.8516C24.5729 69.8516 11.8781 58.1465 10.3126 43.1325C10.1385 41.4616 11.4281 40.0002 13.1077 40.0002H66.8951Z" fill="#FFA91A"/>
<path d="M66.8929 40H66.8909C66.8915 40.1055 66.887 40.2121 66.8757 40.3198C65.3103 55.334 52.6155 67.0388 37.187 67.0388C29.6588 67.0388 22.7825 64.2511 17.5312 59.6529C23.0027 65.9031 31.0394 69.851 39.9992 69.851C55.4277 69.851 68.1225 58.1462 69.6879 43.132C69.862 41.4614 68.5725 40 66.8929 40Z" fill="#F79219"/>
<path d="M68.0437 40.2471C68.254 40.71 68.3367 41.2208 68.2831 41.7264C66.7176 56.7407 54.0228 68.4455 38.5943 68.4455C30.7095 68.4455 23.5396 65.3872 18.2031 60.3936C23.6504 66.2135 31.3999 69.8517 40.0006 69.8517C55.4291 69.8517 68.1239 58.1469 69.6893 43.1327C69.8207 41.8721 69.1181 40.7314 68.0437 40.2471Z" fill="#EF7816"/>
<path d="M63.1249 40C63.1249 52.7716 52.7715 63.1249 39.9999 63.1249C27.2284 63.1249 16.875 52.7716 16.875 40H63.1249Z" fill="#F79219"/>
<path d="M61.6713 40C60.944 52.1163 50.8919 61.7187 38.5928 61.7187C32.5648 61.7187 27.077 59.4105 22.9609 55.6319C27.1881 60.2368 33.2555 63.1249 39.9991 63.1249C52.7706 63.1249 63.124 52.7716 63.124 40H61.6713Z" fill="#EF7816"/>
<path d="M40 57.0313C39.8135 57.0313 39.6347 56.9572 39.5028 56.8254C39.371 56.6935 39.2969 56.5147 39.2969 56.3282V29.3184C39.2969 29.1319 39.371 28.953 39.5028 28.8212C39.6347 28.6893 39.8135 28.6152 40 28.6152C40.1865 28.6152 40.3653 28.6893 40.4972 28.8212C40.629 28.953 40.7031 29.1319 40.7031 29.3184V56.3282C40.7031 56.5147 40.629 56.6935 40.4972 56.8254C40.3653 56.9572 40.1865 57.0313 40 57.0313Z" fill="#5A7A39"/>
<path d="M39.9988 52.9865C39.8188 52.9865 39.6388 52.9179 39.5016 52.7806L33.993 47.272C33.9277 47.2068 33.8758 47.1293 33.8405 47.044C33.8051 46.9587 33.7869 46.8673 33.7869 46.7749C33.7869 46.6826 33.8051 46.5912 33.8405 46.5059C33.8758 46.4206 33.9277 46.3431 33.993 46.2778C34.0583 46.2125 34.1357 46.1607 34.221 46.1253C34.3063 46.0899 34.3978 46.0717 34.4901 46.0717C34.5825 46.0717 34.6739 46.0899 34.7592 46.1253C34.8445 46.1607 34.922 46.2125 34.9872 46.2778L39.9988 51.2891L45.0104 46.2778C45.0757 46.2125 45.1532 46.1607 45.2385 46.1253C45.3237 46.0899 45.4152 46.0717 45.5075 46.0717C45.5999 46.0717 45.6913 46.0899 45.7766 46.1253C45.8619 46.1607 45.9394 46.2125 46.0046 46.2778C46.07 46.3431 46.1218 46.4206 46.1572 46.5059C46.1925 46.5912 46.2107 46.6826 46.2107 46.7749C46.2107 46.8673 46.1925 46.9587 46.1572 47.044C46.1218 47.1293 46.07 47.2068 46.0046 47.272L40.4961 52.7806C40.4308 52.846 40.3533 52.8978 40.268 52.9332C40.1826 52.9685 40.0912 52.9866 39.9988 52.9865ZM39.9988 42.535C39.8188 42.535 39.6388 42.4663 39.5016 42.3291L26.9873 29.8146C26.922 29.7493 26.8702 29.6718 26.8348 29.5865C26.7995 29.5012 26.7813 29.4098 26.7812 29.3175C26.7813 29.2251 26.7995 29.1337 26.8348 29.0484C26.8702 28.9631 26.922 28.8856 26.9873 28.8204C27.0526 28.755 27.1301 28.7032 27.2154 28.6678C27.3007 28.6325 27.3921 28.6143 27.4845 28.6143C27.5768 28.6143 27.6682 28.6325 27.7535 28.6678C27.8388 28.7032 27.9163 28.755 27.9816 28.8204L39.9988 40.8376L52.0161 28.8204C52.0813 28.755 52.1588 28.7032 52.2441 28.6678C52.3294 28.6325 52.4208 28.6143 52.5132 28.6143C52.6055 28.6143 52.6969 28.6325 52.7822 28.6678C52.8675 28.7032 52.945 28.755 53.0103 28.8204C53.0756 28.8856 53.1275 28.9631 53.1628 29.0484C53.1982 29.1337 53.2164 29.2251 53.2164 29.3175C53.2164 29.4098 53.1982 29.5012 53.1628 29.5865C53.1275 29.6718 53.0756 29.7493 53.0103 29.8146L40.4958 42.3291C40.4306 42.3945 40.3532 42.4463 40.2679 42.4817C40.1826 42.517 40.0911 42.5351 39.9988 42.535Z" fill="#5A7A39"/>
<path d="M25.5927 36.975C25.352 36.9833 25.1234 37.0826 24.9531 37.2529C24.7828 37.4232 24.6835 37.6518 24.6752 37.8925C24.6091 39.6922 24.7585 43.9025 27.3106 46.4543C29.8626 49.0064 34.0729 49.1557 35.8724 49.0896C36.1131 49.0813 36.3416 48.982 36.5119 48.8117C36.6822 48.6414 36.7815 48.4129 36.7898 48.1722C36.8559 46.3724 36.7066 42.1621 34.1545 39.6104C31.6024 37.0586 27.3924 36.9089 25.5927 36.975Z" fill="#76A34F"/>
<path d="M34.1568 39.6095C33.8237 39.2778 33.4589 38.9795 33.0678 38.7188C34.7649 41.2523 34.8695 44.6298 34.8121 46.1916C34.8039 46.4323 34.7045 46.6608 34.5343 46.8311C34.364 47.0014 34.1354 47.1007 33.8947 47.109C32.3329 47.1664 28.9554 47.0615 26.4219 45.3644C26.6826 45.7555 26.9809 46.1203 27.3126 46.4534C29.8647 49.0055 34.075 49.1548 35.8744 49.0887C36.1151 49.0805 36.3437 48.9811 36.514 48.8108C36.6843 48.6406 36.7836 48.412 36.7918 48.1713C36.8579 46.3718 36.7086 42.1615 34.1568 39.6095Z" fill="#648940"/>
<path d="M54.4114 36.975C54.6521 36.9833 54.8807 37.0826 55.051 37.2529C55.2213 37.4232 55.3206 37.6518 55.3289 37.8925C55.395 39.6922 55.2456 43.9025 52.6936 46.4543C50.1415 49.0064 45.9312 49.1557 44.1317 49.0896C43.8911 49.0813 43.6625 48.982 43.4922 48.8117C43.3219 48.6414 43.2226 48.4129 43.2143 48.1722C43.1482 46.3724 43.2976 42.1621 45.8496 39.6104C48.4017 37.0586 52.6117 36.9089 54.4114 36.975Z" fill="#76A34F"/>
<path d="M55.3289 37.8924C55.3207 37.6517 55.2213 37.4232 55.0511 37.2529C54.8808 37.0826 54.6522 36.9833 54.4115 36.975C54.0594 36.9624 53.707 36.9605 53.3548 36.9694C53.3025 39.043 52.8494 42.3393 50.7139 44.4745C48.5786 46.6098 45.2824 47.0629 43.2087 47.1155C43.1997 47.4677 43.2016 47.82 43.2144 48.1721C43.2226 48.4128 43.3219 48.6414 43.4922 48.8117C43.6625 48.982 43.8911 49.0813 44.1318 49.0896C45.9315 49.1557 50.1418 49.0063 52.6936 46.4543C55.2457 43.9022 55.395 39.6919 55.3289 37.8924Z" fill="#648940"/>
<path d="M39.3687 33.1754C39.5429 33.3321 39.7689 33.4188 40.0032 33.4188C40.2375 33.4188 40.4635 33.3321 40.6377 33.1754C42.3581 31.635 46.983 26.9823 46.983 21.4819C46.983 15.9815 42.3581 11.3285 40.6377 9.78834C40.4635 9.63163 40.2375 9.54492 40.0032 9.54492C39.7689 9.54492 39.5429 9.63163 39.3687 9.78834C37.6483 11.3287 33.0234 15.9815 33.0234 21.4819C33.0234 26.9823 37.6483 31.635 39.3687 33.1754Z" fill="#76A34F"/>
<path d="M37.3575 29.0089C37.1803 29.0089 37.0116 28.9217 36.9047 28.7783C36.9047 28.7783 36.9019 28.7783 36.9019 28.7755C36.8147 28.6546 36.7781 28.5055 36.8034 28.3564C36.8259 28.2102 36.9047 28.078 37.0284 27.9908C37.2675 27.8136 37.6359 27.8727 37.8103 28.1117L37.8131 28.1146C37.9959 28.3649 37.9397 28.7192 37.6894 28.9021C37.5909 28.9696 37.4784 29.0089 37.3575 29.0089ZM36.1509 27.1105C35.9456 27.1105 35.7572 26.998 35.6559 26.818C34.6575 24.9814 34.1512 23.1871 34.1484 21.4827C34.1541 19.8092 34.635 18.0627 35.5772 16.2908C36.2663 14.9999 37.2028 13.6864 38.3644 12.3842C38.5641 12.1621 38.9353 12.1424 39.1603 12.3421C39.3909 12.5502 39.4078 12.9074 39.2025 13.138C37.7288 14.7664 35.2594 18.0177 35.2734 21.4827C35.2734 22.9958 35.7347 24.6102 36.6459 26.278C36.7922 26.5508 36.6938 26.8939 36.4209 27.0402C36.3394 27.0852 36.2466 27.1105 36.1509 27.1105Z" fill="#91B56B"/>
<path d="M40.6339 9.78766C40.5504 9.71336 40.4544 9.65434 40.3504 9.61328C42.1971 11.8515 44.1667 15.0794 44.1667 18.669C44.1667 24.1694 39.5418 28.8224 37.8214 30.3625C37.6898 30.4807 37.5278 30.5596 37.3536 30.5905C37.1794 30.6213 37.0001 30.6027 36.8359 30.5369C37.6128 31.4774 38.4581 32.3591 39.3649 33.175C39.5391 33.3317 39.7651 33.4184 39.9994 33.4184C40.2337 33.4184 40.4598 33.3317 40.6339 33.175C42.3543 31.6346 46.9792 26.9819 46.9792 21.4815C46.9792 15.9811 42.3541 11.3281 40.6339 9.78766Z" fill="#648940"/>
<path d="M60.0521 20.8618C60.2927 20.87 60.5213 20.9693 60.6916 21.1396C60.8619 21.3099 60.9612 21.5385 60.9695 21.7792C61.0356 23.5789 60.8862 27.7892 58.3342 30.341C55.7821 32.8931 51.5718 33.0424 49.7724 32.9763C49.5317 32.9681 49.3031 32.8687 49.1328 32.6985C48.9625 32.5282 48.8632 32.2996 48.8549 32.0589C48.7888 30.2592 48.9382 26.0489 51.4902 23.4971C54.0423 20.945 58.2526 20.7957 60.0521 20.8618Z" fill="#76A34F"/>
<path d="M60.9696 21.7792C60.9613 21.5385 60.862 21.3099 60.6917 21.1396C60.5214 20.9693 60.2928 20.87 60.0521 20.8617C59.7 20.8491 59.3477 20.8472 58.9955 20.8561C58.9431 22.9298 58.4898 26.226 56.3545 28.3612C54.2193 30.4965 50.923 30.9496 48.8494 31.0022C48.8403 31.3544 48.8422 31.7068 48.855 32.0588C48.8633 32.2995 48.9626 32.5281 49.1329 32.6984C49.3032 32.8687 49.5317 32.968 49.7724 32.9763C51.5721 33.0424 55.7825 32.893 58.3342 30.341C60.8863 27.7892 61.0354 23.5789 60.9696 21.7792Z" fill="#648940"/>
<path d="M19.9521 20.8618C19.7114 20.87 19.4828 20.9693 19.3125 21.1396C19.1422 21.3099 19.0429 21.5385 19.0346 21.7792C18.9685 23.5789 19.1179 27.7892 21.6699 30.341C24.222 32.8928 28.4323 33.0424 30.2317 32.9763C30.4724 32.9681 30.701 32.8687 30.8713 32.6984C31.0416 32.5282 31.1409 32.2996 31.1492 32.0589C31.2153 30.2592 31.0659 26.0489 28.5139 23.4971C25.9618 20.9453 21.7515 20.7957 19.9521 20.8618Z" fill="#76A34F"/>
<path d="M28.5081 23.4972C28.175 23.1655 27.8102 22.8672 27.4191 22.6064C29.1162 25.1399 29.2208 28.5175 29.1637 30.0793C29.1554 30.3199 29.0561 30.5485 28.8858 30.7188C28.7155 30.8891 28.4869 30.9884 28.2462 30.9967C26.6845 31.0541 23.3069 30.9492 20.7734 29.2521C21.0342 29.6432 21.3325 30.008 21.6642 30.3411C24.2162 32.8932 28.4265 33.0425 30.226 32.9764C30.4667 32.9681 30.6952 32.8688 30.8655 32.6985C31.0358 32.5282 31.1351 32.2997 31.1434 32.059C31.2095 30.2593 31.0602 26.0489 28.5081 23.4972Z" fill="#648940"/>
<path d="M27.0136 18.66C28.678 18.66 30.0272 17.3108 30.0272 15.6464C30.0272 13.982 28.678 12.6328 27.0136 12.6328C25.3492 12.6328 24 13.982 24 15.6464C24 17.3108 25.3492 18.66 27.0136 18.66Z" fill="#F79219"/>
<path d="M28.3159 12.9336C28.5137 13.3407 28.6166 13.7874 28.6169 14.24C28.6169 15.9044 27.2677 17.2536 25.6033 17.2536C25.1344 17.2536 24.6926 17.1433 24.2969 16.9527C24.784 17.9618 25.8139 18.6598 27.0095 18.6598C28.674 18.6598 30.0231 17.3107 30.0231 15.6463C30.0234 14.4504 29.3253 13.4207 28.3159 12.9336Z" fill="#EF7816"/>
<path d="M52.9902 18.66C54.6545 18.66 56.0038 17.3108 56.0038 15.6464C56.0038 13.982 54.6545 12.6328 52.9902 12.6328C51.3258 12.6328 49.9766 13.982 49.9766 15.6464C49.9766 17.3108 51.3258 18.66 52.9902 18.66Z" fill="#F79219"/>
<path d="M54.3003 12.9336C54.498 13.3407 54.6009 13.7874 54.6013 14.24C54.6013 15.9044 53.2521 17.2536 51.5877 17.2536C51.135 17.2533 50.6884 17.1504 50.2812 16.9527C50.7684 17.9618 51.7983 18.6598 52.9939 18.6598C54.6583 18.6598 56.0075 17.3107 56.0075 15.6463C56.0075 14.4507 55.3094 13.4207 54.3003 12.9336Z" fill="#EF7816"/>
<path d="M16.0058 36.0018C17.6701 36.0018 19.0194 34.6526 19.0194 32.9882C19.0194 31.3238 17.6701 29.9746 16.0058 29.9746C14.3414 29.9746 12.9922 31.3238 12.9922 32.9882C12.9922 34.6526 14.3414 36.0018 16.0058 36.0018Z" fill="#F79219"/>
<path d="M17.3159 30.2754C17.5137 30.6825 17.6166 31.1292 17.6169 31.5818C17.6169 33.2462 16.2677 34.5954 14.6033 34.5954C14.1344 34.5954 13.6926 34.4851 13.2969 34.2945C13.784 35.3036 14.8139 36.0016 16.0095 36.0016C17.674 36.0016 19.0231 34.6525 19.0231 32.988C19.0234 31.7925 18.3253 30.7625 17.3159 30.2754Z" fill="#EF7816"/>
<path d="M63.998 36.0018C65.6623 36.0018 67.0116 34.6526 67.0116 32.9882C67.0116 31.3238 65.6623 29.9746 63.998 29.9746C62.3336 29.9746 60.9844 31.3238 60.9844 32.9882C60.9844 34.6526 62.3336 36.0018 63.998 36.0018Z" fill="#F79219"/>
<path d="M65.3003 30.2754C65.498 30.6825 65.6009 31.1292 65.6013 31.5818C65.6013 33.2462 64.2521 34.5954 62.5877 34.5954C62.1188 34.5954 61.677 34.4851 61.2812 34.2945C61.7684 35.3036 62.7983 36.0016 63.9939 36.0016C65.6583 36.0016 67.0075 34.6525 67.0075 32.988C67.0075 31.7925 66.3094 30.7625 65.3003 30.2754Z" fill="#EF7816"/>
</svg>
