<svg width="80" height="80" viewBox="0 0 80 80" fill="none" xmlns="http://www.w3.org/2000/svg">
<path d="M31.3832 24.9123C31.3832 19.7804 28.0951 13.4962 24.008 11.0225C19.9209 13.4808 16.6328 19.7804 16.6328 24.9123C16.6328 27.2017 17.2935 29.3681 18.3844 31.2734C20.8582 35.6062 27.1732 35.6062 29.6316 31.2734C30.7225 29.3681 31.3832 27.217 31.3832 24.9123Z" fill="#77BC4D"/>
<path d="M21.4417 32.0563C20.3508 30.151 19.6902 27.9846 19.6902 25.6952C19.6902 21.0396 22.3944 15.4161 25.959 12.5736C25.3291 11.9744 24.6684 11.452 23.9923 11.0371C19.9053 13.4955 16.6172 19.7951 16.6172 24.927C16.6172 27.2163 17.2779 29.3828 18.3688 31.288C19.598 33.4391 21.7951 34.53 23.9769 34.53C22.9782 33.9922 22.0871 33.1625 21.4417 32.0563Z" fill="#479838"/>
<path d="M17.814 38.925C15.2327 36.3437 10.4235 34.8379 7.12006 35.6523C6.30572 38.9557 7.81148 43.765 10.3928 46.3463C11.5451 47.4987 12.9587 48.2515 14.4798 48.6664C17.9062 49.6037 21.0713 46.4231 20.1494 42.9967C19.7346 41.491 18.9663 40.0774 17.814 38.925Z" fill="#A2D962"/>
<path d="M16.6309 46.669C15.1251 46.2541 13.6962 45.5013 12.5438 44.3489C10.3928 42.1978 8.99457 38.5102 9.05603 35.4219C8.37998 35.4219 7.71929 35.4987 7.12006 35.637C6.30572 38.9404 7.81148 43.7497 10.3928 46.331C11.5451 47.4833 12.9587 48.2362 14.4798 48.6511C16.677 49.2503 18.7512 48.1594 19.7346 46.4078C18.8127 46.838 17.7372 46.9763 16.6309 46.669Z" fill="#77BC4D"/>
<path d="M30.138 38.925C32.7193 36.3437 37.5285 34.8379 40.8319 35.6523C41.6463 38.9557 40.1405 43.765 37.5592 46.3463C36.4069 47.4987 34.9933 48.2515 33.4722 48.6664C30.0458 49.6037 26.8807 46.4231 27.8026 42.9967C28.2328 41.491 28.9857 40.0774 30.138 38.925Z" fill="#A2D962"/>
<path d="M31.3224 46.669C32.8282 46.2541 34.2571 45.5013 35.4095 44.3489C37.5606 42.1978 38.9588 38.5102 38.8973 35.4219C39.5734 35.4219 40.234 35.4987 40.8333 35.637C41.6476 38.9404 40.1419 43.7497 37.5606 46.331C36.4082 47.4833 34.9946 48.2362 33.4735 48.6511C31.2763 49.2503 29.2021 48.1594 28.2188 46.4078C29.1406 46.838 30.2162 46.9763 31.3224 46.669Z" fill="#77BC4D"/>
<path d="M63.431 49.081L46.5911 41.2295L43.5796 47.6981C41.3056 52.5842 41.5208 58.2692 44.1635 62.9555C44.9932 64.4305 46.6833 65.2141 48.3427 64.9068C53.6436 63.9234 58.1301 60.4356 60.4195 55.5496L63.431 49.081Z" fill="#EEEEEE"/>
<path d="M47.2365 64.3538C44.5937 59.6521 44.3786 53.9671 46.6526 49.0964L49.6488 42.6584L46.5912 41.2295L43.5796 47.6982C41.3056 52.5842 41.5207 58.2693 44.1635 62.9556C44.8857 64.2309 46.2531 64.9991 47.6821 64.9684C47.5131 64.784 47.3594 64.5843 47.2365 64.3538Z" fill="#D3D3D3"/>
<path d="M61.3883 43.9799C61.2808 43.9799 61.1732 43.9492 61.0657 43.9031L51.6623 39.5241C51.2782 39.3397 51.1092 38.8941 51.2936 38.51C51.4779 38.1259 51.9235 37.9568 52.3077 38.1412L61.711 42.5202C62.0951 42.7046 62.2641 43.1502 62.0798 43.5343C61.9568 43.8262 61.6803 43.9799 61.3883 43.9799Z" fill="#E0E0E0"/>
<path d="M70.0355 18.9199L65.4568 16.7842L50.9062 47.9902L51.8435 52.1079L55.485 50.1259L70.0355 18.9199Z" fill="#FFEECC"/>
<path d="M67.7309 17.8444L65.4569 16.7842L50.9062 47.9902L51.8435 52.1079L54.3019 50.7712L53.672 47.9902L67.7309 17.8444Z" fill="#FFDDAB"/>
<path d="M75.2321 12.5278L67.0119 8.70197L65.291 12.4049C65.0912 12.8351 64.9683 13.3115 64.9376 13.7878L64.7993 15.6469C64.7686 16.1386 65.0298 16.5996 65.4754 16.8147L70.0234 18.9043C70.469 19.1194 71.0068 19.0272 71.3601 18.6738L72.6969 17.3678C73.0349 17.0298 73.3115 16.6457 73.5266 16.2001L75.2321 12.5278Z" fill="#F95A66"/>
<path d="M69.4551 9.82353L67.0275 8.68652L65.3066 12.3895C65.1069 12.8197 64.984 13.296 64.9532 13.7723L64.8149 15.6315C64.7842 16.1231 65.0454 16.5841 65.491 16.7992L67.1043 17.5521L67.4577 14.1257L69.4551 9.82353Z" fill="#ED3252"/>
<path d="M69.2564 69.9467C69.2564 69.9467 69.2564 63.0324 60.6981 64.1234C60.6981 64.1234 56.3652 54.7661 46.1322 60.2975C46.1322 60.2975 44.2884 55.7956 38.9875 55.9185C33.6865 55.7956 31.8427 60.2975 31.8427 60.2975C21.3024 54.7661 17.2768 64.1234 17.2768 64.1234C8.71849 63.0324 8.71849 69.9467 8.71849 69.9467L8.70312 71.2834H69.2411L69.2564 69.9467Z" fill="#CC8769"/>
<path d="M69.2564 69.9467C69.2564 69.9467 69.2564 63.0324 60.6981 64.1234C60.6981 64.1234 56.3652 54.7661 46.1322 60.2975C46.1322 60.2975 44.2884 55.7956 38.9875 55.9185C33.6865 55.7956 31.8427 60.2975 31.8427 60.2975C21.3024 54.7661 17.2768 64.1234 17.2768 64.1234C8.71849 63.0324 8.71849 69.9467 8.71849 69.9467L8.70312 71.2834H11.0386C11.1308 68.6867 11.2844 68.3026 11.5149 67.9339C12.2524 66.7354 13.5738 66.1515 15.5405 66.1515C16.0015 66.1515 16.4932 66.1823 17.0156 66.2591H17.0463C17.9836 66.382 18.8747 65.8596 19.2435 64.9992L19.2589 64.9684C19.3357 64.7994 21.2102 60.697 25.6199 60.697C27.1872 60.697 28.9388 61.204 30.844 62.2027L30.8901 62.2335C31.9964 62.8173 33.3792 62.2949 33.8248 61.1272C33.9938 60.7584 35.2999 58.0696 38.7723 58.0696H39.2026C42.8594 58.0696 44.1347 61.0811 44.1501 61.1118L44.1654 61.1579C44.6418 62.3103 46.0092 62.802 47.1155 62.2181L47.1616 62.1874C48.99 61.204 50.6955 60.697 52.232 60.697C56.6264 60.697 58.6546 64.8609 58.7468 65.0299L58.7622 65.0453C59.1463 65.875 60.0374 66.3666 60.9593 66.2437H60.9747C61.4971 66.1823 61.9888 66.1362 62.4497 66.1362C64.4165 66.1362 65.7378 66.72 66.4754 67.9185C66.7058 68.2873 66.8595 68.6714 66.9517 71.2681H69.2411L69.2564 69.9467Z" fill="#C67154"/>
<path d="M10.3594 58.2228C11.6323 58.2228 12.6642 57.1909 12.6642 55.918C12.6642 54.6451 11.6323 53.6133 10.3594 53.6133C9.08656 53.6133 8.05469 54.6451 8.05469 55.918C8.05469 57.1909 9.08656 58.2228 10.3594 58.2228Z" fill="#EDF1D3"/>
<path d="M12.3108 54.7042C11.8959 54.0589 11.1891 53.6133 10.3594 53.6133C9.08413 53.6133 8.05469 54.6427 8.05469 55.918C8.05469 57.1933 9.08413 58.2228 10.3594 58.2228C10.4209 58.2228 10.4977 58.2228 10.5592 58.2074C10.3441 57.854 10.2058 57.4392 10.2058 56.9936C10.2058 55.7951 11.1277 54.7964 12.3108 54.7042Z" fill="#D0DAAD"/>
<path d="M8.70318 14.6329C9.97605 14.6329 11.0079 13.6011 11.0079 12.3282C11.0079 11.0553 9.97605 10.0234 8.70318 10.0234C7.43031 10.0234 6.39844 11.0553 6.39844 12.3282C6.39844 13.6011 7.43031 14.6329 8.70318 14.6329Z" fill="#EDF1D3"/>
<path d="M10.6545 11.1143C10.2397 10.469 9.53287 10.0234 8.70317 10.0234C7.42788 10.0234 6.39844 11.0529 6.39844 12.3282C6.39844 13.6035 7.42788 14.6329 8.70317 14.6329C8.76463 14.6329 8.84145 14.6329 8.90291 14.6176C8.6878 14.2642 8.54952 13.8493 8.54952 13.4037C8.54952 12.2053 9.47141 11.2219 10.6545 11.1143Z" fill="#D0DAAD"/>
<path d="M45.086 29.0138C46.3589 29.0138 47.3907 27.9819 47.3907 26.709C47.3907 25.4362 46.3589 24.4043 45.086 24.4043C43.8131 24.4043 42.7812 25.4362 42.7812 26.709C42.7812 27.9819 43.8131 29.0138 45.086 29.0138Z" fill="#EDF1D3"/>
<path d="M47.0373 25.4806C46.6225 24.8352 45.9157 24.3896 45.086 24.3896C43.8107 24.3896 42.7812 25.4191 42.7812 26.6944C42.7812 27.9697 43.8107 28.9991 45.086 28.9991C45.1474 28.9991 45.2243 28.9991 45.2857 28.9838C45.0706 28.6304 44.9323 28.2155 44.9323 27.7699C44.9323 26.5715 45.8542 25.5881 47.0373 25.4806Z" fill="#D0DAAD"/>
<path d="M69.2579 59.6525C70.5307 59.6525 71.5626 58.6206 71.5626 57.3477C71.5626 56.0748 70.5307 55.043 69.2579 55.043C67.985 55.043 66.9531 56.0748 66.9531 57.3477C66.9531 58.6206 67.985 59.6525 69.2579 59.6525Z" fill="#EDF1D3"/>
<path d="M71.2092 56.1183C70.7943 55.4729 70.0876 55.0273 69.2579 55.0273C67.9826 55.0273 66.9531 56.0568 66.9531 57.3321C66.9531 58.6074 67.9826 59.6368 69.2579 59.6368C69.3193 59.6368 69.3961 59.6368 69.4576 59.6215C69.2425 59.2681 69.1042 58.8532 69.1042 58.4076C69.1042 57.2092 70.0261 56.2258 71.2092 56.1183Z" fill="#D0DAAD"/>
<path d="M70.515 19.7954C71.0221 19.7954 71.5138 19.611 71.8825 19.2422L73.2193 17.9362C73.6341 17.5367 73.9568 17.0758 74.2026 16.5534L75.9235 12.8505C76.1079 12.4664 75.9389 12.0054 75.5547 11.8364L67.3498 7.99518C66.9811 7.81081 66.4894 7.99518 66.3358 8.36394L64.6149 12.0669C64.369 12.5893 64.2308 13.1424 64.1847 13.7109L64.0464 15.57C64.0003 16.0925 64.1847 16.6149 64.5227 16.999L54.5969 38.2946L52.9375 37.5264C52.5534 37.342 52.0924 37.511 51.9234 37.8952C51.7544 38.2793 51.908 38.7402 52.2922 38.9092L53.9516 39.6775L52.369 43.0577L46.9298 40.5225C46.5457 40.3382 46.0847 40.5072 45.9157 40.8913L42.8734 47.3753C41.6903 49.9104 41.1525 52.6608 41.2601 55.3957C37.2345 54.3509 32.9937 56.3637 31.5033 59.283C29.1064 58.1306 26.8477 57.6543 24.7735 57.8233V52.799L29.0603 48.5123C31.8721 50.7402 35.8977 49.0961 38.1103 46.8836C40.9067 44.0872 42.4586 38.9707 41.5828 35.4521C41.5213 35.1756 41.2908 34.9605 41.0296 34.899C37.5264 34.0232 32.3945 35.5904 29.5981 38.3715C27.3701 40.584 25.7415 44.6403 27.9694 47.4213L24.7735 50.6172V35.2524C29.7517 34.8836 32.164 29.2601 32.1487 24.9119C32.1487 19.4574 28.6762 12.9427 24.4047 10.3767C24.1589 10.2231 23.8516 10.2231 23.6057 10.3767C19.3343 12.9427 15.8618 19.4727 15.8618 24.9119C15.8464 29.2601 18.2587 34.8836 23.237 35.2524V50.6633L19.995 47.4213C22.2229 44.6403 20.5942 40.584 18.3663 38.3715C15.5698 35.5751 10.4533 34.0232 6.93471 34.899C6.65814 34.9605 6.44303 35.1756 6.38157 35.4521C5.50577 38.9553 7.073 44.0872 9.85406 46.8836C12.082 49.1115 16.0922 50.7402 18.904 48.5123L23.237 52.8451V58.0845C19.9796 58.7452 17.3522 62.1101 16.8298 63.3086C14.0026 63.0474 11.79 63.6159 10.2075 64.9987C7.65687 67.5493 8.04099 69.5774 7.93344 70.5454H4.76825C4.33803 70.5454 4 70.8835 4 71.3137C4 71.7439 4.33803 72.0819 4.76825 72.0819H73.9107C74.3409 72.0819 74.6789 71.7439 74.6789 71.3137C74.6789 70.8835 74.3409 70.5454 73.9107 70.5454H70.0234C69.9619 69.5928 70.3153 67.5339 67.7801 64.9987C66.2128 63.6159 63.9695 63.0474 61.1424 63.3086C60.7275 62.5864 59.8364 61.2343 58.3921 60.0359C59.483 58.8067 60.4049 57.4085 61.1117 55.872L64.1232 49.4034C64.3076 49.0347 64.1232 48.543 63.7544 48.3893L58.3152 45.8541L59.8978 42.4739L61.6648 43.3036C62.556 43.7338 63.232 42.3202 62.3101 41.9054L60.5432 41.0757L70.4689 19.78C70.4997 19.78 70.4997 19.7954 70.515 19.7954ZM28.5533 43.2114C28.9527 41.7364 29.6749 40.4764 30.6736 39.4624C32.963 37.173 37.1884 35.7902 40.1845 36.2972C40.6916 39.278 39.3087 43.5187 37.0194 45.7927C35.3599 47.406 32.3638 48.9425 30.1512 47.406L32.7172 44.8401L36.4969 44.3484C36.9118 44.2869 37.2191 43.9028 37.1576 43.488C37.0962 43.0731 36.7121 42.7658 36.2972 42.8273L34.4995 43.0577L36.3587 41.1986C36.666 40.8913 36.666 40.415 36.3587 40.1077C36.0514 39.8004 35.5751 39.8004 35.2678 40.1077L33.4086 41.9668L33.6391 40.1691C33.7005 39.7543 33.3932 39.3702 32.9784 39.3087C32.5481 39.2473 32.1794 39.5546 32.1179 39.9694L31.6262 43.7492L29.0603 46.3151C28.4457 45.4239 28.2613 44.3023 28.5533 43.2114ZM18.8887 46.3304L16.3227 43.7645L15.831 39.9848C15.7696 39.5699 15.3855 39.2626 14.9706 39.3241C14.5557 39.3855 14.2484 39.7697 14.3099 40.1845L14.5404 41.9822L12.6812 40.1231C12.3739 39.8158 11.8976 39.8158 11.5903 40.1231C11.283 40.4304 11.283 40.9067 11.5903 41.214L13.4495 43.0731L11.6518 42.8426C11.2215 42.7812 10.8528 43.0885 10.7913 43.5033C10.7299 43.9182 11.0372 44.3023 11.452 44.3638L15.2318 44.8554L17.7978 47.4213C15.5852 48.9578 12.589 47.4213 10.9296 45.808C8.64023 43.5187 7.25738 39.2934 7.76442 36.2972C10.7452 35.7902 14.986 37.173 17.2753 39.4624C18.8887 41.1218 20.4252 44.1179 18.8887 46.3304ZM67.3959 9.71605L74.218 12.8966L73.4497 14.5099L66.6277 11.3294L67.3959 9.71605ZM19.0423 30.9042C17.9514 28.9835 17.3983 26.9708 17.3983 24.9119C17.3983 20.1949 20.3791 14.387 24.0052 11.9439C27.6314 14.4023 30.6122 20.1949 30.6122 24.9119C30.5814 28.4304 28.8605 33.2703 24.7735 33.7006V28.6302L28.1077 24.3126C28.3689 23.9746 28.3074 23.4983 27.9694 23.2371C27.6314 22.9759 27.155 23.0374 26.8938 23.3754L24.7735 26.1257V20.9938C24.7735 20.5636 24.4354 20.2256 24.0052 20.2256C23.575 20.2256 23.237 20.5636 23.237 20.9938V26.1257L21.1166 23.3754C20.8554 23.0374 20.3791 22.9759 20.041 23.2371C19.703 23.4983 19.6416 23.9746 19.9028 24.3126L23.237 28.6302V33.7006C21.47 33.4854 19.9335 32.4714 19.0423 30.9042ZM60.0054 64.4456C60.1437 64.7529 60.4663 64.9219 60.8044 64.8912C63.4164 64.5531 65.4139 64.968 66.7506 66.1357C68.7173 68.1331 68.4408 69.6235 68.4869 70.5147H9.4853C9.57749 69.685 9.23946 68.1792 11.2523 66.1357C12.5737 64.9834 14.5711 64.5531 17.1985 64.8912C17.5366 64.9373 17.8592 64.7529 17.9975 64.4302C18.0129 64.3995 19.5033 61.0039 22.9758 59.7593C25.4342 58.8835 28.292 59.2984 31.488 60.9731C31.8721 61.1882 32.3945 60.9885 32.5481 60.589C32.5174 60.42 34.5917 56.4405 39.0014 56.6863C43.6878 56.5788 45.3625 60.4354 45.424 60.589C45.5777 61.0039 46.1154 61.1882 46.4996 60.9731C49.5265 59.3291 52.2922 58.9142 54.7198 59.7132C58.2999 60.8963 59.99 64.4149 60.0054 64.4456ZM62.4177 49.4495L59.7288 55.2267C59.0528 56.671 58.1769 57.977 57.1321 59.1447C56.5636 58.8067 55.9183 58.4994 55.2269 58.2689C52.5687 57.3931 49.634 57.7312 46.4688 59.283C46.1923 58.8067 45.7467 58.1614 45.1013 57.5314C44.5482 56.9936 43.8107 56.4098 42.8427 55.9488C42.6429 53.26 43.1193 50.5404 44.287 48.0359L46.9759 42.2588L51.7083 44.4713L50.2179 47.6825C50.1411 47.8362 50.1257 48.0052 50.1718 48.1742L51.1244 52.2766C51.2166 52.7529 51.8158 53.0295 52.2461 52.7837L55.8876 50.817C56.0259 50.7402 56.1488 50.6172 56.2102 50.4636L57.7006 47.2523L62.4177 49.4495ZM54.9042 49.5724L52.3843 50.9399L51.7237 48.0667L55.3344 40.3228L58.5303 41.8132L54.9042 49.5724ZM59.1603 40.4304L55.9644 38.94L65.8287 17.7979L67.4267 18.5355L69.0246 19.273L59.1603 40.4304ZM65.798 16.0925C65.6443 16.0156 65.5368 15.8466 65.5521 15.6776L65.6904 13.8185C65.7212 13.4343 65.8133 13.0656 65.9824 12.7276L72.8044 15.9081C72.6354 16.2615 72.4203 16.5688 72.1437 16.83L70.807 18.136C70.684 18.2589 70.4997 18.2896 70.3307 18.2128L65.798 16.0925Z" fill="#333333"/>
<path d="M10.3574 58.991C8.66726 58.991 7.28441 57.6081 7.28441 55.918C7.28441 54.2279 8.66726 52.845 10.3574 52.845C12.0475 52.845 13.4304 54.2279 13.4304 55.918C13.4304 57.6081 12.0475 58.991 10.3574 58.991ZM10.3574 54.3815C9.51233 54.3815 8.8209 55.0729 8.8209 55.918C8.8209 56.7631 9.51233 57.4545 10.3574 57.4545C11.2025 57.4545 11.8939 56.7631 11.8939 55.918C11.8939 55.0729 11.2025 54.3815 10.3574 54.3815ZM8.69799 15.4008C7.00784 15.4008 5.625 14.018 5.625 12.3279C5.625 10.6377 7.00784 9.25488 8.69799 9.25488C10.3881 9.25488 11.771 10.6377 11.771 12.3279C11.771 14.018 10.3881 15.4008 8.69799 15.4008ZM8.69799 10.7914C7.85291 10.7914 7.16149 11.4828 7.16149 12.3279C7.16149 13.1729 7.85291 13.8643 8.69799 13.8643C9.54306 13.8643 10.2345 13.1729 10.2345 12.3279C10.2345 11.4828 9.54306 10.7914 8.69799 10.7914ZM45.0821 29.7823C43.392 29.7823 42.0091 28.3995 42.0091 26.7094C42.0091 25.0192 43.392 23.6364 45.0821 23.6364C46.7723 23.6364 48.1551 25.0192 48.1551 26.7094C48.1551 28.3995 46.7723 29.7823 45.0821 29.7823ZM45.0821 25.1729C44.2371 25.1729 43.5456 25.8643 43.5456 26.7094C43.5456 27.5544 44.2371 28.2459 45.0821 28.2459C45.9272 28.2459 46.6186 27.5544 46.6186 26.7094C46.6186 25.8643 45.9272 25.1729 45.0821 25.1729ZM69.2512 60.4199C67.561 60.4199 66.1782 59.0371 66.1782 57.3469C66.1782 55.6568 67.561 54.2739 69.2512 54.2739C70.9413 54.2739 72.3242 55.6568 72.3242 57.3469C72.3242 59.0371 70.9413 60.4199 69.2512 60.4199ZM69.2512 55.8104C68.4061 55.8104 67.7147 56.5019 67.7147 57.3469C67.7147 58.192 68.4061 58.8834 69.2512 58.8834C70.0962 58.8834 70.7877 58.192 70.7877 57.3469C70.7877 56.5019 70.0962 55.8104 69.2512 55.8104Z" fill="#333333"/>
</svg>
