<svg width="80" height="80" viewBox="0 0 80 80" fill="none" xmlns="http://www.w3.org/2000/svg">
<path fill-rule="evenodd" clip-rule="evenodd" d="M22.0153 34.9744C23.0222 38.3221 20.58 41.712 17.0857 41.8167C16.0787 38.469 18.5211 35.0792 22.0153 34.9744ZM8.69531 40.9687C10.5321 43.9407 14.6913 44.3612 17.0857 41.8167C15.2488 38.8447 11.0897 38.4242 8.69531 40.9687ZM18.9419 27.433C18.8611 30.5557 15.8409 32.7508 12.8457 31.8632C12.9265 28.7404 15.9467 26.5455 18.9419 27.433Z" fill="#479838"/>
<path fill-rule="evenodd" clip-rule="evenodd" d="M5.96094 28.7989C6.6883 31.8297 10.1072 33.3513 12.8457 31.8633C12.1184 28.8325 8.6995 27.3109 5.96094 28.7989ZM12.7448 14.7676C14.1509 16.0426 14.9694 17.934 14.8013 19.9717C14.6331 22.0095 13.5157 23.7412 11.9197 24.7685C10.5137 23.4935 9.69502 21.6021 9.86318 19.5644C10.0313 17.5265 11.1489 15.7949 12.7448 14.7676ZM56.7464 34.9745C55.7395 38.322 58.1818 41.7121 61.676 41.8167C62.6829 38.469 60.2406 35.0793 56.7464 34.9745ZM70.0664 40.9687C68.2296 43.9407 64.0704 44.3612 61.676 41.8167C63.5128 38.8447 67.672 38.4242 70.0664 40.9687ZM59.8198 27.433C59.9006 30.5557 62.9208 32.7508 65.916 31.8633C65.8352 28.7404 62.815 26.5455 59.8198 27.433Z" fill="#479838"/>
<path fill-rule="evenodd" clip-rule="evenodd" d="M72.7996 28.7989C72.0722 31.8297 68.6533 33.3513 65.9148 31.8633C66.6423 28.8325 70.061 27.3109 72.7996 28.7989ZM66.0157 14.7676C64.6096 16.0426 63.7911 17.934 63.9592 19.9717C64.1274 22.0095 65.2448 23.7412 66.8407 24.7685C68.2468 23.4935 69.0653 21.6021 68.8973 19.5644C68.7292 17.5265 67.6117 15.7949 66.0157 14.7676Z" fill="#479838"/>
<path fill-rule="evenodd" clip-rule="evenodd" d="M37.9508 14.1628C32.1383 24.6892 31.4394 40.3289 31.4951 56.7233H49.2954C49.3511 40.3289 48.6522 24.6892 42.8397 14.1628C41.7751 12.2348 39.0156 12.2348 37.9508 14.1628Z" fill="#FFBF31"/>
<path fill-rule="evenodd" clip-rule="evenodd" d="M33.3794 57.5532C30.2523 48.8626 28.0949 40.1889 26.9922 31.5332C35.624 38.0327 39.6322 47.8177 41.5728 59.0714L33.3794 57.5532Z" fill="#479838"/>
<path fill-rule="evenodd" clip-rule="evenodd" d="M39.6875 59.0935L51.0483 58.5177C50.7208 54.2734 48.9337 30.6513 51.7457 28.2398C52.3472 27.7239 53.119 27.391 54.0325 27.21C53.5217 26.7046 52.9841 26.3046 52.4117 26.0414C50.6979 25.2534 48.66 26.0579 47.2667 27.1599C40.4224 32.5739 39.9504 50.2291 39.6875 59.0935Z" fill="#479838"/>
<path fill-rule="evenodd" clip-rule="evenodd" d="M57.8192 54.9238H74.0365L68.7486 60.9707L74.0365 67.0176H57.8192V54.9238ZM28.8005 67.0176H7.54688L12.8347 60.9707L7.54688 54.9238H28.8005V67.0176Z" fill="#CC8769"/>
<path fill-rule="evenodd" clip-rule="evenodd" d="M19.6875 63.469C24.6728 61.594 30.0099 61.8609 35.7837 64.785C41.9101 68.074 48.216 68.1735 54.7187 64.785C56.8403 63.6186 58.9667 62.845 61.0984 62.4655V50.2146C58.9669 50.5942 56.8403 51.3678 54.7187 52.5342C48.216 55.9226 41.9101 55.8231 35.7837 52.5342C30.0099 49.6102 24.6728 49.3433 19.6875 51.2182V63.469Z" fill="#CC8769"/>
<path fill-rule="evenodd" clip-rule="evenodd" d="M70.1618 60.9692L74.8335 55.6232C74.9703 55.4709 75.0591 55.2816 75.0889 55.0791C75.1187 54.8765 75.0881 54.6696 75.001 54.4844C74.8335 54.1026 74.4456 53.8586 74.0314 53.8586H62.1583V50.2138C62.1583 49.8991 62.0261 49.6004 61.788 49.3984C61.5501 49.1957 61.2239 49.1111 60.9154 49.1658C58.6853 49.565 56.4288 50.3831 54.2163 51.5959C53.3789 52.0322 52.5504 52.4085 51.713 52.7258C51.7042 52.5328 51.6866 52.3397 51.6778 52.1503C55.2741 49.7607 58.9674 47.0943 61.8496 43.3728C62.925 44.1388 64.2031 44.5532 65.5341 44.5532C65.7544 44.5532 65.9659 44.5416 66.1864 44.5188C68.1784 44.3178 69.9237 43.2274 70.9726 41.5263C71.0972 41.3277 71.1518 41.0933 71.1279 40.8601C71.1039 40.627 71.0028 40.4085 70.8405 40.2394C69.4743 38.785 67.5438 38.0648 65.5606 38.265C65.3315 38.288 65.111 38.324 64.8819 38.37C65.6224 36.8 66.2042 35.1183 66.68 33.3026C67.1681 33.4374 67.6722 33.5056 68.1786 33.5053C68.9807 33.5053 69.7827 33.337 70.5496 32.9967C72.2155 32.2544 73.4144 30.8151 73.8374 29.0469C73.9432 28.5789 73.7317 28.0949 73.3175 27.864C71.7131 26.9959 69.8445 26.9236 68.1786 27.6639C67.9935 27.7468 67.8083 27.8375 67.6498 27.9354C67.7467 27.0672 67.8173 26.1698 67.8789 25.2461C69.3773 23.7116 70.1442 21.6357 69.959 19.4752C69.7739 17.1693 68.5488 15.128 66.592 13.8736C66.1866 13.6119 65.6576 13.6559 65.3051 13.9786C63.5863 15.5362 62.7048 17.753 62.9075 20.0588C63.0751 22.1514 64.0975 24.0236 65.7458 25.2901C65.6876 26.2265 65.5994 27.1607 65.4813 28.0914C65.2116 27.7901 64.9102 27.5188 64.5822 27.2823C63.119 26.2122 61.268 25.8957 59.5139 26.4132C59.0557 26.5506 58.747 26.9791 58.7558 27.4612C58.8088 29.2823 59.6814 30.942 61.1446 32.012C62.1582 32.741 63.3306 33.12 64.5382 33.1253C64.0271 35.0204 63.3835 36.6996 62.6255 38.2165C62.4315 37.634 62.1407 37.0751 61.7616 36.5576C60.5893 34.9367 58.7734 33.9706 56.7814 33.9124C56.3055 33.8965 55.8648 34.2076 55.7325 34.6687C55.1595 36.5832 55.4858 38.6104 56.6581 40.2333C57.4602 41.3396 58.5531 42.1381 59.8048 42.5551C57.5395 45.322 54.7277 47.5071 51.5368 49.6799C50.5848 31.234 52.2331 29.2215 52.4358 29.0452C52.8765 28.6696 53.4848 28.4018 54.2339 28.2536C54.6306 28.176 54.939 27.8922 55.0448 27.5159C55.1682 27.1376 55.0624 26.7296 54.7803 26.4528C54.1634 25.8402 53.5111 25.3767 52.8499 25.0733C51.2458 24.3348 49.4741 24.682 48.0197 25.4205C46.9795 20.8096 45.5957 16.9445 43.78 13.6471C43.0837 12.3972 41.8232 11.6533 40.3952 11.6533C38.976 11.6533 37.7067 12.3973 37.0192 13.648C34.2162 18.7437 32.3475 25.4064 31.3691 33.9653C30.2061 32.7801 28.9569 31.6827 27.6318 30.682C27.288 30.4255 26.8298 30.3973 26.4595 30.6141C26.0893 30.8266 25.8866 31.2434 25.9395 31.6656C26.68 37.4506 27.9051 43.3685 29.5974 49.2884C28.4748 49.0836 27.3362 48.9782 26.195 48.9736C23.3656 46.9762 20.9416 44.9445 18.976 42.5479C20.2189 42.1309 21.3118 41.3333 22.1051 40.2332C23.2774 38.6104 23.6125 36.5831 23.0306 34.6685C22.8984 34.2076 22.4664 33.8981 21.9816 33.9122C19.9896 33.9704 18.1738 34.9365 17.0014 36.5575C16.636 37.0633 16.3451 37.619 16.1376 38.2076C15.3707 36.6808 14.7362 35.0018 14.2248 33.1252C15.4323 33.1207 16.6134 32.7408 17.6184 32.0119C19.0816 30.9418 19.963 29.2821 20.007 27.461C20.0246 26.9788 19.7074 26.5504 19.249 26.413C17.4949 25.8956 15.6526 26.212 14.1806 27.2839C13.8524 27.5193 13.5509 27.7901 13.2816 28.0912C13.167 27.1975 13.0877 26.264 13.0171 25.2909C14.6654 24.0234 15.6878 22.1512 15.8642 20.0586C16.0581 17.7509 15.1766 15.5359 13.4578 13.9784C13.1053 13.6559 12.5763 13.6127 12.1709 13.8735C10.2229 15.1277 8.99777 17.1692 8.80385 19.4751C8.62753 21.6356 9.38561 23.7114 10.884 25.246C10.9458 26.1749 11.0162 27.0696 11.1219 27.9352C10.9544 27.8356 10.7693 27.7466 10.5931 27.6637C8.92721 26.9232 7.04977 26.9956 5.45425 27.8639C5.03121 28.0948 4.81953 28.5788 4.92545 29.0468C5.35729 30.8149 6.54737 32.256 8.22209 32.9965C8.96463 33.3313 9.76979 33.5047 10.5843 33.5052C11.0955 33.5052 11.5979 33.4364 12.0827 33.3024C12.5675 35.1535 13.1581 36.8309 13.872 38.3698C13.6508 38.3224 13.4272 38.2874 13.2021 38.2648C11.2189 38.0648 9.28849 38.7848 7.92225 40.2392C7.75916 40.4085 7.6582 40.6281 7.6358 40.862C7.6134 41.096 7.67088 41.3307 7.79889 41.5279C8.84785 43.2282 10.5843 44.3176 12.5763 44.5186C14.1169 44.6804 15.6632 44.2711 16.9219 43.3684C18.6318 45.557 20.6504 47.4503 22.9686 49.2327C21.7346 49.4399 20.5182 49.7703 19.3107 50.2216C18.9053 50.3776 18.632 50.7743 18.632 51.2168V53.8584H7.54385C7.12961 53.8584 6.75057 54.1026 6.57425 54.4842C6.40673 54.8623 6.46849 55.3084 6.75057 55.6231L11.4222 60.969L6.75057 66.3159C6.46849 66.6306 6.40689 67.0765 6.57425 67.4573C6.75057 67.8364 7.12961 68.0805 7.54385 68.0805H28.8043C29.3773 68.0805 29.8621 67.6055 29.8621 67.0167V63.7429C31.6338 64.1335 33.4408 64.7927 35.2918 65.7271C38.5531 67.4741 41.8586 68.3468 45.1816 68.3468C48.5135 68.3468 51.863 67.4741 55.2213 65.7271C55.2213 65.7228 55.2301 65.72 55.2389 65.7165C55.7413 65.438 56.2525 65.184 56.755 64.9514V67.0167C56.755 67.1566 56.7826 67.2952 56.8362 67.4245C56.8898 67.5538 56.9684 67.6712 57.0675 67.77C57.1665 67.8689 57.2842 67.9472 57.4136 68.0005C57.543 68.0537 57.6817 68.0809 57.8216 68.0805H74.0314C74.4456 68.0805 74.8335 67.8364 75.001 67.4573C75.1773 67.0765 75.1155 66.6306 74.8335 66.3159L70.1618 60.9692ZM69.0423 29.61C69.8179 29.2636 70.6642 29.1957 71.4575 29.3994C71.0664 30.135 70.4393 30.7178 69.677 31.0538C68.9101 31.3984 68.0639 31.4663 67.2706 31.26C67.6496 30.5346 68.2666 29.9548 69.0423 29.61ZM65.7722 40.3821C66.7782 40.2768 67.7886 40.5365 68.6192 41.1138C67.9317 41.842 66.9973 42.2994 65.9749 42.4034C64.9523 42.5064 63.9475 42.2429 63.1278 41.67C63.8154 40.9436 64.7496 40.4853 65.7722 40.3821ZM66.1423 16.1909C67.1207 17.0804 67.7288 18.3029 67.8435 19.6516C67.9493 21.002 67.5438 22.3064 66.724 23.3431C65.7456 22.4554 65.1287 21.2328 65.0229 19.8844C64.9073 18.5551 65.3082 17.2324 66.1423 16.1909ZM62.405 30.2904C61.7174 29.7924 61.2326 29.0952 61.0211 28.302C61.8408 28.265 62.6518 28.5064 63.3394 29.0045C64.0138 29.4906 64.5021 30.1925 64.7232 30.994C63.8928 31.0313 63.0746 30.783 62.405 30.2904ZM58.3944 38.9912C57.7862 38.1557 57.513 37.156 57.6011 36.1548C58.5832 36.3943 59.4465 36.9787 60.0339 37.8013C60.6421 38.636 60.9066 39.6348 60.8272 40.6343C59.8488 40.3989 58.985 39.826 58.3944 38.9912ZM9.08641 31.0538C8.31073 30.71 7.69377 30.1274 7.31473 29.3994C8.11743 29.1935 8.96637 29.2678 9.72113 29.61C10.4968 29.9546 11.1138 30.5346 11.5016 31.26C10.7083 31.4663 9.86209 31.3984 9.08641 31.0538ZM18.7294 37.8013C19.3169 36.9787 20.1802 36.3944 21.1622 36.1548C21.2504 37.1543 20.9771 38.153 20.3778 38.9912C19.7883 39.8151 18.9214 40.3985 17.9362 40.6343C17.8568 39.6346 18.1301 38.636 18.7294 37.8013ZM15.4328 29.0045C16.1115 28.5064 16.9224 28.265 17.7421 28.302C17.5306 29.0952 17.0458 29.7925 16.3582 30.2922C15.6887 30.7847 14.8703 31.0323 14.04 30.9938C14.2614 30.1901 14.7534 29.4875 15.4328 29.0045ZM10.9286 19.6514C11.0344 18.3028 11.6427 17.0802 12.621 16.1908C13.4551 17.2322 13.856 18.5548 13.7405 19.884C13.6347 21.2327 13.0264 22.4552 12.0392 23.3428C11.2109 22.2994 10.8135 20.9786 10.9286 19.6514ZM12.7885 42.4032C11.7661 42.2992 10.8405 41.8418 10.1442 41.1136C10.9748 40.5364 11.9852 40.2767 12.9912 40.382C14.0226 40.4852 14.948 40.9434 15.6355 41.6698C14.8158 42.2429 13.811 42.5064 12.7885 42.4032ZM51.7659 26.9234C51.5102 27.0759 51.2635 27.2442 51.052 27.432C50.1794 28.1751 49.1834 30.1434 49.1216 38.8423C49.104 43.0583 49.2979 47.8232 49.5182 51.6903V51.6938C49.5535 52.2853 49.5888 52.8564 49.624 53.4012C46.7064 54.1663 43.8242 54.1794 40.9506 53.4452C41.2327 47.4408 42.1581 32.5612 47.9229 27.9935C48.9717 27.1676 50.4966 26.4808 51.7659 26.9234ZM35.1067 38.5399H36.7021L36.5963 40.9197C36.1291 40.0975 35.6267 39.306 35.1067 38.5399ZM38.8264 38.5399H40.5453C39.9811 41.141 39.5845 43.8893 39.3112 46.5936C39.0821 45.989 38.8264 45.3984 38.5709 44.8184L38.8264 38.5399ZM45.8779 25.5554H43.5597L43.4275 22.2535H45.0053C45.3226 23.306 45.6046 24.4052 45.8779 25.5554ZM43.736 29.7247L43.6479 27.6824H45.1992C44.6614 28.294 44.1768 28.9797 43.736 29.7247ZM41.4354 25.5554H39.3552L39.4963 22.2535H41.3032L41.4354 25.5554ZM37.2309 25.5554H34.9304C35.1862 24.4466 35.4742 23.3455 35.7942 22.2535H37.3632L37.2309 25.5554ZM37.1339 27.6823L37.0106 30.9842H33.9078C34.0754 29.8453 34.2693 28.7463 34.472 27.6823H37.1339ZM39.267 27.6823H41.5235L41.6645 30.9842H39.1347L39.267 27.6823ZM41.744 33.1111L41.7792 34.0516C41.5098 34.8291 41.2716 35.6172 41.0653 36.4138H38.9146L39.0467 33.1111H41.744ZM44.3178 20.1284H43.3394L43.2336 17.3572C43.6321 18.2659 43.9938 19.1904 44.3178 20.1284ZM40.9595 13.8754L41.215 20.1284H39.5755L39.8312 13.8754C40.0163 13.8146 40.2015 13.7792 40.3954 13.7792C40.5893 13.7792 40.7832 13.8146 40.9595 13.8754ZM37.5659 17.365L37.4426 20.1284H36.4818C36.8051 19.1927 37.1667 18.2708 37.5659 17.365ZM33.617 33.1111H36.9224L36.7902 36.4138H33.5378C33.4496 36.3088 33.3702 36.204 33.2821 36.1008C33.3878 35.0794 33.4848 34.0799 33.617 33.1111ZM28.4253 34.0887C33.2645 38.4439 36.7021 44.3391 38.9056 52.0199C38.888 52.2738 38.8704 52.5258 38.8614 52.7752C37.9815 52.4388 37.1247 52.0449 36.2965 51.5959C36.2877 51.5924 36.2789 51.5879 36.2701 51.5844C34.8245 50.8554 33.3966 50.2799 31.9774 49.8549C30.4174 44.5716 29.2186 39.2812 28.4253 34.0887ZM27.7378 65.9528H9.88849L13.6346 61.67C13.9782 61.2688 13.9782 60.6722 13.6346 60.272L9.88849 55.9864H18.6323V63.4682C18.6319 63.6394 18.6725 63.8082 18.7507 63.9605C18.8289 64.1128 18.9425 64.2441 19.0819 64.3434C19.3728 64.5418 19.743 64.5876 20.0603 64.465C22.5901 63.514 25.1286 63.1631 27.7378 63.4117V65.9528ZM54.2163 63.8453C48.0902 67.0352 42.2286 67.0352 36.2965 63.848C36.2882 63.8428 36.2794 63.8387 36.2701 63.8357C32.8325 62.0932 29.4213 61.2205 26.107 61.2205C24.3 61.2205 22.5107 61.4778 20.7566 61.9927V51.9688C22.4226 51.4152 24.0885 51.1218 25.781 51.0866C25.8074 51.0874 25.8339 51.0927 25.8603 51.0927C25.9045 51.0927 25.9397 51.0892 25.9837 51.0839C29.007 51.0592 32.0834 51.8525 35.2917 53.4762C41.8056 56.9693 48.5133 56.9693 55.2211 53.4762C55.2211 53.4735 55.2299 53.4692 55.2387 53.4647C56.8342 52.5885 58.4384 51.9415 60.0338 51.5335V61.5951C58.0947 62.0357 56.1379 62.7903 54.2163 63.8453ZM58.8792 65.9528V64.1204C59.6901 63.8586 60.4923 63.6541 61.2856 63.5122C61.7968 63.4213 62.1583 62.9807 62.1583 62.4642V55.9864H71.6954L67.9493 60.272C67.7789 60.465 67.6848 60.7136 67.6848 60.971C67.6848 61.2284 67.7789 61.477 67.9493 61.67L71.6954 65.9528H58.8792Z" fill="#1E2F3F"/>
</svg>
