<svg width="80" height="80" viewBox="0 0 80 80" fill="none" xmlns="http://www.w3.org/2000/svg">
<path fill-rule="evenodd" clip-rule="evenodd" d="M19.1797 12.3011C23.4575 12.0733 27.7944 13.6919 30.9036 17.1048C34.0128 20.5164 35.225 24.9897 34.5992 29.2267C30.3214 29.4573 24.702 30.1675 22.8711 24.423C21.4747 19.1017 22.3409 16.1809 19.1797 12.3011ZM63.3345 4.07031C64.032 9.12859 62.533 14.4498 58.7867 18.4802C55.0391 22.5147 49.8416 24.3963 44.7467 24.0686C44.0492 19.0103 42.6458 12.3967 49.2945 9.65875C55.482 7.47484 59.0413 8.21172 63.3345 4.07031Z" fill="#70DA40"/>
<path d="M52.1701 15.2748C52.7326 14.9795 53.4344 15.1947 53.7283 15.7614C54.0278 16.3281 53.8126 17.0256 53.2459 17.3237C49.6108 19.2334 46.3342 22.8405 44.1461 27.6681C42.1773 32.0176 41.0973 37.3431 41.4348 43.3056L41.4545 43.6164C41.4939 44.2548 41.0087 44.8047 40.3703 44.844C39.7319 44.8834 39.182 44.3983 39.1426 43.7598C39.1342 43.6037 39.1272 43.4448 39.1145 43.2901C38.8361 39.5551 37.2175 35.5291 35.0603 32.0092C32.4855 27.8073 29.192 24.3831 26.53 23.0767C25.9562 22.7983 25.7214 22.1078 25.9998 21.5341C26.2783 20.9645 26.973 20.7255 27.5425 21.0039C30.58 22.4903 34.2433 26.2492 37.0333 30.8055C37.9544 32.3087 38.7826 33.9034 39.4731 35.5375C39.9555 32.313 40.8442 29.3542 42.0367 26.7203C44.4414 21.4103 48.0934 17.4152 52.1701 15.2748Z" fill="#986B54"/>
<path fill-rule="evenodd" clip-rule="evenodd" d="M70.0814 63.4018C70.0814 61.4569 70.1419 59.491 70.1419 57.5616C70.1419 55.441 68.4277 53.7225 66.307 53.7225C65.0316 53.7225 63.9037 54.3483 63.2062 55.3046C62.4216 52.921 60.1814 51.2025 57.5377 51.2025C56.6334 51.2025 55.7714 51.4064 55.0022 51.765C55.0416 51.4866 55.0655 51.1983 55.0655 50.9044C55.0655 47.6124 52.395 44.9405 49.1016 44.9405C47.5462 44.9405 46.1316 45.5339 45.0712 46.5071C42.7509 42.7763 37.2581 42.7763 34.9378 46.5071C33.839 45.497 32.4001 44.9377 30.9075 44.9405C27.6155 44.9405 24.9436 47.611 24.9436 50.9044C24.9436 51.1997 24.9675 51.4866 25.0069 51.765C24.2377 51.4064 23.3798 51.2025 22.4714 51.2025C19.8291 51.2025 17.5889 52.921 16.807 55.3046C16.1095 54.3483 14.9775 53.7225 13.702 53.7225C11.5856 53.7225 9.86719 55.441 9.86719 57.5616C9.86719 59.491 9.92766 61.4555 9.92766 63.4018H70.0814Z" fill="#664545"/>
<path fill-rule="evenodd" clip-rule="evenodd" d="M40.0049 50.873C46.925 50.873 52.5331 56.4812 52.5331 63.4013C52.5331 70.3215 46.925 75.9296 40.0049 75.9296C33.0847 75.9296 27.4766 70.3215 27.4766 63.4013C27.4766 56.4812 33.0847 50.873 40.0049 50.873Z" fill="#E2E7F0"/>
<path d="M35.1185 60.4902C35.2451 60.4067 35.3869 60.3491 35.5359 60.3205C35.6848 60.2919 35.838 60.293 35.9865 60.3237C36.135 60.3544 36.276 60.4141 36.4014 60.4994C36.5268 60.5847 36.6342 60.6938 36.7174 60.8207C36.8008 60.9473 36.8585 61.0891 36.8871 61.2381C36.9156 61.387 36.9145 61.5402 36.8838 61.6887C36.8531 61.8372 36.7934 61.9782 36.7082 62.1036C36.6229 62.229 36.5137 62.3364 36.3869 62.4196L33.4253 64.3644C32.8952 64.7146 32.178 64.5641 31.8264 64.0339L29.8858 61.0724C29.5357 60.538 29.6819 59.825 30.2121 59.4735C30.7464 59.1233 31.4636 59.2696 31.811 59.8039L32.1977 60.3861C32.6716 59.15 33.438 58.0546 34.4055 57.1813C35.8877 55.8454 37.8494 55.0283 40.0024 55.0283C41.3932 55.0283 42.7094 55.3757 43.8724 55.9804C45.0803 56.6146 46.1083 57.523 46.8733 58.6227C47.2403 59.1486 47.1081 59.87 46.5864 60.2371C46.0605 60.5999 45.3391 60.4719 44.9721 59.946C44.4138 59.1402 43.6685 58.4793 42.8036 58.0293C41.9711 57.5947 41.0177 57.3472 40.001 57.3472C38.4428 57.3472 37.0239 57.9336 35.951 58.8983C35.3285 59.4597 34.8291 60.1439 34.4843 60.9079L35.1185 60.4902ZM47.8099 66.4147C47.3275 67.6663 46.5499 68.7744 45.5655 69.6519C44.0861 70.9668 42.1371 71.7683 40.001 71.7683C38.6102 71.7683 37.2939 71.4252 36.131 70.8163C34.9272 70.1863 33.895 69.2779 33.13 68.1739C32.763 67.6522 32.8952 66.9308 33.4211 66.5638C33.9428 66.1968 34.6643 66.3289 35.0313 66.8549C35.5896 67.6607 36.3349 68.3174 37.1997 68.7716C38.0322 69.2061 38.9857 69.4536 40.0024 69.4536C41.5492 69.4536 42.9597 68.8757 44.0285 67.9222C44.6585 67.3597 45.1689 66.6707 45.5191 65.893L44.8849 66.3121C44.3505 66.6594 43.6375 66.5118 43.286 65.9816C43.2025 65.855 43.1448 65.7131 43.1163 65.5642C43.0877 65.4152 43.0888 65.2621 43.1195 65.1136C43.1502 64.9651 43.2099 64.8241 43.2952 64.6986C43.3804 64.5732 43.4896 64.4659 43.6164 64.3827L46.578 62.4379C47.1081 62.0877 47.8253 62.2339 48.1769 62.7683L50.1217 65.7299C50.4691 66.26 50.3214 66.9772 49.7913 67.3288C49.2569 67.6789 48.5439 67.5285 48.1924 66.9983L47.8099 66.4147Z" fill="#70DA40"/>
<path fill-rule="evenodd" clip-rule="evenodd" d="M61.5192 29.7734H66.247V34.9513H71.4262V39.6791H66.247V44.8611H61.5192V39.6791H56.3414V34.9513H61.5192V29.7734ZM13.7573 29.7734H18.4852V34.9513H23.6672V39.6791H18.4852V44.8611H13.7573V39.6791H8.57812V34.9513H13.7573V29.7734Z" fill="#70DA40"/>
<path d="M63.8815 58.5457C64.4595 58.8171 64.7112 59.502 64.4398 60.0799C64.1684 60.6579 63.4836 60.9054 62.9056 60.6382C62.8297 60.6016 62.7537 60.5749 62.675 60.558C62.6075 60.5426 62.5273 60.5341 62.4275 60.5341C62.2447 60.5341 62.0689 60.5777 61.9212 60.6537C61.7581 60.738 61.6189 60.8534 61.519 60.9926C61.145 61.5073 60.4222 61.6226 59.9047 61.2471C59.7093 61.1017 59.563 60.9001 59.4856 60.6691V60.6734C59.3267 60.191 59.0187 59.7804 58.6123 59.4851C58.2256 59.2024 57.7433 59.0393 57.2215 59.0393C57.0261 59.0393 56.8503 59.0548 56.6956 59.0913C56.5283 59.1279 56.3609 59.187 56.2048 59.2587C55.6269 59.5301 54.9406 59.2784 54.6706 58.7046C54.5708 58.4937 54.5426 58.2659 54.5708 58.0507C54.5792 57.9944 54.582 57.9396 54.5905 57.8749C54.5905 57.8355 54.5947 57.7751 54.5947 57.7034C54.5947 57.356 54.5229 57.0298 54.3908 56.7387C54.2558 56.4321 54.0603 56.1607 53.8128 55.9371C53.3431 55.5068 53.3065 54.7769 53.7369 54.303C54.1672 53.8334 54.9012 53.7968 55.3709 54.2271C55.8533 54.6659 56.2442 55.2002 56.5114 55.8063C56.6436 56.1016 56.742 56.4166 56.8109 56.7387C56.9459 56.7274 57.0865 56.719 57.2215 56.719C58.2467 56.719 59.1987 57.0494 59.9722 57.6119C60.3385 57.8776 60.6648 58.1944 60.9411 58.5527C61.3911 58.3376 61.8973 58.218 62.4275 58.218C62.6708 58.218 62.9183 58.2462 63.1728 58.3024C63.4189 58.3587 63.6579 58.4416 63.8815 58.5457ZM17.1027 60.6382C16.5289 60.9054 15.8384 60.6579 15.5684 60.0799C15.3012 59.502 15.5487 58.8157 16.1267 58.5457C16.3503 58.4416 16.5894 58.3587 16.8369 58.3024C17.0914 58.2462 17.3431 58.218 17.5822 58.218C18.1123 58.218 18.6186 58.3376 19.0686 58.5527C19.3449 58.1944 19.6712 57.8776 20.0375 57.6119C20.8152 57.0494 21.763 56.719 22.7923 56.719C22.9273 56.719 23.0637 56.7274 23.1987 56.7387C23.2662 56.4152 23.3703 56.1002 23.4983 55.8063C23.7655 55.2002 24.1564 54.6659 24.6387 54.2271C24.8656 54.0207 25.1651 53.9128 25.4715 53.927C25.7779 53.9413 26.0661 54.0765 26.2728 54.303C26.4792 54.5299 26.5871 54.8294 26.5729 55.1358C26.5586 55.4422 26.4234 55.7304 26.1969 55.9371C25.9536 56.1607 25.7539 56.4307 25.6189 56.7387C25.4909 57.0298 25.415 57.356 25.415 57.7034C25.415 57.7751 25.4192 57.8355 25.4234 57.8749C25.4277 57.9382 25.4319 57.9944 25.4389 58.0507C25.467 58.2659 25.4389 58.4937 25.3391 58.7046C25.0719 59.2784 24.3828 59.5301 23.8048 59.2587C23.6487 59.187 23.4814 59.1265 23.3141 59.0913C23.158 59.0548 22.9836 59.0393 22.7923 59.0393C22.2664 59.0393 21.7883 59.2024 21.3973 59.4851C20.9909 59.7804 20.6844 60.191 20.5241 60.6734V60.6691C20.4523 60.8927 20.3089 61.0952 20.105 61.2471C19.5903 61.6212 18.8689 61.5059 18.4948 60.9926C18.3908 60.8534 18.2558 60.738 18.0927 60.6537C17.9408 60.5777 17.7692 60.5341 17.5822 60.5341C17.4866 60.5341 17.4022 60.5426 17.3347 60.558C17.2545 60.5749 17.1786 60.603 17.1027 60.6382Z" fill="#533838"/>
<path fill-rule="evenodd" clip-rule="evenodd" d="M30.3839 61.839L29.8819 61.074C29.5317 60.5396 29.678 59.8266 30.2081 59.4751C30.443 59.319 30.7144 59.2641 30.9773 59.2923C32.5284 54.8162 36.5461 51.4946 41.4047 50.949C40.942 50.897 40.4766 50.873 39.997 50.873C33.0769 50.873 27.4688 56.4812 27.4688 63.4013C27.4688 70.3215 33.0783 75.9296 39.9984 75.9296C40.4766 75.9296 40.9434 75.9015 41.4061 75.8495C35.1511 75.152 30.2883 69.842 30.2883 63.3999C30.2883 62.8712 30.3192 62.3481 30.3839 61.839Z" fill="#CBD0D8"/>
<path fill-rule="evenodd" clip-rule="evenodd" d="M13.7573 39.6794H15.4041V44.8614H13.7573V39.6794ZM13.7573 29.7737H15.4041V34.9516H13.7573V29.7737ZM8.57812 34.9516H10.2248V39.6794H8.57812V34.9516ZM56.3414 34.9516H57.9839V39.6794H56.3414V34.9516ZM61.5192 29.7737H63.166V34.9516H61.5192V29.7737ZM61.5192 39.6794H63.166V44.8614H61.5192V39.6794ZM24.6389 24.4244C23.2439 19.1073 24.1045 16.1852 20.9517 12.3137C20.3611 12.2744 19.7719 12.2744 19.1813 12.3025C22.3425 16.1809 21.4777 19.1031 22.8727 24.4244C24.3394 29.0369 28.2544 29.4869 31.9486 29.3673C28.8366 29.2394 25.8708 28.307 24.6389 24.4244ZM49.2975 9.65875C43.3899 12.0944 43.8399 17.5872 44.5022 22.3305C44.9845 21.6287 45.4908 20.9636 46.0167 20.3336C45.5977 16.1275 45.9647 11.7597 51.0595 9.65875C56.4525 7.75328 59.8486 8.0725 63.4725 5.44562C63.4444 4.98297 63.4008 4.52453 63.3375 4.07031C59.0442 8.21172 55.485 7.47484 49.2975 9.65875Z" fill="#65C43A"/>
</svg>
