<svg width="90" height="90" viewBox="0 0 90 90" fill="none" xmlns="http://www.w3.org/2000/svg">
<g clip-path="url(#clip0_445_1364)">
<g clip-path="url(#clip1_445_1364)">
<path d="M72.4696 1.76465H46.4897C44.5323 1.76465 42.9453 3.35147 42.9453 5.30906V9.52935H76.0136V5.30906C76.0138 3.35147 74.427 1.76465 72.4696 1.76465Z" fill="white"/>
<path d="M76.0088 9.5293H42.9405L37.9453 22.2352H81.0041L76.0088 9.5293ZM37.9647 88.2352H81.0041V22.2352H37.9453V88.2158C37.9453 88.2265 37.954 88.2352 37.9647 88.2352Z" fill="#67CCD1"/>
<path d="M37.9455 87.6178C38.0197 87.8253 38.0981 88.0312 38.1809 88.2355H81.0043V48.7061H52.8294C45.9758 48.7061 40.1284 53.0931 37.9453 59.2061L37.9455 87.6178Z" fill="#27A2CC"/>
<path d="M81.0041 22.2354H37.9453V32.2086H42.3283C44.2617 32.2086 45.829 33.7758 45.829 35.7092V38.6431C45.829 41.0626 47.7904 43.0241 50.21 43.0241C52.6296 43.0241 54.5911 41.0626 54.5911 38.6431V35.7092C54.5911 33.7758 56.1585 32.2086 58.0917 32.2086H58.1378C60.0712 32.2086 61.6384 33.776 61.6384 35.7092V41.3078C61.6384 44.6104 64.3158 47.2878 67.6185 47.2878C70.9211 47.2878 73.5986 44.6104 73.5986 41.3078V35.7092C73.5986 33.7758 75.166 32.2086 77.0992 32.2086H81.0036V22.2354H81.0041Z" fill="white"/>
<path d="M28.825 63.089C28.825 69.6894 23.8414 75.0401 17.6937 75.0401C11.546 75.0401 6.5625 69.6896 6.5625 63.089C6.5625 56.4885 11.546 48.6631 17.6937 48.6631C23.8414 48.6631 28.825 56.4887 28.825 63.089Z" fill="#FDE0BE"/>
<path d="M28.8281 63.089C28.8281 69.6894 33.8117 75.0401 39.9594 75.0401C46.1071 75.0401 51.0906 69.6896 51.0906 63.089C51.0906 56.4885 46.1071 48.6631 39.9594 48.6631C33.8117 48.6631 28.8281 56.4887 28.8281 63.089Z" fill="#FDE0BE"/>
<path d="M37.0312 64.5048V74.6181C37.9832 74.8975 38.9702 75.0395 39.9622 75.0399C46.1098 75.0399 51.0935 69.6893 51.0935 63.0888C51.0935 58.5371 48.7231 53.403 45.2357 50.6543C40.3496 53.3442 37.0312 58.5439 37.0312 64.5048Z" fill="#F7B073"/>
<path d="M52.0126 71.4708H5.64798C3.50386 71.4708 1.76562 69.7325 1.76562 67.5884C1.76562 65.4443 3.50386 63.7061 5.64798 63.7061H52.0126C54.1567 63.7061 55.895 65.4443 55.895 67.5884C55.895 69.7325 54.1567 71.4708 52.0126 71.4708ZM5.64798 71.4708L8.32168 85.8963C8.44349 86.5534 8.79146 87.147 9.30521 87.5743C9.81896 88.0015 10.4661 88.2355 11.1343 88.2355H21.5995C22.2443 88.2354 22.8702 88.0176 23.3756 87.6172C23.8811 87.2168 24.2364 86.6574 24.384 86.0298L25.9813 79.2355H31.6792L33.2766 86.0298C33.4242 86.6574 33.7795 87.2168 34.285 87.6172C34.7904 88.0176 35.4163 88.2354 36.0611 88.2355H46.5269C47.1951 88.2355 47.8422 88.0015 48.3559 87.5743C48.8697 87.147 49.2176 86.5534 49.3394 85.8963L52.0128 71.4736L5.64798 71.4708Z" fill="#D46B5C"/>
<path d="M37.0313 82.3184C37.0294 84.3465 37.4202 86.3558 38.182 88.2354H46.5277C47.1959 88.2354 47.843 88.0015 48.3567 87.5742C48.8705 87.1469 49.2184 86.5533 49.3403 85.8963L52.0136 71.4735L37.0314 71.4727V82.3184H37.0313Z" fill="#B55348"/>
<path d="M52.8311 88.235H88.2377V58.5879H52.8311C49.5632 58.5879 46.9141 61.2371 46.9141 64.5049V82.3179C46.9142 85.5858 49.5632 88.235 52.8311 88.235Z" fill="#FDCB50"/>
<path d="M67.6121 72.7055C67.6121 67.2432 69.7363 62.2779 73.2025 58.5879H52.8311C49.5632 58.5879 46.9141 61.2371 46.9141 64.5049V82.3179C46.9141 85.5858 49.5632 88.235 52.8311 88.235H74.6648C70.3427 84.4542 67.6121 78.8991 67.6121 72.7055Z" fill="#FD8F01"/>
<path d="M65.7295 85.5277C65.7295 82.7344 63.4651 80.4701 60.6719 80.4701C57.8787 80.4701 55.6142 82.7345 55.6142 85.5277C55.6131 86.4866 55.8859 87.4258 56.4006 88.2348H64.9433C65.4579 87.4257 65.7307 86.4865 65.7295 85.5277ZM61.7803 67.866C65.7062 67.866 68.8887 64.6834 68.8887 60.7576C68.8887 60.0007 68.7692 59.2719 68.5502 58.5879H55.0103C54.7857 59.2892 54.6715 60.0212 54.6719 60.7576C54.6719 64.6834 57.8543 67.866 61.7803 67.866Z" fill="#FD6050"/>
<path d="M74.2652 80.4708C76.4093 80.4708 78.1475 78.7326 78.1475 76.5884C78.1475 74.4442 76.4093 72.7061 74.2652 72.7061C72.121 72.7061 70.3828 74.4442 70.3828 76.5884C70.3828 78.7326 72.121 80.4708 74.2652 80.4708Z" fill="#FD8F01"/>
<path d="M42.9403 9.52935V5.30906C42.9403 3.35147 44.5273 1.76465 46.4847 1.76465H72.4646C74.422 1.76465 76.0088 3.35147 76.0086 5.30906V9.52935M42.9403 9.52935H76.0086M42.9403 9.52935L37.9453 22.2352M76.0086 9.52935L81.0041 22.2352M81.0041 58.5882V22.2352M81.0041 22.2352H37.9453M37.9453 22.2352V48.9457" stroke="#052A75" stroke-width="3.52941" stroke-miterlimit="10" stroke-linejoin="round"/>
<path d="M50.5225 59.0539C49.0499 53.6711 44.8774 48.6631 39.9594 48.6631C33.8118 48.6631 28.8281 56.4887 28.8281 63.089C28.8281 63.2959 28.8331 63.5014 28.8428 63.7056" stroke="#052A75" stroke-width="3.52941" stroke-miterlimit="10" stroke-linejoin="round"/>
<path d="M28.8157 63.7056C28.8254 63.5014 28.8304 63.2959 28.8304 63.089C28.8304 56.4887 23.8469 48.6631 17.6992 48.6631C11.5516 48.6631 6.56792 56.4887 6.56792 63.089C6.56792 63.2959 6.57286 63.5014 6.58257 63.7056M5.64798 71.4703L8.32168 85.8959C8.44349 86.5529 8.79146 87.1465 9.30521 87.5738C9.81896 88.0011 10.4661 88.235 11.1343 88.235H21.5995C22.2443 88.235 22.8702 88.0171 23.3756 87.6168C23.8811 87.2164 24.2364 86.657 24.384 86.0293L25.9813 79.235H31.6792L33.2766 86.0293C33.4242 86.657 33.7795 87.2164 34.285 87.6168C34.7904 88.0171 35.4163 88.235 36.0611 88.235H46.5269C47.0257 88.235 47.5158 88.1045 47.9485 87.8565C48.3813 87.6086 48.7418 87.2518 48.9941 86.8215M5.64798 71.4703C3.50386 71.4703 1.76562 69.7321 1.76562 67.588C1.76562 65.4439 3.50386 63.7056 5.64798 63.7056H46.968M5.64798 71.4703H46.9128" stroke="#052A75" stroke-width="3.52941" stroke-miterlimit="10" stroke-linejoin="round"/>
<path d="M52.8311 88.235H88.2377V58.5879H52.8311C49.5632 58.5879 46.9141 61.2371 46.9141 64.5049V82.3179C46.9142 85.5858 49.5632 88.235 52.8311 88.235Z" stroke="#052A75" stroke-width="3.52941" stroke-miterlimit="10" stroke-linejoin="round"/>
</g>
</g>
<defs>
<clipPath id="clip0_445_1364">
<rect width="90" height="90" fill="white"/>
</clipPath>
<clipPath id="clip1_445_1364">
<rect width="90" height="90" fill="white"/>
</clipPath>
</defs>
</svg>
