<svg width="53" height="53" viewBox="0 0 53 53" fill="none" xmlns="http://www.w3.org/2000/svg">
<path fill-rule="evenodd" clip-rule="evenodd" d="M2.06321 35.2623L5.0358 33.8193C5.54205 33.5753 6.12427 33.5416 6.65528 33.7255C7.1863 33.9095 7.62293 34.2961 7.86982 34.8009L13.644 46.6952C13.888 47.2015 13.9216 47.7838 13.7377 48.3148C13.5538 48.8458 13.1671 49.2825 12.6623 49.5294L9.68938 50.9723C9.18313 51.2163 8.60091 51.25 8.0699 51.0661C7.53888 50.8821 7.10224 50.4955 6.85536 49.9907L1.08113 38.0964C0.83722 37.5901 0.803599 37.0078 0.987611 36.4768C1.17162 35.9457 1.55831 35.5091 2.06321 35.2623Z" fill="#88D5E8"/>
<path fill-rule="evenodd" clip-rule="evenodd" d="M29.4796 37.5631C35.2685 38.9102 40.9498 32.2312 46.0062 29.4449C49.3127 27.9403 53.1818 31.2816 49.9908 34.4726C49.9908 34.4726 45.6956 38.2273 35.9545 44.0909C32.5549 46.1373 31.153 47.0809 27.2878 46.5454C24.1579 46.1118 18.2382 43.9313 15.8981 44.9908C15.129 45.3393 14.1929 45.76 13.3975 46.1875L7.99597 35.0613V35.0602L16.4235 30.3899C18.7949 29.0372 20.6858 28.8635 22.5576 29.2196L28.5805 30.8196C34.3179 32.5727 32.4972 37.5455 29.4796 37.5631Z" fill="#F8DCCD"/>
<path fill-rule="evenodd" clip-rule="evenodd" d="M5.30684 39.5901C5.60104 39.5901 5.88863 39.5028 6.13325 39.3394C6.37786 39.1759 6.56852 38.9436 6.68111 38.6718C6.79369 38.4 6.82315 38.1009 6.76575 37.8124C6.70836 37.5238 6.56669 37.2588 6.35866 37.0507C6.15063 36.8427 5.88558 36.701 5.59703 36.6436C5.30849 36.5862 5.0094 36.6157 4.73759 36.7283C4.46579 36.8409 4.23347 37.0315 4.07002 37.2761C3.90658 37.5208 3.81934 37.8084 3.81934 38.1026C3.8202 38.4968 3.9772 38.8746 4.25597 39.1534C4.53474 39.4322 4.91259 39.5892 5.30684 39.5901Z" fill="#E0F0FE"/>
<path fill-rule="evenodd" clip-rule="evenodd" d="M46.4198 10.4718C46.8234 12.7945 45.7567 15.7371 43.439 18.055C41.1212 20.3729 38.178 21.4394 35.8558 21.0358C35.4522 18.713 36.5187 15.7704 38.8365 13.4525C41.1542 11.1346 44.097 10.0682 46.4198 10.4718Z" fill="#97C662"/>
<path fill-rule="evenodd" clip-rule="evenodd" d="M20.9279 14.0438H28.4649L23.5474 26.1489L37.4047 9.13088H30.0466L35.3643 0.912659L27.3167 0.871643L20.9279 14.0438Z" fill="#FDCD56"/>
<path fill-rule="evenodd" clip-rule="evenodd" d="M1.6846 34.4762L4.6572 33.0331C5.27359 32.737 5.97253 32.6598 6.63866 32.8144C7.3048 32.9691 7.89831 33.3461 8.32126 33.8835L15.9942 29.6309C18.268 28.3339 20.3397 27.9122 22.7196 28.3622L28.8905 30.0034C31.0831 30.686 32.3178 31.83 32.8598 33.0481C33.1204 33.629 33.2321 34.2657 33.1848 34.9007C33.1375 35.5356 32.9327 36.1488 32.5889 36.6847C36.9925 35.6997 41.4943 30.9327 45.5875 28.6799C45.6069 28.6689 45.6264 28.6595 45.6461 28.6505V28.6492C48.4996 27.3507 51.8829 29.0381 52.0514 31.8068C52.1149 32.8528 51.7042 33.9993 50.6118 35.0918C50.2484 35.455 45.4378 39.4018 36.4079 44.84C32.9056 46.9493 31.3901 47.9953 27.1703 47.4104C26.1625 47.2708 24.8975 46.9619 23.5527 46.6338C20.761 45.9518 17.6014 45.1799 16.2591 45.788L14.5461 46.5833C14.8014 47.2811 14.7891 48.0488 14.5117 48.7382C14.2343 49.4275 13.7113 49.9897 13.0439 50.3162L10.0699 51.76C9.35509 52.103 8.53362 52.1494 7.78466 51.8892C7.03569 51.629 6.41997 51.0832 6.07174 50.3709L0.296197 38.4757C-0.0472098 37.7608 -0.0939622 36.9391 0.166138 36.1898C0.426238 35.4406 0.972084 34.8246 1.6846 34.4762ZM29.7744 17.1215C29.7903 17.0996 29.8072 17.0789 29.8255 17.0587L35.5684 10.0059H30.0477C29.8844 10.0061 29.7242 9.96057 29.5854 9.87443C29.4466 9.78829 29.3346 9.66498 29.2623 9.51848C29.19 9.37198 29.1602 9.20815 29.1763 9.04557C29.1923 8.88299 29.2536 8.72816 29.3532 8.59863L33.7677 1.77604L27.8638 1.74607L22.3234 13.1688H28.4664C28.6136 13.1687 28.7584 13.2059 28.8875 13.2767C29.0166 13.3475 29.1257 13.4498 29.2047 13.574C29.2838 13.6982 29.3302 13.8403 29.3397 13.9872C29.3492 14.1341 29.3215 14.2811 29.2591 14.4144L26.5509 21.0802L29.7744 17.1215ZM31.6044 17.6368L38.0825 9.68112C38.1851 9.55278 38.2495 9.39816 38.2684 9.23493C38.2873 9.07171 38.2599 8.90646 38.1893 8.75809C38.1187 8.60972 38.0078 8.4842 37.8692 8.39589C37.7306 8.30758 37.57 8.26004 37.4057 8.2587V8.25585H31.6526L36.0966 1.38776C36.1834 1.25408 36.232 1.09917 36.2369 0.939845C36.2419 0.780521 36.2032 0.622879 36.1248 0.484044C36.0465 0.345209 35.9316 0.23049 35.7927 0.152347C35.6538 0.0742049 35.4961 0.0356272 35.3368 0.0408053L27.3211 8.53637e-06C27.1566 -0.000719332 26.9953 0.0451138 26.8558 0.13221C26.7163 0.219307 26.6042 0.344111 26.5326 0.492196H26.5315L20.1429 13.6643C20.0798 13.7975 20.0513 13.9445 20.0599 14.0916C20.0686 14.2387 20.1143 14.3813 20.1926 14.5061C20.271 14.631 20.3795 14.734 20.5083 14.8058C20.637 14.8776 20.7817 14.9158 20.9291 14.9168V14.9188H27.1674L22.7384 25.8205C22.6579 26.0191 22.6531 26.2403 22.725 26.4421C22.7969 26.644 22.9404 26.8124 23.1283 26.9154C23.3162 27.0183 23.5354 27.0487 23.7442 27.0007C23.9531 26.9527 24.137 26.8296 24.261 26.6549L30.4728 19.0262C31.8893 20.8874 32.957 22.9897 33.6241 25.2314C34.395 27.828 34.6185 30.5564 34.2803 33.2439C34.2545 33.4721 34.3198 33.7013 34.4621 33.8816C34.6044 34.0619 34.8121 34.1787 35.0401 34.2067C35.2681 34.2346 35.4978 34.1714 35.6795 34.0308C35.8611 33.8902 35.9798 33.6836 36.0099 33.4559C36.4436 30.0277 36.0349 26.5455 34.8191 23.311L36.1702 21.9596C41.8391 22.5242 48.2052 16.1118 47.2853 10.3433C47.2582 10.1611 47.1742 9.99217 47.0454 9.86057C46.9165 9.72897 46.7494 9.64143 46.5678 9.61046C43.6185 9.10274 40.4189 10.634 38.2189 12.8339C36.1312 14.9216 34.6515 17.8961 34.933 20.7223L34.0766 21.5787C33.4007 20.1775 32.5716 18.8555 31.6047 17.6368H31.6044ZM36.757 18.8986C37.0861 17.1446 38.0972 15.4307 39.4567 14.0712C41.1047 12.4233 43.4212 11.1806 45.6273 11.2657C45.6458 12.207 45.4706 13.1419 45.1125 14.0126C43.9729 16.9118 41.0665 19.5597 37.9943 20.1359L41.7579 16.3724C41.9172 16.2073 42.0054 15.9863 42.0034 15.7569C42.0014 15.5275 41.9094 15.308 41.7472 15.1458C41.585 14.9835 41.3655 14.8915 41.1361 14.8895C40.9067 14.8875 40.6856 14.9757 40.5206 15.1351L36.757 18.8986ZM5.30798 35.7394C4.68146 35.7396 4.08065 35.9885 3.63763 36.4315C3.19461 36.8746 2.94565 37.4754 2.94548 38.1019C2.94548 40.1996 5.49392 41.2578 6.97901 39.7726C8.4641 38.2874 7.40557 35.7391 5.30831 35.7391L5.30798 35.7394ZM5.74143 37.6689C5.65574 37.5833 5.5466 37.525 5.42781 37.5015C5.30902 37.4779 5.18591 37.4901 5.07404 37.5365C4.96217 37.5829 4.86656 37.6614 4.79929 37.7621C4.73203 37.8628 4.69612 37.9812 4.69612 38.1023C4.69612 38.2234 4.73203 38.3418 4.79929 38.4425C4.86656 38.5432 4.96217 38.6217 5.07404 38.6681C5.18591 38.7144 5.30902 38.7266 5.42781 38.7031C5.5466 38.6795 5.65574 38.6212 5.74143 38.5357C5.85621 38.4206 5.92067 38.2648 5.92067 38.1023C5.92067 37.9398 5.85621 37.7839 5.74143 37.6689ZM29.2829 38.4126C26.0344 37.8258 24.1997 37.124 21.4881 36.3717C21.2666 36.3087 21.079 36.1608 20.9662 35.96C20.8533 35.7593 20.8244 35.5221 20.8858 35.3001C20.9471 35.0782 21.0938 34.8895 21.2937 34.7752C21.4936 34.6609 21.7306 34.6303 21.953 34.69C22.7327 34.9073 23.3594 35.0947 23.9805 35.2807C25.6867 35.7913 27.352 36.2898 29.5499 36.6894C29.8427 36.6717 30.1279 36.5887 30.3845 36.4463C30.6411 36.304 30.8625 36.106 31.0325 35.8669C31.2571 35.5687 31.3973 35.2156 31.4384 34.8446C31.4796 34.4736 31.4201 34.0983 31.2663 33.7582C30.9093 32.9556 30.0179 32.1782 28.3707 31.6665L22.3633 30.0709C21.5258 29.9042 20.6653 29.8886 19.8224 30.0248C18.9167 30.1765 17.946 30.5259 16.8551 31.1481L9.1431 35.4225L13.7946 45.0049L15.5401 44.1943C18.2417 42.9704 24.1138 45.2241 27.4083 45.6805C31.0094 46.1793 32.3758 45.2264 35.5043 43.3422C44.6013 37.8663 48.8763 34.2791 49.3717 33.8552L49.3731 33.8536C50.311 32.9057 50.6299 31.8618 49.9377 30.9577C49.6891 30.6442 49.3688 30.3949 49.0037 30.2309C48.5922 30.0435 48.1451 29.9468 47.6929 29.9476C47.2406 29.9483 46.7938 30.0463 46.3829 30.2351C44.9391 31.037 43.4269 32.174 41.8752 33.3413C37.9328 36.3061 33.7473 39.4534 29.2825 38.4144V38.4131L29.2829 38.4126ZM12.6224 46.5879L7.08456 35.18C6.93909 34.8829 6.6818 34.6556 6.36903 34.5478C6.05627 34.44 5.71355 34.4606 5.41593 34.6051L2.44345 36.0485C2.14632 36.1939 1.91896 36.4512 1.81119 36.7639C1.70341 37.0767 1.72401 37.4194 1.86846 37.717L7.61459 49.5536C7.79385 49.8911 7.97421 50.1106 8.35484 50.2426C8.73546 50.3746 9.01513 50.3147 9.36634 50.1597L12.2838 48.7434C12.5809 48.598 12.8082 48.3407 12.916 48.0279C13.0237 47.7152 13.0031 47.3725 12.8587 47.0749L12.6224 46.5879Z" fill="#092702"/>
</svg>
