<svg width="53" height="53" viewBox="0 0 53 53" fill="none" xmlns="http://www.w3.org/2000/svg">
<path d="M3.13733 0.765198H38.2804V5.30995H3.13733V0.765198Z" fill="#F9922D"/>
<path d="M3.13733 46.7027H38.2804V51.2474H3.13733V46.7027Z" fill="#F9922D"/>
<path d="M38.2803 5.30994C38.2803 5.30994 40.6524 16.1827 40.6524 25.8287V26.1883C40.6524 35.8321 38.2803 46.7071 38.2803 46.7071H3.13726C3.13726 46.7071 0.765137 35.8299 0.765137 26.1861V25.8265C0.765137 16.1827 3.13726 5.30994 3.13726 5.30994H38.2803Z" fill="#2EB74E"/>
<path d="M48.283 47.5344C48.2865 47.4653 48.2935 47.3974 48.2935 47.3274C48.2932 46.2881 47.9018 45.287 47.1971 44.523C46.4925 43.759 45.5262 43.2882 44.4903 43.204C44.6032 42.6066 44.5826 41.9916 44.4302 41.4031C44.2777 40.8145 43.997 40.267 43.6083 39.7995C43.2195 39.3321 42.7322 38.9564 42.1813 38.6992C41.6304 38.442 41.0295 38.3097 40.4215 38.3119C40.3292 38.3119 40.2391 38.3197 40.1481 38.3259C40.0398 37.2043 39.5176 36.1633 38.6835 35.4059C37.8493 34.6484 36.7629 34.2288 35.6362 34.2288C34.5094 34.2288 33.423 34.6484 32.5889 35.4059C31.7547 36.1633 31.2326 37.2043 31.1242 38.3259C31.0367 38.3202 30.9492 38.3123 30.8574 38.3123C30.2495 38.3106 29.6488 38.4431 29.0981 38.7004C28.5474 38.9577 28.0603 39.3334 27.6716 39.8008C27.2829 40.2681 27.0022 40.8155 26.8496 41.4039C26.697 41.9923 26.6761 42.6071 26.7886 43.2044C25.7528 43.2887 24.7866 43.7596 24.082 44.5236C23.3775 45.2875 22.9862 46.2886 22.9859 47.3279C22.9859 47.3979 22.9929 47.4657 22.9959 47.5348C22.1543 47.7265 21.4028 48.1982 20.8643 48.8728C20.3258 49.5473 20.0323 50.3847 20.0319 51.2479H51.2479C51.2476 50.3845 50.9541 49.5469 50.4154 48.8722C49.8767 48.1975 49.1248 47.7258 48.283 47.5344Z" fill="#FFDD33"/>
<path d="M20.0314 37.0182C26.1131 37.0182 31.0433 32.088 31.0433 26.0063C31.0433 19.9246 26.1131 14.9944 20.0314 14.9944C13.9497 14.9944 9.01953 19.9246 9.01953 26.0063C9.01953 32.088 13.9497 37.0182 20.0314 37.0182Z" fill="#FFEFC2"/>
<path d="M20.0314 31.3556C20.0314 29.9532 19.4743 28.6083 18.4827 27.6166C17.4911 26.6249 16.1462 26.0677 14.7438 26.0676C14.7438 27.47 15.3008 28.8149 16.2925 29.8066C17.2841 30.7983 18.629 31.3555 20.0314 31.3556Z" fill="#2EB74E"/>
<path d="M20.0315 25.669C21.0231 24.6774 21.5801 23.3324 21.5801 21.9301C21.5801 20.5278 21.0231 19.1828 20.0315 18.1912C19.0399 19.1828 18.4828 20.5278 18.4828 21.9301C18.4828 23.3324 19.0399 24.6774 20.0315 25.669Z" fill="#2EB74E"/>
<path d="M20.0314 31.3556C20.0315 29.9532 20.5887 28.6082 21.5803 27.6165C22.572 26.6249 23.917 26.0677 25.3194 26.0676C25.3193 27.47 24.7621 28.815 23.7705 29.8067C22.7788 30.7983 21.4338 31.3555 20.0314 31.3556Z" fill="#2EB74E"/>
<path d="M39.697 43.9377C39.494 43.9377 39.2992 44.0183 39.1556 44.1619C39.0121 44.3055 38.9314 44.5003 38.9314 44.7033C38.9314 44.9064 39.0121 45.1011 39.1556 45.2447C39.2992 45.3883 39.494 45.4689 39.697 45.4689C40.1777 45.4695 40.6385 45.6607 40.9784 46.0006C41.3182 46.3405 41.5094 46.8013 41.51 47.2819C41.51 47.485 41.5907 47.6797 41.7343 47.8233C41.8779 47.9669 42.0726 48.0476 42.2756 48.0476C42.4787 48.0476 42.6734 47.9669 42.817 47.8233C42.9606 47.6797 43.0413 47.485 43.0413 47.2819C43.0402 46.3953 42.6876 45.5453 42.0606 44.9183C41.4337 44.2914 40.5837 43.9387 39.697 43.9377Z" fill="#441D03"/>
<path d="M35.2407 40.3366C34.345 40.3378 33.4863 40.6941 32.8529 41.3275C32.2196 41.961 31.8633 42.8197 31.8623 43.7154C31.8623 43.9185 31.943 44.1132 32.0865 44.2568C32.2301 44.4004 32.4249 44.481 32.6279 44.481C32.831 44.481 33.0257 44.4004 33.1693 44.2568C33.3129 44.1132 33.3936 43.9185 33.3936 43.7154C33.394 43.2256 33.5888 42.756 33.935 42.4097C34.2813 42.0633 34.7509 41.8684 35.2407 41.8679C35.4437 41.8679 35.6385 41.7872 35.7821 41.6436C35.9256 41.5 36.0063 41.3053 36.0063 41.1022C36.0063 40.8992 35.9256 40.7044 35.7821 40.5609C35.6385 40.4173 35.4437 40.3366 35.2407 40.3366Z" fill="#441D03"/>
<path d="M25.3195 25.3024C24.464 25.303 23.6183 25.4854 22.8387 25.8376C22.059 26.1898 21.3631 26.7036 20.797 27.3451V25.9626C21.8314 24.812 22.3849 23.3083 22.3432 21.7616C22.3015 20.215 21.6679 18.7433 20.573 17.6501C20.4294 17.5066 20.2347 17.426 20.0316 17.426C19.8286 17.426 19.6339 17.5066 19.4902 17.6501C18.3987 18.7451 17.7673 20.2161 17.7256 21.7617C17.6838 23.3073 18.2349 24.8102 19.2658 25.9626V27.3451C18.7 26.7034 18.0041 26.1894 17.2245 25.8373C16.4449 25.4851 15.5993 25.3028 14.7438 25.3024C14.5407 25.3024 14.346 25.383 14.2024 25.5266C14.0588 25.6702 13.9781 25.8649 13.9781 26.068C13.9805 27.5396 14.5185 28.9599 15.4915 30.0639C16.4646 31.1678 17.8062 31.8798 19.2658 32.067V33.8214C19.2658 34.0244 19.3464 34.2192 19.49 34.3627C19.6336 34.5063 19.8283 34.587 20.0314 34.587C20.2345 34.587 20.4292 34.5063 20.5728 34.3627C20.7164 34.2192 20.797 34.0244 20.797 33.8214V32.067C22.2567 31.8799 23.5984 31.168 24.5715 30.064C25.5447 28.9601 26.0827 27.5396 26.0851 26.068C26.0851 25.8649 26.0044 25.6702 25.8608 25.5266C25.7173 25.383 25.5225 25.3024 25.3195 25.3024ZM20.0318 19.3852C20.5418 20.1359 20.8145 21.0226 20.8145 21.9301C20.8145 22.8377 20.5418 23.7243 20.0318 24.4751C19.5225 23.7241 19.2503 22.8375 19.2503 21.9301C19.2503 21.0227 19.5225 20.1362 20.0318 19.3852ZM15.5886 26.9102C16.4801 27.0814 17.2996 27.5163 17.9412 28.1586C18.5828 28.8008 19.0168 29.6209 19.187 30.5126C18.2958 30.3415 17.4765 29.9069 16.835 29.2651C16.1934 28.6232 15.7593 27.8036 15.5886 26.9124V26.9102ZM20.8762 30.5126C21.0469 29.6212 21.4811 28.8016 22.1228 28.1598C22.7644 27.5179 23.5838 27.0834 24.4751 26.9124C24.3044 27.8037 23.8702 28.6233 23.2285 29.2652C22.5869 29.907 21.7675 30.3415 20.8762 30.5126Z" fill="#441D03"/>
<path d="M20.0313 14.2288C17.702 14.2289 15.425 14.9197 13.4882 16.2139C11.5515 17.5081 10.042 19.3475 9.15066 21.4996C8.25932 23.6516 8.02615 26.0197 8.48063 28.3043C8.93512 30.5888 10.0569 32.6874 11.704 34.3344C13.3511 35.9815 15.4497 37.1031 17.7343 37.5575C20.0189 38.012 22.3869 37.7787 24.5389 36.8873C26.691 35.9958 28.5303 34.4863 29.8244 32.5495C31.1185 30.6127 31.8093 28.3357 31.8093 26.0063C31.8057 22.8838 30.5636 19.8901 28.3556 17.6822C26.1476 15.4742 23.1539 14.2323 20.0313 14.2288ZM20.0313 36.2526C18.0048 36.2525 16.0239 35.6515 14.3389 34.5256C12.654 33.3996 11.3408 31.7994 10.5654 29.9271C9.7899 28.0548 9.58706 25.9947 9.98246 24.0071C10.3779 22.0196 11.3538 20.1939 12.7867 18.761C14.2197 17.3281 16.0454 16.3522 18.033 15.9569C20.0206 15.5616 22.0807 15.7645 23.9529 16.5401C25.8252 17.3156 27.4254 18.6289 28.5513 20.3139C29.6771 21.9988 30.278 23.9798 30.278 26.0063C30.275 28.7229 29.1945 31.3274 27.2735 33.2483C25.3525 35.1692 22.748 36.2497 20.0313 36.2526Z" fill="#441D03"/>
<path d="M49.0455 46.9626C48.9633 45.9329 48.5602 44.9548 47.8932 44.1661C47.2261 43.3774 46.3285 42.8177 45.3268 42.5657C45.3268 42.5272 45.3268 42.4887 45.3268 42.4506C45.325 41.2156 44.8581 40.0266 44.019 39.1203C43.18 38.2141 42.0303 37.6573 40.7991 37.5607C40.7597 37.3888 40.7116 37.2221 40.6547 37.0576C41.1326 33.4529 41.3877 29.8222 41.4186 26.1861V25.8265C41.4186 16.6294 39.2556 6.21381 39.0464 5.229V0.765625C39.0464 0.562569 38.9658 0.367829 38.8222 0.224246C38.6786 0.0806638 38.4839 1.25154e-07 38.2808 1.25154e-07H13.3188C13.1158 1.25154e-07 12.921 0.0806638 12.7774 0.224246C12.6339 0.367829 12.5532 0.562569 12.5532 0.765625C12.5532 0.968681 12.6339 1.16342 12.7774 1.307C12.921 1.45059 13.1158 1.53125 13.3188 1.53125H37.5152V4.54431H3.90337V1.53125H9.75975C9.96281 1.53125 10.1575 1.45059 10.3011 1.307C10.4447 1.16342 10.5254 0.968681 10.5254 0.765625C10.5254 0.562569 10.4447 0.367829 10.3011 0.224246C10.1575 0.0806638 9.96281 1.25154e-07 9.75975 1.25154e-07H3.13775C3.03719 -5.73867e-05 2.93761 0.0197069 2.84469 0.0581628C2.75177 0.0966186 2.66735 0.153012 2.59624 0.224118C2.52514 0.295225 2.46874 0.379649 2.43029 0.472565C2.39183 0.565481 2.37207 0.665066 2.37212 0.765625V5.22813C2.16256 6.21513 0 16.6298 0 25.8265V26.1861C0 35.3828 2.16256 45.7975 2.37212 46.7836V51.2461C2.37207 51.3467 2.39183 51.4463 2.43029 51.5392C2.46874 51.6321 2.52514 51.7165 2.59624 51.7876C2.66735 51.8587 2.75177 51.9151 2.84469 51.9536C2.93761 51.992 3.03719 52.0118 3.13775 52.0117H34.9943C35.1974 52.0117 35.3921 51.9311 35.5357 51.7875C35.6793 51.6439 35.7599 51.4492 35.7599 51.2461C35.7599 51.0431 35.6793 50.8483 35.5357 50.7047C35.3921 50.5612 35.1974 50.4805 34.9943 50.4805H29.2941C29.447 50.0968 29.7113 49.7678 30.0529 49.5357C30.3945 49.3036 30.7978 49.1792 31.2108 49.1785C31.4139 49.1785 31.6086 49.0978 31.7522 48.9543C31.8958 48.8107 31.9764 48.6159 31.9764 48.4129C31.9764 48.2098 31.8958 48.0151 31.7522 47.8715C31.6086 47.7279 31.4139 47.6472 31.2108 47.6472C30.3898 47.6485 29.5939 47.93 28.9547 48.4453C28.3155 48.9605 27.8715 49.6785 27.6959 50.4805H20.8928C21.0316 49.9397 21.3173 49.448 21.7184 49.0596C22.1195 48.6713 22.6202 48.4016 23.1652 48.2803C23.3408 48.2404 23.4968 48.1399 23.6057 47.9965C23.7146 47.853 23.7694 47.6758 23.7606 47.4959L23.7554 47.4114C23.7554 47.3834 23.751 47.355 23.751 47.3266C23.755 46.4808 24.0752 45.6671 24.6486 45.0454C25.222 44.4237 26.0071 44.0388 26.8498 43.9666C26.9566 43.958 27.0603 43.9271 27.1544 43.8759C27.2485 43.8247 27.3308 43.7544 27.396 43.6694C27.4612 43.5844 27.5078 43.4867 27.5329 43.3826C27.5579 43.2784 27.5609 43.1702 27.5415 43.0649C27.503 42.863 27.4832 42.6579 27.4824 42.4524C27.4834 41.5576 27.8392 40.6997 28.4719 40.067C29.1047 39.4343 29.9625 39.0784 30.8573 39.0775C30.9089 39.0775 30.9597 39.0814 31.0104 39.0849L31.0765 39.0893C31.2748 39.1017 31.4701 39.0365 31.6212 38.9075C31.7723 38.7785 31.8674 38.5958 31.8863 38.3981C31.9765 37.466 32.4105 36.601 33.1037 35.9716C33.797 35.3422 34.6998 34.9934 35.6361 34.9934C36.5725 34.9934 37.4753 35.3422 38.1685 35.9716C38.8618 36.601 39.2958 37.466 39.3859 38.3981C39.4045 38.5965 39.4999 38.7797 39.6516 38.9089C39.8034 39.038 39.9996 39.1027 40.1984 39.0893L40.2552 39.0854C40.3104 39.0814 40.3655 39.0771 40.4215 39.0771C40.9172 39.075 41.4072 39.1826 41.8564 39.3922C42.3057 39.6018 42.703 39.9081 43.0199 40.2893C43.3368 40.6705 43.5654 41.117 43.6895 41.597C43.8135 42.0769 43.8298 42.5783 43.7373 43.0653C43.7179 43.1706 43.7207 43.2788 43.7458 43.383C43.7708 43.4871 43.8174 43.5848 43.8825 43.6698C43.9477 43.7548 44.0299 43.8252 44.124 43.8764C44.2181 43.9276 44.3218 43.9584 44.4286 43.967C45.2713 44.0393 46.0565 44.4241 46.63 45.0458C47.2034 45.6675 47.5237 46.4812 47.5278 47.327C47.5278 47.355 47.5278 47.3821 47.5239 47.4097L47.5182 47.4972C47.5094 47.677 47.5642 47.8542 47.673 47.9977C47.7818 48.1411 47.9376 48.2416 48.1132 48.2816C48.6582 48.4028 49.1589 48.6725 49.56 49.0609C49.9611 49.4492 50.2468 49.941 50.3856 50.4818H44.3537C44.1507 50.4818 43.956 50.5625 43.8124 50.7061C43.6688 50.8496 43.5881 51.0444 43.5881 51.2474C43.5881 51.4505 43.6688 51.6452 43.8124 51.7888C43.956 51.9324 44.1507 52.0131 44.3537 52.0131H51.247C51.3476 52.0131 51.4471 51.9934 51.5401 51.9549C51.633 51.9164 51.7174 51.8601 51.7885 51.7889C51.8596 51.7178 51.916 51.6334 51.9545 51.5405C51.9929 51.4476 52.0127 51.348 52.0126 51.2474C52.0172 50.3151 51.735 49.404 51.2042 48.6375C50.6735 47.871 49.9198 47.2862 49.0455 46.9626ZM19.3305 50.4796H3.90337V47.4666H21.2586C20.7495 47.812 20.3161 48.2575 19.9846 48.7758C19.6531 49.294 19.4306 49.8744 19.3305 50.4814V50.4796ZM35.6361 33.4609C34.438 33.4559 33.2738 33.8592 32.3355 34.6043C31.3971 35.3493 30.7404 36.3917 30.4736 37.5598C29.2432 37.6579 28.0947 38.2155 27.2567 39.1218C26.4188 40.0282 25.9527 41.2167 25.9512 42.4511V42.5661C25.1227 42.7755 24.3626 43.1958 23.7448 43.7861C23.127 44.3765 22.6726 45.1168 22.4258 45.9349H3.76075C3.27469 43.5374 1.5295 34.3577 1.5295 26.1839V25.8243C1.5295 17.6505 3.27294 8.47087 3.76075 6.07337H37.6574C38.143 8.47087 39.8886 17.6505 39.8886 25.8243V26.1839C39.869 29.1226 39.6915 32.0581 39.3571 34.9777C38.3647 34.0022 37.0276 33.4576 35.6361 33.4622V33.4609Z" fill="#441D03"/>
<path d="M40.75 50.4814H38.7812C38.5782 50.4814 38.3835 50.562 38.2399 50.7056C38.0963 50.8492 38.0156 51.044 38.0156 51.247C38.0156 51.4501 38.0963 51.6448 38.2399 51.7884C38.3835 51.932 38.5782 52.0126 38.7812 52.0126H40.75C40.9531 52.0126 41.1478 51.932 41.2914 51.7884C41.435 51.6448 41.5156 51.4501 41.5156 51.247C41.5156 51.044 41.435 50.8492 41.2914 50.7056C41.1478 50.562 40.9531 50.4814 40.75 50.4814Z" fill="#441D03"/>
<path d="M14.084 9.00727C14.0835 8.80467 14.0026 8.61056 13.8592 8.46746C13.7157 8.32436 13.5214 8.24395 13.3188 8.24384H6.9519C6.74885 8.24384 6.55411 8.3245 6.41053 8.46808C6.26694 8.61166 6.18628 8.8064 6.18628 9.00946C6.18628 9.21252 6.26694 9.40726 6.41053 9.55084C6.55411 9.69442 6.74885 9.77509 6.9519 9.77509H13.3188C13.4195 9.77497 13.5192 9.75501 13.6121 9.71635C13.7051 9.6777 13.7895 9.62109 13.8606 9.54978C13.9316 9.47847 13.988 9.39386 14.0263 9.30077C14.0646 9.20768 14.0843 9.10795 14.084 9.00727Z" fill="#441D03"/>
<path d="M16.3905 9.77509H18.1313C18.3344 9.77509 18.5291 9.69442 18.6727 9.55084C18.8163 9.40726 18.8969 9.21252 18.8969 9.00946C18.8969 8.8064 18.8163 8.61166 18.6727 8.46808C18.5291 8.3245 18.3344 8.24384 18.1313 8.24384H16.3905C16.1874 8.24384 15.9927 8.3245 15.8491 8.46808C15.7055 8.61166 15.6249 8.8064 15.6249 9.00946C15.6249 9.21252 15.7055 9.40726 15.8491 9.55084C15.9927 9.69442 16.1874 9.77509 16.3905 9.77509Z" fill="#441D03"/>
</svg>
