<svg width="56" height="56" viewBox="0 0 56 56" fill="none" xmlns="http://www.w3.org/2000/svg">
<path d="M55.1744 31.0617C55.1744 38.4437 50.4029 44.4841 44.571 44.4841H38.3498C36.7339 44.4841 35.1984 44.0201 33.8248 43.1917C29.8578 40.8038 27.7463 35.8486 27.7463 31.0617C27.7463 27.5552 29.0486 24.4158 31.0725 22.3813C32.2363 21.2097 33.1515 19.7268 33.774 18.0673C34.223 16.8728 34.5199 15.588 34.652 14.2593C34.7037 13.741 34.7297 13.2155 34.7297 12.6861C34.7297 8.00051 37.7593 4.16724 41.4606 4.16724C43.3114 4.16724 44.9944 5.12555 46.2142 6.66963C47.4339 8.21413 48.191 10.3435 48.191 12.6861C48.191 16.4515 49.5206 20.0382 51.8491 22.3813C52.86 23.3985 53.6919 24.6923 54.2703 26.1693C54.8488 27.6475 55.1744 29.3087 55.1744 31.0617Z" fill="#35E298"/>
<path d="M40.8885 26.8063C40.806 29.345 40.0746 31.8316 38.8262 34.0986L33.8248 43.1917C29.8578 40.8038 27.7463 35.8486 27.7463 31.0617C27.7463 27.5552 29.049 24.4158 31.0729 22.3813C32.2363 21.2098 33.1515 19.7268 33.7744 18.0673C34.223 16.8728 34.5199 15.588 34.652 14.2593C36.634 15.3227 38.7493 17.3026 40.0139 20.9778C40.6663 22.8739 40.9534 24.8439 40.8885 26.8063Z" fill="#1AB975"/>
<path d="M49.6634 31.5235C49.6634 35.9362 46.0864 39.5131 41.6738 39.5131C37.2612 39.5131 33.6843 35.9362 33.6843 31.5235C33.6843 27.1109 37.2612 23.534 41.6738 23.534C46.0864 23.534 49.6634 27.1109 49.6634 31.5235Z" fill="#AE583E"/>
<path d="M40.6774 23.5955C33.6253 24.4731 31.1729 33.4816 36.7724 37.8331L38.8262 34.0986C40.0746 31.8316 40.806 29.345 40.8885 26.8063C40.9235 25.7339 40.8543 24.6589 40.6774 23.5955Z" fill="#7C3F2C"/>
<path d="M18.0641 10.0248C17.6467 8.12357 15.4929 1.23889 6.39508 2.80518C6.12976 2.8509 5.98193 3.13801 6.09771 3.38069C7.03979 5.36013 11.0376 12.6956 17.6915 10.6546C17.9607 10.5721 18.1243 10.3 18.0641 10.0248Z" fill="#1ED688"/>
<path d="M17.691 10.6546C11.0375 12.696 7.04017 5.36055 6.09766 3.38068C5.98231 3.13758 6.12971 2.85047 6.3946 2.80518C7.17347 2.67102 7.90279 2.59839 8.58339 2.58087C9.97922 5.04353 13.1041 9.34208 17.7855 9.01096C17.9188 9.41813 18.0076 9.76804 18.0636 10.0252C18.1243 10.3004 17.9602 10.5717 17.691 10.6546Z" fill="#1AB975"/>
<path d="M34.1261 34.0986L28.3206 44.6533C26.8193 47.1134 23.4034 48.0068 20.7079 46.6016C19.3266 45.8808 17.6967 45.8808 16.3141 46.6016C13.6805 47.9743 10.2437 47.1758 8.70222 44.6533L2.89591 34.0986C0.51742 29.7761 0.278588 25.1392 1.70773 20.9773C3.49192 15.7923 6.97229 13.9829 9.37642 13.3582C10.48 13.0711 11.3576 13.0335 11.7412 13.0335C11.878 13.0335 11.9514 13.0378 11.9514 13.0378C13.0384 13.0378 14.08 13.2206 15.04 13.5539C15.9992 13.8872 16.8793 14.3721 17.6437 14.9762C17.8932 15.1894 18.2025 15.2971 18.5114 15.2971C18.8207 15.2971 19.1296 15.1894 19.3796 14.9762C20.1439 14.3721 21.0228 13.8872 21.9828 13.5539C22.9433 13.2206 23.9836 13.0378 25.0714 13.0378C25.0714 13.0378 32.4222 12.5695 35.3142 20.9773C36.7549 25.1661 36.4913 29.8039 34.1261 34.0986Z" fill="#C42D2D"/>
<path d="M34.126 34.0986L28.3206 44.6533C26.8192 47.1134 23.4034 48.0068 20.7079 46.6016C19.3266 45.8808 17.6966 45.8808 16.314 46.6016C15.5723 46.9878 14.7798 47.1967 14.0052 47.2514C13.9607 47.163 9.35116 37.0248 8.17538 34.4404C4.6604 26.7127 6.02333 18.1015 9.37637 13.3582C10.48 13.0711 11.3575 13.0335 11.7412 13.0335C11.8779 13.0335 11.9514 13.0378 11.9514 13.0378C13.0383 13.0378 14.0799 13.2206 15.04 13.5539C15.9991 13.8872 16.8793 14.3721 17.6436 14.9762C17.8931 15.1894 18.2025 15.2971 18.5114 15.2971C18.8207 15.2971 19.1296 15.1894 19.3795 14.9762C20.1439 14.3721 21.0227 13.8872 21.9828 13.5539C22.9432 13.2206 23.9836 13.0378 25.0713 13.0378C25.0713 13.0378 32.4222 12.5695 35.3142 20.9773C36.7549 25.1661 36.4913 29.8039 34.126 34.0986Z" fill="#F44545"/>
<path d="M8.03955 36.7252C7.11327 37.214 6.75908 38.3607 7.24786 39.287C7.8208 40.3731 8.54541 41.316 9.34693 42.1329L3.02322 41.4284C1.98245 41.3122 1.04506 42.062 0.928852 43.1023C0.813068 44.1431 1.56246 45.0805 2.60324 45.1967L8.92694 45.9013C7.96563 46.5216 7.0509 47.2821 6.2528 48.2157C5.57219 49.0112 5.66576 50.2079 6.46129 50.8885C7.25726 51.5691 8.45355 51.4756 9.13416 50.68C11.3007 48.1469 15.2276 47.0608 18.5511 46.9519C19.8701 46.9096 20.7459 45.5595 20.2418 44.3371C20.0132 43.7825 19.5219 43.3476 18.9023 43.2092C18.8421 43.1955 12.8337 41.748 10.6009 37.5174C10.1121 36.5911 8.9654 36.2369 8.03955 36.7252Z" fill="#1AB975"/>
<path d="M54.9642 49.1339C54.6938 51.5623 52.6425 53.4016 50.1982 53.4059C36.1854 53.4333 45.9792 53.4145 23.4247 53.4576C18.7391 53.4662 15.0887 49.3945 15.6078 44.7383C15.7219 43.7155 16.0269 42.764 16.4798 41.9125C17.8239 39.3917 20.4827 37.7549 23.3987 37.7549C23.9772 37.7549 24.5668 37.8186 25.1572 37.954C45.0298 42.4944 46.5713 42.8465 47.8621 43.1413L49.4835 43.5121L51.2587 43.918C53.1958 44.3589 54.6113 45.9265 54.927 47.8017C55.0005 48.2319 55.015 48.6793 54.9642 49.1339Z" fill="#FFA90B"/>
<path d="M54.9271 47.8017C54.047 48.9523 52.661 49.6859 51.119 49.688C37.107 49.7158 46.9008 49.697 24.3468 49.7397C19.9624 49.7474 16.4854 46.185 16.4799 41.9125C17.824 39.3917 20.4823 37.7549 23.3983 37.7549C23.7119 37.7549 24.0276 37.7737 24.3455 37.813C24.6151 37.8451 24.8868 37.8925 25.1573 37.954L25.9678 38.1386C46.9581 42.9358 28.2454 38.6594 47.8621 43.1413L49.4835 43.5121L51.2587 43.918C53.1959 44.3589 54.6114 45.9265 54.9271 47.8017Z" fill="#FFB52D"/>
<path d="M2.94202 42.2491C2.94586 42.2496 2.95056 42.25 2.95526 42.2509C2.95142 42.2504 2.94672 42.2496 2.94202 42.2491Z" fill="#092702"/>
<path d="M2.97406 42.253C2.97662 42.253 2.97833 42.2534 2.97919 42.2534C2.97833 42.2534 2.97705 42.253 2.97406 42.253Z" fill="#092702"/>
<path d="M51.4424 43.1139L50.8332 42.9742C56.7377 38.1365 57.996 27.3959 52.4345 21.7993C50.294 19.6469 49.0161 16.24 49.0161 12.6861C49.0161 7.53437 45.6271 3.34221 41.4606 3.34221C37.2949 3.34221 33.9052 7.53437 33.9052 12.6861C33.9052 13.8568 33.7663 15.0104 33.5035 16.108C29.622 11.6283 23.4581 11.1143 19.3364 13.9786V3.46995C19.3364 3.01451 18.9668 2.64494 18.5114 2.64494C18.0559 2.64494 17.6864 3.01451 17.6864 3.46995V6.70935C15.2229 2.26426 10.7393 1.07523 5.71829 2.0861C5.21115 2.18864 4.9219 2.72868 5.11758 3.20805C5.16372 3.32042 6.27457 5.99884 8.42192 8.34358C10.9628 11.1198 14.1163 12.4981 17.6864 11.5095V13.9786C12.8414 10.6118 4.72836 11.8205 1.39539 19.4969C1.21381 19.9152 1.4065 20.4001 1.82435 20.5817C2.2422 20.7633 2.72755 20.5719 2.90913 20.1536C5.95926 13.1296 13.2528 12.5618 17.1211 15.6089C17.9265 16.2866 19.101 16.2831 19.9017 15.6089C24.3057 12.1401 31.924 13.65 34.5341 21.2392C35.9376 25.3267 35.6573 29.6009 33.2211 34.0229C32.2517 35.7563 31.4557 37.1974 30.7978 38.3971C25.6883 37.2965 24.9594 36.8945 23.2205 36.932C22.7651 36.941 22.4032 37.317 22.413 37.7724C22.4216 38.2287 22.7967 38.5919 23.2543 38.5808C23.5538 38.5744 23.8934 38.5898 24.2519 38.6338L23.7567 43.0772C23.7063 43.5296 24.0327 43.9376 24.4856 43.9881C24.9402 44.0385 25.3465 43.7108 25.3969 43.2596L25.8754 38.964C29.1708 39.7164 31.3156 40.2069 33.871 40.791L33.6347 42.9101C33.5843 43.363 33.9107 43.7706 34.3636 43.8214C34.8182 43.8714 35.2245 43.5441 35.2745 43.0925L35.4898 41.161C35.9991 41.2776 47.7083 43.9522 47.8552 43.9859L47.2182 49.7055C47.1678 50.1584 47.4938 50.5664 47.9467 50.6168C48.4013 50.6672 48.8076 50.3395 48.858 49.8884L49.4745 44.3555L51.0754 44.7221C53.06 45.175 54.3703 47.0185 54.1439 49.0424C53.9196 51.0552 52.2226 52.5766 50.1974 52.5809L41.7537 52.5971L42.0536 49.9072C42.104 49.4543 41.7781 49.0462 41.3252 48.9958C40.8719 48.9454 40.4643 49.2714 40.4139 49.7243L40.0934 52.6005L32 52.6159L32.282 50.087C32.3325 49.6346 32.006 49.2265 31.5531 49.1761C31.1015 49.1253 30.6927 49.4517 30.6423 49.9046C30.5722 50.5348 30.347 52.5522 30.3402 52.6193L26.4655 52.6266L26.956 48.2247C27.0064 47.7722 26.68 47.3642 26.2271 47.3133C25.7738 47.2629 25.3666 47.5893 25.3157 48.0422L24.8048 52.63C24.7962 52.63 24.7907 52.63 24.786 52.63H24.7864C24.786 52.63 24.7851 52.63 24.7843 52.63C24.783 52.63 24.7817 52.63 24.7804 52.63C24.7804 52.63 24.78 52.63 24.7796 52.63C24.7736 52.63 24.7731 52.63 24.7753 52.63C24.7219 52.63 24.463 52.6304 23.4089 52.6326C20.1708 52.6326 17.395 50.4237 16.6059 47.3714C15.7962 44.2538 17.2138 40.7726 20.405 39.2563C20.8164 39.0606 20.992 38.5688 20.7963 38.1574C20.6006 37.746 20.1089 37.5699 19.6974 37.7656C18.0893 38.5291 16.7917 39.7327 15.9282 41.2041C14.2586 40.3714 12.3488 39.0615 11.3302 37.132C10.0138 34.6317 6.21732 35.5708 6.2045 38.3937L3.61965 33.6948C1.84785 30.4755 1.19886 26.8622 1.97004 23.1332C2.06233 22.6867 1.77522 22.2501 1.32874 22.1578C0.882266 22.0655 0.446473 22.3522 0.354187 22.7991C-0.472966 26.8007 0.155089 30.8207 2.17341 34.4903L5.69778 40.8961L3.11507 40.6081C1.62055 40.4419 0.276 41.516 0.109801 43.0114C-0.0559716 44.5016 1.02069 45.8504 2.51222 46.0162L6.78855 46.4926C5.72812 47.4419 4.87448 48.3024 4.98171 49.6594C5.16714 52.0575 8.1848 53.0573 9.76177 51.2158C11.0598 49.6969 13.0879 48.7587 15.1438 48.2524C16.2615 51.746 19.5436 54.2822 23.4089 54.2822C24.6659 54.28 48.682 54.2335 50.2 54.2305C53.3185 54.2249 55.8196 51.6978 55.8196 48.5968C55.8191 45.9572 54.0196 43.7022 51.4424 43.1139ZM7.09531 3.52507C12.5808 2.77567 16.0398 5.39044 17.1946 9.93294C12.7256 11.1365 9.21147 7.60358 7.09531 3.52507ZM48.6815 42.4824L32.476 38.7799C32.9447 37.922 33.4638 36.9752 34.0423 35.9336C35.5701 38.5654 38.419 40.3385 41.6738 40.3385C45.8613 40.3385 49.4967 37.3623 50.317 33.2616C50.4063 32.8151 50.1158 32.3806 49.6693 32.2917C49.2216 32.2024 48.7883 32.4917 48.6991 32.9381C48.0325 36.2698 45.0781 38.6889 41.6738 38.6889C38.66 38.6889 36.0751 36.8175 35.0181 34.1767C36.3887 31.5679 37.0454 28.8113 37.0232 26.077C41.1624 22.5376 47.5442 24.77 48.676 29.9991C48.773 30.4447 49.2105 30.7275 49.6569 30.6306C50.1026 30.534 50.3854 30.0948 50.2884 29.6496C49.8693 27.7125 48.7871 25.9513 47.2438 24.691C44.3112 22.2979 40.1203 22.0279 36.8925 24.121C36.6178 21.9531 35.897 19.6934 34.7451 17.811C35.2745 16.2161 35.5548 14.4801 35.5548 12.6861C35.5548 8.87977 37.9256 4.99224 41.4606 4.99224C44.9576 4.99224 47.366 8.82765 47.366 12.6861C47.366 16.7253 48.7871 20.4706 51.2643 22.9632C55.5607 27.2835 55.145 35.3047 51.4125 40.0296C50.602 41.0559 49.6792 41.8809 48.6815 42.4824ZM14.7926 46.628C12.4423 47.1997 10.0643 48.3233 8.5078 50.1434C8.1237 50.592 7.44608 50.645 6.99747 50.2613C6.54758 49.8751 6.49503 49.2005 6.87955 48.7519C7.59818 47.9123 8.45823 47.1817 9.37426 46.5938C10.0237 46.1739 9.78826 45.1668 9.01793 45.0814C8.30357 45.0019 3.23512 44.4367 2.69465 44.3764C2.10804 44.3115 1.68378 43.7804 1.7483 43.1942C1.81324 42.6145 2.33277 42.1834 2.9322 42.2483C2.93562 42.2487 2.93861 42.2487 2.94203 42.2492C2.94032 42.2492 2.93861 42.2487 2.93733 42.2487C2.94118 42.2492 2.94758 42.2496 2.95698 42.2509C2.95656 42.2509 2.9557 42.2509 2.95528 42.2504C2.96425 42.2517 2.97066 42.2521 2.9745 42.2526C2.97108 42.2526 2.96681 42.2521 2.96254 42.2513C3.1313 42.2701 4.11696 42.3799 8.67699 42.8883C8.93932 42.8717 9.7387 43.2113 10.0882 42.4944C10.2411 42.1799 10.1796 41.8048 9.93523 41.5549C9.13457 40.7388 8.47575 39.8459 7.97758 38.9021C7.70115 38.3796 7.90281 37.7306 8.42406 37.4546H8.42491C8.95213 37.1773 9.59514 37.3811 9.87157 37.9023C11.0871 40.2056 13.3165 41.7377 15.2348 42.6914C14.7969 43.9265 14.6328 45.2989 14.7926 46.628Z" fill="#092702"/>
</svg>
