<svg width="50" height="56" viewBox="0 0 50 56" fill="none" xmlns="http://www.w3.org/2000/svg">
<path d="M30.3251 32.1894C25.4283 37.1573 26.3785 46.0345 26.3785 46.0345C26.3785 46.0345 35.2736 46.8618 40.1704 41.8939C43.8282 38.183 44.224 32.2945 44.1895 29.5456C44.1785 28.6779 43.4771 27.9866 42.6093 27.9887C39.8614 27.9953 33.9826 28.4788 30.3251 32.1894Z" fill="#7CC558"/>
<path d="M31.4368 7.55076C25.672 14.9548 28.3314 26.6667 28.3314 26.6667C28.3314 26.6667 40.3453 26.3794 46.1101 18.9754C50.4162 13.4449 50.0233 5.5154 49.5468 1.84806C49.3964 0.690431 48.351 -0.12321 47.1918 0.0153686C43.5213 0.45429 35.7426 2.02076 31.4368 7.55076Z" fill="#7CC558"/>
<path d="M6.11976 38.4484C13.3574 45.5823 26.2906 44.1972 26.2906 44.1972C26.2906 44.1972 27.4959 31.2381 20.2582 24.1042C14.8519 18.7755 6.27299 18.1991 2.26812 18.2496C1.00396 18.2656 -0.00305553 19.2876 6.96662e-06 20.5518C0.00941322 24.5554 0.714007 33.1201 6.11976 38.4484Z" fill="#7CC558"/>
<path d="M37.7055 14.0556C37.4825 13.6331 36.9593 13.4696 36.5356 13.6931C27.8061 18.2927 25.8487 32.7456 25.4625 41.0595C21.572 32.512 13.041 29.8309 12.9205 29.7947C12.4626 29.6583 11.9812 29.9173 11.8433 30.3748C11.7055 30.8323 11.9649 31.3149 12.4221 31.4533C13.0533 31.6444 27.8535 36.3375 25.3474 54.1476C25.2747 54.6652 25.6749 55.1342 26.2061 55.1342C26.631 55.1342 27.0016 54.8216 27.0625 54.3889C27.813 49.0554 25.1162 44.6048 34.9508 37.0499C35.3302 36.7588 35.4015 36.215 35.11 35.8358C34.8182 35.456 34.2747 35.3845 33.896 35.6765C31.7501 37.3248 29.0885 39.8156 27.1432 43.1247C27.3281 35.6931 28.7497 19.7532 37.3429 15.2257C37.7662 15.0025 37.9285 14.4787 37.7055 14.0556Z" fill="#3F3F3F"/>
</svg>
