<svg width="60" height="60" viewBox="0 0 60 60" fill="none" xmlns="http://www.w3.org/2000/svg">
<path d="M45.2366 20.9438C47.2089 18.7446 48.7101 16.165 49.648 13.3637C50.5859 10.5625 50.9405 7.59902 50.69 4.65563C50.6901 4.53674 50.6668 4.419 50.6214 4.30913C50.576 4.19926 50.5094 4.09942 50.4254 4.01531C50.3414 3.9312 50.2416 3.86448 50.1318 3.81895C50.0219 3.77343 49.9042 3.75 49.7853 3.75H10.2172C10.0983 3.75 9.9806 3.77343 9.87078 3.81895C9.76096 3.86448 9.66118 3.9312 9.57716 4.01531C9.49314 4.09942 9.42652 4.19926 9.38111 4.30913C9.3357 4.419 9.31239 4.53674 9.31252 4.65563V6.94687C9.30598 12.1145 11.2472 17.0948 14.7491 20.895L11.4069 27.2944C11.1834 27.7122 11.045 28.1702 10.9996 28.6419C10.9542 29.1136 11.0028 29.5896 11.1426 30.0424C11.2823 30.4952 11.5104 30.9158 11.8137 31.2798C12.117 31.6439 12.4895 31.9442 12.9096 32.1635C13.3297 32.3827 13.7891 32.5164 14.2612 32.557C14.7333 32.5976 15.2088 32.5441 15.6602 32.3998C16.1115 32.2555 16.5298 32.0231 16.8907 31.7161C17.2517 31.4091 17.5482 31.0336 17.7631 30.6112C17.7631 30.6112 19.655 26.9906 20.5194 25.335C22.3702 26.2977 24.3597 26.9663 26.4163 27.3169V33.0206C26.4086 33.4964 26.4956 33.9689 26.6724 34.4106C26.8491 34.8524 27.112 35.2545 27.4457 35.5937C27.7794 35.9328 28.1772 36.2022 28.6161 36.386C29.0549 36.5699 29.5259 36.6645 30.0017 36.6645C30.4775 36.6645 30.9486 36.5699 31.3874 36.386C31.8262 36.2022 32.2241 35.9328 32.5578 35.5937C32.8915 35.2545 33.1544 34.8524 33.3311 34.4106C33.5078 33.9689 33.5949 33.4964 33.5872 33.0206V27.3169C35.6297 26.9684 37.6059 26.3058 39.4456 25.3528L42.6406 31.4625C42.8591 31.8799 43.1576 32.2501 43.5192 32.5521C43.8807 32.8541 44.2982 33.0819 44.7478 33.2225C45.1974 33.3632 45.6703 33.4139 46.1395 33.3717C46.6087 33.3296 47.065 33.1955 47.4824 32.977C47.8997 32.7586 48.27 32.46 48.5719 32.0985C48.8739 31.7369 49.1017 31.3194 49.2424 30.8698C49.383 30.4202 49.4337 29.9474 49.3916 29.4782C49.3495 29.009 49.2154 28.5527 48.9969 28.1353L45.2366 20.9438ZM46.6466 31.3706C46.2289 31.5885 45.7419 31.6323 45.292 31.4923C44.8421 31.3523 44.4659 31.0399 44.2456 30.6234L40.625 23.7009C40.6222 23.6944 40.6166 23.6925 40.6138 23.6869C40.61 23.6813 40.611 23.6756 40.6081 23.67C40.575 23.6239 40.5373 23.5812 40.4956 23.5425C40.4252 23.4525 40.3362 23.3786 40.2349 23.3257C40.1335 23.2728 40.022 23.2422 39.9078 23.2359C39.7231 23.2119 39.5355 23.2467 39.3716 23.3353C37.5753 24.3605 35.6202 25.0782 33.5872 25.4587V23.4459C33.5796 23.2109 33.481 22.9881 33.312 22.8245C33.1431 22.6609 32.9172 22.5694 32.6821 22.5694C32.4469 22.5694 32.221 22.6609 32.0521 22.8245C31.8831 22.9881 31.7845 23.2109 31.7769 23.4459V33.0206C31.7769 33.4916 31.5898 33.9432 31.2568 34.2762C30.9238 34.6092 30.4722 34.7963 30.0013 34.7963C29.5303 34.7963 29.0787 34.6092 28.7457 34.2762C28.4127 33.9432 28.2256 33.4916 28.2256 33.0206V23.4459C28.215 23.2131 28.1151 22.9934 27.9466 22.8324C27.7781 22.6714 27.554 22.5815 27.321 22.5815C27.0879 22.5815 26.8638 22.6714 26.6953 22.8324C26.5268 22.9934 26.4269 23.2131 26.4163 23.4459V25.4587C24.3695 25.0761 22.4016 24.3526 20.5944 23.3184C20.4216 23.2233 20.222 23.1887 20.0272 23.22C19.9182 23.2299 19.8124 23.2621 19.7163 23.3145C19.6202 23.3669 19.5359 23.4384 19.4685 23.5247C19.4276 23.5629 19.3905 23.6049 19.3578 23.6503C19.3541 23.6569 19.355 23.6634 19.3513 23.6691C19.3475 23.6747 19.3428 23.6775 19.34 23.6831L16.1572 29.7759C16.0518 29.9869 15.9055 30.1747 15.7267 30.3284C15.548 30.4822 15.3404 30.5987 15.1161 30.6713C14.8917 30.7439 14.6552 30.7711 14.4203 30.7513C14.1853 30.7314 13.9567 30.665 13.7477 30.5558C13.5387 30.4466 13.3536 30.2969 13.2032 30.1153C13.0527 29.9338 12.9399 29.7241 12.8714 29.4985C12.8029 29.2729 12.7801 29.0359 12.8042 28.8014C12.8283 28.5668 12.8989 28.3394 13.0119 28.1325L16.6419 21.1819C16.6513 21.1641 16.6494 21.1444 16.6569 21.1275C16.6805 21.0698 16.6981 21.0098 16.7094 20.9484C16.7224 20.9113 16.733 20.8734 16.7413 20.835C16.757 20.6521 16.7101 20.4693 16.6081 20.3166C16.58 20.2616 16.546 20.2097 16.5069 20.1619C16.4975 20.1516 16.4966 20.1403 16.4872 20.1309C14.6274 18.2098 13.1895 15.9212 12.2657 13.4118C11.3419 10.9025 10.9526 8.2279 11.1228 5.55937H48.8797V6.94687C48.8901 11.8876 46.9534 16.6335 43.4891 20.1562C43.4769 20.1684 43.4713 20.1834 43.46 20.1956C43.4413 20.2162 43.4281 20.2378 43.4122 20.2603C43.358 20.3298 43.3156 20.4077 43.2866 20.4909C43.2797 20.5101 43.2734 20.5295 43.2678 20.5491C43.2389 20.6732 43.2332 20.8016 43.251 20.9278C43.2637 21.0038 43.2855 21.0781 43.3156 21.1491C43.325 21.1688 43.3231 21.1894 43.3335 21.2091L47.391 28.9697C47.6088 29.387 47.6528 29.8735 47.5133 30.3231C47.3739 30.7727 47.0623 31.1489 46.6466 31.3697V31.3706ZM43.446 39.6H41.1716C41.0714 39.603 40.9725 39.623 40.8791 39.6591V39.3619C40.8791 39.2431 40.8557 39.1254 40.8102 39.0157C40.7648 38.9059 40.6981 38.8062 40.6141 38.7222C40.5301 38.6382 40.4304 38.5715 40.3206 38.5261C40.2108 38.4806 40.0932 38.4572 39.9744 38.4572H20.031C19.9121 38.4571 19.7943 38.4804 19.6845 38.5258C19.5746 38.5712 19.4747 38.6378 19.3906 38.7218C19.3065 38.8059 19.2398 38.9056 19.1943 39.0154C19.1488 39.1253 19.1253 39.243 19.1253 39.3619V39.6591C19.0313 39.6228 18.9317 39.6029 18.831 39.6H16.5566C16.3166 39.6 16.0865 39.6953 15.9169 39.865C15.7472 40.0346 15.6519 40.2648 15.6519 40.5047C15.64 42.7022 16.1722 44.8684 17.2012 46.8102C18.2301 48.7519 19.7237 50.4087 21.5488 51.6328L21.9219 55.4334C21.944 55.6571 22.0484 55.8645 22.2149 56.0154C22.3814 56.1663 22.5981 56.2499 22.8228 56.25H37.1816C37.4063 56.2499 37.623 56.1663 37.7895 56.0154C37.956 55.8645 38.0604 55.6571 38.0825 55.4334C38.0825 55.4334 38.2963 53.2584 38.4538 51.6488C40.2712 50.4132 41.7587 48.7517 42.7866 46.8092C43.8144 44.8668 44.3514 42.7023 44.3506 40.5047C44.3506 40.3859 44.3272 40.2682 44.2818 40.1585C44.2363 40.0487 44.1697 39.949 44.0857 39.865C44.0017 39.781 43.9019 39.7143 43.7922 39.6689C43.6824 39.6234 43.5648 39.6 43.446 39.6ZM36.741 50.5744C34.4569 51.9017 31.8143 52.4797 29.1847 52.2272C27.0984 52.2518 25.0475 51.6877 23.2672 50.5997L22.61 43.9069H37.3944L36.741 50.5744ZM20.9366 40.2675H39.0688V42.0966H20.9366V40.2675ZM17.496 41.4103H18.831C18.9321 41.4073 19.032 41.387 19.1263 41.3503V43.0022C19.1263 43.121 19.1497 43.2386 19.1951 43.3484C19.2406 43.4582 19.3072 43.5579 19.3912 43.6419C19.4753 43.7259 19.575 43.7925 19.6847 43.838C19.7945 43.8835 19.9121 43.9069 20.031 43.9069H20.7903L21.306 49.1484C19.0765 47.1638 17.7095 44.3875 17.496 41.4103ZM36.3613 54.4397H23.6441L23.4763 52.7334C25.7646 53.8121 28.2989 54.2622 30.8188 54.0375C32.7949 54.066 34.7501 53.6292 36.5263 52.7625L36.3613 54.4397ZM38.6994 49.1494L39.2141 43.9069H39.9735C40.0923 43.907 40.2101 43.8837 40.32 43.8383C40.4298 43.7929 40.5297 43.7262 40.6138 43.6422C40.6979 43.5582 40.7646 43.4584 40.8101 43.3486C40.8556 43.2388 40.8791 43.1211 40.8791 43.0022V41.3325C41.4168 41.4208 41.9629 41.4469 42.5066 41.4103C42.2977 44.3882 40.9305 47.1661 38.6994 49.1494Z" fill="white"/>
</svg>
