<svg width="48" height="48" viewBox="0 0 48 48" fill="none" xmlns="http://www.w3.org/2000/svg">
<g clip-path="url(#clip0_445_1193)">
<mask id="mask0_445_1193" style="mask-type:luminance" maskUnits="userSpaceOnUse" x="0" y="-1" width="48" height="49">
<path d="M48 -0.00341797H0V47.9966H48V-0.00341797Z" fill="white"/>
</mask>
<g mask="url(#mask0_445_1193)">
<path d="M25.61 23.6535C25.1016 23.8743 24.5531 23.9883 23.9987 23.9883C23.4443 23.9883 22.8958 23.8743 22.3873 23.6535L2.84441 14.6021C2.52706 14.442 2.26037 14.197 2.07404 13.8944C1.88772 13.5917 1.78906 13.2432 1.78906 12.8878C1.78906 12.5324 1.88772 12.1839 2.07404 11.8813C2.26037 11.5786 2.52706 11.3336 2.84441 11.1735L22.3873 2.05352C22.8958 1.8327 23.4443 1.71875 23.9987 1.71875C24.5531 1.71875 25.1016 1.8327 25.61 2.05352L45.1529 11.105C45.4704 11.265 45.7371 11.51 45.9233 11.8127C46.1097 12.1154 46.2083 12.4638 46.2083 12.8192C46.2083 13.1747 46.1097 13.5231 45.9233 13.8258C45.7371 14.1284 45.4704 14.3735 45.1529 14.5335L25.61 23.6535Z" stroke="white" stroke-width="1.5" stroke-linecap="round" stroke-linejoin="round"/>
<path d="M46.2824 25.1963L25.368 34.8307C24.9215 35.0344 24.4362 35.1398 23.9452 35.1398C23.4543 35.1398 22.969 35.0344 22.5224 34.8307L1.71094 25.1963" stroke="white" stroke-width="1.5" stroke-linecap="round" stroke-linejoin="round"/>
<path d="M46.2824 36.3394L25.368 45.9736C24.9215 46.1773 24.4362 46.2827 23.9452 46.2827C23.4543 46.2827 22.969 46.1773 22.5224 45.9736L1.71094 36.3394" stroke="white" stroke-width="1.5" stroke-linecap="round" stroke-linejoin="round"/>
</g>
</g>
<defs>
<clipPath id="clip0_445_1193">
<rect width="48" height="48" fill="white"/>
</clipPath>
</defs>
</svg>
