<svg width="54" height="54" viewBox="0 0 54 54" fill="none" xmlns="http://www.w3.org/2000/svg">
<path d="M54 22.2405C54 22.1844 53.9915 22.1306 53.979 22.0784V16.0887C53.9788 16.0461 53.9746 16.0037 53.9664 15.9619C53.9577 15.913 53.9439 15.865 53.9252 15.819C53.9237 15.8152 53.9214 15.8117 53.9198 15.8081C53.9097 15.7846 53.8984 15.7616 53.8858 15.7393L49.2448 7.71792V6.2508C49.2448 5.20192 48.3915 4.34863 47.3426 4.34863H32.5551C31.5062 4.34863 30.653 5.20192 30.653 6.2508V7.71959L26.013 15.7393C26.001 15.7608 25.9901 15.7829 25.9804 15.8055C25.9782 15.8104 25.9754 15.8149 25.9733 15.8198C25.9585 15.8564 25.9467 15.8942 25.9382 15.9328C25.9359 15.9429 25.934 15.9531 25.9321 15.9633C25.9243 16.004 25.9202 16.0453 25.9196 16.0867V33.0302H23.0681V27.0962C23.0681 25.5147 22.4623 24.0181 21.3621 22.8822C20.5178 22.0102 20.1411 21.3104 20.0631 20.4219H20.0665C20.2506 20.4219 20.4271 20.3488 20.5573 20.2186C20.6875 20.0884 20.7606 19.9119 20.7606 19.7278V17.0806C20.7606 16.1571 20.0092 15.4057 19.0857 15.4057H14.1597C13.2362 15.4057 12.4848 16.1571 12.4848 17.0806V19.7278C12.4848 19.9119 12.5579 20.0884 12.6881 20.2186C12.8182 20.3488 12.9948 20.4219 13.1789 20.4219H13.2469C13.169 21.3104 12.7923 22.0102 11.9477 22.8821C10.8475 24.0181 10.2417 25.5147 10.2417 27.0962V33.0302H7.57577C4.8428 33.0302 2.61956 35.2536 2.61956 37.9864V45.2181H2.57111C1.15354 45.2179 0 46.3715 0 47.7892V48.943C0 49.1271 0.073125 49.3036 0.203288 49.4338C0.333452 49.564 0.509991 49.6371 0.69407 49.6371H35.7315V49.6512H53.2848C53.4689 49.6512 53.6454 49.5781 53.7756 49.4479C53.9058 49.3178 53.9789 49.1412 53.9789 48.9572V42.9351C53.9915 42.8829 53.9999 42.8291 53.9999 42.773V22.2405H54ZM27.308 16.7809H43.1225V21.5466H27.308V16.7809ZM48.5509 9.29027L52.0816 15.3928H45.0201L48.5509 9.29027ZM44.5107 22.9346H52.5908V42.0789H44.5107V22.9346ZM44.5107 21.5464V16.7808H52.5908V21.5464H44.5107ZM32.0412 6.2508C32.0413 6.11454 32.0955 5.9839 32.1918 5.88754C32.2882 5.79118 32.4188 5.73696 32.5551 5.73677H47.3426C47.4789 5.73692 47.6096 5.79112 47.7059 5.88749C47.8023 5.98386 47.8565 6.11452 47.8567 6.2508V7.21181H32.0412V6.2508ZM31.7474 8.60009H47.3464L43.4163 15.3928H27.8175L31.7474 8.60009ZM27.308 22.9346H43.1225V42.0789H34.2175V38.1326C34.5469 38.1908 34.8808 38.2202 35.2153 38.2203C38.3657 38.2203 40.9289 35.6573 40.9289 32.5068C40.9289 29.3562 38.3657 26.7932 35.2153 26.7932C32.0649 26.7932 29.5017 29.3562 29.5017 32.5068C29.5017 32.6846 29.5129 32.8614 29.5292 33.0376C29.4399 33.0327 29.3505 33.0302 29.2611 33.0301H27.3079L27.308 22.9346ZM29.2613 34.4182C31.2287 34.4182 32.8293 36.0189 32.8293 37.9863V45.2179H23.9261V37.9863C23.9261 36.5859 23.3414 35.3205 22.4046 34.4182H29.2613ZM30.8898 32.5068C30.8898 30.1217 32.8303 28.1813 35.2153 28.1813C37.6002 28.1813 39.5407 30.1218 39.5407 32.5068C39.5407 34.8917 37.6002 36.8322 35.2153 36.8322C34.8136 36.8322 34.419 36.7746 34.0377 36.6669C33.6113 35.1252 32.458 33.8824 30.9706 33.3342C30.9174 33.0616 30.8904 32.7845 30.8898 32.5068ZM13.8728 17.0805C13.8728 16.9223 14.0015 16.7937 14.1596 16.7937H19.0855C19.2438 16.7937 19.3723 16.9224 19.3723 17.0805V19.0336H13.8728V17.0805ZM12.9448 23.8477C13.7676 22.998 14.5324 21.9935 14.6375 20.4218H18.6723C18.7774 21.9935 19.5422 22.998 20.365 23.8477C21.2128 24.7235 21.68 25.8771 21.68 27.0961V33.0301H11.6297V27.0961C11.6272 25.8831 12.0992 24.7173 12.9448 23.8477ZM4.0077 37.9863C4.0077 36.0189 5.60836 34.4182 7.57577 34.4182H18.9699C20.9373 34.4182 22.538 36.0189 22.538 37.9863V45.2179H4.0077V37.9863ZM35.0375 48.2491H1.38814V47.7893C1.38814 47.1369 1.91882 46.6062 2.57111 46.6062H33.8544C34.5066 46.6062 35.0373 47.1369 35.0373 47.7893V48.2491H35.0375ZM34.2175 45.2467V43.4671H43.1225V48.2631H36.4256V47.7892C36.4256 46.495 35.4635 45.4239 34.2175 45.2467ZM44.5107 48.2631V43.4671H52.5908V48.2631H44.5107Z" fill="white"/>
</svg>
