<svg width="70" height="70" viewBox="0 0 70 70" fill="none" xmlns="http://www.w3.org/2000/svg">
<g clip-path="url(#clip0_445_2542)">
<g clip-path="url(#clip1_445_2542)">
<path fill-rule="evenodd" clip-rule="evenodd" d="M55.4414 50.338C55.4414 53.6665 52.717 56.3905 49.3889 56.3905H23.8595L14.4887 67.7606V56.3905H8.31021C4.98152 56.3905 2.25781 53.667 2.25781 50.338V17.68C2.25781 14.3512 4.98139 11.6274 8.31021 11.6274H49.3887C52.7176 11.6274 55.4413 14.351 55.4413 17.68V50.338H55.4414Z" fill="#90EF90"/>
<path fill-rule="evenodd" clip-rule="evenodd" d="M45.6975 56.3905H20.1681L14.4887 63.2817V56.3905H8.31021C4.98152 56.3905 2.25781 53.667 2.25781 50.338V17.68C2.25781 14.3512 4.98139 11.6274 8.31021 11.6274H45.6973C49.0262 11.6274 51.7499 14.351 51.7499 17.68V50.338C51.7499 53.6665 49.0256 56.3905 45.6975 56.3905Z" fill="#ADFFAD"/>
<path fill-rule="evenodd" clip-rule="evenodd" d="M20.3751 30.8812L20.4019 46.9864C22.8925 47.1373 23.9728 47.8113 26.1216 48.2026C29.3351 48.7878 38.4097 48.948 40.7171 46.6403C42.4353 44.8495 44.0645 35.541 43.7231 33.25C43.3498 30.7439 43.1162 29.3992 36.8593 29.5571H34.11C34.4995 26.5324 35.8052 16.3749 29.4989 17.0837C29.2495 17.1119 29.021 17.2363 28.8617 17.4302C28.7024 17.6242 28.625 17.8726 28.6458 18.1227C29.2837 25.6968 27.8003 29.7661 20.3751 30.8812Z" fill="#F0E3DF"/>
<path fill-rule="evenodd" clip-rule="evenodd" d="M20.375 30.8812L20.4018 46.9864C22.8924 47.1373 23.9726 47.8113 26.1214 48.2026C27.0461 48.3709 28.4564 48.504 30.0509 48.5533C33.3627 48.4485 36.7647 47.9299 38.0541 46.6404C39.7722 44.8495 41.4015 35.541 41.0601 33.25C40.7261 31.0082 40.5033 29.6958 35.9809 29.5571H31.4472C31.7853 26.9319 32.8122 18.9353 28.9551 17.3315C28.8465 17.431 28.7622 17.5541 28.7087 17.6912C28.6551 17.8284 28.6337 17.976 28.6461 18.1227C29.284 25.6968 27.8005 29.7661 20.3753 30.8812H20.375Z" fill="white"/>
<path fill-rule="evenodd" clip-rule="evenodd" d="M20.3986 31.1433C20.3986 30.4269 19.8126 29.8408 19.0962 29.8408H15.2633C14.5469 29.8408 13.9609 30.4269 13.9609 31.1433V46.9862C13.9609 47.7024 14.5469 48.2887 15.2633 48.2887H19.0962C19.8126 48.2887 20.3986 47.7026 20.3986 46.9862V31.1433Z" fill="#4EB1FC"/>
<path d="M15.2635 29.8408H16.9802C17.6991 29.8408 18.2826 30.4245 18.2826 31.1432V46.9862C18.2826 47.705 17.699 48.2887 16.9801 48.2887H15.2633C14.5445 48.2887 13.9609 47.705 13.9609 46.9863V31.1433C13.9609 30.4245 14.5446 29.8408 15.2635 29.8408Z" fill="#85CAFF"/>
<path fill-rule="evenodd" clip-rule="evenodd" d="M56.3534 2.75373L59.5074 9.46676L66.8665 10.3918C67.247 10.4396 67.5467 10.6874 67.6652 11.0521C67.7838 11.4169 67.687 11.7934 67.4072 12.0558L61.9973 17.1297L63.3915 24.4145C63.4636 24.7912 63.3207 25.1528 63.0104 25.3782C62.7001 25.6037 62.312 25.6279 61.9759 25.443L55.4785 21.8659L48.9811 25.443C48.645 25.628 48.257 25.6037 47.9467 25.3782C47.6365 25.1528 47.4933 24.7912 47.5655 24.4145L48.9598 17.1298L43.5498 12.0558C43.2701 11.7934 43.1733 11.4169 43.2918 11.0521C43.4104 10.6874 43.71 10.4396 44.0905 10.3918L51.4497 9.46676L54.6035 2.75373C54.7666 2.4066 55.0949 2.19824 55.4784 2.19824C55.8619 2.19824 56.1901 2.4066 56.3532 2.75373H56.3534Z" fill="#FCDB35"/>
<path fill-rule="evenodd" clip-rule="evenodd" d="M60.9329 24.8729L54.0649 21.092L47.5424 24.6828C47.5355 24.5931 47.5406 24.5028 47.5578 24.4145L48.952 17.1297L43.542 12.0557C43.2623 11.7933 43.1655 11.4168 43.2839 11.052C43.4025 10.6873 43.7023 10.4395 44.0828 10.3917L51.4419 9.46664L54.3937 3.18359L57.2104 9.17885L64.5695 10.1039C64.95 10.1517 65.2497 10.3995 65.3682 10.7642C65.4868 11.129 65.39 11.5055 65.1103 11.7679L59.7003 16.8419L61.0946 24.1267C61.1466 24.3985 61.0866 24.6622 60.9327 24.8729H60.9329Z" fill="#FFEB87"/>
<path fill-rule="evenodd" clip-rule="evenodd" d="M65.8776 11.635L59.3434 10.8138C59.1145 10.7851 58.8966 10.699 58.7099 10.5635C58.5232 10.428 58.3739 10.2474 58.2757 10.0387L55.4759 4.07859L52.6761 10.0387C52.5782 10.2474 52.4291 10.4279 52.2426 10.5634C52.0562 10.699 51.8384 10.7851 51.6097 10.8138L45.0755 11.6356L49.8783 16.1398C50.0464 16.2977 50.1719 16.4956 50.2431 16.7149C50.3143 16.9343 50.3289 17.1682 50.2856 17.3947L49.0486 23.8617L54.8169 20.6862C55.0187 20.575 55.2454 20.5166 55.4759 20.5166C55.7064 20.5166 55.9331 20.575 56.135 20.6862L61.9045 23.8617L60.6654 17.394C60.6223 17.1676 60.637 16.9339 60.7082 16.7147C60.7794 16.4954 60.9048 16.2977 61.0727 16.1398L65.8774 11.6349L65.8776 11.635ZM55.8439 0.833984C56.6042 0.952109 57.2547 1.4335 57.591 2.14881L60.4304 8.19451L67.0588 9.02754C67.967 9.14225 68.7058 9.75379 68.9893 10.6239C69.272 11.4938 69.0334 12.4231 68.3658 13.0493L63.4932 17.6194L64.7493 24.1805C64.922 25.0796 64.5681 25.9719 63.828 26.5098C63.4168 26.8084 62.9396 26.9593 62.4584 26.9593C62.0728 26.9593 61.6859 26.8624 61.3286 26.666L55.476 23.4444L49.624 26.666C48.8219 27.1076 47.865 27.0476 47.1255 26.5099C46.3841 25.972 46.0315 25.0797 46.2035 24.1806L47.4589 17.6195L42.5864 13.0494C41.9188 12.4239 41.6808 11.4946 41.9623 10.624C42.2457 9.75406 42.9852 9.14238 43.8935 9.02768L50.5212 8.19465L53.3625 2.14895C53.6977 1.4335 54.3479 0.952109 55.1082 0.834121H55.844L55.8439 0.833984ZM21.7718 32.0205V45.7505C22.7768 45.8981 23.5671 46.1262 24.3369 46.3482C24.9861 46.5367 25.6017 46.7141 26.3669 46.8538C29.8468 47.4872 38.036 47.3468 39.7371 45.6813C40.1852 45.1974 40.9715 43.1781 41.6491 39.8576C42.2554 36.8937 42.4888 34.2732 42.3675 33.4514C42.1909 32.267 42.0874 31.7931 41.7032 31.5202C41.056 31.0609 39.4372 30.8604 36.8919 30.9244C36.8807 30.9251 36.8688 30.9251 36.8576 30.9251H34.1093C33.915 30.9252 33.7229 30.8838 33.5458 30.8038C33.3688 30.7238 33.2108 30.6069 33.0824 30.4611C32.954 30.3152 32.8583 30.1436 32.8016 29.9578C32.7449 29.7719 32.7285 29.5761 32.7536 29.3835C33.4574 23.9137 33.124 20.4371 31.7597 19.0516C31.4762 18.7629 30.9991 18.3997 30.0408 18.4209C30.5701 25.4368 29.2697 30.4459 21.7721 32.0205H21.7718ZM19.0373 31.2092H15.3352V46.9178H19.0373V31.2092ZM26.3518 26.2403C27.3212 24.5675 27.6086 22.1006 27.2843 18.2417C27.1775 16.975 28.0832 15.8717 29.3459 15.7292C31.5637 15.4794 32.9431 16.3554 33.709 17.1337C36.0645 19.5289 36.0442 24.2862 35.6447 28.1911H36.8396C40.2003 28.1081 42.0674 28.4264 43.286 29.2905C44.6557 30.2639 44.8678 31.6796 45.0714 33.0486C45.2929 34.5328 44.8579 37.8124 44.3293 40.4046C43.8027 42.9777 42.9208 46.312 41.7009 47.5833C41.6943 47.5899 41.6878 47.5971 41.6805 47.6038C39.8391 49.446 35.3783 49.9362 31.5814 49.9362C29.0782 49.9362 26.8643 49.7234 25.8771 49.5435C24.9754 49.3794 24.2643 49.1738 23.5762 48.9754C22.8381 48.7612 22.171 48.5693 21.3301 48.4487C20.8529 49.1731 20.0323 49.6523 19.1017 49.6523H15.2704C13.7981 49.6523 12.6004 48.4548 12.6004 46.983V31.1445C12.6004 29.6722 13.798 28.4752 15.2704 28.4752H19.1017C19.8919 28.4752 20.5999 28.8213 21.0895 29.3676C23.7443 28.8337 25.4303 27.8292 26.3518 26.2403ZM2.25836 33.3426C2.07879 33.3427 1.90095 33.3074 1.73501 33.2388C1.56907 33.1701 1.41829 33.0695 1.29128 32.9425C1.16427 32.8156 1.06353 32.6648 0.994804 32.4989C0.92608 32.333 0.890726 32.1552 0.890762 31.9756V17.6842C0.890762 13.5905 4.21973 10.2609 8.31336 10.2609H37.1416C37.8963 10.2609 38.5092 10.8732 38.5092 11.6278C38.5092 12.3823 37.8963 12.9954 37.1416 12.9954H8.31336C5.72842 12.9954 3.62527 15.0985 3.62527 17.6842V31.9756C3.62527 32.7303 3.01305 33.3426 2.25836 33.3426ZM56.8429 29.2122V50.364C56.8429 54.4577 53.5126 57.788 49.4189 57.788H24.5188L15.5512 68.6674C15.4229 68.8232 15.2617 68.9487 15.0792 69.0349C14.8966 69.121 14.6972 69.1657 14.4954 69.1656C14.3382 69.1656 14.1823 69.1382 14.0346 69.0845C13.7693 68.9897 13.5399 68.8152 13.3776 68.5849C13.2154 68.3546 13.1284 68.0797 13.1285 67.798V57.7879H8.31322C4.21973 57.7879 0.890625 54.4575 0.890625 50.3639V37.4097C0.890625 36.6543 1.50162 36.0428 2.25822 36.0428C3.01482 36.0428 3.62514 36.6544 3.62514 37.4097V50.3639C3.62514 52.9495 5.72828 55.0532 8.31322 55.0532H14.4954C14.675 55.053 14.8528 55.0883 15.0188 55.1569C15.1847 55.2255 15.3355 55.3262 15.4626 55.4531C15.5896 55.5801 15.6903 55.7309 15.759 55.8968C15.8277 56.0627 15.8631 56.2405 15.863 56.4201V63.989L22.8176 55.5507C22.9459 55.3951 23.107 55.2697 23.2894 55.1837C23.4719 55.0977 23.6711 55.0531 23.8728 55.0531H49.4188C52.0057 55.0531 54.1081 52.9493 54.1081 50.3638V29.2119C54.1081 28.4566 54.721 27.8443 55.4757 27.8443C56.2304 27.8443 56.8426 28.4566 56.8426 29.2119L56.8429 29.2122Z" fill="black"/>
</g>
</g>
<defs>
<clipPath id="clip0_445_2542">
<rect width="70" height="70" rx="12" fill="white"/>
</clipPath>
<clipPath id="clip1_445_2542">
<rect width="70" height="70" fill="white"/>
</clipPath>
</defs>
</svg>
