<svg width="70" height="70" viewBox="0 0 70 70" fill="none" xmlns="http://www.w3.org/2000/svg">
<g clip-path="url(#clip0_445_2522)">
<g clip-path="url(#clip1_445_2522)">
<path d="M52.7874 40.2714C52.7874 27.5485 42.5008 17.2349 29.8117 17.2349C17.1225 17.2349 6.83594 27.5485 6.83594 40.2714C6.83594 52.9942 17.1224 63.308 29.8115 63.308C42.5007 63.308 52.7874 52.9942 52.7874 40.2714Z" fill="#89C8FD"/>
<path d="M29.8129 17.2349C28.6338 17.2349 27.475 17.324 26.3438 17.496C37.3865 19.1729 45.8497 28.731 45.8497 40.2714C45.8497 51.8119 37.3864 61.3699 26.3438 63.0469C27.4919 63.2211 28.6517 63.3084 29.813 63.308C42.5021 63.308 52.7886 52.9942 52.7886 40.2714C52.7886 27.5485 42.502 17.2349 29.8129 17.2349Z" fill="#60B6FF"/>
<path d="M26.8233 26.1878C23.2841 28.4058 20.6293 31.954 22.6203 35.9466C24.6112 39.9388 29.0355 38.3862 33.1279 37.8319C37.2204 37.2775 34.1234 49.9197 36.5565 53.0247C38.9897 56.1296 45.8471 49.9197 45.1837 45.9271C44.201 40.0161 43.8566 37.9425 51.82 33.7287L51.8412 33.7207C49.1572 24.6317 41.032 17.8875 31.2487 17.2812L31.2474 17.316C31.2474 17.316 30.3626 23.9698 26.8233 26.1878Z" fill="#BAEB6C"/>
<path d="M44.2066 22.3179C44.2083 22.319 44.2098 22.3206 44.2114 22.3217C44.2098 22.3206 44.2083 22.3195 44.2066 22.3179ZM47.0162 25.0054C47.0162 25.0058 47.0169 25.0063 47.0173 25.0063L47.0162 25.0054ZM14.5482 50.6955C13.4855 49.0747 16.4287 45.2621 17.092 42.3787C17.7558 39.4953 13.7739 39.717 12.5573 38.7188C11.3407 37.7207 9.68147 33.3959 8.4648 32.3977L8.27039 32.2445C7.3433 34.7438 6.83594 37.4483 6.83594 40.2712C6.83594 47.8859 10.5209 54.6364 16.2001 58.8304L16.2071 58.3476C16.2071 58.3476 17.092 54.5771 14.5482 50.6955ZM45.1855 45.927L45.1712 45.841C44.7368 47.5959 44.0961 49.2932 43.2625 50.8974C44.5692 49.3552 45.4424 47.4747 45.1855 45.927Z" fill="#BAEB6C"/>
<path d="M31.2493 17.2812L31.2482 17.316C31.2482 17.316 31.1746 17.8715 30.9844 18.7137C39.0412 21.7632 44.9399 29.2219 45.7516 38.1555C46.7669 36.767 48.6238 35.42 51.8207 33.7287L51.8421 33.7207C49.158 24.6317 41.0327 17.8875 31.2493 17.2812Z" fill="#96D629"/>
<path d="M29.7806 70.0003C28.1376 69.9998 26.4974 69.8646 24.8765 69.596C17.0466 68.3031 10.1888 64.0387 5.56631 57.5883C0.944255 51.1379 -0.889143 43.2734 0.404353 35.4441C0.497868 34.877 1.03504 34.4935 1.60064 34.5869C1.73551 34.6091 1.86467 34.6576 1.98076 34.7298C2.09684 34.8019 2.19757 34.8962 2.27718 35.0073C2.3568 35.1184 2.41373 35.2441 2.44473 35.3773C2.47574 35.5104 2.4802 35.6483 2.45787 35.7831C1.2557 43.064 2.96031 50.3775 7.25902 56.376C11.5577 62.3745 17.9343 66.3399 25.2162 67.5425C40.2483 70.026 54.4948 59.8164 56.9776 44.7863C58.1798 37.5055 56.475 30.1922 52.1765 24.1936C47.8783 18.1951 41.5012 14.2297 34.2198 13.027C33.9475 12.9821 33.7041 12.8308 33.5432 12.6065C33.3824 12.3821 33.3173 12.1031 33.3622 11.8307C33.4561 11.2636 33.9929 10.8801 34.5585 10.9735C42.3888 12.2666 49.2466 16.5311 53.8684 22.9813C58.4905 29.4317 60.3241 37.2962 59.0311 45.1255C57.7382 52.9549 53.4731 59.812 47.0223 64.4338C41.9202 68.089 35.9346 70.0003 29.7806 70.0003Z" fill="#09A66D"/>
<path d="M23.4641 25.1409C12.3536 23.2555 5.46094 9.26645 5.46094 9.26645C5.46094 9.26645 16.5827 -1.66627 27.6933 0.2184C38.8039 2.1032 45.6964 16.0923 45.6964 16.0923C45.6964 16.0923 34.5746 27.0255 23.4641 25.1409Z" fill="#49CB5C"/>
<path d="M27.6944 0.218605C25.5725 -0.141375 23.4512 -0.0329575 21.4062 0.376652C32.0527 2.76704 38.62 16.0925 38.62 16.0925C38.62 16.0925 31.3397 23.2482 22.6751 24.9827C22.9363 25.0415 23.199 25.0955 23.465 25.1409C34.5755 27.0256 45.6973 16.0923 45.6973 16.0923C45.6973 16.0923 38.8049 2.10327 27.6944 0.218605Z" fill="#07B128"/>
<path d="M45.0682 14.9305L34.2028 13.0977L24.0536 0.0292969C23.2439 0.0767383 22.4417 0.180371 21.6504 0.328848L31.1694 12.5855L22.9764 11.2033L15.9855 2.15855C15.3397 2.45019 14.7034 2.76225 14.0774 3.09426L19.9504 10.6928L6.40293 8.40701C5.79467 8.93844 5.46094 9.26629 5.46094 9.26629C5.46094 9.26629 5.6842 9.71869 6.1124 10.469L19.5862 12.7421L12.1137 18.5201C12.5949 19.0157 13.0994 19.5054 13.6271 19.9808L22.3793 13.2136L31.0529 14.6771L19.2567 23.8035C19.9889 24.1453 20.7455 24.4412 21.5259 24.6794L33.8461 15.1486L44.7184 16.9826C45.3486 16.4329 45.6963 16.0922 45.6963 16.0922C45.6963 16.0922 45.4811 15.6564 45.0682 14.9305Z" fill="#09A66D"/>
<path d="M53.2531 11.5619C56.2338 4.50916 66.5608 2.13477 66.5608 2.13477C66.5608 2.13477 72.0558 11.1951 69.0751 18.2479C66.0951 25.3007 55.7675 27.6751 55.7675 27.6751C55.7675 27.6751 50.2725 18.6147 53.2533 11.5619H53.2531Z" fill="#49CB5C"/>
<path d="M66.5589 2.13477C66.5589 2.13477 64.2106 2.67521 61.4303 4.00508C62.8568 7.02684 65.1182 13.1594 62.9676 18.2479C61.4086 21.9371 57.839 24.3462 54.7891 25.8047C55.3396 26.9711 55.7663 27.6751 55.7663 27.6751C55.7663 27.6751 66.0934 25.3007 69.074 18.2479C72.054 11.1951 66.559 2.13477 66.559 2.13477H66.5589Z" fill="#07B128"/>
<path d="M69.9177 12.4309L61.9762 15.7623L67.1901 3.29688C66.8169 2.55996 66.5589 2.13477 66.5589 2.13477C66.5589 2.13477 66.0675 2.24797 65.2681 2.49803L59.8795 15.3805L56.5377 7.15877C55.9717 7.6582 55.4375 8.2007 54.9531 8.78873L58.7397 18.1054L55.1828 26.6087C55.5301 27.2864 55.7655 27.6751 55.7655 27.6751C55.7655 27.6751 56.2995 27.5523 57.1583 27.2799L60.8311 18.5L69.9143 14.6901C69.9747 13.9354 69.9714 13.1788 69.9175 12.4311L69.9177 12.4309Z" fill="#09A66D"/>
</g>
</g>
<defs>
<clipPath id="clip0_445_2522">
<rect width="70" height="70" rx="12" fill="white"/>
</clipPath>
<clipPath id="clip1_445_2522">
<rect width="70" height="70" fill="white"/>
</clipPath>
</defs>
</svg>
