<svg width="70" height="70" viewBox="0 0 70 70" fill="none" xmlns="http://www.w3.org/2000/svg">
<g clip-path="url(#clip0_445_2494)">
<path d="M63.2953 18.375L62.3438 18.9328C61.2828 17.139 60.0578 15.4546 58.6797 13.9125L59.5 13.1796C56.4217 9.72049 52.6463 6.95178 48.4219 5.05541C44.1974 3.15904 39.6196 2.17792 34.9891 2.17651C16.9094 2.18745 2.1875 16.9093 2.1875 35C2.1875 53.0906 16.9094 67.8125 35 67.8125C53.0906 67.8125 67.8125 53.0906 67.8125 35C67.8125 29.1375 66.2484 23.3953 63.2953 18.375Z" fill="#82CD47"/>
<path d="M60.5704 25.3533L59.5641 25.7361C58.1422 21.9627 55.8672 18.5939 52.9797 15.8814L53.7344 15.0939C53.0782 14.4596 52.3454 13.8361 51.5579 13.2346C46.7563 9.57051 41.0251 7.64551 34.9875 7.64551C23.7 7.64551 13.4188 14.733 9.41566 25.2986L10.4328 25.6814C10.0282 26.7424 9.70003 27.8361 9.43753 28.9518L8.3766 28.6893C7.87919 30.7522 7.62951 32.8672 7.63285 34.9893C7.63285 50.0721 19.8938 62.333 34.9766 62.333C50.0594 62.333 62.3204 50.0721 62.3204 34.9893C62.3204 31.6424 61.7298 28.3939 60.5485 25.3424L60.5704 25.3533Z" fill="#F6F6C9"/>
<path d="M65.4804 11.4846C64.9992 10.9705 64.2882 10.8065 63.632 11.0362L48.3523 16.3518C41.746 18.6487 37.1195 23.2096 35.3257 29.1924C34.4945 31.9705 35.3038 34.9784 37.4585 37.0455L39.1648 38.6862C40.0624 39.5464 41.1501 40.1829 42.3397 40.5439C43.5294 40.905 44.7874 40.9805 46.0117 40.7643C51.8085 39.7252 56.6101 35.8534 58.8414 30.4065L65.8414 13.3659C66.1039 12.7205 65.9726 11.9987 65.4914 11.4955L65.4804 11.4846ZM29.0476 34.8471C27.2648 30.669 23.7101 27.7487 19.0507 26.633L8.51791 24.1065C7.92728 23.9643 7.33666 24.1721 6.96478 24.6534C6.58197 25.1455 6.53822 25.8237 6.83353 26.3705L13.0351 37.8549C15.0695 41.6284 18.7007 44.0455 22.7257 44.319C22.846 44.319 22.9663 44.3299 23.0867 44.3299C24.7601 44.3299 26.346 43.5315 27.3851 42.1424L28.3476 40.8518C28.9788 39.9993 29.3756 38.9964 29.4984 37.9428C29.6212 36.8892 29.4658 35.8219 29.0476 34.8471Z" fill="#379237"/>
<path d="M57.3308 19.972C57.0136 19.436 56.3027 19.2501 55.7558 19.5673C50.0573 22.8923 38.5948 35.3173 38.5948 35.3173C35.2261 38.686 33.0167 43.0501 32.2511 47.7204C30.8511 44.8766 27.012 39.8235 27.012 39.8235L26.3776 38.8938C23.9276 35.3282 20.5808 32.6376 16.6651 31.0516C16.1073 30.8329 15.4948 31.1501 15.2979 31.7407C15.112 32.2985 15.4073 32.9001 15.9433 33.1079C19.4542 34.5407 22.4511 36.9579 24.6604 40.1626L25.6995 41.5298C28.0401 44.4173 29.9651 47.611 31.387 51.0454C32.262 53.1672 32.7433 55.4969 32.8198 57.9688C32.8417 58.5594 33.3011 59.0407 33.8917 59.0516C34.5042 59.0516 35.0292 58.5594 35.0073 57.9469C34.9538 55.8752 34.6114 53.821 33.9901 51.8438L34.2417 49.361C34.7011 44.7454 36.7355 40.3923 39.962 37.0673C39.962 37.0673 51.3698 24.686 56.937 21.4376C57.462 21.1313 57.648 20.486 57.3417 19.961L57.3308 19.972Z" fill="#1A5D1A"/>
</g>
<defs>
<clipPath id="clip0_445_2494">
<rect width="70" height="70" rx="12" fill="white"/>
</clipPath>
</defs>
</svg>
