<svg width="70" height="70" viewBox="0 0 70 70" fill="none" xmlns="http://www.w3.org/2000/svg">
<g clip-path="url(#clip0_445_2505)">
<path d="M68.7466 39.4438V41.8063C68.7466 45.7888 67.0816 49.5688 64.1903 52.2913L59.8141 51.6275C61.2413 49.2734 61.9962 46.5731 61.9966 43.82V39.68C61.9966 37.3513 61.4566 35.09 60.4666 33.065C59.7353 31.5575 58.7341 30.185 57.5078 29.0038L57.5191 28.9925C57.8312 28.4248 58.2905 27.9517 58.8488 27.6231C59.4071 27.2944 60.0437 27.1224 60.6916 27.125C61.4678 27.125 62.2216 27.3725 62.8516 27.8338C66.5641 30.5788 68.7466 34.8763 68.7466 39.4438Z" fill="#FCD770"/>
<path d="M56.195 27.845C56.6675 28.205 57.1175 28.5875 57.5112 29.0038C58.7375 30.185 59.7387 31.5575 60.47 33.065C61.46 35.09 62 37.3512 62 39.68V43.82C62 46.61 61.2238 49.31 59.8175 51.6275L49.265 50.0075V49.9963C48.7588 48.05 48.5 46.0587 48.5 44.0337V39.4663C48.5 37.9025 48.6575 36.3387 48.9613 34.8088C49.5125 34.9325 50.1087 35 50.75 35C53.2362 35 55.25 33.9875 55.25 32.75C55.25 31.9513 54.4175 31.2537 53.1688 30.86L53.5063 27.17C53.9768 27.0957 54.4575 27.1172 54.9195 27.2332C55.3815 27.3492 55.8153 27.5573 56.195 27.845ZM42.6163 27.6088C43.2125 27.9463 43.6963 28.4412 44.0225 29.06V29.0712C42.5933 30.444 41.4561 32.0913 40.6789 33.9142C39.9018 35.7372 39.5008 37.6983 39.5 39.68V43.82C39.5 45.4738 39.7813 47.0938 40.31 48.6238L33.9988 47.6562C33.1888 45.8337 32.75 43.8537 32.75 41.8062V39.4438C32.7519 38.3607 32.8765 37.2813 33.1212 36.2262C33.8862 32.9075 35.8213 29.9262 38.645 27.8337C39.275 27.3725 40.0287 27.125 40.805 27.125C41.4575 27.125 42.0763 27.2938 42.6163 27.6088Z" fill="#FCD770"/>
<path d="M47.9937 27.1475L48.3312 30.86C47.0825 31.2537 46.25 31.9513 46.25 32.75C46.25 33.6725 47.3637 34.46 48.9613 34.8088C48.6558 36.3425 48.5013 37.9024 48.5 39.4663V44.0337C48.5 46.0587 48.7587 48.05 49.265 49.9963L42.2 48.9162L40.31 48.6238C39.7813 47.0938 39.5 45.4738 39.5 43.82V39.68C39.5 35.6525 41.1538 31.8275 44.0225 29.0712V29.06C44.4725 28.6212 44.945 28.2162 45.4513 27.845C46.0813 27.3837 46.8462 27.125 47.6337 27.125C47.7575 27.125 47.87 27.1363 47.9825 27.1475H47.9937Z" fill="#FCD770"/>
<path d="M55.25 32.75C55.25 33.9875 53.2362 35 50.75 35C50.1088 35 49.5125 34.9325 48.9612 34.8088C47.3637 34.46 46.25 33.6725 46.25 32.75C46.25 31.9513 47.0825 31.2538 48.3312 30.86L47.9937 27.1475L47.3862 20.5213C47.375 20.42 47.375 20.33 47.375 20.2288C47.375 18.44 48.815 17 50.6037 17H50.8963C51.3205 16.9993 51.7407 17.0823 52.1327 17.2443C52.5248 17.4063 52.881 17.6441 53.181 17.944C53.4809 18.244 53.7187 18.6002 53.8807 18.9923C54.0427 19.3844 54.1257 19.8045 54.125 20.2288C54.125 20.33 54.125 20.42 54.1138 20.5213L53.5063 27.17L53.1688 30.86C54.4175 31.2538 55.25 31.9513 55.25 32.75Z" fill="#CF9E76"/>
<path d="M25.8988 5.89626C26.2925 5.80626 26.7087 5.75001 27.125 5.75001C28.9587 5.75001 30.6012 6.62751 31.625 8.00001L31.6025 8.11251C30.3353 7.85628 29.0184 8.04548 27.8746 8.64814C26.7308 9.25079 25.8302 10.2299 25.325 11.42C25.1787 11.4088 25.0325 11.375 24.875 11.375C22.0513 11.375 19.7337 13.4675 19.3287 16.1788C16.0437 17.1238 13.625 20.15 13.625 23.75C13.625 26.8213 15.38 29.465 17.945 30.77C17.3281 31.6879 16.999 32.769 17 33.875C17 35.8775 18.0575 37.6213 19.6325 38.6225C19.3962 39.2413 19.25 39.9163 19.25 40.625C19.25 43.73 21.77 46.2838 24.875 46.2838C24.5825 46.2613 24.3013 46.25 24.02 46.25H23.75C21.5562 46.25 19.5088 46.88 17.7763 47.9713L14.75 39.5C11.645 39.5 9.125 36.98 9.125 33.875C9.125 33.1663 9.27125 32.4913 9.5075 31.8725C7.9325 30.8713 6.875 29.1275 6.875 27.125C6.875 25.9775 7.22375 24.9088 7.82 24.02C5.255 22.715 3.5 20.0713 3.5 17C3.5 13.4 5.91875 10.3738 9.20375 9.42876C9.60875 6.71751 11.9263 4.62501 14.75 4.62501C14.9075 4.62501 15.0538 4.65876 15.2 4.67001C15.6309 3.65435 16.3516 2.78824 17.272 2.17996C18.1924 1.57168 19.2717 1.24821 20.375 1.25001C23.1425 1.25001 25.4375 3.25251 25.8988 5.89626Z" fill="#8CC152"/>
<path d="M41.255 22.0623C41.9534 22.7669 42.4517 23.6447 42.6988 24.6055C42.946 25.5664 42.933 26.5756 42.6613 27.5298L42.6162 27.6085C42.0662 27.2892 41.441 27.1222 40.805 27.1248C40.0288 27.1248 39.275 27.3723 38.645 27.8335C35.6618 30.0317 33.6331 33.2882 32.975 36.9348C32.8288 37.756 32.75 38.5998 32.75 39.4435V41.806C32.75 43.8535 33.1888 45.8335 33.9987 47.656L25.73 46.3848C25.4375 46.3398 25.1562 46.306 24.875 46.2835C21.77 46.2835 19.25 43.7298 19.25 40.6248C19.25 39.916 19.3962 39.241 19.6325 38.6223C18.0575 37.621 17 35.8773 17 33.8748C17 32.7273 17.3488 31.6585 17.945 30.7698C15.38 29.4648 13.625 26.821 13.625 23.7498C13.625 20.1498 16.0437 17.1235 19.3288 16.1785C19.7337 13.4673 22.0513 11.3748 24.875 11.3748C25.0325 11.3748 25.1787 11.4085 25.325 11.4198C25.8302 10.2297 26.7308 9.25058 27.8746 8.64792C29.0184 8.04527 30.3353 7.85606 31.6025 8.11229C33.8638 8.56229 35.63 10.3623 36.0238 12.646C36.4175 12.556 36.8338 12.4998 37.25 12.4998C40.355 12.4998 42.875 15.0198 42.875 18.1248C42.875 19.6548 42.2563 21.0498 41.255 22.0623ZM6.65 55.2498H12.725C12.4234 56.7346 12.4234 58.2649 12.725 59.7498H3.5C2.88125 59.7498 2.31875 59.5023 1.91375 59.086C1.4975 58.681 1.25 58.1185 1.25 57.4998C1.25 56.2623 2.2625 55.2498 3.5 55.2498H6.65ZM7.08875 50.7948L13.7825 52.291C13.2987 53.2135 12.9387 54.2035 12.725 55.2498H6.65C5.53625 55.2498 4.625 54.3385 4.625 53.2248V52.7748C4.62558 52.4717 4.69401 52.1725 4.82528 51.8993C4.95654 51.6261 5.14731 51.3857 5.38358 51.1959C5.61985 51.006 5.89563 50.8714 6.19069 50.802C6.48575 50.7326 6.79261 50.7301 7.08875 50.7948ZM13.7825 62.7085L7.08875 64.2048C6.79261 64.2694 6.48575 64.267 6.19069 64.1976C5.89563 64.1282 5.61985 63.9936 5.38358 63.8037C5.14731 63.6138 4.95654 63.3735 4.82528 63.1003C4.69401 62.827 4.62558 62.5279 4.625 62.2248V61.7748C4.625 60.661 5.53625 59.7498 6.65 59.7498H12.725C12.9387 60.796 13.2987 61.786 13.7825 62.7085Z" fill="#B4DD7F"/>
<path d="M67.4865 54.08C66.6877 53.1575 65.574 52.505 64.3027 52.3137L64.1902 52.2912L59.814 51.6275L49.2615 50.0075V49.9963L42.1965 48.9162L40.3065 48.6238L33.9952 47.6562L25.7265 46.385C25.1608 46.2959 24.5891 46.2507 24.0165 46.25H23.7465C21.5527 46.25 19.5052 46.88 17.7727 47.9712C16.0852 49.0287 14.7015 50.525 13.779 52.2912C12.574 54.5802 12.2002 57.2163 12.7215 59.75C12.9352 60.7963 13.2952 61.7863 13.779 62.7088C14.3077 63.7213 14.994 64.655 15.7927 65.4538C16.836 66.5 18.0757 67.3298 19.4407 67.8955C20.8056 68.4612 22.2689 68.7516 23.7465 68.75H24.0165C24.579 68.75 25.1527 68.705 25.7265 68.615L42.1965 66.0838L64.3027 62.6863C65.5403 62.4941 66.6684 61.8657 67.4834 60.9146C68.2983 59.9635 68.7463 58.7524 68.7465 57.5C68.7465 56.2063 68.274 55.0025 67.4865 54.08Z" fill="#FF826E"/>
<path d="M69.875 39.4426C69.875 34.5444 67.5001 29.8666 63.5221 26.9304C62.7016 26.327 61.7101 26.0011 60.6916 26C59.4441 26.0002 58.2471 26.4926 57.3605 27.3703C57.1974 27.2341 57.0489 27.0845 56.8801 26.9551C56.2558 26.4781 55.5065 26.1946 54.737 26.0776L55.2331 20.6225C55.2871 20.0201 55.2152 19.4131 55.0218 18.84C54.8285 18.2669 54.518 17.7403 54.1101 17.2938C53.7021 16.8473 53.2057 16.4905 52.6524 16.2462C52.0991 16.002 51.5011 15.8756 50.8963 15.875H50.6037C49.9989 15.8757 49.4009 16.0023 48.8476 16.2467C48.2944 16.4911 47.7981 16.8479 47.3902 17.2946C46.9824 17.7412 46.672 18.2679 46.4788 18.841C46.2856 19.4142 46.2138 20.0212 46.268 20.6236L46.7664 26.1024C46.0491 26.2302 45.3702 26.519 44.7808 26.9473C44.5794 27.098 44.4005 27.2713 44.207 27.4299C44.1067 27.3271 44.0016 27.2291 43.892 27.1363C43.9561 26.7616 44 26.3825 44 26C44.0027 24.5862 43.5577 23.2078 42.7287 22.0625C43.5578 20.9173 44.0029 19.5388 44 18.125C44 14.273 40.7409 11.1511 36.8574 11.3874C36.5026 10.3762 35.9112 9.46448 35.1326 8.72827C34.3539 7.99205 33.4105 7.45268 32.381 7.15513C31.0108 5.44625 28.9452 4.49788 26.7324 4.63738C26.2724 3.31826 25.4132 2.17506 24.2739 1.36646C23.1347 0.557854 21.772 0.123961 20.375 0.125002C19.1893 0.124064 18.0243 0.435907 16.9975 1.02906C15.9708 1.62222 15.1187 2.4757 14.5273 3.50338C11.5483 3.6035 8.97312 5.70613 8.23512 8.57038C4.75212 9.86975 2.375 13.2414 2.375 17C2.37166 18.4668 2.72891 19.912 3.41532 21.2083C4.10174 22.5046 5.09626 23.6124 6.31138 24.434C5.94016 25.2825 5.74901 26.1988 5.75 27.125C5.75 29.15 6.65 31.0321 8.19463 32.3068C8.06634 32.8197 8.00099 33.3463 8 33.875C8.00233 35.5243 8.60745 37.1159 9.70145 38.3502C10.7955 39.5845 12.3029 40.3763 13.94 40.5766L16.4285 47.546C15.152 48.4867 14.0672 49.6628 13.2324 51.011L7.3385 49.7015C6.87771 49.5994 6.39988 49.6019 5.9402 49.7089C5.48052 49.8159 5.0507 50.0246 4.68238 50.3198C4.31407 50.6149 4.01664 50.9889 3.81201 51.4142C3.60738 51.8395 3.50076 52.3053 3.5 52.7772V53.2228C3.5 53.5378 3.56075 53.837 3.64738 54.125H3.5C1.63925 54.125 0.125 55.6393 0.125 57.5C0.125 59.3607 1.63925 60.875 3.5 60.875H3.64738C3.55418 61.1669 3.50452 61.4709 3.5 61.7772V62.2228C3.50067 62.6946 3.60713 63.1603 3.81156 63.5855C4.01599 64.0107 4.31317 64.3847 4.68124 64.6799C5.04931 64.9752 5.47889 65.1841 5.93837 65.2913C6.39785 65.3986 6.87553 65.4014 7.33625 65.2996L13.2324 63.989C15.416 67.5148 19.3074 69.875 23.75 69.875H24.0144C24.6399 69.875 25.2732 69.8266 25.8954 69.731L64.4728 63.7966C65.9797 63.5716 67.3551 62.8114 68.3472 61.655C69.3393 60.4986 69.8817 59.0236 69.875 57.5C69.8778 56.2951 69.5357 55.1145 68.8893 54.0976C68.2428 53.0808 67.3189 52.2701 66.2266 51.7614C68.5576 48.977 69.875 45.4445 69.875 41.8074V39.4426ZM55.5121 28.7428C58.8703 31.31 60.875 35.3994 60.875 39.6845V43.8166C60.875 46.1229 60.3001 48.3808 59.2168 50.3956L50.1954 49.0074C49.8203 47.376 49.629 45.7077 49.625 44.0337V39.4663C49.625 38.3323 49.7386 37.1994 49.9108 36.0766C50.1864 36.1003 50.4609 36.125 50.75 36.125C53.9574 36.125 56.375 34.6738 56.375 32.75C56.375 31.688 55.6404 30.7453 54.368 30.1265L54.5334 28.3063C54.8844 28.3771 55.2219 28.5189 55.5121 28.7428ZM50.6037 18.125H50.8974C51.1896 18.1254 51.4786 18.1866 51.7459 18.3047C52.0133 18.4229 52.2531 18.5954 52.4501 18.8112C52.6471 19.0271 52.7971 19.2816 52.8904 19.5586C52.9837 19.8356 53.0184 20.1289 52.9921 20.42L51.9706 31.6554L52.829 31.931C53.8145 32.246 54.125 32.6611 54.125 32.75C54.125 33.0301 52.928 33.875 50.75 33.875C48.572 33.875 47.375 33.0301 47.375 32.75C47.375 32.6611 47.6855 32.246 48.671 31.9299L49.5294 31.6543L48.5079 20.42C48.4816 20.1288 48.5163 19.8354 48.6097 19.5583C48.7031 19.2813 48.8531 19.0267 49.0503 18.8108C49.2474 18.5949 49.4874 18.4225 49.7548 18.3044C50.0223 18.1863 50.3114 18.1252 50.6037 18.125ZM46.97 28.3434L47.132 30.1265C45.8596 30.7453 45.125 31.688 45.125 32.75C45.125 33.9898 46.1364 35.0259 47.708 35.6109C47.5066 36.8878 47.375 38.177 47.375 39.4663V44.0337C47.375 45.5795 47.5235 47.123 47.8115 48.6406L41.1796 47.6202C40.8148 46.3848 40.628 45.1037 40.625 43.8155V39.6834C40.625 35.405 42.6815 31.3168 46.1263 28.7495C46.3771 28.5628 46.6662 28.4255 46.97 28.3434ZM34.8121 46.6404C34.1968 45.1032 33.8787 43.4632 33.875 41.8074V39.4415C33.875 35.2543 35.909 31.2538 39.3144 28.7383C39.7419 28.4233 40.2729 28.25 40.8084 28.25C41.4879 28.25 42.1134 28.5234 42.5713 28.9813C39.9185 31.8883 38.375 35.7065 38.375 39.6845V43.8166C38.375 44.9765 38.5134 46.124 38.7643 47.249L34.8121 46.6404ZM34.9179 12.8386L35.1226 13.9963L36.2701 13.7409C36.5915 13.6663 36.9201 13.6274 37.25 13.625C39.7318 13.625 41.75 15.6433 41.75 18.125C41.7512 19.3038 41.2871 20.4354 40.4585 21.2739L39.6845 22.0625L40.4585 22.8511C41.2871 23.6896 41.7512 24.8212 41.75 26C41.75 26.0338 41.7432 26.0675 41.7432 26.1024C41.4358 26.0375 41.1226 26.0032 40.8084 26C39.7901 26.0012 38.7987 26.3267 37.9779 26.9293C35.9585 28.4255 34.3284 30.3852 33.2248 32.6431C32.814 31.3627 32.3688 30.0936 31.8894 28.8373C32.93 23.3405 36.7899 20.159 36.8293 20.1264L36.125 19.25L35.4219 18.3714C35.2655 18.4963 32.2224 20.9814 30.5135 25.4645C28.1724 20.0893 25.9629 16.6119 25.8211 16.3914L23.9278 17.6086C23.9581 17.6548 25.6737 20.3536 27.6706 24.65C24.3057 23.3833 20.4819 23.7331 20.2625 23.7556L20.4864 25.9944C22.1784 25.8245 26.9709 25.9066 29.2096 28.1915C30.0589 30.2687 30.8105 32.3845 31.4619 34.532C28.0419 32.7781 23.9615 32.75 23.75 32.75V35C23.8029 35 28.8114 35.0337 31.7758 37.3906C31.6835 38.0679 31.625 38.7519 31.625 39.4426V41.8085C31.625 43.3284 31.859 44.8145 32.2933 46.2545L25.8954 45.2701C25.5579 45.2184 25.217 45.1835 24.875 45.1587C22.3932 45.1587 20.375 43.1247 20.375 40.6261C20.375 40.1019 20.4796 39.5641 20.6844 39.0252L21.0129 38.1646L20.2332 37.6719C19.7248 37.3547 19.2853 36.9387 18.9406 36.4486C18.5959 35.9584 18.3531 35.4041 18.2266 34.8184C18.1001 34.2327 18.0924 33.6275 18.204 33.0388C18.3157 32.4501 18.5443 31.8897 18.8765 31.391L19.5774 30.338L18.4501 29.7654C17.3361 29.2046 16.4 28.345 15.7466 27.2827C15.0932 26.2203 14.7481 24.9972 14.75 23.75C14.7553 22.2856 15.2348 20.8623 16.1169 19.6933C16.9989 18.5243 18.2359 17.6725 19.6426 17.2655L20.3412 17.0653L20.4459 16.3464C20.7665 14.1538 22.6711 12.5 24.875 12.5C24.9166 12.5 24.9571 12.509 24.9976 12.5146C25.0764 12.5259 25.1562 12.536 25.2361 12.5416L26.0427 12.6069L26.36 11.8621C26.7053 11.05 27.282 10.3574 28.0182 9.87067C28.7544 9.38395 29.6175 9.12463 30.5 9.125C31.5558 9.1247 32.5778 9.49702 33.386 10.1764C34.1942 10.8557 34.7367 11.7985 34.9179 12.8386ZM15.5431 38.375H14.75C12.2682 38.375 10.25 36.3568 10.25 33.875C10.25 33.3496 10.3546 32.8119 10.5594 32.2752L10.889 31.4146L10.1094 30.9219C9.60088 30.6048 9.16121 30.1889 8.81641 29.6988C8.47161 29.2087 8.2287 28.6543 8.10207 28.0686C7.97545 27.4829 7.96768 26.8777 8.07923 26.289C8.19079 25.7002 8.41939 25.1398 8.7515 24.641L9.45238 23.588L8.32512 23.0154C7.21111 22.4546 6.27504 21.595 5.62159 20.5327C4.96815 19.4703 4.62309 18.2472 4.625 17C4.63021 15.5357 5.10961 14.1126 5.99142 12.9436C6.87322 11.7746 8.10998 10.9227 9.5165 10.5155L10.2151 10.3153L10.3197 9.59638C10.6415 7.40375 12.5461 5.75 14.75 5.75C14.7928 5.75 14.8344 5.759 14.876 5.76463C14.9525 5.77475 15.029 5.78488 15.1077 5.79163L15.9178 5.85913L16.2361 5.111C16.5813 4.29906 17.1578 3.60667 17.8938 3.12014C18.6298 2.63361 19.4927 2.37446 20.375 2.375C21.4308 2.3747 22.4528 2.74702 23.261 3.42637C24.0692 4.10573 24.6117 5.04851 24.7929 6.08863L24.9976 7.24625L26.1451 6.99088C26.4665 6.91627 26.7951 6.87741 27.125 6.875C27.6425 6.875 28.1341 6.98863 28.6044 7.15288C26.9365 7.63809 25.5205 8.74892 24.6523 10.2534C21.6733 10.3535 19.0981 12.4561 18.3601 15.3204C14.8771 16.6198 12.5 19.9914 12.5 23.75C12.4967 25.2168 12.8539 26.662 13.5403 27.9583C14.2267 29.2546 15.2213 30.3624 16.4364 31.184C16.0652 32.0325 15.874 32.9488 15.875 33.875C15.875 35.9 16.775 37.7821 18.3196 39.0579C18.1903 39.5799 18.125 40.1041 18.125 40.625C18.125 42.6016 18.9755 44.378 20.3221 45.6177C19.6539 45.8112 19.0115 46.0621 18.395 46.3602L15.5431 38.375ZM5.75 53.2228V52.7772C5.75 52.2125 6.29675 51.7771 6.84913 51.8964L12.203 53.0866C12.0725 53.4264 11.9555 53.7718 11.8554 54.125H6.65225C6.41305 54.1247 6.18373 54.0295 6.01459 53.8604C5.84545 53.6913 5.7503 53.462 5.75 53.2228ZM2.375 57.5C2.375 56.8801 2.88013 56.375 3.5 56.375H11.4313C11.3986 56.7463 11.375 57.1198 11.375 57.5C11.375 57.8802 11.3986 58.2537 11.4324 58.625H3.5C2.88013 58.625 2.375 58.1199 2.375 57.5ZM6.84687 63.1036C6.31362 63.2184 5.75 62.7864 5.75 62.2228V61.7772C5.75 61.28 6.155 60.875 6.65225 60.875H11.8542C11.9544 61.2282 12.0725 61.5736 12.2019 61.9134L6.84687 63.1036ZM67.625 57.5C67.6296 58.4854 67.279 59.4394 66.6375 60.1873C65.996 60.9352 65.1064 61.427 64.1319 61.5725L25.5556 67.5069C25.0456 67.5854 24.5304 67.6249 24.0144 67.625H23.75C18.1677 67.625 13.625 63.0822 13.625 57.5C13.625 51.9178 18.1677 47.375 23.75 47.375H24.0144C24.5263 47.375 25.0449 47.4144 25.5545 47.492L64.1308 53.4264C66.1558 53.7391 67.625 55.4514 67.625 57.5ZM67.625 41.8074C67.625 45.2679 66.2244 48.6159 63.7876 51.0976L61.5522 50.7534C62.5861 48.5865 63.1234 46.2163 63.125 43.8155V39.6834C63.125 35.6851 61.6017 31.8478 58.985 28.9363C59.4096 28.5311 59.9638 28.2893 60.5495 28.2534C61.1353 28.2176 61.7148 28.3902 62.1856 28.7405C65.591 31.2538 67.625 35.2554 67.625 39.4426V41.8074Z" fill="black"/>
<path d="M22.625 51.875H24.875V63.125H22.625V51.875ZM31.625 51.875H33.875V63.125H31.625V51.875ZM40.625 51.875H42.875V63.125H40.625V51.875ZM49.625 54.125H51.875V60.875H49.625V54.125ZM58.625 55.25H60.875V59.75H58.625V55.25Z" fill="black"/>
</g>
<defs>
<clipPath id="clip0_445_2505">
<rect width="70" height="70" rx="12" fill="white"/>
</clipPath>
</defs>
</svg>
