<svg width="48" height="48" viewBox="0 0 48 48" fill="none" xmlns="http://www.w3.org/2000/svg">
<g clip-path="url(#clip0_445_1318)">
<path d="M24.0004 0.748047C19.227 0.751802 14.6503 2.64986 11.2753 6.02538C7.90034 9.4009 6.003 13.9779 6 18.7512C6.00225 23.5245 7.89944 28.1017 11.2747 31.4769C14.6499 34.8522 19.2271 36.7493 24.0004 36.7516C28.7737 36.7493 33.3508 34.8522 36.726 31.4769C40.1013 28.1017 41.9985 23.5245 42.0007 18.7512C41.9977 13.9774 40.1 9.39998 36.7244 6.02438C33.3488 2.64877 28.7713 0.751051 23.9975 0.748047H24.0004ZM24.0004 2.2476C26.1676 2.24686 28.3137 2.67327 30.316 3.50246C32.3184 4.33165 34.1376 5.54736 35.6698 7.08009C37.202 8.61281 38.4171 10.4325 39.2456 12.4351C40.0741 14.4377 40.4998 16.584 40.4983 18.7512C40.4983 27.8733 33.1224 35.2492 24.0004 35.2492C14.8783 35.2492 7.50239 27.8733 7.50239 18.7512C7.5009 16.5842 7.92648 14.4382 8.75481 12.4358C9.58313 10.4333 10.798 8.61378 12.3299 7.08109C13.8618 5.5484 15.6807 4.33263 17.6827 3.50327C19.6847 2.67392 21.8305 2.24723 23.9975 2.2476H24.0004Z" fill="#39251A"/>
<path d="M23.9996 5.25C20.4202 5.25375 16.9885 6.67754 14.4577 9.20887C11.9269 11.7402 10.5038 15.1722 10.5008 18.7517C10.503 22.3311 11.926 25.7633 14.457 28.2943C16.988 30.8254 20.4202 32.2483 23.9996 32.2505C27.5791 32.2483 31.0112 30.8254 33.5423 28.2943C36.0733 25.7633 37.4962 22.3311 37.4985 18.7517C37.4955 15.1722 36.0724 11.7402 33.5416 9.20887C31.0108 6.67754 27.5791 5.25375 23.9996 5.25ZM23.9996 6.74956C25.5757 6.74881 27.1365 7.05879 28.5927 7.66176C30.0489 8.26472 31.3719 9.14886 32.4861 10.2636C33.6003 11.3783 34.4838 12.7017 35.0861 14.1582C35.6883 15.6147 35.9976 17.1756 35.9961 18.7517C35.998 20.3277 35.689 21.8887 35.0868 23.3452C34.4846 24.8016 33.6011 26.125 32.4867 27.2396C31.3724 28.3542 30.0492 29.238 28.5929 29.8406C27.1366 30.4431 25.5757 30.7525 23.9996 30.751C22.4231 30.7528 20.8616 30.4438 19.4046 29.8415C17.9477 29.2392 16.6238 28.3555 15.5087 27.241C14.3936 26.1264 13.5093 24.8029 12.9063 23.3462C12.3034 21.8896 11.9936 20.3282 11.9947 18.7517C11.9936 17.175 12.3033 15.6135 12.9063 14.1567C13.5092 12.6998 14.3935 11.3762 15.5085 10.2614C16.6236 9.14664 17.9474 8.26267 19.4044 7.66007C20.8614 7.05747 22.4229 6.74807 23.9996 6.74956ZM9.82047 29.0615L2.77623 41.2592C2.70584 41.3843 2.67276 41.5269 2.6809 41.6702C2.68903 41.8135 2.73805 41.9515 2.82215 42.0678C2.90625 42.1841 3.02191 42.2739 3.15544 42.3265C3.28897 42.3791 3.43478 42.3924 3.57562 42.3647L10.7502 40.9474L13.1087 47.8754C13.1554 48.0118 13.2403 48.1318 13.3534 48.2212C13.4664 48.3106 13.6028 48.3656 13.7462 48.3797C13.8896 48.3937 14.0341 48.3662 14.1623 48.3004C14.2905 48.2346 14.3971 48.1333 14.4694 48.0086L21.3719 36.0575L20.0707 35.3035L13.996 45.8202L11.9607 39.839C11.9018 39.6678 11.783 39.5236 11.6262 39.4329C11.4695 39.3423 11.2852 39.3113 11.1074 39.3458L4.90509 40.5675L11.1188 29.8127L9.82047 29.0615ZM38.1788 29.0615L36.8834 29.8155L43.0942 40.5704L36.8947 39.3486C36.7169 39.3142 36.5327 39.3451 36.3759 39.4358C36.2191 39.5264 36.1003 39.6706 36.0415 39.8419L34.0033 45.8231L27.9314 35.3063L26.6274 36.0604L33.5271 48.0086C33.5993 48.1333 33.7059 48.2346 33.8341 48.3004C33.9624 48.3662 34.1068 48.3937 34.2503 48.3797C34.3937 48.3656 34.53 48.3106 34.6431 48.2212C34.7561 48.1318 34.841 48.0118 34.8877 47.8754L37.249 40.9474L44.4208 42.3647C44.5617 42.3924 44.7075 42.3791 44.841 42.3265C44.9745 42.2739 45.0902 42.1841 45.1743 42.0678C45.2584 41.9515 45.3074 41.8135 45.3156 41.6702C45.3237 41.5269 45.2906 41.3843 45.2202 41.2592L38.1788 29.0615Z" fill="#39251A"/>
<path d="M24.0031 10.3975C23.4702 10.3975 23.3794 10.6299 23.2377 10.7745C22.4185 11.7213 21.3158 13.6715 20.9076 14.3179C19.5299 14.6609 18.0644 14.9472 16.8228 15.4347C16.6414 15.5254 16.3947 15.5453 16.2275 16.0499C16.0659 16.5573 16.253 16.7132 16.3465 16.8918C16.9503 17.9038 18.6682 19.8058 18.997 20.2027C18.912 21.7136 18.705 23.0742 18.7986 24.4321C18.8269 24.6305 18.7674 24.8714 19.1954 25.1861C19.6263 25.4979 19.8389 25.3675 20.0373 25.3335C21.2194 25.05 23.3398 24.1032 24.0031 23.8396C25.3354 24.347 26.6564 24.9962 27.966 25.3335C28.1644 25.3675 28.377 25.4979 28.8079 25.1861C29.2388 24.8743 29.1764 24.6305 29.2048 24.4321C29.3068 23.2613 29.0432 20.7186 29.0063 20.2027C29.7717 19.3069 30.5938 18.346 31.3166 17.4247C31.7276 16.9768 31.8949 16.5006 31.7758 16.0499C31.6539 15.5991 31.3648 15.5254 31.1834 15.4347C29.8596 14.9103 28.4564 14.6609 27.0986 14.3179C26.3162 13.1273 25.6302 11.8176 24.7656 10.7745C24.6239 10.6327 24.536 10.3975 24.0002 10.3975H24.0031ZM24.0031 12.2202C24.6607 13.1811 25.2135 14.1591 25.84 15.1144C25.942 15.2561 25.976 15.3554 26.217 15.5311C26.4579 15.704 26.5543 15.704 26.7216 15.7579C27.8413 16.0555 28.9355 16.2993 30.0438 16.6083C29.3408 17.5381 28.5755 18.363 27.8611 19.2559C27.7562 19.3976 27.6769 19.4543 27.5833 19.7378C27.4926 20.0213 27.5209 20.1177 27.5238 20.2906C27.5805 21.4528 27.6882 22.5697 27.7392 23.7206C26.4919 23.2868 25.1653 22.5867 24.0031 22.3401C23.7054 22.3401 23.6261 22.3996 23.4588 22.4534C22.3731 22.8673 21.3413 23.3152 20.2641 23.7177C20.301 22.5498 20.4285 21.4358 20.4824 20.2906C20.4824 20.1177 20.5107 20.0184 20.42 19.7378C20.3293 19.4543 20.2499 19.3976 20.1422 19.2559C19.4335 18.3601 18.5888 17.4077 17.9595 16.6083C19.0792 16.2795 20.1791 16.0527 21.2846 15.7579C21.4518 15.704 21.5482 15.704 21.7892 15.5311C22.0273 15.3554 22.0641 15.2561 22.1634 15.1144C22.5602 14.5305 22.9457 13.8785 23.2831 13.3285C23.5115 12.9517 23.7516 12.5821 24.0031 12.2202Z" fill="#39251A"/>
</g>
<defs>
<clipPath id="clip0_445_1318">
<rect width="48" height="48" fill="white"/>
</clipPath>
</defs>
</svg>
