<svg width="47" height="47" viewBox="0 0 47 47" fill="none" xmlns="http://www.w3.org/2000/svg">
<path d="M37.1723 14.3996C37.874 14.3981 38.563 14.2127 39.1707 13.8619C39.7783 13.5111 40.2835 13.0072 40.6356 12.4003C40.7061 12.2786 40.7432 12.1403 40.7432 11.9996C40.7432 11.8589 40.7061 11.7207 40.6356 11.5989C40.2846 10.9911 39.7798 10.4863 39.1719 10.1353C38.5639 9.78437 37.8743 9.59961 37.1724 9.59961C36.4704 9.59961 35.7809 9.78437 35.1729 10.1353C34.565 10.4863 34.0602 10.9911 33.7091 11.5989C33.6387 11.7207 33.6016 11.8589 33.6016 11.9996C33.6016 12.1403 33.6387 12.2786 33.7091 12.4003C34.0613 13.0072 34.5664 13.5111 35.1741 13.8619C35.7817 14.2127 36.4707 14.3981 37.1723 14.3996ZM37.1723 11.1996C37.5097 11.2004 37.8431 11.272 38.151 11.4098C38.4589 11.5476 38.7344 11.7486 38.9597 11.9996C38.7349 12.2513 38.4595 12.4527 38.1515 12.5905C37.8435 12.7284 37.5099 12.7997 37.1724 12.7997C36.8349 12.7997 36.5013 12.7284 36.1933 12.5905C35.8853 12.4527 35.6099 12.2513 35.385 11.9996C35.6103 11.7486 35.8859 11.5476 36.1937 11.4098C36.5016 11.272 36.835 11.2004 37.1723 11.1996Z" fill="#39251A"/>
<path d="M42.368 40.2773C41.8424 39.8462 41.2217 39.3863 40.518 38.9055C43.9942 36.8334 46.4014 32.4831 46.4014 28C46.4014 23.9364 44.8002 19.0665 41.223 17.3472C39.7436 16.6362 37.4676 16.2672 34.4786 17.9053C34.3357 16.4767 33.9016 15.2824 33.493 14.1611C32.7209 12.0427 32.1111 10.3695 33.5169 7.5578L32.0859 6.8422C30.3719 10.2702 31.1943 12.5267 31.9897 14.709C32.4522 15.978 32.9235 17.2727 32.9197 18.9038C32.8797 18.9327 32.841 18.9599 32.8012 18.9895C30.6053 17.3561 28.7306 16.7817 27.2012 16.7464V12C27.2003 11.8271 27.1443 11.6589 27.0412 11.52L22.4014 5.3334V0.8C22.4014 0.587827 22.3172 0.384344 22.1671 0.234315C22.0171 0.0842854 21.8136 0 21.6014 0H7.20144C6.98927 0 6.78578 0.0842854 6.63576 0.234315C6.48573 0.384344 6.40144 0.587827 6.40144 0.8V5.3334L1.76144 11.52C1.6584 11.6589 1.60235 11.8271 1.60144 12V29.3146C0.884894 29.7489 0.363638 30.4431 0.14634 31.2523C-0.19156 32.4181 -0.10836 34.1123 2.20714 35.5657C2.74488 35.8957 3.31035 36.1783 3.89714 36.4101C1.52584 37.6993 1.24194 39.2801 1.25044 39.997C1.26794 41.4621 2.41254 42.737 4.16644 43.2456C4.42713 43.32 4.69705 43.357 4.96814 43.3556C6.40964 43.3556 8.18924 42.3805 10.273 40.4456C10.8995 39.8639 11.473 39.2717 11.9522 38.7485C12.0368 39.4593 12.2899 40.1396 12.6905 40.7328C13.6619 42.1714 15.5154 43.2023 18.888 44.1798C22.1295 45.1193 28.2554 46.0098 33.454 46.2979C34.6647 46.3649 35.8028 46.3979 36.8496 46.3979C38.1191 46.4086 39.388 46.3435 40.6496 46.2028C43.1063 45.8996 44.397 45.2528 44.7115 44.1677C45.026 43.0826 44.2814 41.8472 42.368 40.2773ZM32.7114 20.7925C32.5985 21.3171 32.4511 21.8336 32.2701 22.3388C31.9477 22.2652 31.6438 22.1261 31.3775 21.9301C31.1111 21.7341 30.8879 21.4854 30.7217 21.1994L29.3367 22.0006C29.688 22.6085 30.1931 23.1133 30.8012 23.4643C31.4093 23.8153 32.099 24 32.8011 24C33.5033 24 34.193 23.8153 34.8011 23.4643C35.4092 23.1133 35.9143 22.6085 36.2655 22.0006L34.8805 21.1994C34.6778 21.5484 34.3905 21.8407 34.045 22.0494C34.2666 21.3042 34.4147 20.5391 34.4869 19.765C36.7406 18.3028 38.8107 17.9627 40.5296 18.7889C43.0449 19.998 44.8014 23.7856 44.8014 28C44.8014 32.1742 42.3272 36.3505 38.9882 37.9088C38.1763 37.4023 37.289 36.8798 36.3382 36.3488C31.7914 33.8121 26.1382 31.2888 22.8971 30.3495C22.1988 30.1471 21.5551 29.9821 20.958 29.8528C20.8549 29.2406 20.8025 28.6209 20.8014 28C20.8014 23.7856 22.5579 19.998 25.0729 18.7893C27.0895 17.82 29.5891 18.4547 32.3016 20.6247C32.4196 20.7183 32.5617 20.7765 32.7114 20.7925ZM3.20144 12.8H16.0014V17.6H3.20144V12.8ZM17.6014 12.8H25.6014V16.9134C25.18 17.0142 24.7705 17.1596 24.3798 17.3472C20.8026 19.0665 19.2014 23.9364 19.2014 28C19.2021 28.5262 19.2353 29.0519 19.3008 29.5741C18.737 29.5061 18.1681 29.4903 17.6014 29.5271V12.8ZM18.4014 11.2L21.6014 6.9333L24.8014 11.2H18.4014ZM8.00144 1.6H20.8014V4.8H8.00144V1.6ZM7.60144 6.4H20.0014L16.4014 11.2H4.00144L7.60144 6.4ZM3.20144 19.2H16.0014V29.8727C15.9391 29.8969 15.8772 29.9219 15.8165 29.9485C15.161 30.2347 14.5833 30.6733 14.1314 31.2277C14.0059 30.5297 13.8386 29.724 13.6205 28.8985C12.753 25.6153 11.5205 23.7208 9.95724 23.2678C8.20324 22.7594 6.55404 23.2248 5.75604 24.4536C5.36604 25.0544 4.75994 26.5424 6.07444 28.8998C5.45447 28.7821 4.82543 28.7185 4.19444 28.7098H4.16444C3.84245 28.7086 3.52079 28.7306 3.20194 28.7755L3.20144 19.2ZM4.61144 41.7088C3.55024 41.4013 2.85884 40.7218 2.84994 39.9779C2.83994 39.1302 3.76994 37.9271 6.41134 37.093C6.57505 37.0413 6.71777 36.9382 6.81841 36.7991C6.91905 36.66 6.97227 36.4922 6.97021 36.3206C6.96815 36.1489 6.91091 35.9824 6.80695 35.8458C6.703 35.7092 6.55784 35.6096 6.39294 35.5618C2.77384 34.5127 1.23294 33.2488 1.68294 31.6978C1.95054 30.7744 2.75964 30.3142 4.13434 30.3142C5.06884 30.3142 6.26494 30.527 7.72974 30.9515C7.89466 30.9993 8.07057 30.9928 8.23149 30.9329C8.39241 30.873 8.52979 30.7629 8.62333 30.6189C8.71686 30.4749 8.76159 30.3047 8.75089 30.1333C8.7402 29.9619 8.67465 29.7985 8.56394 29.6673C6.77824 27.55 6.63544 26.0361 7.09734 25.3252C7.50264 24.7013 8.45024 24.497 9.51144 24.8045C11.2433 25.3065 12.4889 30.0956 12.8424 33.4283L12.0382 36.2028C9.95744 38.83 6.34384 42.2106 4.61194 41.7088H4.61144ZM43.1754 43.7236C43.0636 44.1094 41.054 45.117 33.5426 44.7012C32.2819 44.6312 30.9671 44.5258 29.6547 44.3927L30.4359 41.6972L28.8992 41.2518L28.0404 44.215C24.6204 43.8091 21.3767 43.2361 19.3335 42.6439C16.3907 41.791 14.7508 40.9257 14.0165 39.8383C13.3465 38.8461 13.3347 37.4772 13.9765 35.261C14.6183 33.0448 15.3609 31.8943 16.4576 31.4142C16.9236 31.2102 17.4865 31.1072 18.1728 31.1072C19.257 31.1072 20.6488 31.3644 22.4509 31.8866C22.6917 31.9566 22.9479 32.0366 23.2151 32.1238L21.2151 39.0248L22.7518 39.4702L24.7263 32.6574C27.873 33.8393 32.0441 35.786 35.5579 37.7465C36.4124 38.2232 37.1745 38.6702 37.8551 39.0885L37.0284 41.942L38.5651 42.3875L39.2608 39.9875C42.5903 42.2107 43.2614 43.4259 43.1754 43.7236Z" fill="#39251A"/>
</svg>
