<svg width="48" height="48" viewBox="0 0 48 48" fill="none" xmlns="http://www.w3.org/2000/svg">
<g clip-path="url(#clip0_445_1292)">
<path d="M8.21875 13.9311H10.3614V23.9556M37.7808 13.7695L33.7294 23.4232" stroke="#39251A" stroke-width="1.40625" stroke-miterlimit="10" stroke-linecap="round" stroke-linejoin="round"/>
<path d="M32.9542 17.4798C33.9429 17.4798 34.7444 16.5484 34.7444 15.3996C34.7444 14.2507 33.9429 13.3193 32.9542 13.3193C31.9655 13.3193 31.1641 14.2507 31.1641 15.3996C31.1641 16.5484 31.9655 17.4798 32.9542 17.4798Z" stroke="#39251A" stroke-width="1.40625" stroke-miterlimit="10" stroke-linecap="round" stroke-linejoin="round"/>
<path d="M38.4308 24.0804C39.4195 24.0804 40.2209 23.149 40.2209 22.0001C40.2209 20.8513 39.4195 19.9199 38.4308 19.9199C37.4421 19.9199 36.6406 20.8513 36.6406 22.0001C36.6406 23.149 37.4421 24.0804 38.4308 24.0804Z" stroke="#39251A" stroke-width="1.40625" stroke-miterlimit="10" stroke-linecap="round" stroke-linejoin="round"/>
<path d="M32.7716 33.7981V39.7823M36.9127 33.7981V39.7823M32.7716 36.6875H36.9127M13.6342 33.82H11.2266V39.7604M11.2266 36.7339H13.4429M24.189 33.8254H21.6906V39.7549H24.189M24.0048 36.7902H21.6906M30.1538 34.4133C30.1538 34.4133 29.08 33.5106 27.8137 33.8921C26.6511 34.2423 26.4884 35.583 27.3296 36.1314C27.3296 36.1314 28.155 36.4997 29.0706 36.8373C31.2743 37.6502 30.325 39.7823 28.5509 39.7823C27.6624 39.7823 26.9168 39.3933 26.4655 38.8953M16.7473 36.9261L19.2611 39.7823M16.0257 33.7981V39.7823M19.3343 21.2613C19.3343 22.8623 18.0364 24.1602 16.4354 24.1602C14.8344 24.1602 13.5366 22.8623 13.5366 21.2613V16.6254C13.5366 15.0244 14.8344 13.7266 16.4354 13.7266C18.0364 13.7266 19.3343 15.0244 19.3343 16.6254V21.2613ZM28.1765 21.2613C28.1765 22.8623 26.8786 24.1602 25.2776 24.1602C23.6767 24.1602 22.3788 22.8623 22.3788 21.2613V16.6254C22.3788 15.0244 23.6767 13.7266 25.2776 13.7266C26.8786 13.7266 28.1765 15.0244 28.1765 16.6254V21.2613ZM19.2611 35.3533C19.2611 36.2122 18.508 36.9085 17.6179 36.9085C17.1764 36.9085 16.0388 36.9153 16.0388 36.9153C16.0388 36.9153 16.0316 35.7862 16.0316 35.3533C16.0316 34.9977 16.0277 33.7981 16.0277 33.7981H17.6179C18.5079 33.7981 19.2611 34.4944 19.2611 35.3533Z" stroke="#39251A" stroke-width="1.40625" stroke-miterlimit="10" stroke-linecap="round" stroke-linejoin="round"/>
<path d="M42.0363 29.2601H44.2908C45.951 29.2601 47.2969 27.9143 47.2969 26.2541V11.2239C47.2969 9.56365 45.951 8.21777 44.2908 8.21777H3.70922C2.049 8.21777 0.703125 9.56365 0.703125 11.2239V26.2541C0.703125 27.9144 2.049 29.2602 3.70922 29.2602H39.0303" stroke="#39251A" stroke-width="1.40625" stroke-miterlimit="10" stroke-linecap="round" stroke-linejoin="round"/>
<path d="M5.96963 38.2777C6.63958 37.6077 6.00595 35.8879 4.55438 34.4364C3.10281 32.9849 1.38299 32.3513 0.713043 33.0213C0.0430977 33.6913 0.676728 35.4111 2.1283 36.8626C3.57986 38.3141 5.29969 38.9477 5.96963 38.2777Z" stroke="#39251A" stroke-width="1.40625" stroke-miterlimit="10" stroke-linecap="round" stroke-linejoin="round"/>
<path d="M5.96875 38.2793L7.47175 39.7824" stroke="#39251A" stroke-width="1.40625" stroke-miterlimit="10" stroke-linecap="round" stroke-linejoin="round"/>
<path d="M45.8747 36.8642C47.3262 35.4126 47.9598 33.6928 47.2898 33.0229C46.6198 32.3529 44.9 32.9865 43.4485 34.4381C41.997 35.8897 41.3634 37.6095 42.0334 38.2794C42.7034 38.9494 44.4232 38.3158 45.8747 36.8642Z" stroke="#39251A" stroke-width="1.40625" stroke-miterlimit="10" stroke-linecap="round" stroke-linejoin="round"/>
<path d="M42.0342 38.2793L40.5312 39.7824" stroke="#39251A" stroke-width="1.40625" stroke-miterlimit="10" stroke-linecap="round" stroke-linejoin="round"/>
</g>
<defs>
<clipPath id="clip0_445_1292">
<rect width="48" height="48" fill="white"/>
</clipPath>
</defs>
</svg>
