<svg width="48" height="48" viewBox="0 0 48 48" fill="none" xmlns="http://www.w3.org/2000/svg">
<path d="M14.4922 18.435C16.7376 18.435 18.5638 16.6088 18.5638 14.3634C18.5638 12.1181 16.7376 10.2919 14.4922 10.2919C12.2469 10.2919 10.4207 12.1181 10.4207 14.3634C10.4207 16.6088 12.2469 18.435 14.4922 18.435ZM14.4922 11.4169C16.1169 11.4169 17.4388 12.7388 17.4388 14.3634C17.4388 15.9881 16.1169 17.31 14.4922 17.31C12.8676 17.31 11.5457 15.9881 11.5457 14.3634C11.5457 12.7388 12.8676 11.4169 14.4922 11.4169ZM26.3544 22.1025C26.3544 22.4128 26.1022 22.665 25.7919 22.665H23.8466C23.5363 22.665 23.2841 22.4128 23.2841 22.1025C23.2841 21.7922 23.5363 21.54 23.8466 21.54H25.7919C26.1022 21.54 26.3544 21.7913 26.3544 22.1025ZM46.0316 1.40625H26.9226C26.6122 1.40625 26.3601 1.65844 26.3601 1.96875V18.8372H19.4282C19.1179 18.8372 18.8657 19.0894 18.8657 19.3997V25.1316H18.0688L15.9613 21.0938C15.516 19.7456 14.2269 18.8091 12.8085 18.8091C10.9785 18.8091 9.48974 20.2978 9.48974 22.1287V32.3616L8.80161 36.5541L2.49599 40.4963C1.4113 41.175 1.08037 42.6094 1.75818 43.6941C2.08537 44.2181 2.59912 44.5837 3.20474 44.7234C3.38099 44.7637 3.55818 44.7844 3.73349 44.7844C4.16287 44.7844 4.5838 44.6644 4.95599 44.4319L12.2141 39.8944C12.7551 39.5559 13.0954 39.045 13.1994 38.415L13.6213 35.8444L15.6022 37.3725L17.1463 44.7487C17.2729 45.3534 17.6291 45.8738 18.1494 46.2141C18.5329 46.4653 18.9707 46.5947 19.4169 46.5947C19.5754 46.5947 19.7357 46.5788 19.8941 46.545C21.1466 46.2825 21.9519 45.0506 21.6904 43.7981L19.9588 35.5266C19.851 35.0119 19.5857 34.5872 19.1694 34.2647L16.1282 31.9059V29.4544H18.8657V31.5834C18.8657 31.8938 19.1179 32.1459 19.4282 32.1459H26.3601V40.5037C26.3601 40.8141 26.6122 41.0662 26.9226 41.0662H46.0316C46.3419 41.0662 46.5941 40.8141 46.5941 40.5037V1.96875C46.5941 1.65844 46.3419 1.40625 46.0316 1.40625ZM12.0894 38.2331C12.0388 38.5425 11.8841 38.7741 11.6179 38.9409L4.35974 43.4784C4.09068 43.6462 3.77005 43.6997 3.45787 43.6275C3.14568 43.5553 2.88037 43.3678 2.71255 43.0978C2.36287 42.5391 2.53349 41.7994 3.09224 41.4497L9.61349 37.3734C9.68134 37.3311 9.73936 37.2747 9.78366 37.2081C9.82796 37.1415 9.85752 37.0661 9.87037 36.9872L10.4582 33.4041L12.6097 35.0634L12.0894 38.2331ZM18.8563 35.7562L20.5879 44.0278C20.7229 44.6728 20.3076 45.3084 19.6626 45.4434C19.3522 45.5081 19.0326 45.4472 18.7644 45.2719C18.4963 45.0966 18.3126 44.8284 18.2469 44.5181L16.6607 36.9384C16.6333 36.8072 16.5598 36.6901 16.4535 36.6084L10.6138 32.1047V22.1287C10.6138 20.9184 11.5982 19.9341 12.8076 19.9341C13.7572 19.9341 14.6188 20.5697 14.9029 21.4791C14.9132 21.5109 14.9254 21.5419 14.9413 21.5719L17.2279 25.9528C17.2754 26.044 17.3471 26.1203 17.435 26.1735C17.5229 26.2268 17.6238 26.2548 17.7266 26.2547H22.2622C22.8341 26.2547 23.2982 26.7197 23.2982 27.2916C23.2982 27.8634 22.8332 28.3284 22.2622 28.3284H16.0232L13.4441 23.1844C13.3054 22.9069 12.9669 22.7944 12.6894 22.9341C12.4119 23.0737 12.2994 23.4112 12.4391 23.6887L15.0013 28.8V31.1784C14.8326 31.1775 14.6647 31.2516 14.5522 31.3959C14.461 31.5139 14.4202 31.6632 14.4388 31.8112C14.4574 31.9591 14.534 32.0937 14.6516 32.1853L18.4776 35.1525C18.6838 35.3109 18.8038 35.5031 18.8563 35.7562ZM19.9897 29.4534H22.2632C23.4547 29.4534 24.4241 28.4841 24.4241 27.2916C24.4241 26.1 23.4547 25.1297 22.2632 25.1297H19.9897V19.9603H29.6479V31.0191H19.9897V29.4534ZM30.2104 32.1459C30.5207 32.1459 30.7729 31.8938 30.7729 31.5834V19.3997C30.7729 19.0894 30.5207 18.8372 30.2104 18.8372H27.4851V2.69719L41.1163 6.26531V35.8003L27.4851 39.7547V32.1459H30.2104ZM45.4691 39.9412H30.8807L41.8354 36.7631C41.9524 36.7292 42.0552 36.6582 42.1284 36.5609C42.2016 36.4635 42.2412 36.345 42.2413 36.2231V5.83125C42.2413 5.57531 42.0688 5.35219 41.8213 5.2875L31.2922 2.53125H45.4691V39.9412ZM38.0038 22.8113V19.6613C38.0038 19.3509 38.256 19.0988 38.5663 19.0988C38.8766 19.0988 39.1288 19.3509 39.1288 19.6613V22.8113C39.1288 23.1216 38.8766 23.3738 38.5663 23.3738C38.256 23.3738 38.0038 23.1216 38.0038 22.8113Z" fill="#39251A"/>
</svg>
