<svg width="80" height="80" viewBox="0 0 80 80" fill="none" xmlns="http://www.w3.org/2000/svg">
<g clip-path="url(#clip0_445_1263)">
<g clip-path="url(#clip1_445_1263)">
<path d="M52.4985 68.75H27.5001C26.7392 68.75 26.1553 69.4246 26.2628 70.1766C27.0685 75.8169 31.9018 79.9993 37.5883 79.9993H42.4104C48.108 79.9993 52.9316 75.8061 53.7359 70.1766C53.8434 69.4248 53.2595 68.75 52.4985 68.75Z" fill="#595965"/>
<path d="M53.7364 70.1765C52.9335 75.8033 48.1104 79.9993 42.4106 79.9993C37.1222 79.9993 37.3572 80.0076 36.875 79.9759C42.2706 79.6417 46.7189 75.5575 47.4868 70.1765C47.5946 69.4281 47.0106 68.75 46.2494 68.75H52.499C53.2613 68.75 53.8441 69.429 53.7364 70.1765Z" fill="#44454E"/>
<path d="M53.1231 62.5H26.8747C24.4625 62.5 22.5 64.4625 22.5 66.8747C22.5 69.2869 24.4625 71.2495 26.8747 71.2495H53.1231C55.5353 71.2495 57.4978 69.2869 57.4978 66.8747C57.4978 64.4625 55.5353 62.5 53.1231 62.5Z" fill="#EDEBFD"/>
<path d="M57.4993 66.8747C57.4993 69.2871 55.537 71.2495 53.1246 71.2495H46.875C49.2873 71.2495 51.2497 69.2871 51.2497 66.8747C51.2497 64.4624 49.2873 62.5 46.875 62.5H53.1246C55.537 62.5 57.4993 64.4624 57.4993 66.8747Z" fill="#D2D2FC"/>
<path d="M67.493 27.039C67.2446 11.9571 54.7694 -0.166 39.6722 0.00570798C32.396 0.0903902 25.5686 2.98818 20.4477 8.16551C9.82598 18.9042 9.97988 35.911 20.1357 46.5176C22.7174 49.214 24.3944 52.7393 24.8577 56.4441L25.0091 57.6552C25.0469 57.9575 25.1938 58.2356 25.4222 58.4372C25.6505 58.6388 25.9447 58.75 26.2493 58.75H53.7476C54.0522 58.75 54.3464 58.6387 54.5748 58.4372C54.8031 58.2356 54.95 57.9575 54.9879 57.6552L55.1394 56.4442C55.6036 52.731 57.2713 49.2154 59.8349 46.5451C64.8938 41.2763 67.6135 34.3487 67.493 27.039Z" fill="#F1CC76"/>
<path d="M59.8329 46.5449C57.269 49.215 55.602 52.732 55.1379 56.4442L54.9864 57.6551C54.9486 57.9575 54.8017 58.2357 54.5733 58.4374C54.3448 58.6391 54.0506 58.7504 53.7458 58.7503H47.4962C48.1259 58.7503 48.6586 58.2816 48.7368 57.6551L48.8883 56.4442C49.3523 52.732 51.0194 49.215 53.5833 46.5449C58.6424 41.2764 61.3625 34.3487 61.2422 27.0398C61.0126 13.1204 50.3679 1.71953 36.8594 0.180564C52.9827 -1.66495 67.2256 10.8711 67.4918 27.0398C67.6121 34.3487 64.892 41.2764 59.8329 46.5449Z" fill="#EBB15D"/>
<path d="M7.49953 28.752H1.24992C0.918422 28.752 0.600499 28.6203 0.366094 28.3859C0.131688 28.1515 0 27.8335 0 27.502C0 27.1705 0.131688 26.8526 0.366094 26.6182C0.600499 26.3838 0.918422 26.2521 1.24992 26.2521H7.49953C7.83103 26.2521 8.14895 26.3838 8.38336 26.6182C8.61777 26.8526 8.74945 27.1705 8.74945 27.502C8.74945 27.8335 8.61777 28.1515 8.38336 28.3859C8.14895 28.6203 7.83103 28.752 7.49953 28.752ZM6.44225 48.1259C5.16546 48.1259 4.71346 46.4299 5.8162 45.7932L11.2285 42.6684C11.5154 42.5053 11.8553 42.4623 12.1738 42.5488C12.4923 42.6352 12.7637 42.8442 12.9288 43.13C13.0938 43.4159 13.1391 43.7554 13.0547 44.0745C12.9703 44.3936 12.7632 44.6664 12.4784 44.8333C6.68489 48.1784 6.91566 48.1259 6.44225 48.1259ZM11.8522 12.5031C11.376 12.5031 11.603 12.5517 5.81604 9.21068C5.5313 9.04375 5.32415 8.77097 5.23978 8.45187C5.15542 8.13278 5.20069 7.79326 5.36573 7.50742C5.53076 7.22158 5.80216 7.01262 6.12069 6.92614C6.43923 6.83966 6.77903 6.88268 7.06596 7.04581L12.4783 10.1706C13.5807 10.807 13.1295 12.5031 11.8522 12.5031ZM78.7451 28.752H72.4955C72.164 28.752 71.846 28.6203 71.6116 28.3859C71.3772 28.1515 71.2455 27.8335 71.2455 27.502C71.2455 27.1705 71.3772 26.8526 71.6116 26.6182C71.846 26.3838 72.164 26.2521 72.4955 26.2521H78.7451C79.0766 26.2521 79.3945 26.3838 79.6289 26.6182C79.8633 26.8526 79.995 27.1705 79.995 27.502C79.995 27.8335 79.8633 28.1515 79.6289 28.3859C79.3945 28.6203 79.0766 28.752 78.7451 28.752ZM73.5527 48.1259C73.0767 48.1259 73.3035 48.1745 67.5166 44.8335C67.3733 44.752 67.2475 44.643 67.1465 44.5127C67.0455 44.3824 66.9713 44.2334 66.9281 44.0744C66.8849 43.9153 66.8736 43.7492 66.8948 43.5858C66.9161 43.4223 66.9695 43.2647 67.0519 43.1219C67.1343 42.9791 67.2441 42.8541 67.3751 42.754C67.506 42.6538 67.6555 42.5806 67.8149 42.5385C67.9742 42.4963 68.1403 42.4861 68.3037 42.5085C68.467 42.5308 68.6243 42.5852 68.7665 42.6686L74.179 45.7934C75.2836 46.4312 74.8277 48.1259 73.5527 48.1259ZM68.1428 12.5031C66.8669 12.5031 66.4126 10.8079 67.5166 10.1705L72.929 7.04566C73.0712 6.96229 73.2285 6.90788 73.3918 6.88555C73.5552 6.86322 73.7213 6.87341 73.8807 6.91554C74.04 6.95768 74.1895 7.03092 74.3204 7.13105C74.4514 7.23117 74.5612 7.35622 74.6436 7.49897C74.7261 7.64172 74.7794 7.79937 74.8007 7.96284C74.8219 8.1263 74.8106 8.29235 74.7674 8.45144C74.7242 8.61052 74.65 8.75948 74.549 8.88976C74.448 9.02004 74.3223 9.12905 74.179 9.21052C68.3835 12.5566 68.6156 12.5031 68.1428 12.5031Z" fill="#F1CC76"/>
<path d="M57.4988 23.7529H52.4991C44.9179 23.7529 38.75 29.9208 38.75 37.5021V41.2518C38.75 41.5833 38.8817 41.9013 39.1161 42.1357C39.3505 42.3701 39.6684 42.5018 39.9999 42.5018H44.9996C52.5809 42.5018 58.7487 36.3339 58.7487 28.7526V25.0029C58.7487 24.6714 58.6171 24.3534 58.3827 24.119C58.1482 23.8846 57.8303 23.7529 57.4988 23.7529Z" fill="#79CB9C"/>
<path d="M58.7488 25.0029V28.7526C58.7488 36.3334 52.5805 42.5018 44.9997 42.5018H40C47.5808 42.5018 53.7491 36.3334 53.7491 28.7526V25.0029C53.7491 24.3123 53.1898 23.7529 52.4992 23.7529H57.4989C58.1895 23.7529 58.7488 24.3123 58.7488 25.0029Z" fill="#63AC7D"/>
<path d="M27.4996 23.7529H22.4999C22.1684 23.7529 21.8505 23.8846 21.6161 24.119C21.3817 24.3534 21.25 24.6714 21.25 25.0029V28.7526C21.25 36.3339 27.4179 42.5018 34.9991 42.5018H39.9988C40.3303 42.5018 40.6482 42.3701 40.8827 42.1357C41.1171 41.9013 41.2487 41.5833 41.2487 41.2518V37.5021C41.2487 29.9207 35.0809 23.7529 27.4996 23.7529Z" fill="#79CB9C"/>
<path d="M41.2488 37.5021V41.2518C41.2488 41.9424 40.6895 42.5018 39.9989 42.5018H34.9992C35.6898 42.5018 36.2491 41.9424 36.2491 41.2518V37.5021C36.2491 29.9213 30.0808 23.7529 22.5 23.7529H27.4997C35.0805 23.7529 41.2488 29.9213 41.2488 37.5021Z" fill="#63AC7D"/>
<path d="M50.9395 31.6789C50.8314 31.5553 50.7001 31.4543 50.5529 31.3815C50.4058 31.3088 50.2457 31.2657 50.082 31.2548C49.9182 31.2439 49.7538 31.2653 49.5983 31.3179C49.4429 31.3705 49.2992 31.4533 49.1757 31.5614L41.2493 38.4969V35.0018C41.2493 34.6703 41.1177 34.3523 40.8833 34.1179C40.6488 33.8835 40.3309 33.7519 39.9994 33.7519C39.6679 33.7519 39.35 33.8835 39.1156 34.1179C38.8812 34.3523 38.7495 34.6703 38.7495 35.0018V38.4969L30.8231 31.5614C30.3035 31.1065 29.514 31.1594 29.0593 31.6789C28.9512 31.8024 28.8685 31.946 28.8159 32.1015C28.7633 32.257 28.7419 32.4213 28.7528 32.5851C28.7637 32.7489 28.8067 32.9089 28.8795 33.056C28.9523 33.2032 29.0533 33.3346 29.1768 33.4427L38.7493 41.8187V58.7504C38.7493 59.0819 38.881 59.3999 39.1154 59.6343C39.3498 59.8687 39.6678 60.0004 39.9993 60.0004C40.3308 60.0004 40.6487 59.8687 40.8831 59.6343C41.1175 59.3999 41.2492 59.0819 41.2492 58.7504V41.8187L50.8217 33.4427C50.9453 33.3346 51.0463 33.2032 51.1191 33.0561C51.1919 32.909 51.235 32.7489 51.2459 32.5852C51.2569 32.4214 51.2354 32.257 51.1829 32.1015C51.1303 31.946 51.0476 31.8024 50.9395 31.6789Z" fill="#AA7569"/>
<path d="M53.1231 56.251H26.8747C24.4625 56.251 22.5 58.2135 22.5 60.6257C22.5 63.0379 24.4625 65.0004 26.8747 65.0004H53.1231C55.5353 65.0004 57.4978 63.0379 57.4978 60.6257C57.4978 58.2135 55.5353 56.251 53.1231 56.251Z" fill="#EDEBFD"/>
<path d="M57.4993 60.6257C57.4993 63.0381 55.537 65.0004 53.1246 65.0004H46.875C49.2873 65.0004 51.2497 63.0381 51.2497 60.6257C51.2497 58.2134 49.2873 56.251 46.875 56.251H53.1246C55.537 56.251 57.4993 58.2134 57.4993 60.6257Z" fill="#D2D2FC"/>
</g>
</g>
<defs>
<clipPath id="clip0_445_1263">
<rect width="80" height="80" fill="white"/>
</clipPath>
<clipPath id="clip1_445_1263">
<rect width="80" height="80" fill="white"/>
</clipPath>
</defs>
</svg>
