<svg width="80" height="80" viewBox="0 0 80 80" fill="none" xmlns="http://www.w3.org/2000/svg">
<g clip-path="url(#clip0_445_1245)">
<path fill-rule="evenodd" clip-rule="evenodd" d="M43.4984 36.1826H76.4063C77.0969 36.1826 77.6625 36.7482 77.6625 37.4389V66.3092C77.6625 66.9998 77.0969 67.5654 76.4063 67.5654H43.4984C42.8078 67.5654 42.2422 66.9998 42.2422 66.3092V37.4389C42.2422 36.7482 42.8078 36.1826 43.4984 36.1826Z" fill="#FCD770"/>
<path fill-rule="evenodd" clip-rule="evenodd" d="M65.5198 36.0859V48.2328L59.9479 44.5609L54.3776 48.2328V36.0859H65.5198ZM41.8901 63.9891L24.7073 67.7875C24.1292 67.9156 23.5761 67.6969 23.2417 67.2078L19.4604 61.6734L15.5183 52.3594C15.4857 52.2829 15.4241 52.2226 15.3471 52.1915C15.27 52.1605 15.1838 52.1613 15.1073 52.1938C15.0315 52.2266 14.9717 52.2879 14.9407 52.3645C14.9097 52.4411 14.9101 52.5268 14.9417 52.6031L18.7854 61.6781L4.78857 68.8281L1.52919 50.975C1.35107 49.9969 1.45419 48.9969 1.862 48.0875C2.26982 47.1781 2.9495 46.4359 3.79794 45.9188L12.9479 40.3438L17.7401 47.0109C17.7692 47.0513 17.8075 47.0841 17.8518 47.1066C17.8961 47.1292 17.9451 47.1408 17.9948 47.1406C18.0433 47.1406 18.0901 47.1297 18.1339 47.1078L24.7104 43.8172L28.9151 51.1375C28.9714 51.2344 29.0729 51.2938 29.1854 51.2938C29.1995 51.2938 29.2136 51.2922 29.2276 51.2906C29.3542 51.2734 29.4573 51.1828 29.4886 51.0594L31.4058 43.55L35.9604 47.0766C36.0151 47.1188 36.0823 47.1422 36.1511 47.1422C36.1886 47.1422 36.2261 47.1344 36.262 47.1219C36.362 47.0844 36.437 46.9969 36.4589 46.8906L37.9995 39.2469L41.8901 41.9438V63.9891Z" fill="#FC6E51"/>
<path fill-rule="evenodd" clip-rule="evenodd" d="M32.925 37.616L37.3766 39.1738L35.9453 46.2754L31.5766 42.8926L32.925 37.616ZM18.0922 46.4316L13.4844 40.0176L18.3984 37.0254L24.2016 43.3738L18.0922 46.4316Z" fill="#FCD770"/>
<path fill-rule="evenodd" clip-rule="evenodd" d="M30.8969 43.0103L29.0719 50.1588L25.4062 43.7791C25.3953 43.7588 25.3813 43.74 25.3656 43.7228L18.8125 36.5525L20.5438 31.9307L21.1453 32.1885C22.3547 32.7072 23.6437 32.951 24.9562 32.951C25.0516 32.951 25.1453 32.9494 25.2406 32.9478C25.8531 32.9322 26.4531 32.89 27.0562 32.7807C27.8719 32.6307 28.6656 32.376 29.4156 32.0213L30.1516 31.6729L30.2984 32.4729C30.3016 32.4932 30.3078 32.515 30.3172 32.5338L32.3734 37.2322L30.8984 43.0057L30.8969 43.0103Z" fill="#F0D0B4"/>
<path fill-rule="evenodd" clip-rule="evenodd" d="M26.9438 32.167C26.3735 32.2717 25.8032 32.3092 25.2235 32.3248C22.1813 32.4061 19.4844 31.0748 17.7 28.6107C15.7922 25.9779 14.4563 22.6045 13.4407 19.5342L13.1688 18.7123H24.7422C26.7672 18.7123 28.5563 17.9342 29.9375 16.4529L33.8391 12.2686L34.0891 13.4404C34.8672 17.0826 34.9141 20.6889 34.2922 24.3607L34.2891 24.3764L34.286 24.392C34.1282 25.0951 33.9297 25.7936 33.6766 26.4701C32.5672 29.4389 30.0672 31.5951 26.9438 32.167ZM28.6578 26.0436C27.3469 27.7889 24.9813 27.9217 23.1344 26.9811C22.9797 26.9029 22.7922 26.9623 22.7141 27.117C22.6763 27.1906 22.6692 27.2761 22.6944 27.3549C22.7196 27.4337 22.775 27.4993 22.8485 27.5373C23.6625 27.9529 24.5625 28.1936 25.4797 28.1936C26.9297 28.1936 28.2782 27.5889 29.1563 26.4201C29.2594 26.2826 29.2328 26.0873 29.0938 25.9826C28.9563 25.8779 28.761 25.9061 28.6578 26.0436ZM13.125 20.5482C13.5469 21.7686 14.0094 22.9779 14.5282 24.1607L14.8313 24.8514L14.0969 25.0201C12.8063 25.317 11.4282 24.6795 10.9641 23.4092C10.7235 22.7482 10.7735 22.0326 11.0844 21.4029C11.336 20.8936 11.7375 20.4795 12.2328 20.2029L12.8844 19.842L13.125 20.5482Z" fill="#F0D0B4"/>
<path fill-rule="evenodd" clip-rule="evenodd" d="M12.8192 17.5454C12.0629 14.7314 11.8098 11.5783 12.9442 8.82826C14.0082 6.2517 16.0754 4.5642 18.6895 3.66576C21.2239 2.79388 24.1598 2.73451 26.741 3.42513C28.8879 4.00013 31.2801 5.26107 32.1801 7.41888C32.5067 8.20013 32.8067 8.99076 33.0785 9.79232L33.3582 10.6189H29.1832C26.8754 10.6189 24.8582 11.6345 23.4817 13.4876L20.0645 18.0892H12.8192V17.5454Z" fill="#FC6E51"/>
<path fill-rule="evenodd" clip-rule="evenodd" d="M23.9828 13.8598C25.2484 12.1551 27.0594 11.2441 29.1828 11.2441H33.9391L29.4812 16.027C28.2125 17.3895 26.6047 18.0879 24.7422 18.0879H20.8438L23.9828 13.8598ZM34.1969 11.2441H36.4578C38.4813 11.2441 40.2375 12.0848 41.5063 13.6613L42.6063 15.0301C42.7812 15.252 42.8281 15.5176 42.7438 15.7816C42.6625 16.0504 42.4688 16.2426 42.1938 16.3223L35.3406 18.3332L35.2922 17.552C35.175 15.6832 34.8703 13.8379 34.4 12.0254L34.1969 11.2441Z" fill="#FCD770"/>
<path fill-rule="evenodd" clip-rule="evenodd" d="M24.8453 68.3982L50.6 62.7045C51.1188 62.5904 51.6094 62.6998 52.0297 63.0264C52.4516 63.3545 52.6844 63.8014 52.6969 64.3373L52.7 64.4436C52.7266 65.1857 52.2984 65.9498 51.5375 66.1311L43.2016 68.1107C43.1259 68.128 43.0594 68.1731 43.0154 68.2371C42.9714 68.301 42.9531 68.3792 42.9641 68.4561C42.9747 68.5327 43.0133 68.6026 43.0725 68.6525C43.1316 68.7024 43.2071 68.7287 43.2844 68.7264L58.2062 68.2061L58.9297 68.2029L58.9766 68.2107C59.3359 68.2639 59.6437 68.4248 59.9047 68.6779C60.2578 69.0217 60.4328 69.4389 60.4281 69.9295V69.9639C60.4188 70.8561 59.7484 71.5998 58.8531 71.6639L45.8687 72.5951C42.4891 72.8373 39.1531 73.3982 35.8531 74.1623C32.7344 74.8842 29.6656 75.7826 26.6062 76.7201C25.7172 76.992 24.9094 77.0154 23.9906 77.0342L23.6125 77.0436C21.5578 77.0998 19.9641 76.0295 18.4219 74.792L9.10938 67.3264L19.0906 62.2295L22.7328 67.5623C23.2094 68.2654 24.0125 68.5826 24.8453 68.3982Z" fill="#F0D0B4"/>
<path fill-rule="evenodd" clip-rule="evenodd" d="M72.3222 61.3532H60.7206C60.2034 61.3532 59.7831 61.772 59.7831 62.2892C59.7831 62.8079 60.2034 63.2267 60.7206 63.2267H72.3222C72.8394 63.2267 73.2597 62.8079 73.2597 62.2892C73.2597 61.7735 72.8394 61.3532 72.3222 61.3532ZM72.3222 56.6767H64.0112C63.4941 56.6767 63.0737 57.097 63.0737 57.6142C63.0737 58.1314 63.4941 58.5517 64.0112 58.5517H72.3222C72.8394 58.5517 73.2597 58.1314 73.2597 57.6142C73.2597 57.097 72.8394 56.6767 72.3222 56.6767ZM76.6862 66.5485C76.6862 66.7204 76.5378 66.8673 76.3628 66.8673L58.9503 66.9532C58.83 66.9439 58.7097 66.9376 58.5863 66.9423L52.3534 67.1595C53.3519 66.686 53.9862 65.622 53.9472 64.4001L53.9425 64.2907C53.9128 63.3907 53.505 62.5907 52.7941 62.0392C52.0831 61.4876 51.2081 61.2892 50.3284 61.4845L43.1409 63.0735V43.8829H53.405V48.5673C53.405 48.7366 53.4507 48.9027 53.5374 49.0481C53.6241 49.1935 53.7486 49.3127 53.8975 49.3931C54.0465 49.4735 54.2144 49.5121 54.3835 49.5048C54.5526 49.4975 54.7166 49.4446 54.8581 49.3517L59.9144 46.0189L64.9691 49.3517C65.1253 49.4548 65.305 49.5064 65.4847 49.5064C65.6378 49.5064 65.7909 49.4704 65.93 49.3954C66.0789 49.3148 66.2032 49.1954 66.2899 49.0499C66.3765 48.9044 66.4222 48.7382 66.4222 48.5689V43.8845H76.6862V66.5485ZM58.88 68.8282C59.1034 68.861 59.2925 68.9579 59.4644 69.1251C59.6956 69.3501 59.8019 69.6032 59.7988 69.9251V69.9564C59.7925 70.5345 59.3644 71.0001 58.8034 71.0407L45.8191 71.972C38.7706 72.4767 32.3706 74.3001 26.4191 76.1235C25.5925 76.3767 24.8784 76.3923 23.9737 76.4095L23.5909 76.4189C21.8597 76.4673 20.4769 75.6423 18.8081 74.3048L10.2503 67.4439L18.88 63.036L22.2112 67.9142C22.8362 68.8282 23.8956 69.2485 24.9784 69.0095L50.7331 63.3157C51.0722 63.2407 51.3706 63.3079 51.6441 63.5204C51.9191 63.7329 52.0581 64.0048 52.0691 64.3517L52.0722 64.461C52.0878 64.9048 51.8566 65.411 51.3894 65.522L43.0534 67.5017C42.8268 67.5548 42.6281 67.6906 42.4963 67.8825C42.3646 68.0744 42.3091 68.3086 42.3409 68.5392C42.405 69.0157 42.8237 69.3704 43.3019 69.3501L58.2144 68.8314L58.88 68.8282ZM17.9847 61.3876L14.3675 52.847C14.3195 52.7337 14.2942 52.6121 14.2932 52.4891C14.2922 52.3661 14.3154 52.244 14.3616 52.13C14.4077 52.016 14.4758 51.9121 14.5621 51.8244C14.6484 51.7367 14.7511 51.6669 14.8644 51.6189C15.3425 51.4173 15.8925 51.6392 16.0941 52.1157L20.0144 61.3735L23.7597 66.8564C23.9487 67.1345 24.2456 67.2517 24.5737 67.1782L41.2659 63.4876V42.272L38.4253 40.3032L37.0722 47.0157C37.0407 47.1718 36.97 47.3173 36.8667 47.4384C36.7633 47.5596 36.6308 47.6523 36.4816 47.7079C36.3321 47.764 36.1707 47.7808 36.0129 47.7567C35.855 47.7326 35.706 47.6685 35.58 47.5704L31.7784 44.6267L30.0972 51.2126C30.0507 51.3934 29.9515 51.5563 29.812 51.6804C29.6726 51.8045 29.4993 51.8843 29.3144 51.9095C29.2722 51.9157 29.23 51.9189 29.1878 51.9189C28.855 51.9189 28.5441 51.7423 28.3753 51.4485L24.4644 44.6407L18.4159 47.6673C18.2167 47.7674 17.9882 47.7932 17.7717 47.7399C17.5551 47.6866 17.3647 47.5578 17.2347 47.3767L12.7816 41.1798L4.12531 46.4532C2.58 47.3939 1.82219 49.0845 2.14562 50.8642L5.25344 67.8907L17.9847 61.3876ZM14.3878 40.2001L18.2862 37.8267L23.1847 43.186L18.2909 45.6345L14.3878 40.2001ZM20.9034 32.7642C22.1503 33.2985 23.5144 33.5782 24.9612 33.5782C25.0597 33.5782 25.1597 33.5767 25.2612 33.5751C25.8034 33.561 26.455 33.5298 27.1737 33.397C28.0435 33.2381 28.8887 32.9659 29.6878 32.5876C29.7003 32.6548 29.7206 32.722 29.7487 32.786L31.7191 37.2876L30.3191 42.7673C30.3175 42.7704 30.3175 42.7735 30.3159 42.7767L28.8519 48.5126L25.9534 43.4673C25.9191 43.4079 25.8784 43.3517 25.8316 43.3017L19.5362 36.4142L20.9034 32.7642ZM25.2112 31.7001C25.6816 31.6876 26.2441 31.661 26.8347 31.5532C29.7112 31.0251 32.0519 29.0439 33.0956 26.2532C33.3269 25.6345 33.5222 24.9626 33.68 24.2579C34.2972 20.611 34.2394 17.1173 33.4816 13.572L30.3972 16.8798C28.8987 18.4876 26.9441 19.3376 24.7456 19.3376H14.0378C15.3253 23.2282 16.6972 26.1548 18.2097 28.2439C19.88 30.547 22.3675 31.7751 25.2112 31.7001ZM13.9581 24.4126C13.4706 23.2985 12.9972 22.0829 12.5378 20.7532C12.1503 20.9689 11.8394 21.2892 11.6456 21.6829C11.405 22.1689 11.3722 22.7064 11.5519 23.197C11.8972 24.1423 12.9394 24.647 13.9581 24.4126ZM29.1862 11.8689H32.505L29.0269 15.6001C27.8753 16.836 26.4347 17.4626 24.7456 17.4626H22.0894L24.4878 14.2314C25.6362 12.686 27.2612 11.8689 29.1862 11.8689ZM13.4441 17.4579C11.6487 10.8767 13.6347 6.06573 18.8941 4.25792C23.8753 2.54386 30.1722 4.2298 31.605 7.66105C31.9316 8.44542 32.2269 9.22198 32.4894 9.99386H29.1862C26.68 9.99386 24.4769 11.1017 22.9831 13.1142L19.7534 17.4626H13.4456C13.4456 17.461 13.4441 17.4595 13.4441 17.4579ZM35.0081 11.8689C35.4987 13.761 35.8003 15.6329 35.9191 17.5142L42.0206 15.7235C42.0941 15.7017 42.1284 15.6689 42.1503 15.5954C42.1737 15.522 42.1644 15.4751 42.1175 15.4157L41.0222 14.0532C39.8722 12.6235 38.2956 11.8689 36.4613 11.8689H35.0081ZM32.2847 42.6485L33.3628 38.4314L36.6581 39.5845L35.5331 45.1642L32.2847 42.6485ZM43.1409 37.6782V42.0079H53.405V37.3579H43.4597C43.2878 37.3579 43.1409 37.5048 43.1409 37.6782ZM55.28 46.8267L59.3972 44.1126C59.5505 44.0117 59.73 43.9579 59.9136 43.9579C60.0971 43.9579 60.2767 44.0117 60.43 44.1126L64.5472 46.8267V37.3595H55.28V46.8267ZM76.3675 37.3579H66.4222V42.0079H76.6862V37.6782C76.6862 37.5048 76.5409 37.3579 76.3675 37.3579ZM78.5612 37.6782V66.5485C78.5612 67.7517 77.58 68.736 76.3722 68.7423L61.4675 68.8157C61.6066 69.1657 61.6784 69.5439 61.6738 69.9439V69.9751C61.6581 71.5376 60.4816 72.8001 58.9363 72.911L45.9519 73.8423C39.1003 74.3329 32.8175 76.1235 26.9691 77.9157C25.8925 78.2454 24.9784 78.2642 24.0128 78.2845C23.8909 78.2876 23.7659 78.2892 23.6394 78.2923C23.58 78.2939 23.5191 78.2954 23.4597 78.2954C20.9972 78.2954 19.1644 76.9939 17.6347 75.7673L8.41906 68.3798L6.0675 69.5798C5.54406 69.8485 4.94094 69.8517 4.41281 69.5907C3.88625 69.3314 3.52219 68.8485 3.4175 68.2704L0.301873 51.2001C-0.165314 48.6392 0.925311 46.2064 3.14875 44.8517L17.6941 35.9923L19.1644 32.0626C19.1909 31.9923 19.2269 31.9267 19.2675 31.8673C18.2956 31.2064 17.4284 30.361 16.6909 29.3439C16.0222 28.4204 15.3816 27.3501 14.7659 26.1298C14.3331 26.2751 13.8941 26.347 13.4628 26.347C11.8534 26.347 10.3581 25.3907 9.79094 23.8423C9.43469 22.8657 9.49562 21.8048 9.96281 20.8548C10.38 20.0095 11.0769 19.3454 11.9441 18.9579C11.9175 18.8751 11.8925 18.7907 11.8659 18.7064C11.8595 18.6878 11.8538 18.6691 11.8487 18.6501C11.78 18.4314 11.7128 18.2126 11.6456 17.9892C11.6425 17.9814 11.6409 17.9735 11.6378 17.9657C10.5253 13.897 10.6831 10.422 12.1066 7.63448C13.3331 5.23448 15.4691 3.45323 18.2831 2.48605C21.0394 1.53917 24.2737 1.45011 27.1597 2.2423C30.1847 3.07355 32.4362 4.78605 33.3347 6.93917C33.7644 7.96886 34.1394 8.98605 34.4644 9.99386H36.4613C38.8831 9.99386 40.9644 10.9907 42.4831 12.8782L43.5784 14.2407C44.0191 14.7876 44.1503 15.486 43.9394 16.1564C43.73 16.8267 43.2238 17.3235 42.5488 17.522L35.9769 19.4517C35.9706 21.1454 35.8206 22.8532 35.5238 24.5954C35.5222 24.611 35.5191 24.6251 35.5159 24.6407C35.3394 25.4392 35.1159 26.2017 34.8519 26.9095C34.1128 28.8876 32.8378 30.5329 31.2097 31.6939C31.3175 31.7845 31.4066 31.8985 31.4675 32.036L33.4019 36.4595L38.8675 38.3689C38.9472 38.397 39.0237 38.436 39.0925 38.4829L41.2659 39.9907V37.6782C41.2659 36.4689 42.2503 35.4845 43.4597 35.4845H76.3675C77.5769 35.4845 78.5612 36.4673 78.5612 37.6782ZM25.4831 28.8189C24.5237 28.8189 23.5253 28.5829 22.5675 28.0954C22.4579 28.0394 22.3604 27.9624 22.2806 27.8687C22.2007 27.7751 22.1402 27.6666 22.1023 27.5495C22.0644 27.4324 22.05 27.3089 22.0598 27.1863C22.0697 27.0636 22.1036 26.944 22.1597 26.8345C22.2155 26.7247 22.2924 26.627 22.386 26.547C22.4796 26.467 22.5881 26.4063 22.7052 26.3682C22.8224 26.3302 22.9458 26.3157 23.0686 26.3254C23.1914 26.3352 23.311 26.3691 23.4206 26.4251C25.1972 27.3314 27.1456 27.0204 28.1612 25.6704C28.4722 25.2564 29.0597 25.1735 29.4737 25.4845C29.8878 25.7954 29.9706 26.3829 29.6597 26.797C28.6659 28.1189 27.1347 28.8189 25.4831 28.8189Z" fill="#222124"/>
</g>
<defs>
<clipPath id="clip0_445_1245">
<rect width="80" height="80" fill="white"/>
</clipPath>
</defs>
</svg>
