<svg width="134" height="152" viewBox="0 0 134 152" fill="none" xmlns="http://www.w3.org/2000/svg">
<path d="M69.89 82.1135C70.1861 78.8332 70.1745 75.5313 69.4227 72.3058C68.3391 67.6568 65.4697 63.0315 61.4235 60.4114C60.7528 59.9769 60.0695 59.55 59.3455 59.2088C58.8159 58.9593 58.1714 58.765 57.6856 58.451C57.6525 58.4297 57.6202 58.4078 57.5877 58.3862C60.4645 59.0376 64.1539 60.5422 66.5358 62.2478C72.4469 66.4799 74.6135 72.7337 75.7275 79.592C73.795 80.3763 71.6807 81.0321 69.89 82.1135Z" fill="white"/>
<path d="M13.5476 81.0325C13.9036 80.9969 14.2582 80.9546 14.6162 80.9424C22.9181 80.6585 32.9023 83.9485 40.1868 87.7731C41.4545 88.4389 42.6765 89.212 43.9041 89.9478C46.1787 91.3113 48.6092 92.8021 50.5373 94.6301C48.6633 96.4042 46.8839 98.2512 45.1232 100.136C39.6216 93.8294 35.1165 90.1507 27.7246 86.199C25.8165 85.1789 23.8743 84.1185 21.8382 83.3741C20.1264 82.7481 18.3588 82.1756 16.5882 81.7396C15.6193 81.5011 14.5506 81.4066 13.6187 81.0601C13.5948 81.0513 13.5713 81.0416 13.5476 81.0325Z" fill="white"/>
<path d="M116.795 115.356C117.155 114.509 118.145 113.345 118.693 112.541C119.55 111.285 120.343 109.99 121.072 108.657C125.342 100.869 127.269 93.37 128.214 84.5924C128.482 82.1062 128.502 79.6091 128.431 77.1128C128.419 76.6496 128.4 76.1864 128.378 75.7237C128.355 75.2608 128.327 74.7985 128.294 74.3362C128.261 73.8739 128.223 73.4122 128.18 72.9508C128.136 72.4895 128.088 72.0287 128.035 71.5683C127.982 71.1079 127.923 70.6484 127.86 70.1892C127.797 69.7303 127.728 69.2721 127.655 68.8142C127.582 68.3569 127.503 67.9002 127.42 67.4445C127.337 66.9884 127.249 66.5336 127.155 66.0798C127.062 65.6259 126.964 65.173 126.861 64.7213C126.758 64.2697 126.65 63.8189 126.537 63.3695C126.424 62.9203 126.306 62.4721 126.183 62.0254C126.06 61.5784 125.932 61.133 125.799 60.6892C125.667 60.245 125.53 59.8025 125.387 59.3618C125.245 58.9207 125.098 58.4813 124.946 58.0434C124.794 57.6055 124.638 57.1695 124.476 56.735C124.315 56.3009 124.149 55.8683 123.978 55.4373C123.807 55.0066 123.632 54.5778 123.451 54.1512C123.271 53.7242 123.086 53.2995 122.897 52.8766C122.707 52.4538 122.513 52.0331 122.314 51.6143C122.115 51.1958 121.912 50.7795 121.704 50.3654C121.496 49.9513 121.284 49.5394 121.067 49.13C120.85 48.7202 120.629 48.3133 120.403 47.9086C120.177 47.5039 119.947 47.1017 119.712 46.7023C119.478 46.3026 119.239 45.9054 118.996 45.511C118.752 45.1166 118.505 44.7251 118.253 44.336C118.001 43.9469 117.745 43.5607 117.485 43.1772C117.225 42.7941 116.96 42.4135 116.692 42.036C116.423 41.6582 116.15 41.2839 115.873 40.912C115.597 40.5405 115.316 40.1721 115.031 39.8065C114.746 39.4409 114.457 39.0788 114.165 38.7194C113.872 38.3604 113.575 38.0045 113.275 37.6518C112.974 37.299 112.67 36.9497 112.362 36.6038C111.349 35.4642 110.299 34.3602 109.211 33.2919C108.124 32.2237 107.001 31.1936 105.844 30.2017C105.13 29.59 104.413 28.9729 103.668 28.4004C103.166 28.015 102.408 27.6429 102.02 27.1611C102.129 27.2007 102.23 27.2378 102.333 27.2924C104.422 28.4002 106.391 29.9635 108.256 31.4052C108.592 31.6662 108.925 31.9304 109.256 32.1977C109.587 32.465 109.915 32.7357 110.24 33.0093C110.566 33.2832 110.889 33.5599 111.209 33.84C111.529 34.1202 111.846 34.4031 112.161 34.6892C112.475 34.9753 112.787 35.2645 113.096 35.5565C113.405 35.8486 113.712 36.1437 114.015 36.442C114.318 36.74 114.619 37.0411 114.916 37.3447C115.214 37.6487 115.508 37.9554 115.8 38.265C116.091 38.5745 116.38 38.8869 116.665 39.2021C116.951 39.5173 117.233 39.835 117.513 40.1558C117.792 40.4763 118.069 40.7997 118.342 41.1255C118.615 41.4517 118.885 41.78 119.152 42.1112C119.419 42.4423 119.682 42.776 119.943 43.1125C120.203 43.4486 120.46 43.7873 120.714 44.1285C120.968 44.47 121.218 44.8136 121.465 45.1595C121.713 45.5057 121.956 45.8541 122.197 46.2049C122.437 46.5558 122.674 46.9089 122.908 47.2641C123.141 47.6194 123.371 47.9772 123.598 48.3368C123.825 48.6968 124.048 49.0586 124.268 49.4229C124.487 49.787 124.703 50.1532 124.916 50.5216C125.129 50.8897 125.338 51.26 125.543 51.6324C125.748 52.0049 125.95 52.3793 126.149 52.7555C126.347 53.1317 126.541 53.5098 126.732 53.8898C126.923 54.2698 127.11 54.6517 127.294 55.0354C127.477 55.4188 127.657 55.8041 127.833 56.1913C128.01 56.5785 128.182 56.9673 128.35 57.3579C128.519 57.7482 128.684 58.1404 128.845 58.5339C129.006 58.9276 129.163 59.3226 129.316 59.7195C129.469 60.1161 129.619 60.5142 129.765 60.9136C129.91 61.313 130.052 61.714 130.19 62.1165C130.328 62.5187 130.462 62.9222 130.592 63.3272C130.722 63.7322 130.848 64.1382 130.971 64.5457C136.033 81.1346 134.539 100.049 126.424 115.413C126.474 115.146 126.5 114.657 126.351 114.42C126.3 114.338 126.286 114.339 126.185 114.341C125.669 114.35 124.804 114.875 124.315 115.087C122.91 115.694 120.581 116.209 119.052 116.094C118.503 116.053 117.942 115.867 117.42 115.704C117.348 115.545 117.283 115.398 117.244 115.228L117.089 115.124L116.934 115.416L116.795 115.356Z" fill="white"/>
<path d="M44.7694 46.181C47.4418 45.7995 51.8505 46.8355 54.2747 48.0218C57.7168 49.7058 60.3207 52.6558 61.8938 56.1277C62.3039 57.0326 62.5994 58.0004 62.918 58.9409C60.5313 57.4451 57.2213 56.2691 54.5088 55.533C50.2864 54.3864 45.5287 54.1276 41.2318 54.9696C40.7692 55.0603 39.9238 55.1314 39.5381 55.388C39.5144 55.404 39.494 55.4247 39.4721 55.4428C40.7354 55.4203 41.978 55.2278 43.2548 55.2428C47.722 55.2951 52.6452 56.6904 56.3243 59.2859C57.5096 60.1222 58.5632 61.127 59.5723 62.1646C60.4359 63.0908 61.2691 64.0254 62.0018 65.0617C59.9 66.3595 57.8912 67.6143 55.4431 68.1486C49.9806 69.3414 43.7286 67.9373 39.5641 64.1315C37.8911 62.6025 36.5587 60.793 34.6168 59.5541C31.6742 57.6764 28.839 58.0886 25.6029 58.7869C26.7982 57.138 28.013 55.4919 29.3386 53.9438C32.1065 50.7102 35.9949 47.9964 40.126 46.89C41.6559 46.4802 43.1965 46.3031 44.7694 46.181Z" fill="white"/>
<path d="M92.788 42.8816C93.7067 42.8422 94.625 42.8416 95.5437 42.8797C96.462 42.9176 97.3776 42.994 98.2897 43.1092C103.335 43.7392 107.801 45.8126 110.968 49.8816C110.001 49.5896 109.019 49.3533 108.004 49.3323C104.546 49.2597 102.376 51.6886 101.003 54.6155C100.371 55.9614 99.9211 57.3969 99.2256 58.7134C98.3476 60.3745 97.1181 61.8954 95.7678 63.195C90.92 67.8612 83.5681 68.3514 77.202 68.2325C78.0289 64.2348 80.004 60.7041 82.6276 57.6213C85.0114 54.8885 87.7336 52.5638 90.8893 50.7637C91.7798 50.2557 92.752 49.9017 93.6309 49.3902L93.6591 49.2885C93.7211 49.2913 93.6967 49.3016 93.7361 49.2682C93.62 49.2024 93.6954 49.2306 93.497 49.2325L93.7176 49.4297L93.6118 49.4347L93.4794 49.2406C92.5357 49.4873 91.5823 49.9527 90.6737 50.3167C85.1451 52.5319 80.1667 56.5095 76.6229 61.2906C75.8617 62.3176 75.2047 63.4482 74.5255 64.5318C74.4256 63.9261 74.3971 63.3083 74.369 62.6954C74.1242 57.3671 75.3199 52.2386 79.0186 48.2246C82.868 44.0476 87.3552 43.1223 92.788 42.8816Z" fill="white"/>
<path d="M33.1055 121.663C29.1191 118.685 25.0247 114.16 22.1526 110.09C17.0303 102.834 14.0297 94.9705 12.6148 86.2302C12.419 85.021 11.9572 82.1802 12.1502 81.0622C12.6571 80.9457 13.4887 81.3639 13.9558 81.5442C16.0493 82.3508 18.0235 83.3709 19.9793 84.4645C28.8956 89.45 36.1783 96.8191 40.3463 106.211C39.591 107.56 38.6642 108.81 37.9102 110.165C35.8778 113.817 34.3691 117.689 33.1055 121.663Z" fill="white"/>
<path d="M68.9359 0C69.0038 0.0159225 69.1024 0.036227 69.1719 0.0605474C70.0411 0.364806 71.0123 1.05746 71.7567 1.58157C76.5312 4.94324 81.5828 10.7009 84.3235 15.8793C87.5033 21.8867 88.1252 28.0423 86.1189 34.553C84.2678 40.5592 80.9039 44.1785 76.1115 48.0125C74.1223 49.6041 72.0471 51.109 69.7866 52.2978C69.7622 52.2339 69.7384 52.1701 69.7156 52.1059C66.3796 42.6535 68.7888 33.152 72.9214 24.4041C73.1567 23.9098 73.368 23.4018 73.5887 22.9008C73.4309 23.0843 73.2851 23.2731 73.1442 23.47C66.8638 32.2442 63.6242 42.5274 65.4014 53.2969C62.2585 51.2085 59.1028 48.0985 57.0999 44.8924C55.862 42.9105 55.2097 40.7154 54.8951 38.4114C54.009 31.914 56.2198 25.5281 60.5405 20.6387C64.227 16.4667 69.1068 15.3719 70.499 9.26389C71.2593 5.92854 70.7259 2.87478 68.9359 0Z" fill="white"/>
<path d="M75.7157 79.5859C77.6767 78.8116 79.7024 78.1975 81.7247 77.6062C82.4146 77.4087 83.106 77.219 83.8 77.0375C84.4939 76.8556 85.1897 76.6819 85.8877 76.516C86.5854 76.3501 87.2853 76.1924 87.9867 76.0424C88.6882 75.8925 89.3912 75.7507 90.0957 75.6167C90.8003 75.4828 91.5064 75.3569 92.2141 75.2393C92.9215 75.1216 93.6305 75.012 94.3404 74.9103C95.0506 74.8089 95.7617 74.7153 96.4738 74.6301C97.1862 74.5447 97.8992 74.4674 98.6132 74.3982C99.3272 74.3294 100.042 74.2683 100.757 74.2157C101.473 74.1628 102.188 74.1181 102.905 74.0818C103.621 74.0451 104.338 74.017 105.055 73.9969C105.772 73.9769 106.489 73.965 107.206 73.9613C107.924 73.9575 108.641 73.9619 109.358 73.9744C110.075 73.9869 110.792 74.0079 111.509 74.0367C112.225 74.0658 112.942 74.1031 113.658 74.1481C114.373 74.1935 115.089 74.247 115.803 74.3087C117.675 74.4536 119.609 74.5316 121.462 74.8286L121.33 74.859C120.297 75.09 119.222 75.1886 118.173 75.3253L111.837 76.1166C110.069 76.3511 108.309 76.7711 106.568 77.1533C102.867 77.9652 99.1221 78.8466 95.5404 80.0886C80.7491 85.2185 66.7797 95.2549 58.2588 108.512C54.9701 113.628 52.3659 119.322 51.0225 125.273C50.6049 127.122 50.3939 128.984 50.0784 130.847C44.9705 129.288 40.1493 126.66 35.8011 123.592C34.9215 122.972 34.0032 122.356 33.1837 121.659C34.4473 117.684 35.9563 113.813 37.9883 110.16C38.7424 108.805 39.6692 107.556 40.4244 106.206C41.9532 104.142 43.5319 102.117 45.1615 100.132C46.9221 98.2463 48.7015 96.3993 50.5755 94.6252C54.991 90.4384 60.2742 87.0542 65.6222 84.2018C66.9841 83.4753 68.4286 82.9044 69.7802 82.1626L69.8782 82.1078C71.6689 81.0261 73.7835 80.3703 75.7157 79.5859Z" fill="white"/>
<path d="M121.093 75.9375L121.183 75.9497C121.35 76.2045 121.324 76.5932 121.334 76.8928C121.35 77.2781 121.361 77.6634 121.369 78.049C121.376 78.4346 121.38 78.8203 121.379 79.2059C121.378 79.5915 121.373 79.9771 121.364 80.3624C121.355 80.7481 121.342 81.1337 121.325 81.519C121.307 81.904 121.286 82.289 121.261 82.674C121.235 83.0587 121.206 83.443 121.172 83.8274C121.138 84.2114 121.101 84.5952 121.059 84.9786C121.017 85.3621 120.971 85.7449 120.921 86.127C120.871 86.5095 120.816 86.8914 120.758 87.2726C120.7 87.6539 120.638 88.0345 120.571 88.4142C120.505 88.7941 120.435 89.1732 120.36 89.5516C120.286 89.93 120.207 90.3075 120.125 90.6841C120.042 91.0609 119.955 91.4365 119.865 91.8115C119.774 92.1865 119.68 92.5602 119.581 92.933C119.483 93.3058 119.38 93.6776 119.274 94.0482C119.167 94.4188 119.057 94.7885 118.942 95.1566C118.828 95.525 118.71 95.8921 118.587 96.2577C118.465 96.6236 118.339 96.988 118.209 97.3511C118.079 97.7141 117.945 98.0757 117.807 98.4359C117.67 98.7962 117.528 99.1549 117.383 99.512C117.237 99.8692 117.088 100.225 116.935 100.579C116.782 100.933 116.625 101.285 116.465 101.636C116.304 101.986 116.14 102.335 115.972 102.682C115.804 103.03 115.632 103.375 115.457 103.718C115.282 104.062 115.102 104.403 114.92 104.743C114.737 105.083 114.551 105.42 114.361 105.756C114.171 106.091 113.978 106.425 113.781 106.757C113.584 107.088 113.383 107.418 113.179 107.745C112.975 108.072 112.767 108.397 112.557 108.72C112.346 109.042 112.131 109.363 111.913 109.681C111.695 110 111.474 110.315 111.249 110.629C111.025 110.942 110.797 111.253 110.566 111.562C109.546 112.911 108.5 114.262 107.344 115.498C107.067 115.797 106.787 116.093 106.503 116.386C106.219 116.68 105.932 116.97 105.642 117.256C105.352 117.543 105.059 117.827 104.763 118.107C104.467 118.388 104.168 118.665 103.866 118.939C103.564 119.213 103.259 119.484 102.951 119.752C102.644 120.019 102.333 120.284 102.02 120.544C101.706 120.805 101.389 121.063 101.07 121.317C100.752 121.571 100.43 121.821 100.105 122.068C99.7806 122.315 99.4535 122.559 99.1239 122.799C98.7943 123.039 98.4619 123.276 98.127 123.509C97.7921 123.741 97.455 123.971 97.1151 124.196C96.7755 124.422 96.4333 124.643 96.0887 124.862C95.7441 125.08 95.3973 125.294 95.048 125.505C94.699 125.716 94.3475 125.923 93.9938 126.126C93.6404 126.329 93.2845 126.529 92.9264 126.724C92.5687 126.92 92.2087 127.111 91.8466 127.299C91.4844 127.487 91.1207 127.671 90.7545 127.85C90.3886 128.03 90.0208 128.207 89.6508 128.379C89.2812 128.551 88.9093 128.718 88.5359 128.882C88.1625 129.046 87.7875 129.206 87.4104 129.362C87.0335 129.518 86.6551 129.67 86.2751 129.818C85.8948 129.965 85.5132 130.109 85.1298 130.249C84.7467 130.388 84.362 130.524 83.9761 130.655C83.5898 130.786 83.2023 130.913 82.8133 131.036C82.4245 131.159 82.0342 131.278 81.6426 131.392C81.2514 131.507 80.8586 131.617 80.4648 131.723C80.071 131.829 79.676 131.931 79.2801 132.028C78.8841 132.126 78.4872 132.219 78.0891 132.308C77.691 132.397 77.2922 132.482 76.8922 132.562C76.4925 132.642 76.0918 132.718 75.6902 132.79C75.2886 132.862 74.8864 132.929 74.4836 132.992C74.0804 133.055 73.677 133.114 73.2729 133.168C71.0277 133.473 68.7825 133.583 66.5198 133.659C66.3855 133.655 66.4676 133.667 66.2829 133.586C66.2641 133.528 66.2359 133.45 66.2247 133.387C66.0391 132.361 66.3812 130.541 66.5236 129.469C67.6266 121.166 70.7867 113.187 75.2116 106.103C82.6615 94.1766 95.2107 84.1701 108.395 79.3414C112.501 77.8371 116.839 76.9269 121.093 75.9375Z" fill="white"/>
<path d="M126.422 115.415C122.001 123.766 115.551 132.013 108.059 137.846C105.471 139.861 102.716 141.59 99.8654 143.207C98.8444 143.787 97.809 144.339 96.7592 144.864C95.7091 145.39 94.6461 145.887 93.57 146.357C92.4942 146.827 91.4065 147.268 90.3072 147.681C89.2083 148.093 88.099 148.477 86.9797 148.831C86.4494 148.998 85.917 149.158 85.383 149.311C84.8487 149.465 84.3126 149.611 83.7748 149.752C83.2368 149.892 82.6975 150.025 82.1563 150.152C81.6151 150.278 81.0723 150.398 80.5283 150.512C79.984 150.625 79.4388 150.731 78.892 150.831C78.3451 150.931 77.7971 151.024 77.2481 151.11C76.6991 151.196 76.1488 151.276 75.5979 151.348C75.047 151.421 74.4952 151.486 73.9421 151.545C73.3897 151.604 72.8363 151.656 72.2822 151.701C71.7282 151.746 71.1739 151.785 70.6189 151.816C70.064 151.847 69.5087 151.872 68.9531 151.89C68.3979 151.907 67.8423 151.918 67.2864 151.922C66.7305 151.926 66.1749 151.923 65.619 151.913C65.0634 151.903 64.5078 151.887 63.9526 151.863C63.3973 151.839 62.8424 151.809 62.2877 151.771C61.7331 151.734 61.1794 151.69 60.6257 151.639C60.0723 151.588 59.5195 151.53 58.9677 151.465C58.4155 151.4 57.8643 151.328 57.3144 151.25C56.7641 151.171 56.2148 151.086 55.6667 150.994C55.1187 150.902 54.5715 150.803 54.026 150.698C53.4804 150.592 52.9361 150.48 52.393 150.36C51.8503 150.241 51.3088 150.116 50.7691 149.983C50.2292 149.851 49.6915 149.711 49.155 149.565C48.6185 149.42 48.0842 149.267 47.5518 149.108C47.019 148.949 46.4885 148.783 45.9601 148.611C45.4318 148.439 44.9056 148.26 44.3817 148.075C43.8574 147.89 43.3356 147.698 42.8166 147.5C42.2974 147.301 41.7806 147.097 41.2663 146.886C40.7521 146.675 40.2406 146.458 39.7317 146.234C39.223 146.01 38.7169 145.78 38.2139 145.544C37.7109 145.308 37.2107 145.065 36.7137 144.817C36.2163 144.568 35.7224 144.313 35.2316 144.053C34.8776 143.862 34.5255 143.668 34.1749 143.471C33.8243 143.275 33.4757 143.075 33.1285 142.871C32.7817 142.668 32.4368 142.462 32.0937 142.252C31.7504 142.043 31.4092 141.83 31.0699 141.615C30.7306 141.399 30.3932 141.18 30.058 140.959C29.7227 140.737 29.3894 140.512 29.0579 140.284C28.7268 140.057 28.3975 139.826 28.0701 139.592C27.743 139.359 27.4181 139.122 27.0951 138.883C26.7724 138.643 26.4518 138.401 26.1332 138.155C25.8146 137.91 25.4984 137.662 25.1845 137.411C24.8705 137.159 24.5588 136.906 24.2492 136.649C23.9397 136.392 23.6329 136.133 23.3281 135.871C23.0235 135.609 22.7211 135.343 22.4213 135.076C22.1211 134.808 21.8238 134.538 21.5286 134.265C21.2337 133.992 20.9411 133.716 20.6509 133.438C20.3608 133.159 20.0734 132.878 19.7885 132.594C19.5034 132.311 19.221 132.025 18.9411 131.736C18.6614 131.447 18.3842 131.156 18.1097 130.862C17.8351 130.569 17.5632 130.273 17.294 129.974C17.0249 129.676 16.7584 129.375 16.4946 129.071C16.2308 128.768 15.9698 128.462 15.7115 128.154C15.4533 127.846 15.1978 127.536 14.9451 127.223C14.6925 126.91 14.4428 126.595 14.1959 126.278C13.9489 125.96 13.7048 125.641 13.4638 125.319C13.2226 124.998 12.9843 124.674 12.7489 124.348C12.5137 124.022 12.2814 123.694 12.0519 123.364C11.8225 123.034 11.5961 122.701 11.3727 122.367C11.1494 122.033 10.929 121.697 10.7118 121.358C10.4943 121.02 10.2801 120.68 10.069 120.338C9.85785 119.996 9.6498 119.652 9.44478 119.306C9.23986 118.96 9.03806 118.612 8.83949 118.263C8.64083 117.913 8.44539 117.562 8.25302 117.209C6.39239 113.864 4.72092 110.383 3.60475 106.711C2.7006 103.737 1.81067 100.733 1.22917 97.6765C1.1384 97.2092 1.05257 96.7409 0.971878 96.2714C0.891029 95.8022 0.815282 95.3321 0.744512 94.8613C0.673679 94.3902 0.607948 93.9189 0.547319 93.4465C0.486565 92.9742 0.430913 92.5013 0.380206 92.0277C0.329593 91.5544 0.283958 91.0802 0.243423 90.6057C0.202889 90.1315 0.167395 89.6567 0.13694 89.1812C0.106484 88.7061 0.0811305 88.2306 0.0608478 87.7549C0.0405965 87.2791 0.0254785 86.8033 0.0153371 86.3273C0.0051019 85.8512 0 85.3751 0 84.8987C0 84.4226 0.0051019 83.9465 0.0153371 83.4705C0.0254159 82.9944 0.0406905 82.5183 0.0609732 82.0429C0.0812872 81.5671 0.106703 81.0916 0.137158 80.6162C0.167614 80.141 0.203046 79.6662 0.24358 79.1917C0.284114 78.7172 0.329688 78.2433 0.380363 77.77C0.431132 77.2965 0.486847 76.8235 0.547601 76.3512C0.60823 75.8789 0.673961 75.4072 0.744794 74.9364C0.815502 74.4656 0.891311 73.9955 0.97216 73.5263C1.05301 73.0568 1.13883 72.5886 1.22961 72.1212C1.32047 71.6536 1.41622 71.1872 1.51685 70.7218C1.61758 70.2564 1.72324 69.7922 1.83389 69.3289C1.94454 68.866 2.06007 68.404 2.18051 67.9433C2.30102 67.4825 2.42641 67.0233 2.55656 66.5651C2.68686 66.1072 2.82205 65.6505 2.96205 65.1954C3.10206 64.7403 3.24695 64.2868 3.3966 63.8345C3.54624 63.3825 3.70065 62.9321 3.85984 62.4835C4.01913 62.0347 4.18318 61.5877 4.35195 61.1423C4.52075 60.6972 4.69428 60.2537 4.87241 59.812C5.05067 59.3704 5.23362 58.9309 5.42127 58.4934C5.60882 58.0555 5.8011 57.6201 5.99807 57.1866C6.19492 56.753 6.3964 56.3214 6.60251 55.8923C6.80853 55.4628 7.01918 55.0359 7.23441 54.6112C7.44956 54.1864 7.66926 53.7639 7.89341 53.3438C8.28829 52.5935 8.69686 51.8508 9.11907 51.1152C9.54128 50.38 9.97692 49.6526 10.4261 48.9336C10.875 48.2143 11.3372 47.5035 11.8124 46.8014C12.2876 46.0993 12.7756 45.406 13.2765 44.7218C13.7773 44.0376 14.2905 43.3627 14.8162 42.6976C15.3418 42.0322 15.8796 41.3767 16.4293 40.7313C16.9791 40.0859 17.5406 39.4508 18.1138 38.826C18.687 38.2013 19.2716 37.5872 19.8674 36.984C21.1229 35.7276 22.4748 34.5488 23.801 33.3669C26.568 30.9014 29.5575 28.5175 32.757 26.6328L32.8381 26.6333L32.7172 26.7129L32.7367 26.7323C30.3084 28.7464 27.8234 30.6222 25.5513 32.8276C25.263 33.1025 24.977 33.3798 24.6934 33.6599C24.4098 33.9397 24.1287 34.2224 23.8505 34.5075C23.5719 34.7927 23.2961 35.08 23.0229 35.3702C22.7496 35.6603 22.4789 35.9527 22.2109 36.2475C21.943 36.5427 21.6776 36.8397 21.415 37.1396C21.1527 37.4394 20.8926 37.7415 20.6356 38.0457C20.3783 38.3503 20.1238 38.657 19.8724 38.966C19.6207 39.2749 19.3719 39.586 19.1258 39.8997C18.8799 40.2133 18.6367 40.5291 18.3964 40.8468C18.1562 41.1645 17.9187 41.4847 17.6842 41.8068C17.4497 42.1292 17.2181 42.4535 16.9894 42.7796C16.7607 43.1058 16.535 43.4344 16.3121 43.7646C16.0894 44.0952 15.8696 44.4276 15.6529 44.7622C15.4361 45.0965 15.2224 45.4326 15.0117 45.771C14.8011 46.1093 14.5935 46.4493 14.3889 46.7914C14.1844 47.1335 13.9828 47.4772 13.7845 47.8227C13.5862 48.1683 13.391 48.5157 13.1989 48.8647C13.0068 49.214 12.8179 49.5649 12.6321 49.9174C12.4464 50.2701 12.2638 50.6241 12.0845 50.98C11.9051 51.3359 11.729 51.6933 11.5561 52.0527C11.3832 52.4114 11.2134 52.772 11.0471 53.1341C10.8807 53.4962 10.7176 53.86 10.5578 54.2249C10.398 54.5899 10.2414 54.9564 10.0882 55.3242C9.93491 55.692 9.78505 56.0613 9.63847 56.4316C9.49189 56.8025 9.34875 57.1744 9.20896 57.5475C9.06902 57.9206 8.93252 58.2949 8.7994 58.6705C8.6664 59.0461 8.53669 59.4227 8.41033 59.8008C8.28407 60.1786 8.16121 60.5579 8.0418 60.9379C7.92233 61.3182 7.80633 61.6995 7.69371 62.0816C7.58103 62.4638 7.47191 62.8469 7.36637 63.2313C7.2607 63.6157 7.15844 64.0007 7.05972 64.3866C6.96103 64.7728 6.86581 65.1597 6.77407 65.5475C6.089 68.5746 5.70281 71.7829 5.41519 74.8672C5.07674 78.4975 5.24971 82.2056 5.67871 85.8202C5.72069 86.1955 5.76604 86.5705 5.8149 86.9448C5.86364 87.3192 5.91584 87.6932 5.9715 88.0669C6.02699 88.4403 6.08593 88.8134 6.14838 89.1856C6.21069 89.5584 6.27633 89.9302 6.34544 90.3015C6.41452 90.6727 6.48698 91.0433 6.56279 91.4133C6.63851 91.7832 6.71761 92.1526 6.80008 92.521C6.88259 92.8894 6.96841 93.2572 7.05753 93.6243C7.14661 93.9912 7.23907 94.3574 7.33476 94.7227C7.43057 95.0879 7.5296 95.4523 7.63202 95.8157C7.73446 96.1791 7.84016 96.5418 7.94906 96.9034C8.05801 97.2649 8.17026 97.6255 8.28566 97.9851C8.40119 98.3447 8.51995 98.7031 8.64192 99.0603C8.7639 99.4177 8.88907 99.7742 9.01747 100.129C9.14592 100.484 9.27761 100.838 9.41245 101.191C9.54726 101.544 9.6852 101.895 9.82646 102.245C9.96772 102.596 10.112 102.945 10.2596 103.292C10.4071 103.64 10.5578 103.986 10.7116 104.331C10.8654 104.676 11.0223 105.02 11.1825 105.361C11.3425 105.703 11.5056 106.044 11.6717 106.383C11.8379 106.722 12.0072 107.06 12.1796 107.396C12.3518 107.732 12.5271 108.066 12.7055 108.399C12.884 108.732 13.0654 109.063 13.2497 109.393C13.4341 109.722 13.6214 110.05 13.8117 110.376C14.0021 110.702 14.1953 111.027 14.3916 111.349C14.5878 111.672 14.7869 111.993 14.989 112.312C15.1909 112.631 15.3958 112.949 15.6036 113.264C15.8114 113.579 16.0219 113.893 16.2353 114.204C16.4488 114.515 16.6651 114.825 16.884 115.133C17.1032 115.44 17.325 115.746 17.5497 116.05C17.7743 116.353 18.0015 116.655 18.2315 116.954C18.4615 117.254 18.6943 117.551 18.9298 117.846C19.1652 118.142 19.4033 118.435 19.644 118.725C19.969 119.113 20.2985 119.497 20.6328 119.876C20.9674 120.256 21.306 120.631 21.6497 121.003C21.9931 121.374 22.3412 121.741 22.6936 122.104C23.046 122.467 23.4029 122.825 23.7641 123.179C24.1253 123.533 24.4909 123.883 24.8605 124.228C25.2302 124.573 25.6039 124.914 25.982 125.25C26.3601 125.586 26.7423 125.917 27.1286 126.244C27.5145 126.571 27.9048 126.893 28.2986 127.21C28.6926 127.527 29.0905 127.839 29.4924 128.147C29.8936 128.454 30.299 128.757 30.7081 129.055C31.1172 129.352 31.5297 129.645 31.946 129.932C32.362 130.22 32.7817 130.502 33.2046 130.779C33.6278 131.056 34.0541 131.328 34.4838 131.595C34.9136 131.862 35.3465 132.124 35.7825 132.38C36.2188 132.636 36.658 132.887 37.0999 133.133C37.5422 133.378 37.9873 133.618 38.4355 133.853C38.8834 134.088 39.3345 134.317 39.7883 134.541C40.2419 134.764 40.6982 134.983 41.1574 135.195C41.6163 135.408 42.0776 135.614 42.5418 135.816C43.006 136.017 43.4724 136.213 43.9413 136.403C44.4101 136.593 44.8812 136.777 45.3542 136.955C45.8277 137.133 46.3032 137.306 46.7805 137.473C47.2582 137.64 47.7377 137.8 48.2191 137.955C48.7005 138.111 49.1838 138.26 49.6689 138.403C50.1541 138.546 50.6408 138.683 51.1291 138.815C51.6177 138.946 52.1076 139.072 52.5993 139.191C53.0907 139.31 53.5837 139.424 54.0779 139.531C54.5721 139.639 55.0679 139.74 55.5647 139.835C56.0614 139.93 56.5591 140.02 57.058 140.103C57.557 140.186 58.0568 140.263 58.5579 140.334C59.0588 140.405 59.5602 140.47 60.0626 140.528C60.5649 140.587 61.0679 140.639 61.5719 140.686C77.4919 142.15 93.9193 136.713 106.156 126.502C107.553 125.349 108.899 124.138 110.194 122.87C111.489 121.601 112.727 120.28 113.909 118.907C114.905 117.757 115.785 116.489 116.793 115.359L116.932 115.419L117.087 115.127L117.243 115.23C117.281 115.401 117.346 115.547 117.418 115.706C117.94 115.87 118.501 116.056 119.05 116.097C120.579 116.212 122.908 115.696 124.313 115.089C124.802 114.878 125.667 114.352 126.183 114.343C126.284 114.341 126.298 114.34 126.349 114.422C126.498 114.659 126.472 115.148 126.422 115.415Z" fill="white"/>
</svg>
