<svg width="154" height="44" viewBox="0 0 154 44" fill="none" xmlns="http://www.w3.org/2000/svg">
<path d="M20.2415 23.7815C20.3273 22.8314 20.3239 21.8751 20.1062 20.941C19.7923 19.5945 18.9613 18.255 17.7895 17.4961C17.5952 17.3703 17.3973 17.2466 17.1876 17.1478C17.0343 17.0756 16.8476 17.0193 16.7069 16.9284C16.6973 16.9222 16.688 16.9159 16.6785 16.9096C17.5117 17.0982 18.5802 17.534 19.2701 18.028C20.9821 19.2537 21.6096 21.0649 21.9322 23.0512C21.3725 23.2784 20.7601 23.4683 20.2415 23.7815Z" fill="#5B8C51"/>
<path d="M3.92353 23.4687C4.02664 23.4583 4.12932 23.4461 4.23301 23.4426C6.63739 23.3603 9.52901 24.3132 11.6388 25.4209C12.0059 25.6137 12.3598 25.8376 12.7153 26.0507C13.3741 26.4456 14.078 26.8774 14.6364 27.4068C14.0937 27.9206 13.5783 28.4555 13.0684 29.0015C11.475 27.1749 10.1703 26.1094 8.02945 24.965C7.47683 24.6695 6.91434 24.3624 6.32464 24.1468C5.82887 23.9655 5.31694 23.7997 4.80415 23.6734C4.52353 23.6044 4.214 23.577 3.94413 23.4766C3.93721 23.4741 3.9304 23.4713 3.92353 23.4687Z" fill="#EDDD5E"/>
<path d="M33.8259 33.4095C33.9302 33.164 34.217 32.827 34.3758 32.5943C34.6239 32.2305 34.8535 31.8555 35.0649 31.4692C36.3013 29.2136 36.8596 27.0419 37.1333 24.4997C37.2108 23.7797 37.2166 23.0564 37.1962 22.3335C37.1925 22.1993 37.1872 22.0652 37.1806 21.9312C37.174 21.7971 37.1659 21.6632 37.1563 21.5293C37.1467 21.3954 37.1357 21.2617 37.1232 21.1281C37.1107 20.9945 37.0967 20.861 37.0813 20.7277C37.0659 20.5943 37.049 20.4613 37.0306 20.3283C37.0123 20.1954 36.9926 20.0627 36.9714 19.93C36.9501 19.7976 36.9274 19.6653 36.9033 19.5333C36.8792 19.4013 36.8536 19.2696 36.8266 19.1381C36.7996 19.0067 36.7711 18.8755 36.7413 18.7447C36.7114 18.6139 36.6801 18.4833 36.6474 18.3532C36.6146 18.2231 36.5805 18.0933 36.5449 17.9639C36.5093 17.8344 36.4723 17.7054 36.4339 17.5769C36.3955 17.4483 36.3557 17.3201 36.3145 17.1924C36.2733 17.0647 36.2307 16.9374 36.1868 16.8106C36.1427 16.6838 36.0974 16.5575 36.0507 16.4317C36.0039 16.306 35.9558 16.1807 35.9063 16.0559C35.8568 15.9311 35.806 15.8069 35.7538 15.6834C35.7016 15.5597 35.648 15.4367 35.5932 15.3142C35.5382 15.1918 35.482 15.0699 35.4245 14.9486C35.3669 14.8274 35.308 14.7069 35.2478 14.5869C35.1876 14.467 35.1261 14.3477 35.0633 14.2291C35.0005 14.1105 34.9364 13.9926 34.871 13.8754C34.8056 13.7582 34.739 13.6417 34.671 13.526C34.6031 13.4103 34.5338 13.2952 34.4634 13.181C34.3929 13.0668 34.3212 12.9534 34.2483 12.8407C34.1754 12.728 34.1012 12.6162 34.0259 12.5051C33.9505 12.3941 33.8739 12.2839 33.7961 12.1746C33.7183 12.0652 33.6393 11.9568 33.5591 11.8491C33.479 11.7415 33.3977 11.6348 33.3152 11.5289C33.2327 11.423 33.149 11.3181 33.0643 11.214C32.9794 11.1101 32.8935 11.007 32.8064 10.9048C32.7194 10.8027 32.6312 10.7015 32.542 10.6013C32.2487 10.2713 31.9446 9.95153 31.6297 9.64213C31.3147 9.33274 30.9895 9.0344 30.6543 8.74713C30.4477 8.56999 30.2399 8.39126 30.0242 8.22544C29.8789 8.11384 29.6593 8.00608 29.5469 7.86654C29.5785 7.87799 29.6078 7.88875 29.6375 7.90455C30.2426 8.22538 30.8129 8.67814 31.3531 9.09568C31.4503 9.17129 31.5468 9.2478 31.6427 9.32522C31.7384 9.40263 31.8334 9.48105 31.9277 9.56028C32.0219 9.6396 32.1154 9.71973 32.2081 9.80087C32.3008 9.882 32.3927 9.96395 32.4839 10.0468C32.575 10.1297 32.6653 10.2134 32.7549 10.298C32.8443 10.3826 32.933 10.4681 33.0208 10.5545C33.1087 10.6408 33.1957 10.728 33.2818 10.8159C33.368 10.9039 33.4533 10.9928 33.5378 11.0824C33.6222 11.1721 33.7058 11.2625 33.7885 11.3538C33.8712 11.4451 33.953 11.5371 34.034 11.63C34.1149 11.7229 34.1949 11.8165 34.274 11.9109C34.3531 12.0053 34.4313 12.1004 34.5086 12.1963C34.5858 12.2923 34.6622 12.3889 34.7376 12.4863C34.813 12.5837 34.8874 12.6818 34.961 12.7806C35.0345 12.8795 35.107 12.979 35.1786 13.0792C35.2502 13.1795 35.3209 13.2804 35.3905 13.382C35.4601 13.4836 35.5287 13.5859 35.5963 13.6887C35.664 13.7916 35.7307 13.8953 35.7963 13.9994C35.862 14.1037 35.9266 14.2085 35.9902 14.314C36.0539 14.4194 36.1164 14.5255 36.1781 14.6322C36.2396 14.7388 36.3002 14.846 36.3596 14.9539C36.4191 15.0618 36.4776 15.1702 36.535 15.2791C36.5924 15.3881 36.6487 15.4976 36.704 15.6077C36.7593 15.7177 36.8135 15.8283 36.8667 15.9395C36.9199 16.0505 36.972 16.1621 37.0229 16.2742C37.074 16.3864 37.1238 16.499 37.1727 16.6121C37.2215 16.7251 37.2692 16.8387 37.3158 16.9527C37.3624 17.0667 37.4079 17.1811 37.4524 17.2961C37.4968 17.4109 37.5401 17.5262 37.5823 17.6419C37.6245 17.7576 37.6656 17.8737 37.7055 17.9903C37.7454 18.1068 37.7842 18.2236 37.8218 18.3409C37.8596 18.4582 37.8961 18.5758 37.9315 18.6938C39.3977 23.4983 38.965 28.9761 36.6148 33.4259C36.6291 33.3486 36.6367 33.207 36.5937 33.1383C36.5788 33.1145 36.5747 33.1149 36.5455 33.1154C36.3962 33.118 36.1456 33.2702 36.0039 33.3314C35.5971 33.5073 34.9225 33.6565 34.4796 33.6233C34.3208 33.6114 34.1582 33.5575 34.0069 33.5102C33.9863 33.4641 33.9674 33.4216 33.9562 33.3723L33.911 33.3423L33.8662 33.4268L33.8259 33.4095Z" fill="#5B8C51"/>
<path d="M12.966 13.375C13.74 13.2645 15.0168 13.5645 15.7189 13.9081C16.7158 14.3958 17.47 15.2502 17.9256 16.2557C18.0443 16.5178 18.1299 16.7981 18.2222 17.0705C17.531 16.6373 16.5723 16.2967 15.7868 16.0835C14.5639 15.7514 13.1859 15.6765 11.9415 15.9203C11.8075 15.9466 11.5626 15.9672 11.451 16.0415C11.4441 16.0461 11.4382 16.0521 11.4318 16.0574C11.7977 16.0508 12.1576 15.9951 12.5274 15.9994C13.8211 16.0146 15.247 16.4187 16.3125 17.1704C16.6558 17.4126 16.961 17.7036 17.2532 18.0041C17.5033 18.2724 17.7447 18.543 17.9569 18.8432C17.3481 19.219 16.7663 19.5825 16.0573 19.7372C14.4753 20.0827 12.6646 19.676 11.4585 18.5738C10.9739 18.1309 10.588 17.6069 10.0256 17.2481C9.17342 16.7043 8.3523 16.8237 7.41504 17.0259C7.76124 16.5483 8.11306 16.0716 8.49698 15.6232C9.29861 14.6867 10.4248 13.9008 11.6212 13.5803C12.0643 13.4616 12.5105 13.4103 12.966 13.375Z" fill="#5B8C51"/>
<path d="M26.8732 12.4193C27.1393 12.4079 27.4052 12.4077 27.6713 12.4188C27.9373 12.4298 28.2024 12.4519 28.4666 12.4852C29.9278 12.6677 31.2212 13.2682 32.1384 14.4467C31.8583 14.3621 31.574 14.2937 31.2801 14.2876C30.2785 14.2666 29.6501 14.97 29.2524 15.8177C29.0695 16.2075 28.9391 16.6232 28.7376 17.0045C28.4834 17.4856 28.1273 17.9261 27.7362 18.3025C26.3322 19.6539 24.2029 19.7959 22.3592 19.7614C22.5987 18.6036 23.1707 17.5811 23.9305 16.6882C24.6209 15.8968 25.4093 15.2235 26.3233 14.7021C26.5812 14.555 26.8628 14.4525 27.1173 14.3044L27.1255 14.2749C27.1434 14.2757 27.1364 14.2787 27.1478 14.269C27.1141 14.25 27.136 14.2581 27.0785 14.2587L27.1424 14.3158L27.1118 14.3172L27.0734 14.261C26.8001 14.3325 26.524 14.4673 26.2608 14.5727C24.6597 15.2142 23.2178 16.3662 22.1915 17.7509C21.971 18.0484 21.7807 18.3758 21.584 18.6896C21.5551 18.5142 21.5468 18.3353 21.5387 18.1578C21.4678 16.6146 21.8141 15.1293 22.8853 13.9668C24.0002 12.757 25.2997 12.4891 26.8732 12.4193Z" fill="#5B8C51"/>
<path d="M9.58812 35.236C8.43358 34.3733 7.24776 33.0627 6.41594 31.8842C4.93242 29.7826 4.0634 27.5052 3.65363 24.9738C3.59692 24.6236 3.46317 23.8009 3.51906 23.4771C3.66588 23.4434 3.90673 23.5645 4.04198 23.6167C4.64831 23.8503 5.22007 24.1457 5.78651 24.4625C8.36885 25.9064 10.4781 28.0406 11.6852 30.7607C11.4664 31.1515 11.198 31.5135 10.9796 31.9059C10.391 32.9636 9.95408 34.0848 9.58812 35.236Z" fill="#EDDD5E"/>
<path d="M19.9652 0C19.9849 0.00461146 20.0135 0.010492 20.0336 0.0175357C20.2853 0.105655 20.5666 0.306261 20.7822 0.458053C22.165 1.43166 23.628 3.09918 24.4218 4.59895C25.3427 6.3388 25.5228 8.12158 24.9418 10.0072C24.4057 11.7467 23.4314 12.7949 22.0434 13.9053C21.4673 14.3663 20.8663 14.8021 20.2116 15.1464C20.2046 15.1279 20.1977 15.1094 20.1911 15.0909C19.2249 12.3533 19.9226 9.60143 21.1195 7.06788C21.1877 6.92473 21.2489 6.77762 21.3128 6.63251C21.2671 6.68564 21.2249 6.74034 21.1841 6.79735C19.3651 9.33854 18.4269 12.3167 18.9416 15.4358C18.0314 14.831 17.1174 13.9302 16.5373 13.0017C16.1788 12.4277 15.9899 11.7919 15.8988 11.1247C15.6421 9.24291 16.2824 7.39342 17.5338 5.97737C18.6015 4.76908 20.0147 4.45201 20.418 2.683C20.6382 1.71702 20.4837 0.832591 19.9652 0Z" fill="#5B8C51"/>
<path d="M21.9286 23.0495C22.4965 22.8252 23.0832 22.6473 23.6689 22.4761C23.8687 22.4189 24.069 22.3639 24.2699 22.3114C24.4709 22.2587 24.6724 22.2084 24.8746 22.1603C25.0767 22.1123 25.2794 22.0666 25.4825 22.0232C25.6857 21.9798 25.8893 21.9387 26.0933 21.8999C26.2974 21.8611 26.5019 21.8247 26.7068 21.7906C26.9117 21.7565 27.117 21.7248 27.3226 21.6953C27.5283 21.6659 27.7343 21.6388 27.9405 21.6142C28.1469 21.5894 28.3534 21.567 28.5601 21.547C28.7669 21.527 28.9739 21.5094 29.181 21.4941C29.3882 21.4788 29.5956 21.4659 29.8031 21.4553C30.0105 21.4447 30.2181 21.4366 30.4258 21.4308C30.6334 21.425 30.8411 21.4215 31.0488 21.4204C31.2566 21.4193 31.4643 21.4206 31.672 21.4242C31.8797 21.4279 32.0873 21.4339 32.2949 21.4423C32.5025 21.4507 32.7099 21.4615 32.9173 21.4746C33.1245 21.4877 33.3318 21.5032 33.5387 21.5211C34.0807 21.563 34.6409 21.5856 35.1775 21.6716L35.1393 21.6804C34.8401 21.7473 34.5287 21.7759 34.225 21.8155L32.3901 22.0447C31.8781 22.1126 31.3683 22.2342 30.864 22.3449C29.7922 22.5801 28.7075 22.8353 27.6702 23.195C23.3864 24.6807 19.3406 27.5875 16.8727 31.4269C15.9203 32.9087 15.166 34.5579 14.777 36.2813C14.656 36.8167 14.5949 37.3561 14.5036 37.8955C13.0242 37.444 11.6279 36.6831 10.3686 35.7946C10.1138 35.6149 9.84785 35.4366 9.61052 35.2345C9.97649 34.0833 10.4135 32.9621 11.002 31.9043C11.2204 31.5119 11.4888 31.15 11.7076 30.7591C12.1503 30.1614 12.6076 29.5749 13.0795 28.9998C13.5894 28.4538 14.1048 27.9189 14.6475 27.4051C15.9263 26.1925 17.4564 25.2124 19.0053 24.3863C19.3998 24.1759 19.8181 24.0105 20.2095 23.7957L20.2379 23.7798C20.7565 23.4665 21.369 23.2766 21.9286 23.0495Z" fill="#5B8C51"/>
<path d="M35.0708 21.9928L35.0968 21.9964C35.1454 22.0702 35.1378 22.1827 35.1407 22.2695C35.1452 22.3811 35.1486 22.4927 35.1508 22.6044C35.153 22.7161 35.154 22.8277 35.1537 22.9394C35.1535 23.0511 35.1521 23.1628 35.1494 23.2744C35.1469 23.3861 35.1431 23.4977 35.138 23.6093C35.133 23.7208 35.1268 23.8323 35.1195 23.9438C35.1121 24.0553 35.1035 24.1666 35.0938 24.2779C35.0841 24.3891 35.0731 24.5003 35.0609 24.6113C35.0488 24.7224 35.0355 24.8332 35.021 24.9439C35.0065 25.0547 34.9908 25.1653 34.9739 25.2757C34.9571 25.3861 34.939 25.4963 34.9198 25.6063C34.9006 25.7164 34.8802 25.8261 34.8586 25.9357C34.837 26.0453 34.8144 26.1547 34.7904 26.2637C34.7665 26.3729 34.7414 26.4816 34.7152 26.5902C34.689 26.6988 34.6616 26.8071 34.6331 26.9151C34.6045 27.023 34.5748 27.1307 34.544 27.238C34.5131 27.3454 34.4811 27.4524 34.448 27.559C34.4149 27.6657 34.3807 27.7721 34.3452 27.878C34.3098 27.9839 34.2733 28.0894 34.2356 28.1946C34.198 28.2998 34.1592 28.4045 34.1193 28.5088C34.0795 28.6131 34.0384 28.717 33.9963 28.8205C33.9542 28.9239 33.911 29.0269 33.8666 29.1294C33.8224 29.2319 33.7769 29.334 33.7304 29.4355C33.6839 29.5371 33.6363 29.6381 33.5878 29.7387C33.5391 29.8392 33.4894 29.9392 33.4385 30.0386C33.3878 30.1381 33.3359 30.2371 33.283 30.3354C33.2301 30.4338 33.1762 30.5315 33.1212 30.6288C33.0662 30.726 33.0102 30.8226 32.9531 30.9186C32.8961 31.0146 32.838 31.1101 32.7789 31.2048C32.7198 31.2995 32.6597 31.3937 32.5986 31.4872C32.5375 31.5806 32.4754 31.6735 32.4123 31.7657C32.3492 31.8578 32.2851 31.9493 32.22 32.0401C32.155 32.1309 32.0889 32.2209 32.022 32.3104C31.7267 32.7011 31.4237 33.0923 31.089 33.4504C31.0087 33.537 30.9275 33.6227 30.8453 33.7076C30.7631 33.7925 30.68 33.8765 30.5961 33.9595C30.5121 34.0427 30.4273 34.1248 30.3415 34.206C30.2558 34.2873 30.1692 34.3675 30.0817 34.447C29.9942 34.5264 29.9059 34.6048 29.8167 34.6823C29.7276 34.7598 29.6377 34.8363 29.5469 34.9118C29.456 34.9873 29.3644 35.0619 29.272 35.1355C29.1796 35.2091 29.0864 35.2816 28.9924 35.3532C28.8984 35.4247 28.8037 35.4953 28.7082 35.5648C28.6128 35.6343 28.5165 35.7029 28.4195 35.7703C28.3225 35.8377 28.2249 35.9041 28.1264 35.9695C28.0281 36.0347 27.929 36.099 27.8292 36.1622C27.7294 36.2255 27.6289 36.2876 27.5278 36.3486C27.4267 36.4097 27.3249 36.4696 27.2225 36.5284C27.1201 36.5873 27.017 36.645 26.9133 36.7017C26.8097 36.7583 26.7055 36.8138 26.6006 36.8681C26.4957 36.9226 26.3904 36.9758 26.2843 37.0278C26.1783 37.0799 26.0718 37.131 25.9647 37.1807C25.8576 37.2306 25.7499 37.2792 25.6418 37.3267C25.5336 37.3742 25.425 37.4205 25.3158 37.4657C25.2066 37.5108 25.097 37.5548 24.987 37.5976C24.8768 37.6404 24.7663 37.682 24.6553 37.7224C24.5443 37.7628 24.4329 37.802 24.3211 37.84C24.2093 37.878 24.097 37.9148 23.9844 37.9504C23.8718 37.986 23.7587 38.0204 23.6453 38.0535C23.532 38.0867 23.4182 38.1186 23.3042 38.1494C23.1902 38.1801 23.0758 38.2096 22.9611 38.2377C22.8464 38.266 22.7315 38.293 22.6162 38.3188C22.5008 38.3445 22.3854 38.3691 22.2695 38.3924C22.1537 38.4156 22.0377 38.4376 21.9214 38.4584C21.8051 38.4792 21.6886 38.4987 21.5719 38.517C21.4552 38.5353 21.3383 38.5522 21.2213 38.568C20.571 38.6562 19.9208 38.6879 19.2655 38.7101C19.2266 38.709 19.2503 38.7124 19.1969 38.689C19.1914 38.6722 19.1833 38.6496 19.18 38.6314C19.1262 38.3341 19.2253 37.8071 19.2666 37.4966C19.586 35.0919 20.5012 32.781 21.7828 30.7294C23.9404 27.2752 27.5749 24.3772 31.3933 22.9787C32.5826 22.543 33.8389 22.2794 35.0708 21.9928Z" fill="#5B8C51"/>
<path d="M36.6143 33.4265C35.3339 35.8451 33.4657 38.2335 31.296 39.9227C30.5463 40.5064 29.7484 41.0073 28.9229 41.4755C28.6272 41.6434 28.3273 41.8034 28.0233 41.9555C27.7191 42.1077 27.4113 42.2517 27.0996 42.3878C26.7881 42.5238 26.473 42.6516 26.1547 42.7712C25.8364 42.8906 25.5151 43.0017 25.191 43.1044C25.0374 43.1526 24.8832 43.1989 24.7285 43.2434C24.5738 43.2878 24.4185 43.3303 24.2628 43.3709C24.1069 43.4114 23.9507 43.4501 23.794 43.4868C23.6373 43.5235 23.4801 43.5582 23.3225 43.591C23.1649 43.6238 23.007 43.6547 22.8486 43.6836C22.6902 43.7125 22.5315 43.7394 22.3725 43.7643C22.2135 43.7893 22.0541 43.8123 21.8946 43.8333C21.735 43.8543 21.5752 43.8733 21.415 43.8903C21.255 43.9074 21.0948 43.9224 20.9343 43.9356C20.7738 43.9486 20.6133 43.9597 20.4526 43.9688C20.2918 43.9779 20.131 43.9851 19.9701 43.9902C19.8093 43.9952 19.6484 43.9984 19.4874 43.9995C19.3264 44.0007 19.1655 43.9998 19.0045 43.997C18.8436 43.9941 18.6827 43.9893 18.5219 43.9824C18.3611 43.9756 18.2003 43.9667 18.0397 43.9559C17.8791 43.945 17.7187 43.9322 17.5583 43.9174C17.3981 43.9027 17.238 43.8859 17.0781 43.8671C16.9182 43.8483 16.7586 43.8275 16.5993 43.8049C16.44 43.7821 16.2809 43.7575 16.1221 43.7308C15.9634 43.7041 15.8049 43.6755 15.6469 43.6449C15.4889 43.6143 15.3313 43.5818 15.174 43.5472C15.0168 43.5127 14.86 43.4763 14.7037 43.438C14.5473 43.3996 14.3916 43.3592 14.2362 43.317C14.0808 43.2747 13.9261 43.2306 13.7719 43.1845C13.6176 43.1384 13.4639 43.0904 13.3109 43.0406C13.1579 42.9907 13.0055 42.939 12.8538 42.8853C12.7019 42.8316 12.5508 42.7761 12.4005 42.7187C12.2501 42.6613 12.1004 42.602 11.9515 42.5409C11.8026 42.4798 11.6544 42.4169 11.507 42.3521C11.3597 42.2873 11.2131 42.2207 11.0675 42.1523C10.9218 42.0839 10.7769 42.0137 10.633 41.9417C10.4889 41.8697 10.3459 41.7959 10.2037 41.7204C10.1012 41.6652 9.99923 41.6091 9.8977 41.5521C9.79617 41.4951 9.69518 41.4371 9.59465 41.3782C9.4942 41.3194 9.39431 41.2596 9.29495 41.1989C9.19551 41.1382 9.09669 41.0768 8.99843 41.0143C8.90016 40.9519 8.80244 40.8885 8.70535 40.8243C8.60826 40.7601 8.51172 40.6951 8.41572 40.6291C8.31981 40.5632 8.22444 40.4963 8.12962 40.4286C8.03489 40.3609 7.94079 40.2924 7.84724 40.223C7.75378 40.1537 7.66095 40.0834 7.56867 40.0124C7.47638 39.9414 7.38482 39.8695 7.2939 39.7968C7.20298 39.724 7.11269 39.6506 7.02303 39.5762C6.93338 39.5018 6.84454 39.4266 6.75624 39.3508C6.66804 39.2748 6.58047 39.198 6.49362 39.1205C6.40669 39.043 6.32057 38.9647 6.23509 38.8856C6.14969 38.8065 6.06493 38.7266 5.9809 38.646C5.89686 38.5654 5.81364 38.484 5.73112 38.4018C5.64856 38.3198 5.56676 38.2369 5.48571 38.1533C5.40468 38.0697 5.32441 37.9854 5.24491 37.9003C5.16538 37.8152 5.08663 37.7295 5.00866 37.643C4.93072 37.5565 4.85356 37.4694 4.77716 37.3815C4.70076 37.2936 4.62516 37.205 4.55035 37.1158C4.47557 37.0265 4.40158 36.9367 4.32839 36.8461C4.25523 36.7555 4.18291 36.6643 4.11139 36.5725C4.03986 36.4806 3.96917 36.388 3.89937 36.2949C3.82952 36.2017 3.76051 36.1079 3.69233 36.0135C3.6242 35.9191 3.55691 35.8241 3.49045 35.7285C3.42401 35.6329 3.35845 35.5367 3.29376 35.4399C3.22908 35.3431 3.16526 35.2457 3.10234 35.1477C3.03936 35.0497 2.9773 34.9513 2.91617 34.8522C2.85502 34.7531 2.79476 34.6535 2.73539 34.5532C2.67604 34.4531 2.61759 34.3524 2.56008 34.2511C2.50255 34.15 2.44594 34.0482 2.39023 33.9459C1.85136 32.9771 1.36727 31.9691 1.044 30.9055C0.782145 30.0442 0.524403 29.1741 0.35599 28.289C0.329701 28.1536 0.304844 28.018 0.281474 27.882C0.258059 27.7461 0.236121 27.61 0.215625 27.4736C0.19511 27.3372 0.176073 27.2007 0.158514 27.0639C0.140918 26.9271 0.1248 26.7901 0.110115 26.653C0.0954565 26.5159 0.0822394 26.3786 0.0705 26.2411C0.0587606 26.1038 0.0484807 25.9663 0.0396603 25.8286C0.0308398 25.691 0.0234969 25.5533 0.0176227 25.4155C0.0117575 25.2777 0.00737905 25.1399 0.00444193 25.002C0.00147761 24.8641 0 24.7263 0 24.5883C0 24.4504 0.00147761 24.3125 0.00444193 24.1746C0.00736092 24.0368 0.0117847 23.8989 0.017659 23.7612C0.0235423 23.6234 0.0309032 23.4857 0.0397236 23.348C0.048544 23.2104 0.058806 23.0729 0.0705454 22.9354C0.0822848 22.798 0.0954837 22.6608 0.11016 22.5237C0.124864 22.3865 0.141 22.2496 0.158595 22.1128C0.176155 21.976 0.195192 21.8394 0.215706 21.703C0.236185 21.5667 0.25814 21.4305 0.281556 21.2946C0.304971 21.1587 0.329828 21.023 0.356117 20.8877C0.382433 20.7523 0.410164 20.6172 0.439308 20.4824C0.46848 20.3476 0.499084 20.2132 0.53113 20.079C0.563175 19.9449 0.596635 19.8111 0.631518 19.6777C0.666419 19.5442 0.702734 19.4112 0.740427 19.2785C0.778165 19.1459 0.817318 19.0136 0.857867 18.8818C0.898415 18.75 0.940378 18.6187 0.983718 18.4877C1.02706 18.3568 1.07178 18.2263 1.11788 18.0964C1.16402 17.9664 1.21153 17.837 1.26041 17.708C1.30929 17.5791 1.35955 17.4506 1.41114 17.3227C1.46277 17.1948 1.51575 17.0675 1.5701 16.9408C1.62442 16.814 1.68011 16.6879 1.73715 16.5623C1.79416 16.4368 1.85252 16.3118 1.91221 16.1875C1.97188 16.0631 2.03289 15.9395 2.09522 15.8164C2.15753 15.6934 2.22116 15.571 2.28608 15.4494C2.40045 15.2321 2.51877 15.017 2.64105 14.804C2.76333 14.591 2.8895 14.3803 3.01959 14.1721C3.14961 13.9638 3.28346 13.7579 3.4211 13.5546C3.55873 13.3513 3.70007 13.1505 3.84511 12.9523C3.99015 12.7541 4.13879 12.5587 4.29104 12.366C4.44327 12.1733 4.59902 11.9835 4.75825 11.7966C4.91748 11.6096 5.0801 11.4257 5.2461 11.2448C5.4121 11.0638 5.5814 10.886 5.75398 10.7113C6.1176 10.3474 6.50913 10.006 6.89322 9.66371C7.69458 8.94965 8.5604 8.25923 9.48704 7.71338L9.51052 7.71354L9.47553 7.73657L9.48115 7.74219C8.77787 8.32553 8.05819 8.86879 7.40014 9.50752C7.31665 9.58711 7.2338 9.66743 7.15167 9.74856C7.06954 9.82961 6.98813 9.91147 6.90754 9.99405C6.82686 10.0766 6.747 10.1599 6.66786 10.2439C6.58872 10.3279 6.5103 10.4126 6.43271 10.498C6.35511 10.5835 6.27824 10.6695 6.20218 10.7563C6.12621 10.8432 6.05088 10.9307 5.97646 11.0188C5.90194 11.107 5.82824 11.1958 5.75542 11.2853C5.68253 11.3748 5.61047 11.4649 5.5392 11.5557C5.46798 11.6465 5.39754 11.738 5.32793 11.83C5.25837 11.922 5.1896 12.0148 5.12168 12.1081C5.05376 12.2014 4.98667 12.2953 4.92044 12.3898C4.85421 12.4843 4.78883 12.5794 4.7243 12.6751C4.65978 12.7708 4.59613 12.8671 4.53338 12.964C4.47058 13.0608 4.40868 13.1582 4.34768 13.2562C4.28668 13.3542 4.22655 13.4526 4.1673 13.5517C4.10806 13.6508 4.04969 13.7503 3.99225 13.8504C3.93482 13.9505 3.8783 14.0511 3.82265 14.1522C3.76701 14.2533 3.7123 14.355 3.65849 14.457C3.60472 14.5592 3.55183 14.6617 3.49989 14.7648C3.44794 14.8679 3.39694 14.9714 3.34687 15.0755C3.29678 15.1793 3.24762 15.2838 3.19944 15.3887C3.15126 15.4935 3.104 15.5989 3.05774 15.7046C3.01145 15.8103 2.9661 15.9164 2.92172 16.0229C2.87734 16.1295 2.83393 16.2364 2.79148 16.3437C2.74903 16.4511 2.70757 16.5588 2.66709 16.6668C2.62656 16.7749 2.58703 16.8833 2.54847 16.9921C2.50995 17.1009 2.47239 17.2099 2.43579 17.3195C2.39922 17.4289 2.36364 17.5387 2.32906 17.6488C2.29446 17.7589 2.26086 17.8693 2.22824 17.98C2.19561 18.0907 2.16401 18.2017 2.13344 18.313C2.10283 18.4243 2.07322 18.5358 2.04463 18.6476C2.01604 18.7595 1.98847 18.8715 1.9619 18.9838C1.76349 19.8605 1.65164 20.7897 1.56834 21.683C1.47032 22.7344 1.52041 23.8083 1.64466 24.8552C1.65682 24.9639 1.66995 25.0725 1.6841 25.1809C1.69822 25.2893 1.71334 25.3976 1.72946 25.5059C1.74553 25.614 1.7626 25.7221 1.78069 25.8299C1.79873 25.9378 1.81774 26.0455 1.83776 26.153C1.85777 26.2605 1.87875 26.3679 1.90071 26.475C1.92264 26.5822 1.94554 26.6891 1.96943 26.7958C1.99333 26.9025 2.01818 27.0091 2.04399 27.1154C2.06979 27.2216 2.09657 27.3277 2.12428 27.4335C2.15203 27.5393 2.18071 27.6448 2.21038 27.75C2.24005 27.8553 2.27066 27.9604 2.3022 28.0651C2.33375 28.1698 2.36626 28.2742 2.39968 28.3784C2.43314 28.4825 2.46754 28.5863 2.50286 28.6897C2.53819 28.7933 2.57444 28.8965 2.61163 28.9993C2.64883 29.1022 2.68697 29.2047 2.72602 29.3068C2.76507 29.4091 2.80502 29.5109 2.84593 29.6122C2.88684 29.7137 2.92863 29.8147 2.97136 29.9154C3.01409 30.0161 3.05773 30.1163 3.10227 30.2163C3.14682 30.3161 3.19227 30.4157 3.23866 30.5147C3.285 30.6137 3.33224 30.7124 3.38036 30.8106C3.42847 30.9088 3.47751 31.0065 3.52743 31.1039C3.57731 31.2012 3.62809 31.2981 3.67976 31.3944C3.73144 31.4909 3.78398 31.5868 3.83737 31.6822C3.89075 31.7777 3.94501 31.8726 4.00013 31.9671C4.05526 32.0615 4.11123 32.1555 4.16809 32.2489C4.2249 32.3425 4.28256 32.4354 4.34109 32.5278C4.39957 32.6201 4.45891 32.7121 4.5191 32.8033C4.57928 32.8946 4.64025 32.9855 4.70206 33.0757C4.7639 33.1659 4.82653 33.2555 4.88994 33.3446C4.95339 33.4337 5.01766 33.5222 5.08272 33.6101C5.14776 33.6981 5.21358 33.7854 5.28019 33.8721C5.34681 33.9589 5.41421 34.045 5.48241 34.1305C5.5506 34.2161 5.61956 34.3009 5.68928 34.3851C5.7834 34.4974 5.87882 34.6085 5.97564 34.7185C6.07255 34.8284 6.17063 34.9371 6.27017 35.0447C6.36961 35.1522 6.47042 35.2586 6.57249 35.3636C6.67457 35.4687 6.77791 35.5725 6.88252 35.675C6.98713 35.7775 7.09302 35.8788 7.20008 35.9788C7.30714 36.0788 7.41537 36.1774 7.52488 36.2748C7.63439 36.372 7.74507 36.468 7.85694 36.5627C7.96871 36.6573 8.08176 36.7505 8.1958 36.8423C8.30993 36.9343 8.42515 37.0247 8.54154 37.1138C8.65776 37.2029 8.77515 37.2904 8.89363 37.3766C9.01212 37.4628 9.1316 37.5475 9.25216 37.6308C9.37264 37.7141 9.4942 37.7959 9.61667 37.8761C9.73924 37.9565 9.8627 38.0352 9.98717 38.1126C10.1116 38.1898 10.237 38.2656 10.3633 38.3398C10.4897 38.414 10.6168 38.4867 10.7448 38.5578C10.8729 38.6289 11.0018 38.6984 11.1316 38.7664C11.2614 38.8344 11.392 38.9008 11.5234 38.9656C11.6548 39.0303 11.787 39.0935 11.92 39.1551C12.0529 39.2166 12.1865 39.2765 12.3209 39.3348C12.4553 39.3932 12.5904 39.4498 12.7262 39.5048C12.862 39.5598 12.9984 39.6131 13.1354 39.6648C13.2726 39.7165 13.4103 39.7664 13.5485 39.8147C13.6869 39.863 13.8257 39.9096 13.9652 39.9545C14.1046 39.9995 14.2445 40.0426 14.3851 40.0841C14.5256 40.1256 14.6665 40.1654 14.8079 40.2034C14.9495 40.2415 15.0913 40.2779 15.2337 40.3124C15.3761 40.3469 15.5188 40.3799 15.662 40.4109C15.8051 40.442 15.9487 40.4714 16.0926 40.499C16.2364 40.5265 16.3806 40.5524 16.5251 40.5765C16.6696 40.6005 16.8143 40.6228 16.9595 40.6434C17.1045 40.664 17.2498 40.6827 17.3952 40.6997C17.5407 40.7167 17.6864 40.7319 17.8324 40.7454C22.4431 41.1694 27.2008 39.5947 30.7447 36.6375C31.1495 36.3034 31.5393 35.9527 31.9143 35.5854C32.2892 35.218 32.6478 34.8355 32.9902 34.4377C33.2786 34.1046 33.5335 33.7374 33.8254 33.4101L33.8656 33.4275L33.9105 33.3429L33.9556 33.3729C33.9669 33.4222 33.9857 33.4647 34.0064 33.5108C34.1577 33.5581 34.3202 33.612 34.4791 33.6239C34.922 33.6571 35.5965 33.5078 36.0034 33.332C36.1451 33.2708 36.3956 33.1185 36.5449 33.116C36.5742 33.1155 36.5783 33.1151 36.5931 33.1388C36.6361 33.2075 36.6286 33.3491 36.6143 33.4265Z" fill="url(#paint0_linear_152_120)"/>
<path d="M151.411 29.4762C149.866 29.4762 148.703 29.0387 147.921 28.1638C147.139 27.2703 146.748 25.9673 146.748 24.2547V11.0476C146.748 10.4705 146.897 10.0331 147.195 9.73526C147.493 9.43742 147.921 9.2885 148.48 9.2885C149.038 9.2885 149.466 9.43742 149.764 9.73526C150.08 10.0331 150.239 10.4705 150.239 11.0476V24.0872C150.239 24.9435 150.415 25.5764 150.769 25.9859C151.141 26.3954 151.663 26.6002 152.333 26.6002C152.482 26.6002 152.621 26.6002 152.752 26.6002C152.882 26.5816 153.012 26.563 153.143 26.5443C153.403 26.5071 153.58 26.5816 153.673 26.7677C153.766 26.9352 153.813 27.2889 153.813 27.8288C153.813 28.2941 153.72 28.6571 153.533 28.9177C153.347 29.1783 153.04 29.3365 152.612 29.3924C152.426 29.411 152.23 29.4296 152.026 29.4482C151.821 29.4668 151.616 29.4762 151.411 29.4762Z" fill="#092702"/>
<path d="M136.358 29.4763C135.223 29.4763 134.283 29.2716 133.538 28.8621C132.794 28.4339 132.235 27.801 131.863 26.9634C131.509 26.1257 131.332 25.0833 131.332 23.8361V17.079C131.332 16.4833 131.481 16.0458 131.779 15.7666C132.077 15.4688 132.505 15.3199 133.064 15.3199C133.622 15.3199 134.05 15.4688 134.348 15.7666C134.664 16.0458 134.823 16.4833 134.823 17.079V23.8919C134.823 24.8599 135.018 25.5766 135.409 26.0419C135.8 26.5073 136.424 26.74 137.28 26.74C138.211 26.74 138.974 26.4235 139.569 25.7906C140.165 25.1391 140.463 24.2828 140.463 23.2218V17.079C140.463 16.4833 140.612 16.0458 140.91 15.7666C141.208 15.4688 141.636 15.3199 142.194 15.3199C142.753 15.3199 143.181 15.4688 143.479 15.7666C143.795 16.0458 143.953 16.4833 143.953 17.079V27.6335C143.953 28.8248 143.385 29.4205 142.25 29.4205C141.71 29.4205 141.291 29.2716 140.993 28.9738C140.696 28.6573 140.547 28.2106 140.547 27.6335V25.5114L140.938 26.3491C140.547 27.3543 139.951 28.1268 139.151 28.6666C138.369 29.2064 137.438 29.4763 136.358 29.4763Z" fill="#092702"/>
<path d="M122.393 29.4762C120.978 29.4762 119.749 29.1877 118.707 28.6106C117.665 28.0336 116.855 27.2145 116.278 26.1535C115.701 25.0738 115.412 23.808 115.412 22.3561C115.412 21.2578 115.57 20.2805 115.887 19.4243C116.222 18.5494 116.697 17.8048 117.311 17.1905C117.925 16.5576 118.66 16.0829 119.517 15.7665C120.373 15.4314 121.332 15.2639 122.393 15.2639C123.807 15.2639 125.036 15.5524 126.078 16.1295C127.121 16.7065 127.931 17.5256 128.508 18.5866C129.085 19.6476 129.373 20.9041 129.373 22.3561C129.373 23.4543 129.206 24.4409 128.871 25.3158C128.554 26.1907 128.089 26.9446 127.474 27.5775C126.86 28.1918 126.125 28.6665 125.269 29.0015C124.412 29.318 123.454 29.4762 122.393 29.4762ZM122.393 26.8236C123.081 26.8236 123.686 26.6561 124.208 26.321C124.729 25.9859 125.129 25.4927 125.408 24.8411C125.706 24.171 125.855 23.3427 125.855 22.3561C125.855 20.8669 125.539 19.7593 124.906 19.0334C124.273 18.2888 123.435 17.9165 122.393 17.9165C121.704 17.9165 121.099 18.084 120.578 18.4191C120.057 18.7355 119.647 19.2288 119.349 19.8989C119.07 20.5505 118.93 21.3695 118.93 22.3561C118.93 23.8266 119.247 24.9435 119.88 25.7067C120.513 26.4513 121.35 26.8236 122.393 26.8236Z" fill="#092702"/>
<path d="M106.509 29.4762C105.69 29.4762 104.871 29.4111 104.052 29.2808C103.233 29.1691 102.46 28.9922 101.734 28.7502C101.008 28.4896 100.357 28.1732 99.7798 27.8009C99.4447 27.5775 99.212 27.3076 99.0817 26.9912C98.9514 26.6747 98.9049 26.3676 98.9421 26.0697C98.9979 25.7533 99.1189 25.4834 99.3051 25.26C99.5098 25.018 99.7611 24.8691 100.059 24.8132C100.357 24.7574 100.683 24.8412 101.036 25.0645C101.855 25.5485 102.721 25.9022 103.633 26.1256C104.545 26.349 105.504 26.4606 106.509 26.4606C107.98 26.4606 109.05 26.2186 109.72 25.7347C110.39 25.2321 110.725 24.5899 110.725 23.808C110.725 23.1565 110.483 22.6446 109.999 22.2723C109.534 21.9 108.724 21.5929 107.57 21.3509L104.499 20.7087C102.73 20.3364 101.409 19.7128 100.534 18.8379C99.6774 17.9444 99.2492 16.7717 99.2492 15.3197C99.2492 14.4076 99.4354 13.5793 99.8077 12.8347C100.18 12.0901 100.701 11.4479 101.371 10.9081C102.06 10.3682 102.87 9.9587 103.801 9.67948C104.75 9.38165 105.792 9.23273 106.928 9.23273C108.045 9.23273 109.106 9.37234 110.111 9.65156C111.116 9.93078 112.019 10.3403 112.819 10.8801C113.117 11.0849 113.313 11.3362 113.406 11.634C113.517 11.9319 113.545 12.2297 113.489 12.5275C113.434 12.8068 113.303 13.0487 113.099 13.2535C112.894 13.4583 112.633 13.5793 112.317 13.6165C112.019 13.6537 111.675 13.5606 111.284 13.3373C110.595 12.9464 109.897 12.6671 109.189 12.4996C108.482 12.3321 107.719 12.2483 106.9 12.2483C106.044 12.2483 105.308 12.3693 104.694 12.6113C104.08 12.8533 103.605 13.1977 103.27 13.6444C102.954 14.0726 102.795 14.5845 102.795 15.1801C102.795 15.8503 103.019 16.3901 103.465 16.7996C103.912 17.1905 104.675 17.4977 105.755 17.721L108.799 18.3632C110.641 18.7542 112.01 19.3684 112.903 20.2061C113.815 21.0438 114.271 22.1606 114.271 23.5567C114.271 24.4503 114.085 25.26 113.713 25.986C113.359 26.7119 112.838 27.3355 112.149 27.8567C111.479 28.378 110.669 28.7782 109.72 29.0574C108.771 29.3366 107.7 29.4762 106.509 29.4762Z" fill="#092702"/>
<path d="M94.8408 29.3925C94.2824 29.3925 93.8542 29.2249 93.5564 28.8899C93.2586 28.5548 93.1097 28.0894 93.1097 27.4938V17.2464C93.1097 16.6321 93.2586 16.1667 93.5564 15.8503C93.8542 15.5152 94.2824 15.3477 94.8408 15.3477C95.3993 15.3477 95.8274 15.5152 96.1252 15.8503C96.4417 16.1667 96.5999 16.6321 96.5999 17.2464V27.4938C96.5999 28.0894 96.451 28.5548 96.1532 28.8899C95.8553 29.2249 95.4179 29.3925 94.8408 29.3925ZM94.8408 12.7509C94.1893 12.7509 93.6774 12.5927 93.3051 12.2762C92.9514 11.9412 92.7746 11.4851 92.7746 10.908C92.7746 10.3124 92.9514 9.85632 93.3051 9.53987C93.6774 9.22342 94.1893 9.06519 94.8408 9.06519C95.511 9.06519 96.0229 9.22342 96.3765 9.53987C96.7302 9.85632 96.9071 10.3124 96.9071 10.908C96.9071 11.4851 96.7302 11.9412 96.3765 12.2762C96.0229 12.5927 95.511 12.7509 94.8408 12.7509Z" fill="#092702"/>
<path d="M84.8001 29.4203C84.2231 29.4203 83.7763 29.2714 83.4599 28.9735C83.1621 28.6571 83.0131 28.2103 83.0131 27.6333V17.0787C83.0131 16.5017 83.1621 16.0642 83.4599 15.7664C83.7577 15.4686 84.1766 15.3196 84.7164 15.3196C85.2562 15.3196 85.675 15.4686 85.9729 15.7664C86.2707 16.0642 86.4196 16.5017 86.4196 17.0787V18.8378H86.1404C86.401 17.7209 86.9129 16.874 87.6761 16.2969C88.4393 15.7199 89.4538 15.3755 90.7196 15.2638C91.1105 15.2266 91.4177 15.3289 91.6411 15.5709C91.883 15.7943 92.0227 16.148 92.0599 16.632C92.0971 17.0973 91.9854 17.4789 91.7248 17.7768C91.4828 18.056 91.1105 18.2235 90.6079 18.2794L89.9937 18.3352C88.8582 18.4469 88.0019 18.8006 87.4248 19.3963C86.8478 19.9733 86.5592 20.7924 86.5592 21.8534V27.6333C86.5592 28.2103 86.4103 28.6571 86.1125 28.9735C85.8146 29.2714 85.3772 29.4203 84.8001 29.4203Z" fill="#092702"/>
<path d="M73.3655 34.5022C72.3603 34.5022 71.3831 34.4091 70.4337 34.223C69.503 34.0368 68.656 33.7483 67.8928 33.3574C67.5391 33.1712 67.2971 32.9478 67.1668 32.6872C67.0551 32.4266 67.0179 32.1567 67.0551 31.8775C67.111 31.6169 67.2227 31.3842 67.3902 31.1794C67.5764 30.9747 67.7997 30.8351 68.0603 30.7606C68.3209 30.6862 68.5909 30.7234 68.8701 30.8723C69.6891 31.2818 70.4616 31.5424 71.1876 31.6541C71.9322 31.7844 72.5651 31.8496 73.0863 31.8496C74.3335 31.8496 75.2642 31.5424 75.8785 30.9281C76.5114 30.3325 76.8279 29.439 76.8279 28.2476V25.7346H77.0792C76.7999 26.684 76.2136 27.4472 75.3201 28.0243C74.4452 28.5827 73.4493 28.8619 72.3324 28.8619C71.1038 28.8619 70.0335 28.5827 69.1214 28.0243C68.2093 27.4472 67.5019 26.6468 66.9993 25.623C66.4967 24.5991 66.2454 23.4078 66.2454 22.0489C66.2454 21.0251 66.385 20.1037 66.6642 19.2847C66.9621 18.447 67.3716 17.7303 67.8928 17.1347C68.4326 16.539 69.0748 16.0829 69.8194 15.7665C70.5826 15.4314 71.4203 15.2639 72.3324 15.2639C73.4865 15.2639 74.4917 15.5524 75.348 16.1295C76.2229 16.6879 76.7906 17.4325 77.0512 18.3632L76.772 19.0613V17.0788C76.772 16.5018 76.9209 16.0643 77.2188 15.7665C77.5352 15.4686 77.9634 15.3197 78.5032 15.3197C79.0616 15.3197 79.4898 15.4686 79.7876 15.7665C80.0854 16.0643 80.2344 16.5018 80.2344 17.0788V27.8288C80.2344 30.0439 79.648 31.71 78.4753 32.8268C77.3025 33.9437 75.5993 34.5022 73.3655 34.5022ZM73.2818 26.2093C74.0077 26.2093 74.6313 26.0418 75.1525 25.7067C75.6738 25.3717 76.074 24.897 76.3532 24.2827C76.651 23.6498 76.7999 22.9052 76.7999 22.0489C76.7999 20.7645 76.4835 19.7593 75.8506 19.0334C75.2177 18.2888 74.3614 17.9165 73.2818 17.9165C72.5558 17.9165 71.9322 18.084 71.411 18.4191C70.8898 18.7541 70.4803 19.2288 70.1824 19.8431C69.9032 20.4574 69.7636 21.1927 69.7636 22.0489C69.7636 23.3333 70.08 24.3479 70.7129 25.0924C71.3458 25.837 72.2021 26.2093 73.2818 26.2093Z" fill="#092702"/>
<path d="M47.7258 29.4203C47.2791 29.4203 46.9161 29.3179 46.6369 29.1132C46.3763 28.9084 46.218 28.6385 46.1622 28.3034C46.1063 27.9497 46.1715 27.5588 46.3576 27.1307L53.7291 10.7963C53.9711 10.2565 54.2596 9.87487 54.5946 9.65149C54.9483 9.4095 55.3485 9.2885 55.7953 9.2885C56.2234 9.2885 56.605 9.4095 56.9401 9.65149C57.2938 9.87487 57.5916 10.2565 57.8336 10.7963L65.233 27.1307C65.4377 27.5588 65.5122 27.9497 65.4563 28.3034C65.4005 28.6571 65.2423 28.9363 64.9817 29.1411C64.721 29.3272 64.3767 29.4203 63.9485 29.4203C63.4273 29.4203 63.0178 29.2993 62.72 29.0573C62.4407 28.7967 62.1894 28.4058 61.9661 27.8846L60.1511 23.6684L61.6589 24.6456H49.8758L51.3836 23.6684L49.5966 27.8846C49.3546 28.4244 49.1033 28.8153 48.8427 29.0573C48.5821 29.2993 48.2098 29.4203 47.7258 29.4203ZM55.7395 13.393L51.8304 22.6911L51.1044 21.7976H60.4304L59.7323 22.6911L55.7953 13.393H55.7395Z" fill="#092702"/>
<defs>
<linearGradient id="paint0_linear_152_120" x1="1.2858" y1="31.4874" x2="31.6411" y2="20.0224" gradientUnits="userSpaceOnUse">
<stop stop-color="#1A8E3A"/>
<stop offset="1" stop-color="#4CA633"/>
</linearGradient>
</defs>
</svg>
