<svg width="120" height="126" viewBox="0 0 120 126" fill="none" xmlns="http://www.w3.org/2000/svg">
<path d="M3.65619 20.863L1.70219 17.756L1.04019 17.957L0.950195 17.688L1.9222 17.077L6.0932 18.704C5.8182 18.325 5.55519 17.941 5.30119 17.551C5.04719 17.161 4.7342 16.67 4.3622 16.079L3.65419 16.313L3.5582 16.048L5.0952 15.082L5.1982 15.346L4.7872 15.82L6.95819 19.273L6.59619 19.658L2.31219 17.949C2.59519 18.328 2.86619 18.714 3.12619 19.11C3.38619 19.506 3.70419 20.003 4.08119 20.602L4.7932 20.366L4.88719 20.636L3.34219 21.608L3.2412 21.334L3.65619 20.863Z" fill="#334725"/>
<path d="M13.4928 15.319L13.5828 15.644L11.9588 16.516L11.8738 16.238L12.3138 15.825L11.4388 15.097C10.9738 15.382 10.5098 15.649 10.0468 15.897L9.91476 15.968L10.0618 17.015L10.7928 16.829L10.8668 17.102L9.31076 17.937L9.21777 17.629L9.62976 17.231L9.09277 12.845L9.40977 12.542L12.9668 15.473L13.4928 15.319ZM11.1208 14.827L9.50877 13.484C9.55677 13.629 9.66976 14.305 9.84776 15.511L11.1208 14.827Z" fill="#334725"/>
<path d="M16.6228 13.6667L15.0398 10.2227L14.0198 10.8187L13.9148 11.7797L13.5888 11.8527L13.3418 10.6157L13.7768 10.4487L16.7818 9.06773L17.1718 8.84473L17.8218 9.91772L17.5718 10.1317L16.8238 9.53374L15.6578 9.93173L17.2448 13.3837L18.0248 13.2187L18.0908 13.5167L16.1478 14.4097L16.0818 14.1117L16.6228 13.6667Z" fill="#334725"/>
<path d="M22.291 10.6353C22.482 10.7963 22.7 10.8953 22.946 10.9343C23.191 10.9733 23.44 10.9453 23.692 10.8493C23.829 10.7973 23.946 10.7293 24.042 10.6453C24.138 10.5613 24.213 10.4663 24.266 10.3583C24.334 10.2193 24.367 10.0603 24.362 9.88232C24.358 9.70432 24.318 9.51533 24.241 9.31433L23.341 6.94232L22.617 7.00833L22.573 6.73132L24.207 6.11133L24.254 6.39433L23.813 6.76433L24.719 9.15132C24.837 9.46132 24.874 9.75933 24.832 10.0463C24.79 10.3333 24.664 10.5923 24.454 10.8233C24.244 11.0543 23.954 11.2393 23.585 11.3803C23.211 11.5223 22.872 11.5753 22.569 11.5413C22.266 11.5063 22.008 11.3953 21.795 11.2093C21.582 11.0223 21.417 10.7733 21.298 10.4613L20.384 8.05232L19.751 8.09732L19.707 7.82033L21.567 7.11432L21.614 7.45833L21.035 7.84532L21.857 10.0123C21.955 10.2663 22.1 10.4743 22.291 10.6353Z" fill="#334725"/>
<path d="M28.614 9.00393L27.546 5.49194L26.856 5.50794L26.835 5.22994L28.089 4.84893C28.338 4.77293 28.554 4.71394 28.737 4.67094C28.919 4.62794 29.109 4.60095 29.304 4.58995C29.5 4.57895 29.689 4.59795 29.872 4.64595C30.047 4.69195 30.2 4.77794 30.332 4.90194C30.464 5.02594 30.555 5.17194 30.606 5.34194C30.777 5.90194 30.546 6.37795 29.916 6.76895L31.473 8.10394L32.2 8.11494L32.214 8.39193L30.936 8.78094L30.913 8.52095L29.195 6.93695C29.462 6.74195 29.654 6.56594 29.771 6.40794C29.887 6.24994 29.951 6.10694 29.963 5.97894C29.974 5.85094 29.957 5.70794 29.909 5.55194C29.848 5.35094 29.724 5.20793 29.537 5.12293C29.35 5.03793 29.135 4.99793 28.89 5.00393C28.645 5.01093 28.396 5.04593 28.142 5.11193L29.255 8.76994L30.008 8.73194L30.029 9.05793L28.089 9.64794L28.055 9.36694L28.614 9.00393Z" fill="#334725"/>
<path d="M38.7612 6.44803L38.7632 6.78404L36.9682 7.20503L36.9582 6.91403L37.4902 6.62903L36.8342 5.70004C36.3112 5.85404 35.7942 5.99203 35.2822 6.11203L35.1372 6.14604L35.0072 7.19504L35.7612 7.20503L35.7622 7.48804L34.0432 7.89104L34.0332 7.56903L34.5342 7.29204L35.1532 2.91704L35.5382 2.70703L38.2132 6.46004L38.7612 6.44803ZM36.5972 5.35803L35.3882 3.64203C35.3972 3.79403 35.3312 4.47603 35.1892 5.68803L36.5972 5.35803Z" fill="#334725"/>
<path d="M44.3825 4.63219L44.6595 4.65219L44.5815 5.74818L40.9245 6.36519L40.9295 6.0752L41.5255 5.79019L40.9145 2.17018L40.2305 2.11018L40.2435 1.82619L42.2225 1.49219L42.2145 1.78319L41.5905 2.07318L42.2215 5.8102L44.0295 5.32019L44.3825 4.63219Z" fill="#334725"/>
<path d="M53.0551 4.55588L53.0021 4.85188L50.9741 4.97888L51.0031 4.69788L51.6301 4.47588L51.4011 0.812881L50.7261 0.668884L50.7701 0.39389L52.8011 0.266876L52.7561 0.571884L52.0831 0.790878L52.1831 2.39288L54.4241 2.25288L54.3231 0.647888L53.5851 0.51088L53.6381 0.21489L55.6661 0.0878906L55.6341 0.365891L55.0041 0.590881L55.2331 4.25488L55.9181 4.39789L55.8641 4.67389L53.8321 4.80089L53.8741 4.49988L54.5511 4.27788L54.4471 2.60988C53.6241 2.70188 52.8791 2.77589 52.2121 2.83289L52.3111 4.42189L53.0551 4.55588Z" fill="#334725"/>
<path d="M61.6792 4.12801L62.1292 3.52101L62.4092 3.59201L62.1112 4.649L58.3672 4.58801L58.4282 4.30701L59.0672 4.13101L59.1272 0.460999L58.4622 0.264008L58.5412 0L61.6132 0.0500031L62.0652 0.0140076L62.1672 1.18001L61.8502 1.248L61.5112 0.506012L59.8122 0.313004L59.7822 2.153C60.1262 2.119 60.4762 2.09801 60.8312 2.09001L61.0602 1.53L61.3362 1.604L61.2482 3.099L60.9682 3.03801L60.8172 2.50801C60.6112 2.50501 60.4252 2.49801 60.2582 2.48601C60.0912 2.47501 59.9312 2.454 59.7782 2.425L59.7482 4.28201L61.6792 4.12801Z" fill="#334725"/>
<path d="M69.3754 4.68599L69.2794 5.00899L67.4404 4.88599L67.5164 4.605L68.1084 4.48898L67.7534 3.40799C67.2084 3.40299 66.6734 3.38199 66.1484 3.34799L65.9994 3.338L65.5684 4.30299L66.2864 4.53299L66.2044 4.80399L64.4434 4.68599L64.5284 4.37599L65.0874 4.25699L66.9604 0.253983L67.3894 0.166992L68.8494 4.53799L69.3754 4.68599ZM67.6254 3.01099L66.9724 1.01698C66.9364 1.16498 66.6734 1.79799 66.1834 2.91499L67.6254 3.01099Z" fill="#334725"/>
<path d="M75.2803 4.59119L75.5393 4.69218L75.1443 5.71819L71.4663 5.24019L71.5553 4.96419L72.2093 4.86519L72.6823 1.22519L72.0463 0.968185L72.1423 0.700195L74.1323 0.959183L74.0393 1.23419L73.3573 1.32919L72.8693 5.0882L74.7413 5.14719L75.2803 4.59119Z" fill="#334725"/>
<path d="M79.022 5.89876L79.731 2.17577L78.555 2.06976L77.911 2.79076L77.603 2.66077L78.119 1.50977L78.57 1.62576L81.819 2.24376L82.266 2.28876L82.172 3.54076L81.845 3.56876L81.583 2.64777L80.403 2.29475L79.692 6.02776L80.423 6.34576L80.304 6.62675L78.203 6.22676L78.322 5.94576L79.022 5.89876Z" fill="#334725"/>
<path d="M85.8961 7.62022L85.7521 7.88422L83.7871 7.36623L83.9031 7.10922L84.5681 7.09622L85.5031 3.54622L84.9081 3.19722L85.0361 2.94922L87.0041 3.46822L86.8651 3.74422L86.1571 3.73921L85.7481 5.29121L87.9191 5.86322L88.3291 4.30821L87.6711 3.94621L87.8141 3.68222L89.7791 4.20023L89.6611 4.45322L88.9921 4.46922L88.0561 8.01923L88.6611 8.37122L88.5231 8.61623L86.5551 8.09721L86.6891 7.82422L87.4011 7.82722L87.8271 6.21121C87.0181 6.03921 86.2871 5.87522 85.6351 5.71922L85.2291 7.25822L85.8961 7.62022Z" fill="#334725"/>
<path d="M96.244 6.60027L96.398 6.36426L99.337 7.48027L99.774 7.60027L99.468 8.73627L99.146 8.68427L99.085 7.87326L97.494 7.10927L96.846 8.81427C97.124 8.87527 97.478 8.98126 97.907 9.13226L98.321 8.68227L98.546 8.84926L97.953 10.2203L97.716 10.0743L97.749 9.52626C97.36 9.38326 97.026 9.23226 96.746 9.07426L96.158 10.6243L96.97 11.1273L96.741 11.4013L94.689 10.6223L94.847 10.3773L95.503 10.4313L96.806 6.99927L96.244 6.60027Z" fill="#334725"/>
<path d="M102.084 9.91708C102.413 9.62508 102.786 9.44308 103.204 9.36808C103.621 9.29308 104.054 9.35808 104.5 9.56008C104.836 9.71308 105.109 9.93407 105.319 10.2221C105.529 10.5101 105.649 10.8431 105.679 11.2201C105.709 11.5971 105.633 11.9861 105.451 12.3861C105.254 12.8211 104.988 13.1841 104.653 13.4751C104.319 13.7671 103.945 13.9491 103.532 14.0241C103.118 14.0981 102.699 14.0381 102.274 13.8451C101.921 13.6841 101.637 13.4591 101.424 13.1691C101.211 12.8791 101.091 12.5471 101.062 12.1721C101.033 11.7971 101.111 11.4081 101.295 11.0031C101.492 10.5701 101.755 10.2081 102.084 9.91708ZM102.213 13.0791C102.37 13.2591 102.558 13.3981 102.776 13.4971C102.925 13.5641 103.078 13.6081 103.234 13.6271C103.391 13.6461 103.538 13.6301 103.676 13.5781C103.846 13.5141 104.016 13.3761 104.187 13.1621C104.358 12.9491 104.492 12.7361 104.588 12.5251C104.701 12.2751 104.786 12.0591 104.842 11.8771C104.898 11.6951 104.925 11.5181 104.926 11.3451C104.927 11.1441 104.887 10.9491 104.808 10.7591C104.729 10.5701 104.618 10.4001 104.475 10.2511C104.333 10.1011 104.17 9.98507 103.986 9.90107C103.844 9.83607 103.694 9.79408 103.535 9.77308C103.377 9.75208 103.229 9.76308 103.093 9.80508C102.974 9.84308 102.854 9.92307 102.731 10.0431C102.609 10.1641 102.497 10.2991 102.396 10.4501C102.295 10.6011 102.214 10.7431 102.154 10.8751C102.017 11.1771 101.92 11.4611 101.864 11.7271C101.808 11.9931 101.815 12.2461 101.885 12.4871C101.946 12.7021 102.055 12.8991 102.213 13.0791Z" fill="#334725"/>
<path d="M108.571 12.9931C108.919 12.7251 109.304 12.5671 109.726 12.5211C110.148 12.4751 110.574 12.5691 111.005 12.8011C111.33 12.9761 111.588 13.2151 111.777 13.5171C111.966 13.8191 112.063 14.1591 112.068 14.5371C112.072 14.9151 111.97 15.2971 111.761 15.6841C111.534 16.1041 111.244 16.4491 110.891 16.7161C110.538 16.9841 110.153 17.1411 109.735 17.1871C109.318 17.2331 108.903 17.1451 108.493 16.9231C108.152 16.7391 107.884 16.4951 107.691 16.1911C107.498 15.8881 107.401 15.5481 107.398 15.1721C107.395 14.7961 107.499 14.4131 107.71 14.0211C107.937 13.6041 108.224 13.2611 108.571 12.9931ZM108.485 16.1561C108.63 16.3461 108.807 16.4981 109.018 16.6111C109.162 16.6881 109.311 16.7421 109.466 16.7721C109.621 16.8021 109.769 16.7951 109.91 16.7531C110.083 16.7011 110.263 16.5751 110.448 16.3731C110.633 16.1721 110.781 15.9681 110.892 15.7641C111.022 15.5231 111.121 15.3131 111.189 15.1351C111.257 14.9571 111.297 14.7821 111.309 14.6101C111.323 14.4091 111.297 14.2121 111.231 14.0181C111.165 13.8241 111.066 13.6481 110.933 13.4891C110.801 13.3291 110.647 13.2021 110.469 13.1071C110.331 13.0331 110.185 12.9801 110.028 12.9481C109.872 12.9171 109.724 12.9171 109.585 12.9501C109.464 12.9801 109.338 13.0511 109.208 13.1631C109.077 13.2751 108.957 13.4021 108.846 13.5461C108.735 13.6901 108.645 13.8261 108.576 13.9541C108.418 14.2461 108.302 14.5221 108.229 14.7841C108.155 15.0461 108.145 15.2991 108.198 15.5441C108.244 15.7621 108.34 15.9661 108.485 16.1561Z" fill="#334725"/>
<path d="M113.558 19.1489L115.517 16.0449L115.054 15.534L115.25 15.3359L116.569 16.1679C116.896 16.3739 117.181 16.5869 117.426 16.8069C117.671 17.0269 117.854 17.264 117.976 17.519C118.14 17.866 118.203 18.2139 118.164 18.5629C118.125 18.9119 117.997 19.2569 117.781 19.5999C117.605 19.8779 117.394 20.1179 117.149 20.3179C116.903 20.5179 116.631 20.6509 116.333 20.7159C116.069 20.7719 115.799 20.7649 115.525 20.6979C115.251 20.6309 114.991 20.5329 114.745 20.4039C114.499 20.2749 114.211 20.1059 113.88 19.8969L112.735 19.1749L112.936 18.9689L113.558 19.1489ZM115.378 20.131C115.743 20.196 116.069 20.1579 116.354 20.0179C116.64 19.8779 116.905 19.615 117.149 19.228C117.537 18.613 117.575 18.006 117.265 17.407C117.177 17.236 117.036 17.0489 116.843 16.8469C116.65 16.6449 116.433 16.4469 116.19 16.2549L114.042 19.6599C114.568 19.9089 115.013 20.066 115.378 20.131Z" fill="#334725"/>
<path d="M35.4883 101.746V81.8418H45.4783C49.5333 81.8418 51.5613 83.3868 51.5613 86.4768C51.5613 88.7408 50.2393 90.3608 47.5953 91.3348C50.4183 91.8268 51.8303 93.3348 51.8303 95.8588C51.8303 99.7838 49.6083 101.746 45.1653 101.746H35.4883ZM45.0003 98.5438C46.7503 98.5438 47.6243 97.7088 47.6243 96.0388C47.6243 93.9698 46.3163 92.9348 43.7033 92.9348H42.5103V90.5548C45.7903 90.0448 47.4303 88.7638 47.4303 86.7128C47.4303 85.5998 46.6943 85.0418 45.2243 85.0418H39.4393V98.5438H45.0003Z" fill="#518F28"/>
<path d="M59.1341 81.8418V101.746H55.1831V81.8418H59.1341Z" fill="#518F28"/>
<path d="M62.8623 91.8211C62.8623 85.0751 66.4303 81.7021 73.5673 81.7021C80.5943 81.7021 84.1083 85.0761 84.1083 91.8211C84.1083 98.5301 80.5943 101.884 73.5673 101.884C66.7483 101.885 63.1803 98.5311 62.8623 91.8211ZM73.5673 98.6841C77.8613 98.6841 80.0083 96.3691 80.0083 91.7381C80.0083 87.1821 77.8613 84.9041 73.5673 84.9041C69.1643 84.9041 66.9623 87.1821 66.9623 91.7381C66.9623 96.3681 69.1633 98.6841 73.5673 98.6841Z" fill="#518F28"/>
<path d="M36.3463 108.494V103.969L35.5233 103.74L35.5973 103.405H37.2613C37.5793 103.405 37.8553 103.413 38.0873 103.428C38.3193 103.442 38.5533 103.482 38.7903 103.544C39.0263 103.607 39.2353 103.702 39.4163 103.83C39.5973 103.961 39.7393 104.13 39.8433 104.339C39.9473 104.547 39.9983 104.793 39.9983 105.077C39.9983 105.333 39.9413 105.564 39.8273 105.77C39.7133 105.976 39.5553 106.15 39.3543 106.291C39.1473 106.438 38.8953 106.546 38.6013 106.616C38.3063 106.685 38.0183 106.72 37.7343 106.72L37.7863 106.45C38.1363 106.311 38.3993 106.188 38.5743 106.08C38.7493 105.973 38.8783 105.839 38.9623 105.682C39.0453 105.524 39.0873 105.313 39.0873 105.049C39.0873 104.586 38.9123 104.253 38.5643 104.052C38.2153 103.85 37.7573 103.745 37.1913 103.737V108.499L38.2163 108.724L38.1413 109.063H35.4883L35.5673 108.715L36.3463 108.494Z" fill="#334725"/>
<path d="M41.9193 108.494V103.969L41.1003 103.74L41.1753 103.405H42.7903C43.1113 103.405 43.3873 103.413 43.6183 103.428C43.8483 103.442 44.0813 103.479 44.3163 103.536C44.5513 103.593 44.7683 103.683 44.9663 103.806C45.1563 103.923 45.3063 104.078 45.4173 104.272C45.5283 104.465 45.5833 104.672 45.5833 104.889C45.5833 105.611 45.1413 106.09 44.2563 106.324L45.6133 108.457L46.4673 108.731L46.3843 109.062H44.7383L44.8043 108.747L43.3463 106.261C43.7313 106.128 44.0213 105.989 44.2153 105.844C44.4093 105.7 44.5363 105.554 44.5963 105.407C44.6563 105.259 44.6863 105.085 44.6863 104.883C44.6863 104.624 44.5913 104.411 44.4013 104.244C44.2113 104.076 43.9713 103.952 43.6813 103.872C43.3913 103.791 43.0833 103.744 42.7603 103.731V108.444L43.6623 108.669L43.5703 109.061H41.0693L41.1303 108.717L41.9193 108.494Z" fill="#334725"/>
<path d="M47.6913 104.896C47.9123 104.402 48.2373 104.006 48.6683 103.709C49.0983 103.412 49.6153 103.264 50.2203 103.264C50.6763 103.264 51.0943 103.372 51.4773 103.589C51.8603 103.805 52.1633 104.118 52.3903 104.525C52.6163 104.932 52.7293 105.407 52.7293 105.95C52.7293 106.539 52.6163 107.081 52.3903 107.579C52.1633 108.076 51.8373 108.472 51.4113 108.766C50.9853 109.06 50.4843 109.207 49.9093 109.207C49.4303 109.207 48.9983 109.099 48.6113 108.882C48.2243 108.666 47.9193 108.354 47.6963 107.948C47.4723 107.542 47.3613 107.065 47.3613 106.518C47.3613 105.93 47.4713 105.39 47.6913 104.896ZM49.4493 108.379C49.7183 108.5 49.9993 108.561 50.2943 108.561C50.4963 108.561 50.6893 108.531 50.8743 108.473C51.0603 108.414 51.2163 108.321 51.3453 108.193C51.5033 108.035 51.6233 107.793 51.7063 107.466C51.7903 107.139 51.8313 106.832 51.8313 106.546C51.8313 106.208 51.8153 105.923 51.7853 105.69C51.7543 105.457 51.6953 105.244 51.6083 105.051C51.5063 104.824 51.3623 104.625 51.1763 104.454C50.9913 104.282 50.7803 104.148 50.5443 104.053C50.3073 103.958 50.0653 103.91 49.8173 103.91C49.6243 103.91 49.4343 103.939 49.2453 103.996C49.0573 104.053 48.8973 104.141 48.7663 104.258C48.6523 104.362 48.5583 104.512 48.4823 104.709C48.4063 104.907 48.3503 105.116 48.3133 105.336C48.2763 105.557 48.2583 105.757 48.2583 105.937C48.2583 106.346 48.2953 106.714 48.3683 107.041C48.4413 107.368 48.5783 107.648 48.7803 107.883C48.9583 108.092 49.1813 108.257 49.4493 108.379Z" fill="#334725"/>
<path d="M54.8043 108.494V103.969L53.9863 103.74L54.0603 103.405H55.9833C56.4593 103.405 56.8973 103.439 57.2963 103.508C57.6963 103.576 58.0433 103.703 58.3383 103.888C58.7383 104.141 59.0323 104.463 59.2203 104.852C59.4093 105.242 59.5033 105.686 59.5033 106.185C59.5033 106.591 59.4413 106.979 59.3173 107.35C59.1933 107.721 58.9973 108.038 58.7283 108.302C58.4893 108.534 58.2043 108.705 57.8743 108.815C57.5443 108.925 57.2093 108.994 56.8673 109.021C56.5263 109.048 56.1143 109.062 55.6333 109.062H53.9653L54.0393 108.714L54.8043 108.494ZM57.3473 108.32C57.7713 108.147 58.0853 107.893 58.2913 107.559C58.4973 107.226 58.6003 106.777 58.6003 106.213C58.6003 105.316 58.2413 104.658 57.5233 104.239C57.3193 104.119 57.0493 104.017 56.7153 103.932C56.3803 103.848 56.0243 103.785 55.6443 103.744V108.706C56.3573 108.622 56.9243 108.493 57.3473 108.32Z" fill="#334725"/>
<path d="M62.4732 107.781C62.6242 108.049 62.8322 108.26 63.0972 108.413C63.3632 108.565 63.6622 108.641 63.9952 108.641C64.1762 108.641 64.3402 108.614 64.4872 108.56C64.6352 108.505 64.7622 108.428 64.8702 108.327C65.0102 108.196 65.1172 108.028 65.1892 107.82C65.2622 107.613 65.2992 107.377 65.2992 107.113V103.986L64.4372 103.745L64.5072 103.406H66.6612L66.5912 103.754L65.9212 103.987V107.135C65.9212 107.544 65.8342 107.904 65.6612 108.216C65.4872 108.528 65.2292 108.771 64.8862 108.945C64.5432 109.12 64.1282 109.206 63.6402 109.206C63.1472 109.206 62.7332 109.12 62.3992 108.947C62.0642 108.774 61.8162 108.534 61.6522 108.226C61.4892 107.918 61.4072 107.558 61.4072 107.147V103.971L60.6582 103.746L60.7282 103.407H63.1802L63.0842 103.824L62.2472 104.016V106.873C62.2472 107.209 62.3232 107.512 62.4732 107.781Z" fill="#334725"/>
<path d="M69.1411 108.879C68.7451 108.661 68.4381 108.349 68.2191 107.943C68.0001 107.537 67.8901 107.058 67.8901 106.508C67.8901 105.922 67.9931 105.386 68.1971 104.9C68.4011 104.414 68.6981 104.03 69.0861 103.749C69.3221 103.58 69.5761 103.457 69.8481 103.379C70.1191 103.301 70.4231 103.263 70.7591 103.263C70.9051 103.263 71.0541 103.273 71.2061 103.291C71.3581 103.31 71.5281 103.337 71.7181 103.373L72.2791 103.299L72.4451 104.795L72.0251 104.889L71.6131 104.039C71.4231 103.963 71.2441 103.907 71.0771 103.871C70.9091 103.836 70.7111 103.818 70.4831 103.818C70.2701 103.818 70.0661 103.849 69.8721 103.91C69.6781 103.972 69.5251 104.047 69.4141 104.137C69.2211 104.298 69.0641 104.552 68.9431 104.897C68.8221 105.243 68.7611 105.671 68.7611 106.18C68.7611 106.491 68.8071 106.797 68.8991 107.098C68.9911 107.399 69.1211 107.653 69.2911 107.86C69.4841 108.094 69.7041 108.267 69.9521 108.379C70.2001 108.491 70.4631 108.547 70.7401 108.547C70.8801 108.547 71.0681 108.517 71.3051 108.455C71.5421 108.394 71.7721 108.325 71.9971 108.248C72.2221 108.172 72.3781 108.113 72.4651 108.073L72.6621 108.355C72.3291 108.652 72.0001 108.868 71.6751 109.003C71.3491 109.137 70.9641 109.205 70.5171 109.205C69.9951 109.206 69.5361 109.097 69.1411 108.879Z" fill="#334725"/>
<path d="M75.9342 108.473V103.801L74.4852 103.944L73.8722 104.966L73.4692 104.88L73.8282 103.367L74.4022 103.404H78.4792L79.0302 103.355L79.2052 104.892L78.8152 105.002L78.2852 103.947L76.7752 103.792V108.476L77.7342 108.693L77.6552 109.061H75.0202L75.0982 108.693L75.9342 108.473Z" fill="#334725"/>
<path d="M82.8112 103.77C82.5632 103.77 82.3322 103.792 82.1192 103.835C81.9062 103.879 81.7302 103.934 81.5892 104.001C81.4492 104.068 81.3592 104.137 81.3182 104.208C81.2852 104.26 81.2612 104.33 81.2462 104.418C81.2302 104.507 81.2222 104.593 81.2222 104.678C81.2222 104.888 81.2722 105.056 81.3732 105.182C81.4742 105.309 81.6102 105.412 81.7842 105.493C81.9582 105.573 82.2262 105.677 82.5882 105.805C82.9122 105.92 83.1802 106.037 83.3912 106.157C83.6032 106.277 83.7752 106.436 83.9072 106.633C84.0402 106.831 84.1072 107.078 84.1072 107.375C84.1072 107.737 84.0142 108.058 83.8272 108.336C83.6402 108.614 83.3802 108.828 83.0472 108.98C82.7142 109.131 82.3352 109.207 81.9092 109.207C81.5642 109.207 81.2372 109.161 80.9282 109.068C80.6192 108.975 80.3622 108.862 80.1572 108.729L80.4852 107.408L80.9452 107.523L81.0372 108.61C81.1512 108.618 81.2742 108.623 81.4092 108.623C81.7622 108.623 82.1002 108.588 82.4232 108.519C82.7452 108.449 82.9582 108.347 83.0602 108.21C83.1042 108.15 83.1392 108.066 83.1652 107.957C83.1912 107.848 83.2042 107.735 83.2042 107.618C83.2042 107.392 83.1522 107.209 83.0462 107.068C82.9412 106.928 82.8092 106.817 82.6502 106.737C82.4912 106.657 82.2642 106.563 81.9692 106.457C81.6452 106.342 81.3742 106.223 81.1552 106.097C80.9362 105.972 80.7572 105.805 80.6162 105.596C80.4762 105.388 80.4062 105.125 80.4062 104.81C80.4062 104.505 80.5012 104.235 80.6902 104.001C80.8802 103.767 81.1342 103.585 81.4522 103.457C81.7702 103.329 82.1162 103.265 82.4902 103.265C82.6392 103.265 82.7962 103.279 82.9612 103.306C83.1262 103.333 83.2562 103.359 83.3532 103.384L83.8132 103.367L83.9662 104.794L83.5592 104.896L83.0172 103.776C82.9742 103.771 82.9052 103.77 82.8112 103.77Z" fill="#334725"/>
<path d="M59.87 6.09668C38.86 6.09668 17.85 13.4587 0 26.4277L10.248 83.7617C13.508 100.909 25.182 115.431 41.453 121.747C47.209 123.981 53.432 125.19 59.869 125.19C66.304 125.19 72.526 123.981 78.28 121.749C94.554 115.435 106.23 100.911 109.49 83.7627L119.738 26.4277C101.89 13.4587 80.88 6.09668 59.87 6.09668ZM106.987 83.3007C105.456 91.3427 101.931 98.9177 96.794 105.208C91.611 111.554 84.89 116.453 77.36 119.375C71.77 121.544 65.885 122.644 59.869 122.644C53.852 122.644 47.966 121.544 42.374 119.373C34.844 116.451 28.125 111.552 22.943 105.205C17.807 98.9147 14.282 91.3407 12.751 83.2987L2.78799 27.5597C11.173 21.6467 20.178 17.0227 29.574 13.8047C39.583 10.3777 49.776 8.63968 59.87 8.63968C69.963 8.63968 80.156 10.3777 90.165 13.8047C99.561 17.0217 108.565 21.6467 116.951 27.5597L106.987 83.3007Z" fill="#518F28"/>
<path d="M5.1084 28.5527L14.4824 82.1998C17.4644 97.8838 28.1424 111.167 43.0254 116.944C48.2904 118.988 53.9824 120.094 59.8704 120.094C65.7564 120.094 71.4474 118.989 76.7114 116.946C91.5964 111.17 102.276 97.8857 105.258 82.2007L114.632 28.5537C98.3054 16.6917 79.0884 10.7607 59.8704 10.7607C40.6524 10.7587 21.4354 16.6897 5.1084 28.5527ZM113.254 29.1137L104.516 79.1217L83.9664 79.7437L104.3 80.3587L104.02 81.9637C102.587 89.4987 99.2864 96.5967 94.4724 102.491C89.6144 108.439 83.3154 113.03 76.2554 115.77C71.0184 117.802 65.5054 118.832 59.8704 118.832C54.2334 118.832 48.7194 117.801 43.4814 115.768C36.4224 113.028 30.1244 108.436 25.2674 102.489C20.4544 96.5948 17.1534 89.4977 15.7244 81.9818L15.4394 80.3497L35.4894 79.7428L15.2264 79.1297L6.48639 29.1127C14.2384 23.5797 22.7484 19.3068 31.7904 16.4068C40.8704 13.4948 50.3174 12.0188 59.8704 12.0188C69.4234 12.0188 78.8704 13.4948 87.9504 16.4068C96.9924 19.3078 105.502 23.5807 113.254 29.1137Z" fill="#D1923B"/>
<path d="M46.54 65.1424C47.716 66.1524 49.094 67.4114 50.374 68.7574C49.952 68.1674 49.583 67.5834 49.283 67.0174C48.873 66.2444 48.463 65.3474 48.062 64.3504C47.94 64.1024 47.876 63.9564 47.876 63.9564C47.84 63.8744 47.817 63.7874 47.806 63.6994C47.384 62.5894 46.977 61.3624 46.606 60.0564C46.38 62.0704 46.017 63.3754 46.017 63.3754C45.646 63.6634 45.271 63.9374 44.89 64.1964C34.855 71.0374 21.564 68.0404 18.844 56.4504C16.764 47.5884 14.041 40.9734 14.041 40.9734C19.597 41.5984 26.208 38.5054 32.821 39.3224C32.681 42.3614 33.319 45.4904 34.744 48.5324C35.546 50.2434 36.573 51.8464 37.775 53.3054C37.82 53.5604 37.864 53.8154 37.913 54.0684C38.05 54.8064 38.217 55.5384 38.388 56.2684C38.476 56.6404 38.566 57.0114 38.659 57.3814C38.303 57.1364 37.94 56.8874 37.56 56.6454C37.112 56.3474 36.646 56.0574 36.162 55.7754C35.922 55.6324 35.679 55.4884 35.435 55.3424C35.187 55.2034 34.937 55.0644 34.685 54.9234C34.652 54.9054 34.619 54.8874 34.587 54.8684C34.405 54.3254 34.234 53.7684 34.074 53.2134C33.896 52.5904 33.738 51.9624 33.58 51.3354C33.432 50.7064 33.29 50.0754 33.185 49.4404C33.129 49.1234 33.087 48.8054 33.04 48.4884C33.005 48.1714 32.963 47.8524 32.951 47.5354C32.923 47.2114 32.936 46.9154 32.936 46.5754C32.943 46.2494 32.944 45.9234 32.915 45.5764C32.908 45.4044 32.889 45.2374 32.867 45.0714C32.845 44.9054 32.83 44.7384 32.798 44.5744C32.745 44.2444 32.677 43.9184 32.597 43.5964C32.431 42.9534 32.232 42.3214 31.985 41.7094C31.743 41.0964 31.463 40.4994 31.138 39.9294C31.387 40.5364 31.59 41.1574 31.77 41.7824C31.945 42.4094 32.097 43.0404 32.201 43.6774C32.249 43.9964 32.296 44.3144 32.325 44.6344C32.346 44.7934 32.349 44.9544 32.359 45.1134C32.37 45.2734 32.377 45.4324 32.372 45.5884C32.38 45.8954 32.351 46.2234 32.332 46.5514C32.315 46.8664 32.283 47.2234 32.295 47.5534C32.29 47.8914 32.317 48.2244 32.336 48.5584C32.365 48.8904 32.396 49.2234 32.445 49.5524C32.533 50.2124 32.657 50.8634 32.789 51.5124C32.861 51.8354 32.926 52.1604 33.011 52.4794C33.089 52.8004 33.175 53.1194 33.261 53.4384C33.34 53.7234 33.421 54.0054 33.504 54.2874C33.38 54.2254 33.257 54.1634 33.133 54.1014C32.868 53.9714 32.6 53.8334 32.334 53.7074C32.068 53.5864 31.801 53.4654 31.533 53.3444L30.72 52.9764C30.459 52.8564 30.194 52.7454 29.937 52.6164C29.727 52.5184 29.519 52.4164 29.311 52.3134C29.261 52.0194 29.213 51.7244 29.168 51.4314L28.947 49.8534C28.88 49.3274 28.815 48.8004 28.771 48.2734C28.729 47.7464 28.677 47.2194 28.662 46.6944L28.634 45.8894C28.63 45.6234 28.602 45.3464 28.582 45.0734C28.565 44.7994 28.526 44.5294 28.499 44.2584C28.463 43.9884 28.428 43.7174 28.377 43.4494C28.327 43.1814 28.273 42.9134 28.208 42.6484C28.145 42.3834 28.075 42.1194 27.986 41.8614C27.903 41.6014 27.805 41.3464 27.697 41.0974C27.58 40.8514 27.459 40.6064 27.298 40.3884C27.416 40.6304 27.489 40.8894 27.558 41.1464C27.621 41.4054 27.682 41.6634 27.722 41.9264C27.766 42.1874 27.801 42.4514 27.831 42.7144C27.862 42.9774 27.88 43.2424 27.896 43.5064C27.924 44.0354 27.943 44.5664 27.932 45.0934C27.927 45.3574 27.922 45.6164 27.91 45.8874L27.88 46.6924C27.859 47.2404 27.855 47.7864 27.881 48.3304C27.902 48.8754 27.942 49.4164 27.987 49.9574C28.03 50.4984 28.1 51.0364 28.171 51.5744C28.178 51.6274 28.187 51.6804 28.194 51.7334C27.755 51.4954 27.322 51.2484 26.898 50.9934C26.268 50.6084 25.648 50.2204 25.046 49.8244C24.981 49.4914 24.921 49.1504 24.868 48.8124C24.809 48.4194 24.752 48.0254 24.702 47.6324C24.653 47.2394 24.616 46.8454 24.596 46.4544C24.58 46.2584 24.577 46.0644 24.574 45.8704C24.573 45.6764 24.581 45.4854 24.599 45.2974C24.62 45.0864 24.64 44.8954 24.646 44.6764C24.658 44.4634 24.656 44.2614 24.656 44.0544C24.655 43.6434 24.633 43.2354 24.6 42.8284C24.537 42.0154 24.431 41.2094 24.282 40.4114C24.278 41.2224 24.265 42.0314 24.234 42.8354C24.213 43.2374 24.194 43.6374 24.158 44.0344C24.139 44.2314 24.121 44.4334 24.091 44.6214C24.068 44.8064 24.026 45.0144 23.995 45.2044C23.836 46.0544 23.854 46.8854 23.909 47.7074C23.933 48.1194 23.976 48.5274 24.034 48.9334C24.045 49.0104 24.057 49.0874 24.068 49.1644C23.178 48.5374 22.325 47.9164 21.53 47.3054C21.369 47.1804 21.212 47.0564 21.055 46.9334C21.095 46.7754 21.132 46.6184 21.162 46.4574C21.209 46.1964 21.25 45.9354 21.277 45.6714C21.307 45.4084 21.32 45.1424 21.317 44.8754C21.317 44.6094 21.304 44.3414 21.266 44.0764C21.222 43.8074 21.176 43.5594 21.143 43.3094C21.107 43.0584 21.072 42.8054 21.048 42.5514C20.999 42.0434 20.961 41.5304 20.955 41.0144C20.86 41.5224 20.811 42.0404 20.795 42.5594C20.787 42.8194 20.785 43.0794 20.793 43.3404C20.801 43.6024 20.827 43.8634 20.825 44.1074C20.818 44.3554 20.815 44.6014 20.785 44.8494C20.76 45.0964 20.72 45.3424 20.68 45.5884C20.639 45.8344 20.584 46.0784 20.525 46.3204C20.511 46.3734 20.498 46.4274 20.484 46.4814C20.076 46.1564 19.684 45.8394 19.313 45.5344C17.959 44.4084 16.854 43.4344 16.087 42.7424C15.321 42.0494 14.89 41.6424 14.89 41.6424C14.89 41.6424 15.229 42.1294 15.887 42.9334C16.544 43.7364 17.514 44.8624 18.776 46.1244C19.102 46.4524 19.447 46.7914 19.81 47.1354C19.77 47.1524 19.731 47.1704 19.691 47.1864C19.414 47.2924 19.141 47.4154 18.861 47.5154C18.723 47.5724 18.583 47.6254 18.442 47.6744C18.301 47.7244 18.16 47.7794 18.017 47.8274C17.873 47.8744 17.731 47.9294 17.586 47.9724C17.443 48.0254 17.289 48.0644 17.141 48.1194C17.297 48.1474 17.45 48.1764 17.609 48.1834C17.768 48.1924 17.927 48.1954 18.085 48.1884C18.242 48.1784 18.401 48.1704 18.557 48.1484C18.713 48.1264 18.869 48.1004 19.024 48.0704C19.178 48.0364 19.33 47.9974 19.482 47.9554C19.635 47.9164 19.784 47.8674 19.932 47.8134C20.076 47.7604 20.22 47.7064 20.363 47.6484C20.529 47.8004 20.699 47.9524 20.872 48.1054C21.549 48.7074 22.277 49.3224 23.055 49.9234C23.014 49.9324 22.972 49.9394 22.931 49.9494C22.656 50.0124 22.384 50.0894 22.112 50.1684C21.841 50.2474 21.57 50.3344 21.299 50.4304L20.531 50.7374C20.276 50.8354 20.024 50.9424 19.766 51.0354C19.508 51.1284 19.251 51.2304 18.989 51.3174C18.728 51.4104 18.465 51.5014 18.197 51.5874C18.479 51.6074 18.761 51.6004 19.043 51.5834C19.323 51.5594 19.605 51.5354 19.883 51.4884C20.161 51.4414 20.441 51.3974 20.715 51.3284C20.994 51.2624 21.259 51.1914 21.525 51.1204C21.782 51.0534 22.043 50.9854 22.309 50.9274C22.573 50.8664 22.841 50.8194 23.106 50.7644C23.372 50.7104 23.639 50.6624 23.907 50.6174C23.926 50.6144 23.945 50.6114 23.963 50.6084C24.675 51.1344 25.418 51.6544 26.203 52.1354C26.663 52.4204 27.135 52.6984 27.614 52.9664L27.546 52.9874L26.31 53.3484C25.485 53.5874 24.659 53.8314 23.829 54.0564L22.592 54.4114C22.389 54.4724 22.183 54.5184 21.979 54.5764C21.774 54.6304 21.568 54.6774 21.361 54.7214C20.947 54.8054 20.53 54.8834 20.108 54.9194C19.897 54.9404 19.685 54.9554 19.472 54.9524C19.259 54.9504 19.043 54.9454 18.832 54.8914C19.216 55.1084 19.665 55.1974 20.103 55.2544C20.324 55.2794 20.546 55.2924 20.768 55.3004C20.991 55.3094 21.212 55.3034 21.434 55.2924C21.876 55.2664 22.32 55.2294 22.755 55.1514C22.975 55.1174 23.193 55.0774 23.401 55.0334L24.038 54.9054C24.886 54.7164 25.732 54.5264 26.574 54.3084L27.832 53.9634C28.189 53.8604 28.543 53.7584 28.902 53.6434C29.052 53.7174 29.201 53.7944 29.353 53.8664C29.625 53.9974 29.907 54.1104 30.183 54.2334L30.984 54.5834C31.253 54.7014 31.522 54.8184 31.79 54.9354C31.926 54.9974 32.06 55.0614 32.192 55.1254C31.627 55.2424 31.062 55.3664 30.503 55.5124C29.899 55.6764 29.296 55.8504 28.702 56.0554C28.403 56.1514 28.11 56.2674 27.814 56.3744C27.524 56.4974 27.216 56.6154 26.942 56.7504L26.517 56.9504L26.11 57.1354C25.837 57.2564 25.554 57.3554 25.27 57.4534L24.839 57.5894L24.4 57.7014C24.107 57.7744 23.808 57.8314 23.508 57.8814C23.208 57.9354 22.905 57.9734 22.601 58.0074C22.296 58.0364 21.991 58.0574 21.684 58.0734C21.07 58.1004 20.452 58.1004 19.834 58.0524C20.438 58.1934 21.058 58.2764 21.681 58.3174C21.993 58.3414 22.305 58.3444 22.619 58.3474C22.932 58.3434 23.246 58.3344 23.56 58.3104C23.873 58.2844 24.187 58.2484 24.499 58.1964L24.967 58.1144L25.431 58.0074C25.587 57.9764 25.738 57.9224 25.891 57.8764C26.043 57.8274 26.197 57.7864 26.345 57.7234L27.218 57.3774C27.507 57.2544 27.785 57.1694 28.069 57.0644C28.358 56.9704 28.644 56.8684 28.937 56.7854C29.518 56.6064 30.111 56.4574 30.705 56.3174C31.298 56.1724 31.897 56.0464 32.497 55.9314C32.83 55.8674 33.166 55.8104 33.501 55.7564C33.698 55.8554 33.895 55.9544 34.09 56.0534C34.341 56.1804 34.591 56.3064 34.838 56.4324C35.082 56.5644 35.325 56.6964 35.566 56.8264C36.05 57.0824 36.516 57.3524 36.977 57.6094C37.322 57.7974 37.654 57.9924 37.981 58.1854L34.981 59.0224L30.67 60.2544C30.308 60.3624 29.958 60.4504 29.603 60.5454C29.244 60.6264 28.886 60.7114 28.524 60.7824C27.801 60.9344 27.068 61.0514 26.332 61.1474C25.964 61.2024 25.595 61.2444 25.225 61.2884L24.112 61.4004C23.369 61.4664 22.623 61.5244 21.874 61.5604C22.62 61.6354 23.371 61.6754 24.122 61.6904C24.874 61.7074 25.626 61.6904 26.379 61.6584C27.132 61.6194 27.885 61.5554 28.637 61.4574C29.014 61.4164 29.387 61.3424 29.763 61.2814C30.135 61.2034 30.515 61.1284 30.875 61.0424C32.338 60.7154 33.786 60.3364 35.24 59.9754L37.41 59.3994C38.006 59.2384 38.603 59.0794 39.2 58.9154C39.738 59.2434 40.255 59.5624 40.74 59.8714C41.459 60.3304 42.115 60.7604 42.698 61.1494C42.261 61.2234 41.827 61.3034 41.393 61.3894C41.027 61.4614 40.662 61.5414 40.298 61.6234C39.933 61.7044 39.571 61.7954 39.21 61.8924C38.488 62.0884 37.769 62.2944 37.06 62.5384C36.704 62.6534 36.352 62.7874 36.001 62.9214C35.655 63.0694 35.287 63.2084 34.961 63.3694L34.453 63.6074L33.967 63.8284C33.807 63.9074 33.637 63.9634 33.47 64.0264C33.302 64.0874 33.138 64.1614 32.964 64.2094L32.449 64.3704L31.924 64.5044C31.573 64.5914 31.216 64.6574 30.858 64.7184C30.5 64.7814 30.138 64.8264 29.775 64.8674C29.411 64.9004 29.046 64.9274 28.68 64.9454C27.947 64.9764 27.21 64.9754 26.472 64.9154C27.194 65.0814 27.933 65.1794 28.677 65.2274C29.049 65.2544 29.422 65.2604 29.796 65.2624C30.17 65.2564 30.544 65.2454 30.919 65.2154C31.107 65.2074 31.293 65.1804 31.48 65.1584C31.667 65.1354 31.854 65.1154 32.039 65.0794L32.597 64.9804L33.151 64.8514C33.518 64.7584 33.885 64.6494 34.241 64.5144L34.776 64.3054L35.283 64.1004C35.628 63.9534 35.959 63.8514 36.299 63.7264C36.646 63.6194 36.986 63.4944 37.337 63.3954C38.031 63.1814 38.739 63.0024 39.448 62.8344C40.159 62.6714 40.872 62.5144 41.589 62.3784C42.304 62.2434 43.032 62.1204 43.742 62.0274L43.957 61.9994C44.076 62.0814 44.189 62.1604 44.296 62.2344C44.719 62.5324 45.051 62.7664 45.277 62.9264C45.502 63.0894 45.622 63.1754 45.622 63.1754C45.622 63.1754 45.222 62.7364 44.467 62.0244C44.416 61.9764 44.359 61.9234 44.305 61.8734L44.174 61.3784C43.984 60.6604 43.797 59.9254 43.63 59.1934C43.561 58.8894 43.495 58.5844 43.431 58.2804C44.44 58.9164 45.494 59.4744 46.583 59.9434C46.389 59.2524 46.205 58.5404 46.035 57.8104C36.907 53.1824 31.566 42.0534 36.262 32.9094C40.286 25.0754 42.48 18.2884 42.48 18.2884C45.196 22.1344 49.78 24.9044 53.592 28.7674C54.039 28.3984 54.497 28.0504 54.965 27.7314C53.344 26.0684 51.602 24.6184 49.935 23.2314C47.592 21.2814 45.378 19.4384 43.872 17.3054C43.5 16.7784 42.861 16.5064 42.223 16.6034C41.966 16.6424 41.726 16.7384 41.519 16.8804C41.212 17.0894 40.976 17.3974 40.857 17.7644C40.835 17.8314 38.652 24.5234 34.744 32.1314C33.85 33.8724 33.272 35.7084 32.996 37.5924C29.281 37.1464 25.625 37.8324 22.223 38.4714C19.339 39.0134 16.615 39.5254 14.241 39.2584C13.824 39.2114 13.412 39.3184 13.075 39.5474C12.922 39.6514 12.784 39.7814 12.669 39.9344C12.302 40.4214 12.219 41.0664 12.451 41.6314C12.478 41.6964 15.149 48.2364 17.17 56.8464C18.449 62.2974 21.931 66.3804 26.975 68.3414C32.92 70.6534 39.984 69.6384 45.87 65.6244C46.091 65.4684 46.316 65.3074 46.54 65.1424ZM42.25 57.4904C42.366 58.1344 42.494 58.7754 42.632 59.4144L42.887 60.5344C42.895 60.5694 42.904 60.6034 42.912 60.6374C42.401 60.2004 41.827 59.7264 41.188 59.2304C40.803 58.9314 40.396 58.6204 39.97 58.3064L39.933 58.1744C39.734 57.4704 39.548 56.7494 39.37 56.0324C39.263 55.6044 39.164 55.1744 39.066 54.7454C40.044 55.7524 41.112 56.6734 42.25 57.4904Z" fill="#518F28"/>
<path d="M37.5557 46.8271C37.7847 47.1341 38.0267 47.4312 38.2737 47.7242C38.5257 48.0142 38.7777 48.3041 39.0477 48.5791C39.3117 48.8591 39.5987 49.1192 39.8817 49.3822C40.1747 49.6352 40.4667 49.8901 40.7807 50.1221C40.9327 50.2441 41.0897 50.3591 41.2557 50.4632C41.4197 50.5701 41.5787 50.6831 41.7477 50.7841L42.7547 51.3522C43.0957 51.5322 43.3967 51.7302 43.7147 51.9182C44.0277 52.1212 44.3467 52.3142 44.6537 52.5282C44.8197 52.6392 44.9817 52.7571 45.1457 52.8721C45.0977 52.4801 45.0557 52.0871 45.0187 51.6931C44.7357 51.5141 44.4437 51.3462 44.1567 51.1732C43.8127 50.9902 43.4657 50.7931 43.1257 50.6351L42.1197 50.1371C41.8017 49.9541 41.4787 49.7761 41.1727 49.5661C40.8587 49.3691 40.5617 49.1461 40.2627 48.9241C39.9717 48.6911 39.6767 48.4612 39.3997 48.2092C39.1127 47.9672 38.8407 47.7082 38.5687 47.4492C38.2987 47.1872 38.0387 46.9141 37.7777 46.6411C37.2637 46.0881 36.7667 45.5152 36.3047 44.9102C36.4897 45.2432 36.6897 45.5682 36.8967 45.8882C37.1067 46.2082 37.3287 46.5191 37.5557 46.8271Z" fill="#518F28"/>
<path d="M35.9502 34.8174C36.1052 35.0964 36.2722 35.3684 36.4462 35.6364C36.6222 35.9034 36.8092 36.1634 36.9992 36.4214C37.1902 36.6784 37.3932 36.9274 37.6012 37.1724C37.8122 37.4144 38.0232 37.6584 38.2492 37.8884C38.4702 38.1234 38.7102 38.3404 38.9482 38.5614C39.1932 38.7734 39.4382 38.9874 39.7012 39.1814C39.9542 39.3874 40.2372 39.5564 40.5112 39.7364L41.3542 40.2124C41.6392 40.3624 41.8922 40.5294 42.1582 40.6864C42.4212 40.8564 42.6882 41.0174 42.9452 41.1974C43.4662 41.5444 43.9712 41.9194 44.4702 42.3014C44.7602 42.5194 45.0402 42.7514 45.3242 42.9784C45.3842 42.6754 45.4512 42.3764 45.5232 42.0804C45.3352 41.9354 45.1502 41.7854 44.9582 41.6454C44.4342 41.2714 43.9052 40.9044 43.3572 40.5644C43.0872 40.3884 42.8042 40.2294 42.5282 40.0634C42.2402 39.9104 41.9492 39.7444 41.6642 39.6134L40.8212 39.1964C40.5552 39.0424 40.2842 38.8944 40.0282 38.7184C39.7652 38.5534 39.5162 38.3664 39.2652 38.1804C39.0212 37.9854 38.7742 37.7924 38.5422 37.5814C38.3022 37.3794 38.0742 37.1614 37.8462 36.9444C37.6202 36.7244 37.4022 36.4964 37.1832 36.2674C36.7532 35.8044 36.3372 35.3244 35.9502 34.8174Z" fill="#518F28"/>
<path d="M38.1403 42.4826C38.4033 42.7686 38.6763 43.0446 38.9483 43.3216C39.2253 43.5946 39.4993 43.8716 39.7873 44.1346C40.0693 44.4046 40.3653 44.6596 40.6633 44.9136C40.9633 45.1626 41.2743 45.4136 41.5783 45.6486C42.6533 46.4906 43.7533 47.2996 44.8483 48.1136C44.8493 47.7306 44.8593 47.3486 44.8743 46.9686L42.0483 45.0056C41.7293 44.7866 41.4293 44.5666 41.1223 44.3386C40.8213 44.1076 40.5213 43.8726 40.2253 43.6316C39.9263 43.3946 39.6383 43.1426 39.3473 42.8946C39.0593 42.6426 38.7733 42.3876 38.4913 42.1276C37.9213 41.6136 37.3683 41.0796 36.8173 40.5406C36.2693 39.9996 35.7253 39.4526 35.1943 38.8916C36.0923 40.1526 37.0903 41.3396 38.1403 42.4826Z" fill="#518F28"/>
<path d="M42.2721 35.9985L41.1821 35.2345L40.0911 34.4785C39.9101 34.3545 39.7401 34.2195 39.5591 34.0945C39.3861 33.9615 39.2081 33.8335 39.0401 33.6935C38.7021 33.4175 38.3621 33.1375 38.0541 32.8265C37.8981 32.6725 37.7421 32.5155 37.6011 32.3475C37.4581 32.1795 37.3141 32.0095 37.2041 31.8135C37.3201 32.2515 37.5541 32.6535 37.8031 33.0345C37.9331 33.2225 38.0691 33.4045 38.2101 33.5845C38.3531 33.7625 38.5001 33.9375 38.6571 34.1025C38.8091 34.2725 38.9731 34.4305 39.1321 34.5945C39.2961 34.7515 39.4591 34.9125 39.6331 35.0575C39.9761 35.3625 40.3221 35.6355 40.6681 35.9205L41.7271 36.7455C42.0831 37.0165 42.4351 37.2925 42.7991 37.5535L43.8941 38.3335C44.2121 38.5535 44.5271 38.7725 44.8551 38.9865C44.9281 39.2055 45.0011 39.4255 45.0791 39.6435C45.2941 40.2065 45.5081 40.7705 45.7221 41.3315C45.7661 41.1785 45.8081 41.0255 45.8551 40.8745C46.0231 40.3365 46.2051 39.8095 46.3981 39.2915C46.3851 39.2555 46.3721 39.2205 46.3591 39.1855C46.2591 38.9055 46.1621 38.6245 46.0671 38.3435C46.2111 38.1025 46.3581 37.8625 46.5061 37.6255C46.7741 37.1985 47.0501 36.7765 47.3241 36.3535C47.6021 35.9335 47.8821 35.5155 48.1791 35.1115C48.4501 34.7445 48.7181 34.3745 49.0041 34.0235C49.5811 33.1175 50.2031 32.2695 50.8621 31.4835C50.8771 31.4585 50.8931 31.4335 50.9071 31.4085C51.0391 31.1845 51.1601 30.9545 51.2781 30.7235C51.3931 30.4905 51.5031 30.2555 51.5971 30.0135C51.7881 29.5335 51.9481 29.0325 51.9911 28.5195C51.9251 28.7665 51.8231 29.0005 51.7131 29.2285C51.6021 29.4565 51.4861 29.6795 51.3561 29.8965C51.0951 30.3285 50.8211 30.7495 50.5101 31.1455C50.2061 31.5445 49.8881 31.9345 49.5521 32.3055C49.3811 32.4895 49.2211 32.6705 49.0401 32.8555L48.5111 33.4075C47.7791 34.1575 47.1471 34.9795 46.5381 35.8135C46.2321 36.2285 45.9491 36.6585 45.6681 37.0895C45.5211 36.6035 45.3811 36.1165 45.2521 35.6305C45.0401 34.8115 44.8371 33.9985 44.6531 33.1945C44.8061 32.9235 44.9681 32.6495 45.1331 32.3815C45.3301 32.0665 45.5301 31.7535 45.7341 31.4445C45.9381 31.1355 46.1531 30.8355 46.3781 30.5495C46.4871 30.4015 46.6041 30.2645 46.7201 30.1265C46.8401 29.9935 46.9611 29.8635 47.0901 29.7485C47.2351 29.6155 47.3721 29.4995 47.5151 29.3495C47.6601 29.2075 47.7841 29.0645 47.9141 28.9195C48.1711 28.6305 48.4071 28.3295 48.6351 28.0225C49.0921 27.4105 49.5111 26.7745 49.8921 26.1165C49.3881 26.6855 48.8791 27.2455 48.3581 27.7875C48.0941 28.0545 47.8321 28.3235 47.5591 28.5755C47.4231 28.6985 47.2841 28.8285 47.1461 28.9375C47.0161 29.0485 46.8521 29.1655 46.7101 29.2765C46.5441 29.3985 46.3931 29.5305 46.2451 29.6655C46.1041 29.8035 45.9601 29.9415 45.8301 30.0865C45.5661 30.3765 45.3251 30.6805 45.0921 30.9895C44.8571 31.2965 44.6371 31.6135 44.4301 31.9375C44.4171 31.9575 44.4051 31.9765 44.3931 31.9965C44.1691 30.8805 43.9641 29.7955 43.7911 28.7605C43.7501 28.5085 43.7111 28.2595 43.6731 28.0135C43.6901 28.0035 43.7061 27.9935 43.7231 27.9825C43.8281 27.9155 43.9311 27.8475 44.0301 27.7735C44.2291 27.6265 44.4221 27.4725 44.6071 27.3085C44.9751 26.9795 45.3111 26.6075 45.5811 26.1865C45.7131 25.9695 45.8291 25.7715 45.9571 25.5755C46.0831 25.3785 46.2121 25.1805 46.3491 24.9895C46.6231 24.6055 46.9091 24.2275 47.2241 23.8685C46.8411 24.1555 46.4871 24.4835 46.1571 24.8325C45.9911 25.0075 45.8321 25.1875 45.6771 25.3735C45.5221 25.5595 45.3821 25.7625 45.2331 25.9285C45.0801 26.0965 44.9261 26.2635 44.7551 26.4145C44.5881 26.5695 44.4061 26.7085 44.2281 26.8505C44.0471 26.9895 43.8581 27.1195 43.6661 27.2425L43.5651 27.3055C43.4831 26.7635 43.4071 26.2395 43.3371 25.7375C43.0871 23.8585 42.9141 22.2835 42.8051 21.1785C42.6951 20.0735 42.6461 19.4375 42.6461 19.4375C42.6461 19.4375 42.5781 20.0715 42.5311 21.1855C42.4861 22.2995 42.4591 23.8955 42.5511 25.8075C42.5701 26.2495 42.5961 26.7105 42.6291 27.1845C42.6141 27.1765 42.5991 27.1695 42.5841 27.1615C42.3231 27.0095 42.0521 26.8715 41.7941 26.7135C41.6601 26.6405 41.5301 26.5625 41.3991 26.4835C41.2701 26.4025 41.1341 26.3295 41.0061 26.2455C40.8761 26.1635 40.7421 26.0865 40.6141 26.0005C40.4801 25.9225 40.3491 25.8275 40.2101 25.7475C40.3631 26.0265 40.5581 26.2865 40.7731 26.5235C40.8811 26.6405 40.9911 26.7575 41.1091 26.8665C41.2271 26.9735 41.3461 27.0805 41.4701 27.1825C41.5941 27.2835 41.7241 27.3755 41.8531 27.4695C41.9811 27.5645 42.1151 27.6515 42.2521 27.7335C42.3891 27.8155 42.5261 27.8965 42.6661 27.9745C42.6741 27.9785 42.6831 27.9825 42.6911 27.9865C42.7161 28.2845 42.7441 28.5865 42.7771 28.8945C42.8661 29.7885 42.9781 30.7225 43.1271 31.6795C42.9101 31.5125 42.6851 31.3545 42.4581 31.1995C42.2201 31.0355 41.9771 30.8785 41.7261 30.7235L40.9861 30.3095C40.7441 30.1695 40.4961 30.0375 40.2561 29.8925C40.0161 29.7475 39.7681 29.6095 39.5301 29.4575C39.2871 29.3105 39.0451 29.1615 38.8031 29.0055C38.9741 29.2385 39.1651 29.4555 39.3611 29.6655C39.5631 29.8705 39.7661 30.0765 39.9831 30.2655C40.2001 30.4545 40.4171 30.6475 40.6481 30.8195C40.8801 30.9975 41.1091 31.1615 41.3381 31.3265C41.5571 31.4875 41.7821 31.6505 42.0001 31.8235C42.2201 31.9925 42.4321 32.1745 42.6491 32.3485C42.8651 32.5235 43.0781 32.7035 43.2881 32.8865C43.3041 32.9005 43.3201 32.9155 43.3361 32.9295C43.5121 33.9235 43.7121 34.9395 43.9751 35.9585C44.1001 36.4535 44.2361 36.9515 44.3781 37.4485L43.3671 36.7525L42.2721 35.9985Z" fill="#518F28"/>
<path d="M77.9629 26.0597C77.8749 26.0377 77.7889 26.0167 77.7029 25.9957C77.5659 25.9617 77.4299 25.9287 77.2969 25.8977C77.2089 25.8767 77.1229 25.8567 77.0369 25.8357C76.9069 25.8057 76.7789 25.7757 76.6519 25.7467C76.5719 25.7287 76.4919 25.7107 76.4139 25.6927C76.2829 25.6637 76.1549 25.6357 76.0279 25.6087C75.9599 25.5937 75.8899 25.5787 75.8229 25.5647C75.6749 25.5337 75.5299 25.5037 75.3869 25.4747C75.3459 25.4667 75.3039 25.4577 75.2639 25.4497C75.0809 25.4137 74.9029 25.3797 74.7289 25.3477C74.6929 25.3407 74.6589 25.3357 74.6229 25.3287C74.4889 25.3047 74.3559 25.2807 74.2269 25.2587C74.1689 25.2487 74.1129 25.2397 74.0559 25.2307C73.9509 25.2137 73.8479 25.1967 73.7469 25.1817C73.6869 25.1727 73.6279 25.1637 73.5699 25.1557C73.4739 25.1417 73.3789 25.1277 73.2859 25.1157C73.2289 25.1077 73.1729 25.1007 73.1169 25.0937C73.0239 25.0817 72.9329 25.0707 72.8429 25.0607C72.7919 25.0547 72.7399 25.0487 72.6899 25.0427C72.5929 25.0317 72.4979 25.0227 72.4039 25.0137C72.3639 25.0097 72.3239 25.0057 72.2849 25.0017C72.0219 24.9777 71.7709 24.9607 71.5309 24.9487C71.4929 24.9467 71.4559 24.9457 71.4179 24.9437C71.3379 24.9407 71.2579 24.9367 71.1799 24.9347C71.1359 24.9337 71.0929 24.9327 71.0499 24.9317C70.9789 24.9307 70.9089 24.9297 70.8409 24.9297C70.8209 24.9297 70.7999 24.9287 70.7809 24.9287C70.7649 24.9287 70.7509 24.9297 70.7349 24.9297C70.5859 24.9307 70.4409 24.9327 70.2989 24.9377C70.2809 24.9387 70.2639 24.9397 70.2469 24.9397C70.1109 24.9447 69.9779 24.9517 69.8479 24.9607C69.8309 24.9617 69.8149 24.9627 69.7979 24.9637C69.6639 24.9737 69.5319 24.9847 69.4029 24.9977C69.3759 25.0007 69.3489 25.0027 69.3229 25.0057C69.1959 25.0187 69.0709 25.0337 68.9469 25.0497C68.9259 25.0527 68.9039 25.0557 68.8829 25.0587C68.7599 25.0747 68.6379 25.0927 68.5169 25.1117C68.5089 25.1127 68.5009 25.1137 68.4939 25.1157C68.3659 25.1357 68.2389 25.1567 68.1119 25.1787C68.0889 25.1827 68.0649 25.1867 68.0419 25.1907C67.9179 25.2117 67.7939 25.2347 67.6679 25.2577C67.6459 25.2617 67.6229 25.2657 67.5999 25.2697C67.4739 25.2927 67.3469 25.3167 67.2179 25.3407C66.8119 25.4167 66.3839 25.4957 65.9159 25.5717C65.8679 25.5797 65.8189 25.5867 65.7709 25.5947C65.3129 25.6667 64.8129 25.7327 64.2509 25.7887C64.0109 25.8127 63.7609 25.8347 63.4959 25.8537C63.2839 25.8687 63.0659 25.8827 62.8369 25.8947C62.6349 25.9047 62.4329 25.9217 62.2319 25.9407C62.1879 25.9447 62.1429 25.9507 62.0989 25.9547C61.0389 26.0697 59.9969 26.3107 58.9839 26.6717C58.5679 26.8197 58.1569 26.9887 57.7509 27.1767C57.1429 27.4587 56.5459 27.7837 55.9649 28.1497C55.1899 28.6387 54.4399 29.1997 53.7229 29.8297C53.1939 30.2937 52.6829 30.7957 52.1909 31.3317C52.1629 31.3627 52.1349 31.3937 52.1069 31.4247C51.8229 31.7377 51.5459 32.0617 51.2759 32.3977C51.2109 32.4777 51.1469 32.5597 51.0839 32.6407C50.8079 32.9937 50.5369 33.3567 50.2769 33.7337C49.7669 34.4707 49.2899 35.2547 48.8449 36.0757C48.7109 36.3227 48.5809 36.5737 48.4539 36.8277C47.7809 38.1717 47.1959 39.6137 46.7179 41.1437C46.4759 41.9177 46.2909 42.7277 46.1449 43.5577C46.0409 44.1437 45.9569 44.7397 45.8969 45.3467C45.8059 46.2647 45.7599 47.2017 45.7579 48.1497C45.7569 48.6427 45.7679 49.1387 45.7879 49.6357C45.9949 54.6047 47.2429 59.7057 48.6979 63.4927L48.7059 63.5927C48.7059 63.5927 48.7099 63.6017 48.7179 63.6187C48.7409 63.6707 48.7989 63.7977 48.8899 63.9797C49.1829 64.7117 49.4829 65.3907 49.7839 66.0027C49.8839 66.2067 49.9839 66.4037 50.0839 66.5917C51.2019 68.7017 53.2479 71.0617 55.9939 73.0937C56.4509 73.4317 56.9209 73.7637 57.4159 74.0807C57.7629 74.3027 58.1199 74.5197 58.4849 74.7287C60.3109 75.7767 62.3569 76.6547 64.5809 77.2477C64.7919 77.3037 65.0049 77.3487 65.2169 77.3987C65.4299 77.4487 65.6419 77.5057 65.8529 77.5497C66.4059 77.6647 66.9439 77.7707 67.4749 77.8697C67.6409 77.9007 67.8029 77.9287 67.9669 77.9587C68.3329 78.0247 68.6939 78.0867 69.0489 78.1447C69.2279 78.1737 69.4049 78.2017 69.5809 78.2287C69.9279 78.2817 70.2689 78.3307 70.6059 78.3767C70.7619 78.3977 70.9189 78.4207 71.0719 78.4397C71.5239 78.4967 71.9669 78.5467 72.3999 78.5897C72.4259 78.5927 72.4529 78.5957 72.4789 78.5987C72.9359 78.6427 73.3799 78.6757 73.8169 78.7027C73.9519 78.7107 74.0829 78.7157 74.2159 78.7227C74.5189 78.7377 74.8189 78.7507 75.1119 78.7577C75.2579 78.7617 75.4029 78.7637 75.5469 78.7657C75.6609 78.7667 75.7779 78.7717 75.8909 78.7717C76.1369 78.7717 76.3789 78.7677 76.6179 78.7617C76.6309 78.7617 76.6449 78.7617 76.6579 78.7607C77.0419 78.7507 77.4149 78.7297 77.7809 78.7027C77.8499 78.6977 77.9189 78.6937 77.9879 78.6877C78.3399 78.6587 78.6849 78.6237 79.0209 78.5797C79.0829 78.5717 79.1429 78.5627 79.2039 78.5537C79.5459 78.5057 79.8829 78.4527 80.2089 78.3887C80.2139 78.3877 80.2189 78.3867 80.2239 78.3857C80.5529 78.3217 80.8709 78.2467 81.1829 78.1657C81.2399 78.1507 81.2969 78.1367 81.3539 78.1217C81.6529 78.0407 81.9459 77.9527 82.2299 77.8567C82.2819 77.8387 82.3329 77.8207 82.3839 77.8027C82.6749 77.7007 82.9609 77.5927 83.2379 77.4737C83.2399 77.4727 83.2429 77.4717 83.2429 77.4717C83.5199 77.3527 83.7869 77.2227 84.0499 77.0877C84.0979 77.0627 84.1459 77.0387 84.1939 77.0137C84.4439 76.8807 84.6879 76.7397 84.9259 76.5907C84.9709 76.5627 85.0149 76.5327 85.0599 76.5047C85.3039 76.3477 85.5439 76.1847 85.7739 76.0117C86.3989 75.5417 87.0479 75.0327 87.7079 74.4887C88.6989 73.6717 89.7179 72.7727 90.7299 71.7937C91.4039 71.1417 92.0749 70.4547 92.7309 69.7327C93.3869 69.0117 94.0289 68.2567 94.6469 67.4687C95.8809 65.8927 97.0159 64.1847 97.9649 62.3537C98.3009 61.7057 98.6029 61.0377 98.8889 60.3597C99.2089 59.5997 99.5049 58.8267 99.7519 58.0297C99.8809 57.6127 100.006 57.1767 100.126 56.7267C100.149 56.6407 100.171 56.5537 100.194 56.4667C100.259 56.2147 100.322 55.9577 100.382 55.6967C100.4 55.6187 100.418 55.5397 100.436 55.4607C100.537 55.0077 100.63 54.5417 100.714 54.0647C100.784 53.6647 100.847 53.2587 100.902 52.8447C101.002 52.0857 101.074 51.3047 101.109 50.5067C101.162 49.3097 101.132 48.0747 100.993 46.8217C100.946 46.4037 100.888 45.9837 100.816 45.5627C100.78 45.3527 100.741 45.1417 100.698 44.9297C100.57 44.2967 100.411 43.6607 100.217 43.0247C100.152 42.8127 100.084 42.6007 100.012 42.3897C99.6499 41.3307 99.1889 40.2757 98.6129 39.2337C98.4119 38.8707 98.1999 38.5147 97.9759 38.1647C97.7519 37.8147 97.5159 37.4707 97.2689 37.1327C98.0239 36.9187 98.7869 36.6107 99.5699 36.2937C99.7349 36.2267 99.9019 36.1597 100.068 36.0937C100.116 36.0747 100.164 36.0557 100.212 36.0357C100.393 35.9637 100.574 35.8937 100.756 35.8247C100.762 35.8227 100.768 35.8207 100.774 35.8177C100.945 35.7537 101.116 35.6917 101.289 35.6317C101.334 35.6157 101.378 35.6007 101.423 35.5857C101.605 35.5237 101.787 35.4647 101.971 35.4097C101.978 35.4077 101.985 35.4057 101.993 35.4037C102.168 35.3527 102.344 35.3057 102.521 35.2627C102.567 35.2517 102.612 35.2407 102.658 35.2297C102.844 35.1867 103.031 35.1477 103.22 35.1157C103.231 35.1137 103.242 35.1127 103.253 35.1107C103.431 35.0817 103.611 35.0597 103.791 35.0417C103.838 35.0367 103.886 35.0327 103.933 35.0287C104.125 35.0137 104.319 35.0027 104.515 35.0027C104.596 35.0027 104.679 35.0067 104.761 35.0097C104.825 35.0117 104.888 35.0117 104.952 35.0157C105.042 35.0217 105.133 35.0317 105.224 35.0407C105.282 35.0467 105.34 35.0497 105.398 35.0567C105.497 35.0687 105.597 35.0877 105.696 35.1047C105.748 35.1137 105.799 35.1197 105.851 35.1297C106.003 35.1597 106.156 35.1947 106.311 35.2357C106.479 35.2807 106.647 35.3317 106.815 35.3907C107.32 35.5657 107.827 35.8017 108.328 36.0947C108.383 36.1267 108.44 36.1507 108.5 36.1667C108.553 36.1807 108.608 36.1867 108.663 36.1877C108.668 36.1877 108.673 36.1897 108.679 36.1897C108.689 36.1897 108.699 36.1857 108.71 36.1857C108.755 36.1837 108.799 36.1777 108.842 36.1667C108.859 36.1627 108.875 36.1587 108.891 36.1537C108.947 36.1357 109.002 36.1127 109.053 36.0797C109.108 36.0447 109.157 36.0027 109.199 35.9547C109.325 35.8117 109.389 35.6217 109.369 35.4277C109.365 35.3887 109.342 35.1817 109.254 34.8527C109.196 34.6337 109.11 34.3597 108.983 34.0437C108.856 33.7287 108.688 33.3717 108.465 32.9877C108.298 32.6997 108.101 32.3947 107.868 32.0807C107.713 31.8707 107.541 31.6567 107.353 31.4397C107.164 31.2227 106.958 31.0027 106.733 30.7817C106.508 30.5607 106.263 30.3387 105.998 30.1167C105.733 29.8947 105.446 29.6737 105.138 29.4537C104.829 29.2347 104.499 29.0167 104.144 28.8027C103.966 28.6957 103.783 28.5897 103.593 28.4847C103.214 28.2757 102.809 28.0707 102.379 27.8717C101.948 27.6727 101.491 27.4807 101.006 27.2957C100.576 27.1317 100.134 26.9887 99.6919 26.8717C99.6799 26.8687 99.6679 26.8667 99.6569 26.8637C99.3799 26.7907 99.1019 26.7267 98.8249 26.6727C98.7119 26.6507 98.5999 26.6377 98.4869 26.6187C98.3119 26.5897 98.1359 26.5567 97.9619 26.5347C97.8309 26.5187 97.7019 26.5107 97.5719 26.4977C97.4159 26.4827 97.2589 26.4637 97.1029 26.4537C96.9769 26.4457 96.8509 26.4467 96.7249 26.4417C96.5689 26.4367 96.4129 26.4277 96.2579 26.4277C96.2549 26.4277 96.2509 26.4277 96.2479 26.4277C96.2319 26.4277 96.2159 26.4287 96.1999 26.4287C95.9599 26.4297 95.7209 26.4377 95.4829 26.4507C95.4059 26.4547 95.3299 26.4607 95.2539 26.4657C95.0669 26.4787 94.8799 26.4957 94.6949 26.5157C94.6229 26.5237 94.5499 26.5307 94.4779 26.5397C94.2289 26.5697 93.9809 26.6047 93.7359 26.6467C93.7239 26.6487 93.7129 26.6517 93.7009 26.6537C93.4659 26.6947 93.2319 26.7407 92.9999 26.7917C92.9279 26.8077 92.8559 26.8247 92.7839 26.8407C92.6049 26.8827 92.4259 26.9267 92.2489 26.9737C92.1799 26.9917 92.1109 27.0097 92.0429 27.0287C91.8059 27.0947 91.5709 27.1637 91.3379 27.2387C91.3329 27.2407 91.3279 27.2417 91.3219 27.2437C91.0939 27.3177 90.8689 27.3957 90.6459 27.4767C90.5789 27.5007 90.5139 27.5257 90.4479 27.5507C90.2789 27.6147 90.1119 27.6797 89.9459 27.7467C89.8819 27.7727 89.8179 27.7977 89.7549 27.8247C89.5349 27.9167 89.3169 28.0107 89.1029 28.1087C89.0999 28.1097 89.0969 28.1117 89.0939 28.1127C88.8819 28.2097 88.6749 28.3107 88.4699 28.4127C88.4079 28.4437 88.3469 28.4747 88.2859 28.5067C88.1339 28.5847 87.9839 28.6627 87.8349 28.7427C87.7759 28.7747 87.7169 28.8067 87.6579 28.8387C87.4609 28.9477 87.2659 29.0567 87.0759 29.1687L87.0739 29.1697C86.0099 28.6717 84.8849 28.2087 83.7049 27.7787C83.7049 27.7597 83.7069 27.7407 83.7069 27.7227C83.7089 27.4937 83.6939 27.2897 83.6679 27.1037C83.6029 26.6367 83.4609 26.2967 83.2869 26.0497C83.2419 25.9857 83.1949 25.9247 83.1459 25.8727C83.1109 25.8357 83.0759 25.8007 83.0409 25.7687C82.9699 25.7047 82.8969 25.6517 82.8239 25.6077C82.6789 25.5187 82.5369 25.4657 82.4149 25.4327C82.3449 25.4137 82.2729 25.4007 82.1989 25.3917C82.1739 25.3887 82.1489 25.3887 82.1239 25.3867C82.0809 25.3837 82.0379 25.3787 81.9939 25.3787C81.9889 25.3787 81.9849 25.3797 81.9799 25.3797C81.8739 25.3807 81.7669 25.3917 81.6589 25.4117C81.6339 25.4157 81.6079 25.4217 81.5829 25.4277C81.4809 25.4497 81.3799 25.4777 81.2779 25.5147C81.2679 25.5187 81.2569 25.5207 81.2469 25.5247C81.1379 25.5667 81.0299 25.6187 80.9229 25.6777C80.8969 25.6917 80.8719 25.7067 80.8469 25.7217C80.7399 25.7847 80.6339 25.8537 80.5309 25.9347C80.4079 26.0307 80.2969 26.1347 80.1979 26.2427C80.0989 26.3507 80.0119 26.4637 79.9379 26.5797C79.7579 26.5297 79.5829 26.4757 79.4009 26.4267C79.1499 26.3597 78.9069 26.2967 78.6679 26.2347C78.5869 26.2137 78.5099 26.1947 78.4309 26.1747C78.2709 26.1367 78.1149 26.0967 77.9629 26.0597ZM94.7749 36.6827C90.9899 36.0777 89.2689 37.9957 85.4069 37.1757C85.2179 37.1357 85.0419 37.0937 84.8799 37.0507C84.1969 36.8687 83.7359 36.6597 83.4229 36.4427C83.3339 36.3807 83.2559 36.3177 83.1889 36.2547C83.1559 36.2237 83.1239 36.1917 83.0959 36.1597C83.0389 36.0957 82.9909 36.0327 82.9499 35.9687C82.8289 35.7787 82.7759 35.5907 82.7439 35.4167C82.7329 35.3587 82.7249 35.3017 82.7169 35.2477C82.7129 35.2207 82.7089 35.1937 82.7049 35.1667C82.6889 35.0617 82.6719 34.9647 82.6389 34.8787C82.6309 34.8577 82.6209 34.8367 82.6109 34.8167C82.5689 34.7377 82.5079 34.6697 82.4139 34.6187C82.3669 34.5927 82.3109 34.5707 82.2449 34.5537C82.2329 34.5507 82.2199 34.5477 82.2069 34.5447C82.1069 34.5217 82.0149 34.5077 81.9269 34.4977C82.4479 34.3397 83.0829 34.1597 83.8139 33.9747C84.0579 33.9127 84.3119 33.8497 84.5769 33.7867C84.6499 33.7687 84.7269 33.7517 84.8019 33.7337C84.9409 33.7737 85.1029 33.8217 85.2869 33.8827C85.4289 33.9287 85.5829 33.9817 85.7439 34.0407C86.0669 34.1597 86.4209 34.3047 86.7829 34.4677C86.9639 34.5487 87.1469 34.6347 87.3279 34.7247C88.0519 35.0837 88.7539 35.4967 89.2609 35.8377C89.7699 36.1757 90.0919 36.4297 90.0919 36.4297C90.0919 36.4297 89.8059 36.1377 89.3399 35.7337C88.9929 35.4287 88.5389 35.0687 88.0439 34.7137C87.8789 34.5957 87.7089 34.4777 87.5369 34.3627C87.4089 34.2777 87.2789 34.1947 87.1499 34.1137C86.7609 33.8707 86.3719 33.6477 86.0169 33.4617C87.6149 33.1257 89.4509 32.8097 91.3719 32.5247L96.9089 35.2097L92.5879 32.3497C93.1299 32.2737 93.6749 32.2007 94.2219 32.1307C95.5079 31.9547 96.7989 31.8447 98.0529 31.7927C98.4709 31.7757 98.8839 31.7647 99.2919 31.7597C99.3229 31.7787 99.3589 31.7997 99.3979 31.8247C99.6739 31.9967 100.136 32.3097 100.546 32.7087C101.194 33.3067 101.668 34.0737 101.668 34.0737C101.668 34.0737 101.32 33.2417 100.752 32.5227C100.536 32.2337 100.29 31.9707 100.07 31.7567C101.496 31.7647 102.829 31.8267 103.968 32.0297C104.953 32.1987 105.778 32.4997 106.414 32.8047C106.626 32.9057 106.816 33.0077 106.985 33.1047C107.323 33.2987 107.58 33.4677 107.753 33.5867C107.925 33.7057 108.017 33.7697 108.017 33.7697C108.017 33.7697 107.928 33.7017 107.762 33.5737C107.595 33.4467 107.346 33.2657 107.016 33.0537C106.934 33.0007 106.846 32.9467 106.753 32.8907C106.659 32.8357 106.561 32.7797 106.456 32.7227C105.829 32.3847 105.007 32.0377 104.012 31.8167C102.875 31.5577 101.553 31.4307 100.136 31.3527C100.39 31.1527 100.676 30.8967 100.912 30.5907C101.215 30.2147 101.412 29.7707 101.499 29.4317C101.59 29.0917 101.605 28.8597 101.605 28.8597C101.605 28.8597 101.554 29.0877 101.417 29.4027C101.283 29.7177 101.035 30.1037 100.706 30.4047C100.384 30.7127 99.9989 30.9427 99.7029 31.0967C99.4859 31.2067 99.3199 31.2807 99.2439 31.3127C97.6139 31.2547 95.8759 31.2887 94.1469 31.4417C93.9179 31.4597 93.6899 31.4787 93.4609 31.4977C93.8889 31.1247 94.3849 30.6707 94.8539 30.1877C96.0489 28.9927 97.0519 27.6477 97.0519 27.6477C97.0519 27.6477 96.1609 28.5747 95.0599 29.4897C94.9029 29.6207 94.7409 29.7507 94.5769 29.8787C93.9559 30.3757 93.3069 30.8257 92.7979 31.1597C92.4929 31.3607 92.2389 31.5187 92.0709 31.6217C90.7169 31.7477 89.3889 31.8917 88.1369 32.0517C87.7199 32.1047 87.3109 32.1607 86.9119 32.2177C87.1319 32.0967 87.3509 31.9727 87.5679 31.8417C88.1789 31.4697 88.7659 31.0627 89.2939 30.6527C89.4239 30.5477 89.5499 30.4427 89.6729 30.3387C89.7959 30.2347 89.9149 30.1327 90.0289 30.0307C90.2569 29.8277 90.4659 29.6277 90.6489 29.4337C90.7439 29.3407 90.8319 29.2477 90.9139 29.1587C90.9959 29.0687 91.0709 28.9827 91.1409 28.8997C91.2849 28.7387 91.4059 28.5947 91.4979 28.4697C91.5449 28.4087 91.5879 28.3537 91.6239 28.3067C91.7339 28.1637 91.7949 28.0857 91.7949 28.0857C91.7949 28.0857 91.6769 28.2167 91.4699 28.4467C91.3699 28.5637 91.2379 28.6977 91.0839 28.8467C90.9329 28.9997 90.7599 29.1677 90.5579 29.3387C90.4609 29.4277 90.3569 29.5177 90.2479 29.6087C90.1389 29.6997 90.0239 29.7907 89.9039 29.8827C89.6649 30.0667 89.4069 30.2527 89.1379 30.4397C88.8639 30.6217 88.5769 30.8017 88.2799 30.9757C87.9829 31.1497 87.6759 31.3187 87.3659 31.4777C86.9459 31.6907 86.5179 31.8857 86.0979 32.0637C85.6779 32.2417 85.2649 32.4007 84.8719 32.5417C84.6879 32.5747 84.5079 32.6077 84.3319 32.6407C83.9849 32.7057 83.6539 32.7717 83.3389 32.8367C83.4209 32.7797 83.4969 32.7217 83.5579 32.6627C85.8779 30.4137 92.5049 25.6777 99.5089 27.5437C99.7159 27.5987 99.9229 27.6597 100.131 27.7267C100.339 27.7937 100.546 27.8667 100.754 27.9457C103.78 29.0987 105.655 30.5607 106.814 31.8917C107.26 32.4037 107.6 32.8957 107.859 33.3427C107.963 33.5217 108.053 33.6937 108.132 33.8567C108.608 34.8357 108.674 35.4987 108.674 35.4987C108.485 35.3877 108.297 35.2857 108.112 35.1927C107.741 35.0057 107.376 34.8527 107.018 34.7297C106.839 34.6687 106.661 34.6147 106.485 34.5677C101.705 33.2947 98.0739 37.2097 94.7749 36.6827ZM80.3729 28.6437C80.4059 27.9227 80.3549 27.5007 80.3549 27.5007C80.3509 27.3287 80.4209 27.1427 80.5379 26.9637C80.6189 27.4127 80.7039 28.0127 80.7219 28.6287C80.7859 29.8727 80.5639 31.1307 80.5639 31.1307C80.5639 31.1307 81.0399 29.9477 81.2409 28.6627C81.4199 27.6637 81.4189 26.6377 81.4109 26.2347C81.6839 26.1127 81.9719 26.0617 82.2269 26.1287C82.4429 26.1867 82.6349 26.3287 82.7709 26.5847C82.8049 26.6487 82.8359 26.7197 82.8629 26.7987C82.9439 27.0347 82.9889 27.3387 82.9869 27.7217C82.9729 29.8397 81.3489 32.8277 80.4939 34.2557C80.6659 33.8417 80.8569 33.3497 81.0309 32.8297C81.0889 32.6567 81.1449 32.4807 81.1969 32.3037C81.3229 31.9047 81.4309 31.5037 81.5219 31.1257C81.5909 30.8427 81.6499 30.5727 81.6999 30.3267C81.7329 30.1627 81.7629 30.0097 81.7889 29.8707C81.8019 29.8007 81.8139 29.7357 81.8239 29.6737C81.8889 29.3017 81.9209 29.0717 81.9209 29.0717C81.9209 29.0717 81.6519 29.9627 81.2099 31.0227C81.0989 31.2877 80.9779 31.5637 80.8469 31.8387C80.8029 31.9307 80.7589 32.0217 80.7129 32.1127C80.2259 33.1287 79.6309 34.0687 79.3079 34.5547C79.1119 34.3807 78.9709 34.2377 78.9129 34.1767C78.8939 34.1567 78.8829 34.1457 78.8829 34.1457C79.4569 33.0087 79.8159 31.9337 80.0379 30.9927C80.2599 30.0507 80.3459 29.2437 80.3729 28.6437ZM97.8069 40.6917C97.8319 40.7417 97.8609 40.7987 97.8939 40.8637C98.0159 41.1287 98.2409 41.4977 98.4329 42.0097C98.5339 42.2637 98.6579 42.5397 98.7699 42.8497C98.8749 43.1627 98.9879 43.5007 99.1089 43.8627C99.2079 44.2317 99.3129 44.6237 99.4229 45.0367C99.5089 45.4557 99.5969 45.8977 99.6739 46.3617C99.8049 47.2927 99.9179 48.3087 99.9229 49.3877C99.9249 49.6577 99.9249 49.9307 99.9199 50.2077C99.9149 50.4847 99.9059 50.7647 99.8919 51.0477C99.8629 51.6137 99.8129 52.1907 99.7319 52.7737C99.6549 53.3577 99.5599 53.9477 99.4449 54.5417C99.3299 55.1357 99.1959 55.7337 99.0419 56.3337C98.9659 56.6347 98.8869 56.9357 98.7979 57.2297L98.6689 57.6747L98.5159 58.1227L98.2099 59.0137C98.1599 59.1627 98.1009 59.3087 98.0389 59.4537C97.9769 59.5987 97.9129 59.7417 97.8539 59.8877C97.7339 60.1787 97.6049 60.4657 97.4699 60.7497C97.1989 61.3167 96.9019 61.8687 96.5939 62.4097C96.4399 62.6807 96.2829 62.9477 96.1259 63.2137C95.7939 63.7337 95.4609 64.2497 95.1159 64.7457C94.9359 64.9887 94.7619 65.2337 94.5869 65.4757C94.4119 65.7177 94.2339 65.9547 94.0469 66.1807C93.8649 66.4117 93.6849 66.6397 93.5019 66.8627C93.3199 67.0857 93.1349 67.3037 92.9449 67.5127C92.7609 67.7277 92.5749 67.9357 92.3889 68.1387C92.2029 68.3417 92.0159 68.5397 91.8309 68.7347C91.4629 69.1257 91.0959 69.4977 90.7369 69.8527C90.3779 70.2077 90.0249 70.5447 89.6849 70.8657C89.0029 71.5067 88.3579 72.0727 87.7799 72.5647C87.2019 73.0577 86.6939 73.4817 86.2719 73.8277C85.7449 74.2597 85.3569 74.5727 85.1399 74.7467C85.0099 74.8507 84.9409 74.9047 84.9409 74.9047C84.9409 74.9047 85.4009 74.4857 86.2069 73.7517C87.0159 73.0217 88.1579 71.9657 89.4829 70.6557C90.1419 69.9977 90.8459 69.2747 91.5539 68.4787C91.7319 68.2797 91.9109 68.0787 92.0899 67.8717C92.2689 67.6657 92.4469 67.4537 92.6229 67.2367C92.8009 67.0217 92.9809 66.8037 93.1619 66.5837C93.3369 66.3587 93.5139 66.1327 93.6919 65.9037C94.0589 65.4537 94.3819 64.9607 94.7339 64.4787C95.0699 63.9867 95.3919 63.4757 95.7139 62.9617C95.8659 62.6987 96.0179 62.4347 96.1659 62.1677C96.3149 61.9007 96.4609 61.6307 96.6019 61.3587C96.8849 60.8137 97.1479 60.2567 97.3769 59.6847C97.4349 59.5427 97.4989 59.4017 97.5609 59.2607C97.6229 59.1197 97.6819 58.9777 97.7319 58.8327L98.0389 57.9647L98.1909 57.5347L98.3239 57.0907C98.4159 56.7947 98.4959 56.5007 98.5729 56.2087C98.7289 55.6227 98.8669 55.0357 98.9849 54.4517C99.0439 54.1597 99.0989 53.8687 99.1489 53.5787C99.1989 53.2887 99.2439 53.0007 99.2839 52.7147C99.4469 51.5687 99.5219 50.4507 99.5429 49.3897C99.5679 48.3277 99.4849 47.3257 99.3829 46.4037C99.3219 45.9447 99.2419 45.5067 99.1769 45.0887C99.0869 44.6757 99.0009 44.2827 98.9209 43.9147C98.8699 43.7327 98.8199 43.5567 98.7719 43.3877C98.7239 43.2177 98.6779 43.0547 98.6329 42.8967C98.5849 42.7407 98.5329 42.5927 98.4819 42.4517C98.4309 42.3107 98.3819 42.1767 98.3369 42.0477C98.2089 41.6597 98.0689 41.3477 97.9609 41.1017C97.9249 41.0197 97.8929 40.9447 97.8659 40.8767C97.8089 40.7427 97.7649 40.6397 97.7349 40.5697C97.7049 40.5007 97.6899 40.4647 97.6899 40.4647C97.6899 40.4647 97.7319 40.5427 97.8069 40.6917ZM53.4269 32.0407C53.5829 31.8757 53.7419 31.7137 53.9029 31.5557C54.8669 30.6067 55.9039 29.7927 56.9999 29.1367C57.5479 28.8087 58.1109 28.5197 58.6869 28.2737C59.0709 28.1097 59.4609 27.9637 59.8559 27.8387C60.8429 27.5247 61.8639 27.3337 62.9079 27.2807C69.5919 26.9377 68.7799 25.0367 79.0399 27.7697C79.2509 27.8257 79.4549 27.8847 79.6619 27.9427C79.6689 28.1877 79.6659 28.5517 79.6279 29.0107C79.5639 29.7747 79.4009 30.8007 79.0139 31.9677C77.8549 31.5637 76.6879 31.1987 75.6189 30.8867C74.2439 30.4847 73.0299 30.1687 72.1999 29.9617C71.6389 29.6287 71.0689 29.3497 70.5169 29.1087C70.3529 29.0367 70.1899 28.9687 70.0289 28.9057C69.5439 28.7157 69.0709 28.5627 68.6229 28.4367C68.0249 28.2657 67.4689 28.1467 66.9739 28.0647C66.8499 28.0437 66.7299 28.0257 66.6139 28.0097C66.2659 27.9607 65.9529 27.9297 65.6849 27.9107C64.9669 27.8607 64.5579 27.8907 64.5579 27.8907C64.5579 27.8907 64.9639 27.9467 65.6539 28.1137C66.0849 28.2167 66.6269 28.3627 67.2449 28.5667C67.6159 28.6887 68.0139 28.8317 68.4329 28.9987C69.5469 29.4447 70.7999 30.0707 72.0169 30.9147C72.3199 31.1277 72.6239 31.3487 72.9169 31.5907C73.0659 31.7087 73.2109 31.8327 73.3539 31.9607C73.5069 32.0897 73.6599 32.2187 73.8139 32.3487C74.1129 32.6077 74.4429 32.8617 74.7769 33.1157C75.1079 33.3727 75.4479 33.6007 75.7849 33.8447C76.4759 34.2977 77.1769 34.7357 77.8839 35.1327C78.0599 35.2327 78.2359 35.3317 78.4109 35.4307C78.5899 35.5227 78.7669 35.6137 78.9439 35.7047C79.2959 35.8897 79.6489 36.0587 79.9969 36.2247C80.6899 36.5627 81.3779 36.8497 82.0339 37.1107C82.6889 37.3747 83.3179 37.5967 83.9049 37.7837C84.4889 37.9777 85.0329 38.1317 85.5179 38.2517C85.9999 38.3817 86.4279 38.4667 86.7799 38.5357C86.9549 38.5747 87.1129 38.6007 87.2509 38.6197C87.3889 38.6397 87.5069 38.6537 87.6009 38.6697C87.7899 38.6977 87.8909 38.7127 87.8909 38.7127C87.8909 38.7127 87.7949 38.6787 87.6139 38.6147C87.5689 38.5977 87.5189 38.5807 87.4629 38.5607C87.2969 38.5027 87.0849 38.4307 86.8349 38.3347C86.5529 38.2307 86.2209 38.1037 85.8499 37.9557C87.6959 38.2407 89.0839 37.9457 90.4249 37.6527C91.4159 37.4367 92.3649 37.2307 93.4999 37.2587C94.9459 40.6497 95.2029 44.7797 94.6829 48.8627C94.5669 49.7697 94.4129 50.6747 94.2249 51.5687C93.7549 53.8037 93.0729 55.9697 92.2499 57.9327C91.9699 58.6007 91.6569 59.2637 91.3139 59.9187C91.3619 59.8127 91.4109 59.7067 91.4569 59.6007C91.5439 59.3897 91.6309 59.1797 91.7169 58.9717C91.7919 58.7737 91.8659 58.5767 91.9389 58.3817C92.0159 58.1647 92.0879 57.9627 92.1569 57.7637C92.2259 57.5647 92.2899 57.3697 92.3509 57.1667C92.4769 56.7707 92.5929 56.3797 92.6989 55.9947C92.8059 55.6097 92.9039 55.2297 92.9949 54.8577C93.3529 53.3657 93.5729 51.9797 93.7139 50.7487C93.7509 50.4417 93.7819 50.1437 93.8059 49.8557C93.8309 49.5677 93.8499 49.2897 93.8639 49.0227C93.8929 48.4887 93.9039 47.9977 93.9089 47.5557C93.9259 46.6727 93.8729 45.9757 93.8459 45.5057C93.8349 45.3887 93.8259 45.2847 93.8179 45.1957C93.7939 44.9277 93.7809 44.7867 93.7809 44.7867C93.7809 44.7867 93.7449 45.0357 93.6779 45.5017C93.6409 45.7327 93.5949 46.0177 93.5419 46.3537C93.4749 46.6867 93.4169 47.0707 93.3289 47.4977C93.1639 48.3517 92.9209 49.3777 92.6109 50.5387C92.3719 51.4087 92.0789 52.3507 91.7319 53.3477C91.6159 53.6797 91.4949 54.0187 91.3669 54.3627C91.1029 55.0477 90.8309 55.7597 90.5079 56.4767C90.3549 56.8317 90.1759 57.2127 90.0179 57.5527C89.9259 57.7397 89.8339 57.9287 89.7409 58.1187C89.6479 58.2937 89.5539 58.4697 89.4599 58.6467C88.6829 60.0747 87.7159 61.5067 86.5459 62.8107C85.9569 63.4597 85.3259 64.0867 84.6439 64.6667C83.9599 65.2447 83.2309 65.7817 82.4639 66.2707C80.9249 67.2407 79.2229 67.9977 77.4329 68.4897C76.7639 68.6837 76.0839 68.8387 75.3959 68.9607C74.7079 69.0827 74.0139 69.1707 73.3179 69.2317C72.8539 69.2717 72.3889 69.2997 71.9249 69.3177C70.0769 69.3687 68.1819 69.2427 66.3939 69.0327C65.9449 68.9787 65.5009 68.9177 65.0629 68.8497C63.7489 68.6457 62.4859 68.3767 61.2949 68.0447C59.7079 67.6007 58.2469 67.0467 56.9659 66.3997C56.3189 66.0857 55.7299 65.7307 55.1769 65.3787C54.6229 65.0277 54.1229 64.6557 53.6739 64.2787C53.2249 63.9017 52.8259 63.5217 52.4759 63.1507C52.1259 62.7797 51.8239 62.4167 51.5699 62.0727C51.1909 61.5567 50.9059 61.0917 50.7039 60.7147C50.6369 60.5887 50.5779 60.4727 50.5289 60.3667C50.4229 60.1587 50.3549 59.9917 50.3049 59.8807C50.2559 59.7697 50.2299 59.7117 50.2299 59.7117C50.2299 59.7117 50.2409 59.7737 50.2619 59.8937C50.2859 60.0127 50.3069 60.1947 50.3709 60.4227C50.4839 60.8817 50.6699 61.5657 51.0719 62.3717C51.2399 62.7117 51.4409 63.0797 51.6789 63.4617C51.1979 62.9457 50.7609 62.4257 50.3699 61.9047C50.1089 61.5577 49.8679 61.2117 49.6479 60.8667C49.3179 60.3497 49.0339 59.8377 48.7979 59.3357C48.0279 56.6017 47.4219 53.4957 47.2169 50.4037C47.1659 49.6307 47.1399 48.8587 47.1429 48.0937C47.1469 46.9457 47.2159 45.8137 47.3619 44.7177C47.5079 43.6217 47.7319 42.5607 48.0459 41.5577C48.4349 40.3107 48.9029 39.1137 49.4399 37.9787C49.5469 37.7517 49.6579 37.5277 49.7709 37.3057C50.1099 36.6407 50.4729 35.9987 50.8589 35.3847C50.9879 35.1797 51.1189 34.9777 51.2529 34.7787C51.9159 33.7857 52.6449 32.8677 53.4269 32.0407ZM85.6809 30.0587C84.8989 30.5977 84.2059 31.1447 83.6229 31.6607C83.4289 31.8327 83.2469 32.0017 83.0779 32.1657C82.9159 32.3227 82.5829 32.4977 82.1839 32.6677C82.4499 32.1327 82.7139 31.5557 82.9459 30.9647C83.0619 30.6697 83.1699 30.3707 83.2649 30.0727C83.3609 29.7747 83.4439 29.4777 83.5119 29.1847C84.2669 29.4647 84.9909 29.7557 85.6809 30.0587Z" fill="#334725"/>
<path d="M62.341 28.9561C61.957 28.9891 61.583 29.0481 61.222 29.1241C60.861 29.2001 60.512 29.2941 60.178 29.3971C60.01 29.4461 59.846 29.4991 59.686 29.5551C59.206 29.7241 58.762 29.9221 58.355 30.1241C57.676 30.4611 57.105 30.8231 56.642 31.1571C56.365 31.3581 56.126 31.5481 55.927 31.7171C55.792 31.8281 55.676 31.9311 55.577 32.0231C55.478 32.1151 55.396 32.1951 55.329 32.2611C55.263 32.3261 55.212 32.3761 55.177 32.4101C55.143 32.4441 55.125 32.4611 55.125 32.4611C55.125 32.4611 55.146 32.4471 55.186 32.4221C55.226 32.3961 55.287 32.3581 55.365 32.3071C55.52 32.2051 55.746 32.0561 56.045 31.8841C56.415 31.6661 56.892 31.4041 57.463 31.1391C57.577 31.0861 57.695 31.0331 57.817 30.9801C58.06 30.8751 58.318 30.7701 58.59 30.6691C59.134 30.4691 59.733 30.2861 60.375 30.1441C61.016 29.9971 61.702 29.9031 62.41 29.8661C63.119 29.8271 63.85 29.8651 64.581 29.9691C64.944 30.0321 65.31 30.0961 65.67 30.2041C66.035 30.2881 66.388 30.4241 66.744 30.5491C67.45 30.8171 68.145 31.1321 68.8 31.5111C69.129 31.6961 69.454 31.8861 69.773 32.0821C70.092 32.2771 70.404 32.4771 70.708 32.6781C71.012 32.8811 71.311 33.0841 71.603 33.2831C72.188 33.6831 72.747 34.0711 73.279 34.4291C73.545 34.6081 73.803 34.7791 74.054 34.9401C74.553 35.2651 75.021 35.5501 75.442 35.7911C75.863 36.0321 76.238 36.2301 76.552 36.3801C76.862 36.5371 77.119 36.6361 77.288 36.7121C77.459 36.7851 77.55 36.8231 77.55 36.8231C77.55 36.8231 77.225 36.5971 76.657 36.2021C76.516 36.1021 76.363 35.9891 76.197 35.8651C76.031 35.7411 75.853 35.6041 75.664 35.4571C75.286 35.1631 74.863 34.8271 74.406 34.4551C73.491 33.7101 72.438 32.8171 71.234 31.9251C70.929 31.7071 70.62 31.4831 70.299 31.2641C69.978 31.0451 69.647 30.8321 69.298 30.6361C68.614 30.2271 67.872 29.8751 67.108 29.5731C66.717 29.4421 66.33 29.3011 65.926 29.2131C65.53 29.1021 65.123 29.0351 64.72 28.9731C63.911 28.8651 63.106 28.8851 62.341 28.9561Z" fill="#334725"/>
<path d="M84.556 58.027C84.337 58.219 84.097 58.409 83.855 58.615C83.495 58.928 83.098 59.242 82.672 59.558C82.246 59.873 81.791 60.189 81.316 60.506C80.999 60.717 80.673 60.929 80.34 61.14C79.653 61.532 78.952 61.948 78.203 62.306C77.474 62.702 76.686 63.003 75.915 63.339C75.123 63.622 74.343 63.942 73.54 64.151C72.75 64.404 71.953 64.579 71.184 64.763C70.797 64.841 70.412 64.898 70.038 64.969C69.85 65.003 69.665 65.037 69.482 65.071C69.298 65.101 69.115 65.115 68.935 65.138C68.574 65.18 68.223 65.221 67.883 65.261C67.543 65.3 67.212 65.304 66.894 65.328C66.576 65.344 66.271 65.369 65.98 65.379C65.689 65.378 65.413 65.378 65.154 65.377C64.893 65.378 64.65 65.38 64.424 65.381C64.198 65.379 63.993 65.358 63.806 65.349C63.055 65.312 62.624 65.291 62.624 65.291C62.624 65.291 63.045 65.386 63.781 65.552C63.874 65.571 63.971 65.593 64.073 65.615C64.175 65.637 64.283 65.659 64.395 65.676C64.621 65.706 64.866 65.738 65.127 65.772C65.39 65.804 65.669 65.839 65.964 65.875C66.26 65.899 66.571 65.906 66.897 65.92C67.223 65.929 67.564 65.958 67.915 65.95C68.267 65.936 68.631 65.921 69.005 65.906C69.192 65.896 69.383 65.894 69.574 65.877C69.765 65.856 69.958 65.834 70.154 65.812C70.545 65.764 70.947 65.727 71.35 65.659C72.152 65.496 72.993 65.371 73.816 65.113C74.653 64.906 75.469 64.587 76.297 64.303C76.896 64.033 77.503 63.783 78.086 63.497C78.281 63.402 78.473 63.302 78.661 63.197C79.439 62.824 80.137 62.338 80.833 61.909C81.336 61.557 81.818 61.201 82.271 60.844C83.026 60.249 83.701 59.649 84.259 59.052C84.487 58.818 84.709 58.6 84.909 58.38C85.099 58.152 85.279 57.936 85.449 57.732C85.616 57.528 85.773 57.337 85.917 57.161C86.057 56.982 86.171 56.803 86.28 56.649C86.333 56.571 86.383 56.497 86.43 56.427C86.618 56.149 86.759 55.94 86.846 55.812C86.911 55.716 86.945 55.666 86.945 55.666C86.945 55.666 86.926 55.685 86.89 55.723C86.781 55.836 86.515 56.111 86.122 56.517C86.056 56.584 85.99 56.656 85.919 56.732C85.848 56.807 85.774 56.885 85.692 56.963C85.527 57.116 85.348 57.282 85.157 57.459C84.969 57.638 84.768 57.828 84.556 58.027Z" fill="#334725"/>
<path d="M49.0101 50.2879C49.0281 50.5329 49.0551 50.7319 49.0691 50.8779C49.0911 51.0729 49.1031 51.1769 49.1031 51.1769C49.1031 51.1769 49.1121 51.0719 49.1281 50.8759C49.1461 50.6799 49.1561 50.3939 49.2021 50.0309C49.2711 49.3059 49.4121 48.2749 49.6801 47.0689C49.9591 45.8649 50.3741 44.4859 50.9711 43.0749C51.0451 42.8979 51.1231 42.7219 51.2051 42.5449C51.4501 42.0159 51.7261 41.4889 52.0071 40.9579C52.2021 40.6079 52.4091 40.2609 52.6261 39.9189C52.8431 39.5769 53.0701 39.2389 53.3071 38.9089C53.5431 38.5779 53.7891 38.2539 54.0431 37.9379C54.2971 37.6219 54.5581 37.3139 54.8261 37.0159C55.1001 36.7229 55.3741 36.4339 55.6501 36.1549C55.9271 35.8759 56.2071 35.6059 56.4941 35.3519C56.6391 35.2269 56.7821 35.1029 56.9261 34.9799C57.2121 34.7359 57.4961 34.4989 57.7811 34.2769C57.9241 34.1659 58.0661 34.0589 58.2091 33.9559C58.4921 33.7459 58.7731 33.5499 59.0491 33.3639C59.3251 33.1789 59.5951 33.0039 59.8561 32.8379C60.2521 32.5959 60.6301 32.3799 60.9831 32.1879C61.2181 32.0599 61.4421 31.9429 61.6531 31.8359C61.8641 31.7289 62.0621 31.6339 62.2441 31.5479C62.3351 31.5049 62.4221 31.4649 62.5051 31.4279C62.8341 31.2679 63.1021 31.1659 63.2811 31.0849C63.3711 31.0459 63.4401 31.0159 63.4871 30.9949C63.5341 30.9749 63.5581 30.9639 63.5581 30.9639C63.5581 30.9639 63.5321 30.9699 63.4831 30.9809C63.4581 30.9859 63.4281 30.9929 63.3911 31.0009C63.3541 31.0089 63.3121 31.0179 63.2641 31.0289C63.2161 31.0399 63.1631 31.0519 63.1031 31.0659C63.0441 31.0789 62.9791 31.0929 62.9101 31.1099C62.7711 31.1429 62.6111 31.1819 62.4351 31.2349C61.7241 31.4259 60.7181 31.7619 59.5711 32.3159C59.0021 32.5999 58.3871 32.9169 57.7731 33.3159C57.1501 33.6999 56.5211 34.1519 55.9001 34.6569C55.2831 35.1659 54.6671 35.7229 54.0881 36.3349C53.8021 36.6439 53.5221 36.9639 53.2501 37.2929C52.9781 37.6219 52.7141 37.9589 52.4601 38.3049C52.2161 38.6569 51.9811 39.0159 51.7581 39.3789C51.5351 39.7419 51.3231 40.1099 51.1231 40.4809C50.7291 41.2259 50.4031 41.9889 50.1201 42.7379C49.9811 43.1139 49.8571 43.4869 49.7461 43.8549C49.4151 44.9599 49.2061 46.0209 49.0911 46.9679C48.9391 48.2319 48.9461 49.2919 48.9951 50.0269C48.9981 50.1199 49.0031 50.2069 49.0101 50.2879Z" fill="#334725"/>
<path d="M72.9396 112.124C71.1706 112.07 69.1066 112.025 66.8956 111.995C65.7906 111.984 64.6476 111.96 63.4866 111.959C62.3256 111.954 61.1466 111.949 59.9676 111.945C58.7886 111.95 57.6096 111.955 56.4486 111.96C55.2876 111.972 54.1456 111.984 53.0396 111.996C50.8286 112.026 48.7646 112.071 46.9956 112.125C45.2266 112.172 43.7526 112.248 42.7206 112.284C41.6886 112.328 41.0996 112.365 41.0996 112.365C41.0996 112.365 41.6896 112.402 42.7206 112.446C43.7526 112.482 45.2266 112.558 46.9956 112.605C48.7646 112.659 50.8286 112.704 53.0396 112.734C54.1456 112.746 55.2876 112.758 56.4486 112.77C57.6096 112.775 58.7886 112.78 59.9676 112.785C61.1466 112.78 62.3266 112.775 63.4866 112.771C64.6476 112.771 65.7896 112.746 66.8956 112.735C69.1066 112.706 71.1706 112.661 72.9396 112.606C74.7086 112.559 76.1826 112.482 77.2146 112.447C78.2466 112.403 78.8356 112.365 78.8356 112.365C78.8356 112.365 78.2456 112.328 77.2146 112.283C76.1826 112.248 74.7086 112.171 72.9396 112.124Z" fill="#334725"/>
</svg>
