<svg width="110" height="126" viewBox="0 0 110 126" fill="none" xmlns="http://www.w3.org/2000/svg">
<path d="M53.4214 117.589L54.5264 118.227L55.3804 117.734C54.9374 117.701 54.4964 117.669 54.0514 117.636C53.8424 117.621 53.6304 117.605 53.4214 117.589Z" fill="#518F28"/>
<path d="M50.56 114.122C49.377 114.043 48.188 113.963 47.001 113.883L49.401 115.269C51.009 115.399 52.615 115.529 54.205 115.658C55.603 115.765 56.986 115.887 58.36 116.013L60.376 114.849C58.91 114.741 57.435 114.632 55.945 114.521C54.162 114.389 52.365 114.256 50.56 114.122Z" fill="#518F28"/>
<path d="M52.4553 111.008C50.6503 110.887 48.8373 110.766 47.0253 110.644C44.8813 110.48 42.7443 110.336 40.6133 110.195L42.9733 111.558C43.7403 111.606 44.5063 111.652 45.2733 111.707C47.0873 111.841 48.9023 111.974 50.7093 112.108C52.5153 112.254 54.3153 112.4 56.1003 112.544C58.5273 112.729 60.9133 112.957 63.2653 113.182L65.3733 111.965C62.9033 111.782 60.3893 111.597 57.8403 111.408C56.0573 111.275 54.2593 111.142 52.4553 111.008Z" fill="#518F28"/>
<path d="M59.734 108.293C57.951 108.161 56.154 108.027 54.349 107.893C52.544 107.772 50.731 107.651 48.919 107.529C45.297 107.252 41.671 107.025 38.103 106.79C36.823 106.708 35.554 106.626 34.291 106.545L36.714 107.944C40.166 108.148 43.667 108.343 47.167 108.592C48.981 108.726 50.796 108.859 52.603 108.992C54.409 109.138 56.209 109.284 57.994 109.428C61.459 109.692 64.862 110.043 68.164 110.352L70.369 109.079C70.315 109.075 70.262 109.071 70.207 109.067C66.811 108.816 63.301 108.557 59.734 108.293Z" fill="#518F28"/>
<path d="M92.5132 91.9392L86.2052 92.2132L79.8982 92.5092L73.5932 92.8432C71.4922 92.9602 69.3912 93.0872 67.2902 93.2162C65.1892 93.3492 63.0892 93.4862 60.9902 93.6332L54.6932 94.0922L51.5452 94.3302L48.3982 94.5802L48.3882 94.5812L48.3782 94.5802L46.1602 94.2862L43.9372 94.0292L41.7102 93.8072L39.4802 93.6172L37.2482 93.4562L35.0142 93.3232L32.7782 93.2152L30.5412 93.1302L28.3042 93.0672L26.0662 93.0252L23.8282 93.0032L21.5892 92.9942C20.0972 92.9942 18.6042 93.0062 17.1122 93.0272C15.6202 93.0502 12.9622 93.1702 11.4702 93.2122L12.1772 93.8082C12.2742 93.8682 12.8252 94.1502 12.9242 94.2072L13.7902 94.7072C14.0572 94.6992 14.3192 94.6892 14.5892 94.6822C19.6362 97.3472 25.1282 100.048 30.4612 102.565C29.3262 102.513 28.2232 102.465 27.1482 102.419L30.6342 104.432C31.3872 104.465 32.1442 104.497 32.9072 104.53C33.7842 104.569 34.6662 104.609 35.5532 104.649C36.4392 104.701 37.3292 104.753 38.2232 104.806C41.7992 105.018 45.4322 105.218 49.0622 105.477C50.8762 105.611 52.6912 105.744 54.4982 105.878C56.3042 106.024 58.1042 106.17 59.8892 106.314C63.4602 106.586 66.9672 106.952 70.3642 107.267C71.2712 107.351 72.1632 107.44 73.0502 107.532L76.1082 105.766C73.6332 105.517 71.1462 105.281 68.6602 105.06C63.0302 102.39 57.2232 99.4852 52.4032 96.7702C54.2312 97.1042 56.0042 97.4812 57.7002 97.9102C59.9892 98.4892 62.1992 99.0402 64.3402 99.5652C67.8862 101.554 72.0252 103.67 76.2102 105.706L77.8502 104.759C75.3212 103.53 72.8072 102.272 70.4342 101.026C73.9542 101.849 77.2802 102.584 80.4802 103.24L82.5962 102.018C81.8932 101.879 81.1872 101.738 80.4692 101.59C81.5172 101.52 82.5772 101.453 83.6472 101.398C83.6552 101.398 83.6642 101.397 83.6722 101.397L84.7352 100.783C84.0402 100.817 83.3422 100.852 82.6532 100.886C81.1342 100.96 79.6332 101.033 78.1592 101.104C76.9582 100.847 75.7382 100.578 74.4952 100.299C75.0432 100.258 75.5962 100.219 76.1552 100.183C78.2432 100.046 80.4002 99.8822 82.5942 99.7702C83.6912 99.7092 84.7972 99.6482 85.9072 99.5862C86.2352 99.5702 86.5652 99.5532 86.8942 99.5372L87.8852 98.9652C86.8922 99.0082 85.8992 99.0512 84.9102 99.0932C83.8012 99.1482 82.6962 99.2022 81.6002 99.2562C79.4082 99.3632 77.2512 99.4672 75.1632 99.5692C74.0912 99.6242 73.0382 99.6782 72.0082 99.7302C71.0142 99.5002 70.0062 99.2642 68.9822 99.0202C69.0172 99.0172 69.0512 99.0142 69.0862 99.0112C70.9982 98.8602 73.0142 98.6882 75.1022 98.5522C77.1902 98.4152 79.3462 98.2512 81.5412 98.1392C82.6382 98.0782 83.7442 98.0172 84.8542 97.9562C85.9642 97.9012 87.0792 97.8462 88.1942 97.7922C88.8132 97.7632 89.4312 97.7402 90.0502 97.7152L91.0432 97.1422C89.7642 97.1972 88.4812 97.2542 87.1932 97.3202C86.0792 97.3682 84.9662 97.4162 83.8572 97.4642C82.7482 97.5192 81.6442 97.5732 80.5482 97.6272C78.3562 97.7342 76.1992 97.8382 74.1112 97.9402C71.3122 98.0832 68.6402 98.2202 66.1752 98.3462C65.3812 98.1532 64.5782 97.9572 63.7642 97.7572C65.1122 97.6312 66.5402 97.5082 68.0332 97.3832C69.9452 97.2322 71.9612 97.0602 74.0492 96.9242C76.1372 96.7872 78.2932 96.6232 80.4882 96.5112C81.5852 96.4502 82.6912 96.3892 83.8012 96.3272C84.9112 96.2722 86.0262 96.2172 87.1412 96.1632C89.1522 96.0692 91.1612 96.0002 93.1472 95.9282L94.1722 95.3362C93.7102 95.3552 93.2522 95.3742 92.7862 95.3942C90.5942 95.4872 88.3662 95.5762 86.1402 95.6912C85.0262 95.7392 83.9132 95.7872 82.8042 95.8352C81.6952 95.8902 80.5902 95.9442 79.4952 95.9982C77.3032 96.1052 75.1462 96.2092 73.0582 96.3112C68.8832 96.5252 64.9852 96.7242 61.6452 96.8952C61.2662 96.9152 60.8952 96.9342 60.5312 96.9532C59.9502 96.8082 59.3642 96.6602 58.7722 96.5112C58.9152 96.4962 59.0592 96.4812 59.2052 96.4652C59.9642 96.3922 60.7632 96.3152 61.5962 96.2342C63.2622 96.0702 65.0692 95.9132 66.9802 95.7542C68.8922 95.6032 70.9082 95.4312 72.9962 95.2952C75.0842 95.1582 77.2412 94.9942 79.4352 94.8822C80.5322 94.8212 81.6372 94.7602 82.7482 94.6982C83.8582 94.6432 84.9732 94.5882 86.0882 94.5342C88.3182 94.4302 90.5492 94.3562 92.7452 94.2752C93.2942 94.2552 93.8412 94.2352 94.3852 94.2162C94.9292 94.2032 95.4712 94.1902 96.0092 94.1772C96.0682 94.1762 96.1252 94.1742 96.1832 94.1732C96.5182 93.9772 96.8382 93.7632 97.1502 93.5392C95.3822 93.6132 93.5712 93.6882 91.7332 93.7652C89.5412 93.8582 87.3132 93.9482 85.0872 94.0622C83.9732 94.1102 82.8602 94.1582 81.7512 94.2062C80.6422 94.2612 79.5372 94.3152 78.4422 94.3692C76.2502 94.4762 74.0932 94.5802 72.0052 94.6822C67.8302 94.8962 63.9322 95.0952 60.5922 95.2662C58.3582 95.3822 56.3742 95.4852 54.7212 95.5712C54.3302 95.4912 53.9372 95.4122 53.5412 95.3362C54.2772 95.2502 55.0972 95.1562 55.9972 95.0632C56.6732 94.9922 57.3932 94.9162 58.1522 94.8362C58.9112 94.7632 59.7102 94.6852 60.5432 94.6052C62.2092 94.4412 64.0162 94.2842 65.9272 94.1252C67.8392 93.9742 69.8552 93.8032 71.9432 93.6662C74.0312 93.5292 76.1872 93.3652 78.3822 93.2532C79.4792 93.1922 80.5852 93.1312 81.6952 93.0692C82.8052 93.0142 83.9202 92.9592 85.0352 92.9052C87.2652 92.8012 89.4962 92.7272 91.6922 92.6462C92.2412 92.6262 92.7882 92.6062 93.3322 92.5872C93.8762 92.5742 94.4182 92.5612 94.9562 92.5482C96.0332 92.5242 97.0962 92.4992 98.1422 92.4762C98.2422 92.4732 98.3412 92.4712 98.4402 92.4692C98.5712 92.3442 98.6992 92.2182 98.8242 92.0882L99.2602 91.7002L92.5132 91.9392ZM34.5552 102.761C29.0372 100.186 23.2462 97.3792 17.9142 94.6082C20.0702 94.5702 22.2882 94.5562 24.5422 94.5702C29.8732 97.5012 35.8772 100.483 41.4332 103.123C39.0662 102.991 36.7682 102.87 34.5552 102.761ZM45.5212 103.36C39.6272 100.59 33.4622 97.5572 28.0122 94.6152C30.4672 94.6652 32.9462 94.7532 35.4192 94.8892C40.6242 97.8862 46.8552 101.031 52.6702 103.817C50.2462 103.653 47.8572 103.501 45.5212 103.36ZM64.2832 104.687C61.8002 104.483 59.3292 104.292 56.8842 104.114C50.8092 101.244 44.4942 98.1002 39.1852 95.1352C42.1222 95.3582 45.0242 95.6552 47.8352 96.0422C52.6392 98.9002 58.6282 101.96 64.2832 104.687Z" fill="#518F28"/>
<path d="M5.52197 24.0983V83.5933C5.52197 88.4273 8.10097 92.8943 12.288 95.3123L54.525 119.698L96.763 95.3123C100.95 92.8953 103.529 88.4283 103.529 83.5933V24.0983C95.824 19.6493 87.664 16.3343 79.281 14.1463C79.354 14.3583 79.42 14.5733 79.475 14.7923C79.539 15.0463 79.584 15.3023 79.622 15.5593C87.502 17.6763 95.116 20.7853 102.257 24.8353V40.4133L77.151 41.2473L102.257 42.0813V83.5913C102.257 86.7933 100.989 89.8333 98.823 92.0883C98.698 92.2183 98.569 92.3443 98.439 92.4693C98.036 92.8533 97.606 93.2103 97.15 93.5393C96.838 93.7633 96.518 93.9773 96.183 94.1733C96.164 94.1843 96.147 94.1963 96.128 94.2083L94.173 95.3373L93.148 95.9293L91.045 97.1433L90.052 97.7163L87.888 98.9663L86.897 99.5383L84.739 100.784L83.676 101.398L82.6 102.019L80.484 103.241L77.854 104.76L76.214 105.707L76.111 105.767L73.053 107.533L70.372 109.081L68.167 110.354L65.375 111.966L63.267 113.183L60.378 114.851L58.362 116.015L55.381 117.736L54.527 118.229L53.422 117.591L49.403 115.27L47.003 113.884L42.974 111.558L40.614 110.195L36.716 107.945L34.293 106.546L30.635 104.434L27.149 102.421L13.792 94.7093L12.926 94.2093C12.827 94.1523 12.733 94.0883 12.636 94.0283C9.02797 91.8073 6.79597 87.8443 6.79597 83.5923V42.0833L31.952 41.2473L6.79597 40.4113V24.8363C14.535 20.4463 22.829 17.1603 31.416 15.0473C31.491 14.5593 31.596 14.0933 31.739 13.6553C22.665 15.8233 13.829 19.3023 5.52197 24.0983Z" fill="#334725"/>
<path d="M54.3708 8.13799C54.5478 7.05899 54.7938 6.06898 55.1058 5.17198C54.9118 5.17098 54.7188 5.16699 54.5248 5.16699C54.1998 5.16699 53.8748 5.17199 53.5488 5.17499C53.8638 6.05999 54.1048 7.04899 54.2758 8.13899C54.3078 8.13899 54.3388 8.13799 54.3708 8.13799Z" fill="#D1923B"/>
<path d="M71.515 6.54163C71.601 7.06663 71.644 7.55763 71.66 7.98763C73.747 8.52963 75.499 9.41762 76.832 10.5796C86.963 12.8236 96.833 16.6116 106.08 21.9506V84.9496C106.08 89.7836 103.501 94.2506 99.314 96.6686L54.525 122.528L9.736 96.6686C5.549 94.2516 2.97 89.7846 2.97 84.9496V21.9506C12.856 16.2426 23.453 12.3056 34.32 10.1356C35.47 9.33962 36.717 8.99562 37.668 8.85562C37.785 8.00162 37.978 7.19462 38.232 6.43262C25.334 8.44062 12.852 12.8166 1.485 19.3786L0 20.2356V21.9506V84.9496C0 90.8266 3.161 96.3016 8.251 99.2406L53.04 125.1L54.525 125.957L56.01 125.1L100.799 99.2406C105.888 96.3026 109.05 90.8266 109.05 84.9496V21.9506V20.2356L107.565 19.3786C96.403 12.9336 84.166 8.59763 71.515 6.54163Z" fill="#D1923B"/>
<path d="M13.9781 73.2547L11.3491 79.1657H23.1701V67.3438H11.3491L13.9781 73.2547Z" fill="#334725"/>
<path d="M86.9502 67.3438V79.1657H98.7722L96.1422 73.2547L98.7722 67.3438H86.9502Z" fill="#334725"/>
<path d="M78.8469 63.7577C78.9509 63.8037 79.0579 63.8477 79.1649 63.8907C79.0459 64.6607 78.8649 65.6157 78.6029 66.5047C78.5569 66.6627 78.6929 66.8077 78.8849 66.8087L79.4399 66.8107C79.4969 66.8107 79.5509 66.7967 79.5989 66.7747C79.6369 66.7607 79.6729 66.7397 79.7039 66.7097C80.0999 66.3157 81.0009 65.4417 81.8319 64.8187C81.8799 64.8417 81.9449 64.8727 82.0269 64.9087C83.2159 65.4337 87.3829 66.9047 91.0799 63.8037C93.9059 61.4327 94.3119 58.4917 94.6709 55.8967C94.8439 54.6437 95.0079 53.4597 95.4289 52.4617C95.5329 52.2147 95.4889 51.9307 95.3149 51.7267C95.2449 51.6447 95.1579 51.5817 95.0629 51.5397C94.9219 51.4777 94.7619 51.4617 94.6069 51.5007C94.5789 51.5077 91.7429 52.2057 88.2059 52.4967C87.3969 52.5637 86.6229 52.7627 85.8989 53.0787C85.2419 51.6727 84.1989 50.5347 83.2279 49.4767C82.4049 48.5797 81.6269 47.7317 81.2009 46.8367C81.1259 46.6797 80.9979 46.5577 80.8429 46.4897C80.7729 46.4587 80.6969 46.4387 80.6179 46.4317C80.3659 46.4087 80.1199 46.5207 79.9729 46.7267C79.9559 46.7507 78.2379 49.1257 75.6479 51.7247C74.0079 53.3707 73.3339 55.4917 73.7479 57.6987C74.2369 60.2987 76.1429 62.5637 78.8469 63.7577ZM79.8229 65.3757C79.8559 64.9257 79.9089 64.4277 79.9909 63.9707C80.1849 63.9077 80.6059 63.7587 81.1479 63.5077C81.2059 63.7527 81.2739 63.9947 81.3529 64.2327C80.9079 64.5867 80.3789 64.9897 79.8229 65.3757ZM80.9199 60.7017C80.7189 60.8837 80.5209 61.0697 80.3259 61.2577L79.9879 61.5927C79.9779 61.6037 79.9669 61.6137 79.9569 61.6237C79.9989 61.3477 80.0399 61.0417 80.0749 60.7077C80.0959 60.5067 80.1159 60.2947 80.1329 60.0757L80.1709 60.0337C80.3749 59.8087 80.5889 59.5857 80.8019 59.3657C80.9289 59.2337 81.0589 59.1047 81.1889 58.9757C81.0489 59.5437 80.9579 60.1217 80.9199 60.7017ZM88.2639 53.2007C91.9059 52.9007 94.7769 52.1857 94.7769 52.1857C93.4229 55.3947 94.5769 59.9447 90.6239 63.2607C87.2099 66.1257 83.3109 64.7017 82.3109 64.2607C82.1529 64.1907 82.0679 64.1457 82.0679 64.1457C80.4039 59.3867 83.3209 53.6077 88.2639 53.2007ZM76.1549 52.2287C78.8209 49.5537 80.5539 47.1437 80.5539 47.1437C81.5519 49.2377 84.0909 50.8887 85.2529 53.3967C84.1519 54.0137 83.1889 54.9247 82.4299 56.0937C82.0029 56.7517 81.6639 57.4647 81.4129 58.2077C81.3329 58.2797 81.2529 58.3507 81.1749 58.4237C80.9449 58.6337 80.7239 58.8527 80.5039 59.0727C80.3919 59.1857 80.2809 59.2977 80.1709 59.4117C80.1789 59.2327 80.1869 59.0497 80.1889 58.8637C80.1959 58.6407 80.1959 58.4127 80.1889 58.1807C80.1869 58.0647 80.1839 57.9477 80.1819 57.8297C80.1759 57.7117 80.1709 57.5937 80.1649 57.4737C80.1639 57.4587 80.1629 57.4427 80.1629 57.4277C80.3149 57.2447 80.4729 57.0617 80.6329 56.8837C80.8129 56.6847 80.9999 56.4907 81.1859 56.2977C81.3749 56.1077 81.5659 55.9197 81.7669 55.7437C81.8659 55.6547 81.9689 55.5697 82.0709 55.4837C82.1749 55.4017 82.2779 55.3167 82.3869 55.2437C82.4949 55.1627 82.6019 55.1027 82.7219 55.0287C82.8379 54.9597 82.9529 54.8887 83.0689 54.8017C83.1279 54.7617 83.1829 54.7187 83.2359 54.6737C83.2899 54.6297 83.3449 54.5877 83.3959 54.5407C83.5009 54.4497 83.5999 54.3547 83.6959 54.2557C83.8859 54.0567 84.0649 53.8477 84.2269 53.6267C84.3899 53.4067 84.5389 53.1777 84.6679 52.9377C84.5089 53.1587 84.3339 53.3657 84.1539 53.5667C83.9709 53.7657 83.7829 53.9577 83.5809 54.1337C83.4789 54.2207 83.3769 54.3067 83.2709 54.3867C83.2199 54.4287 83.1639 54.4647 83.1099 54.5037C83.0559 54.5427 83.0019 54.5797 82.9459 54.6127C82.8399 54.6827 82.7179 54.7447 82.5979 54.8097C82.4839 54.8727 82.3509 54.9397 82.2369 55.0167C82.1169 55.0887 82.0059 55.1717 81.8919 55.2517C81.7809 55.3347 81.6709 55.4187 81.5659 55.5077C81.3529 55.6837 81.1509 55.8697 80.9509 56.0587C80.8529 56.1547 80.7529 56.2487 80.6589 56.3487C80.5629 56.4467 80.4689 56.5467 80.3759 56.6467C80.2929 56.7367 80.2109 56.8267 80.1299 56.9187C80.1249 56.8617 80.1199 56.8047 80.1139 56.7467C80.1019 56.6247 80.0919 56.4997 80.0769 56.3787C80.0609 56.2587 80.0449 56.1377 80.0289 56.0167L79.9799 55.6497C79.9649 55.5317 79.9459 55.4137 79.9349 55.2947C79.9239 55.1987 79.9139 55.1037 79.9039 55.0077C79.9959 54.9257 80.0899 54.8437 80.1839 54.7637L80.6909 54.3397C80.8619 54.2007 81.0329 54.0617 81.2089 53.9307C81.3859 53.8007 81.5599 53.6667 81.7409 53.5457L82.0179 53.3587C82.1109 53.2987 82.2019 53.2287 82.2939 53.1617C82.3869 53.0957 82.4729 53.0227 82.5629 52.9537C82.6499 52.8817 82.7379 52.8097 82.8209 52.7337C82.9049 52.6567 82.9869 52.5797 83.0659 52.4987C83.1449 52.4187 83.2229 52.3357 83.2949 52.2477C83.3679 52.1617 83.4359 52.0707 83.5009 51.9787C83.5619 51.8837 83.6219 51.7877 83.6629 51.6827C83.6039 51.7777 83.5279 51.8597 83.4529 51.9407C83.3759 52.0197 83.2979 52.0977 83.2139 52.1697C83.1319 52.2427 83.0459 52.3127 82.9599 52.3807C82.8739 52.4487 82.7849 52.5137 82.6949 52.5777C82.5149 52.7037 82.3319 52.8267 82.1439 52.9377C82.0499 52.9937 81.9579 53.0487 81.8599 53.1037L81.5699 53.2697C81.3719 53.3827 81.1789 53.5007 80.9929 53.6297C80.8059 53.7557 80.6239 53.8897 80.4429 54.0237C80.2619 54.1577 80.0879 54.2997 79.9139 54.4427C79.8969 54.4567 79.8799 54.4717 79.8629 54.4857C79.8509 54.2787 79.8419 54.0727 79.8399 53.8667C79.8369 53.5607 79.8379 53.2567 79.8459 52.9577C79.9489 52.8617 80.0559 52.7657 80.1629 52.6727C80.2889 52.5657 80.4149 52.4597 80.5429 52.3557C80.6709 52.2517 80.8009 52.1527 80.9349 52.0597C81.0009 52.0117 81.0679 51.9677 81.1359 51.9237C81.2039 51.8807 81.2729 51.8417 81.3429 51.8067C81.4219 51.7677 81.4929 51.7327 81.5719 51.6877C81.6499 51.6447 81.7199 51.5997 81.7939 51.5547C81.9389 51.4647 82.0769 51.3667 82.2129 51.2667C82.4849 51.0667 82.7459 50.8527 82.9949 50.6247C82.7079 50.8017 82.4209 50.9737 82.1309 51.1387C81.9849 51.2197 81.8399 51.3007 81.6919 51.3747C81.6189 51.4107 81.5429 51.4487 81.4709 51.4797C81.4009 51.5127 81.3179 51.5427 81.2439 51.5737C80.9099 51.7037 80.6209 51.8927 80.3439 52.0927C80.2039 52.1917 80.0699 52.2957 79.9389 52.4057C79.9139 52.4267 79.8899 52.4477 79.8649 52.4687C79.8909 52.0177 79.9229 51.5807 79.9639 51.1677C79.9729 51.0837 79.9819 51.0007 79.9909 50.9187C80.0559 50.8977 80.1189 50.8767 80.1819 50.8517C80.2839 50.8107 80.3849 50.7677 80.4839 50.7197C80.5829 50.6727 80.6799 50.6187 80.7729 50.5597C80.8669 50.5017 80.9579 50.4377 81.0429 50.3667C81.1279 50.2927 81.2049 50.2217 81.2859 50.1547C81.3659 50.0867 81.4479 50.0187 81.5319 49.9547C81.6999 49.8257 81.8719 49.7007 82.0529 49.5847C81.8529 49.6627 81.6599 49.7587 81.4739 49.8667C81.3809 49.9207 81.2889 49.9777 81.1979 50.0377C81.1069 50.0977 81.0209 50.1647 80.9349 50.2177C80.8459 50.2697 80.7589 50.3227 80.6649 50.3657C80.5729 50.4117 80.4769 50.4507 80.3819 50.4907C80.2859 50.5297 80.1879 50.5647 80.0899 50.5967C80.0679 50.6037 80.0459 50.6107 80.0239 50.6177C80.0489 50.4027 80.0749 50.1957 80.1009 49.9977C80.2009 49.2737 80.3019 48.6707 80.3769 48.2497C80.4529 47.8277 80.5019 47.5867 80.5019 47.5867C80.5019 47.5867 80.4049 47.8127 80.2659 48.2207C80.1269 48.6287 79.9429 49.2167 79.7749 49.9377C79.7309 50.1247 79.6869 50.3197 79.6459 50.5237C79.6309 50.5137 79.6159 50.5037 79.6019 50.4927C79.5039 50.4187 79.4009 50.3497 79.3039 50.2717C79.2539 50.2357 79.2049 50.1977 79.1559 50.1587C79.1069 50.1197 79.0569 50.0827 79.0089 50.0427C78.9609 50.0027 78.9099 49.9647 78.8639 49.9227C78.8139 49.8837 78.7659 49.8387 78.7149 49.7977C78.7399 49.8587 78.7629 49.9187 78.7949 49.9767C78.8269 50.0347 78.8599 50.0917 78.8969 50.1457C78.9349 50.1987 78.9729 50.2527 79.0149 50.3027C79.0569 50.3527 79.0999 50.4017 79.1449 50.4497C79.1909 50.4967 79.2379 50.5417 79.2859 50.5857C79.3329 50.6307 79.3829 50.6727 79.4349 50.7127C79.4849 50.7517 79.5359 50.7907 79.5879 50.8287C79.5709 50.9207 79.5539 51.0137 79.5389 51.1087C79.4759 51.4787 79.4179 51.8707 79.3769 52.2757C79.3649 52.2627 79.3529 52.2497 79.3409 52.2377C79.2579 52.1547 79.1719 52.0757 79.0839 51.9977C78.9969 51.9197 78.9069 51.8437 78.8129 51.7687L78.5359 51.5657C78.4459 51.4977 78.3529 51.4317 78.2639 51.3617C78.1749 51.2917 78.0819 51.2237 77.9939 51.1497C77.9039 51.0777 77.8139 51.0057 77.7249 50.9297C77.7799 51.0337 77.8439 51.1317 77.9119 51.2267C77.9819 51.3197 78.0519 51.4147 78.1299 51.5017C78.2069 51.5897 78.2839 51.6777 78.3689 51.7597C78.4529 51.8437 78.5369 51.9207 78.6199 51.9997C78.6999 52.0757 78.7809 52.1527 78.8599 52.2337C78.9389 52.3127 79.0149 52.3967 79.0919 52.4787C79.1689 52.5607 79.2449 52.6437 79.3189 52.7287C79.3239 52.7347 79.3289 52.7407 79.3339 52.7467C79.3049 53.1127 79.2839 53.4887 79.2869 53.8707C79.2879 54.0957 79.2929 54.3227 79.3039 54.5497L79.2809 54.5307L78.8829 54.1747C78.6179 53.9367 78.3509 53.6987 78.0899 53.4567L77.6929 53.0987C77.6269 53.0407 77.5659 52.9787 77.5009 52.9187C77.4369 52.8587 77.3749 52.7967 77.3139 52.7327C77.1939 52.6047 77.0749 52.4757 76.9699 52.3347C76.9159 52.2647 76.8649 52.1937 76.8189 52.1177C76.7729 52.0417 76.7269 51.9647 76.6999 51.8787C76.7079 52.0617 76.7749 52.2397 76.8509 52.4057C76.8909 52.4887 76.9349 52.5707 76.9809 52.6497C77.0269 52.7297 77.0769 52.8067 77.1299 52.8827C77.2359 53.0327 77.3459 53.1807 77.4689 53.3167C77.5289 53.3867 77.5909 53.4547 77.6519 53.5187L77.8369 53.7157C78.0899 53.9727 78.3419 54.2297 78.6029 54.4777L78.9999 54.8457C79.1149 54.9487 79.2279 55.0517 79.3469 55.1527C79.3539 55.2217 79.3589 55.2907 79.3669 55.3607C79.3809 55.4847 79.4019 55.6097 79.4199 55.7337L79.4719 56.0927C79.4899 56.2137 79.5069 56.3337 79.5239 56.4537C79.5319 56.5157 79.5389 56.5767 79.5449 56.6367C79.3799 56.4627 79.2129 56.2917 79.0379 56.1267C78.8479 55.9497 78.6539 55.7757 78.4519 55.6107C78.3529 55.5267 78.2479 55.4487 78.1449 55.3677C78.0379 55.2917 77.9289 55.2097 77.8209 55.1427L77.6569 55.0367L77.5029 54.9337C77.4009 54.8647 77.3039 54.7857 77.2069 54.7077L77.0649 54.5857L76.9289 54.4557C76.8389 54.3687 76.7529 54.2757 76.6699 54.1807C76.5849 54.0867 76.5059 53.9887 76.4269 53.8887C76.3499 53.7877 76.2759 53.6847 76.2029 53.5797C76.0589 53.3697 75.9229 53.1517 75.8049 52.9237C75.8879 53.1677 75.9939 53.4037 76.1159 53.6327C76.1759 53.7477 76.2429 53.8587 76.3109 53.9697C76.3809 54.0787 76.4529 54.1877 76.5299 54.2927C76.6079 54.3977 76.6889 54.4997 76.7759 54.5987L76.9079 54.7457L77.0479 54.8857C77.0929 54.9337 77.1449 54.9747 77.1949 55.0187C77.2449 55.0617 77.2939 55.1067 77.3479 55.1447L77.6609 55.3767C77.7679 55.4517 77.8579 55.5307 77.9579 55.6077C78.0539 55.6887 78.1529 55.7677 78.2469 55.8527C78.4379 56.0187 78.6199 56.1947 78.7999 56.3727C78.9809 56.5497 79.1569 56.7337 79.3289 56.9197C79.4239 57.0227 79.5179 57.1287 79.6109 57.2347C79.6189 57.3257 79.6269 57.4167 79.6359 57.5077C79.6459 57.6237 79.6569 57.7397 79.6669 57.8547C79.6739 57.9697 79.6809 58.0837 79.6879 58.1977C79.7039 58.4247 79.7109 58.6477 79.7209 58.8667C79.7299 59.0297 79.7349 59.1887 79.7379 59.3467L78.7849 58.4727L77.4059 57.2247C77.2889 57.1207 77.1809 57.0167 77.0689 56.9127C76.9619 56.8037 76.8539 56.6967 76.7489 56.5847C76.5369 56.3637 76.3349 56.1307 76.1399 55.8927C76.0399 55.7747 75.9439 55.6537 75.8479 55.5337L75.5639 55.1667C75.3779 54.9197 75.1939 54.6697 75.0169 54.4137C75.1539 54.6927 75.3049 54.9657 75.4639 55.2337C75.6229 55.5017 75.7939 55.7637 75.9699 56.0217C76.1489 56.2787 76.3359 56.5297 76.5359 56.7727C76.6329 56.8967 76.7409 57.0117 76.8449 57.1307C76.9539 57.2447 77.0639 57.3617 77.1729 57.4707C77.6089 57.9137 78.0599 58.3417 78.5059 58.7737L79.1849 59.4117C79.3729 59.5867 79.5589 59.7617 79.7479 59.9357C79.7509 60.1977 79.7519 60.4497 79.7489 60.6877C79.7449 61.0417 79.7369 61.3667 79.7279 61.6577C79.6059 61.5197 79.4829 61.3847 79.3569 61.2507C79.2509 61.1377 79.1429 61.0267 79.0339 60.9157C78.9259 60.8047 78.8139 60.6967 78.7009 60.5917C78.4739 60.3807 78.2429 60.1727 78.0019 59.9757C77.8829 59.8757 77.7589 59.7807 77.6349 59.6867C77.5069 59.5967 77.3769 59.4987 77.2489 59.4187L77.0539 59.2917L76.8699 59.1687C76.8069 59.1297 76.7499 59.0817 76.6909 59.0367C76.6329 58.9907 76.5709 58.9497 76.5159 58.8987L76.3459 58.7527L76.1839 58.5967C76.0759 58.4927 75.9749 58.3807 75.8749 58.2687C75.7739 58.1567 75.6789 58.0387 75.5849 57.9197C75.4939 57.7987 75.4039 57.6767 75.3179 57.5507C75.1459 57.2997 74.9849 57.0397 74.8439 56.7667C74.9439 57.0577 75.0709 57.3397 75.2169 57.6117C75.2889 57.7487 75.3689 57.8817 75.4499 58.0137C75.5339 58.1437 75.6199 58.2737 75.7129 58.3987C75.7569 58.4637 75.8069 58.5227 75.8559 58.5837C75.9049 58.6447 75.9529 58.7057 76.0059 58.7637L76.1629 58.9387L76.3299 59.1057C76.4429 59.2147 76.5619 59.3197 76.6879 59.4157L76.8789 59.5577L77.0619 59.6917C77.1889 59.7807 77.2979 59.8757 77.4159 59.9677C77.5299 60.0667 77.6479 60.1587 77.7599 60.2607C77.9879 60.4587 78.2059 60.6687 78.4199 60.8817C78.6329 61.0957 78.8449 61.3127 79.0499 61.5357C79.2539 61.7577 79.4569 61.9877 79.6459 62.2167L79.7029 62.2857C79.6999 62.3457 79.6969 62.4027 79.6949 62.4567C79.6829 62.6707 79.6729 62.8387 79.6659 62.9537C79.6579 63.0687 79.6539 63.1297 79.6539 63.1297C79.6539 63.1297 79.7209 62.8927 79.8059 62.4707C79.8119 62.4427 79.8179 62.4107 79.8239 62.3807L79.9699 62.2257C80.1809 62.0017 80.3989 61.7747 80.6209 61.5547C80.7129 61.4637 80.8059 61.3737 80.8989 61.2847C80.8959 61.7857 80.9319 62.2867 81.0069 62.7787C80.2289 63.1527 79.6729 63.3157 79.6729 63.3157C79.4899 63.2487 79.3119 63.1757 79.1369 63.0987C74.5269 61.0677 72.6689 55.7277 76.1549 52.2287Z" fill="#518F28"/>
<path d="M83.5638 57.663C83.5858 57.509 83.6178 57.356 83.6498 57.204C83.6828 57.051 83.7218 56.9 83.7608 56.748C83.8428 56.445 83.9358 56.145 84.0478 55.85C83.9708 55.988 83.9008 56.13 83.8328 56.273C83.7668 56.417 83.7058 56.563 83.6478 56.711C83.5898 56.859 83.5388 57.009 83.4888 57.161C83.4418 57.313 83.3948 57.466 83.3568 57.621C83.3158 57.776 83.2878 57.933 83.2568 58.091C83.2318 58.25 83.2058 58.409 83.1928 58.57C83.1838 58.65 83.1768 58.731 83.1768 58.812C83.1748 58.893 83.1698 58.974 83.1718 59.056L83.1928 59.535C83.2038 59.694 83.1998 59.844 83.2038 59.997C83.2008 60.152 83.2028 60.307 83.1948 60.462C83.1848 60.772 83.1598 61.083 83.1298 61.392C83.1028 61.702 83.0658 62.012 83.0238 62.321C82.9818 62.629 82.9318 62.94 82.8768 63.242L82.8538 63.371C82.8088 63.414 82.7668 63.455 82.7258 63.494C82.3898 63.81 82.1978 63.991 82.1978 63.991C82.1978 63.991 82.4218 63.85 82.7958 63.579C82.8208 63.561 82.8488 63.54 82.8748 63.521L83.1088 63.493C83.4008 63.458 83.6998 63.429 83.9968 63.406C84.2938 63.383 84.5918 63.368 84.8898 63.353C85.1868 63.34 85.4848 63.332 85.7818 63.337C85.9298 63.337 86.0778 63.345 86.2258 63.35C86.3738 63.356 86.5198 63.368 86.6658 63.381C86.8108 63.398 86.9568 63.415 87.0978 63.445C87.2488 63.472 87.3908 63.505 87.5468 63.524L87.7808 63.551L88.0118 63.565C88.1658 63.569 88.3188 63.573 88.4718 63.565C88.6248 63.56 88.7768 63.546 88.9288 63.528C89.0798 63.511 89.2308 63.489 89.3798 63.46C89.6788 63.404 89.9728 63.331 90.2578 63.231C90.1098 63.261 89.9608 63.282 89.8118 63.301C89.6628 63.32 89.5138 63.336 89.3648 63.346C89.2158 63.356 89.0668 63.365 88.9178 63.367C88.7688 63.37 88.6198 63.369 88.4718 63.36C88.3238 63.354 88.1768 63.341 88.0298 63.326L87.8118 63.296L87.5998 63.255C87.4588 63.226 87.3088 63.181 87.1648 63.149C87.0128 63.108 86.8608 63.082 86.7078 63.056C86.0978 62.96 85.4858 62.948 84.8778 62.954C84.5738 62.956 84.2698 62.974 83.9668 62.993C83.8178 63.003 83.6708 63.014 83.5218 63.027C83.7598 62.839 84.0198 62.627 84.2968 62.388C84.4638 62.244 84.6378 62.092 84.8158 61.932L84.8808 61.924C85.1708 61.887 85.4668 61.855 85.7598 61.827C86.0538 61.798 86.3488 61.778 86.6428 61.755C86.9368 61.733 87.2318 61.719 87.5258 61.71C87.8198 61.704 88.1128 61.701 88.4058 61.711L88.8478 61.738C88.9948 61.75 89.1488 61.752 89.3018 61.753C89.4538 61.75 89.6048 61.75 89.7558 61.739C89.9068 61.732 90.0568 61.719 90.2068 61.704C90.3558 61.686 90.5058 61.667 90.6538 61.643C90.8018 61.62 90.9498 61.594 91.0968 61.561C91.3898 61.499 91.6798 61.423 91.9628 61.325C91.8168 61.354 91.6688 61.376 91.5218 61.395C91.3748 61.415 91.2268 61.433 91.0798 61.446C90.9318 61.46 90.7848 61.473 90.6368 61.481C90.4898 61.491 90.3418 61.495 90.1948 61.498C90.0478 61.499 89.8998 61.502 89.7538 61.498C89.6068 61.497 89.4598 61.486 89.3148 61.478C89.1708 61.464 89.0278 61.455 88.8778 61.435L88.4308 61.383C88.1288 61.356 87.8268 61.341 87.5248 61.34C87.2238 61.339 86.9228 61.344 86.6238 61.356C86.3238 61.366 86.0248 61.389 85.7258 61.413C85.5958 61.424 85.4658 61.436 85.3358 61.448C85.4748 61.316 85.6158 61.182 85.7568 61.04C85.9288 60.873 86.0988 60.698 86.2678 60.515C86.4398 60.335 86.6118 60.15 86.7818 59.957C86.8008 59.936 86.8198 59.915 86.8388 59.894C87.0618 59.854 87.2898 59.819 87.5158 59.789C87.7728 59.755 88.0298 59.728 88.2868 59.703C88.5438 59.68 88.8008 59.663 89.0578 59.658C89.3148 59.654 89.5708 59.656 89.8228 59.682C89.9508 59.696 90.0658 59.714 90.1998 59.743L90.3928 59.778C90.4588 59.788 90.5298 59.793 90.5968 59.801C90.6658 59.81 90.7318 59.809 90.7998 59.812C90.8668 59.815 90.9338 59.816 91.0008 59.814C91.1348 59.813 91.2678 59.803 91.3998 59.791C91.5318 59.776 91.6628 59.758 91.7928 59.736C91.9228 59.713 92.0518 59.687 92.1798 59.655C92.4358 59.594 92.6878 59.516 92.9318 59.421C92.6778 59.483 92.4198 59.528 92.1628 59.563C92.0338 59.58 91.9048 59.594 91.7758 59.605C91.6468 59.616 91.5178 59.622 91.3888 59.625C91.2598 59.625 91.1318 59.627 91.0038 59.618C90.9398 59.616 90.8758 59.611 90.8128 59.603C90.7498 59.596 90.6848 59.592 90.6248 59.58C90.5628 59.569 90.5038 59.561 90.4408 59.547L90.2498 59.501C90.1288 59.468 89.9878 59.437 89.8568 59.416C89.3228 59.333 88.7888 59.343 88.2608 59.373C87.9968 59.388 87.7338 59.415 87.4718 59.447C87.3798 59.458 87.2878 59.471 87.1958 59.484C87.2278 59.446 87.2598 59.408 87.2918 59.369C87.3758 59.268 87.4598 59.166 87.5438 59.064C87.6238 58.961 87.7048 58.858 87.7848 58.755C87.9448 58.549 88.1058 58.343 88.2678 58.136C88.3448 58.04 88.4218 57.944 88.5008 57.849C88.6168 57.847 88.7338 57.846 88.8498 57.846C89.0588 57.847 89.2678 57.852 89.4768 57.855C89.6858 57.861 89.8948 57.868 90.1018 57.884C90.3088 57.9 90.5168 57.913 90.7208 57.942L91.0358 57.984C91.1388 58 91.2508 58.005 91.3578 58.016C91.4658 58.026 91.5728 58.028 91.6808 58.034C91.7888 58.034 91.8958 58.04 92.0038 58.033C92.1118 58.03 92.2188 58.023 92.3268 58.014C92.4338 58.004 92.5408 57.991 92.6468 57.971C92.8578 57.933 93.0698 57.88 93.2598 57.782C93.1578 57.813 93.0538 57.828 92.9488 57.84C92.8448 57.851 92.7398 57.859 92.6358 57.86C92.4268 57.863 92.2178 57.859 92.0108 57.836C91.8038 57.816 91.5968 57.79 91.3928 57.753C91.2908 57.733 91.1918 57.716 91.0868 57.693L90.7768 57.628C90.3528 57.535 89.9238 57.492 89.4968 57.461C89.2838 57.444 89.0698 57.439 88.8568 57.434C88.9958 57.276 89.1368 57.12 89.2798 56.968C89.5218 56.714 89.7638 56.464 90.0068 56.223C90.1358 56.217 90.2678 56.214 90.3988 56.214C90.5528 56.215 90.7068 56.216 90.8608 56.22C91.0148 56.224 91.1668 56.234 91.3178 56.251C91.3938 56.257 91.4678 56.268 91.5418 56.279C91.6148 56.292 91.6878 56.306 91.7558 56.327C91.8348 56.349 91.9048 56.372 91.9898 56.389C92.0718 56.409 92.1488 56.421 92.2288 56.436C92.3868 56.463 92.5448 56.48 92.7028 56.493C93.0188 56.52 93.3348 56.528 93.6498 56.518C93.3388 56.465 93.0298 56.409 92.7248 56.344C92.5728 56.31 92.4208 56.276 92.2718 56.235C92.1988 56.214 92.1228 56.193 92.0538 56.169C91.9858 56.148 91.9088 56.116 91.8388 56.09C91.7598 56.058 91.6798 56.034 91.5998 56.012C91.5198 55.992 91.4398 55.972 91.3608 55.958C91.2008 55.929 91.0408 55.91 90.8808 55.896C90.7208 55.88 90.5618 55.872 90.4018 55.871C90.3918 55.871 90.3828 55.871 90.3728 55.871C90.7168 55.547 91.0538 55.237 91.3808 54.949C91.4608 54.879 91.5398 54.811 91.6178 54.744C91.6248 54.748 91.6328 54.751 91.6398 54.755C91.6858 54.777 91.7328 54.799 91.7808 54.817C91.8758 54.855 91.9728 54.889 92.0708 54.918C92.2678 54.976 92.4728 55.012 92.6798 55.015C92.7848 55.014 92.8808 55.011 92.9778 55.013C93.0748 55.014 93.1728 55.016 93.2708 55.023C93.4658 55.035 93.6618 55.053 93.8578 55.085C93.6728 55.013 93.4798 54.96 93.2838 54.92C93.1858 54.9 93.0878 54.884 92.9878 54.87C92.8878 54.856 92.7858 54.851 92.6948 54.835C92.6018 54.818 92.5098 54.8 92.4188 54.773C92.3278 54.748 92.2388 54.715 92.1498 54.683C92.0608 54.65 91.9738 54.612 91.8888 54.571L91.8438 54.549C92.0168 54.401 92.1848 54.259 92.3458 54.125C92.9528 53.625 93.4698 53.219 93.8348 52.938C94.1998 52.657 94.4128 52.5 94.4128 52.5C94.4128 52.5 94.1748 52.615 93.7718 52.843C93.3698 53.071 92.8018 53.412 92.1478 53.863C91.9958 53.967 91.8398 54.077 91.6798 54.192C91.6788 54.185 91.6788 54.178 91.6778 54.171C91.6738 54.046 91.6628 53.92 91.6628 53.794C91.6588 53.731 91.6578 53.668 91.6578 53.605C91.6578 53.542 91.6538 53.478 91.6558 53.414C91.6558 53.35 91.6538 53.286 91.6568 53.222C91.6548 53.158 91.6598 53.091 91.6568 53.024C91.5918 53.139 91.5438 53.265 91.5068 53.392C91.4888 53.456 91.4718 53.52 91.4598 53.585C91.4478 53.65 91.4368 53.716 91.4278 53.781C91.4198 53.847 91.4148 53.913 91.4108 53.979C91.4058 54.045 91.4038 54.111 91.4048 54.178C91.4058 54.244 91.4078 54.31 91.4108 54.377C91.4108 54.381 91.4118 54.384 91.4118 54.388C91.3118 54.462 91.2118 54.538 91.1108 54.617C90.8158 54.844 90.5108 55.089 90.2058 55.351C90.2168 55.238 90.2238 55.124 90.2288 55.01C90.2348 54.89 90.2368 54.77 90.2358 54.648L90.2198 54.297C90.2158 54.181 90.2078 54.065 90.2068 53.948C90.2048 53.831 90.1998 53.714 90.2008 53.597C90.1998 53.479 90.1988 53.361 90.2008 53.242C90.1558 53.353 90.1218 53.468 90.0908 53.583C90.0628 53.699 90.0348 53.816 90.0158 53.934C89.9968 54.052 89.9768 54.17 89.9668 54.29C89.9548 54.411 89.9478 54.527 89.9398 54.644C89.9308 54.757 89.9228 54.871 89.9098 54.986C89.8988 55.101 89.8808 55.215 89.8668 55.33C89.8528 55.445 89.8358 55.559 89.8178 55.673C89.8168 55.682 89.8148 55.69 89.8138 55.699C89.5018 55.979 89.1878 56.272 88.8868 56.588C88.7398 56.741 88.5938 56.898 88.4508 57.057L88.4738 56.548L88.4998 55.997L88.5298 55.446L88.5568 54.896C88.5608 54.805 88.5708 54.715 88.5748 54.625C88.5838 54.535 88.5898 54.444 88.6028 54.354C88.6258 54.174 88.6498 53.994 88.6918 53.816C88.7118 53.727 88.7328 53.638 88.7608 53.552C88.7888 53.465 88.8168 53.377 88.8618 53.295C88.7328 53.432 88.6428 53.603 88.5628 53.774C88.5248 53.861 88.4908 53.949 88.4588 54.038C88.4278 54.127 88.3978 54.217 88.3738 54.309C88.3468 54.4 88.3268 54.492 88.3048 54.584C88.2858 54.676 88.2648 54.769 88.2518 54.862C88.2198 55.05 88.1988 55.232 88.1748 55.416L88.1168 55.97C88.0998 56.155 88.0788 56.339 88.0668 56.525L88.0318 57.082C88.0238 57.242 88.0158 57.401 88.0128 57.564C87.9518 57.638 87.8898 57.711 87.8298 57.787C87.6698 57.998 87.5098 58.208 87.3498 58.418C87.2708 58.523 87.1908 58.627 87.1128 58.731C87.0868 58.763 87.0608 58.795 87.0348 58.828C87.0598 58.614 87.0838 58.4 87.0988 58.184C87.1158 57.918 87.1288 57.651 87.1288 57.383C87.1318 57.249 87.1258 57.115 87.1238 56.981C87.1148 56.846 87.1088 56.707 87.0928 56.578L87.0548 56.19C87.0508 56.063 87.0438 55.935 87.0488 55.806C87.0498 55.677 87.0608 55.549 87.0708 55.419C87.0858 55.29 87.0998 55.161 87.1228 55.033C87.1418 54.904 87.1678 54.776 87.1948 54.648C87.2228 54.52 87.2558 54.393 87.2878 54.266C87.3568 54.013 87.4348 53.761 87.5278 53.514C87.4638 53.63 87.4048 53.748 87.3478 53.868C87.2928 53.989 87.2418 54.111 87.1928 54.235C87.1438 54.359 87.1008 54.485 87.0598 54.612C87.0208 54.739 86.9808 54.867 86.9498 54.997C86.9158 55.127 86.8918 55.259 86.8658 55.391C86.8448 55.524 86.8238 55.657 86.8128 55.792C86.7958 55.926 86.7988 56.063 86.7948 56.199L86.8118 56.6C86.8208 56.733 86.8178 56.859 86.8208 56.987C86.8188 57.117 86.8198 57.246 86.8138 57.376C86.8058 57.636 86.7838 57.896 86.7598 58.155C86.7368 58.415 86.7058 58.674 86.6708 58.933C86.6518 59.074 86.6298 59.216 86.6068 59.357C86.5338 59.445 86.4618 59.532 86.3898 59.618C86.2308 59.813 86.0678 60.001 85.9058 60.185C85.6338 60.494 85.3688 60.793 85.1078 61.076L85.1798 59.811L85.2768 57.895C85.2838 57.735 85.2958 57.581 85.3088 57.423C85.3238 57.266 85.3408 57.109 85.3608 56.952C85.3788 56.795 85.4048 56.638 85.4278 56.481C85.4538 56.324 85.4808 56.168 85.5108 56.011C85.5668 55.698 85.6338 55.386 85.7028 55.074C85.7738 54.762 85.8468 54.451 85.9278 54.141C85.6798 54.733 85.4808 55.345 85.3078 55.966C85.2648 56.121 85.2268 56.278 85.1898 56.435C85.1548 56.593 85.1168 56.75 85.0868 56.909C85.0538 57.067 85.0288 57.228 85.0048 57.388C84.9828 57.548 84.9628 57.713 84.9468 57.871C84.8778 58.508 84.8308 59.147 84.7768 59.785L84.7098 60.743C84.6918 61.014 84.6728 61.285 84.6568 61.556C84.4588 61.766 84.2668 61.966 84.0828 62.153C83.8248 62.415 83.5868 62.654 83.3698 62.868C83.3708 62.861 83.3718 62.854 83.3728 62.848C83.3968 62.691 83.4178 62.533 83.4378 62.375C83.4768 62.059 83.5118 61.743 83.5348 61.425C83.5548 61.107 83.5708 60.788 83.5708 60.469C83.5738 60.309 83.5668 60.149 83.5648 59.989C83.5538 59.828 83.5478 59.662 83.5278 59.508L83.4828 59.044C83.4778 58.892 83.4688 58.739 83.4758 58.585C83.4768 58.431 83.4898 58.278 83.5018 58.124C83.5188 57.971 83.5358 57.816 83.5638 57.663Z" fill="#518F28"/>
<path d="M50.7679 2.261C50.5099 2.009 50.2259 1.78601 49.9189 1.59201C49.6789 1.44101 49.4219 1.31301 49.1569 1.19901C49.0269 1.14301 48.8959 1.092 48.7609 1.045C48.1119 0.820998 47.4059 0.699005 46.6639 0.699005C45.4129 0.699005 44.1669 1.039 43.0499 1.666C42.3799 2.042 41.7569 2.521 41.2069 3.091C40.8179 3.494 40.4689 3.937 40.1589 4.418C39.2289 5.861 38.6579 7.64101 38.4789 9.66901C37.9249 9.70401 37.1649 9.808 36.3619 10.09C36.0609 10.196 35.7539 10.327 35.4489 10.488C34.9409 10.757 34.4409 11.111 33.9869 11.577C33.7359 11.835 33.5189 12.12 33.3199 12.42C32.5229 13.626 32.1369 15.171 32.1869 17.041C32.2499 19.416 33.2689 21.263 35.1329 22.381C35.5539 22.634 36.0199 22.845 36.5209 23.024C37.7279 23.456 39.1579 23.679 40.8019 23.679C41.2699 23.679 41.7229 23.661 42.1559 23.632C42.2999 23.622 42.4419 23.611 42.5819 23.598C43.4189 23.523 44.1659 23.406 44.7759 23.287C44.8779 23.267 44.9759 23.247 45.0699 23.228C45.2579 23.189 45.4299 23.15 45.5839 23.113C45.8149 23.058 46.0069 23.008 46.1519 22.968C46.8569 22.774 47.6199 22.676 48.4219 22.674C48.4279 22.674 48.4339 22.673 48.4399 22.673C48.5929 22.673 48.7439 22.676 48.8919 22.683C49.1889 22.696 49.4749 22.72 49.7469 22.752C50.0199 22.784 50.2799 22.824 50.5259 22.867C50.6479 22.889 50.7669 22.911 50.8819 22.934C51.1119 22.98 51.3249 23.028 51.5209 23.073C51.5179 23.128 51.5159 23.182 51.5159 23.237C51.5159 23.415 51.5329 23.59 51.5669 23.762C51.4999 23.804 51.4279 23.846 51.3489 23.89C50.7959 24.192 49.9309 24.511 48.5739 24.511C48.3209 24.511 48.0569 24.5 47.7879 24.477C46.8459 24.399 45.8899 24.359 44.9469 24.359C44.5029 24.359 44.0409 24.368 43.5669 24.389C43.5459 24.39 43.5259 24.391 43.5049 24.392C43.0349 24.413 42.5539 24.445 42.0679 24.493C41.8179 24.517 41.5669 24.545 41.3159 24.578C41.0189 24.616 40.7209 24.662 40.4239 24.713C40.0239 24.781 39.6259 24.861 39.2329 24.955C37.2019 25.437 35.3039 26.273 34.0259 27.686C33.8329 27.899 33.6589 28.125 33.5039 28.363C33.3489 28.601 33.2119 28.85 33.0939 29.108C32.9759 29.366 32.8779 29.633 32.7989 29.907C32.6409 30.455 32.5609 31.029 32.5599 31.613C32.5599 32.488 32.7399 33.384 33.1089 34.237C33.4879 35.113 34.0289 35.884 34.7129 36.539C34.8499 36.67 34.9919 36.796 35.1399 36.918C36.6199 38.134 38.6539 38.876 41.0759 39.054C41.1009 40.287 41.3669 42.552 42.8449 44.184C43.4049 44.802 44.0769 45.267 44.8569 45.578C45.6369 45.889 46.5239 46.046 47.5129 46.046C47.6639 46.046 47.8199 46.042 47.9749 46.035C48.5339 46.008 49.0569 45.909 49.5419 45.737C50.3509 45.45 51.0549 44.963 51.6469 44.279C52.0129 43.856 52.3319 43.361 52.6059 42.792C53.4269 41.086 53.8329 38.718 53.8309 35.645C53.8299 34.279 53.7489 32.774 53.5869 31.126C53.5369 30.619 53.5139 30.125 53.5099 29.65C53.5009 28.462 53.6129 27.393 53.7369 26.549C53.7619 26.38 53.7869 26.221 53.8119 26.071C53.8489 26.624 53.8909 27.234 53.9349 27.891C53.9369 27.92 53.9389 27.95 53.9409 27.98C53.9549 28.19 53.9699 28.403 53.9849 28.622C53.9979 28.831 54.0109 29.045 54.0239 29.262C54.0659 29.97 54.1039 30.716 54.1319 31.497C54.1329 31.512 54.1329 31.527 54.1329 31.542C54.1719 32.548 54.1919 33.608 54.2019 34.706C54.2079 35.82 54.2059 36.972 54.1869 38.145C54.1799 38.731 54.1699 39.322 54.1559 39.914C54.1419 40.508 54.1269 41.104 54.1129 41.7C54.1049 42.004 54.0979 42.302 54.0879 42.597C54.0599 43.482 54.0179 44.334 53.9299 45.184C53.8169 46.314 53.6459 47.419 53.4319 48.478C53.3249 49.007 53.2069 49.525 53.0799 50.028C52.8739 50.846 52.6449 51.625 52.4049 52.36C52.2019 52.983 51.9899 53.575 51.7769 54.126C51.7299 54.247 51.6829 54.362 51.6369 54.479C51.5739 54.638 51.5099 54.793 51.4469 54.945C51.3239 55.239 51.2019 55.524 51.0819 55.791C51.0059 55.96 50.9309 56.123 50.8569 56.28C50.5609 56.91 50.2849 57.447 50.0489 57.879C49.9899 57.987 49.9339 58.089 49.8799 58.184C49.7199 58.469 49.5849 58.695 49.4849 58.857C49.4649 58.889 49.4489 58.914 49.4319 58.941C49.3929 59.003 49.3589 59.057 49.3349 59.094C49.3199 59.117 49.3089 59.134 49.3009 59.145C49.2929 59.156 49.2899 59.162 49.2899 59.162L52.1779 60.957C52.1779 60.957 52.2009 60.916 52.2469 60.838C52.2739 60.788 52.3129 60.716 52.3579 60.633C52.3779 60.597 52.3959 60.564 52.4179 60.522C52.5619 60.25 52.7609 59.858 52.9939 59.355C53.1109 59.104 53.2359 58.825 53.3669 58.52C53.6939 57.758 54.0579 56.834 54.4149 55.773C54.4859 55.561 54.5569 55.343 54.6279 55.12C55.1909 53.338 55.7109 51.218 56.0269 48.912C56.1059 48.336 56.1729 47.748 56.2249 47.152C56.2769 46.556 56.3149 45.951 56.3369 45.342C56.3519 45.037 56.3559 44.731 56.3579 44.424C56.3639 44.117 56.3609 43.809 56.3539 43.501L56.3459 43.035L56.3309 42.587L56.3299 42.558L56.3009 41.691C56.2899 41.397 56.2789 41.103 56.2679 40.809C56.2569 40.504 56.2449 40.198 56.2339 39.894C56.2229 39.588 56.2069 39.286 56.1939 38.982C56.1809 38.691 56.1699 38.397 56.1559 38.108C56.1149 37.222 56.0649 36.351 56.0099 35.493C55.9919 35.207 55.9749 34.917 55.9559 34.635C55.8769 33.508 55.7889 32.419 55.6839 31.387C55.6339 30.871 55.5799 30.37 55.5239 29.886C55.4689 29.402 55.4119 28.935 55.3549 28.488C55.3259 28.264 55.2969 28.044 55.2689 27.83C55.2129 27.401 55.1599 26.992 55.1089 26.606C55.0839 26.413 55.0599 26.225 55.0359 26.043C55.2129 26.443 55.3689 26.849 55.5039 27.258C55.7069 27.872 55.8619 28.492 55.9669 29.107C56.0719 29.722 56.1259 30.332 56.1259 30.924V30.977C56.1259 32.02 56.1269 33.128 56.1809 34.25C56.2059 34.762 56.2419 35.277 56.2949 35.791C56.3899 36.725 56.5439 37.652 56.7789 38.547C56.8749 38.912 56.9869 39.272 57.1129 39.624C57.1849 39.824 57.2629 40.021 57.3459 40.215C57.8309 41.356 58.5029 42.405 59.4529 43.284C60.1789 43.956 61.0399 44.44 61.9689 44.708C62.1549 44.762 62.3429 44.807 62.5339 44.843C62.9149 44.915 63.3049 44.952 63.6999 44.952C65.0849 44.952 66.6179 44.459 67.8929 43.28C68.5309 42.69 69.1029 41.929 69.5609 40.972C69.7899 40.494 69.9889 39.966 70.1539 39.387C70.3179 38.808 70.4469 38.177 70.5349 37.491C71.9469 37.457 73.3789 37.187 74.6189 36.613C76.4779 35.753 77.9029 34.209 78.1749 31.752C78.2049 31.479 78.2209 31.195 78.2219 30.899C78.2229 30.347 78.1539 29.826 78.0159 29.34C77.7849 28.529 77.3609 27.811 76.7469 27.195C76.3579 26.806 75.9069 26.474 75.4099 26.192C74.4169 25.628 73.2449 25.263 72.0419 25.033C71.6409 24.956 71.2359 24.895 70.8329 24.846C70.2279 24.773 69.6279 24.728 69.0499 24.704C68.6649 24.688 68.2899 24.681 67.9299 24.681C66.0219 24.681 64.3719 24.865 63.4279 24.998C63.2099 25.029 63.0299 25.057 62.8919 25.079C62.5249 25.139 62.1419 25.17 61.7549 25.17C61.1979 25.17 60.6599 25.105 60.1479 25.005C59.4859 24.875 58.8679 24.685 58.3309 24.479C58.1399 24.406 57.9599 24.331 57.7899 24.257C57.4499 24.109 57.1539 23.963 56.9119 23.838C56.9339 23.74 56.9509 23.64 56.9629 23.539C56.9739 23.438 56.9799 23.337 56.9799 23.235C56.9799 23.196 56.9789 23.156 56.9779 23.117C57.1139 23.095 57.2699 23.077 57.4439 23.063C57.4569 23.062 57.4699 23.061 57.4829 23.06C57.6629 23.047 57.8609 23.039 58.0819 23.039C58.7929 23.039 59.5909 23.121 60.4629 23.282C60.7539 23.336 61.0529 23.399 61.3589 23.47C62.4959 23.736 64.1109 24.039 65.9689 24.175C66.5879 24.22 67.2349 24.247 67.8989 24.247C68.7929 24.247 69.6469 24.197 70.4539 24.099C72.8749 23.803 74.8799 23.07 76.3359 21.935C76.8389 21.543 77.2729 21.076 77.6309 20.554C77.7209 20.424 77.8059 20.29 77.8859 20.153C78.1259 19.743 78.3229 19.305 78.4719 18.85C78.5219 18.698 78.5669 18.545 78.6059 18.389C78.6849 18.078 78.7419 17.761 78.7779 17.44C78.8129 17.119 78.8269 16.794 78.8169 16.469C78.8019 15.98 78.7359 15.49 78.6139 15.006C78.5289 14.67 78.4159 14.345 78.2849 14.029C78.2379 13.916 78.1879 13.805 78.1359 13.695C77.8209 13.035 77.4089 12.423 76.8969 11.868C75.9219 10.811 74.6029 9.95501 72.9979 9.34201C72.3099 9.07901 71.5679 8.86101 70.7789 8.69101C70.7809 8.61201 70.7819 8.52801 70.7819 8.43901C70.7819 7.46601 70.6509 5.94901 69.9929 4.45801C69.9329 4.32301 69.8689 4.18701 69.7999 4.05301C69.6619 3.78401 69.5059 3.517 69.3289 3.257C69.2399 3.127 69.1459 2.998 69.0469 2.871C68.8889 2.67 68.7209 2.478 68.5439 2.297C68.0129 1.754 67.3969 1.306 66.6999 0.951996C66.2349 0.715996 65.7329 0.523009 65.1959 0.372009C64.6589 0.221009 64.0859 0.113004 63.4779 0.0480042C63.1819 0.0160041 62.8889 0 62.6059 0C62.5519 0 62.4989 0.00701086 62.4449 0.00801086C62.2579 0.0120109 62.0709 0.0170037 61.8889 0.0350037C61.7979 0.0440037 61.7119 0.0629969 61.6229 0.0749969C61.4819 0.0949969 61.3399 0.11 61.2029 0.138C61.0379 0.172 60.8779 0.218999 60.7189 0.264999C60.6629 0.280999 60.6039 0.292006 60.5489 0.309006C60.4079 0.355006 60.2719 0.413002 60.1359 0.468002C60.0669 0.496002 59.9939 0.517996 59.9259 0.548996C59.7799 0.614996 59.6399 0.693996 59.4999 0.770996C59.4459 0.800996 59.3889 0.82501 59.3359 0.85701C59.2159 0.92901 59.1009 1.013 58.9849 1.093C58.9159 1.141 58.8449 1.182 58.7779 1.233C58.7509 1.253 58.7269 1.278 58.6999 1.299C58.3689 1.558 58.0539 1.852 57.7619 2.188C56.4449 3.701 55.5739 5.927 55.1729 8.806C55.0869 9.422 55.0299 10.033 54.9939 10.627C54.8899 12.358 54.9759 13.931 55.1209 14.974C55.1609 15.262 55.1909 15.546 55.2109 15.825C55.2729 16.661 55.2539 17.451 55.1889 18.165C55.1679 18.403 55.1409 18.633 55.1109 18.853C55.0209 19.514 54.8979 20.091 54.7779 20.556C54.6909 20.539 54.6039 20.526 54.5159 20.517C54.4279 20.508 54.3389 20.504 54.2489 20.504C54.0419 20.504 53.8379 20.527 53.6399 20.572C53.6149 20.481 53.5909 20.382 53.5679 20.274C53.4069 19.522 53.3009 18.362 53.4679 16.652C53.5979 15.315 53.6719 14.059 53.6899 12.884C53.7549 8.575 53.0659 5.35801 51.6299 3.27701C51.3639 2.90501 51.0779 2.564 50.7679 2.261ZM53.8809 49.321C53.9449 49.07 54.0079 48.82 54.0699 48.574C54.1239 48.326 54.1769 48.08 54.2299 47.839C54.2819 47.597 54.3339 47.36 54.3839 47.127C54.4259 46.893 54.4669 46.664 54.5069 46.441C54.5469 46.218 54.5869 46.001 54.6249 45.791C54.6659 45.581 54.6849 45.376 54.7139 45.18C54.7419 44.984 54.7679 44.795 54.7929 44.616C54.8179 44.437 54.8419 44.267 54.8649 44.108C54.8799 43.947 54.8939 43.797 54.9069 43.658C54.9199 43.519 54.9319 43.391 54.9429 43.276C54.9719 42.987 54.9949 42.775 55.0079 42.657C55.0159 42.586 55.0199 42.549 55.0199 42.549C55.0199 42.549 55.0239 42.652 55.0299 42.844C55.0339 42.959 55.0379 43.105 55.0419 43.28C55.0459 43.513 55.0509 43.796 55.0559 44.121C55.0439 44.445 55.0239 44.811 54.9999 45.211C54.9929 45.311 54.9879 45.413 54.9829 45.517C54.9769 45.621 54.9699 45.727 54.9579 45.834C54.9319 46.048 54.9049 46.27 54.8779 46.497C54.8499 46.725 54.8209 46.959 54.7919 47.198C54.7579 47.436 54.7069 47.677 54.6639 47.924C54.6189 48.17 54.5729 48.421 54.5269 48.675C54.4759 48.928 54.4129 49.181 54.3519 49.437C54.2899 49.692 54.2309 49.951 54.1649 50.209C54.0929 50.465 54.0209 50.722 53.9489 50.979C53.8069 51.494 53.6289 51.998 53.4659 52.497C53.3879 52.748 53.2919 52.991 53.2009 53.231C53.1089 53.472 53.0189 53.709 52.9299 53.943C52.7379 54.405 52.5569 54.853 52.3619 55.268C52.2659 55.476 52.1729 55.678 52.0829 55.874C51.9869 56.067 51.8939 56.253 51.8049 56.432C51.6309 56.792 51.4499 57.111 51.2959 57.397C51.1379 57.68 50.9949 57.925 50.8739 58.124C50.7549 58.324 50.6539 58.477 50.5859 58.582C50.5169 58.686 50.4809 58.742 50.4809 58.742C50.4809 58.742 50.5089 58.682 50.5629 58.569C50.6149 58.456 50.6899 58.29 50.7869 58.078C50.8349 57.973 50.8869 57.855 50.9429 57.727C50.9989 57.599 51.0589 57.46 51.1249 57.313C51.1869 57.164 51.2549 57.006 51.3259 56.84C51.3969 56.673 51.4699 56.498 51.5449 56.314C51.6219 56.131 51.6989 55.939 51.7769 55.74C51.8559 55.541 51.9359 55.335 52.0189 55.124C52.1889 54.703 52.3399 54.248 52.5189 53.787C52.6779 53.318 52.8499 52.837 53.0089 52.343C53.1649 51.848 53.3349 51.348 53.4689 50.839C53.5429 50.586 53.6169 50.333 53.6909 50.081C53.7569 49.827 53.8169 49.573 53.8809 49.321ZM33.8679 28.894C34.3659 28.04 35.1049 27.4 35.8999 26.906C36.6939 26.408 37.5539 26.077 38.3929 25.823C39.2349 25.572 40.0679 25.412 40.8599 25.304C41.6519 25.194 42.4049 25.137 43.0999 25.112C43.7949 25.083 44.4319 25.09 44.9959 25.108C45.5599 25.126 46.0499 25.155 46.4529 25.186C46.7549 25.207 47.0089 25.234 47.2069 25.256C47.2729 25.263 47.3329 25.27 47.3869 25.276C47.4939 25.289 47.5769 25.298 47.6319 25.305C47.6869 25.312 47.7159 25.315 47.7159 25.315C47.7159 25.315 47.6009 25.311 47.3849 25.303C47.2769 25.301 47.1439 25.298 46.9869 25.295C46.9089 25.293 46.8249 25.292 46.7349 25.29C46.6449 25.288 46.5499 25.286 46.4489 25.284C45.6429 25.27 44.4909 25.289 43.1179 25.399C42.7749 25.427 42.4179 25.464 42.0509 25.509C41.6829 25.555 41.3049 25.609 40.9169 25.674C40.3359 25.772 39.7369 25.901 39.1309 26.067C38.9289 26.122 38.7269 26.182 38.5239 26.245C37.9169 26.439 37.3079 26.681 36.7279 26.988C36.5349 27.09 36.3439 27.2 36.1579 27.317C35.7869 27.552 35.4299 27.816 35.1139 28.123C35.0349 28.199 34.9579 28.278 34.8829 28.359C34.8089 28.44 34.7369 28.524 34.6689 28.61C34.5319 28.782 34.4089 28.962 34.3029 29.147C34.0819 29.523 33.9139 29.932 33.8029 30.355C33.6959 30.779 33.6449 31.216 33.6449 31.65C33.6449 32.084 33.6949 32.516 33.7969 32.93C33.8979 33.344 34.0339 33.747 34.2239 34.118C34.2659 34.214 34.3169 34.304 34.3689 34.393C34.4219 34.482 34.4679 34.574 34.5249 34.659C34.6399 34.828 34.7479 35.001 34.8759 35.157C35.1159 35.481 35.3989 35.759 35.6789 36.023C36.2589 36.532 36.8889 36.921 37.5029 37.213C38.1169 37.509 38.7179 37.695 39.2549 37.844C39.5259 37.91 39.7789 37.978 40.0179 38.015C40.2559 38.059 40.4739 38.103 40.6739 38.123C40.8739 38.149 41.0519 38.172 41.2069 38.192C41.3629 38.205 41.4959 38.217 41.6029 38.226C41.8179 38.244 41.9329 38.254 41.9329 38.254C41.9329 38.254 41.8179 38.254 41.6009 38.253C41.4929 38.253 41.3589 38.252 41.2019 38.252C41.0449 38.248 40.8649 38.234 40.6629 38.221C40.4599 38.213 40.2379 38.183 39.9949 38.153C39.7509 38.13 39.4909 38.077 39.2119 38.027C38.6579 37.911 38.0309 37.758 37.3839 37.477C36.7369 37.204 36.0599 36.829 35.4329 36.308C35.2789 36.176 35.1259 36.037 34.9779 35.888C34.8299 35.739 34.6869 35.582 34.5499 35.417C34.2769 35.086 34.0299 34.72 33.8269 34.319C33.6149 33.923 33.4589 33.491 33.3409 33.044C33.3149 32.931 33.2809 32.82 33.2619 32.705C33.2429 32.59 33.2229 32.475 33.2029 32.359C33.1909 32.242 33.1789 32.125 33.1699 32.008C33.1609 31.89 33.1559 31.772 33.1569 31.654C33.1539 31.181 33.2059 30.702 33.3219 30.235C33.4419 29.767 33.6239 29.314 33.8679 28.894ZM36.6249 10.586C36.8379 10.512 37.0529 10.447 37.2719 10.394C37.4899 10.339 37.7109 10.297 37.9329 10.262C38.1549 10.229 38.3779 10.203 38.6029 10.189C38.7249 10.182 38.8429 10.177 38.9629 10.175L38.9759 9.95401L38.9919 9.687C38.9989 9.598 39.0109 9.50901 39.0209 9.42101L39.0819 8.888L39.1729 8.35901C39.1999 8.18201 39.2399 8.00701 39.2829 7.83301C39.3269 7.65901 39.3589 7.482 39.4139 7.31L39.5759 6.795C39.6359 6.625 39.7039 6.458 39.7679 6.289C39.8279 6.119 39.9109 5.958 39.9859 5.793L40.0999 5.547L40.2299 5.30901C40.3979 4.98901 40.5959 4.68401 40.8039 4.38701C40.9159 4.24401 41.0189 4.095 41.1379 3.957C41.2589 3.822 41.3749 3.68201 41.5009 3.55101C41.6309 3.42401 41.7579 3.29401 41.8909 3.17101C42.0299 3.05401 42.1649 2.93301 42.3079 2.82001C42.4549 2.71401 42.5979 2.60101 42.7489 2.50101C42.9039 2.40601 43.0539 2.30401 43.2139 2.21901C43.5329 2.04501 43.8609 1.89001 44.2009 1.76601C44.3709 1.70501 44.5409 1.64201 44.7169 1.59801L44.9779 1.52501L45.2439 1.472C45.5979 1.399 45.9589 1.36901 46.3179 1.35501C46.4979 1.35301 46.6779 1.35701 46.8569 1.36501C46.9459 1.37501 47.0359 1.381 47.1249 1.39C47.2139 1.398 47.3029 1.40901 47.3909 1.42801L47.6559 1.47501C47.7439 1.49201 47.8299 1.518 47.9169 1.539C48.0919 1.578 48.2599 1.64 48.4279 1.698C48.5129 1.724 48.5939 1.764 48.6749 1.799C48.7559 1.836 48.8389 1.869 48.9179 1.91C48.9949 1.955 49.0739 1.99501 49.1519 2.03801C49.2299 2.08101 49.3059 2.12501 49.3779 2.17801C49.4509 2.22701 49.5259 2.276 49.5969 2.327L49.8019 2.496L49.9029 2.58L49.9959 2.673L50.1819 2.858C50.0449 2.748 49.9069 2.64101 49.7639 2.54401C49.6209 2.44601 49.4729 2.357 49.3169 2.282C49.2429 2.238 49.1649 2.202 49.0849 2.168C49.0059 2.134 48.9259 2.102 48.8479 2.067C48.6859 2.011 48.5249 1.952 48.3599 1.908C48.1939 1.866 48.0299 1.82 47.8609 1.797C47.7769 1.784 47.6939 1.765 47.6089 1.756L47.3549 1.73201C47.2709 1.72101 47.1859 1.71801 47.1009 1.71701C47.0159 1.71601 46.9309 1.716 46.8469 1.711C46.6779 1.715 46.5079 1.72101 46.3399 1.73401C46.0029 1.76901 45.6679 1.819 45.3429 1.908L45.0989 1.97101L44.8589 2.05C44.6979 2.098 44.5429 2.164 44.3869 2.228C44.0759 2.357 43.7789 2.51601 43.4929 2.68901C43.3479 2.77401 43.2149 2.877 43.0749 2.968C42.9379 3.065 42.8099 3.173 42.6769 3.274C42.5489 3.381 42.4269 3.497 42.3019 3.608C42.1819 3.725 42.0689 3.849 41.9519 3.968C41.8399 4.092 41.7359 4.22501 41.6279 4.35201C41.5219 4.48101 41.4299 4.623 41.3309 4.757C41.1409 5.033 40.9599 5.316 40.8069 5.616L40.6879 5.838L40.5839 6.06801C40.5159 6.22201 40.4389 6.372 40.3849 6.532C40.3269 6.69 40.2639 6.847 40.2089 7.007L40.0619 7.492C40.0079 7.652 39.9769 7.82001 39.9339 7.98401C39.8919 8.14801 39.8519 8.313 39.8249 8.481L39.7339 8.983L39.6709 9.49001C39.6609 9.57501 39.6489 9.659 39.6409 9.744L39.6239 10L39.5889 10.511L39.5659 10.845L39.2429 10.818C39.0579 10.803 38.8409 10.802 38.6389 10.809C38.4329 10.815 38.2259 10.834 38.0209 10.858C37.8159 10.884 37.6109 10.917 37.4099 10.962C37.2079 11.005 37.0089 11.06 36.8119 11.121C36.6159 11.184 36.4219 11.254 36.2329 11.335C36.0449 11.418 35.8609 11.51 35.6829 11.613C35.5069 11.718 35.3339 11.829 35.1719 11.956C35.0879 12.015 35.0119 12.084 34.9349 12.152C34.8569 12.218 34.7799 12.287 34.7089 12.362C34.5589 12.503 34.4289 12.664 34.2969 12.823L34.1159 13.076C34.0549 13.16 34.0069 13.253 33.9519 13.341L33.8719 13.475L33.8029 13.615C33.7589 13.71 33.7049 13.8 33.6649 13.897C33.6259 13.994 33.5839 14.091 33.5449 14.189C33.5059 14.287 33.4699 14.386 33.4409 14.488C33.4099 14.589 33.3719 14.688 33.3469 14.791L33.2709 15.101C33.2139 15.307 33.1899 15.519 33.1469 15.729C33.1159 15.941 33.0979 16.155 33.0689 16.368L33.0279 17.014L32.9909 16.366C32.9919 16.15 32.9909 15.932 33.0009 15.714C33.0119 15.606 33.0179 15.497 33.0259 15.388C33.0339 15.279 33.0439 15.17 33.0629 15.062L33.1149 14.737C33.1319 14.628 33.1629 14.523 33.1859 14.415C33.2299 14.199 33.3029 13.99 33.3699 13.779C33.4039 13.674 33.4509 13.573 33.4929 13.469L33.5579 13.315L33.6339 13.166C33.6869 13.068 33.7329 12.965 33.7919 12.87L33.9699 12.585C34.1009 12.403 34.2319 12.219 34.3859 12.054L34.4979 11.927L34.6199 11.809C34.7009 11.73 34.7819 11.651 34.8709 11.581C35.0429 11.433 35.2269 11.301 35.4159 11.177C35.6059 11.054 35.8039 10.944 36.0059 10.844C36.2049 10.751 36.4129 10.662 36.6249 10.586ZM54.9559 21.423C55.0889 21.259 55.2379 21.075 55.4019 20.871C55.5189 20.729 55.6489 20.582 55.7859 20.427C55.9239 20.273 56.0689 20.111 56.2179 19.941C56.3679 19.772 56.5249 19.595 56.6869 19.413C56.8519 19.233 57.0309 19.055 57.2109 18.868C57.5749 18.499 57.9429 18.095 58.3599 17.712C58.7729 17.326 59.1819 16.911 59.6329 16.526C60.0779 16.135 60.5219 15.73 60.9919 15.355C61.2239 15.164 61.4559 14.973 61.6859 14.783C61.9219 14.6 62.1579 14.418 62.3919 14.237C62.8549 13.87 63.3299 13.535 63.7839 13.204C64.0119 13.04 64.2389 12.882 64.4619 12.73C64.6849 12.578 64.9049 12.43 65.1169 12.285C65.5499 12.007 65.9539 11.736 66.3389 11.505C67.8649 10.558 68.9409 10.036 68.9409 10.036C68.9409 10.036 68.5339 10.265 67.8719 10.69C67.8059 10.732 67.7369 10.777 67.6659 10.823C67.5239 10.916 67.3719 11.016 67.2119 11.124C66.9719 11.286 66.7129 11.464 66.4399 11.658C66.0709 11.911 65.6859 12.205 65.2739 12.507C65.0719 12.663 64.8629 12.823 64.6509 12.988C64.4389 13.153 64.2239 13.323 64.0079 13.499C63.5779 13.854 63.1289 14.215 62.6939 14.606C62.4739 14.799 62.2529 14.993 62.0299 15.188C61.8139 15.39 61.5969 15.592 61.3799 15.795C60.9399 16.193 60.5259 16.619 60.1129 17.03C59.6929 17.435 59.3159 17.869 58.9349 18.271C58.5499 18.67 58.2139 19.089 57.8799 19.472C57.7159 19.666 57.5519 19.85 57.4009 20.035C57.2539 20.223 57.1109 20.404 56.9749 20.578C56.7039 20.928 56.4469 21.241 56.2359 21.532C56.0859 21.742 55.9509 21.933 55.8309 22.102C56.0779 22.437 56.2249 22.849 56.2249 23.297C56.2249 23.531 56.1829 23.755 56.1099 23.964C56.2539 24.054 56.4099 24.152 56.5759 24.26C56.8889 24.462 57.2409 24.692 57.6169 24.952C57.9979 25.206 58.3979 25.498 58.8249 25.801C59.2459 26.112 59.6899 26.439 60.1399 26.79C60.5869 27.145 61.0549 27.502 61.5099 27.891C61.7399 28.082 61.9709 28.276 62.2039 28.469C62.4309 28.67 62.6579 28.871 62.8859 29.072C63.3459 29.468 63.7839 29.889 64.2189 30.299C64.6599 30.702 65.0629 31.13 65.4659 31.531C65.8719 31.928 66.2349 32.342 66.5889 32.723C66.7639 32.915 66.9349 33.102 67.0999 33.282C67.2579 33.469 67.4109 33.649 67.5579 33.822C67.8499 34.17 68.1239 34.482 68.3539 34.77C68.5799 35.061 68.7759 35.315 68.9379 35.524C69.1809 35.837 69.3449 36.05 69.4119 36.137C69.4339 36.166 69.4459 36.181 69.4459 36.181C69.4459 36.181 69.2469 35.954 68.8989 35.557C68.7249 35.359 68.5139 35.118 68.2719 34.841C68.0259 34.568 67.7329 34.274 67.4229 33.946C67.2669 33.783 67.1039 33.613 66.9359 33.437C66.7609 33.268 66.5799 33.093 66.3939 32.912C66.2069 32.734 66.0169 32.547 65.8209 32.36C65.6249 32.172 65.4229 31.983 65.2089 31.798C64.7859 31.425 64.3619 31.026 63.9009 30.654C63.4469 30.275 62.9889 29.886 62.5109 29.522C62.2749 29.337 62.0379 29.152 61.8029 28.968C61.5619 28.791 61.3219 28.614 61.0839 28.439C60.6129 28.084 60.1299 27.759 59.6699 27.437C59.2069 27.119 58.7499 26.825 58.3189 26.544C57.8819 26.273 57.4729 26.01 57.0859 25.784C56.7019 25.552 56.3459 25.349 56.0289 25.17C55.9279 25.113 55.8319 25.06 55.7389 25.009C55.6469 24.958 55.5589 24.911 55.4749 24.865C55.1289 25.145 54.6879 25.313 54.2079 25.313C53.9299 25.313 53.6649 25.257 53.4239 25.155C53.3939 25.214 53.3649 25.273 53.3339 25.334C53.2559 25.491 53.1629 25.651 53.0699 25.823C52.9769 25.995 52.8769 26.175 52.7659 26.357C52.6569 26.54 52.5429 26.731 52.4249 26.929C52.3009 27.122 52.1719 27.322 52.0409 27.527C51.9119 27.734 51.7689 27.939 51.6229 28.149C51.4769 28.358 51.3279 28.572 51.1769 28.79C51.0189 29.002 50.8569 29.218 50.6939 29.436C50.5319 29.655 50.3669 29.876 50.1909 30.09C49.8409 30.521 49.4979 30.967 49.1229 31.387C48.7549 31.813 48.3929 32.242 48.0109 32.642C47.6329 33.046 47.2739 33.453 46.8969 33.821C46.5259 34.193 46.1719 34.557 45.8279 34.894C45.4779 35.224 45.1469 35.536 44.8409 35.824C44.6879 35.968 44.5419 36.105 44.4029 36.237C44.2589 36.363 44.1229 36.484 43.9959 36.596C43.7399 36.821 43.5179 37.018 43.3339 37.18C42.9669 37.503 42.7579 37.688 42.7579 37.688C42.7579 37.688 42.8069 37.638 42.8999 37.545C42.9459 37.498 43.0029 37.441 43.0699 37.374C43.1369 37.307 43.2139 37.229 43.2999 37.143C43.4719 36.97 43.6809 36.759 43.9209 36.518C44.0409 36.397 44.1679 36.269 44.3029 36.134C44.4329 35.994 44.5699 35.848 44.7129 35.694C44.8559 35.541 45.0039 35.381 45.1569 35.216C45.3099 35.051 45.4689 34.88 45.6319 34.705C45.7919 34.527 45.9539 34.341 46.1179 34.151C46.2829 33.961 46.4499 33.767 46.6219 33.57C46.9709 33.182 47.3009 32.754 47.6479 32.331C47.9989 31.911 48.3289 31.464 48.6629 31.02C49.0039 30.582 49.3139 30.121 49.6289 29.676C49.7889 29.455 49.9349 29.228 50.0799 29.003C50.2249 28.779 50.3689 28.558 50.5099 28.341C50.6439 28.119 50.7749 27.901 50.9039 27.688C51.0329 27.475 51.1589 27.266 51.2699 27.058C51.3849 26.851 51.4959 26.65 51.6039 26.456C51.7049 26.259 51.8019 26.068 51.8959 25.885C51.9919 25.703 52.0749 25.525 52.1529 25.356C52.2299 25.186 52.3099 25.028 52.3729 24.875C52.4379 24.723 52.4979 24.581 52.5539 24.449C52.3249 24.122 52.1899 23.725 52.1899 23.295C52.1899 22.839 52.3429 22.42 52.5979 22.082C52.5019 21.871 52.3719 21.632 52.2339 21.354C52.1949 21.277 52.1549 21.198 52.1139 21.117C52.0689 21.037 52.0239 20.955 51.9769 20.871C51.8829 20.703 51.7839 20.526 51.6809 20.341C51.4589 19.981 51.2299 19.582 50.9539 19.182C50.8199 18.98 50.6829 18.771 50.5299 18.566C50.3789 18.36 50.2319 18.143 50.0649 17.937C49.7419 17.516 49.3919 17.091 49.0199 16.674C48.8319 16.467 48.6459 16.255 48.4459 16.055C48.2499 15.851 48.0509 15.647 47.8439 15.452C47.4369 15.053 47.0069 14.679 46.5769 14.318C46.1419 13.963 45.7049 13.623 45.2659 13.315C44.8309 13.001 44.3919 12.724 43.9739 12.464C43.5509 12.212 43.1469 11.979 42.7639 11.783C42.0009 11.384 41.3379 11.101 40.8679 10.921C40.3979 10.74 40.1199 10.662 40.1199 10.662C40.1199 10.662 40.3359 10.708 40.7139 10.821C40.7679 10.837 40.8249 10.855 40.8849 10.874C41.3669 11.024 42.0499 11.265 42.8439 11.618C43.2419 11.792 43.6649 12 44.1079 12.227C44.5469 12.463 45.0099 12.715 45.4709 13.005C45.9359 13.289 46.4029 13.606 46.8699 13.94C47.3319 14.28 47.7959 14.634 48.2379 15.016C48.4629 15.202 48.6799 15.398 48.8949 15.595C49.1139 15.788 49.3179 15.994 49.5249 16.194C49.9349 16.599 50.3239 17.014 50.6849 17.428C50.8709 17.631 51.0369 17.845 51.2069 18.048C51.3789 18.25 51.5349 18.457 51.6869 18.658C51.9999 19.055 52.2639 19.453 52.5189 19.814C52.6389 19.999 52.7539 20.177 52.8629 20.346C52.9169 20.431 52.9709 20.513 53.0219 20.593C53.0709 20.675 53.1179 20.755 53.1629 20.832C53.2859 21.044 53.4019 21.233 53.5009 21.406C53.7209 21.323 53.9589 21.276 54.2079 21.276C54.4729 21.278 54.7249 21.33 54.9559 21.423ZM62.6379 17.905C62.3869 17.819 62.2439 17.77 62.2439 17.77C62.2439 17.77 62.3929 17.796 62.6539 17.842C62.9129 17.895 63.2869 17.96 63.7289 18.069C64.0599 18.15 64.4329 18.239 64.8289 18.346C64.9609 18.382 65.0949 18.42 65.2319 18.46C65.7759 18.623 66.3539 18.804 66.9299 18.995C67.4999 19.202 68.0669 19.417 68.5949 19.626C69.1229 19.836 69.6039 20.061 70.0169 20.249C70.4309 20.436 70.7639 20.617 71.0009 20.737C71.2339 20.863 71.3679 20.935 71.3679 20.935C71.3679 20.935 71.2249 20.885 70.9749 20.797C70.9129 20.774 70.8439 20.75 70.7689 20.722C70.5439 20.641 70.2639 20.539 69.9449 20.424C69.6279 20.302 69.2659 20.179 68.8819 20.041C68.7539 19.995 68.6229 19.948 68.4909 19.898C67.9609 19.703 67.3919 19.503 66.8209 19.312C66.2539 19.109 65.6839 18.913 65.1469 18.738C64.7429 18.609 64.3629 18.475 64.0159 18.359C63.8999 18.321 63.7879 18.284 63.6799 18.251C63.4649 18.18 63.2679 18.114 63.0929 18.056C62.9159 17.997 62.7639 17.947 62.6379 17.905ZM70.4699 12.784C70.0489 12.749 69.6569 12.696 69.3189 12.674C68.9809 12.648 68.6989 12.613 68.5009 12.6C68.3029 12.58 68.1899 12.569 68.1899 12.569C68.1899 12.569 68.3029 12.557 68.5009 12.536C68.6989 12.522 68.9829 12.491 69.3249 12.487C69.6659 12.482 70.0649 12.473 70.4919 12.495C70.9179 12.52 71.3719 12.557 71.8249 12.603C72.2759 12.667 72.7259 12.742 73.1449 12.821C73.5639 12.901 73.9489 13.008 74.2789 13.095C74.3609 13.117 74.4399 13.139 74.5149 13.161C74.6639 13.206 74.7959 13.251 74.9099 13.29C74.9669 13.309 75.0189 13.327 75.0659 13.342C75.2529 13.411 75.3599 13.45 75.3599 13.45C75.3599 13.45 75.3529 13.449 75.3389 13.447C75.3119 13.443 75.2579 13.435 75.1809 13.424C75.1429 13.418 75.0989 13.412 75.0499 13.405C74.9039 13.379 74.7079 13.353 74.4789 13.318C74.4029 13.306 74.3219 13.293 74.2389 13.279C73.9059 13.218 73.5119 13.175 73.0959 13.107C72.6779 13.043 72.2319 12.984 71.7849 12.935C71.3379 12.874 70.8899 12.823 70.4699 12.784ZM74.2339 16.794C74.0019 16.72 73.6649 16.631 73.2659 16.515C72.8679 16.393 72.3939 16.285 71.8939 16.151C71.3909 16.022 70.8519 15.9 70.3089 15.794C69.7689 15.677 69.2249 15.575 68.7119 15.495C68.1989 15.419 67.7209 15.332 67.3079 15.286C66.8949 15.234 66.5509 15.183 66.3079 15.159C66.0659 15.128 65.9269 15.111 65.9269 15.111C65.9269 15.111 66.0659 15.105 66.3109 15.094C66.5549 15.091 66.9049 15.077 67.3239 15.099C67.5329 15.108 67.7599 15.119 67.9999 15.136C68.2399 15.153 68.4919 15.175 68.7529 15.207C69.2729 15.274 69.8259 15.362 70.3769 15.466C70.9239 15.588 71.4659 15.726 71.9709 15.871C72.4749 16.018 72.9349 16.188 73.3259 16.336C73.5229 16.409 73.6999 16.483 73.8559 16.552C73.9339 16.586 74.0069 16.619 74.0739 16.65C74.1409 16.681 74.2029 16.709 74.2579 16.733C74.4229 16.813 74.5349 16.867 74.5809 16.889C74.5959 16.896 74.6039 16.9 74.6039 16.9C74.6039 16.9 74.5959 16.898 74.5789 16.893C74.5289 16.879 74.4099 16.845 74.2339 16.794ZM60.6309 5.12601C60.5619 4.88501 60.5099 4.67201 60.4649 4.50101C60.4499 4.44401 60.4359 4.392 60.4229 4.345C60.3879 4.202 60.3639 4.10601 60.3539 4.06601C60.3509 4.05301 60.3489 4.04601 60.3489 4.04601C60.3489 4.04601 60.3769 4.103 60.4269 4.205C60.4439 4.239 60.4629 4.27801 60.4839 4.32201C60.5039 4.36701 60.5269 4.41601 60.5509 4.46901C60.6249 4.63001 60.7179 4.83001 60.8089 5.06401C60.9299 5.37601 61.0789 5.73901 61.2089 6.13701C61.3379 6.53601 61.4689 6.96301 61.5939 7.39301C61.7019 7.82701 61.8039 8.262 61.8929 8.672C61.9819 9.082 62.0349 9.47001 62.0869 9.80101C62.1389 10.132 62.1579 10.412 62.1789 10.606C62.1929 10.801 62.2009 10.913 62.2009 10.913C62.2009 10.913 62.1989 10.906 62.1949 10.893C62.1909 10.88 62.1859 10.86 62.1779 10.835C62.1629 10.785 62.1419 10.711 62.1139 10.617C62.0659 10.428 61.9829 10.161 61.9009 9.838C61.8229 9.514 61.7079 9.14101 61.6089 8.73801C61.5069 8.33501 61.3919 7.90601 61.2699 7.48001C61.1609 7.05001 61.0449 6.622 60.9309 6.222C60.8139 5.825 60.7249 5.44501 60.6309 5.12601ZM59.0109 15.042C58.9609 14.894 58.8759 14.687 58.7929 14.433C58.7129 14.179 58.5989 13.889 58.5009 13.572C58.3999 13.256 58.2889 12.92 58.1719 12.585C58.0689 12.246 57.9599 11.909 57.8539 11.594C57.7459 11.28 57.6659 10.979 57.5809 10.726C57.5189 10.536 57.4729 10.366 57.4339 10.23C57.4209 10.185 57.4089 10.143 57.3969 10.106C57.3659 9.992 57.3459 9.915 57.3369 9.884C57.3339 9.874 57.3329 9.868 57.3329 9.868C57.3329 9.868 57.3359 9.873 57.3409 9.882C57.3579 9.91 57.3979 9.97901 57.4569 10.081C57.5299 10.22 57.6439 10.413 57.7559 10.657C57.8679 10.901 58.0059 11.182 58.1269 11.495C58.2469 11.808 58.3709 12.143 58.4899 12.48C58.5929 12.822 58.6919 13.166 58.7789 13.489C58.8669 13.812 58.9209 14.122 58.9749 14.384C59.0289 14.646 59.0499 14.871 59.0739 15.025C59.0899 15.181 59.0989 15.27 59.0989 15.27C59.0989 15.27 59.0679 15.188 59.0109 15.042ZM65.8729 3.629C65.8729 3.629 65.9069 3.69901 65.9659 3.82201C65.9919 3.88401 66.0269 3.96 66.0629 4.047C66.0999 4.134 66.1389 4.234 66.1749 4.345C66.2109 4.456 66.2519 4.575 66.2909 4.703C66.3299 4.831 66.3679 4.96701 66.3999 5.10901C66.4619 5.39401 66.5189 5.70001 66.5659 6.00801C66.5959 6.31801 66.6159 6.629 66.6259 6.92C66.6349 7.212 66.6119 7.484 66.5959 7.716C66.5889 7.832 66.5749 7.938 66.5609 8.032C66.5469 8.126 66.5319 8.207 66.5219 8.274C66.4949 8.407 66.4789 8.48401 66.4789 8.48401C66.4789 8.48401 66.4709 8.407 66.4569 8.271C66.4499 8.136 66.4229 7.944 66.4079 7.715C66.3969 7.486 66.3559 7.22 66.3369 6.936C66.3129 6.651 66.2779 6.349 66.2349 6.049C66.2039 5.747 66.1629 5.445 66.1159 5.164C66.0659 4.883 66.0389 4.61601 65.9939 4.39101C65.9529 4.16501 65.9299 3.972 65.9039 3.84C65.8989 3.806 65.8949 3.776 65.8909 3.75C65.8789 3.672 65.8729 3.629 65.8729 3.629ZM64.7199 27.002C64.9219 27.001 65.1309 26.999 65.3429 26.995C65.5549 26.991 65.7709 26.985 65.9859 26.978C66.2019 26.978 66.4169 26.976 66.6289 26.972C66.8409 26.969 67.0499 26.964 67.2519 26.957C67.6559 26.941 68.0349 26.95 68.3579 26.938C68.6819 26.929 68.9539 26.937 69.1429 26.932C69.2859 26.934 69.3829 26.935 69.4219 26.935C69.4349 26.935 69.4419 26.935 69.4419 26.935C69.4419 26.935 69.3349 26.958 69.1489 26.997C69.1019 27.005 69.0499 27.015 68.9939 27.025C68.8249 27.057 68.6139 27.097 68.3719 27.126C68.0489 27.166 67.6719 27.221 67.2649 27.247C67.0619 27.26 66.8519 27.273 66.6379 27.283C66.4239 27.294 66.2069 27.303 65.9899 27.311C65.5549 27.31 65.1209 27.303 64.7139 27.291C64.3069 27.277 63.9279 27.237 63.6039 27.208C63.2799 27.18 63.0109 27.131 62.8229 27.106C62.7759 27.098 62.7339 27.09 62.6979 27.084C62.5889 27.065 62.5279 27.055 62.5279 27.055C62.5279 27.055 62.6369 27.05 62.8269 27.041C62.9689 27.04 63.1579 27.03 63.3789 27.024C63.4529 27.022 63.5309 27.021 63.6119 27.02C63.9379 27.022 64.3159 27.001 64.7199 27.002ZM72.8289 31.557C73.3839 31.512 73.9379 31.448 74.4549 31.371C74.9709 31.288 75.4559 31.227 75.8669 31.142C75.9699 31.123 76.0689 31.104 76.1629 31.086C76.2569 31.068 76.3459 31.052 76.4299 31.036C76.5979 31.006 76.7449 30.979 76.8649 30.951C77.1069 30.904 77.2449 30.877 77.2449 30.877C77.2449 30.877 77.1129 30.927 76.8829 31.014C76.7669 31.056 76.6259 31.105 76.4619 31.158C76.2989 31.213 76.1139 31.272 75.9099 31.326C75.8079 31.354 75.7019 31.383 75.5909 31.412C75.4809 31.441 75.3659 31.47 75.2479 31.499C75.0119 31.556 74.7619 31.611 74.5019 31.659C73.9809 31.751 73.4209 31.83 72.8589 31.891C72.2949 31.932 71.7299 31.955 71.2009 31.958C71.0689 31.958 70.9379 31.955 70.8109 31.951C70.6839 31.947 70.5589 31.941 70.4379 31.935C70.1959 31.921 69.9669 31.903 69.7559 31.885C69.5449 31.869 69.3529 31.845 69.1829 31.82C69.0129 31.797 68.8649 31.774 68.7429 31.754C68.6219 31.732 68.5269 31.714 68.4619 31.703C68.3969 31.691 68.3619 31.685 68.3619 31.685C68.3619 31.685 68.5029 31.687 68.7489 31.69C68.8709 31.697 69.0209 31.696 69.1919 31.696C69.3629 31.697 69.5549 31.698 69.7649 31.698C70.1839 31.707 70.6729 31.68 71.1949 31.669C71.7189 31.65 72.2749 31.612 72.8289 31.557ZM51.9299 36.394C51.9069 36.366 51.8729 36.324 51.8299 36.272C51.7499 36.163 51.6239 36.012 51.4999 35.816C51.4369 35.718 51.3679 35.613 51.2969 35.499C51.2259 35.386 51.1539 35.265 51.0849 35.137C50.9489 34.88 50.8089 34.603 50.6749 34.323C50.5559 34.036 50.4429 33.747 50.3429 33.474C50.2439 33.201 50.1779 32.936 50.1149 32.712C50.0519 32.488 50.0239 32.294 49.9959 32.161C49.9749 32.026 49.9629 31.949 49.9629 31.949C49.9629 31.949 49.9969 32.019 50.0569 32.141C50.1109 32.265 50.2009 32.438 50.2909 32.649C50.3789 32.862 50.5009 33.102 50.6109 33.367C50.7229 33.631 50.8479 33.91 50.9789 34.186C51.0969 34.468 51.2209 34.747 51.3429 35.007C51.4669 35.265 51.5629 35.517 51.6629 35.725C51.7599 35.934 51.8279 36.116 51.8839 36.239C51.9349 36.366 51.9639 36.438 51.9639 36.438C51.9639 36.438 51.9529 36.422 51.9299 36.394ZM49.6799 40.199C49.6799 40.199 49.6569 40.15 49.6169 40.06C49.6029 40.03 49.5879 39.996 49.5699 39.958C49.5069 39.803 49.4029 39.585 49.3019 39.315C49.2019 39.046 49.0709 38.736 48.9579 38.396C48.8429 38.056 48.7209 37.694 48.5979 37.331C48.4899 36.964 48.3819 36.597 48.2799 36.253C48.1779 35.909 48.1059 35.581 48.0329 35.303C47.9609 35.025 47.9199 34.787 47.8829 34.623C47.8599 34.499 47.8439 34.414 47.8379 34.38C47.8359 34.368 47.8349 34.363 47.8349 34.363C47.8349 34.363 47.8569 34.412 47.8979 34.502C47.9119 34.532 47.9269 34.566 47.9449 34.604C48.0079 34.76 48.1119 34.978 48.2129 35.247C48.3129 35.517 48.4429 35.826 48.5569 36.166C48.6719 36.506 48.7949 36.868 48.9169 37.231C49.0249 37.598 49.1329 37.965 49.2349 38.309C49.2859 38.481 49.3299 38.649 49.3699 38.809C49.4099 38.969 49.4459 39.12 49.4829 39.259C49.5549 39.537 49.5959 39.775 49.6329 39.939C49.6619 40.104 49.6799 40.199 49.6799 40.199ZM46.6629 42.926C46.6489 42.896 46.6319 42.861 46.6139 42.821C46.5469 42.662 46.4399 42.438 46.3399 42.16C46.2389 41.882 46.1129 41.56 46.0069 41.206C45.9009 40.852 45.7939 40.473 45.6919 40.092C45.6059 39.707 45.5249 39.321 45.4539 38.959C45.4189 38.778 45.3919 38.601 45.3689 38.433C45.3459 38.265 45.3259 38.106 45.3069 37.96C45.2769 37.74 45.2649 37.546 45.2539 37.39C45.2499 37.338 45.2469 37.29 45.2429 37.247C45.2369 37.117 45.2329 37.029 45.2319 36.993C45.2309 36.981 45.2309 36.975 45.2309 36.975C45.2309 36.975 45.2379 36.999 45.2509 37.043C45.2639 37.087 45.2829 37.153 45.3069 37.236C45.3489 37.403 45.4219 37.639 45.4909 37.925C45.5569 38.212 45.6559 38.541 45.7379 38.898C45.7799 39.076 45.8249 39.261 45.8709 39.447C45.9179 39.634 45.9659 39.823 46.0159 40.012C46.1029 40.393 46.1949 40.773 46.2859 41.128C46.3799 41.482 46.4449 41.82 46.5189 42.105C46.5549 42.248 46.5829 42.38 46.6089 42.497C46.6219 42.556 46.6329 42.611 46.6439 42.661C46.6549 42.712 46.6649 42.758 46.6759 42.8C46.6849 42.842 46.6919 42.88 46.6989 42.913C46.7059 42.946 46.7109 42.974 46.7159 42.997C46.7249 43.042 46.7299 43.067 46.7299 43.067C46.7299 43.067 46.7059 43.017 46.6629 42.926ZM36.7289 31.775C36.6889 31.742 36.6529 31.712 36.6219 31.685C36.5289 31.607 36.4769 31.564 36.4769 31.564C36.4769 31.564 36.5819 31.621 36.7649 31.721C36.8529 31.775 36.9659 31.833 37.0939 31.898C37.2209 31.966 37.3659 32.04 37.5239 32.119C37.6799 32.203 37.8529 32.284 38.0379 32.366C38.1299 32.407 38.2259 32.449 38.3229 32.491C38.4199 32.533 38.5189 32.577 38.6189 32.621C39.0239 32.794 39.4639 32.955 39.9109 33.094C40.3559 33.241 40.8079 33.367 41.2369 33.462C41.6669 33.55 42.0689 33.646 42.4199 33.69C42.5949 33.718 42.7559 33.741 42.8989 33.76C43.0419 33.781 43.1669 33.8 43.2699 33.807C43.4249 33.826 43.5309 33.839 43.5729 33.844C43.5869 33.846 43.5949 33.847 43.5949 33.847C43.5949 33.847 43.5279 33.852 43.4069 33.861C43.3669 33.864 43.3199 33.868 43.2679 33.872C43.2159 33.875 43.1579 33.878 43.0949 33.88C43.0319 33.882 42.9639 33.884 42.8909 33.885C42.7449 33.889 42.5799 33.89 42.4009 33.877C42.0429 33.859 41.6229 33.824 41.1799 33.746C40.7379 33.663 40.2699 33.549 39.8089 33.413C39.3539 33.256 38.9079 33.076 38.4999 32.887C38.0939 32.693 37.7319 32.477 37.4309 32.283C37.3539 32.236 37.2829 32.189 37.2159 32.142C37.1489 32.095 37.0859 32.049 37.0279 32.005C36.9099 31.919 36.8099 31.841 36.7289 31.775ZM40.0849 29.159C40.2239 29.251 40.4319 29.369 40.6719 29.518C40.9099 29.672 41.2049 29.823 41.5089 30.002C41.8159 30.176 42.1499 30.35 42.4889 30.51C42.6559 30.595 42.8249 30.678 42.9929 30.755C43.1609 30.833 43.3279 30.907 43.4899 30.975C43.8169 31.107 44.1169 31.247 44.3839 31.342C44.6489 31.441 44.8699 31.534 45.0269 31.587C45.0659 31.602 45.1009 31.615 45.1309 31.627C45.2219 31.662 45.2719 31.681 45.2719 31.681C45.2719 31.681 45.1769 31.67 45.0099 31.65C44.8449 31.623 44.6049 31.593 44.3269 31.521C44.0479 31.452 43.7209 31.368 43.3819 31.245C43.0439 31.119 42.6889 30.971 42.3389 30.81C41.9979 30.632 41.6629 30.441 41.3569 30.251C41.0519 30.059 40.7869 29.85 40.5609 29.672C40.3339 29.496 40.1639 29.324 40.0419 29.21C39.9539 29.12 39.8939 29.059 39.8699 29.034C39.8619 29.026 39.8579 29.022 39.8579 29.022C39.8579 29.022 39.8779 29.034 39.9169 29.058C39.9569 29.082 40.0139 29.116 40.0849 29.159ZM47.6929 29.265C47.6619 29.259 47.6169 29.25 47.5599 29.239C47.4479 29.21 47.2829 29.18 47.0949 29.116C47.0009 29.084 46.8979 29.051 46.7909 29.014C46.6829 28.977 46.5709 28.935 46.4569 28.885C46.2299 28.784 45.9909 28.671 45.7539 28.553C45.5249 28.42 45.2989 28.282 45.0899 28.148C44.8809 28.014 44.7029 27.864 44.5459 27.742C44.4679 27.681 44.3999 27.62 44.3399 27.565C44.2809 27.51 44.2299 27.46 44.1879 27.421C44.1069 27.337 44.0599 27.29 44.0599 27.29C44.0599 27.29 44.1199 27.319 44.2249 27.368C44.3259 27.423 44.4789 27.49 44.6499 27.585C44.8199 27.683 45.0289 27.777 45.2399 27.899C45.4519 28.019 45.6809 28.141 45.9119 28.258C46.1369 28.387 46.3649 28.511 46.5809 28.623C46.7979 28.732 46.9919 28.855 47.1669 28.943C47.2539 28.989 47.3319 29.034 47.4009 29.075C47.4699 29.116 47.5309 29.152 47.5809 29.179C47.6809 29.24 47.7369 29.274 47.7369 29.274C47.7369 29.274 47.7239 29.271 47.6929 29.265ZM61.7819 31.651C61.8009 31.863 61.8379 32.168 61.8449 32.534C61.8549 32.9 61.8639 33.329 61.8399 33.787C61.8119 34.245 61.7679 34.732 61.7089 35.219C61.6709 35.461 61.6279 35.702 61.5839 35.939C61.5389 36.176 61.4919 36.408 61.4419 36.632C61.3409 37.079 61.2129 37.489 61.1029 37.838C61.0219 38.101 60.9349 38.325 60.8639 38.505C60.8399 38.565 60.8189 38.62 60.7989 38.67C60.7159 38.867 60.6679 38.979 60.6679 38.979C60.6679 38.979 60.6699 38.971 60.6729 38.957C60.6819 38.914 60.7049 38.807 60.7369 38.651C60.7749 38.496 60.8159 38.289 60.8659 38.045C60.8829 37.964 60.9009 37.878 60.9209 37.79C61.0039 37.436 61.0679 37.017 61.1569 36.573C61.1989 36.35 61.2389 36.12 61.2759 35.885C61.3129 35.65 61.3469 35.412 61.3779 35.172C61.4509 34.695 61.5089 34.216 61.5509 33.765C61.5879 33.314 61.6399 32.893 61.6579 32.53C61.6689 32.349 61.6819 32.182 61.6929 32.035C61.7039 31.888 61.7129 31.758 61.7169 31.652C61.7239 31.545 61.7299 31.462 61.7339 31.405C61.7379 31.348 61.7399 31.318 61.7399 31.318C61.7399 31.318 61.7409 31.325 61.7429 31.34C61.7479 31.384 61.7619 31.492 61.7819 31.651ZM59.0089 31.294C58.9849 31.437 58.9599 31.58 58.9339 31.721C58.9079 31.862 58.8819 32 58.8549 32.133C58.8279 32.266 58.7949 32.394 58.7619 32.514C58.7279 32.634 58.6939 32.748 58.6649 32.852C58.6059 33.062 58.5339 33.231 58.4919 33.351C58.4799 33.38 58.4689 33.407 58.4589 33.43C58.4299 33.499 58.4149 33.537 58.4149 33.537C58.4149 33.537 58.4199 33.464 58.4289 33.337C58.4369 33.274 58.4419 33.197 58.4499 33.109C58.4569 33.021 58.4659 32.922 58.4809 32.815C58.5129 32.601 58.5279 32.349 58.5699 32.084C58.5899 31.951 58.6089 31.814 58.6269 31.674C58.6449 31.534 58.6629 31.392 58.6789 31.25C58.7249 30.967 58.7669 30.684 58.8009 30.417C58.8339 30.15 58.8859 29.903 58.9139 29.689C58.9439 29.475 58.9859 29.298 59.0049 29.172C59.0179 29.109 59.0279 29.06 59.0349 29.027C59.0379 29.01 59.0409 28.998 59.0429 28.989C59.0449 28.98 59.0459 28.976 59.0459 28.976C59.0459 28.976 59.0549 29.048 59.0699 29.175C59.0779 29.302 59.1009 29.484 59.1009 29.702C59.1009 29.811 59.1029 29.929 59.1029 30.054C59.1029 30.179 59.0999 30.311 59.0899 30.446C59.0669 30.716 59.0409 31.006 59.0089 31.294ZM64.8539 37.253C64.8159 37.691 64.7649 38.157 64.7049 38.623C64.6279 39.086 64.5409 39.547 64.4509 39.977C64.3599 40.407 64.2439 40.802 64.1489 41.14C64.0549 41.479 63.9499 41.753 63.8839 41.947C63.8109 42.139 63.7689 42.249 63.7689 42.249C63.7689 42.249 63.7879 42.133 63.8199 41.931C63.8599 41.73 63.8999 41.44 63.9649 41.097C64.0329 40.755 64.0859 40.35 64.1659 39.922C64.2419 39.493 64.3129 39.034 64.3749 38.574C64.4489 38.116 64.5139 37.656 64.5659 37.224C64.6149 36.792 64.6809 36.389 64.7139 36.041C64.7519 35.694 64.7969 35.404 64.8169 35.201C64.8439 34.998 64.8599 34.882 64.8599 34.882C64.8599 34.882 64.8679 34.999 64.8819 35.204C64.8889 35.409 64.9089 35.702 64.9019 36.053C64.8949 36.404 64.8899 36.815 64.8539 37.253ZM72.5479 28.409C72.5119 28.422 72.4709 28.437 72.4249 28.455C72.2849 28.501 72.1009 28.567 71.8799 28.634C71.8059 28.656 71.7289 28.678 71.6469 28.7C71.3219 28.787 70.9409 28.892 70.5269 28.971C70.1129 29.049 69.6689 29.122 69.2229 29.186C68.7749 29.232 68.3269 29.268 67.9059 29.293C67.4849 29.316 67.0909 29.306 66.7539 29.301C66.4169 29.297 66.1359 29.266 65.9409 29.252C65.7939 29.236 65.6949 29.225 65.6539 29.221C65.6399 29.22 65.6339 29.219 65.6339 29.219C65.6339 29.219 65.6969 29.212 65.8109 29.201C65.8489 29.197 65.8929 29.193 65.9419 29.188C66.1379 29.175 66.4159 29.14 66.7499 29.114C67.0839 29.092 67.4709 29.039 67.8869 29.004C68.3019 28.966 68.7439 28.915 69.1849 28.854C69.6269 28.806 70.0679 28.748 70.4799 28.685C70.8909 28.618 71.2799 28.576 71.6089 28.516C71.9389 28.46 72.2179 28.427 72.4109 28.393C72.6059 28.365 72.7169 28.349 72.7169 28.349C72.7169 28.349 72.6559 28.37 72.5479 28.409ZM46.2119 17.961C45.9149 18.031 45.5749 18.137 45.2049 18.226C44.8359 18.318 44.4449 18.424 44.0559 18.536C43.6629 18.636 43.2719 18.742 42.9069 18.848C42.5429 18.957 42.1959 19.038 41.9039 19.127C41.6119 19.213 41.3619 19.27 41.1909 19.321C41.1479 19.332 41.1089 19.342 41.0749 19.35C40.9739 19.376 40.9179 19.39 40.9179 19.39C40.9179 19.39 40.9689 19.363 41.0619 19.315C41.0929 19.299 41.1279 19.281 41.1679 19.26C41.3299 19.184 41.5579 19.065 41.8419 18.949C41.9839 18.891 42.1379 18.827 42.3009 18.762C42.4639 18.697 42.6379 18.631 42.8199 18.57C43.1839 18.449 43.5749 18.327 43.9679 18.212C44.3649 18.113 44.7649 18.021 45.1399 17.942C45.5159 17.863 45.8719 17.819 46.1749 17.775C46.4789 17.73 46.7359 17.719 46.9139 17.703C47.0039 17.698 47.0739 17.695 47.1219 17.693C47.1699 17.691 47.1959 17.689 47.1959 17.689C47.1959 17.689 47.1899 17.691 47.1779 17.694C47.1419 17.704 47.0539 17.73 46.9249 17.767C46.7529 17.811 46.5079 17.888 46.2119 17.961ZM47.1409 7.38701C47.2269 7.85001 47.2989 8.31401 47.3549 8.75101C47.4089 9.18901 47.4259 9.6 47.4409 9.952C47.4579 10.304 47.4419 10.598 47.4379 10.803C47.4319 10.906 47.4279 10.986 47.4249 11.041C47.4219 11.096 47.4199 11.125 47.4199 11.125C47.4199 11.125 47.4189 11.118 47.4169 11.104C47.4109 11.062 47.3949 10.959 47.3729 10.806C47.3499 10.603 47.2989 10.314 47.2529 9.96901C47.2109 9.62201 47.1309 9.222 47.0669 8.793C46.9979 8.363 46.9109 7.908 46.8129 7.455C46.7259 7 46.6259 6.547 46.5209 6.125C46.4659 5.915 46.4179 5.71001 46.3709 5.51601C46.3239 5.32201 46.2779 5.13801 46.2299 4.97101C46.1839 4.80301 46.1429 4.64701 46.1079 4.51001C46.0719 4.37201 46.0409 4.25201 46.0109 4.15401C45.9589 3.95501 45.9289 3.84201 45.9289 3.84201C45.9289 3.84201 45.9319 3.84901 45.9389 3.86101C45.9519 3.88601 45.9759 3.93701 46.0119 4.00801C46.0299 4.04401 46.0499 4.085 46.0729 4.131C46.1149 4.225 46.1689 4.337 46.2269 4.468C46.2559 4.533 46.2869 4.603 46.3169 4.677C46.3479 4.751 46.3789 4.829 46.4099 4.912C46.5349 5.241 46.6799 5.626 46.8029 6.05C46.9209 6.472 47.0369 6.92801 47.1409 7.38701ZM50.4129 9.10201C50.3889 9.56501 50.3549 10.058 50.3129 10.551C50.2539 11.042 50.1879 11.532 50.1189 11.991C50.0839 12.22 50.0429 12.44 50.0009 12.649C49.9589 12.857 49.9159 13.054 49.8779 13.235C49.8589 13.326 49.8399 13.412 49.8199 13.495C49.7999 13.577 49.7799 13.655 49.7609 13.728C49.7229 13.874 49.6869 14.001 49.6599 14.105C49.5989 14.313 49.5639 14.431 49.5639 14.431C49.5639 14.431 49.5649 14.423 49.5659 14.409C49.5669 14.394 49.5699 14.372 49.5719 14.343C49.5769 14.285 49.5849 14.2 49.5949 14.093C49.6059 13.986 49.6199 13.855 49.6369 13.706C49.6529 13.557 49.6709 13.388 49.6909 13.204C49.7399 12.838 49.7719 12.408 49.8299 11.952C49.8579 11.723 49.8839 11.487 49.9089 11.247C49.9339 11.007 49.9579 10.762 49.9789 10.518C50.0349 10.03 50.0839 9.54201 50.1229 9.08301C50.1589 8.62401 50.2129 8.19701 50.2389 7.82901C50.2479 7.73701 50.2559 7.649 50.2639 7.565C50.2799 7.397 50.2949 7.247 50.3069 7.117C50.3129 7.052 50.3189 6.99301 50.3239 6.93901C50.3419 6.77801 50.3539 6.668 50.3589 6.623C50.3609 6.608 50.3619 6.60001 50.3619 6.60001C50.3619 6.60001 50.3679 6.67 50.3779 6.795C50.3819 6.837 50.3849 6.88501 50.3899 6.93901C50.3999 7.15501 50.4269 7.464 50.4269 7.834C50.4289 8.205 50.4369 8.639 50.4129 9.10201ZM40.9489 16.955C40.4819 17.09 39.9869 17.243 39.4949 17.404C38.9989 17.553 38.5049 17.711 38.0449 17.867C37.7009 17.986 37.3689 18.089 37.0699 18.188C36.9699 18.221 36.8739 18.254 36.7829 18.287C36.4129 18.411 36.1039 18.514 35.8879 18.586C35.6699 18.656 35.5459 18.696 35.5459 18.696C35.5459 18.696 35.6109 18.661 35.7279 18.598C35.7669 18.577 35.8119 18.553 35.8619 18.526C36.0149 18.45 36.2159 18.344 36.4579 18.229C36.5389 18.191 36.6239 18.152 36.7129 18.112C37.0709 17.954 37.4879 17.766 37.9469 17.594C38.4059 17.423 38.8979 17.25 39.3939 17.085C39.8949 16.937 40.3979 16.797 40.8719 16.674C40.9909 16.643 41.1079 16.615 41.2229 16.589C41.3379 16.563 41.4509 16.539 41.5609 16.516C41.7809 16.47 41.9889 16.431 42.1809 16.393C42.5649 16.316 42.8899 16.28 43.1159 16.246C43.3429 16.219 43.4729 16.204 43.4729 16.204C43.4729 16.204 43.4419 16.214 43.3829 16.232C43.3239 16.25 43.2389 16.276 43.1289 16.31C42.9109 16.374 42.5979 16.466 42.2239 16.577C41.8479 16.679 41.4159 16.823 40.9489 16.955ZM42.3559 5.19101C42.4199 5.27001 42.4909 5.361 42.5599 5.464C42.7009 5.67 42.8659 5.91301 43.0119 6.19101C43.1549 6.47001 43.2959 6.774 43.4239 7.084C43.5339 7.4 43.6319 7.721 43.7099 8.024C43.7479 8.176 43.7769 8.32501 43.7999 8.46701C43.8229 8.60901 43.8399 8.744 43.8559 8.867C43.8899 9.115 43.8879 9.325 43.8929 9.47C43.8919 9.543 43.8909 9.60001 43.8909 9.63901C43.8899 9.67801 43.8899 9.69901 43.8899 9.69901C43.8899 9.69901 43.8679 9.619 43.8289 9.479C43.7969 9.338 43.7339 9.14 43.6719 8.903C43.6139 8.664 43.5159 8.394 43.4309 8.10201C43.3409 7.81001 43.2329 7.504 43.1119 7.202C43.0019 6.897 42.8789 6.59501 42.7519 6.31801C42.6209 6.04301 42.5149 5.77601 42.3989 5.55901C42.2879 5.34001 42.2029 5.151 42.1339 5.024C42.0859 4.926 42.0529 4.859 42.0399 4.832C42.0359 4.823 42.0329 4.81801 42.0329 4.81801C42.0329 4.81801 42.0889 4.88 42.1879 4.987C42.2329 5.045 42.2919 5.11201 42.3559 5.19101ZM34.9369 15.348C34.9369 15.348 34.9599 15.333 35.0019 15.304C35.0449 15.275 35.1069 15.233 35.1869 15.179C35.3499 15.078 35.5789 14.924 35.8719 14.773C36.1639 14.62 36.5069 14.444 36.8899 14.288C37.0819 14.212 37.2819 14.137 37.4859 14.064C37.6899 13.991 37.8989 13.921 38.1089 13.855C38.5349 13.74 38.9639 13.641 39.3699 13.563C39.7759 13.487 40.1599 13.451 40.4889 13.423C40.5709 13.415 40.6499 13.41 40.7249 13.406C40.8749 13.398 41.0099 13.397 41.1259 13.396C41.1839 13.396 41.2369 13.396 41.2849 13.395C41.3329 13.396 41.3759 13.397 41.4129 13.398C41.4499 13.399 41.4819 13.4 41.5079 13.401C41.5599 13.402 41.5869 13.403 41.5869 13.403C41.5869 13.403 41.5259 13.415 41.4169 13.436C41.3799 13.443 41.3379 13.451 41.2909 13.46C41.1019 13.489 40.8349 13.549 40.5149 13.609C40.1939 13.664 39.8259 13.762 39.4299 13.847C39.0349 13.938 38.6169 14.05 38.2039 14.176C37.7879 14.292 37.3759 14.423 36.9939 14.559C36.6139 14.7 36.2519 14.816 35.9519 14.943C35.6499 15.064 35.3929 15.159 35.2179 15.236C35.0389 15.307 34.9369 15.348 34.9369 15.348ZM67.0929 1.845C67.4599 2.098 67.7939 2.382 68.0889 2.686C68.2349 2.84 68.3699 2.99901 68.4959 3.16101C68.8729 3.64801 69.1609 4.16401 69.3689 4.66901C69.6489 5.34301 69.8059 5.992 69.8919 6.571C69.9799 7.15 69.9989 7.659 69.9959 8.076C69.9949 8.493 69.9619 8.819 69.9369 9.041C69.9299 9.096 69.9239 9.145 69.9179 9.187C69.9009 9.313 69.8879 9.379 69.8879 9.379C69.8879 9.379 69.8979 9.26 69.8999 9.039C69.9019 8.817 69.8959 8.493 69.8619 8.082C69.8289 7.672 69.7619 7.17601 69.6389 6.62001C69.5139 6.06501 69.3149 5.45301 69.0179 4.82901C68.7179 4.20701 68.2889 3.58701 67.7339 3.04001C67.1679 2.50401 66.4669 2.054 65.6749 1.742C64.8839 1.434 63.9939 1.26101 63.1079 1.19501L62.7579 1.175C62.6379 1.164 62.5379 1.181 62.4269 1.181L62.1009 1.194C61.9919 1.205 61.8809 1.224 61.7709 1.239C61.3279 1.29 60.9039 1.431 60.4919 1.591C60.0859 1.767 59.7059 1.999 59.3589 2.274C59.1849 2.412 59.0199 2.56 58.8639 2.718C58.7079 2.876 58.5599 3.04201 58.4229 3.21701C57.8789 3.92001 57.4549 4.71 57.1379 5.515C56.8219 6.321 56.5899 7.13501 56.4189 7.91901C56.3349 8.31201 56.2639 8.69601 56.2049 9.07001C56.1449 9.44401 56.0959 9.808 56.0559 10.157C55.9789 10.857 55.9329 11.503 55.9069 12.077C55.8849 12.651 55.8819 13.152 55.8859 13.566C55.8959 13.979 55.9059 14.304 55.9209 14.526C55.9369 14.748 55.9449 14.866 55.9449 14.866C55.9449 14.866 55.9239 14.749 55.8849 14.53C55.8489 14.311 55.7969 13.988 55.7529 13.574C55.7119 13.16 55.6679 12.656 55.6499 12.076C55.6319 11.496 55.6309 10.84 55.6719 10.125C55.6909 9.768 55.7189 9.39501 55.7599 9.01001C55.7799 8.81801 55.8039 8.622 55.8319 8.424C55.8599 8.226 55.8909 8.02501 55.9269 7.82201C56.0689 7.01001 56.2689 6.157 56.5849 5.304C56.6639 5.091 56.7489 4.87801 56.8419 4.66501C57.1199 4.02701 57.4649 3.39601 57.9129 2.81601C58.3589 2.23901 58.9179 1.72 59.5599 1.325C59.6669 1.259 59.7759 1.197 59.8879 1.138C59.9989 1.079 60.1129 1.024 60.2289 0.973999C60.3459 0.928999 60.4649 0.885001 60.5839 0.845001C60.8219 0.764001 61.0639 0.694004 61.3089 0.645004C61.4309 0.620004 61.5549 0.601006 61.6789 0.587006C61.8029 0.572006 61.9249 0.552 62.0499 0.541L62.4279 0.529007C62.5509 0.529007 62.6849 0.515008 62.7989 0.527008L63.1479 0.550003L63.3219 0.561996L63.4239 0.569L63.5129 0.582001C63.6309 0.599001 63.7489 0.617011 63.8669 0.633011C64.1029 0.662011 64.3339 0.719996 64.5649 0.770996C65.0259 0.874996 65.4709 1.02501 65.8989 1.19701C66.1129 1.28501 66.3199 1.385 66.5189 1.494C66.7169 1.601 66.9089 1.719 67.0929 1.845Z" fill="#518F28"/>
<path d="M55.2712 23.8344C54.8152 23.3254 54.9662 22.6964 55.0722 22.4104C55.1872 22.2194 55.3142 22.0164 55.4502 21.8154C55.6932 21.4524 55.9532 21.0984 56.1532 20.8354C56.3542 20.5734 56.4882 20.3994 56.4882 20.3994C56.4882 20.3994 56.3302 20.5534 56.0932 20.7834C55.8582 21.0154 55.5482 21.3304 55.2512 21.6604C55.0862 21.8424 54.9282 22.0284 54.7842 22.2044C54.2752 22.5904 53.7992 22.3734 53.6382 22.2784C53.5432 22.1464 53.4422 22.0104 53.3402 21.8744C53.1612 21.6334 52.9772 21.3974 52.8172 21.1954C52.5512 20.8594 52.3522 20.6194 52.3522 20.6194C52.3522 20.6194 52.4092 20.7154 52.5002 20.8734C52.6522 21.1364 52.8972 21.5684 53.1282 22.0084C53.2602 22.2564 53.3862 22.5064 53.4952 22.7264C53.5112 22.8284 53.5192 22.9344 53.5192 23.0414C53.5192 23.1484 53.5122 23.2554 53.5012 23.3594C53.4782 23.5684 53.4372 23.7664 53.3962 23.9274C53.3902 23.9394 53.3852 23.9494 53.3792 23.9624C53.3422 24.0394 53.3022 24.1224 53.2602 24.2094C53.1762 24.3854 53.0822 24.5794 52.9852 24.7804C52.9372 24.8804 52.8882 24.9824 52.8392 25.0854C52.7902 25.1874 52.7402 25.2884 52.6912 25.3884C52.5442 25.6874 52.4002 25.9704 52.2812 26.1954C52.1212 26.4944 52.0142 26.6934 52.0142 26.6934C52.0142 26.6934 52.0892 26.5904 52.2112 26.4234C52.2522 26.3674 52.2982 26.3054 52.3482 26.2364C52.4472 26.0984 52.5612 25.9364 52.6822 25.7614C52.8032 25.5864 52.9302 25.3994 53.0562 25.2104C53.2642 24.8984 53.4692 24.5894 53.6412 24.3314C54.0872 24.0404 54.6972 24.0884 54.9912 24.1354C55.2342 24.2454 55.5292 24.3874 55.8262 24.5364C56.1642 24.7054 56.4972 24.8844 56.7462 25.0214C56.9952 25.1584 57.1592 25.2534 57.1592 25.2534C57.1592 25.2534 57.1222 25.2234 57.0582 25.1704C57.0262 25.1444 56.9872 25.1124 56.9412 25.0764C56.7152 24.8954 56.3422 24.6014 55.9572 24.3214C55.7212 24.1474 55.4802 23.9774 55.2712 23.8344Z" fill="#518F28"/>
<path d="M37.779 89.9012V86.0182L37.072 85.8222L37.136 85.5342H38.564C38.837 85.5342 39.073 85.5412 39.272 85.5542C39.471 85.5672 39.672 85.6002 39.875 85.6542C40.078 85.7082 40.257 85.7892 40.412 85.9002C40.567 86.0122 40.69 86.1582 40.778 86.3372C40.867 86.5162 40.911 86.7272 40.911 86.9702C40.911 87.1902 40.862 87.3882 40.765 87.5642C40.667 87.7412 40.532 87.8902 40.359 88.0112C40.181 88.1372 39.966 88.2302 39.713 88.2902C39.46 88.3502 39.212 88.3792 38.969 88.3792L39.014 88.1482C39.314 88.0292 39.54 87.9232 39.69 87.8312C39.84 87.7392 39.951 87.6252 40.023 87.4892C40.094 87.3542 40.13 87.1722 40.13 86.9452C40.13 86.5482 39.981 86.2622 39.681 86.0892C39.381 85.9162 38.989 85.8262 38.503 85.8192V89.9062L39.382 90.0992L39.318 90.3902H37.041L37.109 90.0922L37.779 89.9012Z" fill="#334725"/>
<path d="M42.561 89.9012V86.0182L41.858 85.8222L41.922 85.5342H43.308C43.584 85.5342 43.82 85.5412 44.018 85.5542C44.216 85.5672 44.416 85.5982 44.617 85.6472C44.819 85.6962 45.005 85.7732 45.175 85.8792C45.338 85.9802 45.467 86.1132 45.562 86.2792C45.657 86.4452 45.705 86.6222 45.705 86.8092C45.705 87.4292 45.326 87.8392 44.567 88.0402L45.732 89.8712L46.465 90.1062L46.394 90.3902H44.981L45.037 90.1202L43.786 87.9872C44.117 87.8732 44.365 87.7532 44.532 87.6292C44.699 87.5052 44.807 87.3802 44.859 87.2532C44.91 87.1272 44.936 86.9772 44.936 86.8042C44.936 86.5822 44.854 86.3992 44.692 86.2552C44.529 86.1112 44.323 86.0052 44.074 85.9362C43.824 85.8672 43.561 85.8272 43.283 85.8152V89.8592L44.057 90.0522L43.978 90.3892H41.833L41.886 90.0942L42.561 89.9012Z" fill="#334725"/>
<path d="M47.515 86.8131C47.704 86.3891 47.983 86.0491 48.353 85.7941C48.722 85.5391 49.166 85.4121 49.685 85.4121C50.076 85.4121 50.435 85.5051 50.764 85.6911C51.092 85.8771 51.353 86.1451 51.547 86.4941C51.741 86.8431 51.838 87.2511 51.838 87.7161C51.838 88.2211 51.741 88.6871 51.547 89.1141C51.353 89.5411 51.073 89.8811 50.707 90.1331C50.341 90.3861 49.911 90.5121 49.418 90.5121C49.007 90.5121 48.636 90.4191 48.304 90.2331C47.972 90.0471 47.71 89.7801 47.519 89.4321C47.327 89.0841 47.231 88.6741 47.231 88.2041C47.231 87.7011 47.326 87.2371 47.515 86.8131ZM49.024 89.8011C49.254 89.9051 49.496 89.9571 49.749 89.9571C49.922 89.9571 50.088 89.9321 50.247 89.8821C50.406 89.8321 50.541 89.7511 50.651 89.6421C50.786 89.5071 50.889 89.2981 50.961 89.0181C51.032 88.7371 51.068 88.4741 51.068 88.2291C51.068 87.9391 51.055 87.6941 51.029 87.4941C51.002 87.2941 50.952 87.1111 50.877 86.9451C50.789 86.7511 50.666 86.5801 50.507 86.4331C50.348 86.2861 50.167 86.1711 49.964 86.0901C49.761 86.0081 49.553 85.9671 49.34 85.9671C49.175 85.9671 49.011 85.9921 48.85 86.0401C48.688 86.0891 48.551 86.1641 48.439 86.2651C48.341 86.3541 48.26 86.4831 48.195 86.6521C48.13 86.8221 48.082 87.0011 48.05 87.1911C48.019 87.3801 48.003 87.5521 48.003 87.7061C48.003 88.0571 48.034 88.3731 48.097 88.6531C48.16 88.9331 48.277 89.1741 48.45 89.3761C48.602 89.5551 48.793 89.6971 49.024 89.8011Z" fill="#334725"/>
<path d="M53.619 89.9012V86.0182L52.916 85.8222L52.98 85.5342H54.63C55.038 85.5342 55.414 85.5632 55.757 85.6222C56.1 85.6802 56.398 85.7892 56.651 85.9482C56.994 86.1652 57.247 86.4412 57.408 86.7762C57.57 87.1102 57.65 87.4922 57.65 87.9202C57.65 88.2682 57.597 88.6022 57.49 88.9192C57.384 89.2372 57.215 89.5092 56.984 89.7362C56.779 89.9352 56.534 90.0822 56.251 90.1762C55.968 90.2712 55.68 90.3302 55.387 90.3532C55.094 90.3772 54.741 90.3882 54.327 90.3882H52.895L52.959 90.0902L53.619 89.9012ZM55.801 89.7522C56.164 89.6032 56.434 89.3862 56.611 89.0992C56.787 88.8132 56.876 88.4272 56.876 87.9432C56.876 87.1732 56.568 86.6092 55.952 86.2492C55.777 86.1462 55.546 86.0582 55.259 85.9862C54.972 85.9142 54.666 85.8602 54.34 85.8252V90.0832C54.951 90.0112 55.438 89.9012 55.801 89.7522Z" fill="#334725"/>
<path d="M60.1991 89.2892C60.3281 89.5192 60.5061 89.7002 60.7341 89.8312C60.9621 89.9622 61.2191 90.0272 61.5041 90.0272C61.6591 90.0272 61.8001 90.0042 61.9271 89.9572C62.0531 89.9102 62.1631 89.8442 62.2561 89.7572C62.3761 89.6452 62.4681 89.5002 62.5301 89.3222C62.5931 89.1442 62.6241 88.9422 62.6241 88.7152V86.0312L61.8841 85.8242L61.9441 85.5332H63.7931L63.7331 85.8312L63.1581 86.0312V88.7322C63.1581 89.0832 63.0831 89.3922 62.9341 89.6602C62.7851 89.9282 62.5631 90.1372 62.2691 90.2872C61.9751 90.4372 61.6181 90.5112 61.2001 90.5112C60.7771 90.5112 60.4221 90.4372 60.1351 90.2882C59.8481 90.1392 59.6341 89.9332 59.4941 89.6692C59.3541 89.4052 59.2841 89.0962 59.2841 88.7432V86.0172L58.6411 85.8242L58.7011 85.5332H60.8051L60.7231 85.8912L60.0051 86.0562V88.5082C60.0061 88.7992 60.0701 89.0592 60.1991 89.2892Z" fill="#334725"/>
<path d="M65.9211 90.2311C65.5821 90.0441 65.3181 89.7771 65.1301 89.4281C64.9421 89.0791 64.8481 88.6691 64.8481 88.1961C64.8481 87.6931 64.9351 87.2331 65.1111 86.8161C65.2861 86.3991 65.5411 86.0701 65.8741 85.8291C66.0771 85.6841 66.2951 85.5781 66.5281 85.5121C66.7611 85.4451 67.0211 85.4121 67.3101 85.4121C67.4351 85.4121 67.5631 85.4201 67.6931 85.4361C67.8231 85.4531 67.9701 85.4761 68.1331 85.5071L68.6141 85.4441L68.7571 86.7281L68.3961 86.8091L68.0431 86.0791C67.8801 86.0131 67.7271 85.9661 67.5831 85.9351C67.4391 85.9051 67.2691 85.8891 67.0741 85.8891C66.8911 85.8891 66.7161 85.9161 66.5501 85.9681C66.3831 86.0211 66.2521 86.0851 66.1571 86.1631C65.9921 86.3011 65.8571 86.5181 65.7531 86.8151C65.6491 87.1121 65.5971 87.4791 65.5971 87.9161C65.5971 88.1821 65.6361 88.4451 65.7151 88.7041C65.7941 88.9621 65.9061 89.1801 66.0511 89.3581C66.2161 89.5591 66.4051 89.7081 66.6181 89.8041C66.8311 89.9001 67.0561 89.9481 67.2951 89.9481C67.4151 89.9481 67.5771 89.9221 67.7791 89.8691C67.9821 89.8161 68.1801 89.7581 68.3731 89.6921C68.5661 89.6271 68.7001 89.5761 68.7751 89.5411L68.9441 89.7831C68.6591 90.0381 68.3761 90.2231 68.0971 90.3391C67.8181 90.4551 67.4871 90.5131 67.1031 90.5131C66.6541 90.5121 66.2601 90.4181 65.9211 90.2311Z" fill="#334725"/>
<path d="M71.7498 89.8842V85.8742L70.5058 85.9972L69.9798 86.8742L69.6338 86.8002L69.9418 85.5022L70.4338 85.5332H73.9318L74.4058 85.4912L74.5558 86.8102L74.2218 86.9042L73.7668 85.9992L72.4708 85.8662V89.8862L73.2938 90.0722L73.2268 90.3882H70.9648L71.0328 90.0722L71.7498 89.8842Z" fill="#334725"/>
<path d="M41.4331 64.2061V67.19H31.3941V71.9021H40.9561V75.004H31.3521V79.9131H41.6291V82.923H27.7061V64.2061H41.4331Z" fill="#334725"/>
<path d="M60.4731 82.1372C58.7431 82.7482 56.7811 83.0532 54.5841 83.0532C47.3871 83.0532 43.7881 79.8032 43.7881 73.3022C43.7881 67.1502 47.3861 64.0742 54.5841 64.0742C56.7811 64.0742 58.7431 64.3792 60.4731 64.9902V68.1312C58.7431 67.4332 56.8741 67.0842 54.8651 67.0842C50.0511 67.0842 47.6451 69.1572 47.6451 73.3012C47.6451 77.7952 50.0521 80.0422 54.8651 80.0422C56.8751 80.0422 58.7441 79.6932 60.4731 78.9952V82.1372Z" fill="#334725"/>
<path d="M62.7031 73.5902C62.7031 67.2472 66.0591 64.0742 72.7701 64.0742C79.3781 64.0742 82.6831 67.2462 82.6831 73.5902C82.6831 79.8992 79.3791 83.0532 72.7701 83.0532C66.3581 83.0542 63.0021 79.8992 62.7031 73.5902ZM72.7701 80.0432C76.8081 80.0432 78.8271 77.8662 78.8271 73.5112C78.8271 69.2272 76.8081 67.0852 72.7701 67.0852C68.6291 67.0852 66.5591 69.2272 66.5591 73.5112C66.5591 77.8662 68.6291 80.0432 72.7701 80.0432Z" fill="#334725"/>
</svg>
