<svg width="126" height="126" viewBox="0 0 126 126" fill="none" xmlns="http://www.w3.org/2000/svg">
<path d="M75.1298 82.3076C72.5498 82.3076 71.2598 83.6426 71.2598 86.3116C71.2598 89.0246 72.5498 90.3806 75.1298 90.3806C77.6458 90.3806 78.9038 89.0236 78.9038 86.3116C78.9038 83.6436 77.6458 82.3076 75.1298 82.3076Z" fill="#518F28"/>
<path d="M64.5779 96.6868C64.7429 96.4198 64.8249 96.0608 64.8249 95.6098C64.8249 94.8928 64.5379 94.3668 63.9639 94.0308C63.7999 93.9348 63.5849 93.8528 63.3179 93.7858C63.0509 93.7178 62.7649 93.6678 62.4619 93.6348V97.6038C63.0319 97.5358 63.4859 97.4338 63.8249 97.2948C64.1619 97.1568 64.4139 96.9548 64.5779 96.6868Z" fill="#518F28"/>
<path d="M56.5527 95.3876C56.5527 95.7146 56.5817 96.0086 56.6407 96.2706C56.6987 96.5326 56.8087 96.7566 56.9697 96.9436C57.1117 97.1116 57.2907 97.2436 57.5057 97.3406C57.7207 97.4376 57.9457 97.4866 58.1817 97.4866C58.3427 97.4866 58.4977 97.4626 58.6457 97.4166C58.7937 97.3696 58.9197 97.2946 59.0217 97.1926C59.1477 97.0656 59.2447 96.8726 59.3107 96.6106C59.3777 96.3496 59.4107 96.1036 59.4107 95.8746C59.4107 95.6046 59.3987 95.3756 59.3737 95.1896C59.3497 95.0036 59.3017 94.8326 59.2317 94.6776C59.1497 94.4966 59.0347 94.3376 58.8867 94.2006C58.7377 94.0636 58.5697 93.9566 58.3807 93.8806C58.1917 93.8046 57.9977 93.7666 57.7987 93.7666C57.6447 93.7666 57.4927 93.7896 57.3417 93.8346C57.1907 93.8806 57.0627 93.9506 56.9587 94.0436C56.8677 94.1266 56.7917 94.2466 56.7307 94.4046C56.6697 94.5626 56.6247 94.7306 56.5957 94.9066C56.5667 95.0836 56.5527 95.2436 56.5527 95.3876Z" fill="#518F28"/>
<path d="M58.1607 22.525C56.9457 21.993 55.7988 21.491 54.9808 20.787C54.8368 20.663 54.6557 20.598 54.4717 20.598C54.3877 20.598 54.3037 20.6109 54.2217 20.6389C53.9607 20.7269 53.7657 20.9469 53.7087 21.2169C53.7017 21.2479 53.0347 24.369 51.5977 28.098C50.6877 30.458 50.9487 32.8689 52.3317 34.8839C53.9627 37.2599 56.8577 38.679 60.0767 38.679C60.2007 38.679 60.3267 38.676 60.4517 38.672C60.6717 39.491 60.9117 40.5219 61.0417 41.5229C61.0647 41.7009 61.2647 41.786 61.4557 41.702L62.0097 41.46C62.0667 41.435 62.1147 41.3969 62.1527 41.3539C62.1847 41.3239 62.2118 41.287 62.2288 41.243C62.4498 40.676 62.9637 39.41 63.5177 38.424C63.5757 38.426 63.6537 38.4279 63.7507 38.4279C65.1657 38.4279 69.9647 38.0619 72.2837 33.3459C74.0557 29.7419 73.1678 26.633 72.3838 23.89C72.0058 22.566 71.6477 21.3149 71.6287 20.1349C71.6237 19.8429 71.4548 19.5789 71.1917 19.4529C71.0857 19.4019 70.9717 19.377 70.8587 19.377C70.6907 19.377 70.5247 19.432 70.3867 19.539C70.3617 19.558 67.8428 21.5009 64.4488 23.3459C63.6718 23.7679 62.9887 24.3069 62.4067 24.9399C61.1327 23.8259 59.5927 23.152 58.1607 22.525ZM60.7067 37.879C60.4947 37.892 60.2847 37.899 60.0767 37.899C54.5897 37.899 50.3907 33.397 52.3247 28.378C53.8037 24.54 54.4707 21.378 54.4707 21.378C56.3857 23.025 59.6407 23.553 61.9017 25.541C61.0757 26.64 60.5177 27.97 60.2757 29.469C60.1397 30.312 60.1147 31.1719 60.1927 32.0219C60.1447 32.1289 60.0968 32.2349 60.0498 32.3419C59.9128 32.6519 59.7897 32.968 59.6667 33.284C59.6047 33.445 59.5437 33.6069 59.4847 33.7679C59.4137 33.5859 59.3417 33.401 59.2617 33.214C59.1707 32.989 59.0697 32.762 58.9617 32.533C58.9087 32.418 58.8547 32.303 58.8007 32.187C58.7437 32.072 58.6857 31.956 58.6277 31.84C58.6207 31.825 58.6127 31.81 58.6047 31.795C58.6747 31.546 58.7527 31.295 58.8347 31.047C58.9267 30.769 59.0277 30.495 59.1287 30.22C59.2337 29.948 59.3418 29.676 59.4638 29.412C59.5238 29.279 59.5887 29.15 59.6517 29.02C59.7197 28.893 59.7847 28.763 59.8607 28.642C59.9327 28.514 60.0127 28.407 60.0997 28.28C60.1847 28.16 60.2687 28.0389 60.3457 27.9019C60.3867 27.8359 60.4227 27.769 60.4557 27.701C60.4897 27.633 60.5267 27.567 60.5567 27.498C60.6207 27.361 60.6788 27.222 60.7308 27.082C60.8328 26.8 60.9187 26.513 60.9827 26.222C61.0487 25.932 61.0957 25.6369 61.1197 25.3419C61.0577 25.6319 60.9758 25.9149 60.8838 26.1949C60.7898 26.4729 60.6857 26.748 60.5617 27.012C60.4977 27.143 60.4347 27.274 60.3647 27.401C60.3317 27.466 60.2927 27.526 60.2557 27.588C60.2187 27.651 60.1807 27.7119 60.1397 27.7679C60.0647 27.8849 59.9708 27.9999 59.8798 28.1169C59.7938 28.2299 59.6907 28.355 59.6107 28.482C59.5227 28.607 59.4488 28.738 59.3708 28.868C59.2968 28.999 59.2237 29.131 59.1587 29.267C59.0237 29.536 58.9047 29.81 58.7887 30.086C58.7337 30.225 58.6747 30.363 58.6247 30.503C58.5727 30.643 58.5227 30.784 58.4737 30.925C58.4307 31.051 58.3887 31.177 58.3487 31.304C58.3187 31.249 58.2877 31.195 58.2577 31.14C58.1917 31.024 58.1267 30.9039 58.0597 30.7899C57.9907 30.6769 57.9228 30.564 57.8538 30.45L57.6437 30.106C57.5767 29.995 57.5067 29.8859 57.4427 29.7719C57.3897 29.6819 57.3378 29.591 57.2868 29.5C57.3428 29.378 57.3997 29.2549 57.4577 29.1339L57.7767 28.489C57.8857 28.275 57.9957 28.0619 58.1127 27.8539C58.2307 27.6459 58.3457 27.436 58.4737 27.237L58.6677 26.929C58.7337 26.829 58.7938 26.718 58.8558 26.611C58.9188 26.504 58.9737 26.3939 59.0317 26.2859C59.0867 26.1759 59.1427 26.0659 59.1917 25.9529C59.2407 25.8399 59.2897 25.727 59.3327 25.611C59.3767 25.496 59.4178 25.38 59.4508 25.261C59.4858 25.143 59.5138 25.0229 59.5368 24.9019C59.5558 24.7799 59.5727 24.6579 59.5677 24.5359C59.5507 24.6569 59.5117 24.7719 59.4717 24.8849C59.4297 24.9979 59.3857 25.11 59.3347 25.218C59.2847 25.327 59.2308 25.4339 59.1748 25.5399C59.1188 25.6459 59.0587 25.75 58.9977 25.852C58.8737 26.056 58.7457 26.2589 58.6077 26.4529C58.5388 26.5499 58.4707 26.646 58.3977 26.744L58.1817 27.037C58.0347 27.236 57.8937 27.439 57.7647 27.649C57.6337 27.857 57.5117 28.07 57.3907 28.283C57.2687 28.496 57.1578 28.715 57.0478 28.933C57.0368 28.955 57.0267 28.977 57.0157 28.998C56.9127 28.797 56.8137 28.595 56.7197 28.392C56.5827 28.088 56.4498 27.7849 56.3258 27.4839C56.3858 27.3429 56.4507 27.2009 56.5167 27.0609C56.5947 26.8989 56.6737 26.7379 56.7557 26.5779C56.8377 26.4189 56.9237 26.262 57.0157 26.111C57.0597 26.034 57.1077 25.961 57.1567 25.887C57.2057 25.814 57.2567 25.745 57.3117 25.68C57.3727 25.606 57.4297 25.54 57.4877 25.46C57.5467 25.383 57.5967 25.308 57.6497 25.2299C57.7537 25.076 57.8497 24.918 57.9407 24.758C58.1237 24.439 58.2898 24.111 58.4378 23.775C58.2298 24.077 58.0187 24.376 57.8027 24.668C57.6927 24.813 57.5837 24.9569 57.4697 25.0959C57.4127 25.1639 57.3548 25.2349 57.2958 25.2979C57.2398 25.3609 57.1717 25.428 57.1117 25.491C56.8367 25.768 56.6317 26.082 56.4427 26.404C56.3467 26.564 56.2587 26.727 56.1777 26.894C56.1617 26.926 56.1468 26.957 56.1318 26.989C55.9598 26.528 55.7988 26.08 55.6578 25.649C55.6298 25.561 55.6027 25.4749 55.5747 25.3889C55.6297 25.3399 55.6837 25.291 55.7357 25.239C55.8197 25.153 55.9018 25.0659 55.9788 24.9749C56.0568 24.8839 56.1297 24.788 56.1967 24.688C56.2647 24.589 56.3277 24.485 56.3807 24.377C56.4327 24.266 56.4787 24.161 56.5297 24.059C56.5797 23.956 56.6318 23.853 56.6878 23.752C56.7988 23.55 56.9147 23.349 57.0447 23.155C56.8797 23.321 56.7297 23.5009 56.5917 23.6909C56.5227 23.7859 56.4557 23.883 56.3917 23.982C56.3277 24.082 56.2707 24.186 56.2087 24.276C56.1427 24.367 56.0788 24.458 56.0048 24.543C55.9328 24.629 55.8547 24.711 55.7777 24.792C55.6997 24.873 55.6177 24.95 55.5337 25.026C55.5147 25.042 55.4967 25.059 55.4777 25.076C55.4077 24.851 55.3427 24.633 55.2817 24.424C55.0627 23.659 54.8977 23.0139 54.7887 22.5609C54.6787 22.1069 54.6217 21.8459 54.6217 21.8459C54.6217 21.8459 54.6247 22.114 54.6657 22.582C54.7067 23.049 54.7817 23.716 54.9317 24.508C54.9697 24.714 55.0128 24.928 55.0608 25.149C55.0418 25.145 55.0227 25.142 55.0037 25.138C54.8727 25.107 54.7407 25.083 54.6097 25.049C54.5437 25.035 54.4777 25.019 54.4127 25.002C54.3477 24.985 54.2808 24.97 54.2158 24.951C54.1498 24.932 54.0827 24.916 54.0177 24.895C53.9507 24.878 53.8837 24.8539 53.8137 24.8369C53.8647 24.8869 53.9147 24.9369 53.9717 24.9799C54.0287 25.024 54.0877 25.065 54.1477 25.103C54.2087 25.139 54.2697 25.1769 54.3337 25.2079C54.3977 25.2399 54.4627 25.2689 54.5277 25.2979C54.5937 25.3249 54.6607 25.3489 54.7277 25.3719C54.7947 25.3959 54.8627 25.416 54.9317 25.433C54.9987 25.45 55.0667 25.466 55.1347 25.481C55.1587 25.58 55.1827 25.6799 55.2087 25.7809C55.3087 26.1779 55.4238 26.593 55.5608 27.015C55.5428 27.008 55.5257 27 55.5077 26.993C55.3887 26.946 55.2677 26.906 55.1457 26.866C55.0247 26.827 54.9017 26.79 54.7757 26.757L54.4107 26.676C54.2907 26.648 54.1698 26.6239 54.0498 26.5919C53.9298 26.5609 53.8078 26.534 53.6878 26.499C53.5668 26.467 53.4458 26.4349 53.3238 26.3979C53.4238 26.4769 53.5307 26.546 53.6407 26.612C53.7517 26.675 53.8628 26.7369 53.9788 26.7899C54.0938 26.8429 54.2098 26.898 54.3298 26.942C54.4508 26.988 54.5678 27.0289 54.6858 27.0699C54.7988 27.1109 54.9137 27.151 55.0277 27.198C55.1417 27.242 55.2538 27.293 55.3668 27.34C55.4798 27.387 55.5918 27.438 55.7028 27.489C55.7108 27.493 55.7187 27.496 55.7257 27.5C55.8577 27.878 56.0027 28.261 56.1737 28.64C56.2727 28.864 56.3777 29.087 56.4887 29.309L56.4577 29.3L55.9047 29.12C55.5357 28.999 55.1657 28.88 54.7987 28.753L54.2467 28.571C54.1557 28.542 54.0667 28.507 53.9757 28.476C53.8857 28.444 53.7967 28.409 53.7077 28.373C53.5317 28.299 53.3568 28.222 53.1898 28.128C53.1058 28.082 53.0227 28.034 52.9437 27.978C52.8647 27.923 52.7847 27.866 52.7197 27.792C52.8077 27.971 52.9528 28.1179 53.1018 28.2509C53.1778 28.3159 53.2578 28.378 53.3388 28.437C53.4198 28.497 53.5037 28.551 53.5897 28.603C53.7617 28.706 53.9368 28.805 54.1188 28.886C54.2098 28.929 54.3007 28.97 54.3897 29.007L54.6598 29.1209C55.0248 29.2659 55.3888 29.4109 55.7588 29.5439L56.3157 29.735C56.4747 29.787 56.6327 29.84 56.7967 29.888C56.8337 29.954 56.8697 30.021 56.9087 30.086C56.9767 30.204 57.0537 30.318 57.1247 30.434L57.3347 30.769C57.4057 30.881 57.4758 30.994 57.5458 31.106C57.5808 31.164 57.6147 31.222 57.6477 31.279C57.4067 31.179 57.1647 31.081 56.9187 30.994C56.6517 30.901 56.3828 30.8129 56.1077 30.7379C55.9717 30.6979 55.8327 30.666 55.6947 30.631C55.5547 30.603 55.4098 30.569 55.2738 30.549L55.0637 30.515L54.8647 30.481C54.7317 30.457 54.6007 30.421 54.4697 30.386L54.2747 30.327L54.0817 30.257C53.9537 30.209 53.8278 30.155 53.7028 30.097C53.5768 30.041 53.4547 29.978 53.3327 29.913C53.2117 29.846 53.0927 29.7759 52.9737 29.7039C52.7377 29.5579 52.5067 29.4009 52.2887 29.2249C52.4787 29.4309 52.6887 29.6199 52.9107 29.7939C53.0207 29.8819 53.1367 29.9629 53.2527 30.0439C53.3707 30.1219 53.4897 30.199 53.6137 30.269C53.7377 30.339 53.8638 30.406 53.9938 30.465L54.1887 30.5529L54.3897 30.631C54.4557 30.659 54.5257 30.6769 54.5947 30.6989C54.6637 30.7199 54.7317 30.743 54.8037 30.758L55.2178 30.851C55.3568 30.878 55.4817 30.918 55.6147 30.95C55.7467 30.989 55.8797 31.023 56.0097 31.067C56.2727 31.148 56.5317 31.2429 56.7887 31.3419C57.0467 31.4389 57.3027 31.544 57.5557 31.654C57.6957 31.715 57.8357 31.779 57.9747 31.844C58.0227 31.931 58.0708 32.018 58.1188 32.1049C58.1798 32.216 58.2408 32.327 58.3018 32.437C58.3598 32.549 58.4167 32.659 58.4727 32.769C58.5887 32.988 58.6928 33.207 58.7998 33.42C58.8808 33.578 58.9547 33.735 59.0277 33.891L57.6947 33.4399L55.7718 32.8029C55.6088 32.7509 55.4557 32.695 55.2987 32.64C55.1447 32.579 54.9887 32.5199 54.8357 32.4539C54.5267 32.3269 54.2238 32.184 53.9248 32.032C53.7738 31.959 53.6247 31.8809 53.4757 31.8029L53.0317 31.562C52.7377 31.398 52.4447 31.2289 52.1557 31.0519C52.4157 31.2699 52.6847 31.4759 52.9617 31.6729C53.2377 31.8699 53.5228 32.056 53.8128 32.236C54.1038 32.413 54.4007 32.581 54.7067 32.735C54.8577 32.816 55.0157 32.883 55.1717 32.956C55.3307 33.021 55.4917 33.09 55.6477 33.15C56.2767 33.4 56.9137 33.6269 57.5487 33.8629L58.5057 34.2C58.7697 34.292 59.0327 34.3849 59.2967 34.4749C59.4147 34.7339 59.5257 34.985 59.6287 35.224C59.7807 35.579 59.9157 35.9059 60.0337 36.1989C59.8517 36.1159 59.6697 36.035 59.4857 35.957C59.3307 35.891 59.1737 35.828 59.0177 35.766C58.8607 35.703 58.7027 35.645 58.5427 35.589C58.2237 35.478 57.9028 35.372 57.5758 35.283C57.4138 35.235 57.2477 35.1959 57.0827 35.1559C56.9157 35.1229 56.7427 35.082 56.5807 35.059L56.3307 35.0179L56.0928 34.977C56.0128 34.966 55.9347 34.943 55.8567 34.924C55.7787 34.9039 55.6987 34.89 55.6217 34.864L55.3887 34.793L55.1587 34.709C55.0057 34.652 54.8557 34.5859 54.7067 34.5179C54.5567 34.4499 54.4107 34.3749 54.2647 34.2979C54.1207 34.2179 53.9777 34.1349 53.8357 34.0479C53.5547 33.8729 53.2787 33.6849 53.0187 33.4749C53.2457 33.7209 53.4967 33.9459 53.7627 34.1519C53.8947 34.2569 54.0327 34.354 54.1717 34.45C54.3127 34.543 54.4557 34.634 54.6027 34.718C54.6747 34.763 54.7517 34.8 54.8267 34.839C54.9027 34.878 54.9777 34.918 55.0557 34.952L55.2887 35.0569L55.5277 35.15C55.6887 35.209 55.8527 35.2609 56.0207 35.3019L56.2738 35.36L56.5147 35.413C56.6807 35.446 56.8307 35.492 56.9887 35.532C57.1457 35.58 57.3047 35.6199 57.4607 35.6729C57.7747 35.7699 58.0837 35.8829 58.3917 36.0009C58.6987 36.1209 59.0047 36.2439 59.3067 36.3759C59.6077 36.5079 59.9107 36.647 60.1997 36.793L60.2868 36.8369C60.3098 36.8979 60.3328 36.956 60.3538 37.011C60.4358 37.23 60.4997 37.402 60.5437 37.519C60.5867 37.637 60.6087 37.7 60.6087 37.7C60.6087 37.7 60.5717 37.434 60.4707 36.976C60.4637 36.945 60.4558 36.911 60.4488 36.878L60.5257 36.6599C60.6377 36.3439 60.7547 36.022 60.8787 35.706C60.9297 35.575 60.9838 35.444 61.0368 35.314C61.2538 35.815 61.5097 36.298 61.8007 36.756C61.1887 37.4729 60.7067 37.879 60.7067 37.879ZM60.7978 34.724C60.6778 34.994 60.5618 35.266 60.4508 35.539L60.2607 36.0219C60.2548 36.0369 60.2498 36.052 60.2438 36.067C60.1648 35.774 60.0707 35.451 59.9587 35.103C59.8907 34.893 59.8187 34.674 59.7387 34.448L59.7588 34.3889C59.8638 34.0749 59.9777 33.759 60.0937 33.446C60.1627 33.259 60.2347 33.073 60.3077 32.888C60.4167 33.513 60.5808 34.129 60.7978 34.724ZM61.7597 39.861C61.5947 39.398 61.4287 38.879 61.3097 38.387C61.4747 38.239 61.8288 37.906 62.2588 37.417C62.4238 37.635 62.5987 37.846 62.7817 38.049C62.4947 38.5979 62.1447 39.233 61.7597 39.861ZM64.8157 24.021C68.3117 22.121 70.8577 20.146 70.8577 20.146C70.9198 23.938 74.0707 27.9639 71.5917 33.0049C69.4507 37.3599 64.9397 37.6559 63.7507 37.6559C63.5627 37.6559 63.4577 37.649 63.4577 37.649C59.7057 33.641 60.0707 26.601 64.8157 24.021Z" fill="#518F28"/>
<path d="M61.7599 29.5481C61.7669 29.7211 61.7819 29.8931 61.7999 30.0661C61.8199 30.2381 61.8409 30.4111 61.8709 30.5821C61.8979 30.7541 61.9389 30.9241 61.9779 31.0941C62.0229 31.2631 62.0669 31.4331 62.1249 31.5991C62.1509 31.6831 62.1799 31.7661 62.2149 31.8471C62.2489 31.9281 62.2799 32.0111 62.3169 32.0921L62.5479 32.5601C62.6289 32.7141 62.6909 32.8651 62.7619 33.0161C62.8269 33.1721 62.8969 33.3251 62.9579 33.4831C63.0839 33.7961 63.1959 34.1171 63.3019 34.4391C63.4109 34.7601 63.5109 35.0851 63.6049 35.4111C63.6989 35.7361 63.7849 36.0681 63.8639 36.3931L63.8969 36.5311C63.8709 36.5931 63.8469 36.6531 63.8239 36.7091C63.6289 37.1721 63.5169 37.4371 63.5169 37.4371C63.5169 37.4371 63.6779 37.1981 63.9319 36.7631C63.9489 36.7341 63.9679 36.7011 63.9849 36.6701L64.2059 36.5391C64.4809 36.3751 64.7669 36.2151 65.0529 36.0621C65.3389 35.9081 65.6289 35.7621 65.9189 35.6161C66.2099 35.4721 66.5029 35.3331 66.7999 35.2081C66.9479 35.1431 67.0979 35.0861 67.2479 35.0261C67.3979 34.9671 67.5489 34.9141 67.6999 34.8631C67.8519 34.8161 68.0049 34.7691 68.1589 34.7371C68.3209 34.6971 68.4769 34.6681 68.6409 34.6191L68.8859 34.5431L69.1219 34.4561C69.2769 34.3931 69.4319 34.3291 69.5799 34.2531C69.7299 34.1801 69.8759 34.0991 70.0189 34.0161C70.1619 33.9331 70.3029 33.8441 70.4389 33.7501C70.7119 33.5631 70.9729 33.3601 71.2129 33.1351C71.0789 33.2301 70.9399 33.3171 70.7999 33.4011C70.6599 33.4851 70.5189 33.5671 70.3739 33.6421C70.2299 33.7181 70.0849 33.7921 69.9379 33.8601C69.7909 33.9281 69.6429 33.9931 69.4909 34.0491C69.3409 34.1081 69.1889 34.1601 69.0359 34.2091L68.8049 34.2751L68.5759 34.3281C68.4229 34.3611 68.2539 34.3831 68.0959 34.4141C67.9269 34.4401 67.7639 34.4811 67.5999 34.5221C66.9499 34.6951 66.3349 34.9521 65.7319 35.2251C65.4299 35.3611 65.1359 35.5121 64.8419 35.6641C64.6979 35.7391 64.5559 35.8151 64.4139 35.8931C64.5679 35.6011 64.7339 35.2751 64.9059 34.9161C65.0089 34.7001 65.1159 34.4711 65.2229 34.2341L65.2839 34.1971C65.5559 34.0321 65.8369 33.8711 66.1169 33.7141C66.3969 33.5561 66.6819 33.4071 66.9649 33.2541C67.2489 33.1021 67.5359 32.9591 67.8249 32.8211C68.1149 32.6851 68.4059 32.5541 68.7009 32.4351L69.1539 32.2681C69.3049 32.2151 69.4599 32.1491 69.6129 32.0831C69.7629 32.0131 69.9129 31.9471 70.0589 31.8701C70.2059 31.7961 70.3499 31.7181 70.4919 31.6371C70.6329 31.5531 70.7729 31.4691 70.9099 31.3791C71.0479 31.2911 71.1829 31.2001 71.3149 31.1031C71.5799 30.9121 71.8349 30.7091 72.0729 30.4871C71.9399 30.5801 71.8029 30.6671 71.6639 30.7511C71.5259 30.8351 71.3879 30.9191 71.2459 30.9971C71.1049 31.0761 70.9639 31.1531 70.8199 31.2271C70.6769 31.3021 70.5319 31.3701 70.3869 31.4391C70.2409 31.5051 70.0949 31.5731 69.9469 31.6331C69.7999 31.6971 69.6489 31.7501 69.5009 31.8061C69.3509 31.8561 69.2049 31.9091 69.0469 31.9561L68.5789 32.1011C68.2659 32.2071 67.9589 32.3251 67.6579 32.4571C67.3579 32.5891 67.0599 32.7251 66.7669 32.8701C66.4729 33.0121 66.1849 33.1661 65.8979 33.3221C65.7729 33.3901 65.6489 33.4591 65.5249 33.5291C65.6049 33.3361 65.6869 33.1401 65.7649 32.9371C65.8619 32.6951 65.9559 32.4461 66.0439 32.1901C66.1359 31.9351 66.2259 31.6751 66.3099 31.4091C66.3199 31.3801 66.3289 31.3501 66.3389 31.3211C66.5439 31.1831 66.7549 31.0481 66.9669 30.9181C67.2069 30.7711 67.4519 30.6311 67.6969 30.4931C67.9429 30.3571 68.1919 30.2261 68.4459 30.1091C68.6999 29.9921 68.9559 29.8811 69.2179 29.7961C69.3519 29.7531 69.4749 29.7211 69.6199 29.6911L69.8279 29.6411C69.8979 29.6221 69.9709 29.5961 70.0419 29.5741C70.1139 29.5521 70.1799 29.5231 70.2489 29.4961C70.3169 29.4701 70.3839 29.4411 70.4499 29.4091C70.5829 29.3501 70.7109 29.2811 70.8369 29.2111C70.9619 29.1381 71.0849 29.0631 71.2049 28.9831C71.3249 28.9031 71.4419 28.8201 71.5549 28.7321C71.7829 28.5581 71.9999 28.3701 72.2019 28.1681C71.9759 28.3421 71.7389 28.5001 71.4979 28.6481C71.3769 28.7211 71.2539 28.7921 71.1309 28.8601C71.0069 28.9281 70.8809 28.9901 70.7539 29.0501C70.6249 29.1061 70.4979 29.1651 70.3669 29.2131C70.3019 29.2391 70.2369 29.2621 70.1699 29.2821C70.1039 29.3021 70.0379 29.3271 69.9729 29.3411C69.9069 29.3571 69.8439 29.3751 69.7759 29.3891L69.5659 29.4271C69.4309 29.4481 69.2759 29.4791 69.1369 29.5161C68.5679 29.6681 68.0409 29.9131 67.5279 30.1751C67.2709 30.3061 67.0209 30.4491 66.7739 30.5961C66.6869 30.6481 66.6009 30.7011 66.5159 30.7541C66.5309 30.7021 66.5459 30.6501 66.5609 30.5971C66.5999 30.4591 66.6389 30.3211 66.6779 30.1821C66.7129 30.0441 66.7469 29.9061 66.7819 29.7681C66.8509 29.4921 66.9209 29.2161 66.9909 28.9401C67.0249 28.8101 67.0599 28.6801 67.0959 28.5511C67.2109 28.4981 67.3269 28.4461 67.4429 28.3951C67.6519 28.3041 67.8619 28.2171 68.0719 28.1281C68.2819 28.0421 68.4939 27.9571 68.7069 27.8821C68.9209 27.8071 69.1329 27.7291 69.3499 27.6671L69.6819 27.5701C69.7919 27.5411 69.9049 27.4971 70.0169 27.4601C70.1289 27.4221 70.2369 27.3771 70.3469 27.3361C70.4549 27.2891 70.5639 27.2471 70.6689 27.1931C70.7749 27.1431 70.8789 27.0881 70.9819 27.0321C71.0839 26.9741 71.1849 26.9151 71.2819 26.8481C71.4749 26.7171 71.6629 26.5711 71.8089 26.3911C71.7219 26.4671 71.6239 26.5281 71.5249 26.5851C71.4259 26.6421 71.3249 26.6961 71.2219 26.7431C71.0149 26.8381 70.8049 26.9251 70.5879 26.9941C70.3729 27.0661 70.1549 27.1301 69.9349 27.1831C69.8239 27.2081 69.7179 27.2351 69.6039 27.2581L69.2659 27.3301C68.8019 27.4241 68.3569 27.5701 67.9169 27.7261C67.6969 27.8031 67.4819 27.8911 67.2669 27.9811C67.3359 27.7621 67.4069 27.5451 67.4829 27.3301C67.6119 26.9701 67.7429 26.6151 67.8789 26.2681C68.0049 26.2061 68.1349 26.1451 68.2649 26.0871C68.4189 26.0201 68.5729 25.9541 68.7279 25.8901C68.8829 25.8271 69.0389 25.7691 69.1969 25.7201C69.2749 25.6921 69.3539 25.6711 69.4319 25.6491C69.5109 25.6301 69.5889 25.6121 69.6659 25.6021C69.7539 25.5891 69.8339 25.5811 69.9259 25.5611C70.0159 25.5451 70.0989 25.5231 70.1839 25.5021C70.3529 25.4591 70.5179 25.4071 70.6809 25.3511C71.0069 25.2391 71.3259 25.1081 71.6349 24.9591C71.3019 25.0431 70.9699 25.1231 70.6369 25.1921C70.4699 25.2251 70.3039 25.2581 70.1379 25.2831C70.0559 25.2941 69.9709 25.3071 69.8919 25.3131C69.8149 25.3211 69.7249 25.3231 69.6429 25.3291C69.5499 25.3321 69.4599 25.3431 69.3709 25.3561C69.2829 25.3721 69.1949 25.3871 69.1089 25.4081C68.9369 25.4491 68.7689 25.5011 68.6039 25.5571C68.4379 25.6121 68.2749 25.6741 68.1159 25.7431C68.1059 25.7471 68.0969 25.7511 68.0869 25.7551C68.2869 25.2811 68.4869 24.8241 68.6859 24.3941C68.7349 24.2891 68.7829 24.1871 68.8319 24.0851C68.8409 24.0851 68.8499 24.0861 68.8589 24.0861C68.9149 24.0881 68.9709 24.0891 69.0269 24.0861C69.1389 24.0821 69.2499 24.0731 69.3609 24.0591C69.5819 24.0301 69.8029 23.9771 70.0099 23.8881C70.1149 23.8401 70.2079 23.7961 70.3059 23.7551C70.4029 23.7131 70.5019 23.6721 70.6019 23.6361C70.8019 23.5631 71.0049 23.4941 71.2139 23.4401C70.9979 23.4501 70.7829 23.4821 70.5699 23.5281C70.4639 23.5511 70.3579 23.5781 70.2529 23.6081C70.1479 23.6381 70.0439 23.6781 69.9459 23.7021C69.8459 23.7261 69.7459 23.7491 69.6439 23.7621C69.5419 23.7771 69.4389 23.7831 69.3359 23.7911C69.2329 23.7971 69.1289 23.7981 69.0259 23.7941L68.9719 23.7921C69.0789 23.5691 69.1839 23.3541 69.2859 23.1491C69.6709 22.3841 70.0069 21.7521 70.2479 21.3111C70.4879 20.8701 70.6309 20.6211 70.6309 20.6211C70.6309 20.6211 70.4439 20.8401 70.1429 21.2451C69.8429 21.6491 69.4269 22.2381 68.9739 22.9761C68.8689 23.1461 68.7609 23.3241 68.6519 23.5101C68.6489 23.5031 68.6449 23.4971 68.6419 23.4901C68.5829 23.3671 68.5169 23.2461 68.4609 23.1211C68.4299 23.0601 68.4009 22.9971 68.3719 22.9351C68.3439 22.8721 68.3129 22.8101 68.2859 22.7461C68.2579 22.6821 68.2279 22.6191 68.2019 22.5551C68.1719 22.4911 68.1469 22.4231 68.1159 22.3581C68.1019 22.5011 68.1089 22.6481 68.1289 22.7911C68.1399 22.8621 68.1509 22.9341 68.1669 23.0041C68.1839 23.0741 68.2009 23.1441 68.2209 23.2141C68.2419 23.2831 68.2669 23.3511 68.2909 23.4191C68.3149 23.4871 68.3429 23.5541 68.3729 23.6191C68.4029 23.6851 68.4339 23.7501 68.4669 23.8141C68.4689 23.8181 68.4709 23.8211 68.4729 23.8251C68.4069 23.9431 68.3399 24.0631 68.2739 24.1861C68.0799 24.5421 67.8839 24.9191 67.6959 25.3151C67.6569 25.1971 67.6139 25.0811 67.5689 24.9651C67.5219 24.8431 67.4709 24.7231 67.4169 24.6011L67.2459 24.2581C67.1909 24.1441 67.1319 24.0321 67.0799 23.9161C67.0269 23.8011 66.9699 23.6861 66.9199 23.5691C66.8669 23.4531 66.8139 23.3351 66.7629 23.2151C66.7669 23.3451 66.7839 23.4751 66.8029 23.6041C66.8259 23.7321 66.8499 23.8611 66.8829 23.9861C66.9159 24.1121 66.9479 24.2391 66.9899 24.3621C67.0309 24.4881 67.0749 24.6071 67.1179 24.7271C67.1589 24.8431 67.2009 24.9611 67.2379 25.0811C67.2769 25.2001 67.3099 25.3221 67.3459 25.4421C67.3819 25.5621 67.4159 25.6841 67.4479 25.8061C67.4509 25.8151 67.4529 25.8251 67.4549 25.8341C67.2679 26.2501 67.0839 26.6801 66.9219 27.1271C66.8429 27.3441 66.7669 27.5641 66.6929 27.7861L66.4919 27.2691L66.2749 26.7081L66.0629 26.1461L65.8479 25.5861C65.8119 25.4941 65.7829 25.4001 65.7469 25.3071C65.7159 25.2141 65.6819 25.1201 65.6559 25.0251C65.5999 24.8361 65.5439 24.6451 65.5089 24.4501C65.4899 24.3531 65.4719 24.2551 65.4619 24.1561C65.4509 24.0571 65.4409 23.9571 65.4499 23.8561C65.3819 24.0491 65.3669 24.2591 65.3629 24.4641C65.3639 24.5671 65.3679 24.6701 65.3749 24.7731C65.3829 24.8761 65.3929 24.9791 65.4099 25.0801C65.4229 25.1821 65.4439 25.2831 65.4619 25.3841C65.4829 25.4841 65.5029 25.5861 65.5309 25.6851C65.5809 25.8861 65.6409 26.0761 65.6979 26.2701L65.8829 26.8481C65.9469 27.0401 66.0079 27.2321 66.0769 27.4221L66.2869 27.9921C66.3499 28.1551 66.4109 28.3171 66.4799 28.4801C66.4509 28.5801 66.4229 28.6811 66.3959 28.7821C66.3289 29.0621 66.2619 29.3431 66.1949 29.6221C66.1619 29.7611 66.1289 29.8991 66.0959 30.0381C66.0839 30.0821 66.0729 30.1251 66.0609 30.1691C65.9919 29.9451 65.9209 29.7211 65.8419 29.5001C65.7419 29.2271 65.6379 28.9561 65.5199 28.6891C65.4639 28.5551 65.3989 28.4231 65.3379 28.2911C65.2699 28.1601 65.2029 28.0241 65.1299 27.9031L64.9219 27.5331C64.8619 27.4081 64.7979 27.2831 64.7479 27.1531C64.6919 27.0251 64.6459 26.8911 64.5999 26.7581C64.5589 26.6231 64.5149 26.4881 64.4829 26.3511C64.4449 26.2141 64.4149 26.0751 64.3849 25.9361C64.3559 25.7971 64.3329 25.6561 64.3099 25.5151C64.2669 25.2321 64.2339 24.9471 64.2179 24.6601C64.2049 24.8031 64.1979 24.9481 64.1949 25.0921C64.1929 25.2361 64.1959 25.3811 64.2019 25.5261C64.2079 25.6711 64.2209 25.8151 64.2349 25.9601C64.2519 26.1041 64.2689 26.2491 64.2949 26.3921C64.3179 26.5361 64.3519 26.6781 64.3849 26.8211C64.4219 26.9631 64.4599 27.1051 64.5089 27.2441C64.5509 27.3851 64.6129 27.5201 64.6699 27.6571L64.8639 28.0491C64.9319 28.1781 64.9839 28.3041 65.0439 28.4311C65.0989 28.5611 65.1569 28.6901 65.2079 28.8221C65.3139 29.0841 65.4069 29.3531 65.4959 29.6221C65.5869 29.8911 65.6709 30.1631 65.7499 30.4361C65.7929 30.5851 65.8339 30.7361 65.8729 30.8871C65.8389 31.0061 65.8049 31.1251 65.7709 31.2431C65.6979 31.5071 65.6189 31.7661 65.5379 32.0201C65.4029 32.4471 65.2699 32.8621 65.1339 33.2581L64.6499 31.9661L63.9039 30.0151C63.8409 29.8521 63.7839 29.6931 63.7279 29.5301C63.6739 29.3671 63.6219 29.2031 63.5729 29.0381C63.5219 28.8741 63.4779 28.7061 63.4329 28.5391C63.3899 28.3721 63.3479 28.2041 63.3089 28.0351C63.2269 27.6981 63.1559 27.3581 63.0879 27.0171C63.0209 26.6761 62.9569 26.3331 62.9019 25.9881C62.9159 26.6871 62.9859 27.3841 63.0869 28.0781C63.1119 28.2511 63.1439 28.4241 63.1749 28.5971C63.2089 28.7691 63.2409 28.9421 63.2809 29.1141C63.3169 29.2861 63.3629 29.4571 63.4099 29.6281C63.4589 29.7971 63.5109 29.9701 63.5649 30.1351C63.7769 30.8001 64.0109 31.4571 64.2379 32.1171L64.5929 33.1011C64.6949 33.3791 64.7949 33.6571 64.8979 33.9341C64.7929 34.2301 64.6899 34.5141 64.5889 34.7811C64.4479 35.1561 64.3149 35.4991 64.1929 35.8071C64.1909 35.8001 64.1889 35.7931 64.1869 35.7851C64.1409 35.6181 64.0939 35.4511 64.0439 35.2851C63.9439 34.9531 63.8399 34.6231 63.7229 34.2961C63.6029 33.9701 63.4789 33.6461 63.3379 33.3281C63.2709 33.1671 63.1929 33.0111 63.1209 32.8531C63.0389 32.6971 62.9599 32.5351 62.8729 32.3901L62.6239 31.9481C62.5519 31.7991 62.4759 31.6501 62.4159 31.4941C62.3489 31.3401 62.2949 31.1821 62.2399 31.0231C62.1909 30.8621 62.1389 30.7011 62.0999 30.5371C62.0539 30.3741 62.0189 30.2081 61.9829 30.0421C61.9489 29.8751 61.9209 29.7071 61.8929 29.5391C61.8419 29.2021 61.8019 28.8611 61.7839 28.5181C61.7679 28.6891 61.7599 28.8611 61.7559 29.0341C61.7499 29.2031 61.7539 29.3751 61.7599 29.5481Z" fill="#518F28"/>
<path d="M6.43945 62.7854L62.7845 119.13L119.129 62.7854L62.7845 6.44043L6.43945 62.7854ZM54.5925 85.3105V87.2434H48.6085V90.3015H55.0115V92.1774H46.3374V80.5154H54.8895V82.3755H48.6345V85.3114L54.5925 85.3105ZM67.9235 96.8644C68.0435 97.0794 68.2105 97.2474 68.4225 97.3694C68.6345 97.4914 68.8745 97.5524 69.1405 97.5524C69.2855 97.5524 69.4165 97.5305 69.5345 97.4875C69.6525 97.4435 69.7545 97.3814 69.8415 97.3004C69.9535 97.1964 70.0385 97.0604 70.0975 96.8944C70.1555 96.7294 70.1855 96.5404 70.1855 96.3284V93.8275L69.4955 93.6344L69.5515 93.3625H71.2745L71.2185 93.6404L70.6824 93.8264V96.3445C70.6824 96.6715 70.6135 96.9594 70.4745 97.2094C70.3355 97.4584 70.1285 97.6535 69.8545 97.7935C69.5795 97.9335 69.2475 98.0024 68.8575 98.0024C68.4635 98.0024 68.1325 97.9334 67.8645 97.7954C67.5965 97.6574 67.3985 97.4644 67.2675 97.2184C67.1365 96.9724 67.0715 96.6844 67.0715 96.3554V93.8154L66.4725 93.6354L66.5285 93.3634H68.4895L68.4125 93.6974L67.7435 93.8514V96.1364C67.7425 96.4074 67.8025 96.6494 67.9235 96.8644ZM73.0635 96.3185C73.1375 96.5594 73.2415 96.7624 73.3775 96.9284C73.5315 97.1164 73.7075 97.2545 73.9064 97.3445C74.1044 97.4334 74.3155 97.4785 74.5365 97.4785C74.6485 97.4785 74.7994 97.4535 74.9884 97.4044C75.1775 97.3554 75.3624 97.3004 75.5424 97.2394C75.7225 97.1784 75.8475 97.1314 75.9174 97.0984L76.0755 97.3244C75.8095 97.5614 75.5455 97.7344 75.2855 97.8424C75.0255 97.9504 74.7165 98.0045 74.3595 98.0045C73.9415 98.0045 73.5745 97.9174 73.2575 97.7434C72.9415 97.5694 72.6955 97.3194 72.5205 96.9944C72.3455 96.6694 72.2575 96.2874 72.2575 95.8464C72.2575 95.3774 72.3395 94.9494 72.5025 94.5594C72.6655 94.1704 72.9025 93.8634 73.2135 93.6394C73.4025 93.5044 73.6055 93.4054 73.8235 93.3434C74.0405 93.2814 74.2835 93.2505 74.5515 93.2505C74.6684 93.2505 74.7875 93.2584 74.9085 93.2734C75.0305 93.2884 75.1665 93.3104 75.3185 93.3394L75.7664 93.2805L75.8995 94.4774L75.5635 94.5524L75.2345 93.8724C75.0825 93.8114 74.9395 93.7664 74.8055 93.7384C74.6714 93.7104 74.5125 93.6954 74.3305 93.6954C74.1595 93.6954 73.9975 93.7204 73.8425 93.7684C73.6865 93.8174 73.5645 93.8784 73.4765 93.9504C73.3225 94.0794 73.1965 94.2814 73.0995 94.5584C73.0025 94.8354 72.9545 95.1775 72.9545 95.5854C72.9535 95.8325 72.9905 96.0775 73.0635 96.3185ZM80.1295 97.5955L80.0665 97.8894H77.9585L78.0215 97.5955L78.6905 97.4185V93.6815L77.5314 93.7964L77.0415 94.6134L76.7195 94.5454L77.0065 93.3354L77.4655 93.3644H80.7265L81.1674 93.3254L81.3074 94.5544L80.9955 94.6425L80.5715 93.7994L79.3634 93.6744V97.4214L80.1295 97.5955ZM75.1305 92.2585C71.1355 92.2585 69.0445 90.2934 68.8585 86.3615C68.8585 82.4094 70.9495 80.4324 75.1305 80.4324C79.2485 80.4324 81.3065 82.4094 81.3065 86.3615C81.3065 90.2934 79.2485 92.2585 75.1305 92.2585ZM67.1115 82.9615C66.0345 82.5265 64.8695 82.3084 63.6175 82.3084C60.6185 82.3084 59.1185 83.6004 59.1185 86.1824C59.1185 88.9824 60.6185 90.3824 63.6175 90.3824C64.8695 90.3824 66.0345 90.1654 67.1115 89.7304V91.6874C66.0345 92.0684 64.8115 92.2585 63.4425 92.2585C58.9575 92.2585 56.7155 90.2334 56.7155 86.1824C56.7155 82.3494 58.9575 80.4334 63.4425 80.4334C64.8115 80.4334 66.0345 80.6245 67.1115 81.0045V82.9615ZM61.1345 93.6324L61.1945 93.3644H62.7325C63.1125 93.3644 63.4635 93.3914 63.7835 93.4464C64.1035 93.5014 64.3815 93.6025 64.6175 93.7505C64.9375 93.9535 65.1725 94.2104 65.3235 94.5224C65.4745 94.8344 65.5495 95.1894 65.5495 95.5884C65.5495 95.9134 65.4995 96.2234 65.4005 96.5204C65.3015 96.8164 65.1445 97.0704 64.9295 97.2824C64.7385 97.4674 64.5105 97.6044 64.2465 97.6924C63.9825 97.7804 63.7145 97.8354 63.4415 97.8575C63.1685 97.8795 62.8395 97.8904 62.4535 97.8904H61.1185L61.1785 97.6125L61.7915 97.4355V93.8164L61.1345 93.6324ZM56.8815 93.6064C57.2255 93.3694 57.6395 93.2505 58.1225 93.2505C58.4865 93.2505 58.8215 93.3374 59.1275 93.5104C59.4335 93.6834 59.6765 93.9334 59.8575 94.2594C60.0385 94.5854 60.1284 94.9654 60.1284 95.3994C60.1284 95.8704 60.0375 96.3045 59.8575 96.7025C59.6765 97.1005 59.4155 97.4174 59.0745 97.6524C58.7335 97.8874 58.3325 98.0054 57.8735 98.0054C57.4905 98.0054 57.1445 97.9184 56.8345 97.7455C56.5255 97.5725 56.2815 97.3234 56.1025 96.9984C55.9245 96.6734 55.8345 96.2925 55.8345 95.8535C55.8345 95.3845 55.9225 94.9524 56.0984 94.5574C56.2765 94.1604 56.5365 93.8434 56.8815 93.6064ZM58.7115 101.261C59.4555 101.25 60.2245 101.227 61.0055 101.225C61.7865 101.22 62.5805 101.215 63.3745 101.21C64.1684 101.215 64.9615 101.22 65.7435 101.224C66.5245 101.224 67.2935 101.249 68.0375 101.26C69.5255 101.289 70.9145 101.334 72.1055 101.389C74.4865 101.489 76.0745 101.63 76.0745 101.63C76.0745 101.63 74.4865 101.771 72.1055 101.871C70.9155 101.925 69.5255 101.97 68.0375 102C67.2935 102.011 66.5245 102.036 65.7435 102.036C64.9625 102.041 64.1684 102.046 63.3745 102.05C62.5805 102.045 61.7865 102.04 61.0055 102.035C60.2245 102.033 59.4555 102.01 58.7115 101.999C57.2235 101.969 55.8344 101.924 54.6434 101.87C52.2624 101.77 50.6745 101.63 50.6745 101.63C50.6745 101.63 52.2624 101.489 54.6434 101.39C55.8344 101.336 57.2235 101.291 58.7115 101.261ZM55.0545 97.8894H53.7375L53.7905 97.6375L52.6235 95.6494C52.9315 95.5424 53.1635 95.4314 53.3185 95.3154C53.4734 95.2004 53.5755 95.0835 53.6235 94.9655C53.6715 94.8475 53.6954 94.7085 53.6954 94.5475C53.6954 94.3405 53.6195 94.1694 53.4675 94.0354C53.3155 93.9014 53.1234 93.8025 52.8914 93.7375C52.6595 93.6735 52.4134 93.6355 52.1544 93.6245V97.3944L52.8755 97.5744L52.8015 97.8885H50.8015L50.8504 97.6134L51.4805 97.4334V93.8145L50.8255 93.6314L50.8845 93.3634H52.1765C52.4335 93.3634 52.6545 93.3694 52.8385 93.3814C53.0235 93.3934 53.2095 93.4224 53.3975 93.4684C53.5855 93.5144 53.7584 93.5854 53.9174 93.6834C54.0695 93.7774 54.1895 93.9015 54.2785 94.0565C54.3675 94.2115 54.4115 94.3754 54.4115 94.5504C54.4115 95.1284 54.0575 95.5105 53.3495 95.6974L54.4355 97.4044L55.1185 97.6234L55.0545 97.8894ZM46.3654 93.6324L46.4255 93.3644H47.7565C48.0105 93.3644 48.2315 93.3704 48.4165 93.3824C48.6015 93.3944 48.7895 93.4254 48.9785 93.4754C49.1675 93.5254 49.3345 93.6014 49.4795 93.7044C49.6245 93.8094 49.7384 93.9445 49.8204 94.1115C49.9035 94.2785 49.9454 94.4744 49.9454 94.7014C49.9454 94.9064 49.8995 95.0914 49.8085 95.2554C49.7175 95.4204 49.5914 95.5585 49.4305 95.6725C49.2645 95.7905 49.0635 95.8774 48.8285 95.9324C48.5925 95.9884 48.3615 96.0154 48.1345 96.0154L48.1765 95.7994C48.4565 95.6874 48.6665 95.5894 48.8065 95.5034C48.9465 95.4174 49.0495 95.3114 49.1165 95.1844C49.1835 95.0584 49.2165 94.8894 49.2165 94.6774C49.2165 94.3064 49.0775 94.0405 48.7985 93.8795C48.5195 93.7185 48.1535 93.6344 47.7005 93.6274V97.4364L48.5195 97.6165L48.4604 97.8875H46.3374L46.4005 97.6094L47.0235 97.4324V93.8134L46.3654 93.6324ZM117.347 62.7854H107.293C107.203 63.0574 107.093 63.3464 106.927 63.6264C106.906 63.6614 106.884 63.6965 106.862 63.7325C106.85 63.7515 106.836 63.7744 106.823 63.7944C106.825 63.8044 106.827 63.8144 106.83 63.8244C106.867 64.0074 106.923 64.2834 106.836 64.6094C106.776 64.8344 106.668 64.9974 106.597 65.1044C106.585 65.1224 106.572 65.1404 106.563 65.1574C106.551 65.1834 106.529 65.2635 106.513 65.3224C106.471 65.4784 106.413 65.6924 106.289 65.9074C106.077 66.2724 105.769 66.3774 105.604 66.4084C105.551 66.4184 105.483 66.4244 105.43 66.4244C105.373 66.4244 105.316 66.4194 105.259 66.4084C104.374 67.5074 103.284 68.1515 102.368 68.6935C101.695 69.0914 101.06 69.4674 100.677 69.9364C100.043 70.7124 97.6545 73.3954 93.5085 75.3514C90.4145 76.8114 87.0625 77.5524 83.5455 77.5524C81.7725 77.5524 79.9325 77.3624 78.0765 76.9894C72.4375 75.8534 67.6525 73.1714 63.8535 69.0154C63.7055 68.8534 63.5655 68.6914 63.4245 68.5294C62.9165 69.1494 62.3664 69.7495 61.7664 70.3185C57.8664 74.0135 52.3345 76.2785 46.1905 76.6945C45.5155 76.7405 44.8354 76.7635 44.1694 76.7635C33.6264 76.7635 25.2685 71.0514 23.0565 62.7864H8.22246L62.7855 8.22345L117.347 62.7854Z" fill="#518F28"/>
<path d="M0 62.785L62.785 125.57L125.57 62.785L62.785 0L0 62.785ZM62.785 122.023L3.547 62.785L62.785 3.54797L122.022 62.785L62.785 122.023Z" fill="#D1923B"/>
<path d="M59.853 63.3301C59.089 64.9631 58.009 66.5151 56.553 67.8941C56.083 68.3391 55.575 68.7651 55.025 69.1711C53.011 70.6591 50.447 71.8641 47.24 72.6341C46.657 72.7741 46.053 72.9001 45.427 73.0101C45.254 73.0171 45.081 73.0231 44.905 73.0291C43.938 73.0351 42.935 73.0241 41.925 72.9201C41.418 72.8801 40.91 72.8161 40.403 72.7341C40.149 72.6931 39.896 72.6481 39.643 72.6001C39.39 72.5521 39.137 72.5011 38.884 72.4471C38.634 72.3841 38.385 72.3201 38.136 72.2521C37.887 72.1851 37.639 72.1142 37.394 72.0392C36.902 71.8882 36.419 71.7191 35.952 71.5191C35.477 71.3351 35.02 71.1231 34.577 70.8931C34.134 70.6631 33.706 70.4172 33.292 70.1642C32.878 69.9102 32.501 69.6151 32.114 69.3511C31.747 69.0611 31.402 68.7581 31.057 68.4721C30.895 68.3181 30.738 68.1631 30.584 68.0091C30.43 67.8551 30.279 67.7031 30.129 67.5541C29.835 67.2521 29.588 66.9251 29.33 66.6301C29.066 66.3381 28.86 66.0231 28.651 65.7311C28.451 65.4341 28.233 65.1691 28.077 64.8901C27.761 64.3351 27.451 63.8661 27.253 63.4501C27.052 63.0351 26.894 62.7091 26.786 62.4861C26.759 62.4301 26.735 62.3811 26.715 62.3391C26.653 62.2121 26.621 62.1451 26.621 62.1451C26.621 62.1451 26.824 62.6331 27.179 63.4851C27.31 63.8071 27.503 64.1611 27.712 64.5621C27.782 64.6961 27.853 64.8351 27.925 64.9791C27.996 65.1251 28.082 65.2671 28.174 65.4121C28.266 65.5571 28.363 65.7051 28.456 65.8611C28.553 66.0151 28.649 66.1741 28.753 66.3351C28.857 66.4961 28.967 66.6561 29.093 66.8121C29.338 67.1271 29.571 67.4741 29.854 67.7991C29.999 67.9591 30.144 68.1231 30.292 68.2901C30.44 68.4561 30.592 68.6251 30.75 68.7911C31.086 69.1041 31.424 69.4361 31.786 69.7561C32.168 70.0511 32.543 70.3781 32.956 70.6651C33.163 70.8081 33.374 70.9491 33.589 71.0881C34.234 71.5051 34.916 71.8992 35.64 72.2281C36.116 72.4641 36.61 72.6691 37.114 72.8561C37.366 72.9491 37.62 73.0371 37.876 73.1231C38.132 73.2081 38.389 73.2901 38.646 73.3701C39.054 73.4811 39.464 73.5831 39.875 73.6791C37.111 73.1921 34.575 72.2391 32.416 70.8931C32.22 70.7711 32.027 70.6451 31.837 70.5161C31.457 70.2581 31.09 69.9881 30.737 69.7051C30.207 69.2811 29.709 68.8281 29.245 68.3501C28.935 68.0311 28.641 67.7002 28.362 67.3582C28.084 67.0162 27.821 66.6621 27.576 66.2981C26.594 64.8401 25.884 63.2081 25.502 61.4291C25.359 60.7621 25.262 60.0741 25.214 59.3671C25.148 58.3951 25.183 57.4891 25.312 56.6431C25.611 54.6701 26.417 53.0261 27.621 51.6351C28.137 51.0391 28.726 50.4891 29.38 49.9811C29.598 49.8111 29.823 49.6461 30.055 49.4851C30.519 49.1631 31.011 48.8591 31.528 48.5701C32.777 48.7481 34.174 48.8791 35.471 48.8431C38.689 48.7551 39.879 49.4181 36.768 50.7821C36.768 50.7821 37.15 50.7781 37.766 50.7171C38.794 50.6151 40.474 50.3541 42.129 49.6871C44.776 48.6201 48.134 49.5901 48.134 49.5901C48.134 49.5901 47.653 49.3221 47.292 48.9641C47.22 48.8921 47.153 48.8171 47.095 48.7401C46.98 48.5851 46.902 48.4221 46.902 48.2611C47.19 48.2371 47.535 48.2141 47.931 48.1961C48.508 48.1671 49.183 48.1551 49.908 48.1631C50.632 48.1741 51.406 48.2081 52.178 48.2781C52.563 48.3181 52.951 48.3462 53.328 48.4052C53.707 48.4562 54.08 48.5051 54.437 48.5761C54.796 48.6401 55.144 48.7011 55.468 48.7831C55.793 48.8621 56.106 48.9211 56.384 49.0111C56.665 49.0931 56.923 49.1691 57.152 49.2351C57.376 49.3151 57.572 49.3851 57.733 49.4431C57.824 49.4761 57.9 49.5041 57.968 49.5281C57.983 49.5221 57.998 49.5171 58.012 49.5111C57.941 49.4751 57.86 49.4341 57.759 49.3821C57.605 49.3051 57.418 49.2111 57.203 49.1031C56.982 49.0081 56.733 48.9011 56.461 48.7841C56.191 48.6591 55.885 48.5621 55.567 48.4421C55.249 48.3191 54.906 48.2141 54.551 48.1051C54.197 47.9881 53.825 47.8921 53.447 47.7941C53.07 47.6881 52.68 47.6111 52.292 47.5221C51.514 47.3551 50.728 47.2231 49.987 47.1221C49.769 47.0931 49.557 47.0672 49.348 47.0432C50.735 46.5812 52.408 45.8281 53.739 44.3011C54.604 44.4971 55.429 44.7531 56.21 45.0661C56.47 45.1701 56.726 45.2801 56.977 45.3971C57.46 45.7791 57.919 46.2491 58.346 46.7911C58.813 47.3851 59.24 48.0671 59.618 48.8171C59.938 48.6021 60.284 48.3021 60.69 47.8341C60.97 47.5101 61.393 47.0501 61.949 46.5111C61.759 46.3311 61.572 46.1481 61.372 45.9771C60.773 45.4651 60.128 44.9971 59.443 44.5751C58.073 43.7311 56.538 43.0731 54.868 42.6241C54.986 42.3941 55.097 42.1531 55.2 41.9001C55.51 41.1401 55.753 40.2711 55.902 39.2711C55.902 39.2711 55.304 40.8061 53.998 42.4121C53.6 42.3251 53.194 42.2511 52.782 42.1861C52.65 42.1651 52.514 42.1511 52.38 42.1321C52.097 42.0931 51.812 42.0572 51.523 42.0302C51.362 42.0152 51.199 42.0041 51.036 41.9921C50.766 41.9721 50.494 41.9561 50.219 41.9461C50.048 41.9401 49.875 41.9351 49.702 41.9331C49.587 41.9311 49.475 41.9241 49.359 41.9241C49.086 41.9241 48.81 41.9291 48.533 41.9381C48.532 41.9381 48.532 41.9381 48.532 41.9381C48.603 41.4351 48.635 40.9721 48.638 40.5521C48.644 39.8511 48.574 39.2671 48.484 38.8151C48.341 38.0911 48.15 37.7021 48.15 37.7021C48.15 37.7021 48.148 37.7371 48.142 37.8031C48.136 37.8691 48.127 37.9661 48.112 38.0881C48.105 38.1491 48.096 38.2171 48.086 38.2901C48.046 38.5841 47.981 38.9712 47.881 39.4142C47.83 39.6352 47.771 39.8711 47.701 40.1151C47.525 40.7261 47.283 41.3941 46.949 42.0441C46.398 42.0971 45.841 42.1681 45.282 42.2561C45.002 42.3001 44.721 42.3482 44.44 42.4012C44.159 42.4542 43.877 42.5112 43.595 42.5732C43.528 42.5882 43.46 42.6031 43.392 42.6181C43.309 42.6361 43.226 42.6551 43.143 42.6731C42.844 42.1201 42.479 41.5601 42.057 41.1131C41.888 40.9341 41.709 40.7732 41.522 40.6382C41.428 40.5702 41.333 40.5091 41.234 40.4561H41.231C41.229 40.4561 41.222 40.4561 41.207 40.4561C41.199 40.4561 41.189 40.4572 41.178 40.4572C41.164 40.4572 41.153 40.4581 41.134 40.4591C41.12 40.4601 41.102 40.4611 41.086 40.4621C41.066 40.4631 41.047 40.4651 41.023 40.4671C41.003 40.4691 40.979 40.4712 40.956 40.4742C40.931 40.4772 40.907 40.4791 40.879 40.4821C40.853 40.4851 40.824 40.4901 40.796 40.4941C40.767 40.4981 40.739 40.5021 40.708 40.5071C40.678 40.5121 40.645 40.5191 40.613 40.5251C40.58 40.5311 40.549 40.5371 40.515 40.5441C40.482 40.5511 40.447 40.5612 40.413 40.5692C40.377 40.5782 40.342 40.5861 40.306 40.5961C40.271 40.6061 40.234 40.6181 40.199 40.6301C40.162 40.6421 40.125 40.6521 40.087 40.6661C40.049 40.6791 40.011 40.6962 39.974 40.7112C39.937 40.7262 39.9 40.7391 39.863 40.7551C39.825 40.7721 39.787 40.7921 39.749 40.8111C39.712 40.8291 39.675 40.8461 39.639 40.8661C39.601 40.8871 39.565 40.9122 39.528 40.9352C39.493 40.9572 39.457 40.9771 39.422 41.0021C39.385 41.0281 39.351 41.0581 39.315 41.0871C39.282 41.1131 39.249 41.1371 39.217 41.1651C39.181 41.1971 39.149 41.2341 39.116 41.2691C39.088 41.2991 39.058 41.3262 39.031 41.3582C38.997 41.3982 38.968 41.4441 38.937 41.4881C38.914 41.5201 38.889 41.5491 38.869 41.5831C38.836 41.6371 38.808 41.6961 38.78 41.7551C38.766 41.7851 38.748 41.8111 38.735 41.8421C38.696 41.9341 38.663 42.0332 38.636 42.1382C38.636 42.1382 38.733 42.2911 38.868 42.5501C38.936 42.6791 39.013 42.8351 39.093 43.0121C39.173 43.1891 39.255 43.3862 39.332 43.5992C38.057 43.9392 36.78 44.3171 35.538 44.7471C35.124 44.8901 34.714 45.0391 34.309 45.1951C33.788 45.0501 33.239 44.8801 32.661 44.6781C32.661 44.6781 32.781 44.7611 32.982 44.8931C33.083 44.9591 33.204 45.0371 33.342 45.1221C33.479 45.2081 33.633 45.3021 33.797 45.3991C32.992 45.7221 32.209 46.0701 31.46 46.4471C30.711 46.8251 29.996 47.2321 29.325 47.6741C29.266 47.7131 29.213 47.7542 29.155 47.7932C28.681 47.8032 28.184 47.8091 27.66 47.8131C27.66 47.8131 27.764 47.8401 27.953 47.8871C28.048 47.9101 28.163 47.9381 28.298 47.9691C28.433 48.0001 28.586 48.0351 28.756 48.0721C27.526 48.9531 26.502 49.9341 25.684 51.0111C25.52 51.2271 25.365 51.4461 25.218 51.6691C24.458 52.8241 23.923 54.0831 23.608 55.4411C23.314 56.7081 23.212 58.0601 23.309 59.4991C23.33 59.8091 23.36 60.1161 23.398 60.4201C23.41 60.5211 23.429 60.6202 23.443 60.7202C23.472 60.9222 23.5 61.1242 23.536 61.3232C23.558 61.4422 23.585 61.5591 23.609 61.6761C23.645 61.8531 23.681 62.0311 23.723 62.2061C23.753 62.3311 23.788 62.4541 23.821 62.5781C23.865 62.7421 23.908 62.9072 23.957 63.0692C23.995 63.1972 24.038 63.3231 24.08 63.4491C24.131 63.6041 24.182 63.7591 24.237 63.9111C24.284 64.0391 24.334 64.1651 24.384 64.2911C24.442 64.4391 24.5 64.5871 24.563 64.7321C24.617 64.8591 24.675 64.9832 24.732 65.1082C24.797 65.2502 24.863 65.3911 24.932 65.5311C24.994 65.6561 25.058 65.7791 25.123 65.9021C25.195 66.0381 25.268 66.1731 25.344 66.3071C25.413 66.4291 25.484 66.5501 25.557 66.6711C25.635 66.8011 25.715 66.9311 25.797 67.0591C25.874 67.1791 25.952 67.2981 26.031 67.4151C26.116 67.5401 26.202 67.6641 26.29 67.7861C26.373 67.9021 26.458 68.0181 26.544 68.1321C26.635 68.2521 26.729 68.3711 26.824 68.4891C26.914 68.6011 27.004 68.7132 27.097 68.8232C27.194 68.9382 27.295 69.0521 27.395 69.1651C27.491 69.2731 27.587 69.3821 27.687 69.4881C27.791 69.5991 27.898 69.7071 28.005 69.8151C28.107 69.9191 28.209 70.0232 28.314 70.1252C28.424 70.2312 28.538 70.3351 28.652 70.4391C28.76 70.5381 28.866 70.6372 28.976 70.7332C29.093 70.8352 29.215 70.9342 29.335 71.0341C29.447 71.1271 29.558 71.2211 29.673 71.3121C29.799 71.4111 29.929 71.5061 30.058 71.6031C30.173 71.6891 30.286 71.7771 30.403 71.8611C30.544 71.9611 30.689 72.0571 30.833 72.1541C30.944 72.2291 31.052 72.3061 31.165 72.3792C31.42 72.5432 31.679 72.7031 31.943 72.8571C32.054 72.9221 32.169 72.9821 32.282 73.0451C32.443 73.1351 32.602 73.2261 32.767 73.3121C32.895 73.3791 33.027 73.4411 33.156 73.5061C33.31 73.5831 33.463 73.6611 33.619 73.7341C33.755 73.7971 33.894 73.8562 34.031 73.9182C34.187 73.9872 34.341 74.0571 34.499 74.1221C34.64 74.1811 34.785 74.2351 34.928 74.2911C35.087 74.3531 35.246 74.4161 35.407 74.4751C35.552 74.5281 35.7 74.5771 35.847 74.6281C36.011 74.6841 36.174 74.7402 36.34 74.7932C36.489 74.8402 36.641 74.8851 36.792 74.9291C36.96 74.9791 37.128 75.0281 37.298 75.0741C37.451 75.1161 37.605 75.1551 37.76 75.1931C37.933 75.2361 38.106 75.2792 38.281 75.3192C38.437 75.3542 38.594 75.3881 38.751 75.4201C38.928 75.4571 39.106 75.4921 39.285 75.5251C39.444 75.5541 39.603 75.5822 39.764 75.6082C39.946 75.6382 40.129 75.6661 40.312 75.6921C40.473 75.7151 40.634 75.7371 40.796 75.7571C40.983 75.7801 41.171 75.8011 41.36 75.8201C41.523 75.8371 41.686 75.8531 41.85 75.8671C42.042 75.8831 42.234 75.8961 42.428 75.9081C42.592 75.9181 42.756 75.9291 42.921 75.9361C43.118 75.9451 43.316 75.9501 43.515 75.9541C43.68 75.9581 43.844 75.9621 44.01 75.9631C44.064 75.9631 44.117 75.9661 44.171 75.9661C44.351 75.9661 44.534 75.9602 44.715 75.9572C44.831 75.9552 44.946 75.9551 45.063 75.9511C45.419 75.9401 45.777 75.9231 46.139 75.8991C46.909 75.8471 47.666 75.7651 48.407 75.6561C51.001 75.2741 53.407 74.5501 55.563 73.5441C55.871 73.4001 56.174 73.2511 56.472 73.0961C59.054 71.7511 61.235 69.9832 62.906 67.9091C61.572 66.2901 60.578 64.7031 59.853 63.3301ZM33.762 45.1812C33.762 45.1812 33.785 45.1852 33.829 45.1942C33.851 45.1982 33.877 45.2042 33.908 45.2112C33.939 45.2182 33.975 45.2261 34.015 45.2361C34.174 45.2751 34.4 45.3291 34.672 45.3961C35.075 45.4981 35.579 45.6261 36.108 45.7611C36.284 45.8061 36.464 45.8511 36.643 45.8971C37.358 46.0761 38.077 46.2362 38.621 46.3492C38.69 46.3632 38.755 46.3761 38.818 46.3891C39.005 46.4271 39.164 46.4592 39.284 46.4832C39.444 46.5152 39.535 46.5341 39.535 46.5341C39.535 46.5341 39.161 46.5831 38.595 46.5661C38.172 46.5531 37.644 46.4932 37.099 46.3882C36.917 46.3532 36.734 46.3131 36.551 46.2681C36.369 46.2231 36.187 46.1741 36.01 46.1211C35.479 45.9631 34.985 45.7761 34.599 45.6041C34.087 45.3731 33.762 45.1812 33.762 45.1812ZM33.541 47.5732C34.392 47.1982 35.29 46.8511 36.23 46.5281C36.279 46.5411 36.328 46.5561 36.375 46.5671C37.404 46.8011 36.767 47.2822 33.541 47.5732ZM38.112 45.9271C38.632 45.7721 39.164 45.6231 39.702 45.4781C39.703 45.5641 39.701 45.6501 39.697 45.7361C39.693 45.8221 39.685 45.9081 39.673 45.9931C39.673 45.9931 39.108 46.0231 38.112 45.9271ZM39.29 42.7991C39.12 42.3941 39.014 42.1131 39.014 42.1131C39.014 42.1131 39.228 42.3261 39.481 42.6951C39.608 42.8791 39.747 43.1001 39.877 43.3481C40.012 43.5941 40.132 43.8681 40.24 44.1481C40.295 44.2871 40.334 44.4341 40.381 44.5741C40.404 44.6441 40.421 44.7161 40.437 44.7871C40.453 44.8581 40.468 44.9291 40.485 44.9971C40.512 45.1361 40.532 45.2721 40.544 45.4021C40.556 45.5321 40.562 45.6551 40.562 45.7691C40.552 45.9981 40.536 46.1861 40.498 46.3141C40.49 46.3461 40.483 46.3751 40.477 46.3991C40.464 46.4481 40.455 46.4832 40.45 46.5002C40.448 46.5092 40.446 46.5132 40.446 46.5132C40.446 46.5132 40.438 46.4391 40.423 46.3091C40.418 46.1811 40.379 46.0012 40.345 45.7892C40.318 45.6842 40.291 45.5701 40.266 45.4501C40.232 45.3321 40.197 45.2071 40.16 45.0771C40.076 44.8211 39.991 44.5481 39.884 44.2791C39.787 44.0081 39.677 43.7401 39.575 43.4881C39.47 43.2381 39.373 43.0011 39.29 42.7991ZM54.364 42.4031C54.48 42.2471 54.599 42.1122 54.693 41.9832C54.781 41.8502 54.857 41.7341 54.92 41.6391C55.016 41.4961 55.084 41.3991 55.112 41.3601C55.121 41.3471 55.126 41.3401 55.126 41.3401C55.126 41.3401 55.123 41.3482 55.117 41.3622C55.099 41.4062 55.055 41.5151 54.985 41.6741C54.938 41.7801 54.88 41.9091 54.814 42.0571C54.742 42.2021 54.646 42.3571 54.543 42.5291C54.491 42.6151 54.437 42.7041 54.381 42.7961C54.316 42.8821 54.248 42.9711 54.179 43.0621C54.041 43.2461 53.896 43.4411 53.717 43.6171C53.546 43.8001 53.371 43.9931 53.165 44.1591C53.065 44.2461 52.965 44.3331 52.865 44.4201L52.545 44.6611C52.439 44.7431 52.328 44.8181 52.216 44.8901C52.104 44.9621 51.991 45.0311 51.88 45.1021C51.658 45.2431 51.423 45.3531 51.202 45.4711C50.975 45.5751 50.758 45.6811 50.542 45.7591C50.33 45.8451 50.126 45.9151 49.935 45.9731C49.745 46.0341 49.569 46.0801 49.411 46.1171C49.332 46.1351 49.258 46.1511 49.19 46.1651C49.121 46.1791 49.059 46.1911 49.002 46.2031C48.774 46.2461 48.642 46.2542 48.642 46.2542C48.642 46.2542 48.713 46.2311 48.839 46.1852C48.881 46.1701 48.929 46.1521 48.983 46.1321C49.037 46.1131 49.097 46.0911 49.161 46.0661C49.354 45.9911 49.591 45.8891 49.858 45.7691C50.037 45.6911 50.227 45.5992 50.427 45.5002C50.528 45.4542 50.629 45.4001 50.732 45.3431C50.835 45.2871 50.939 45.2281 51.047 45.1751C51.465 44.9301 51.91 44.6671 52.32 44.3551L52.632 44.1281C52.73 44.0451 52.828 43.9631 52.925 43.8821C53.122 43.7231 53.305 43.5541 53.477 43.3841C53.656 43.2211 53.812 43.0481 53.96 42.8821C54.035 42.8001 54.108 42.7201 54.179 42.6431C54.242 42.5591 54.304 42.4801 54.364 42.4031ZM44.003 44.4391C44.437 44.3441 44.866 44.2641 45.292 44.1921C44.942 44.4871 44.55 44.7451 44.11 44.9491C44.11 44.9491 44.05 44.7551 43.939 44.4531C43.96 44.4491 43.981 44.4441 44.003 44.4391ZM49.001 45.7831C45.227 46.7311 46.752 45.7151 47.826 43.8841C49.423 43.7761 50.945 43.8381 52.375 44.0501C51.45 44.8061 50.331 45.4491 49.001 45.7831ZM47.925 40.0811C47.959 39.9231 48.007 39.7801 48.026 39.6491C48.038 39.5841 48.049 39.5231 48.06 39.4661C48.07 39.4101 48.08 39.3581 48.089 39.3111C48.098 39.2641 48.107 39.2221 48.114 39.1861C48.137 39.0761 48.151 39.0161 48.151 39.0161C48.151 39.0161 48.152 39.0231 48.152 39.0361C48.154 39.0761 48.159 39.1731 48.162 39.3181C48.163 39.4151 48.165 39.5321 48.166 39.6661C48.17 39.7341 48.167 39.8051 48.161 39.8801C48.155 39.9551 48.147 40.0341 48.14 40.1171C48.13 40.1991 48.124 40.2862 48.116 40.3752C48.107 40.4642 48.096 40.5561 48.074 40.6491C48.036 40.8361 48.003 41.0352 47.95 41.2372C47.919 41.3362 47.89 41.4391 47.859 41.5421C47.828 41.6451 47.796 41.7491 47.758 41.8521C47.715 41.9531 47.675 42.0561 47.633 42.1591C47.591 42.2621 47.548 42.3651 47.499 42.4651C47.394 42.6621 47.3 42.8651 47.18 43.0501C47.071 43.2411 46.946 43.4171 46.82 43.5841C46.761 43.6711 46.697 43.7501 46.631 43.8271C46.566 43.9041 46.5 43.9771 46.439 44.0501C46.307 44.1891 46.184 44.3211 46.058 44.4301C45.817 44.6591 45.583 44.8131 45.426 44.9251C45.264 45.0311 45.164 45.0781 45.164 45.0781C45.164 45.0781 45.293 44.9632 45.489 44.7542C45.567 44.6702 45.656 44.5721 45.752 44.4591C45.8 44.4031 45.849 44.3432 45.9 44.2802C46.104 44.0292 46.33 43.7302 46.545 43.3922C46.658 43.2262 46.759 43.0471 46.862 42.8641C46.973 42.6861 47.058 42.4901 47.155 42.3001C47.252 42.1101 47.327 41.9111 47.413 41.7191C47.486 41.5221 47.558 41.3281 47.627 41.1401C47.685 40.9481 47.742 40.7622 47.795 40.5862C47.855 40.4102 47.881 40.2371 47.925 40.0811Z" fill="#334725"/>
<path d="M41.8672 53.8462C42.0202 53.8892 42.1832 53.9152 42.3482 53.9252C42.5202 53.9352 42.6822 53.9302 42.8482 53.9172C43.1802 53.8812 43.5112 53.7952 43.7952 53.6512C44.0802 53.5122 44.3182 53.3122 44.4552 53.0902C44.6022 52.8712 44.6122 52.6362 44.5832 52.4952C44.5612 52.3842 44.5222 52.3242 44.5072 52.2992C44.5022 52.2912 44.5012 52.2852 44.5012 52.2852C44.4942 52.2842 44.5322 52.3672 44.5282 52.5012C44.5302 52.6352 44.4732 52.8252 44.3232 52.9932C44.2642 53.0642 44.1902 53.1282 44.1082 53.1892C44.2352 53.0512 44.3212 52.9002 44.3432 52.7582C44.3662 52.6392 44.3542 52.5192 44.3402 52.4572C44.3262 52.4002 44.3182 52.3692 44.3182 52.3692L44.3152 52.3602C44.3152 52.3602 44.3012 52.3262 44.2742 52.2622C44.2412 52.2022 44.1912 52.1122 44.1012 52.0242C44.0572 51.9792 44.0052 51.9332 43.9462 51.8892C43.8272 51.8002 43.6762 51.7172 43.4992 51.6532C43.4102 51.6222 43.3152 51.5952 43.2142 51.5762C43.1132 51.5552 43.0072 51.5422 42.8972 51.5352C42.8402 51.5362 42.7822 51.5362 42.7232 51.5362C42.6672 51.5412 42.6272 51.5402 42.5552 51.5492C42.3212 51.5732 42.0792 51.6402 41.8452 51.7522C41.7872 51.7802 41.7292 51.8112 41.6722 51.8452C41.5022 51.9482 41.3422 52.0842 41.2142 52.2602C41.1732 52.3202 41.1372 52.3852 41.1072 52.4532C41.0922 52.4902 41.0792 52.5312 41.0672 52.5692L41.0482 52.6632C41.0242 52.8322 41.0492 52.9782 41.1102 53.1182C41.1432 53.1912 41.1862 53.2562 41.2352 53.3152C41.2312 53.3112 41.2252 53.3092 41.2212 53.3052C41.1762 53.2712 41.1362 53.2352 41.1022 53.1982C41.0672 53.1612 41.0382 53.1222 41.0132 53.0842C40.9642 53.0072 40.9342 52.9302 40.9212 52.8642C40.8902 52.7312 40.9102 52.6472 40.9042 52.6472C40.9122 52.6482 40.8652 52.7222 40.8652 52.8702C40.8652 52.9412 40.8792 53.0352 40.9162 53.1332C40.9542 53.2312 41.0142 53.3352 41.1082 53.4272C41.2872 53.6182 41.5602 53.7672 41.8672 53.8462ZM43.2722 51.9092C43.2762 51.9242 43.2742 51.9372 43.2672 51.9472C43.2542 51.9682 43.2232 51.9802 43.1782 51.9882C43.1552 51.9922 43.1292 51.9952 43.1002 51.9972C42.9832 52.0062 42.8182 52.0032 42.6402 52.0212C42.2852 52.0572 41.9942 52.1612 41.9982 52.0372C42.0012 51.9192 42.2772 51.7992 42.6142 51.7652C42.9512 51.7322 43.2452 51.7942 43.2722 51.9092ZM41.4932 52.4722C41.5032 52.4602 41.5182 52.4522 41.5292 52.4412C41.5152 52.8252 42.0532 52.5232 42.6832 52.4592C43.3322 52.3942 43.9432 52.6012 43.8072 52.1802C43.8032 52.1672 43.7942 52.1562 43.7892 52.1442C43.8352 52.1712 43.8762 52.1982 43.9082 52.2272C43.9832 52.2862 44.0232 52.3452 44.0522 52.3852C44.0762 52.4272 44.0892 52.4502 44.0892 52.4502L44.0862 52.4412C44.0862 52.4412 44.0972 52.4712 44.1172 52.5262C44.1322 52.5772 44.1442 52.6312 44.1402 52.7302C44.1372 52.7762 44.1272 52.8282 44.1072 52.8832C44.0872 52.9392 44.0592 52.9982 44.0212 53.0572C43.9452 53.1762 43.8322 53.2962 43.6762 53.3952C43.6152 53.4372 43.5452 53.4702 43.4732 53.5012C43.2662 53.5662 43.0442 53.6112 42.8202 53.6322C42.6652 53.6462 42.5072 53.6552 42.3632 53.6482C42.3542 53.6472 42.3442 53.6472 42.3352 53.6462C42.1512 53.6202 41.9682 53.5752 41.8032 53.4872C41.5992 53.3822 41.4192 53.2162 41.3592 53.0202C41.3432 52.9732 41.3362 52.9232 41.3342 52.8732C41.3332 52.8242 41.3382 52.7772 41.3482 52.7382L41.3762 52.6512L41.4052 52.5942C41.4302 52.5522 41.4602 52.5112 41.4932 52.4722Z" fill="#334725"/>
<path d="M37.1183 53.6756C37.2163 53.7846 37.3673 53.8746 37.5413 53.9186C37.6283 53.9426 37.7193 53.9546 37.8113 53.9626C37.9093 53.9676 37.9953 53.9686 38.0923 53.9606C38.2793 53.9386 38.4633 53.8896 38.6243 53.8146C38.7873 53.7406 38.9163 53.6256 39.0013 53.5086C39.0903 53.3916 39.1053 53.2616 39.0963 53.1806C39.0913 53.1386 39.0813 53.1086 39.0733 53.0896C39.0653 53.0696 39.0583 53.0606 39.0603 53.0596C39.0563 53.0586 39.0743 53.1066 39.0653 53.1816C39.0603 53.2576 39.0183 53.3596 38.9313 53.4526C38.8873 53.5006 38.8313 53.5456 38.7683 53.5846C38.8823 53.4946 38.9603 53.3865 38.9853 53.2855C39.0043 53.2205 39.0033 53.1526 38.9983 53.1166C38.9933 53.0836 38.9903 53.0666 38.9903 53.0666L38.9883 53.0616C38.9883 53.0616 38.9813 53.0416 38.9693 53.0046C38.9533 52.9696 38.9273 52.9156 38.8793 52.8636C38.8323 52.8096 38.7643 52.7556 38.6803 52.7096C38.5963 52.6636 38.4953 52.6256 38.3813 52.6036C38.1543 52.5556 37.8753 52.5776 37.6133 52.7026C37.4833 52.7656 37.3533 52.8496 37.2543 52.9766C37.2303 53.0086 37.2083 53.0436 37.1893 53.0806C37.1683 53.1246 37.1553 53.1646 37.1483 53.1956C37.1383 53.2416 37.1343 53.2855 37.1373 53.3285C37.1403 53.3715 37.1483 53.4125 37.1633 53.4535C37.2153 53.5965 37.3293 53.6876 37.4473 53.7456C37.3443 53.7126 37.2493 53.6726 37.1833 53.6126C37.0873 53.5326 37.0403 53.4316 37.0333 53.3556C37.0223 53.2796 37.0373 53.2336 37.0333 53.2336C37.0383 53.2346 37.0083 53.2736 37.0013 53.3566C36.9943 53.4336 37.0143 53.5676 37.1183 53.6756ZM38.7643 52.9746C38.8433 53.0446 38.8573 53.1026 38.8573 53.1026L38.8563 53.0966C38.8563 53.0966 38.8613 53.1136 38.8703 53.1456C38.8733 53.1596 38.8763 53.1746 38.8773 53.1936C38.8783 53.2116 38.8773 53.2336 38.8743 53.2616C38.8613 53.3656 38.7703 53.5196 38.5943 53.6286C38.4213 53.7406 38.1723 53.7976 37.9143 53.7776C37.8513 53.7726 37.7863 53.7636 37.7223 53.7476C37.6593 53.7316 37.5973 53.7086 37.5403 53.6766C37.4273 53.6156 37.3293 53.5196 37.3053 53.4086C37.2983 53.3826 37.2963 53.3536 37.2983 53.3256C37.3003 53.2976 37.3053 53.2716 37.3123 53.2496C37.3243 53.2126 37.3383 53.1886 37.3503 53.1696C37.3663 53.1456 37.3843 53.1236 37.4043 53.1016C37.4713 53.0306 37.5573 52.9766 37.6473 52.9336C37.5333 53.0066 37.4533 53.1016 37.4333 53.2076C37.3853 53.4546 37.7113 53.2766 38.0773 53.2456C38.4433 53.2146 38.7753 53.3366 38.7173 53.0986C38.7013 53.0326 38.6603 52.9745 38.6023 52.9275C38.5433 52.8805 38.4673 52.8446 38.3813 52.8216C38.5563 52.8466 38.6933 52.9086 38.7643 52.9746ZM38.4313 52.9416C38.4413 53.0106 38.2733 52.9826 38.0723 52.9996C37.8723 53.0166 37.7053 53.0726 37.7123 53.0026C37.7143 52.9856 37.7253 52.9695 37.7443 52.9535C37.7633 52.9375 37.7903 52.9226 37.8223 52.9096C37.8873 52.8836 37.9743 52.8625 38.0693 52.8545C38.2603 52.8395 38.4223 52.8766 38.4313 52.9416Z" fill="#334725"/>
<path d="M48.2132 50.7603C48.1052 50.7983 47.9932 50.8574 47.9122 50.9564C47.8282 51.0584 47.7902 51.1914 47.8152 51.3194C47.8272 51.3834 47.8522 51.4404 47.8862 51.4914C47.9202 51.5424 47.9632 51.5854 48.0082 51.6204C48.1012 51.6904 48.2032 51.7374 48.3082 51.7624C48.5162 51.8094 48.7192 51.7894 48.8782 51.7244C48.9182 51.7084 48.9552 51.6883 48.9882 51.6663C49.0862 51.5993 49.1512 51.5093 49.1762 51.4323C49.2092 51.3223 49.1942 51.2634 49.1982 51.2664V51.2624C49.1982 51.2624 49.2002 51.1953 49.1502 51.0963C49.1022 50.9973 48.9942 50.8754 48.8282 50.7964C48.7482 50.7554 48.6442 50.7264 48.5432 50.7194C48.4352 50.7104 48.3232 50.7253 48.2132 50.7603ZM48.7582 50.9574C48.8972 51.0074 48.9942 51.0903 49.0382 51.1603C49.0852 51.2303 49.0872 51.2793 49.0892 51.2783V51.2743C49.0872 51.2763 49.1042 51.3304 49.0892 51.4084C49.0812 51.4484 49.0602 51.4993 49.0222 51.5493C48.9852 51.5993 48.9312 51.6473 48.8582 51.6833C48.7162 51.7583 48.5132 51.7693 48.3222 51.7093C48.1802 51.6703 48.0402 51.5693 47.9732 51.4403C47.9512 51.3973 47.9372 51.3513 47.9332 51.3033C47.9242 51.2123 47.9662 51.1184 48.0292 51.0604C48.0922 50.9964 48.1782 50.9534 48.2652 50.9304C48.2852 50.9254 48.3062 50.9233 48.3262 50.9203C48.1892 50.9573 48.0772 51.0373 48.0422 51.1533C47.9812 51.3563 48.2382 51.2544 48.5082 51.2834C48.7782 51.3124 49.0082 51.4664 48.9912 51.2544C48.9892 51.2214 48.9802 51.1903 48.9662 51.1603C48.9392 51.1003 48.8912 51.0474 48.8312 51.0044C48.8012 50.9834 48.7672 50.9644 48.7322 50.9484C48.7402 50.9524 48.7492 50.9544 48.7582 50.9574ZM48.6432 50.9673C48.6732 50.9753 48.7012 50.9853 48.7242 50.9973C48.7702 51.0203 48.7992 51.0484 48.7992 51.0774C48.7992 51.1374 48.6792 51.0884 48.5312 51.0724C48.4202 51.0604 48.3202 51.0704 48.2832 51.0514C48.2702 51.0454 48.2652 51.0354 48.2682 51.0214C48.2802 50.9654 48.4042 50.9343 48.5442 50.9493C48.5792 50.9533 48.6132 50.9593 48.6432 50.9673Z" fill="#334725"/>
<path d="M48.4634 51.8229C48.1944 51.8019 47.9414 51.6698 47.8334 51.5008C47.7214 51.3298 47.7814 51.1719 47.7754 51.1759C47.7784 51.1769 47.7544 51.2058 47.7394 51.2688C47.7254 51.3298 47.7194 51.4308 47.7694 51.5358C47.7944 51.5868 47.8294 51.6388 47.8734 51.6868C47.9174 51.7348 47.9714 51.7798 48.0324 51.8148C48.1524 51.8848 48.3054 51.9328 48.4484 51.9508C48.5964 51.9638 48.7484 51.9488 48.8834 51.9058C49.0194 51.8628 49.1294 51.7779 49.2004 51.6889C49.2714 51.5969 49.2864 51.4979 49.2864 51.4339C49.2854 51.3689 49.2684 51.3369 49.2714 51.3359C49.2664 51.3309 49.2914 51.4979 49.1464 51.6409C49.0064 51.7839 48.7304 51.8599 48.4634 51.8229Z" fill="#334725"/>
<path d="M38.483 55.4229C38.432 55.4499 38.382 55.4819 38.336 55.5219C38.29 55.5609 38.248 55.6079 38.215 55.6629C38.181 55.7199 38.16 55.7829 38.153 55.8459C38.146 55.9099 38.153 55.9749 38.175 56.0369C38.217 56.1589 38.311 56.2499 38.412 56.3049C38.514 56.3599 38.623 56.3909 38.73 56.3989C38.943 56.4139 39.141 56.3629 39.287 56.2739C39.436 56.1869 39.519 56.0469 39.536 55.9399C39.552 55.8259 39.528 55.7709 39.532 55.7729L39.531 55.7689C39.531 55.7689 39.523 55.7029 39.458 55.6119C39.396 55.5209 39.27 55.4169 39.094 55.3649C39.009 55.3369 38.902 55.3239 38.801 55.3329C38.748 55.3359 38.695 55.3449 38.641 55.3599C38.588 55.3759 38.535 55.3969 38.483 55.4229ZM38.839 55.5589C38.98 55.5519 39.101 55.5909 39.11 55.6469C39.12 55.7059 38.993 55.6759 38.845 55.6829C38.696 55.6899 38.574 55.7319 38.577 55.6719C38.581 55.6149 38.698 55.5659 38.839 55.5589ZM39.359 55.6919C39.416 55.7529 39.425 55.8019 39.428 55.8009L39.427 55.7969C39.425 55.7989 39.45 55.8499 39.447 55.9299C39.445 55.9709 39.432 56.0249 39.403 56.0789C39.374 56.1339 39.328 56.1899 39.262 56.2369C39.133 56.3329 38.935 56.3749 38.736 56.3449C38.687 56.3389 38.638 56.3269 38.59 56.3089C38.495 56.2719 38.407 56.2109 38.35 56.1329C38.321 56.0939 38.3 56.0509 38.29 56.0039C38.268 55.9159 38.295 55.8159 38.347 55.7499C38.399 55.6769 38.478 55.6219 38.56 55.5849C38.579 55.5769 38.599 55.5719 38.619 55.5659C38.522 55.6089 38.442 55.6739 38.401 55.7549C38.387 55.7819 38.378 55.8099 38.374 55.8399C38.345 56.0499 38.583 55.9099 38.854 55.8969C39.125 55.8839 39.376 56.0019 39.327 55.7949C39.312 55.7309 39.274 55.6759 39.221 55.6309C39.194 55.6089 39.164 55.5889 39.131 55.5729C39.098 55.5559 39.062 55.5429 39.024 55.5329C39.033 55.5339 39.042 55.5349 39.05 55.5359C39.197 55.5619 39.305 55.6289 39.359 55.6919Z" fill="#334725"/>
<path d="M39.5341 56.1326C39.4171 56.2946 39.1551 56.4116 38.8861 56.4166C38.6171 56.4376 38.3461 56.3446 38.2141 56.1956C38.0771 56.0436 38.1121 55.8786 38.1071 55.8836C38.1071 55.8836 38.1041 55.8916 38.0991 55.9086C38.0941 55.9246 38.0881 55.9486 38.0861 55.9816C38.0811 56.0446 38.0911 56.1446 38.1571 56.2406C38.1901 56.2866 38.2321 56.3336 38.2831 56.3746C38.3341 56.4156 38.3941 56.4516 38.4601 56.4766C38.5891 56.5276 38.7481 56.5516 38.8921 56.5466C39.0411 56.5366 39.1891 56.4986 39.3151 56.4356C39.4431 56.3726 39.5391 56.2706 39.5951 56.1726C39.6511 56.0706 39.6511 55.9706 39.6411 55.9076C39.6351 55.8756 39.6271 55.8526 39.6211 55.8366C39.6151 55.8206 39.6111 55.8126 39.6111 55.8126C39.6051 55.8076 39.6551 55.9686 39.5341 56.1326Z" fill="#334725"/>
<path d="M33.186 68.0135C33.387 68.1265 33.566 68.2185 33.712 68.2945C33.785 68.3325 33.851 68.3655 33.908 68.3945C33.965 68.4235 34.014 68.4475 34.053 68.4665C34.132 68.5055 34.175 68.5245 34.175 68.5245C34.175 68.5245 34.039 68.3905 33.798 68.1695C33.677 68.0595 33.531 67.9245 33.36 67.7785C33.192 67.6275 33.018 67.4385 32.816 67.2515C32.615 67.0625 32.402 66.8535 32.188 66.6215C32.081 66.5055 31.968 66.3905 31.854 66.2715C31.74 66.1525 31.626 66.0295 31.515 65.8975C31.29 65.6395 31.052 65.3775 30.829 65.0965C30.601 64.8195 30.367 64.5395 30.158 64.2405L29.826 63.8065C29.723 63.6575 29.62 63.5085 29.518 63.3605C29.309 63.0675 29.118 62.7705 28.928 62.4835C28.562 61.9035 28.227 61.3545 27.957 60.8705C27.684 60.3885 27.466 59.9785 27.315 59.6885C27.165 59.3985 27.083 59.2285 27.083 59.2285C27.083 59.2285 27.088 59.2755 27.102 59.3625C27.116 59.4505 27.138 59.5775 27.174 59.7395C27.192 59.8195 27.213 59.9085 27.237 60.0055C27.261 60.1025 27.289 60.2065 27.32 60.3175C27.383 60.5395 27.461 60.7865 27.56 61.0525C27.652 61.3215 27.769 61.6055 27.9 61.9025C28.034 62.1985 28.179 62.5105 28.349 62.8225C28.528 63.1295 28.69 63.4605 28.904 63.7675C29.007 63.9235 29.11 64.0815 29.214 64.2395L29.549 64.6995C29.773 65.0065 30.025 65.2915 30.269 65.5755C30.502 65.8685 30.784 66.1105 31.032 66.3655C31.276 66.6245 31.555 66.8315 31.803 67.0415C31.93 67.1435 32.047 67.2495 32.171 67.3395C32.298 67.4265 32.42 67.5095 32.538 67.5905C32.773 67.7505 32.985 67.8995 33.186 68.0135Z" fill="#334725"/>
<path d="M55.862 56.4346C55.824 56.4676 55.785 56.4986 55.748 56.5336C55.48 56.7806 55.228 57.0606 55.004 57.3786C54.407 58.2266 54.004 59.3426 53.992 60.8106C53.98 62.2786 53.543 63.6736 52.778 64.9466C52.682 65.1056 52.582 65.2626 52.476 65.4176C52.053 66.0386 51.552 66.6266 50.983 67.1776C50.273 67.8656 49.458 68.4936 48.562 69.0496C47.309 69.8286 45.897 70.4656 44.393 70.9296C43.963 71.0616 43.526 71.1806 43.083 71.2836C42.64 71.3866 42.19 71.4746 41.736 71.5476C41.055 71.6566 40.364 71.7296 39.668 71.7646C39.668 71.7646 39.814 71.7936 40.088 71.8346C40.691 71.9256 41.914 72.0756 43.573 72.1076C50.569 72.2436 56.678 68.0086 59.176 61.9526C58.744 61.0006 58.46 60.2226 58.295 59.7196C57.849 58.3546 57.346 57.9126 56.813 57.4446C56.479 57.1506 56.144 56.8266 55.862 56.4346Z" fill="#334725"/>
<path d="M48.1185 48.6227C48.2555 48.6347 48.4215 48.6497 48.6125 48.6677C48.7075 48.6767 48.8095 48.6857 48.9165 48.6947C49.0235 48.7047 49.1365 48.7147 49.2535 48.7247C49.4885 48.7437 49.7425 48.7687 50.0105 48.7957C50.1445 48.8097 50.2825 48.8237 50.4235 48.8387C50.5645 48.8537 50.7075 48.8687 50.8535 48.8827C51.4385 48.9427 52.0605 49.0097 52.6805 49.0917C53.3015 49.1647 53.9185 49.2637 54.4975 49.3557C54.7855 49.4077 55.0645 49.4567 55.3285 49.5047C55.5905 49.5617 55.8385 49.6157 56.0675 49.6657C56.2945 49.7237 56.5035 49.7767 56.6875 49.8237C56.8585 49.8617 57.0015 49.9107 57.1245 49.9507C57.1505 49.9337 57.1775 49.9167 57.2035 49.9007C57.1985 49.8977 57.1945 49.8957 57.1885 49.8937C56.9415 49.7677 56.5745 49.6167 56.1255 49.4597C55.8985 49.3897 55.6515 49.3147 55.3915 49.2347C55.1285 49.1667 54.8505 49.0907 54.5605 49.0267C54.4145 48.9987 54.2675 48.9677 54.1175 48.9367C53.9675 48.9067 53.8155 48.8767 53.6615 48.8527C53.3535 48.8077 53.0415 48.7507 52.7275 48.7137C52.0995 48.6387 51.4705 48.5767 50.8785 48.5487C50.5825 48.5307 50.2965 48.5227 50.0255 48.5187C49.8895 48.5167 49.7575 48.5157 49.6305 48.5147C49.5025 48.5137 49.3795 48.5127 49.2615 48.5117C48.9065 48.5147 48.5955 48.5247 48.3465 48.5377C48.1805 48.5457 48.0415 48.5547 47.9345 48.5627C47.7735 48.5747 47.6855 48.5837 47.6855 48.5837C47.6855 48.5837 47.8435 48.5977 48.1185 48.6227Z" fill="#334725"/>
<path d="M52.901 46.2581C53.122 46.1421 53.338 46.0111 53.526 45.8661C53.624 45.8011 53.707 45.7171 53.788 45.6461C53.872 45.5771 53.936 45.4921 54 45.4221C54.067 45.3551 54.11 45.2731 54.154 45.2101C54.2 45.1481 54.229 45.0861 54.25 45.0331C54.294 44.9301 54.314 44.8721 54.314 44.8721C54.314 44.8721 54.268 44.9151 54.188 44.9891C54.152 45.0271 54.104 45.0691 54.044 45.1141C53.984 45.1571 53.927 45.2141 53.851 45.2621C53.779 45.3141 53.699 45.3671 53.613 45.4211C53.527 45.4751 53.435 45.5311 53.339 45.5861C53.147 45.6971 52.938 45.8101 52.725 45.9191C52.516 46.0341 52.298 46.1351 52.097 46.2401C51.996 46.2921 51.898 46.3411 51.805 46.3891C51.712 46.4361 51.624 46.4811 51.543 46.5221C51.462 46.5641 51.387 46.6031 51.321 46.6391C51.255 46.6751 51.197 46.7071 51.15 46.7331C51.055 46.7861 51.001 46.8191 51.001 46.8191C51.001 46.8191 51.254 46.8111 51.618 46.7271C51.709 46.7071 51.807 46.6821 51.909 46.6521C52.218 46.5631 52.567 46.4301 52.901 46.2581Z" fill="#334725"/>
<path d="M47.0913 45.721C47.1323 45.702 47.2293 45.6521 47.3373 45.5691C47.4843 45.4601 47.6533 45.2921 47.7933 45.1021C47.9313 44.9101 48.0413 44.6961 48.0953 44.5171C48.1523 44.3401 48.1473 44.2061 48.1473 44.2061C48.1473 44.2061 48.0383 44.281 47.9093 44.402C47.7773 44.522 47.6223 44.6921 47.4853 44.8781C47.3513 45.0651 47.2353 45.2681 47.1653 45.4351C47.1293 45.5181 47.1053 45.5911 47.0903 45.6451C47.0753 45.6981 47.0693 45.731 47.0693 45.731C47.0693 45.731 47.0773 45.727 47.0913 45.721Z" fill="#334725"/>
<path d="M71.4297 43.8337C71.4297 43.8337 71.7237 43.7977 72.2377 43.7357C72.4927 43.6987 72.8037 43.6627 73.1597 43.6247C73.5147 43.5807 73.9147 43.5337 74.3527 43.4937C74.7887 43.4447 75.2627 43.4117 75.7617 43.3697C76.2597 43.3197 76.7897 43.3147 77.3327 43.2707C77.8777 43.2527 78.4407 43.2317 79.0127 43.2277C79.5847 43.2087 80.1647 43.2277 80.7457 43.2367C81.3257 43.2577 81.9067 43.2647 82.4767 43.3117C83.0477 43.3467 83.6087 43.3897 84.1517 43.4377C85.2357 43.5527 86.2497 43.6697 87.1167 43.8087C87.5517 43.8707 87.9487 43.9377 88.3007 44.0007C88.6547 44.0587 88.9637 44.1087 89.2157 44.1597C89.4067 44.1937 89.5677 44.2217 89.6937 44.2437C89.9037 44.2807 90.0177 44.3007 90.0177 44.3007C90.0177 44.3007 89.7437 44.1847 89.2677 43.9827C89.0287 43.8797 88.7327 43.7717 88.3907 43.6537C88.0497 43.5307 87.6617 43.4037 87.2317 43.2857C86.3777 43.0267 85.3577 42.8057 84.2557 42.6227C83.7027 42.5487 83.1317 42.4497 82.5457 42.4127C81.9617 42.3537 81.3647 42.3347 80.7687 42.3037C80.1717 42.3057 79.5757 42.2977 78.9887 42.3267C78.6947 42.3307 78.4047 42.3517 78.1177 42.3767C77.9747 42.3887 77.8317 42.4027 77.6907 42.4157C77.5497 42.4287 77.4087 42.4417 77.2697 42.4527C76.7147 42.5197 76.1787 42.5837 75.6757 42.6797C75.1707 42.7627 74.6977 42.8597 74.2647 42.9667C73.8297 43.0617 73.4357 43.1707 73.0887 43.2737C72.7407 43.3727 72.4397 43.4667 72.1957 43.5557C72.0737 43.5997 71.9647 43.6387 71.8707 43.6737C71.8237 43.6907 71.7797 43.7067 71.7397 43.7207C71.5387 43.7947 71.4297 43.8337 71.4297 43.8337Z" fill="#334725"/>
<path d="M94.639 64.6102C94.827 64.4512 94.999 64.2972 95.155 64.1532C95.311 64.0082 95.451 63.8732 95.576 63.7482C95.831 63.5052 96.014 63.2972 96.143 63.1602C96.27 63.0222 96.338 62.9482 96.338 62.9482C96.338 62.9482 96.318 62.9632 96.279 62.9922C96.24 63.0212 96.182 63.0652 96.107 63.1212C95.956 63.2332 95.743 63.4062 95.456 63.6062C95.315 63.7092 95.158 63.8222 94.986 63.9422C94.814 64.0622 94.626 64.1892 94.424 64.3222C94.323 64.3882 94.218 64.4562 94.11 64.5242C93.785 64.7302 93.427 64.9452 93.04 65.1612C92.004 65.7252 90.749 66.3062 89.344 66.6322C88.644 66.8062 87.905 66.8632 87.166 66.8592C86.982 66.8482 86.795 66.8482 86.611 66.8292L86.06 66.7472C85.967 66.7272 85.877 66.7062 85.788 66.6842C85.52 66.6192 85.257 66.5462 84.938 66.4592C84.533 66.3512 84.124 66.2692 83.716 66.2082C83.308 66.1462 82.902 66.1052 82.501 66.0782C81.7 66.0162 80.916 66.0202 80.169 66.0102C79.421 65.9982 78.702 66.0022 78.025 65.9692C77.686 65.9562 77.358 65.9352 77.041 65.9072C76.722 65.8892 76.419 65.8472 76.125 65.8132C75.832 65.7752 75.553 65.7302 75.288 65.6822C75.155 65.6582 75.027 65.6332 74.902 65.6072C74.277 65.4772 73.746 65.3302 73.33 65.2022C73.247 65.1732 73.169 65.1462 73.096 65.1202C72.581 64.9402 72.292 64.8402 72.292 64.8402C72.292 64.8402 72.314 64.8522 72.356 64.8762C72.398 64.9002 72.461 64.9362 72.542 64.9822C72.707 65.0712 72.944 65.2172 73.261 65.3722C73.34 65.4102 73.424 65.4502 73.513 65.4902C73.602 65.5302 73.695 65.5722 73.794 65.6142C74.383 65.8662 75.137 66.1372 76.031 66.3382C76.329 66.4032 76.639 66.4772 76.964 66.5232C77.288 66.5802 77.625 66.6282 77.971 66.6622C78.664 66.7432 79.394 66.7962 80.144 66.8312C80.895 66.8652 81.661 66.9142 82.429 66.9772C83.005 67.0232 83.58 67.1012 84.14 67.2232C84.327 67.2642 84.512 67.3102 84.695 67.3612C84.782 67.3832 84.875 67.4072 84.972 67.4322C85.069 67.4572 85.17 67.4832 85.273 67.5092C85.479 67.5612 85.692 67.6112 85.896 67.6512C86.106 67.6792 86.316 67.7082 86.525 67.7362C86.734 67.7552 86.944 67.7542 87.152 67.7632C87.985 67.7682 88.797 67.6432 89.547 67.4322C91.052 67.0122 92.32 66.3042 93.324 65.6192C93.825 65.2722 94.263 64.9292 94.639 64.6102Z" fill="#334725"/>
<path d="M106.75 60.6364C106.759 60.5534 106.736 60.4784 106.699 60.4084C106.658 60.3304 106.602 60.2584 106.533 60.1964C106.488 60.1564 106.44 60.1184 106.394 60.0844C106.368 60.0654 106.341 60.0464 106.31 60.0424C106.306 60.0415 106.303 60.0414 106.299 60.0414C106.281 60.0414 106.265 60.0524 106.248 60.0614C106.24 60.0654 106.232 60.0654 106.225 60.0704C106.201 60.0884 106.179 60.1125 106.161 60.1375C106.128 60.1835 106.1 60.2314 106.074 60.2824C106.024 60.3834 105.986 60.4914 105.948 60.6004C105.929 60.6544 105.91 60.7085 105.889 60.7625C105.825 60.3765 105.726 60.0175 105.601 59.6805C105.476 59.3435 105.327 59.0295 105.163 58.7335C104.835 58.1415 104.451 57.6245 104.095 57.1465C104.031 57.0605 103.967 56.9745 103.904 56.8885C103.464 56.2905 103.068 55.7094 102.879 55.0704C102.845 54.9554 102.798 54.8054 102.736 54.6224C102.519 53.9834 102.117 52.9534 101.448 51.7254C101.257 51.3744 101.044 51.0075 100.807 50.6295C100.215 49.6825 99.4743 48.6634 98.5553 47.6404C98.1393 47.1774 97.7063 46.7354 97.2563 46.3124C96.3573 45.4674 95.3913 44.7014 94.3603 44.0184C93.5873 43.5054 92.7773 43.0384 91.9313 42.6174C91.6493 42.4774 91.3633 42.3424 91.0743 42.2124C89.9153 41.6924 88.6933 41.2545 87.4103 40.9005C86.7683 40.7235 86.1123 40.5675 85.4403 40.4315C85.0403 40.3505 84.6413 40.2825 84.2433 40.2205C84.1233 40.2015 84.0023 40.1855 83.8823 40.1685C83.5953 40.1275 83.3093 40.0914 83.0243 40.0594C82.8963 40.0454 82.7693 40.0314 82.6423 40.0194C82.3243 39.9894 82.0073 39.9654 81.6913 39.9464C81.6123 39.9414 81.5323 39.9345 81.4533 39.9305C81.0613 39.9115 80.6713 39.9015 80.2823 39.9005C80.2563 39.9005 80.2303 39.8984 80.2053 39.8984C80.1363 39.8984 80.0673 39.9034 79.9973 39.9044C79.6823 39.9074 79.3683 39.9154 79.0553 39.9294C78.9323 39.9354 78.8103 39.9415 78.6883 39.9485C78.3593 39.9685 78.0313 39.9954 77.7043 40.0284C77.6303 40.0364 77.5553 40.0414 77.4813 40.0494C77.0873 40.0934 76.6953 40.1474 76.3043 40.2104C76.1993 40.2274 76.0953 40.2474 75.9903 40.2654C75.6923 40.3174 75.3953 40.3744 75.0993 40.4374C74.9803 40.4624 74.8613 40.4884 74.7433 40.5154C74.3993 40.5944 74.0563 40.6794 73.7143 40.7734C73.6673 40.7864 73.6203 40.7965 73.5743 40.8105C73.1903 40.9185 72.8073 41.0384 72.4263 41.1654C72.3183 41.2014 72.2113 41.2404 72.1033 41.2774C71.8163 41.3774 71.5293 41.4835 71.2443 41.5945C71.1333 41.6375 71.0223 41.6804 70.9113 41.7254C70.5333 41.8784 70.1573 42.0385 69.7833 42.2115L69.7813 42.2124C65.1733 44.3404 62.3533 47.2554 61.3553 48.4104C61.0813 48.7274 60.8243 48.9825 60.5823 49.1895C59.8563 49.8125 59.2623 50.0114 58.7223 50.1924C58.1383 50.3874 57.5963 50.6084 57.1493 51.0324C57.0933 51.0854 57.0393 51.1424 56.9863 51.2014C56.9163 51.2804 56.8503 51.3694 56.7853 51.4624C56.7043 51.5794 56.6273 51.7045 56.5563 51.8455C56.4713 52.0145 56.3943 52.2015 56.3253 52.4095C56.2563 52.6175 56.1963 52.8474 56.1453 53.1014C55.9413 54.1164 56.0213 54.8334 56.2693 55.3984C56.3623 55.6104 56.4783 55.8004 56.6123 55.9774C56.7013 56.0954 56.7983 56.2074 56.9003 56.3154C57.0023 56.4234 57.1113 56.5274 57.2233 56.6304C57.2793 56.6814 57.3363 56.7324 57.3943 56.7834C57.5373 56.9084 57.6843 57.0384 57.8333 57.1864C58.2803 57.6324 58.7413 58.2504 59.1323 59.4454C59.4873 60.5334 60.4043 62.9324 62.2853 65.6434C62.4423 65.8694 62.6053 66.0975 62.7763 66.3275C63.1173 66.7865 63.4853 67.2525 63.8833 67.7205C64.0823 67.9545 64.2883 68.1885 64.5023 68.4225C64.7313 68.6735 64.9653 68.9184 65.2013 69.1584C65.6753 69.6374 66.1633 70.0955 66.6663 70.5305C67.1693 70.9655 67.6873 71.3775 68.2183 71.7675C68.7503 72.1575 69.2963 72.5244 69.8563 72.8694C70.4163 73.2134 70.9903 73.5354 71.5783 73.8344C72.7543 74.4324 73.9863 74.9385 75.2703 75.3535C75.6573 75.4785 76.0513 75.5914 76.4483 75.6994C77.0383 75.8604 77.6373 76.0044 78.2493 76.1274L78.2523 76.1284C78.6573 76.2094 79.0583 76.2794 79.4593 76.3424C79.5783 76.3614 79.6973 76.3774 79.8153 76.3944C80.1143 76.4374 80.4123 76.4755 80.7083 76.5085C80.8223 76.5215 80.9373 76.5344 81.0513 76.5464C81.4463 76.5854 81.8393 76.6175 82.2293 76.6385C82.2633 76.6405 82.2973 76.6405 82.3313 76.6425C82.6893 76.6595 83.0453 76.6684 83.3983 76.6704C83.4463 76.6704 83.4953 76.6744 83.5433 76.6744C83.6123 76.6744 83.6803 76.6694 83.7493 76.6694C84.0303 76.6674 84.3103 76.6594 84.5893 76.6474C84.6983 76.6424 84.8083 76.6395 84.9173 76.6335C85.2923 76.6115 85.6663 76.5834 86.0373 76.5444C86.0703 76.5404 86.1033 76.5354 86.1363 76.5314C86.4753 76.4934 86.8113 76.4474 87.1463 76.3954C87.2583 76.3774 87.3693 76.3584 87.4803 76.3394C87.7493 76.2934 88.0163 76.2415 88.2833 76.1855C88.3893 76.1635 88.4963 76.1414 88.6013 76.1174C88.9603 76.0364 89.3183 75.9485 89.6723 75.8495C89.6893 75.8445 89.7063 75.8384 89.7243 75.8334C90.0613 75.7384 90.3963 75.6335 90.7283 75.5215C90.8333 75.4865 90.9383 75.4484 91.0433 75.4114C91.2993 75.3214 91.5543 75.2264 91.8073 75.1264C91.9093 75.0864 92.0113 75.0474 92.1133 75.0054C92.4553 74.8644 92.7953 74.7174 93.1323 74.5584C94.6243 73.8544 95.8783 73.0544 96.8933 72.2904C97.1393 72.1054 97.3663 71.9245 97.5833 71.7455C98.5523 70.9505 99.2493 70.2344 99.6703 69.7614C99.6853 69.7444 99.6993 69.7294 99.7133 69.7134C99.8293 69.5814 99.9253 69.4684 99.9963 69.3814C100.055 69.3084 100.127 69.2464 100.193 69.1784C100.66 68.6964 101.27 68.3234 101.921 67.9384C102.201 67.7724 102.494 67.5994 102.789 67.4074C102.937 67.3114 103.085 67.2114 103.232 67.1044C103.968 66.5724 104.681 65.8944 105.199 64.9044C105.236 64.9674 105.265 65.0375 105.286 65.1115C105.306 65.1854 105.319 65.2624 105.322 65.3384C105.323 65.3614 105.326 65.3854 105.33 65.4104C105.331 65.4174 105.334 65.4245 105.336 65.4315C105.34 65.4485 105.344 65.4645 105.35 65.4785C105.353 65.4865 105.358 65.4914 105.362 65.4984C105.369 65.5094 105.375 65.5214 105.384 65.5284C105.39 65.5334 105.397 65.5344 105.404 65.5364C105.412 65.5394 105.418 65.5464 105.428 65.5464C105.433 65.5464 105.437 65.5464 105.442 65.5454C105.48 65.5384 105.507 65.5024 105.528 65.4664C105.56 65.4114 105.585 65.3524 105.606 65.2914C105.648 65.1704 105.674 65.0414 105.714 64.9194C105.734 64.8584 105.758 64.7984 105.788 64.7424C105.804 64.7124 105.824 64.6835 105.843 64.6555C105.899 64.5685 105.959 64.4835 105.986 64.3835C106.048 64.1515 105.908 63.9134 105.937 63.6744C105.942 63.6284 105.954 63.5844 105.97 63.5414C106.017 63.4134 106.101 63.2964 106.171 63.1784C106.213 63.1084 106.25 63.0364 106.284 62.9624C106.37 62.7774 106.435 62.5824 106.498 62.3864C106.51 62.3474 106.523 62.3084 106.535 62.2694C106.574 62.1444 106.614 62.0154 106.626 61.8854C106.63 61.8424 106.631 61.7984 106.627 61.7554C106.617 61.6244 106.569 61.5005 106.554 61.3705C106.546 61.3025 106.548 61.2325 106.558 61.1645C106.568 61.0965 106.588 61.0294 106.615 60.9664C106.638 60.9144 106.667 60.8634 106.692 60.8124C106.717 60.7614 106.739 60.7085 106.747 60.6515C106.751 60.6455 106.749 60.6404 106.75 60.6364ZM103.461 58.6165C103.482 58.9765 103.488 59.3624 103.479 59.7484C103.459 59.9404 103.434 60.1315 103.407 60.3195C103.379 60.5075 103.348 60.6904 103.315 60.8684C103.246 61.2234 103.126 61.5414 103.033 61.8134C102.987 61.9494 102.933 62.0714 102.882 62.1774C102.831 62.2834 102.782 62.3744 102.746 62.4494C102.725 62.4864 102.706 62.5185 102.69 62.5475C102.657 62.6045 102.634 62.6445 102.622 62.6645C102.616 62.6745 102.613 62.6794 102.613 62.6794C102.613 62.6794 102.613 62.6734 102.614 62.6614C102.616 62.6264 102.622 62.5405 102.63 62.4145C102.653 62.2505 102.656 62.0095 102.692 61.7325C102.734 61.4565 102.735 61.1274 102.781 60.7854C102.8 60.6134 102.817 60.4364 102.83 60.2554C102.843 60.0744 102.853 59.8914 102.859 59.7084C102.895 59.3424 102.917 58.9754 102.923 58.6304C102.924 58.2854 102.963 57.9594 102.957 57.6794C102.958 57.4004 102.984 57.1605 102.982 56.9955C102.993 56.8265 102.999 56.7304 102.999 56.7304C102.999 56.7304 103.036 56.8194 103.101 56.9764C103.114 57.0164 103.129 57.0605 103.147 57.1085C103.181 57.2045 103.221 57.3165 103.256 57.4435C103.274 57.5065 103.29 57.5744 103.304 57.6444C103.361 57.9244 103.438 58.2565 103.461 58.6165ZM70.9393 65.8575C70.6243 65.6945 70.3063 65.5424 70.0023 65.3774C69.7083 65.1984 69.4183 65.0215 69.1323 64.8484C68.9883 64.7624 68.8453 64.6774 68.7043 64.5924C68.5673 64.5014 68.4383 64.4035 68.3063 64.3105C68.0423 64.1235 67.7833 63.9394 67.5293 63.7594C67.2873 63.5654 67.0513 63.3725 66.8233 63.1815C66.3663 62.7975 65.9383 62.4175 65.5543 62.0345C65.3623 61.8425 65.1823 61.6505 65.0143 61.4565C64.6523 61.0895 64.3813 60.6924 64.0833 60.3554C63.8183 59.9954 63.5603 59.6694 63.3563 59.3554C63.1463 59.0454 62.9613 58.7634 62.8013 58.5154C62.7213 58.3914 62.6473 58.2764 62.5803 58.1704C62.5133 58.0644 62.4513 57.9674 62.3963 57.8804C62.2903 57.7054 62.1923 57.5825 62.1333 57.4955C62.0723 57.4095 62.0413 57.3644 62.0413 57.3644C62.0413 57.3644 62.1153 57.5694 62.2543 57.9544C62.2893 58.0494 62.3253 58.1565 62.3653 58.2755C62.4863 58.6315 62.6403 59.0884 62.8683 59.6194C63.0093 59.9784 63.2023 60.3604 63.4003 60.7864C63.4563 60.8884 63.5133 60.9944 63.5713 61.1014C63.6293 61.2084 63.6883 61.3184 63.7513 61.4294C63.8753 61.6504 64.0103 61.8774 64.1643 62.1014C64.7313 63.0354 65.5193 63.9934 66.4583 64.9714C65.2263 63.9574 64.2713 62.9255 63.5203 61.9525C63.2203 61.5635 62.9523 61.1834 62.7133 60.8174C61.6353 59.1714 61.1253 57.8134 60.7563 57.1834C60.6873 57.0654 60.6123 56.9524 60.5323 56.8464C60.4523 56.7394 60.3673 56.6385 60.2793 56.5424C59.9253 56.1565 59.5123 55.8484 59.1093 55.5704C58.1013 54.8754 57.1573 54.3744 57.3643 53.3504C57.3973 53.1884 57.4323 53.0425 57.4723 52.9095C57.5503 52.6435 57.6423 52.4314 57.7473 52.2594C57.8003 52.1734 57.8553 52.0974 57.9153 52.0294C58.6263 51.2124 59.8233 51.5684 61.5463 50.0024C61.4633 50.2414 61.3843 50.4854 61.3133 50.7314C61.0243 51.7334 60.8593 52.7584 60.8053 53.5284C60.7973 53.6244 60.7903 53.7174 60.7853 53.8044C60.7803 53.8924 60.7763 53.9754 60.7723 54.0534C60.7663 54.2094 60.7633 54.3464 60.7623 54.4584C60.7613 54.6824 60.7613 54.8105 60.7613 54.8105C60.7613 54.8105 60.7763 54.6835 60.8023 54.4615C60.8153 54.3505 60.8333 54.2154 60.8573 54.0624C60.8693 53.9854 60.8823 53.9035 60.8983 53.8185C60.9133 53.7325 60.9303 53.6424 60.9493 53.5484C60.9843 53.3604 61.0283 53.1584 61.0803 52.9464C61.1323 52.7344 61.1923 52.5125 61.2593 52.2845C61.3943 51.8295 61.5603 51.3514 61.7543 50.8864C62.1423 49.9554 62.6383 49.0825 63.0643 48.4705C63.1203 48.3875 63.1743 48.3105 63.2263 48.2365C66.6423 44.8394 74.3933 39.4805 85.1933 41.6555C86.5763 41.9335 87.8493 42.2985 89.0213 42.7285C89.2553 42.8145 89.4863 42.9034 89.7123 42.9944C90.1653 43.1764 90.6023 43.3694 91.0233 43.5704C91.8663 43.9724 92.6473 44.4094 93.3703 44.8714C94.4553 45.5644 95.4093 46.3124 96.2483 47.0834C96.8073 47.5964 97.3143 48.1204 97.7743 48.6434C98.9243 49.9504 99.7763 51.2564 100.395 52.4024C101.252 54.9574 101.363 57.5175 100.835 59.8925C100.928 59.1805 100.955 58.5024 100.935 57.8804C100.904 56.7794 100.74 55.8374 100.532 55.0894C100.447 54.7114 100.331 54.3855 100.229 54.1035C100.179 53.9625 100.133 53.8324 100.09 53.7144C100.04 53.5984 99.9943 53.4924 99.9543 53.3974C99.8713 53.2104 99.8073 53.0675 99.7643 52.9705C99.7213 52.8735 99.6993 52.8235 99.6993 52.8235C99.6993 52.8235 99.7343 53.0384 99.7993 53.4414C99.8163 53.5414 99.8353 53.6524 99.8573 53.7744C99.8703 53.8984 99.8843 54.0334 99.9003 54.1794C99.9293 54.4714 99.9723 54.8014 99.9823 55.1754C100.022 55.7324 100.008 56.3794 99.9453 57.0914C99.9243 57.3284 99.8973 57.5734 99.8653 57.8244C99.7603 58.5764 99.5733 59.3865 99.2843 60.2155C99.1883 60.4915 99.0803 60.7704 98.9603 61.0494C98.4813 62.1664 97.7973 63.2924 96.9043 64.3284C96.0023 65.3574 94.8853 66.2834 93.6133 67.0464C93.2923 67.2334 92.9613 67.4095 92.6223 67.5735C91.9433 67.9015 91.2283 68.1844 90.4893 68.4204C90.1193 68.5384 89.7433 68.6444 89.3623 68.7394C87.8353 69.1104 86.2233 69.2724 84.6033 69.2534C84.1973 69.2494 83.7923 69.2504 83.3863 69.2144C82.9793 69.1894 82.5723 69.1654 82.1843 69.1104C81.7923 69.0634 81.4063 69.0284 80.9703 68.9504L80.3363 68.8484L80.1783 68.8224L80.1383 68.8164L80.1253 68.8145L80.0573 68.7994L79.7553 68.7335C79.3533 68.6455 78.9523 68.5584 78.5543 68.4714C78.3563 68.4254 78.1553 68.3885 77.9553 68.3484C77.7563 68.3084 77.5583 68.2644 77.3673 68.2044C76.9803 68.0964 76.5963 67.9884 76.2143 67.8814C76.0253 67.8244 75.8323 67.7774 75.6413 67.7264C75.4513 67.6754 75.2623 67.6214 75.0823 67.5504C73.6093 67.0474 72.1963 66.5165 70.9393 65.8575Z" fill="#334725"/>
<path d="M94.8491 49.0729C94.8041 49.0339 94.7541 48.9909 94.6991 48.9449C94.6441 48.8979 94.5851 48.8479 94.5211 48.7949C94.3941 48.6879 94.2491 48.5689 94.0891 48.4409C93.7611 48.1979 93.3701 47.9269 92.9461 47.6409C92.5101 47.3769 92.0381 47.1049 91.5601 46.8429C91.0681 46.6089 90.5711 46.3869 90.1001 46.1889C89.6201 46.0139 89.1701 45.8569 88.7811 45.7339C88.3861 45.6259 88.0551 45.5459 87.8231 45.4909C87.6471 45.4579 87.5271 45.4359 87.4781 45.4269C87.4621 45.4239 87.4531 45.4219 87.4531 45.4219C87.4531 45.4219 87.5201 45.4589 87.6421 45.5269C87.6831 45.5489 87.7291 45.5749 87.7811 45.6039C87.9931 45.7099 88.2951 45.8639 88.6511 46.0579C88.8331 46.1439 89.0291 46.2409 89.2351 46.3459C89.4411 46.4509 89.6561 46.5629 89.8781 46.6809C90.3301 46.8989 90.8061 47.1429 91.2761 47.3969C91.7581 47.6289 92.2341 47.8719 92.6761 48.1089C92.7891 48.1639 92.9001 48.2189 93.0081 48.2729C93.3331 48.4349 93.6351 48.5909 93.9011 48.7359C94.2671 48.9099 94.5691 49.0629 94.7791 49.1719C94.9961 49.2729 95.1201 49.3299 95.1201 49.3299C95.1201 49.3299 95.0231 49.2369 94.8491 49.0729Z" fill="#334725"/>
</svg>
